G04 EAGLE Gerber RS-274X export*
G75*
%MOMM*%
%FSLAX34Y34*%
%LPD*%
%INBottom Copper*%
%IPPOS*%
%AMOC8*
5,1,8,0,0,1.08239X$1,22.5*%
G01*
%ADD10R,1.308000X1.308000*%
%ADD11C,1.308000*%
%ADD12C,2.540000*%
%ADD13P,2.749271X8X202.500000*%
%ADD14P,1.732040X8X292.500000*%
%ADD15P,1.732040X8X202.500000*%
%ADD16C,1.524000*%
%ADD17C,1.320800*%
%ADD18R,1.241000X1.241000*%
%ADD19C,1.241000*%
%ADD20P,1.429621X8X22.500000*%
%ADD21P,1.429621X8X112.500000*%
%ADD22C,1.790700*%
%ADD23C,1.016000*%
%ADD24C,0.508000*%
%ADD25C,0.914400*%
%ADD26R,1.206400X1.206400*%

G36*
X710714Y10164D02*
X710714Y10164D01*
X710733Y10162D01*
X710835Y10184D01*
X710937Y10200D01*
X710954Y10210D01*
X710974Y10214D01*
X711063Y10267D01*
X711154Y10316D01*
X711168Y10330D01*
X711185Y10340D01*
X711252Y10419D01*
X711324Y10494D01*
X711332Y10512D01*
X711345Y10527D01*
X711384Y10623D01*
X711427Y10717D01*
X711429Y10737D01*
X711437Y10755D01*
X711455Y10922D01*
X711455Y257884D01*
X711448Y257929D01*
X711450Y257975D01*
X711428Y258050D01*
X711416Y258126D01*
X711394Y258167D01*
X711381Y258211D01*
X711337Y258275D01*
X711300Y258344D01*
X711267Y258375D01*
X711241Y258413D01*
X711179Y258460D01*
X711122Y258513D01*
X711080Y258533D01*
X711044Y258560D01*
X710970Y258584D01*
X710899Y258617D01*
X710853Y258622D01*
X710810Y258636D01*
X710732Y258635D01*
X710655Y258644D01*
X710610Y258634D01*
X710564Y258634D01*
X710432Y258596D01*
X710414Y258592D01*
X710410Y258589D01*
X710403Y258587D01*
X706563Y256996D01*
X697549Y256996D01*
X689222Y260446D01*
X682848Y266820D01*
X679398Y275147D01*
X679398Y284161D01*
X682848Y292488D01*
X689222Y298862D01*
X697549Y302312D01*
X706563Y302312D01*
X710403Y300721D01*
X710447Y300711D01*
X710489Y300691D01*
X710566Y300683D01*
X710642Y300665D01*
X710688Y300669D01*
X710733Y300664D01*
X710810Y300681D01*
X710887Y300688D01*
X710929Y300707D01*
X710974Y300716D01*
X711041Y300756D01*
X711112Y300788D01*
X711146Y300819D01*
X711185Y300843D01*
X711236Y300902D01*
X711293Y300954D01*
X711315Y300995D01*
X711345Y301029D01*
X711374Y301102D01*
X711411Y301170D01*
X711420Y301215D01*
X711437Y301258D01*
X711452Y301394D01*
X711455Y301412D01*
X711454Y301417D01*
X711455Y301424D01*
X711455Y393968D01*
X711444Y394039D01*
X711442Y394110D01*
X711424Y394159D01*
X711416Y394211D01*
X711382Y394274D01*
X711357Y394341D01*
X711325Y394382D01*
X711300Y394428D01*
X711249Y394477D01*
X711204Y394533D01*
X711160Y394562D01*
X711122Y394597D01*
X711057Y394628D01*
X710997Y394666D01*
X710946Y394679D01*
X710899Y394701D01*
X710828Y394709D01*
X710758Y394726D01*
X710706Y394722D01*
X710655Y394728D01*
X710584Y394713D01*
X710513Y394707D01*
X710465Y394687D01*
X710414Y394676D01*
X710353Y394639D01*
X710287Y394611D01*
X710231Y394566D01*
X710203Y394550D01*
X710188Y394532D01*
X710156Y394506D01*
X710012Y394363D01*
X705344Y392429D01*
X685052Y392429D01*
X680384Y394363D01*
X676811Y397936D01*
X674877Y402604D01*
X674877Y407656D01*
X676811Y412324D01*
X680384Y415897D01*
X683352Y417127D01*
X683413Y417165D01*
X683478Y417194D01*
X683517Y417229D01*
X683561Y417256D01*
X683607Y417312D01*
X683660Y417360D01*
X683685Y417406D01*
X683718Y417446D01*
X683744Y417513D01*
X683778Y417576D01*
X683787Y417627D01*
X683806Y417675D01*
X683809Y417747D01*
X683822Y417818D01*
X683814Y417869D01*
X683816Y417921D01*
X683796Y417990D01*
X683786Y418061D01*
X683762Y418107D01*
X683748Y418157D01*
X683707Y418216D01*
X683675Y418280D01*
X683637Y418317D01*
X683608Y418359D01*
X683550Y418402D01*
X683499Y418452D01*
X683436Y418487D01*
X683410Y418506D01*
X683388Y418513D01*
X683352Y418533D01*
X680384Y419763D01*
X676811Y423336D01*
X674877Y428004D01*
X674877Y433056D01*
X676811Y437724D01*
X680384Y441297D01*
X683352Y442527D01*
X683413Y442565D01*
X683478Y442594D01*
X683517Y442629D01*
X683561Y442656D01*
X683607Y442712D01*
X683660Y442760D01*
X683685Y442806D01*
X683718Y442846D01*
X683744Y442913D01*
X683778Y442976D01*
X683787Y443027D01*
X683806Y443075D01*
X683809Y443147D01*
X683822Y443218D01*
X683814Y443269D01*
X683816Y443321D01*
X683796Y443390D01*
X683786Y443461D01*
X683762Y443507D01*
X683748Y443557D01*
X683707Y443616D01*
X683675Y443680D01*
X683637Y443717D01*
X683608Y443759D01*
X683550Y443802D01*
X683499Y443852D01*
X683436Y443887D01*
X683410Y443906D01*
X683388Y443913D01*
X683352Y443933D01*
X680384Y445163D01*
X676811Y448736D01*
X674877Y453404D01*
X674877Y458456D01*
X676811Y463124D01*
X680384Y466697D01*
X683352Y467927D01*
X683413Y467965D01*
X683478Y467994D01*
X683517Y468029D01*
X683561Y468056D01*
X683607Y468112D01*
X683660Y468160D01*
X683685Y468206D01*
X683718Y468246D01*
X683744Y468313D01*
X683778Y468376D01*
X683787Y468427D01*
X683806Y468475D01*
X683809Y468547D01*
X683822Y468618D01*
X683814Y468669D01*
X683816Y468721D01*
X683797Y468790D01*
X683786Y468861D01*
X683762Y468907D01*
X683748Y468957D01*
X683707Y469016D01*
X683675Y469080D01*
X683637Y469117D01*
X683608Y469159D01*
X683550Y469202D01*
X683499Y469252D01*
X683436Y469287D01*
X683410Y469306D01*
X683388Y469313D01*
X683352Y469333D01*
X680384Y470563D01*
X676811Y474136D01*
X674877Y478804D01*
X674877Y483856D01*
X676811Y488524D01*
X680384Y492097D01*
X685052Y494031D01*
X705344Y494031D01*
X710012Y492097D01*
X710156Y491954D01*
X710214Y491912D01*
X710266Y491863D01*
X710313Y491841D01*
X710355Y491810D01*
X710424Y491789D01*
X710489Y491759D01*
X710541Y491753D01*
X710591Y491738D01*
X710662Y491740D01*
X710733Y491732D01*
X710784Y491743D01*
X710836Y491744D01*
X710904Y491769D01*
X710974Y491784D01*
X711019Y491811D01*
X711067Y491829D01*
X711123Y491874D01*
X711185Y491910D01*
X711219Y491950D01*
X711259Y491982D01*
X711298Y492043D01*
X711345Y492097D01*
X711364Y492146D01*
X711392Y492189D01*
X711410Y492259D01*
X711437Y492325D01*
X711445Y492397D01*
X711453Y492428D01*
X711451Y492451D01*
X711455Y492492D01*
X711455Y499160D01*
X711444Y499231D01*
X711442Y499302D01*
X711424Y499351D01*
X711416Y499403D01*
X711382Y499466D01*
X711357Y499533D01*
X711325Y499574D01*
X711300Y499620D01*
X711248Y499669D01*
X711204Y499725D01*
X711160Y499754D01*
X711122Y499790D01*
X711057Y499820D01*
X710997Y499858D01*
X710946Y499871D01*
X710899Y499893D01*
X710828Y499901D01*
X710758Y499919D01*
X710706Y499914D01*
X710655Y499920D01*
X710584Y499905D01*
X710513Y499899D01*
X710465Y499879D01*
X710414Y499868D01*
X710353Y499831D01*
X710287Y499803D01*
X710231Y499758D01*
X710203Y499742D01*
X710188Y499724D01*
X710156Y499698D01*
X709437Y498980D01*
X708143Y498040D01*
X706718Y497314D01*
X705197Y496819D01*
X703618Y496569D01*
X696721Y496569D01*
X696721Y505968D01*
X696718Y505988D01*
X696720Y506007D01*
X696698Y506109D01*
X696681Y506211D01*
X696672Y506228D01*
X696668Y506248D01*
X696615Y506337D01*
X696566Y506428D01*
X696552Y506442D01*
X696542Y506459D01*
X696463Y506526D01*
X696388Y506597D01*
X696370Y506606D01*
X696355Y506619D01*
X696259Y506657D01*
X696165Y506701D01*
X696145Y506703D01*
X696127Y506711D01*
X695960Y506729D01*
X695197Y506729D01*
X695197Y506731D01*
X695960Y506731D01*
X695980Y506734D01*
X695999Y506732D01*
X696101Y506754D01*
X696203Y506771D01*
X696220Y506780D01*
X696240Y506784D01*
X696329Y506837D01*
X696420Y506886D01*
X696434Y506900D01*
X696451Y506910D01*
X696518Y506989D01*
X696589Y507064D01*
X696598Y507082D01*
X696611Y507097D01*
X696650Y507193D01*
X696693Y507287D01*
X696695Y507307D01*
X696703Y507325D01*
X696721Y507492D01*
X696721Y516891D01*
X703618Y516891D01*
X705197Y516641D01*
X706718Y516146D01*
X708143Y515420D01*
X709437Y514480D01*
X710156Y513762D01*
X710214Y513720D01*
X710266Y513670D01*
X710313Y513649D01*
X710355Y513618D01*
X710424Y513597D01*
X710489Y513567D01*
X710541Y513561D01*
X710591Y513546D01*
X710662Y513548D01*
X710733Y513540D01*
X710784Y513551D01*
X710836Y513552D01*
X710904Y513577D01*
X710974Y513592D01*
X711019Y513619D01*
X711067Y513637D01*
X711123Y513681D01*
X711185Y513718D01*
X711219Y513758D01*
X711259Y513790D01*
X711298Y513851D01*
X711345Y513905D01*
X711364Y513953D01*
X711392Y513997D01*
X711410Y514067D01*
X711437Y514133D01*
X711445Y514205D01*
X711453Y514236D01*
X711451Y514259D01*
X711455Y514300D01*
X711455Y614917D01*
X711444Y614988D01*
X711442Y615060D01*
X711424Y615109D01*
X711416Y615160D01*
X711382Y615223D01*
X711357Y615291D01*
X711325Y615331D01*
X711300Y615377D01*
X711248Y615427D01*
X711204Y615483D01*
X711160Y615511D01*
X711122Y615547D01*
X711057Y615577D01*
X710997Y615616D01*
X710946Y615628D01*
X710899Y615650D01*
X710828Y615658D01*
X710758Y615676D01*
X710706Y615672D01*
X710655Y615677D01*
X710584Y615662D01*
X710513Y615657D01*
X710465Y615636D01*
X710414Y615625D01*
X710353Y615588D01*
X710287Y615560D01*
X710231Y615515D01*
X710203Y615499D01*
X710188Y615481D01*
X710156Y615455D01*
X703919Y609218D01*
X693081Y609218D01*
X685418Y616881D01*
X685418Y627719D01*
X693081Y635382D01*
X703919Y635382D01*
X710156Y629145D01*
X710214Y629103D01*
X710266Y629053D01*
X710313Y629031D01*
X710355Y629001D01*
X710424Y628980D01*
X710489Y628950D01*
X710541Y628944D01*
X710591Y628929D01*
X710662Y628931D01*
X710733Y628923D01*
X710784Y628934D01*
X710836Y628935D01*
X710904Y628960D01*
X710974Y628975D01*
X711019Y629002D01*
X711067Y629020D01*
X711123Y629064D01*
X711185Y629101D01*
X711219Y629141D01*
X711259Y629173D01*
X711298Y629234D01*
X711345Y629288D01*
X711364Y629336D01*
X711392Y629380D01*
X711410Y629450D01*
X711437Y629516D01*
X711445Y629588D01*
X711453Y629619D01*
X711451Y629642D01*
X711455Y629683D01*
X711455Y636678D01*
X711453Y636694D01*
X711454Y636709D01*
X711454Y636712D01*
X711454Y636717D01*
X711432Y636819D01*
X711416Y636921D01*
X711406Y636938D01*
X711402Y636958D01*
X711349Y637047D01*
X711300Y637138D01*
X711286Y637152D01*
X711276Y637169D01*
X711197Y637236D01*
X711122Y637308D01*
X711104Y637316D01*
X711089Y637329D01*
X710993Y637368D01*
X710899Y637411D01*
X710879Y637413D01*
X710861Y637421D01*
X710694Y637439D01*
X666178Y637439D01*
X666158Y637436D01*
X666139Y637438D01*
X666037Y637416D01*
X665935Y637400D01*
X665918Y637390D01*
X665898Y637386D01*
X665809Y637333D01*
X665718Y637284D01*
X665704Y637270D01*
X665687Y637260D01*
X665620Y637181D01*
X665548Y637106D01*
X665540Y637088D01*
X665527Y637073D01*
X665488Y636977D01*
X665445Y636883D01*
X665443Y636863D01*
X665435Y636845D01*
X665417Y636678D01*
X665417Y626355D01*
X662441Y623379D01*
X646167Y623379D01*
X643191Y626355D01*
X643191Y636678D01*
X643189Y636694D01*
X643190Y636709D01*
X643190Y636712D01*
X643190Y636717D01*
X643168Y636819D01*
X643152Y636921D01*
X643142Y636938D01*
X643138Y636958D01*
X643085Y637047D01*
X643036Y637138D01*
X643022Y637152D01*
X643012Y637169D01*
X642933Y637236D01*
X642858Y637308D01*
X642840Y637316D01*
X642825Y637329D01*
X642729Y637368D01*
X642635Y637411D01*
X642615Y637413D01*
X642597Y637421D01*
X642430Y637439D01*
X435626Y637439D01*
X435555Y637428D01*
X435483Y637426D01*
X435434Y637408D01*
X435383Y637400D01*
X435320Y637366D01*
X435252Y637341D01*
X435212Y637309D01*
X435166Y637284D01*
X435116Y637232D01*
X435060Y637188D01*
X435032Y637144D01*
X434996Y637106D01*
X434966Y637041D01*
X434927Y636981D01*
X434915Y636930D01*
X434893Y636883D01*
X434885Y636812D01*
X434867Y636742D01*
X434871Y636690D01*
X434866Y636639D01*
X434881Y636568D01*
X434886Y636497D01*
X434907Y636449D01*
X434918Y636398D01*
X434955Y636337D01*
X434983Y636271D01*
X435028Y636215D01*
X435044Y636187D01*
X435051Y636181D01*
X435053Y636179D01*
X435065Y636168D01*
X435088Y636140D01*
X470802Y600426D01*
X470876Y600373D01*
X470945Y600313D01*
X470975Y600301D01*
X471001Y600282D01*
X471088Y600255D01*
X471173Y600221D01*
X471214Y600217D01*
X471236Y600210D01*
X471269Y600211D01*
X471340Y600203D01*
X471820Y600203D01*
X475368Y598733D01*
X478083Y596018D01*
X479553Y592470D01*
X479553Y588630D01*
X478083Y585082D01*
X475368Y582367D01*
X471820Y580897D01*
X467980Y580897D01*
X464432Y582367D01*
X461717Y585082D01*
X460247Y588630D01*
X460247Y589110D01*
X460233Y589200D01*
X460225Y589291D01*
X460213Y589321D01*
X460208Y589353D01*
X460165Y589434D01*
X460129Y589517D01*
X460103Y589550D01*
X460092Y589570D01*
X460069Y589592D01*
X460024Y589648D01*
X428543Y621129D01*
X428464Y621186D01*
X428389Y621248D01*
X428365Y621258D01*
X428343Y621273D01*
X428250Y621302D01*
X428160Y621337D01*
X428133Y621338D01*
X428108Y621345D01*
X428011Y621343D01*
X427914Y621347D01*
X427889Y621340D01*
X427863Y621339D01*
X427771Y621306D01*
X427678Y621278D01*
X427656Y621264D01*
X427631Y621255D01*
X427555Y621194D01*
X427475Y621138D01*
X427460Y621117D01*
X427439Y621101D01*
X427387Y621019D01*
X427329Y620941D01*
X427321Y620916D01*
X427306Y620894D01*
X427283Y620800D01*
X427253Y620707D01*
X427253Y620681D01*
X427246Y620655D01*
X427254Y620559D01*
X427255Y620461D01*
X427264Y620430D01*
X427266Y620410D01*
X427278Y620380D01*
X427302Y620300D01*
X427893Y618871D01*
X428245Y617105D01*
X428245Y611123D01*
X419862Y611123D01*
X419842Y611120D01*
X419823Y611122D01*
X419721Y611100D01*
X419619Y611083D01*
X419602Y611074D01*
X419582Y611070D01*
X419493Y611017D01*
X419402Y610968D01*
X419388Y610954D01*
X419371Y610944D01*
X419304Y610865D01*
X419233Y610790D01*
X419224Y610772D01*
X419211Y610757D01*
X419173Y610661D01*
X419129Y610567D01*
X419127Y610547D01*
X419119Y610529D01*
X419101Y610362D01*
X419101Y609599D01*
X419099Y609599D01*
X419099Y610362D01*
X419096Y610382D01*
X419098Y610401D01*
X419076Y610503D01*
X419059Y610605D01*
X419050Y610622D01*
X419046Y610642D01*
X418993Y610731D01*
X418944Y610822D01*
X418930Y610836D01*
X418920Y610853D01*
X418841Y610920D01*
X418766Y610991D01*
X418748Y611000D01*
X418733Y611013D01*
X418637Y611052D01*
X418543Y611095D01*
X418523Y611097D01*
X418505Y611105D01*
X418338Y611123D01*
X409955Y611123D01*
X409955Y617105D01*
X410307Y618871D01*
X410996Y620536D01*
X411997Y622034D01*
X413270Y623307D01*
X414768Y624308D01*
X415581Y624645D01*
X415664Y624696D01*
X415750Y624742D01*
X415768Y624761D01*
X415790Y624774D01*
X415852Y624849D01*
X415920Y624920D01*
X415931Y624944D01*
X415947Y624964D01*
X415982Y625055D01*
X416023Y625143D01*
X416026Y625169D01*
X416035Y625193D01*
X416040Y625291D01*
X416050Y625387D01*
X416045Y625413D01*
X416046Y625439D01*
X416019Y625533D01*
X415998Y625628D01*
X415985Y625650D01*
X415977Y625675D01*
X415922Y625755D01*
X415872Y625839D01*
X415852Y625856D01*
X415837Y625877D01*
X415759Y625935D01*
X415685Y625999D01*
X415661Y626009D01*
X415640Y626024D01*
X415547Y626054D01*
X415457Y626091D01*
X415424Y626094D01*
X415406Y626100D01*
X415373Y626100D01*
X415290Y626109D01*
X402157Y626109D01*
X402087Y626098D01*
X402015Y626096D01*
X401966Y626078D01*
X401914Y626070D01*
X401851Y626036D01*
X401784Y626011D01*
X401743Y625979D01*
X401697Y625954D01*
X401648Y625902D01*
X401592Y625858D01*
X401564Y625814D01*
X401528Y625776D01*
X401498Y625711D01*
X401459Y625651D01*
X401446Y625600D01*
X401424Y625553D01*
X401416Y625482D01*
X401399Y625412D01*
X401403Y625360D01*
X401397Y625309D01*
X401412Y625238D01*
X401418Y625167D01*
X401438Y625119D01*
X401449Y625068D01*
X401486Y625007D01*
X401514Y624941D01*
X401559Y624885D01*
X401575Y624857D01*
X401593Y624842D01*
X401619Y624810D01*
X403606Y622823D01*
X405385Y618528D01*
X405385Y600672D01*
X403606Y596377D01*
X400319Y593090D01*
X396024Y591311D01*
X391376Y591311D01*
X387081Y593090D01*
X383794Y596377D01*
X382015Y600672D01*
X382015Y618528D01*
X383794Y622823D01*
X385781Y624810D01*
X385823Y624868D01*
X385872Y624920D01*
X385894Y624967D01*
X385925Y625009D01*
X385946Y625078D01*
X385976Y625143D01*
X385982Y625195D01*
X385997Y625245D01*
X385995Y625316D01*
X386003Y625387D01*
X385992Y625438D01*
X385991Y625490D01*
X385966Y625558D01*
X385951Y625628D01*
X385924Y625673D01*
X385906Y625721D01*
X385861Y625777D01*
X385825Y625839D01*
X385785Y625873D01*
X385752Y625913D01*
X385692Y625952D01*
X385638Y625999D01*
X385589Y626018D01*
X385546Y626046D01*
X385476Y626064D01*
X385409Y626091D01*
X385338Y626099D01*
X385307Y626107D01*
X385284Y626105D01*
X385243Y626109D01*
X376757Y626109D01*
X376687Y626098D01*
X376615Y626096D01*
X376566Y626078D01*
X376514Y626070D01*
X376451Y626036D01*
X376384Y626011D01*
X376343Y625979D01*
X376297Y625954D01*
X376248Y625902D01*
X376192Y625858D01*
X376164Y625814D01*
X376128Y625776D01*
X376098Y625711D01*
X376059Y625651D01*
X376046Y625600D01*
X376024Y625553D01*
X376016Y625482D01*
X375999Y625412D01*
X376003Y625360D01*
X375997Y625309D01*
X376012Y625238D01*
X376018Y625167D01*
X376038Y625119D01*
X376049Y625068D01*
X376086Y625007D01*
X376114Y624941D01*
X376159Y624885D01*
X376175Y624857D01*
X376193Y624842D01*
X376219Y624810D01*
X378206Y622823D01*
X379985Y618528D01*
X379985Y600672D01*
X378206Y596377D01*
X374919Y593090D01*
X370624Y591311D01*
X366014Y591311D01*
X365994Y591308D01*
X365975Y591310D01*
X365873Y591288D01*
X365771Y591272D01*
X365754Y591262D01*
X365734Y591258D01*
X365645Y591205D01*
X365554Y591156D01*
X365540Y591142D01*
X365523Y591132D01*
X365456Y591053D01*
X365384Y590978D01*
X365376Y590960D01*
X365363Y590945D01*
X365324Y590849D01*
X365281Y590755D01*
X365279Y590735D01*
X365271Y590717D01*
X365253Y590550D01*
X365253Y588630D01*
X363783Y585082D01*
X361068Y582367D01*
X357520Y580897D01*
X353680Y580897D01*
X350132Y582367D01*
X349793Y582706D01*
X349719Y582759D01*
X349649Y582819D01*
X349619Y582831D01*
X349593Y582850D01*
X349506Y582877D01*
X349421Y582911D01*
X349380Y582915D01*
X349358Y582922D01*
X349326Y582921D01*
X349254Y582929D01*
X322817Y582929D01*
X322746Y582918D01*
X322674Y582916D01*
X322625Y582898D01*
X322574Y582890D01*
X322511Y582856D01*
X322443Y582831D01*
X322403Y582799D01*
X322357Y582774D01*
X322307Y582722D01*
X322251Y582678D01*
X322223Y582634D01*
X322187Y582596D01*
X322157Y582531D01*
X322118Y582471D01*
X322106Y582420D01*
X322084Y582373D01*
X322076Y582302D01*
X322058Y582232D01*
X322062Y582180D01*
X322057Y582129D01*
X322072Y582058D01*
X322077Y581987D01*
X322098Y581939D01*
X322109Y581888D01*
X322146Y581827D01*
X322174Y581761D01*
X322218Y581705D01*
X322235Y581677D01*
X322253Y581662D01*
X322278Y581630D01*
X328042Y575867D01*
X328042Y573023D01*
X318262Y573023D01*
X318242Y573020D01*
X318223Y573022D01*
X318121Y573000D01*
X318019Y572983D01*
X318002Y572974D01*
X317982Y572970D01*
X317893Y572917D01*
X317802Y572868D01*
X317788Y572854D01*
X317771Y572844D01*
X317704Y572765D01*
X317633Y572690D01*
X317624Y572672D01*
X317611Y572657D01*
X317573Y572561D01*
X317529Y572467D01*
X317527Y572447D01*
X317519Y572429D01*
X317501Y572262D01*
X317501Y571499D01*
X317499Y571499D01*
X317499Y572262D01*
X317496Y572282D01*
X317498Y572301D01*
X317476Y572403D01*
X317459Y572505D01*
X317450Y572522D01*
X317446Y572542D01*
X317393Y572631D01*
X317344Y572722D01*
X317330Y572736D01*
X317320Y572753D01*
X317241Y572820D01*
X317166Y572891D01*
X317148Y572900D01*
X317133Y572913D01*
X317037Y572952D01*
X316943Y572995D01*
X316923Y572997D01*
X316905Y573005D01*
X316738Y573023D01*
X306958Y573023D01*
X306958Y575867D01*
X312722Y581630D01*
X312763Y581688D01*
X312813Y581740D01*
X312835Y581787D01*
X312865Y581829D01*
X312886Y581898D01*
X312916Y581963D01*
X312922Y582015D01*
X312937Y582065D01*
X312936Y582136D01*
X312943Y582207D01*
X312932Y582258D01*
X312931Y582310D01*
X312906Y582378D01*
X312891Y582448D01*
X312864Y582493D01*
X312847Y582541D01*
X312802Y582597D01*
X312765Y582659D01*
X312725Y582693D01*
X312693Y582733D01*
X312633Y582772D01*
X312578Y582819D01*
X312530Y582838D01*
X312486Y582866D01*
X312417Y582884D01*
X312350Y582911D01*
X312279Y582919D01*
X312247Y582927D01*
X312224Y582925D01*
X312183Y582929D01*
X309634Y582929D01*
X306833Y584089D01*
X298452Y592471D01*
X298357Y592539D01*
X298263Y592609D01*
X298257Y592611D01*
X298252Y592614D01*
X298141Y592649D01*
X298029Y592685D01*
X298023Y592685D01*
X298017Y592687D01*
X297900Y592684D01*
X297783Y592683D01*
X297776Y592681D01*
X297771Y592680D01*
X297754Y592674D01*
X297622Y592636D01*
X294424Y591311D01*
X289776Y591311D01*
X288073Y592016D01*
X288029Y592027D01*
X287987Y592046D01*
X287910Y592055D01*
X287834Y592073D01*
X287788Y592068D01*
X287743Y592073D01*
X287666Y592057D01*
X287589Y592050D01*
X287547Y592031D01*
X287502Y592021D01*
X287435Y591981D01*
X287364Y591950D01*
X287330Y591918D01*
X287291Y591895D01*
X287240Y591836D01*
X287183Y591783D01*
X287161Y591743D01*
X287131Y591708D01*
X287102Y591636D01*
X287065Y591568D01*
X287056Y591522D01*
X287039Y591480D01*
X287024Y591344D01*
X287021Y591326D01*
X287022Y591321D01*
X287021Y591313D01*
X287021Y585343D01*
X287024Y585323D01*
X287022Y585304D01*
X287044Y585202D01*
X287060Y585100D01*
X287070Y585083D01*
X287074Y585063D01*
X287127Y584974D01*
X287176Y584883D01*
X287190Y584869D01*
X287200Y584852D01*
X287279Y584785D01*
X287354Y584713D01*
X287372Y584705D01*
X287387Y584692D01*
X287483Y584653D01*
X287577Y584610D01*
X287597Y584608D01*
X287615Y584600D01*
X287782Y584582D01*
X297519Y584582D01*
X305182Y576919D01*
X305182Y566081D01*
X297519Y558418D01*
X286681Y558418D01*
X281443Y563656D01*
X281369Y563709D01*
X281300Y563769D01*
X281270Y563781D01*
X281244Y563800D01*
X281157Y563827D01*
X281072Y563861D01*
X281031Y563865D01*
X281009Y563872D01*
X280976Y563871D01*
X280905Y563879D01*
X277884Y563879D01*
X275373Y564919D01*
X275329Y564930D01*
X275287Y564949D01*
X275210Y564958D01*
X275134Y564975D01*
X275088Y564971D01*
X275043Y564976D01*
X274966Y564960D01*
X274889Y564952D01*
X274847Y564934D01*
X274802Y564924D01*
X274735Y564884D01*
X274664Y564852D01*
X274630Y564821D01*
X274591Y564798D01*
X274540Y564739D01*
X274483Y564686D01*
X274461Y564646D01*
X274431Y564611D01*
X274402Y564539D01*
X274365Y564470D01*
X274356Y564425D01*
X274339Y564383D01*
X274324Y564247D01*
X274321Y564228D01*
X274322Y564223D01*
X274321Y564216D01*
X274321Y543645D01*
X274335Y543555D01*
X274343Y543464D01*
X274355Y543434D01*
X274360Y543402D01*
X274403Y543322D01*
X274439Y543238D01*
X274465Y543206D01*
X274476Y543185D01*
X274499Y543163D01*
X274544Y543107D01*
X276268Y541383D01*
X277986Y537235D01*
X277986Y532745D01*
X276268Y528597D01*
X273093Y525422D01*
X268945Y523704D01*
X264455Y523704D01*
X260307Y525422D01*
X257132Y528597D01*
X255414Y532745D01*
X255414Y537235D01*
X257132Y541383D01*
X258856Y543107D01*
X258909Y543181D01*
X258969Y543250D01*
X258981Y543280D01*
X259000Y543307D01*
X259027Y543393D01*
X259061Y543478D01*
X259065Y543519D01*
X259072Y543542D01*
X259071Y543574D01*
X259079Y543645D01*
X259079Y593777D01*
X259065Y593867D01*
X259057Y593958D01*
X259045Y593987D01*
X259040Y594019D01*
X258997Y594100D01*
X258961Y594184D01*
X258935Y594216D01*
X258924Y594237D01*
X258901Y594259D01*
X258856Y594315D01*
X256794Y596377D01*
X255015Y600672D01*
X255015Y618528D01*
X255615Y619977D01*
X255626Y620021D01*
X255645Y620063D01*
X255654Y620140D01*
X255671Y620216D01*
X255667Y620262D01*
X255672Y620307D01*
X255656Y620384D01*
X255648Y620461D01*
X255630Y620503D01*
X255620Y620548D01*
X255580Y620615D01*
X255548Y620686D01*
X255517Y620720D01*
X255494Y620759D01*
X255435Y620810D01*
X255382Y620867D01*
X255342Y620889D01*
X255307Y620919D01*
X255235Y620948D01*
X255166Y620985D01*
X255121Y620994D01*
X255079Y621011D01*
X254943Y621026D01*
X254924Y621029D01*
X254919Y621028D01*
X254912Y621029D01*
X253088Y621029D01*
X253043Y621022D01*
X252997Y621024D01*
X252922Y621002D01*
X252845Y620990D01*
X252805Y620968D01*
X252761Y620955D01*
X252697Y620911D01*
X252628Y620874D01*
X252596Y620841D01*
X252559Y620815D01*
X252512Y620753D01*
X252459Y620696D01*
X252439Y620654D01*
X252412Y620618D01*
X252388Y620544D01*
X252355Y620473D01*
X252350Y620427D01*
X252336Y620384D01*
X252336Y620306D01*
X252328Y620229D01*
X252338Y620184D01*
X252338Y620138D01*
X252376Y620006D01*
X252380Y619988D01*
X252383Y619984D01*
X252385Y619977D01*
X252985Y618528D01*
X252985Y600672D01*
X251206Y596377D01*
X247919Y593090D01*
X243624Y591311D01*
X238976Y591311D01*
X234681Y593090D01*
X231394Y596377D01*
X229615Y600672D01*
X229615Y618528D01*
X230215Y619977D01*
X230226Y620021D01*
X230245Y620063D01*
X230254Y620140D01*
X230271Y620216D01*
X230267Y620262D01*
X230272Y620307D01*
X230256Y620384D01*
X230248Y620461D01*
X230230Y620503D01*
X230220Y620548D01*
X230180Y620615D01*
X230148Y620686D01*
X230117Y620720D01*
X230094Y620759D01*
X230035Y620810D01*
X229982Y620867D01*
X229942Y620889D01*
X229907Y620919D01*
X229835Y620948D01*
X229766Y620985D01*
X229721Y620994D01*
X229679Y621011D01*
X229543Y621026D01*
X229524Y621029D01*
X229519Y621028D01*
X229512Y621029D01*
X227688Y621029D01*
X227643Y621022D01*
X227597Y621024D01*
X227522Y621002D01*
X227445Y620990D01*
X227405Y620968D01*
X227361Y620955D01*
X227297Y620911D01*
X227228Y620874D01*
X227196Y620841D01*
X227159Y620815D01*
X227112Y620753D01*
X227059Y620696D01*
X227039Y620654D01*
X227012Y620618D01*
X226988Y620544D01*
X226955Y620473D01*
X226950Y620427D01*
X226936Y620384D01*
X226936Y620306D01*
X226928Y620229D01*
X226938Y620184D01*
X226938Y620138D01*
X226976Y620006D01*
X226980Y619988D01*
X226983Y619984D01*
X226985Y619977D01*
X227585Y618528D01*
X227585Y600672D01*
X225806Y596377D01*
X222519Y593090D01*
X218224Y591311D01*
X213576Y591311D01*
X209281Y593090D01*
X205994Y596377D01*
X204215Y600672D01*
X204215Y618528D01*
X204815Y619977D01*
X204826Y620021D01*
X204845Y620063D01*
X204854Y620140D01*
X204871Y620216D01*
X204867Y620262D01*
X204872Y620307D01*
X204856Y620384D01*
X204848Y620461D01*
X204830Y620503D01*
X204820Y620548D01*
X204780Y620615D01*
X204748Y620686D01*
X204717Y620720D01*
X204694Y620759D01*
X204635Y620810D01*
X204582Y620867D01*
X204542Y620889D01*
X204507Y620919D01*
X204435Y620948D01*
X204366Y620985D01*
X204321Y620994D01*
X204279Y621011D01*
X204143Y621026D01*
X204124Y621029D01*
X204119Y621028D01*
X204112Y621029D01*
X202288Y621029D01*
X202243Y621022D01*
X202197Y621024D01*
X202122Y621002D01*
X202045Y620990D01*
X202005Y620968D01*
X201961Y620955D01*
X201897Y620911D01*
X201828Y620874D01*
X201796Y620841D01*
X201759Y620815D01*
X201712Y620753D01*
X201659Y620696D01*
X201639Y620654D01*
X201612Y620618D01*
X201588Y620544D01*
X201555Y620473D01*
X201550Y620427D01*
X201536Y620384D01*
X201536Y620306D01*
X201528Y620229D01*
X201538Y620184D01*
X201538Y620138D01*
X201576Y620006D01*
X201580Y619988D01*
X201583Y619984D01*
X201585Y619977D01*
X202185Y618528D01*
X202185Y600672D01*
X200406Y596377D01*
X197119Y593090D01*
X192824Y591311D01*
X188176Y591311D01*
X183881Y593090D01*
X180594Y596377D01*
X178815Y600672D01*
X178815Y618528D01*
X179415Y619977D01*
X179426Y620021D01*
X179445Y620063D01*
X179454Y620140D01*
X179471Y620216D01*
X179467Y620262D01*
X179472Y620307D01*
X179456Y620384D01*
X179448Y620461D01*
X179430Y620503D01*
X179420Y620548D01*
X179380Y620615D01*
X179348Y620686D01*
X179317Y620720D01*
X179294Y620759D01*
X179235Y620810D01*
X179182Y620867D01*
X179142Y620889D01*
X179107Y620919D01*
X179035Y620948D01*
X178966Y620985D01*
X178921Y620994D01*
X178879Y621011D01*
X178743Y621026D01*
X178724Y621029D01*
X178719Y621028D01*
X178712Y621029D01*
X176888Y621029D01*
X176843Y621022D01*
X176797Y621024D01*
X176722Y621002D01*
X176645Y620990D01*
X176605Y620968D01*
X176561Y620955D01*
X176497Y620911D01*
X176428Y620874D01*
X176396Y620841D01*
X176359Y620815D01*
X176312Y620753D01*
X176259Y620696D01*
X176239Y620654D01*
X176212Y620618D01*
X176188Y620544D01*
X176155Y620473D01*
X176150Y620427D01*
X176136Y620384D01*
X176136Y620306D01*
X176128Y620229D01*
X176138Y620184D01*
X176138Y620138D01*
X176176Y620006D01*
X176180Y619988D01*
X176183Y619984D01*
X176185Y619977D01*
X176785Y618528D01*
X176785Y600672D01*
X175006Y596377D01*
X171719Y593090D01*
X167424Y591311D01*
X162776Y591311D01*
X158481Y593090D01*
X155194Y596377D01*
X153415Y600672D01*
X153415Y618528D01*
X154015Y619977D01*
X154026Y620021D01*
X154045Y620063D01*
X154054Y620140D01*
X154071Y620216D01*
X154067Y620262D01*
X154072Y620307D01*
X154056Y620384D01*
X154048Y620461D01*
X154030Y620503D01*
X154020Y620548D01*
X153980Y620615D01*
X153948Y620686D01*
X153917Y620720D01*
X153894Y620759D01*
X153835Y620810D01*
X153782Y620867D01*
X153742Y620889D01*
X153707Y620919D01*
X153635Y620948D01*
X153566Y620985D01*
X153521Y620994D01*
X153479Y621011D01*
X153343Y621026D01*
X153324Y621029D01*
X153319Y621028D01*
X153312Y621029D01*
X151488Y621029D01*
X151443Y621022D01*
X151397Y621024D01*
X151322Y621002D01*
X151245Y620990D01*
X151205Y620968D01*
X151161Y620955D01*
X151097Y620911D01*
X151028Y620874D01*
X150996Y620841D01*
X150959Y620815D01*
X150912Y620753D01*
X150859Y620696D01*
X150839Y620654D01*
X150812Y620618D01*
X150788Y620544D01*
X150755Y620473D01*
X150750Y620427D01*
X150736Y620384D01*
X150736Y620306D01*
X150728Y620229D01*
X150738Y620184D01*
X150738Y620138D01*
X150776Y620006D01*
X150780Y619988D01*
X150783Y619984D01*
X150785Y619977D01*
X151385Y618528D01*
X151385Y600672D01*
X149606Y596377D01*
X146319Y593090D01*
X142024Y591311D01*
X137376Y591311D01*
X133081Y593090D01*
X129794Y596377D01*
X128015Y600672D01*
X128015Y618528D01*
X128615Y619977D01*
X128626Y620021D01*
X128645Y620063D01*
X128654Y620140D01*
X128671Y620216D01*
X128667Y620262D01*
X128672Y620307D01*
X128656Y620384D01*
X128648Y620461D01*
X128630Y620503D01*
X128620Y620548D01*
X128580Y620615D01*
X128548Y620686D01*
X128517Y620720D01*
X128494Y620759D01*
X128435Y620810D01*
X128382Y620867D01*
X128342Y620889D01*
X128307Y620919D01*
X128235Y620948D01*
X128166Y620985D01*
X128121Y620994D01*
X128079Y621011D01*
X127943Y621026D01*
X127924Y621029D01*
X127919Y621028D01*
X127912Y621029D01*
X44450Y621029D01*
X44430Y621026D01*
X44411Y621028D01*
X44309Y621006D01*
X44207Y620990D01*
X44190Y620980D01*
X44170Y620976D01*
X44081Y620923D01*
X43990Y620874D01*
X43976Y620860D01*
X43959Y620850D01*
X43892Y620771D01*
X43820Y620696D01*
X43812Y620678D01*
X43799Y620663D01*
X43760Y620567D01*
X43717Y620473D01*
X43715Y620453D01*
X43707Y620435D01*
X43689Y620268D01*
X43689Y619976D01*
X41910Y615681D01*
X38623Y612394D01*
X34328Y610615D01*
X16472Y610615D01*
X12177Y612394D01*
X11460Y613111D01*
X11402Y613153D01*
X11350Y613202D01*
X11303Y613224D01*
X11261Y613255D01*
X11192Y613276D01*
X11127Y613306D01*
X11075Y613312D01*
X11025Y613327D01*
X10954Y613325D01*
X10883Y613333D01*
X10832Y613322D01*
X10780Y613321D01*
X10712Y613296D01*
X10642Y613281D01*
X10597Y613254D01*
X10549Y613236D01*
X10493Y613191D01*
X10431Y613155D01*
X10397Y613115D01*
X10357Y613082D01*
X10318Y613022D01*
X10271Y612968D01*
X10252Y612919D01*
X10224Y612876D01*
X10206Y612806D01*
X10179Y612739D01*
X10171Y612668D01*
X10163Y612637D01*
X10165Y612614D01*
X10161Y612573D01*
X10161Y606627D01*
X10172Y606557D01*
X10174Y606485D01*
X10192Y606436D01*
X10200Y606384D01*
X10234Y606321D01*
X10259Y606254D01*
X10291Y606213D01*
X10316Y606167D01*
X10368Y606118D01*
X10412Y606062D01*
X10456Y606034D01*
X10494Y605998D01*
X10559Y605968D01*
X10619Y605929D01*
X10670Y605916D01*
X10717Y605894D01*
X10788Y605886D01*
X10858Y605869D01*
X10910Y605873D01*
X10961Y605867D01*
X11032Y605882D01*
X11103Y605888D01*
X11151Y605908D01*
X11202Y605919D01*
X11263Y605956D01*
X11329Y605984D01*
X11385Y606029D01*
X11413Y606045D01*
X11428Y606063D01*
X11460Y606089D01*
X12177Y606806D01*
X16472Y608585D01*
X34328Y608585D01*
X38623Y606806D01*
X41910Y603519D01*
X43689Y599224D01*
X43689Y594576D01*
X41910Y590281D01*
X38623Y586994D01*
X34328Y585215D01*
X16472Y585215D01*
X12177Y586994D01*
X11460Y587711D01*
X11402Y587753D01*
X11350Y587802D01*
X11303Y587824D01*
X11261Y587855D01*
X11192Y587876D01*
X11127Y587906D01*
X11075Y587912D01*
X11025Y587927D01*
X10954Y587925D01*
X10883Y587933D01*
X10832Y587922D01*
X10780Y587921D01*
X10712Y587896D01*
X10642Y587881D01*
X10597Y587854D01*
X10549Y587836D01*
X10493Y587791D01*
X10431Y587755D01*
X10397Y587715D01*
X10357Y587682D01*
X10318Y587622D01*
X10271Y587568D01*
X10252Y587519D01*
X10224Y587476D01*
X10206Y587406D01*
X10179Y587339D01*
X10171Y587268D01*
X10163Y587237D01*
X10165Y587214D01*
X10161Y587173D01*
X10161Y577546D01*
X10164Y577523D01*
X10162Y577500D01*
X10184Y577402D01*
X10200Y577303D01*
X10211Y577283D01*
X10216Y577260D01*
X10269Y577175D01*
X10316Y577086D01*
X10332Y577070D01*
X10344Y577050D01*
X10421Y576986D01*
X10494Y576916D01*
X10515Y576907D01*
X10532Y576892D01*
X10626Y576855D01*
X10717Y576813D01*
X10740Y576810D01*
X10761Y576802D01*
X10862Y576797D01*
X10961Y576786D01*
X10984Y576791D01*
X11007Y576789D01*
X11104Y576817D01*
X11202Y576838D01*
X11222Y576850D01*
X11244Y576856D01*
X11327Y576913D01*
X11413Y576964D01*
X11428Y576982D01*
X11447Y576995D01*
X11555Y577123D01*
X11693Y577329D01*
X12966Y578603D01*
X14464Y579604D01*
X16129Y580293D01*
X17895Y580645D01*
X23877Y580645D01*
X23877Y572262D01*
X23880Y572242D01*
X23878Y572223D01*
X23900Y572121D01*
X23917Y572019D01*
X23926Y572002D01*
X23930Y571982D01*
X23983Y571893D01*
X24032Y571802D01*
X24046Y571788D01*
X24056Y571771D01*
X24135Y571704D01*
X24210Y571633D01*
X24228Y571624D01*
X24243Y571611D01*
X24339Y571573D01*
X24433Y571529D01*
X24453Y571527D01*
X24471Y571519D01*
X24638Y571501D01*
X25401Y571501D01*
X25401Y571499D01*
X24638Y571499D01*
X24618Y571496D01*
X24599Y571498D01*
X24497Y571476D01*
X24395Y571459D01*
X24378Y571450D01*
X24358Y571446D01*
X24269Y571393D01*
X24178Y571344D01*
X24164Y571330D01*
X24147Y571320D01*
X24080Y571241D01*
X24009Y571166D01*
X24000Y571148D01*
X23987Y571133D01*
X23948Y571037D01*
X23905Y570943D01*
X23903Y570923D01*
X23895Y570905D01*
X23877Y570738D01*
X23877Y562355D01*
X17895Y562355D01*
X16129Y562707D01*
X14464Y563396D01*
X12966Y564397D01*
X11693Y565671D01*
X11555Y565877D01*
X11539Y565894D01*
X11528Y565914D01*
X11456Y565983D01*
X11387Y566057D01*
X11367Y566068D01*
X11350Y566084D01*
X11259Y566126D01*
X11171Y566174D01*
X11148Y566177D01*
X11127Y566187D01*
X11027Y566198D01*
X10928Y566215D01*
X10905Y566212D01*
X10883Y566214D01*
X10784Y566193D01*
X10685Y566177D01*
X10665Y566167D01*
X10642Y566162D01*
X10556Y566110D01*
X10467Y566064D01*
X10451Y566048D01*
X10431Y566036D01*
X10366Y565960D01*
X10296Y565887D01*
X10286Y565866D01*
X10271Y565849D01*
X10233Y565755D01*
X10191Y565665D01*
X10188Y565642D01*
X10179Y565621D01*
X10161Y565454D01*
X10161Y552146D01*
X10162Y552136D01*
X10162Y552131D01*
X10164Y552120D01*
X10162Y552100D01*
X10184Y552002D01*
X10200Y551903D01*
X10211Y551883D01*
X10216Y551860D01*
X10269Y551775D01*
X10316Y551686D01*
X10332Y551670D01*
X10344Y551650D01*
X10421Y551586D01*
X10494Y551516D01*
X10515Y551507D01*
X10532Y551492D01*
X10626Y551455D01*
X10717Y551413D01*
X10740Y551410D01*
X10761Y551402D01*
X10862Y551397D01*
X10961Y551386D01*
X10984Y551391D01*
X11007Y551389D01*
X11104Y551417D01*
X11202Y551438D01*
X11222Y551450D01*
X11244Y551456D01*
X11327Y551513D01*
X11413Y551564D01*
X11428Y551582D01*
X11447Y551595D01*
X11555Y551723D01*
X11693Y551929D01*
X12966Y553203D01*
X14464Y554204D01*
X16129Y554893D01*
X17895Y555245D01*
X23877Y555245D01*
X23877Y546862D01*
X23880Y546842D01*
X23878Y546823D01*
X23900Y546721D01*
X23917Y546619D01*
X23926Y546602D01*
X23930Y546582D01*
X23983Y546493D01*
X24032Y546402D01*
X24046Y546388D01*
X24056Y546371D01*
X24135Y546304D01*
X24210Y546233D01*
X24228Y546224D01*
X24243Y546211D01*
X24339Y546173D01*
X24433Y546129D01*
X24453Y546127D01*
X24471Y546119D01*
X24638Y546101D01*
X25401Y546101D01*
X25401Y546099D01*
X24638Y546099D01*
X24618Y546096D01*
X24599Y546098D01*
X24497Y546076D01*
X24395Y546059D01*
X24378Y546050D01*
X24358Y546046D01*
X24269Y545993D01*
X24178Y545944D01*
X24164Y545930D01*
X24147Y545920D01*
X24080Y545841D01*
X24009Y545766D01*
X24000Y545748D01*
X23987Y545733D01*
X23948Y545637D01*
X23905Y545543D01*
X23903Y545523D01*
X23895Y545505D01*
X23877Y545338D01*
X23877Y536955D01*
X17895Y536955D01*
X16129Y537307D01*
X14464Y537996D01*
X12966Y538997D01*
X11693Y540271D01*
X11555Y540477D01*
X11539Y540494D01*
X11528Y540514D01*
X11456Y540583D01*
X11387Y540657D01*
X11367Y540668D01*
X11350Y540684D01*
X11259Y540726D01*
X11171Y540774D01*
X11148Y540777D01*
X11127Y540787D01*
X11027Y540798D01*
X10928Y540815D01*
X10905Y540812D01*
X10883Y540814D01*
X10784Y540793D01*
X10685Y540777D01*
X10665Y540767D01*
X10642Y540762D01*
X10556Y540710D01*
X10467Y540664D01*
X10451Y540648D01*
X10431Y540636D01*
X10366Y540560D01*
X10296Y540487D01*
X10286Y540466D01*
X10271Y540449D01*
X10233Y540355D01*
X10191Y540265D01*
X10188Y540242D01*
X10179Y540221D01*
X10161Y540054D01*
X10161Y526746D01*
X10164Y526723D01*
X10162Y526700D01*
X10184Y526602D01*
X10200Y526503D01*
X10211Y526483D01*
X10216Y526460D01*
X10269Y526374D01*
X10316Y526286D01*
X10332Y526270D01*
X10344Y526250D01*
X10421Y526185D01*
X10494Y526116D01*
X10515Y526107D01*
X10533Y526092D01*
X10626Y526055D01*
X10717Y526013D01*
X10740Y526010D01*
X10761Y526002D01*
X10862Y525997D01*
X10961Y525986D01*
X10984Y525991D01*
X11007Y525989D01*
X11104Y526017D01*
X11202Y526038D01*
X11222Y526050D01*
X11244Y526056D01*
X11327Y526113D01*
X11413Y526164D01*
X11428Y526182D01*
X11447Y526195D01*
X11555Y526323D01*
X11693Y526530D01*
X12966Y527803D01*
X14464Y528804D01*
X16129Y529493D01*
X17895Y529845D01*
X23877Y529845D01*
X23877Y521462D01*
X23880Y521442D01*
X23878Y521423D01*
X23900Y521321D01*
X23917Y521219D01*
X23926Y521202D01*
X23930Y521182D01*
X23983Y521093D01*
X24032Y521002D01*
X24046Y520988D01*
X24056Y520971D01*
X24135Y520904D01*
X24210Y520833D01*
X24228Y520824D01*
X24243Y520811D01*
X24339Y520773D01*
X24433Y520729D01*
X24453Y520727D01*
X24471Y520719D01*
X24638Y520701D01*
X25401Y520701D01*
X25401Y520699D01*
X24638Y520699D01*
X24618Y520696D01*
X24599Y520698D01*
X24497Y520676D01*
X24395Y520659D01*
X24378Y520650D01*
X24358Y520646D01*
X24269Y520593D01*
X24178Y520544D01*
X24164Y520530D01*
X24147Y520520D01*
X24080Y520441D01*
X24009Y520366D01*
X24000Y520348D01*
X23987Y520333D01*
X23948Y520237D01*
X23905Y520143D01*
X23903Y520123D01*
X23895Y520105D01*
X23877Y519938D01*
X23877Y511555D01*
X17895Y511555D01*
X16129Y511907D01*
X14464Y512596D01*
X12966Y513597D01*
X11693Y514870D01*
X11555Y515077D01*
X11539Y515094D01*
X11528Y515114D01*
X11456Y515183D01*
X11387Y515257D01*
X11367Y515268D01*
X11350Y515284D01*
X11259Y515326D01*
X11171Y515374D01*
X11148Y515377D01*
X11127Y515387D01*
X11027Y515398D01*
X10928Y515415D01*
X10905Y515412D01*
X10883Y515414D01*
X10784Y515393D01*
X10685Y515378D01*
X10665Y515367D01*
X10642Y515362D01*
X10556Y515310D01*
X10467Y515264D01*
X10451Y515248D01*
X10431Y515236D01*
X10366Y515159D01*
X10296Y515087D01*
X10286Y515066D01*
X10271Y515049D01*
X10234Y514956D01*
X10191Y514865D01*
X10188Y514842D01*
X10179Y514821D01*
X10161Y514654D01*
X10161Y501346D01*
X10164Y501323D01*
X10162Y501300D01*
X10184Y501202D01*
X10200Y501103D01*
X10211Y501083D01*
X10216Y501060D01*
X10269Y500974D01*
X10316Y500886D01*
X10332Y500870D01*
X10344Y500850D01*
X10421Y500785D01*
X10494Y500716D01*
X10515Y500707D01*
X10533Y500692D01*
X10626Y500655D01*
X10717Y500613D01*
X10740Y500610D01*
X10761Y500602D01*
X10862Y500597D01*
X10961Y500586D01*
X10984Y500591D01*
X11007Y500589D01*
X11104Y500617D01*
X11202Y500638D01*
X11222Y500650D01*
X11244Y500656D01*
X11327Y500713D01*
X11413Y500764D01*
X11428Y500782D01*
X11447Y500795D01*
X11555Y500923D01*
X11693Y501130D01*
X12966Y502403D01*
X14464Y503404D01*
X16129Y504093D01*
X17895Y504445D01*
X23877Y504445D01*
X23877Y496062D01*
X23880Y496042D01*
X23878Y496023D01*
X23900Y495921D01*
X23917Y495819D01*
X23926Y495802D01*
X23930Y495782D01*
X23983Y495693D01*
X24032Y495602D01*
X24046Y495588D01*
X24056Y495571D01*
X24135Y495504D01*
X24210Y495433D01*
X24228Y495424D01*
X24243Y495411D01*
X24339Y495373D01*
X24433Y495329D01*
X24453Y495327D01*
X24471Y495319D01*
X24638Y495301D01*
X25401Y495301D01*
X25401Y495299D01*
X24638Y495299D01*
X24618Y495296D01*
X24599Y495298D01*
X24497Y495276D01*
X24395Y495259D01*
X24378Y495250D01*
X24358Y495246D01*
X24269Y495193D01*
X24178Y495144D01*
X24164Y495130D01*
X24147Y495120D01*
X24080Y495041D01*
X24009Y494966D01*
X24000Y494948D01*
X23987Y494933D01*
X23948Y494837D01*
X23905Y494743D01*
X23903Y494723D01*
X23895Y494705D01*
X23877Y494538D01*
X23877Y486155D01*
X17895Y486155D01*
X16129Y486507D01*
X14464Y487196D01*
X12966Y488197D01*
X11693Y489470D01*
X11555Y489677D01*
X11539Y489694D01*
X11528Y489714D01*
X11456Y489783D01*
X11387Y489857D01*
X11367Y489868D01*
X11350Y489884D01*
X11259Y489926D01*
X11171Y489974D01*
X11148Y489977D01*
X11127Y489987D01*
X11027Y489998D01*
X10928Y490015D01*
X10905Y490012D01*
X10883Y490014D01*
X10784Y489993D01*
X10685Y489978D01*
X10665Y489967D01*
X10642Y489962D01*
X10556Y489910D01*
X10467Y489864D01*
X10451Y489848D01*
X10431Y489836D01*
X10366Y489759D01*
X10296Y489687D01*
X10286Y489666D01*
X10271Y489649D01*
X10234Y489556D01*
X10191Y489465D01*
X10188Y489442D01*
X10179Y489421D01*
X10161Y489254D01*
X10161Y479627D01*
X10172Y479557D01*
X10174Y479485D01*
X10192Y479436D01*
X10200Y479384D01*
X10234Y479321D01*
X10259Y479254D01*
X10291Y479213D01*
X10316Y479167D01*
X10368Y479118D01*
X10412Y479062D01*
X10456Y479034D01*
X10494Y478998D01*
X10559Y478968D01*
X10619Y478929D01*
X10670Y478916D01*
X10717Y478894D01*
X10788Y478886D01*
X10858Y478869D01*
X10910Y478873D01*
X10961Y478867D01*
X11032Y478882D01*
X11103Y478888D01*
X11151Y478908D01*
X11202Y478919D01*
X11263Y478956D01*
X11329Y478984D01*
X11385Y479029D01*
X11413Y479045D01*
X11428Y479063D01*
X11460Y479089D01*
X12177Y479806D01*
X16472Y481585D01*
X34328Y481585D01*
X38623Y479806D01*
X41910Y476519D01*
X43689Y472224D01*
X43689Y467576D01*
X41910Y463281D01*
X38623Y459994D01*
X34328Y458215D01*
X16472Y458215D01*
X12177Y459994D01*
X11460Y460711D01*
X11402Y460753D01*
X11350Y460802D01*
X11303Y460824D01*
X11261Y460855D01*
X11192Y460876D01*
X11127Y460906D01*
X11075Y460912D01*
X11025Y460927D01*
X10954Y460925D01*
X10883Y460933D01*
X10832Y460922D01*
X10780Y460921D01*
X10712Y460896D01*
X10642Y460881D01*
X10597Y460854D01*
X10549Y460836D01*
X10493Y460791D01*
X10431Y460755D01*
X10397Y460715D01*
X10357Y460682D01*
X10318Y460622D01*
X10271Y460568D01*
X10252Y460519D01*
X10224Y460476D01*
X10206Y460406D01*
X10179Y460339D01*
X10171Y460268D01*
X10163Y460237D01*
X10165Y460214D01*
X10161Y460173D01*
X10161Y454227D01*
X10172Y454157D01*
X10174Y454085D01*
X10192Y454036D01*
X10200Y453984D01*
X10234Y453921D01*
X10259Y453854D01*
X10291Y453813D01*
X10316Y453767D01*
X10368Y453718D01*
X10412Y453662D01*
X10456Y453634D01*
X10494Y453598D01*
X10559Y453568D01*
X10619Y453529D01*
X10670Y453516D01*
X10717Y453494D01*
X10788Y453486D01*
X10858Y453469D01*
X10910Y453473D01*
X10961Y453467D01*
X11032Y453482D01*
X11103Y453488D01*
X11151Y453508D01*
X11202Y453519D01*
X11263Y453556D01*
X11329Y453584D01*
X11385Y453629D01*
X11413Y453645D01*
X11428Y453663D01*
X11460Y453689D01*
X12177Y454406D01*
X16472Y456185D01*
X34328Y456185D01*
X38623Y454406D01*
X41910Y451119D01*
X43689Y446824D01*
X43689Y442176D01*
X43416Y441518D01*
X43390Y441404D01*
X43361Y441291D01*
X43361Y441284D01*
X43360Y441278D01*
X43371Y441162D01*
X43380Y441046D01*
X43383Y441040D01*
X43383Y441034D01*
X43431Y440926D01*
X43476Y440819D01*
X43481Y440813D01*
X43483Y440809D01*
X43496Y440795D01*
X43581Y440688D01*
X92886Y391384D01*
X92960Y391331D01*
X93029Y391271D01*
X93059Y391259D01*
X93086Y391240D01*
X93172Y391213D01*
X93257Y391179D01*
X93298Y391175D01*
X93321Y391168D01*
X93353Y391169D01*
X93424Y391161D01*
X116321Y391161D01*
X120056Y389614D01*
X136066Y373604D01*
X136140Y373551D01*
X136209Y373491D01*
X136239Y373479D01*
X136265Y373460D01*
X136352Y373433D01*
X136437Y373399D01*
X136478Y373395D01*
X136501Y373388D01*
X136533Y373389D01*
X136604Y373381D01*
X143237Y373381D01*
X149772Y370674D01*
X154774Y365672D01*
X157481Y359137D01*
X157481Y352063D01*
X154774Y345528D01*
X149772Y340526D01*
X143237Y337819D01*
X136163Y337819D01*
X129628Y340526D01*
X124626Y345528D01*
X121919Y352063D01*
X121919Y358696D01*
X121905Y358786D01*
X121897Y358877D01*
X121885Y358907D01*
X121880Y358939D01*
X121837Y359019D01*
X121801Y359103D01*
X121775Y359135D01*
X121764Y359156D01*
X121741Y359178D01*
X121696Y359234D01*
X110314Y370616D01*
X110240Y370669D01*
X110171Y370729D01*
X110141Y370741D01*
X110114Y370760D01*
X110028Y370787D01*
X109943Y370821D01*
X109902Y370825D01*
X109879Y370832D01*
X109847Y370831D01*
X109776Y370839D01*
X100644Y370839D01*
X100574Y370828D01*
X100502Y370826D01*
X100453Y370808D01*
X100402Y370800D01*
X100338Y370766D01*
X100271Y370741D01*
X100230Y370709D01*
X100184Y370684D01*
X100135Y370632D01*
X100079Y370588D01*
X100051Y370544D01*
X100015Y370506D01*
X99985Y370441D01*
X99946Y370381D01*
X99933Y370330D01*
X99911Y370283D01*
X99903Y370212D01*
X99886Y370142D01*
X99890Y370090D01*
X99884Y370039D01*
X99899Y369968D01*
X99905Y369897D01*
X99925Y369849D01*
X99936Y369798D01*
X99973Y369737D01*
X100001Y369671D01*
X100046Y369615D01*
X100062Y369587D01*
X100080Y369572D01*
X100106Y369540D01*
X106681Y362965D01*
X106681Y348235D01*
X96265Y337819D01*
X87122Y337819D01*
X87102Y337816D01*
X87083Y337818D01*
X86981Y337796D01*
X86879Y337780D01*
X86862Y337770D01*
X86842Y337766D01*
X86753Y337713D01*
X86662Y337664D01*
X86648Y337650D01*
X86631Y337640D01*
X86564Y337561D01*
X86492Y337486D01*
X86484Y337468D01*
X86471Y337453D01*
X86432Y337357D01*
X86389Y337263D01*
X86387Y337243D01*
X86379Y337225D01*
X86361Y337058D01*
X86361Y286079D01*
X86375Y285989D01*
X86383Y285898D01*
X86395Y285869D01*
X86400Y285837D01*
X86443Y285756D01*
X86479Y285672D01*
X86505Y285640D01*
X86516Y285619D01*
X86539Y285597D01*
X86584Y285541D01*
X87885Y284240D01*
X87885Y274560D01*
X81040Y267715D01*
X71360Y267715D01*
X64515Y274560D01*
X64515Y284240D01*
X65816Y285541D01*
X65869Y285615D01*
X65929Y285684D01*
X65941Y285715D01*
X65960Y285741D01*
X65987Y285828D01*
X66021Y285913D01*
X66025Y285954D01*
X66032Y285976D01*
X66031Y286008D01*
X66039Y286079D01*
X66039Y344678D01*
X66036Y344698D01*
X66038Y344717D01*
X66016Y344819D01*
X66000Y344921D01*
X65990Y344938D01*
X65986Y344958D01*
X65933Y345047D01*
X65884Y345138D01*
X65870Y345152D01*
X65860Y345169D01*
X65781Y345236D01*
X65706Y345308D01*
X65688Y345316D01*
X65673Y345329D01*
X65577Y345368D01*
X65483Y345411D01*
X65463Y345413D01*
X65445Y345421D01*
X65278Y345439D01*
X41136Y345439D01*
X41046Y345425D01*
X40955Y345417D01*
X40925Y345405D01*
X40893Y345400D01*
X40813Y345357D01*
X40729Y345321D01*
X40697Y345295D01*
X40676Y345284D01*
X40654Y345261D01*
X40598Y345216D01*
X40214Y344833D01*
X37246Y343603D01*
X37185Y343565D01*
X37120Y343536D01*
X37081Y343501D01*
X37037Y343474D01*
X36991Y343418D01*
X36938Y343370D01*
X36913Y343324D01*
X36880Y343284D01*
X36854Y343217D01*
X36820Y343154D01*
X36811Y343103D01*
X36792Y343055D01*
X36789Y342983D01*
X36776Y342912D01*
X36784Y342861D01*
X36782Y342809D01*
X36802Y342740D01*
X36812Y342669D01*
X36836Y342623D01*
X36850Y342573D01*
X36891Y342514D01*
X36923Y342450D01*
X36961Y342413D01*
X36990Y342371D01*
X37048Y342328D01*
X37099Y342278D01*
X37162Y342243D01*
X37188Y342224D01*
X37210Y342217D01*
X37246Y342197D01*
X40214Y340967D01*
X43787Y337394D01*
X45721Y332726D01*
X45721Y327674D01*
X43787Y323006D01*
X40214Y319433D01*
X35546Y317499D01*
X15254Y317499D01*
X11213Y319173D01*
X11169Y319183D01*
X11127Y319203D01*
X11107Y319205D01*
X11095Y319210D01*
X11021Y319218D01*
X10974Y319229D01*
X10945Y319226D01*
X10928Y319228D01*
X10922Y319228D01*
X10912Y319227D01*
X10883Y319230D01*
X10806Y319213D01*
X10729Y319206D01*
X10696Y319191D01*
X10679Y319188D01*
X10670Y319184D01*
X10642Y319178D01*
X10575Y319138D01*
X10504Y319106D01*
X10478Y319082D01*
X10462Y319073D01*
X10454Y319065D01*
X10431Y319051D01*
X10380Y318992D01*
X10323Y318940D01*
X10307Y318910D01*
X10292Y318895D01*
X10287Y318883D01*
X10271Y318864D01*
X10242Y318792D01*
X10205Y318724D01*
X10199Y318694D01*
X10189Y318672D01*
X10187Y318656D01*
X10179Y318636D01*
X10164Y318500D01*
X10161Y318482D01*
X10162Y318477D01*
X10161Y318470D01*
X10161Y10922D01*
X10164Y10902D01*
X10162Y10883D01*
X10184Y10781D01*
X10200Y10679D01*
X10210Y10662D01*
X10214Y10642D01*
X10267Y10553D01*
X10316Y10462D01*
X10330Y10448D01*
X10340Y10431D01*
X10419Y10364D01*
X10494Y10292D01*
X10512Y10284D01*
X10527Y10271D01*
X10623Y10232D01*
X10717Y10189D01*
X10737Y10187D01*
X10755Y10179D01*
X10922Y10161D01*
X710694Y10161D01*
X710714Y10164D01*
G37*
%LPC*%
G36*
X195334Y201929D02*
X195334Y201929D01*
X192533Y203089D01*
X178866Y216756D01*
X178792Y216809D01*
X178723Y216869D01*
X178693Y216881D01*
X178667Y216900D01*
X178580Y216927D01*
X178495Y216961D01*
X178454Y216965D01*
X178432Y216972D01*
X178399Y216971D01*
X178328Y216979D01*
X175488Y216979D01*
X171217Y218748D01*
X167948Y222017D01*
X166179Y226288D01*
X166179Y229764D01*
X166168Y229835D01*
X166166Y229907D01*
X166148Y229956D01*
X166140Y230007D01*
X166106Y230070D01*
X166081Y230138D01*
X166049Y230178D01*
X166024Y230224D01*
X165973Y230274D01*
X165928Y230330D01*
X165884Y230358D01*
X165846Y230394D01*
X165781Y230424D01*
X165721Y230463D01*
X165670Y230475D01*
X165623Y230497D01*
X165552Y230505D01*
X165482Y230523D01*
X165430Y230519D01*
X165379Y230524D01*
X165308Y230509D01*
X165237Y230504D01*
X165189Y230483D01*
X165138Y230472D01*
X165077Y230435D01*
X165011Y230407D01*
X164955Y230362D01*
X164927Y230346D01*
X164912Y230328D01*
X164880Y230302D01*
X164244Y229666D01*
X164190Y229592D01*
X164131Y229523D01*
X164119Y229493D01*
X164100Y229467D01*
X164073Y229380D01*
X164039Y229295D01*
X164035Y229254D01*
X164028Y229232D01*
X164029Y229199D01*
X164021Y229128D01*
X164021Y226288D01*
X162252Y222017D01*
X158983Y218748D01*
X154712Y216979D01*
X151872Y216979D01*
X151782Y216965D01*
X151691Y216957D01*
X151661Y216945D01*
X151629Y216940D01*
X151548Y216897D01*
X151465Y216861D01*
X151432Y216835D01*
X151412Y216824D01*
X151390Y216801D01*
X151334Y216756D01*
X144017Y209439D01*
X141216Y208279D01*
X87384Y208279D01*
X84583Y209439D01*
X77266Y216756D01*
X77192Y216809D01*
X77123Y216869D01*
X77093Y216881D01*
X77067Y216900D01*
X76980Y216927D01*
X76895Y216961D01*
X76854Y216965D01*
X76832Y216972D01*
X76799Y216971D01*
X76728Y216979D01*
X73888Y216979D01*
X69617Y218748D01*
X66348Y222017D01*
X64579Y226288D01*
X64579Y230912D01*
X66348Y235183D01*
X69617Y238452D01*
X73888Y240221D01*
X78512Y240221D01*
X82783Y238452D01*
X86052Y235183D01*
X87821Y230912D01*
X87821Y228072D01*
X87835Y227982D01*
X87843Y227891D01*
X87855Y227861D01*
X87860Y227829D01*
X87903Y227749D01*
X87939Y227665D01*
X87965Y227632D01*
X87976Y227612D01*
X87999Y227590D01*
X88044Y227534D01*
X88680Y226898D01*
X88738Y226856D01*
X88790Y226806D01*
X88837Y226784D01*
X88879Y226754D01*
X88948Y226733D01*
X89013Y226703D01*
X89065Y226697D01*
X89115Y226682D01*
X89186Y226684D01*
X89257Y226676D01*
X89308Y226687D01*
X89360Y226688D01*
X89428Y226713D01*
X89498Y226728D01*
X89543Y226755D01*
X89591Y226772D01*
X89647Y226817D01*
X89709Y226854D01*
X89743Y226894D01*
X89783Y226926D01*
X89822Y226986D01*
X89869Y227041D01*
X89888Y227089D01*
X89916Y227133D01*
X89934Y227203D01*
X89961Y227269D01*
X89969Y227340D01*
X89977Y227372D01*
X89975Y227395D01*
X89979Y227436D01*
X89979Y230912D01*
X91748Y235183D01*
X95017Y238452D01*
X99288Y240221D01*
X103912Y240221D01*
X108183Y238452D01*
X111452Y235183D01*
X113221Y230912D01*
X113221Y226288D01*
X112510Y224573D01*
X112500Y224529D01*
X112480Y224487D01*
X112472Y224410D01*
X112454Y224334D01*
X112458Y224288D01*
X112453Y224243D01*
X112470Y224166D01*
X112477Y224089D01*
X112496Y224047D01*
X112506Y224002D01*
X112546Y223935D01*
X112577Y223864D01*
X112608Y223830D01*
X112632Y223791D01*
X112691Y223740D01*
X112744Y223683D01*
X112784Y223661D01*
X112819Y223631D01*
X112891Y223602D01*
X112959Y223565D01*
X113004Y223556D01*
X113047Y223539D01*
X113183Y223524D01*
X113201Y223521D01*
X113206Y223522D01*
X113214Y223521D01*
X115386Y223521D01*
X115432Y223528D01*
X115478Y223526D01*
X115552Y223548D01*
X115629Y223560D01*
X115670Y223582D01*
X115714Y223595D01*
X115778Y223639D01*
X115847Y223676D01*
X115878Y223709D01*
X115916Y223735D01*
X115962Y223798D01*
X116016Y223854D01*
X116035Y223896D01*
X116063Y223932D01*
X116087Y224006D01*
X116120Y224077D01*
X116125Y224123D01*
X116139Y224166D01*
X116138Y224244D01*
X116147Y224321D01*
X116137Y224366D01*
X116136Y224412D01*
X116098Y224544D01*
X116094Y224562D01*
X116092Y224566D01*
X116090Y224573D01*
X115379Y226288D01*
X115379Y230912D01*
X117148Y235183D01*
X120417Y238452D01*
X124688Y240221D01*
X127528Y240221D01*
X127618Y240235D01*
X127709Y240243D01*
X127739Y240255D01*
X127771Y240260D01*
X127852Y240303D01*
X127935Y240339D01*
X127968Y240365D01*
X127988Y240376D01*
X128010Y240399D01*
X128066Y240444D01*
X154038Y266416D01*
X154080Y266474D01*
X154130Y266526D01*
X154152Y266573D01*
X154182Y266615D01*
X154203Y266684D01*
X154233Y266749D01*
X154239Y266801D01*
X154254Y266851D01*
X154252Y266922D01*
X154260Y266993D01*
X154249Y267044D01*
X154248Y267096D01*
X154223Y267164D01*
X154208Y267234D01*
X154181Y267279D01*
X154164Y267327D01*
X154119Y267383D01*
X154082Y267445D01*
X154042Y267479D01*
X154010Y267519D01*
X153950Y267558D01*
X153895Y267605D01*
X153847Y267624D01*
X153803Y267652D01*
X153733Y267670D01*
X153667Y267697D01*
X153596Y267705D01*
X153564Y267713D01*
X153541Y267711D01*
X153500Y267715D01*
X147560Y267715D01*
X140715Y274560D01*
X140715Y284240D01*
X147560Y291085D01*
X157240Y291085D01*
X164085Y284240D01*
X164085Y278300D01*
X164096Y278229D01*
X164098Y278157D01*
X164116Y278108D01*
X164124Y278057D01*
X164158Y277994D01*
X164183Y277926D01*
X164215Y277886D01*
X164240Y277840D01*
X164292Y277790D01*
X164336Y277734D01*
X164380Y277706D01*
X164418Y277670D01*
X164483Y277640D01*
X164543Y277601D01*
X164594Y277589D01*
X164641Y277567D01*
X164712Y277559D01*
X164782Y277541D01*
X164834Y277545D01*
X164885Y277540D01*
X164956Y277555D01*
X165027Y277560D01*
X165075Y277581D01*
X165126Y277592D01*
X165187Y277629D01*
X165253Y277657D01*
X165309Y277702D01*
X165337Y277718D01*
X165352Y277736D01*
X165384Y277762D01*
X196632Y309010D01*
X198883Y311261D01*
X201684Y312421D01*
X255516Y312421D01*
X258317Y311261D01*
X271552Y298025D01*
X271646Y297958D01*
X271741Y297887D01*
X271747Y297885D01*
X271752Y297882D01*
X271863Y297847D01*
X271975Y297811D01*
X271981Y297811D01*
X271987Y297809D01*
X272104Y297812D01*
X272221Y297813D01*
X272228Y297815D01*
X272233Y297816D01*
X272250Y297822D01*
X272382Y297860D01*
X276874Y299721D01*
X281926Y299721D01*
X286594Y297787D01*
X290167Y294214D01*
X292101Y289546D01*
X292101Y269254D01*
X290167Y264586D01*
X286594Y261013D01*
X281926Y259079D01*
X276874Y259079D01*
X272206Y261013D01*
X268633Y264586D01*
X266699Y269254D01*
X266699Y281008D01*
X266685Y281098D01*
X266677Y281189D01*
X266665Y281219D01*
X266660Y281251D01*
X266617Y281332D01*
X266581Y281415D01*
X266555Y281448D01*
X266544Y281468D01*
X266521Y281490D01*
X266476Y281546D01*
X251066Y296956D01*
X250992Y297009D01*
X250923Y297069D01*
X250893Y297081D01*
X250867Y297100D01*
X250780Y297127D01*
X250695Y297161D01*
X250654Y297165D01*
X250632Y297172D01*
X250599Y297171D01*
X250528Y297179D01*
X225540Y297179D01*
X225469Y297168D01*
X225398Y297166D01*
X225349Y297148D01*
X225297Y297140D01*
X225234Y297106D01*
X225167Y297081D01*
X225126Y297049D01*
X225080Y297024D01*
X225031Y296972D01*
X224975Y296928D01*
X224946Y296884D01*
X224911Y296846D01*
X224880Y296781D01*
X224842Y296721D01*
X224829Y296670D01*
X224807Y296623D01*
X224799Y296552D01*
X224782Y296482D01*
X224786Y296430D01*
X224780Y296379D01*
X224795Y296308D01*
X224801Y296237D01*
X224821Y296189D01*
X224832Y296138D01*
X224869Y296077D01*
X224897Y296011D01*
X224942Y295955D01*
X224958Y295927D01*
X224976Y295912D01*
X224985Y295900D01*
X224986Y295900D01*
X224986Y295899D01*
X225002Y295880D01*
X226667Y294214D01*
X228601Y289546D01*
X228601Y269254D01*
X226667Y264586D01*
X223094Y261013D01*
X218426Y259079D01*
X213374Y259079D01*
X208706Y261013D01*
X205133Y264586D01*
X203199Y269254D01*
X203199Y289546D01*
X204899Y293651D01*
X204922Y293746D01*
X204950Y293839D01*
X204950Y293865D01*
X204956Y293890D01*
X204947Y293987D01*
X204944Y294085D01*
X204935Y294109D01*
X204933Y294135D01*
X204893Y294224D01*
X204860Y294316D01*
X204843Y294336D01*
X204833Y294360D01*
X204767Y294432D01*
X204706Y294508D01*
X204684Y294522D01*
X204666Y294541D01*
X204581Y294588D01*
X204499Y294641D01*
X204474Y294647D01*
X204451Y294660D01*
X204355Y294677D01*
X204260Y294701D01*
X204234Y294699D01*
X204209Y294703D01*
X204112Y294689D01*
X204015Y294682D01*
X203991Y294671D01*
X203965Y294668D01*
X203878Y294623D01*
X203789Y294585D01*
X203763Y294565D01*
X203746Y294556D01*
X203723Y294532D01*
X203658Y294481D01*
X150698Y241520D01*
X150656Y241462D01*
X150606Y241410D01*
X150584Y241363D01*
X150554Y241321D01*
X150533Y241252D01*
X150503Y241187D01*
X150497Y241135D01*
X150482Y241085D01*
X150484Y241014D01*
X150476Y240943D01*
X150487Y240892D01*
X150488Y240840D01*
X150513Y240772D01*
X150528Y240702D01*
X150555Y240658D01*
X150572Y240609D01*
X150617Y240553D01*
X150654Y240491D01*
X150694Y240457D01*
X150726Y240417D01*
X150786Y240378D01*
X150841Y240331D01*
X150889Y240312D01*
X150933Y240284D01*
X151003Y240266D01*
X151069Y240239D01*
X151140Y240231D01*
X151172Y240223D01*
X151195Y240225D01*
X151236Y240221D01*
X152928Y240221D01*
X153018Y240235D01*
X153109Y240243D01*
X153139Y240255D01*
X153171Y240260D01*
X153252Y240303D01*
X153335Y240339D01*
X153368Y240365D01*
X153388Y240376D01*
X153410Y240399D01*
X153466Y240444D01*
X167133Y254111D01*
X169934Y255271D01*
X299966Y255271D01*
X302767Y254111D01*
X316434Y240444D01*
X316508Y240391D01*
X316577Y240331D01*
X316607Y240319D01*
X316633Y240300D01*
X316720Y240273D01*
X316805Y240239D01*
X316846Y240235D01*
X316868Y240228D01*
X316901Y240229D01*
X316972Y240221D01*
X318028Y240221D01*
X318118Y240235D01*
X318209Y240243D01*
X318239Y240255D01*
X318271Y240260D01*
X318352Y240303D01*
X318435Y240339D01*
X318468Y240365D01*
X318488Y240376D01*
X318510Y240399D01*
X318566Y240444D01*
X325883Y247761D01*
X328684Y248921D01*
X428328Y248921D01*
X428418Y248935D01*
X428509Y248943D01*
X428539Y248955D01*
X428571Y248960D01*
X428652Y249003D01*
X428735Y249039D01*
X428768Y249065D01*
X428788Y249076D01*
X428810Y249099D01*
X428866Y249144D01*
X456976Y277254D01*
X457029Y277328D01*
X457089Y277397D01*
X457101Y277427D01*
X457120Y277453D01*
X457147Y277540D01*
X457181Y277625D01*
X457185Y277666D01*
X457192Y277688D01*
X457191Y277721D01*
X457199Y277792D01*
X457199Y289546D01*
X459133Y294214D01*
X462706Y297787D01*
X467374Y299721D01*
X472426Y299721D01*
X477094Y297787D01*
X480667Y294214D01*
X482601Y289546D01*
X482601Y269254D01*
X480667Y264586D01*
X479002Y262920D01*
X478960Y262862D01*
X478911Y262810D01*
X478889Y262763D01*
X478858Y262721D01*
X478837Y262652D01*
X478807Y262587D01*
X478801Y262535D01*
X478786Y262485D01*
X478788Y262414D01*
X478780Y262343D01*
X478791Y262292D01*
X478792Y262240D01*
X478817Y262172D01*
X478832Y262102D01*
X478859Y262057D01*
X478877Y262009D01*
X478922Y261953D01*
X478958Y261891D01*
X478998Y261857D01*
X479030Y261817D01*
X479091Y261778D01*
X479145Y261731D01*
X479194Y261712D01*
X479237Y261684D01*
X479307Y261666D01*
X479373Y261639D01*
X479445Y261631D01*
X479476Y261623D01*
X479499Y261625D01*
X479540Y261621D01*
X523760Y261621D01*
X523831Y261632D01*
X523902Y261634D01*
X523951Y261652D01*
X524003Y261660D01*
X524066Y261694D01*
X524133Y261719D01*
X524174Y261751D01*
X524220Y261776D01*
X524269Y261828D01*
X524325Y261872D01*
X524354Y261916D01*
X524389Y261954D01*
X524420Y262019D01*
X524458Y262079D01*
X524471Y262130D01*
X524493Y262177D01*
X524501Y262248D01*
X524518Y262318D01*
X524514Y262370D01*
X524520Y262421D01*
X524505Y262492D01*
X524499Y262563D01*
X524479Y262611D01*
X524468Y262662D01*
X524431Y262723D01*
X524403Y262789D01*
X524358Y262845D01*
X524342Y262873D01*
X524324Y262888D01*
X524298Y262920D01*
X522633Y264586D01*
X520699Y269254D01*
X520699Y289546D01*
X522633Y294214D01*
X526206Y297787D01*
X530874Y299721D01*
X535926Y299721D01*
X540594Y297787D01*
X544167Y294214D01*
X546101Y289546D01*
X546101Y269254D01*
X544167Y264586D01*
X540594Y261013D01*
X539222Y260444D01*
X539183Y260420D01*
X539140Y260404D01*
X539079Y260356D01*
X539013Y260315D01*
X538983Y260279D01*
X538947Y260251D01*
X538905Y260185D01*
X538856Y260125D01*
X538839Y260082D01*
X538814Y260044D01*
X538795Y259968D01*
X538768Y259896D01*
X538766Y259850D01*
X538754Y259805D01*
X538760Y259728D01*
X538757Y259650D01*
X538770Y259606D01*
X538774Y259560D01*
X538804Y259488D01*
X538826Y259414D01*
X538852Y259376D01*
X538870Y259334D01*
X538955Y259227D01*
X538966Y259211D01*
X538970Y259208D01*
X538975Y259203D01*
X557734Y240444D01*
X557808Y240391D01*
X557877Y240331D01*
X557907Y240319D01*
X557933Y240300D01*
X558020Y240273D01*
X558105Y240239D01*
X558146Y240235D01*
X558168Y240228D01*
X558201Y240229D01*
X558272Y240221D01*
X559328Y240221D01*
X559418Y240235D01*
X559509Y240243D01*
X559539Y240255D01*
X559571Y240260D01*
X559652Y240303D01*
X559735Y240339D01*
X559768Y240365D01*
X559788Y240376D01*
X559810Y240399D01*
X559866Y240444D01*
X567183Y247761D01*
X569984Y248921D01*
X623816Y248921D01*
X626617Y247761D01*
X633934Y240444D01*
X634008Y240391D01*
X634077Y240331D01*
X634107Y240319D01*
X634133Y240300D01*
X634220Y240273D01*
X634305Y240239D01*
X634346Y240235D01*
X634368Y240228D01*
X634401Y240229D01*
X634472Y240221D01*
X637312Y240221D01*
X641583Y238452D01*
X644852Y235183D01*
X646621Y230912D01*
X646621Y227436D01*
X646632Y227365D01*
X646634Y227293D01*
X646652Y227244D01*
X646660Y227193D01*
X646694Y227130D01*
X646719Y227062D01*
X646751Y227022D01*
X646776Y226976D01*
X646827Y226926D01*
X646872Y226870D01*
X646916Y226842D01*
X646954Y226806D01*
X647019Y226776D01*
X647079Y226737D01*
X647130Y226725D01*
X647177Y226703D01*
X647248Y226695D01*
X647318Y226677D01*
X647370Y226681D01*
X647421Y226676D01*
X647492Y226691D01*
X647563Y226696D01*
X647611Y226717D01*
X647662Y226728D01*
X647723Y226765D01*
X647789Y226793D01*
X647845Y226838D01*
X647873Y226854D01*
X647888Y226872D01*
X647920Y226898D01*
X648556Y227534D01*
X648610Y227608D01*
X648669Y227677D01*
X648681Y227707D01*
X648700Y227733D01*
X648727Y227820D01*
X648761Y227905D01*
X648765Y227946D01*
X648772Y227968D01*
X648771Y228001D01*
X648779Y228072D01*
X648779Y230912D01*
X650548Y235183D01*
X653817Y238452D01*
X658088Y240221D01*
X662712Y240221D01*
X666983Y238452D01*
X670252Y235183D01*
X672021Y230912D01*
X672021Y226288D01*
X670252Y222017D01*
X666983Y218748D01*
X662712Y216979D01*
X659872Y216979D01*
X659782Y216965D01*
X659691Y216957D01*
X659661Y216945D01*
X659629Y216940D01*
X659548Y216897D01*
X659465Y216861D01*
X659432Y216835D01*
X659412Y216824D01*
X659390Y216801D01*
X659334Y216756D01*
X645667Y203089D01*
X642866Y201929D01*
X195334Y201929D01*
G37*
%LPD*%
%LPC*%
G36*
X335034Y373379D02*
X335034Y373379D01*
X332233Y374539D01*
X329982Y376790D01*
X293400Y413372D01*
X293342Y413414D01*
X293290Y413464D01*
X293243Y413486D01*
X293201Y413516D01*
X293132Y413537D01*
X293067Y413567D01*
X293015Y413573D01*
X292965Y413588D01*
X292894Y413586D01*
X292823Y413594D01*
X292772Y413583D01*
X292720Y413582D01*
X292652Y413557D01*
X292582Y413542D01*
X292537Y413515D01*
X292489Y413498D01*
X292433Y413453D01*
X292371Y413416D01*
X292337Y413376D01*
X292297Y413344D01*
X292258Y413284D01*
X292211Y413229D01*
X292192Y413181D01*
X292164Y413137D01*
X292146Y413067D01*
X292119Y413001D01*
X292111Y412930D01*
X292103Y412898D01*
X292105Y412875D01*
X292101Y412834D01*
X292101Y396254D01*
X290167Y391586D01*
X286594Y388013D01*
X281926Y386079D01*
X276874Y386079D01*
X272206Y388013D01*
X268633Y391586D01*
X266699Y396254D01*
X266699Y401658D01*
X266685Y401748D01*
X266677Y401839D01*
X266665Y401869D01*
X266660Y401901D01*
X266617Y401982D01*
X266581Y402065D01*
X266555Y402098D01*
X266544Y402118D01*
X266521Y402140D01*
X266476Y402196D01*
X244716Y423956D01*
X244642Y424009D01*
X244573Y424069D01*
X244543Y424081D01*
X244517Y424100D01*
X244430Y424127D01*
X244345Y424161D01*
X244304Y424165D01*
X244282Y424172D01*
X244249Y424171D01*
X244178Y424179D01*
X225540Y424179D01*
X225469Y424168D01*
X225398Y424166D01*
X225349Y424148D01*
X225297Y424140D01*
X225234Y424106D01*
X225167Y424081D01*
X225126Y424049D01*
X225080Y424024D01*
X225031Y423972D01*
X224975Y423928D01*
X224946Y423884D01*
X224911Y423846D01*
X224880Y423781D01*
X224842Y423721D01*
X224829Y423670D01*
X224807Y423623D01*
X224799Y423552D01*
X224782Y423482D01*
X224786Y423430D01*
X224780Y423379D01*
X224795Y423308D01*
X224801Y423237D01*
X224821Y423189D01*
X224832Y423138D01*
X224869Y423077D01*
X224897Y423011D01*
X224942Y422955D01*
X224958Y422927D01*
X224976Y422912D01*
X225002Y422880D01*
X226667Y421214D01*
X228601Y416546D01*
X228601Y396254D01*
X226667Y391586D01*
X223094Y388013D01*
X218426Y386079D01*
X213374Y386079D01*
X208706Y388013D01*
X205133Y391586D01*
X203199Y396254D01*
X203199Y416546D01*
X205133Y421214D01*
X206798Y422880D01*
X206840Y422938D01*
X206889Y422990D01*
X206911Y423037D01*
X206942Y423079D01*
X206963Y423148D01*
X206993Y423213D01*
X206999Y423265D01*
X207014Y423315D01*
X207012Y423386D01*
X207020Y423457D01*
X207009Y423508D01*
X207008Y423560D01*
X206983Y423628D01*
X206968Y423698D01*
X206941Y423743D01*
X206923Y423791D01*
X206878Y423847D01*
X206842Y423909D01*
X206802Y423943D01*
X206770Y423983D01*
X206709Y424022D01*
X206655Y424069D01*
X206606Y424088D01*
X206563Y424116D01*
X206493Y424134D01*
X206427Y424161D01*
X206355Y424169D01*
X206324Y424177D01*
X206301Y424175D01*
X206260Y424179D01*
X182634Y424179D01*
X179833Y425339D01*
X160890Y444282D01*
X159537Y445636D01*
X159483Y445674D01*
X159437Y445720D01*
X159364Y445760D01*
X159337Y445780D01*
X159318Y445785D01*
X159290Y445801D01*
X158707Y446042D01*
X155532Y449217D01*
X153814Y453365D01*
X153814Y457855D01*
X155211Y461227D01*
X155221Y461271D01*
X155241Y461313D01*
X155249Y461390D01*
X155267Y461466D01*
X155263Y461512D01*
X155268Y461557D01*
X155251Y461634D01*
X155244Y461711D01*
X155225Y461753D01*
X155216Y461798D01*
X155176Y461865D01*
X155144Y461936D01*
X155113Y461970D01*
X155089Y462009D01*
X155030Y462060D01*
X154978Y462117D01*
X154937Y462139D01*
X154902Y462169D01*
X154830Y462198D01*
X154762Y462235D01*
X154717Y462244D01*
X154674Y462261D01*
X154538Y462276D01*
X154520Y462279D01*
X154515Y462278D01*
X154508Y462279D01*
X151747Y462279D01*
X151727Y462276D01*
X151708Y462278D01*
X151606Y462256D01*
X151504Y462240D01*
X151487Y462230D01*
X151467Y462226D01*
X151378Y462173D01*
X151287Y462124D01*
X151273Y462110D01*
X151256Y462100D01*
X151189Y462021D01*
X151117Y461946D01*
X151109Y461928D01*
X151096Y461913D01*
X151057Y461817D01*
X151014Y461723D01*
X151012Y461703D01*
X151004Y461685D01*
X150986Y461518D01*
X150986Y447300D01*
X148010Y444324D01*
X131390Y444324D01*
X128414Y447300D01*
X128414Y461518D01*
X128411Y461538D01*
X128413Y461557D01*
X128391Y461659D01*
X128375Y461761D01*
X128365Y461778D01*
X128361Y461798D01*
X128308Y461887D01*
X128259Y461978D01*
X128245Y461992D01*
X128235Y462009D01*
X128156Y462076D01*
X128081Y462148D01*
X128063Y462156D01*
X128048Y462169D01*
X127952Y462208D01*
X127858Y462251D01*
X127838Y462253D01*
X127820Y462261D01*
X127653Y462279D01*
X105072Y462279D01*
X104982Y462265D01*
X104891Y462257D01*
X104861Y462245D01*
X104829Y462240D01*
X104748Y462197D01*
X104665Y462161D01*
X104632Y462135D01*
X104612Y462124D01*
X104590Y462101D01*
X104534Y462056D01*
X100808Y458330D01*
X100755Y458256D01*
X100695Y458187D01*
X100683Y458157D01*
X100664Y458131D01*
X100637Y458044D01*
X100603Y457959D01*
X100599Y457918D01*
X100592Y457896D01*
X100593Y457863D01*
X100585Y457792D01*
X100585Y452360D01*
X93740Y445515D01*
X84060Y445515D01*
X77215Y452360D01*
X77215Y462040D01*
X84060Y468885D01*
X89492Y468885D01*
X89582Y468899D01*
X89673Y468907D01*
X89703Y468919D01*
X89735Y468924D01*
X89816Y468967D01*
X89899Y469003D01*
X89932Y469029D01*
X89952Y469040D01*
X89974Y469063D01*
X90030Y469108D01*
X97283Y476361D01*
X100084Y477521D01*
X280916Y477521D01*
X283717Y476361D01*
X285861Y474217D01*
X287021Y471416D01*
X287021Y466861D01*
X287028Y466816D01*
X287026Y466770D01*
X287048Y466695D01*
X287060Y466618D01*
X287082Y466578D01*
X287095Y466534D01*
X287139Y466470D01*
X287176Y466401D01*
X287209Y466369D01*
X287235Y466332D01*
X287298Y466285D01*
X287354Y466231D01*
X287396Y466212D01*
X287432Y466185D01*
X287506Y466161D01*
X287577Y466128D01*
X287623Y466123D01*
X287666Y466109D01*
X287744Y466109D01*
X287821Y466101D01*
X287866Y466111D01*
X287912Y466111D01*
X288044Y466149D01*
X288062Y466153D01*
X288066Y466156D01*
X288073Y466158D01*
X289855Y466896D01*
X290703Y466896D01*
X290793Y466910D01*
X290884Y466918D01*
X290914Y466930D01*
X290946Y466935D01*
X291027Y466978D01*
X291110Y467014D01*
X291143Y467040D01*
X291163Y467051D01*
X291177Y467065D01*
X291178Y467066D01*
X291189Y467076D01*
X291241Y467119D01*
X341406Y517284D01*
X341459Y517358D01*
X341519Y517427D01*
X341531Y517457D01*
X341550Y517483D01*
X341577Y517570D01*
X341611Y517655D01*
X341615Y517696D01*
X341622Y517718D01*
X341621Y517751D01*
X341629Y517822D01*
X341629Y522943D01*
X341626Y522963D01*
X341628Y522982D01*
X341606Y523084D01*
X341590Y523186D01*
X341580Y523203D01*
X341576Y523223D01*
X341523Y523312D01*
X341474Y523403D01*
X341460Y523417D01*
X341450Y523434D01*
X341371Y523501D01*
X341296Y523573D01*
X341278Y523581D01*
X341263Y523594D01*
X341167Y523633D01*
X341073Y523676D01*
X341053Y523678D01*
X341035Y523686D01*
X340868Y523704D01*
X340655Y523704D01*
X336507Y525422D01*
X333332Y528597D01*
X331614Y532745D01*
X331614Y537235D01*
X333332Y541383D01*
X335479Y543530D01*
X335521Y543588D01*
X335571Y543640D01*
X335592Y543687D01*
X335623Y543729D01*
X335644Y543798D01*
X335674Y543863D01*
X335680Y543915D01*
X335695Y543965D01*
X335693Y544036D01*
X335701Y544107D01*
X335690Y544158D01*
X335689Y544210D01*
X335664Y544278D01*
X335649Y544348D01*
X335622Y544393D01*
X335604Y544441D01*
X335560Y544497D01*
X335523Y544559D01*
X335483Y544593D01*
X335451Y544633D01*
X335390Y544672D01*
X335336Y544719D01*
X335288Y544738D01*
X335244Y544766D01*
X335174Y544784D01*
X335108Y544811D01*
X335036Y544819D01*
X335005Y544827D01*
X334982Y544825D01*
X334941Y544829D01*
X333672Y544829D01*
X333582Y544815D01*
X333491Y544807D01*
X333461Y544795D01*
X333429Y544790D01*
X333348Y544747D01*
X333265Y544711D01*
X333232Y544685D01*
X333212Y544674D01*
X333190Y544651D01*
X333134Y544606D01*
X328260Y539733D01*
X328212Y539667D01*
X328204Y539658D01*
X328200Y539649D01*
X328192Y539638D01*
X328122Y539544D01*
X328120Y539538D01*
X328116Y539533D01*
X328082Y539422D01*
X328046Y539310D01*
X328046Y539304D01*
X328044Y539298D01*
X328047Y539181D01*
X328048Y539064D01*
X328050Y539057D01*
X328050Y539052D01*
X328057Y539034D01*
X328095Y538903D01*
X328786Y537235D01*
X328786Y532745D01*
X327068Y528597D01*
X323893Y525422D01*
X319745Y523704D01*
X315255Y523704D01*
X311107Y525422D01*
X307932Y528597D01*
X306214Y532745D01*
X306214Y537235D01*
X307932Y541383D01*
X311107Y544558D01*
X311690Y544799D01*
X311745Y544833D01*
X311806Y544859D01*
X311870Y544911D01*
X311899Y544928D01*
X311911Y544943D01*
X311937Y544964D01*
X325883Y558911D01*
X328684Y560071D01*
X361954Y560071D01*
X362044Y560085D01*
X362135Y560093D01*
X362165Y560105D01*
X362197Y560110D01*
X362278Y560153D01*
X362362Y560189D01*
X362394Y560215D01*
X362415Y560226D01*
X362437Y560249D01*
X362493Y560294D01*
X362832Y560633D01*
X366380Y562103D01*
X370220Y562103D01*
X373768Y560633D01*
X376483Y557918D01*
X377953Y554370D01*
X377953Y550530D01*
X376483Y546982D01*
X374914Y545413D01*
X374902Y545397D01*
X374887Y545384D01*
X374831Y545297D01*
X374770Y545213D01*
X374765Y545194D01*
X374754Y545177D01*
X374729Y545077D01*
X374698Y544978D01*
X374699Y544958D01*
X374694Y544939D01*
X374702Y544836D01*
X374704Y544732D01*
X374711Y544713D01*
X374713Y544694D01*
X374753Y544599D01*
X374789Y544501D01*
X374801Y544486D01*
X374809Y544467D01*
X374914Y544336D01*
X377868Y541383D01*
X379586Y537235D01*
X379586Y532745D01*
X377868Y528597D01*
X374693Y525422D01*
X370545Y523704D01*
X366055Y523704D01*
X361907Y525422D01*
X358732Y528597D01*
X358335Y529556D01*
X358284Y529639D01*
X358238Y529725D01*
X358219Y529743D01*
X358206Y529765D01*
X358131Y529827D01*
X358060Y529894D01*
X358036Y529905D01*
X358016Y529922D01*
X357925Y529957D01*
X357837Y529998D01*
X357811Y530001D01*
X357787Y530010D01*
X357689Y530014D01*
X357593Y530025D01*
X357567Y530019D01*
X357541Y530020D01*
X357447Y529993D01*
X357352Y529973D01*
X357330Y529959D01*
X357305Y529952D01*
X357225Y529896D01*
X357141Y529846D01*
X357124Y529827D01*
X357103Y529812D01*
X357044Y529733D01*
X356981Y529659D01*
X356971Y529635D01*
X356956Y529614D01*
X356926Y529522D01*
X356889Y529431D01*
X356886Y529399D01*
X356880Y529380D01*
X356880Y529347D01*
X356871Y529265D01*
X356871Y516382D01*
X356873Y516366D01*
X356872Y516353D01*
X356872Y516349D01*
X356872Y516343D01*
X356894Y516241D01*
X356910Y516139D01*
X356920Y516122D01*
X356924Y516102D01*
X356977Y516013D01*
X357026Y515922D01*
X357040Y515908D01*
X357050Y515891D01*
X357129Y515824D01*
X357204Y515752D01*
X357222Y515744D01*
X357237Y515731D01*
X357333Y515692D01*
X357427Y515649D01*
X357447Y515647D01*
X357465Y515639D01*
X357632Y515621D01*
X424264Y515621D01*
X424335Y515632D01*
X424407Y515634D01*
X424456Y515652D01*
X424507Y515660D01*
X424570Y515694D01*
X424638Y515719D01*
X424678Y515751D01*
X424724Y515776D01*
X424774Y515828D01*
X424830Y515872D01*
X424858Y515916D01*
X424894Y515954D01*
X424924Y516019D01*
X424963Y516079D01*
X424975Y516130D01*
X424997Y516177D01*
X425005Y516248D01*
X425023Y516318D01*
X425019Y516370D01*
X425024Y516421D01*
X425009Y516492D01*
X425004Y516563D01*
X424983Y516611D01*
X424972Y516662D01*
X424935Y516723D01*
X424907Y516789D01*
X424862Y516845D01*
X424846Y516873D01*
X424838Y516880D01*
X424836Y516883D01*
X424825Y516893D01*
X424802Y516920D01*
X418241Y523481D01*
X418167Y523534D01*
X418098Y523594D01*
X418068Y523606D01*
X418042Y523625D01*
X417955Y523652D01*
X417870Y523686D01*
X417829Y523690D01*
X417807Y523697D01*
X417774Y523696D01*
X417703Y523704D01*
X416855Y523704D01*
X412707Y525422D01*
X409532Y528597D01*
X407814Y532745D01*
X407814Y537235D01*
X409532Y541383D01*
X411679Y543530D01*
X411721Y543588D01*
X411771Y543640D01*
X411792Y543687D01*
X411823Y543729D01*
X411844Y543798D01*
X411874Y543863D01*
X411880Y543915D01*
X411895Y543965D01*
X411893Y544036D01*
X411901Y544107D01*
X411890Y544158D01*
X411889Y544210D01*
X411864Y544278D01*
X411849Y544348D01*
X411822Y544393D01*
X411804Y544441D01*
X411760Y544497D01*
X411723Y544559D01*
X411683Y544593D01*
X411651Y544633D01*
X411590Y544672D01*
X411536Y544719D01*
X411488Y544738D01*
X411444Y544766D01*
X411374Y544784D01*
X411308Y544811D01*
X411236Y544819D01*
X411205Y544827D01*
X411182Y544825D01*
X411141Y544829D01*
X409872Y544829D01*
X409782Y544815D01*
X409691Y544807D01*
X409661Y544795D01*
X409629Y544790D01*
X409548Y544747D01*
X409465Y544711D01*
X409432Y544685D01*
X409412Y544674D01*
X409390Y544651D01*
X409334Y544606D01*
X404460Y539733D01*
X404412Y539667D01*
X404404Y539658D01*
X404400Y539649D01*
X404392Y539638D01*
X404322Y539544D01*
X404320Y539538D01*
X404316Y539533D01*
X404282Y539422D01*
X404246Y539310D01*
X404246Y539304D01*
X404244Y539298D01*
X404247Y539181D01*
X404248Y539064D01*
X404250Y539057D01*
X404250Y539052D01*
X404257Y539034D01*
X404295Y538903D01*
X404986Y537235D01*
X404986Y532745D01*
X403268Y528597D01*
X400093Y525422D01*
X395945Y523704D01*
X391455Y523704D01*
X387307Y525422D01*
X384132Y528597D01*
X382414Y532745D01*
X382414Y537235D01*
X384132Y541383D01*
X387307Y544558D01*
X387890Y544799D01*
X387945Y544833D01*
X388006Y544859D01*
X388071Y544911D01*
X388099Y544928D01*
X388111Y544943D01*
X388137Y544964D01*
X389490Y546317D01*
X389490Y546318D01*
X399832Y556660D01*
X402083Y558911D01*
X404884Y560071D01*
X508004Y560071D01*
X508094Y560085D01*
X508185Y560093D01*
X508215Y560105D01*
X508247Y560110D01*
X508328Y560153D01*
X508412Y560189D01*
X508444Y560215D01*
X508465Y560226D01*
X508487Y560249D01*
X508543Y560294D01*
X508882Y560633D01*
X512430Y562103D01*
X516270Y562103D01*
X519818Y560633D01*
X522533Y557918D01*
X524003Y554370D01*
X524003Y550530D01*
X522533Y546982D01*
X519818Y544267D01*
X516270Y542797D01*
X512430Y542797D01*
X508882Y544267D01*
X508543Y544606D01*
X508469Y544659D01*
X508399Y544719D01*
X508369Y544731D01*
X508343Y544750D01*
X508256Y544777D01*
X508171Y544811D01*
X508130Y544815D01*
X508108Y544822D01*
X508076Y544821D01*
X508004Y544829D01*
X477859Y544829D01*
X477788Y544818D01*
X477717Y544816D01*
X477668Y544798D01*
X477616Y544790D01*
X477553Y544756D01*
X477486Y544731D01*
X477445Y544699D01*
X477399Y544674D01*
X477350Y544622D01*
X477294Y544578D01*
X477265Y544534D01*
X477229Y544496D01*
X477199Y544431D01*
X477161Y544371D01*
X477148Y544320D01*
X477126Y544273D01*
X477118Y544202D01*
X477100Y544132D01*
X477105Y544080D01*
X477099Y544029D01*
X477114Y543958D01*
X477120Y543887D01*
X477140Y543839D01*
X477151Y543788D01*
X477188Y543727D01*
X477216Y543661D01*
X477261Y543605D01*
X477277Y543577D01*
X477295Y543562D01*
X477321Y543530D01*
X479468Y541383D01*
X481186Y537235D01*
X481186Y532745D01*
X479789Y529373D01*
X479779Y529329D01*
X479759Y529287D01*
X479751Y529210D01*
X479733Y529134D01*
X479737Y529088D01*
X479732Y529043D01*
X479749Y528966D01*
X479756Y528889D01*
X479775Y528847D01*
X479784Y528802D01*
X479824Y528735D01*
X479856Y528664D01*
X479887Y528630D01*
X479911Y528591D01*
X479970Y528540D01*
X480022Y528483D01*
X480063Y528461D01*
X480098Y528431D01*
X480170Y528402D01*
X480238Y528365D01*
X480283Y528356D01*
X480326Y528339D01*
X480462Y528324D01*
X480480Y528321D01*
X480485Y528322D01*
X480492Y528321D01*
X508004Y528321D01*
X508094Y528335D01*
X508185Y528343D01*
X508215Y528355D01*
X508247Y528360D01*
X508328Y528403D01*
X508412Y528439D01*
X508444Y528465D01*
X508465Y528476D01*
X508487Y528499D01*
X508543Y528544D01*
X508882Y528883D01*
X512430Y530353D01*
X516270Y530353D01*
X519818Y528883D01*
X522533Y526168D01*
X524003Y522620D01*
X524003Y518780D01*
X523130Y516673D01*
X523120Y516631D01*
X523104Y516597D01*
X523104Y516596D01*
X523100Y516587D01*
X523092Y516510D01*
X523074Y516434D01*
X523078Y516388D01*
X523073Y516343D01*
X523090Y516266D01*
X523097Y516189D01*
X523116Y516147D01*
X523125Y516102D01*
X523165Y516035D01*
X523197Y515964D01*
X523228Y515930D01*
X523252Y515891D01*
X523311Y515840D01*
X523363Y515783D01*
X523404Y515761D01*
X523439Y515731D01*
X523511Y515702D01*
X523579Y515665D01*
X523624Y515656D01*
X523667Y515639D01*
X523803Y515624D01*
X523821Y515621D01*
X523826Y515622D01*
X523833Y515621D01*
X606128Y515621D01*
X606218Y515635D01*
X606309Y515643D01*
X606339Y515655D01*
X606371Y515660D01*
X606452Y515703D01*
X606535Y515739D01*
X606568Y515765D01*
X606588Y515776D01*
X606597Y515785D01*
X606598Y515786D01*
X606612Y515801D01*
X606666Y515844D01*
X644174Y553352D01*
X644227Y553426D01*
X644287Y553495D01*
X644299Y553525D01*
X644318Y553551D01*
X644345Y553638D01*
X644379Y553723D01*
X644383Y553764D01*
X644390Y553786D01*
X644389Y553819D01*
X644397Y553890D01*
X644397Y554370D01*
X645867Y557918D01*
X648582Y560633D01*
X652130Y562103D01*
X655970Y562103D01*
X659518Y560633D01*
X662233Y557918D01*
X663703Y554370D01*
X663703Y550530D01*
X662233Y546982D01*
X659518Y544267D01*
X655970Y542797D01*
X655490Y542797D01*
X655400Y542783D01*
X655309Y542775D01*
X655279Y542763D01*
X655247Y542758D01*
X655166Y542715D01*
X655083Y542679D01*
X655050Y542653D01*
X655030Y542642D01*
X655008Y542619D01*
X654952Y542574D01*
X613917Y501539D01*
X611116Y500379D01*
X346372Y500379D01*
X346282Y500365D01*
X346191Y500357D01*
X346161Y500345D01*
X346129Y500340D01*
X346048Y500297D01*
X345965Y500261D01*
X345932Y500235D01*
X345912Y500224D01*
X345890Y500201D01*
X345834Y500156D01*
X303609Y457931D01*
X303556Y457857D01*
X303496Y457788D01*
X303484Y457758D01*
X303465Y457732D01*
X303438Y457645D01*
X303404Y457560D01*
X303400Y457519D01*
X303393Y457497D01*
X303394Y457464D01*
X303386Y457393D01*
X303386Y453365D01*
X301668Y449217D01*
X299521Y447070D01*
X299479Y447012D01*
X299429Y446960D01*
X299408Y446913D01*
X299377Y446871D01*
X299356Y446802D01*
X299326Y446737D01*
X299320Y446685D01*
X299305Y446635D01*
X299307Y446564D01*
X299299Y446493D01*
X299310Y446442D01*
X299311Y446390D01*
X299336Y446322D01*
X299351Y446252D01*
X299378Y446207D01*
X299396Y446159D01*
X299440Y446103D01*
X299477Y446041D01*
X299517Y446007D01*
X299549Y445967D01*
X299610Y445928D01*
X299664Y445881D01*
X299712Y445862D01*
X299756Y445834D01*
X299826Y445816D01*
X299892Y445789D01*
X299964Y445781D01*
X299995Y445773D01*
X300018Y445775D01*
X300059Y445771D01*
X312666Y445771D01*
X315467Y444611D01*
X335052Y425025D01*
X335146Y424958D01*
X335241Y424887D01*
X335247Y424885D01*
X335252Y424882D01*
X335363Y424847D01*
X335475Y424811D01*
X335481Y424811D01*
X335487Y424809D01*
X335604Y424812D01*
X335721Y424813D01*
X335728Y424815D01*
X335733Y424816D01*
X335750Y424822D01*
X335882Y424860D01*
X340374Y426721D01*
X345426Y426721D01*
X350094Y424787D01*
X352939Y421943D01*
X352955Y421931D01*
X352967Y421916D01*
X353055Y421859D01*
X353139Y421799D01*
X353158Y421793D01*
X353174Y421783D01*
X353275Y421757D01*
X353374Y421727D01*
X353394Y421727D01*
X353413Y421722D01*
X353516Y421730D01*
X353620Y421733D01*
X353638Y421740D01*
X353658Y421742D01*
X353753Y421782D01*
X353851Y421818D01*
X353866Y421830D01*
X353884Y421838D01*
X354015Y421943D01*
X382940Y450867D01*
X383008Y450961D01*
X383078Y451056D01*
X383080Y451062D01*
X383084Y451067D01*
X383118Y451178D01*
X383154Y451290D01*
X383154Y451296D01*
X383156Y451302D01*
X383153Y451419D01*
X383152Y451536D01*
X383150Y451543D01*
X383150Y451548D01*
X383143Y451566D01*
X383105Y451697D01*
X382414Y453365D01*
X382414Y457855D01*
X384132Y462003D01*
X387307Y465178D01*
X391455Y466896D01*
X395945Y466896D01*
X400093Y465178D01*
X403268Y462003D01*
X404986Y457855D01*
X404986Y453365D01*
X403268Y449217D01*
X400093Y446042D01*
X399510Y445801D01*
X399455Y445767D01*
X399394Y445741D01*
X399329Y445689D01*
X399301Y445672D01*
X399289Y445657D01*
X399263Y445636D01*
X397910Y444282D01*
X355824Y402196D01*
X355771Y402122D01*
X355711Y402053D01*
X355699Y402023D01*
X355680Y401997D01*
X355653Y401910D01*
X355619Y401825D01*
X355615Y401784D01*
X355608Y401762D01*
X355609Y401729D01*
X355601Y401658D01*
X355601Y396254D01*
X353667Y391586D01*
X352002Y389920D01*
X351960Y389862D01*
X351911Y389810D01*
X351889Y389763D01*
X351858Y389721D01*
X351837Y389652D01*
X351807Y389587D01*
X351801Y389535D01*
X351786Y389485D01*
X351788Y389414D01*
X351780Y389343D01*
X351791Y389292D01*
X351792Y389240D01*
X351817Y389172D01*
X351832Y389102D01*
X351859Y389057D01*
X351877Y389009D01*
X351922Y388953D01*
X351958Y388891D01*
X351998Y388857D01*
X352030Y388817D01*
X352091Y388778D01*
X352145Y388731D01*
X352194Y388712D01*
X352237Y388684D01*
X352307Y388666D01*
X352373Y388639D01*
X352445Y388631D01*
X352476Y388623D01*
X352499Y388625D01*
X352540Y388621D01*
X377528Y388621D01*
X377618Y388635D01*
X377709Y388643D01*
X377739Y388655D01*
X377771Y388660D01*
X377852Y388703D01*
X377935Y388739D01*
X377968Y388765D01*
X377988Y388776D01*
X378010Y388799D01*
X378066Y388844D01*
X393476Y404254D01*
X393529Y404328D01*
X393589Y404397D01*
X393601Y404427D01*
X393620Y404453D01*
X393647Y404540D01*
X393681Y404625D01*
X393685Y404666D01*
X393692Y404688D01*
X393691Y404721D01*
X393699Y404792D01*
X393699Y416546D01*
X395633Y421214D01*
X399206Y424787D01*
X403874Y426721D01*
X408926Y426721D01*
X413594Y424787D01*
X417167Y421214D01*
X419101Y416546D01*
X419101Y396254D01*
X417167Y391586D01*
X413594Y388013D01*
X408926Y386079D01*
X403874Y386079D01*
X399382Y387940D01*
X399268Y387967D01*
X399155Y387995D01*
X399148Y387995D01*
X399142Y387996D01*
X399026Y387985D01*
X398909Y387976D01*
X398904Y387974D01*
X398897Y387973D01*
X398790Y387925D01*
X398683Y387880D01*
X398677Y387875D01*
X398673Y387873D01*
X398659Y387860D01*
X398552Y387775D01*
X385317Y374539D01*
X382516Y373379D01*
X335034Y373379D01*
G37*
%LPD*%
%LPC*%
G36*
X309129Y97789D02*
X309129Y97789D01*
X305394Y99336D01*
X289149Y115581D01*
X289096Y115619D01*
X289049Y115665D01*
X288976Y115706D01*
X288949Y115725D01*
X288931Y115731D01*
X288902Y115746D01*
X285517Y117148D01*
X282248Y120417D01*
X280479Y124688D01*
X280479Y129312D01*
X282248Y133583D01*
X285517Y136852D01*
X289788Y138621D01*
X294412Y138621D01*
X298683Y136852D01*
X301952Y133583D01*
X303354Y130198D01*
X303388Y130142D01*
X303414Y130082D01*
X303466Y130017D01*
X303483Y129989D01*
X303498Y129976D01*
X303519Y129951D01*
X304580Y128890D01*
X304638Y128848D01*
X304690Y128798D01*
X304737Y128776D01*
X304779Y128746D01*
X304848Y128725D01*
X304913Y128695D01*
X304965Y128689D01*
X305015Y128674D01*
X305086Y128676D01*
X305157Y128668D01*
X305208Y128679D01*
X305260Y128680D01*
X305328Y128705D01*
X305398Y128720D01*
X305442Y128747D01*
X305491Y128765D01*
X305547Y128809D01*
X305609Y128846D01*
X305643Y128886D01*
X305683Y128918D01*
X305722Y128979D01*
X305769Y129033D01*
X305788Y129081D01*
X305816Y129125D01*
X305834Y129195D01*
X305861Y129261D01*
X305862Y129269D01*
X307648Y133583D01*
X310917Y136852D01*
X315188Y138621D01*
X319812Y138621D01*
X324083Y136852D01*
X327352Y133583D01*
X329121Y129312D01*
X329121Y124688D01*
X327352Y120417D01*
X326344Y119410D01*
X326303Y119352D01*
X326253Y119300D01*
X326231Y119253D01*
X326201Y119211D01*
X326180Y119142D01*
X326150Y119077D01*
X326144Y119025D01*
X326129Y118975D01*
X326130Y118904D01*
X326123Y118833D01*
X326134Y118782D01*
X326135Y118730D01*
X326160Y118662D01*
X326175Y118592D01*
X326201Y118547D01*
X326219Y118499D01*
X326264Y118443D01*
X326301Y118381D01*
X326341Y118347D01*
X326373Y118307D01*
X326433Y118268D01*
X326488Y118221D01*
X326536Y118202D01*
X326580Y118174D01*
X326649Y118156D01*
X326716Y118129D01*
X326787Y118121D01*
X326818Y118113D01*
X326842Y118115D01*
X326883Y118111D01*
X333517Y118111D01*
X333588Y118122D01*
X333660Y118124D01*
X333709Y118142D01*
X333760Y118150D01*
X333823Y118184D01*
X333891Y118209D01*
X333931Y118241D01*
X333977Y118266D01*
X334027Y118318D01*
X334083Y118362D01*
X334111Y118406D01*
X334147Y118444D01*
X334177Y118509D01*
X334216Y118569D01*
X334228Y118620D01*
X334250Y118667D01*
X334258Y118738D01*
X334276Y118808D01*
X334272Y118860D01*
X334277Y118911D01*
X334262Y118982D01*
X334257Y119053D01*
X334236Y119101D01*
X334225Y119152D01*
X334188Y119213D01*
X334160Y119279D01*
X334116Y119335D01*
X334099Y119363D01*
X334081Y119378D01*
X334056Y119410D01*
X333048Y120417D01*
X331279Y124688D01*
X331279Y129312D01*
X333048Y133583D01*
X336317Y136852D01*
X340588Y138621D01*
X345212Y138621D01*
X349483Y136852D01*
X352752Y133583D01*
X354521Y129312D01*
X354521Y124688D01*
X352752Y120417D01*
X351744Y119410D01*
X351703Y119352D01*
X351653Y119300D01*
X351631Y119253D01*
X351601Y119211D01*
X351580Y119142D01*
X351550Y119077D01*
X351544Y119025D01*
X351529Y118975D01*
X351530Y118904D01*
X351523Y118833D01*
X351534Y118782D01*
X351535Y118730D01*
X351560Y118662D01*
X351575Y118592D01*
X351601Y118547D01*
X351619Y118499D01*
X351664Y118443D01*
X351701Y118381D01*
X351741Y118347D01*
X351773Y118307D01*
X351833Y118268D01*
X351888Y118221D01*
X351936Y118202D01*
X351980Y118174D01*
X352049Y118156D01*
X352116Y118129D01*
X352187Y118121D01*
X352218Y118113D01*
X352242Y118115D01*
X352283Y118111D01*
X358917Y118111D01*
X358988Y118122D01*
X359060Y118124D01*
X359109Y118142D01*
X359160Y118150D01*
X359223Y118184D01*
X359291Y118209D01*
X359331Y118241D01*
X359377Y118266D01*
X359427Y118318D01*
X359483Y118362D01*
X359511Y118406D01*
X359547Y118444D01*
X359577Y118509D01*
X359616Y118569D01*
X359628Y118620D01*
X359650Y118667D01*
X359658Y118738D01*
X359676Y118808D01*
X359672Y118860D01*
X359677Y118911D01*
X359662Y118982D01*
X359657Y119053D01*
X359636Y119101D01*
X359625Y119152D01*
X359588Y119213D01*
X359560Y119279D01*
X359516Y119335D01*
X359499Y119363D01*
X359481Y119378D01*
X359456Y119410D01*
X358448Y120417D01*
X356679Y124688D01*
X356679Y129312D01*
X358448Y133583D01*
X361717Y136852D01*
X365988Y138621D01*
X370612Y138621D01*
X374883Y136852D01*
X378152Y133583D01*
X379921Y129312D01*
X379921Y124688D01*
X378152Y120417D01*
X377144Y119410D01*
X377103Y119352D01*
X377053Y119300D01*
X377031Y119253D01*
X377001Y119211D01*
X376980Y119142D01*
X376950Y119077D01*
X376944Y119025D01*
X376929Y118975D01*
X376930Y118904D01*
X376923Y118833D01*
X376934Y118782D01*
X376935Y118730D01*
X376960Y118662D01*
X376975Y118592D01*
X377001Y118547D01*
X377019Y118499D01*
X377064Y118443D01*
X377101Y118381D01*
X377141Y118347D01*
X377173Y118307D01*
X377233Y118268D01*
X377288Y118221D01*
X377336Y118202D01*
X377380Y118174D01*
X377449Y118156D01*
X377516Y118129D01*
X377587Y118121D01*
X377618Y118113D01*
X377642Y118115D01*
X377683Y118111D01*
X384317Y118111D01*
X384388Y118122D01*
X384460Y118124D01*
X384509Y118142D01*
X384560Y118150D01*
X384623Y118184D01*
X384691Y118209D01*
X384731Y118241D01*
X384777Y118266D01*
X384827Y118318D01*
X384883Y118362D01*
X384911Y118406D01*
X384947Y118444D01*
X384977Y118509D01*
X385016Y118569D01*
X385028Y118620D01*
X385050Y118667D01*
X385058Y118738D01*
X385076Y118808D01*
X385072Y118860D01*
X385077Y118911D01*
X385062Y118982D01*
X385057Y119053D01*
X385036Y119101D01*
X385025Y119152D01*
X384988Y119213D01*
X384960Y119279D01*
X384916Y119335D01*
X384899Y119363D01*
X384881Y119378D01*
X384856Y119410D01*
X383848Y120417D01*
X382079Y124688D01*
X382079Y129312D01*
X383848Y133583D01*
X387117Y136852D01*
X391388Y138621D01*
X396012Y138621D01*
X400283Y136852D01*
X403552Y133583D01*
X405321Y129312D01*
X405321Y124688D01*
X403552Y120417D01*
X402544Y119410D01*
X402503Y119352D01*
X402453Y119300D01*
X402431Y119253D01*
X402401Y119211D01*
X402380Y119142D01*
X402350Y119077D01*
X402344Y119025D01*
X402329Y118975D01*
X402330Y118904D01*
X402323Y118833D01*
X402334Y118782D01*
X402335Y118730D01*
X402360Y118662D01*
X402375Y118592D01*
X402401Y118547D01*
X402419Y118499D01*
X402464Y118443D01*
X402501Y118381D01*
X402541Y118347D01*
X402573Y118307D01*
X402633Y118268D01*
X402688Y118221D01*
X402736Y118202D01*
X402780Y118174D01*
X402849Y118156D01*
X402916Y118129D01*
X402987Y118121D01*
X403018Y118113D01*
X403042Y118115D01*
X403083Y118111D01*
X409717Y118111D01*
X409788Y118122D01*
X409860Y118124D01*
X409909Y118142D01*
X409960Y118150D01*
X410023Y118184D01*
X410091Y118209D01*
X410131Y118241D01*
X410177Y118266D01*
X410227Y118318D01*
X410283Y118362D01*
X410311Y118406D01*
X410347Y118444D01*
X410377Y118509D01*
X410416Y118569D01*
X410428Y118620D01*
X410450Y118667D01*
X410458Y118738D01*
X410476Y118808D01*
X410472Y118860D01*
X410477Y118911D01*
X410462Y118982D01*
X410457Y119053D01*
X410436Y119101D01*
X410425Y119152D01*
X410388Y119213D01*
X410360Y119279D01*
X410316Y119335D01*
X410299Y119363D01*
X410281Y119378D01*
X410256Y119410D01*
X409248Y120417D01*
X407479Y124688D01*
X407479Y129312D01*
X409248Y133583D01*
X412517Y136852D01*
X416788Y138621D01*
X421412Y138621D01*
X425683Y136852D01*
X428952Y133583D01*
X430721Y129312D01*
X430721Y124688D01*
X428952Y120417D01*
X427944Y119410D01*
X427903Y119352D01*
X427853Y119300D01*
X427831Y119253D01*
X427801Y119211D01*
X427780Y119142D01*
X427750Y119077D01*
X427744Y119025D01*
X427729Y118975D01*
X427730Y118904D01*
X427723Y118833D01*
X427734Y118782D01*
X427735Y118730D01*
X427760Y118662D01*
X427775Y118592D01*
X427801Y118547D01*
X427819Y118499D01*
X427864Y118443D01*
X427901Y118381D01*
X427941Y118347D01*
X427973Y118307D01*
X428033Y118268D01*
X428088Y118221D01*
X428136Y118202D01*
X428180Y118174D01*
X428249Y118156D01*
X428316Y118129D01*
X428387Y118121D01*
X428418Y118113D01*
X428442Y118115D01*
X428483Y118111D01*
X435117Y118111D01*
X435188Y118122D01*
X435260Y118124D01*
X435309Y118142D01*
X435360Y118150D01*
X435423Y118184D01*
X435491Y118209D01*
X435531Y118241D01*
X435577Y118266D01*
X435627Y118318D01*
X435683Y118362D01*
X435711Y118406D01*
X435747Y118444D01*
X435777Y118509D01*
X435816Y118569D01*
X435828Y118620D01*
X435850Y118667D01*
X435858Y118738D01*
X435876Y118808D01*
X435872Y118860D01*
X435877Y118911D01*
X435862Y118982D01*
X435857Y119053D01*
X435836Y119101D01*
X435825Y119152D01*
X435788Y119213D01*
X435760Y119279D01*
X435716Y119335D01*
X435699Y119363D01*
X435681Y119378D01*
X435656Y119410D01*
X434648Y120417D01*
X432879Y124688D01*
X432879Y129312D01*
X434648Y133583D01*
X437917Y136852D01*
X442188Y138621D01*
X446812Y138621D01*
X451083Y136852D01*
X454352Y133583D01*
X456121Y129312D01*
X456121Y124688D01*
X454352Y120417D01*
X453344Y119410D01*
X453303Y119352D01*
X453253Y119300D01*
X453231Y119253D01*
X453201Y119211D01*
X453180Y119142D01*
X453150Y119077D01*
X453144Y119025D01*
X453129Y118975D01*
X453130Y118904D01*
X453123Y118833D01*
X453134Y118782D01*
X453135Y118730D01*
X453160Y118662D01*
X453175Y118592D01*
X453201Y118547D01*
X453219Y118499D01*
X453264Y118443D01*
X453301Y118381D01*
X453341Y118347D01*
X453373Y118307D01*
X453433Y118268D01*
X453488Y118221D01*
X453536Y118202D01*
X453580Y118174D01*
X453649Y118156D01*
X453716Y118129D01*
X453787Y118121D01*
X453818Y118113D01*
X453842Y118115D01*
X453883Y118111D01*
X495618Y118111D01*
X495638Y118114D01*
X495657Y118112D01*
X495759Y118134D01*
X495861Y118150D01*
X495878Y118160D01*
X495898Y118164D01*
X495987Y118217D01*
X496078Y118266D01*
X496092Y118280D01*
X496109Y118290D01*
X496176Y118369D01*
X496248Y118444D01*
X496256Y118462D01*
X496269Y118477D01*
X496308Y118573D01*
X496351Y118667D01*
X496353Y118687D01*
X496361Y118705D01*
X496379Y118872D01*
X496379Y135645D01*
X499355Y138621D01*
X516645Y138621D01*
X519621Y135645D01*
X519621Y118872D01*
X519624Y118852D01*
X519622Y118833D01*
X519644Y118731D01*
X519660Y118629D01*
X519670Y118612D01*
X519674Y118592D01*
X519727Y118503D01*
X519776Y118412D01*
X519790Y118398D01*
X519800Y118381D01*
X519879Y118314D01*
X519954Y118242D01*
X519972Y118234D01*
X519987Y118221D01*
X520083Y118182D01*
X520177Y118139D01*
X520197Y118137D01*
X520215Y118129D01*
X520382Y118111D01*
X522478Y118111D01*
X522498Y118114D01*
X522517Y118112D01*
X522619Y118134D01*
X522721Y118150D01*
X522738Y118160D01*
X522758Y118164D01*
X522847Y118217D01*
X522938Y118266D01*
X522952Y118280D01*
X522969Y118290D01*
X523036Y118369D01*
X523108Y118444D01*
X523116Y118462D01*
X523129Y118477D01*
X523168Y118573D01*
X523211Y118667D01*
X523213Y118687D01*
X523221Y118705D01*
X523239Y118872D01*
X523239Y121012D01*
X523229Y121077D01*
X523228Y121143D01*
X523205Y121223D01*
X523200Y121255D01*
X523190Y121272D01*
X523181Y121304D01*
X521779Y124688D01*
X521779Y129312D01*
X523548Y133583D01*
X526817Y136852D01*
X531088Y138621D01*
X535712Y138621D01*
X539983Y136852D01*
X543252Y133583D01*
X545021Y129312D01*
X545021Y124688D01*
X543619Y121304D01*
X543604Y121240D01*
X543579Y121179D01*
X543570Y121096D01*
X543563Y121064D01*
X543564Y121045D01*
X543561Y121012D01*
X543561Y105929D01*
X542014Y102194D01*
X539156Y99336D01*
X535421Y97789D01*
X309129Y97789D01*
G37*
%LPD*%
%LPC*%
G36*
X530874Y386079D02*
X530874Y386079D01*
X526206Y388013D01*
X522633Y391586D01*
X520699Y396254D01*
X520699Y416546D01*
X522633Y421214D01*
X524298Y422880D01*
X524340Y422938D01*
X524389Y422990D01*
X524411Y423037D01*
X524442Y423079D01*
X524463Y423148D01*
X524493Y423213D01*
X524499Y423265D01*
X524514Y423315D01*
X524512Y423386D01*
X524520Y423457D01*
X524509Y423508D01*
X524508Y423560D01*
X524483Y423628D01*
X524468Y423698D01*
X524441Y423743D01*
X524423Y423791D01*
X524378Y423847D01*
X524342Y423909D01*
X524302Y423943D01*
X524270Y423983D01*
X524209Y424022D01*
X524155Y424069D01*
X524106Y424088D01*
X524063Y424116D01*
X523993Y424134D01*
X523927Y424161D01*
X523855Y424169D01*
X523824Y424177D01*
X523801Y424175D01*
X523760Y424179D01*
X487434Y424179D01*
X484633Y425339D01*
X464337Y445636D01*
X464283Y445674D01*
X464237Y445720D01*
X464163Y445761D01*
X464137Y445780D01*
X464118Y445785D01*
X464090Y445801D01*
X463507Y446042D01*
X460332Y449217D01*
X458614Y453365D01*
X458614Y457855D01*
X459046Y458898D01*
X459069Y458993D01*
X459097Y459086D01*
X459096Y459112D01*
X459102Y459137D01*
X459093Y459234D01*
X459091Y459331D01*
X459082Y459356D01*
X459079Y459382D01*
X459040Y459471D01*
X459006Y459562D01*
X458990Y459583D01*
X458979Y459607D01*
X458914Y459678D01*
X458853Y459755D01*
X458831Y459769D01*
X458813Y459788D01*
X458728Y459835D01*
X458646Y459888D01*
X458620Y459894D01*
X458597Y459907D01*
X458501Y459924D01*
X458407Y459948D01*
X458381Y459946D01*
X458355Y459950D01*
X458259Y459936D01*
X458162Y459928D01*
X458138Y459918D01*
X458112Y459914D01*
X458025Y459870D01*
X457936Y459832D01*
X457910Y459812D01*
X457893Y459803D01*
X457870Y459779D01*
X457805Y459727D01*
X456009Y457931D01*
X455956Y457857D01*
X455896Y457788D01*
X455884Y457758D01*
X455865Y457732D01*
X455838Y457645D01*
X455804Y457560D01*
X455800Y457519D01*
X455793Y457497D01*
X455794Y457464D01*
X455786Y457393D01*
X455786Y453365D01*
X454068Y449217D01*
X450893Y446042D01*
X446745Y444324D01*
X442255Y444324D01*
X438107Y446042D01*
X434932Y449217D01*
X433214Y453365D01*
X433214Y457855D01*
X434932Y462003D01*
X438107Y465178D01*
X442255Y466896D01*
X443103Y466896D01*
X443193Y466910D01*
X443284Y466918D01*
X443314Y466930D01*
X443346Y466935D01*
X443427Y466978D01*
X443510Y467014D01*
X443543Y467040D01*
X443563Y467051D01*
X443577Y467065D01*
X443578Y467066D01*
X443589Y467076D01*
X443641Y467119D01*
X452883Y476361D01*
X455684Y477521D01*
X598416Y477521D01*
X601217Y476361D01*
X652552Y425025D01*
X652646Y424958D01*
X652741Y424887D01*
X652747Y424885D01*
X652752Y424882D01*
X652863Y424847D01*
X652975Y424811D01*
X652981Y424811D01*
X652987Y424809D01*
X653104Y424812D01*
X653221Y424813D01*
X653228Y424815D01*
X653233Y424816D01*
X653250Y424822D01*
X653382Y424860D01*
X657874Y426721D01*
X662926Y426721D01*
X667594Y424787D01*
X671167Y421214D01*
X673101Y416546D01*
X673101Y396254D01*
X671167Y391586D01*
X667594Y388013D01*
X662926Y386079D01*
X657874Y386079D01*
X653206Y388013D01*
X649633Y391586D01*
X647699Y396254D01*
X647699Y408008D01*
X647685Y408098D01*
X647677Y408189D01*
X647665Y408219D01*
X647660Y408251D01*
X647617Y408332D01*
X647581Y408415D01*
X647555Y408448D01*
X647544Y408468D01*
X647521Y408490D01*
X647476Y408546D01*
X593966Y462056D01*
X593892Y462109D01*
X593823Y462169D01*
X593793Y462181D01*
X593767Y462200D01*
X593680Y462227D01*
X593595Y462261D01*
X593554Y462265D01*
X593532Y462272D01*
X593499Y462271D01*
X593428Y462279D01*
X480492Y462279D01*
X480447Y462272D01*
X480401Y462274D01*
X480326Y462252D01*
X480250Y462240D01*
X480209Y462218D01*
X480165Y462205D01*
X480101Y462161D01*
X480032Y462124D01*
X480001Y462091D01*
X479963Y462065D01*
X479916Y462002D01*
X479863Y461946D01*
X479844Y461904D01*
X479816Y461868D01*
X479792Y461794D01*
X479759Y461723D01*
X479754Y461677D01*
X479740Y461634D01*
X479741Y461556D01*
X479732Y461479D01*
X479742Y461434D01*
X479742Y461388D01*
X479780Y461256D01*
X479784Y461238D01*
X479787Y461234D01*
X479789Y461227D01*
X481186Y457855D01*
X481186Y453365D01*
X480495Y451697D01*
X480468Y451584D01*
X480440Y451470D01*
X480440Y451464D01*
X480439Y451458D01*
X480450Y451341D01*
X480459Y451225D01*
X480461Y451219D01*
X480462Y451213D01*
X480510Y451105D01*
X480555Y450998D01*
X480560Y450993D01*
X480562Y450988D01*
X480574Y450974D01*
X480660Y450867D01*
X491884Y439644D01*
X491958Y439591D01*
X492027Y439531D01*
X492057Y439519D01*
X492083Y439500D01*
X492170Y439473D01*
X492255Y439439D01*
X492296Y439435D01*
X492318Y439428D01*
X492351Y439429D01*
X492422Y439421D01*
X573016Y439421D01*
X575817Y438261D01*
X589052Y425025D01*
X589146Y424958D01*
X589241Y424887D01*
X589247Y424885D01*
X589252Y424882D01*
X589363Y424847D01*
X589475Y424811D01*
X589481Y424811D01*
X589487Y424809D01*
X589604Y424812D01*
X589721Y424813D01*
X589728Y424815D01*
X589733Y424816D01*
X589750Y424822D01*
X589882Y424860D01*
X594374Y426721D01*
X599426Y426721D01*
X604094Y424787D01*
X607667Y421214D01*
X609601Y416546D01*
X609601Y396254D01*
X607667Y391586D01*
X604094Y388013D01*
X599426Y386079D01*
X594374Y386079D01*
X589706Y388013D01*
X586133Y391586D01*
X584199Y396254D01*
X584199Y408008D01*
X584185Y408098D01*
X584177Y408189D01*
X584165Y408219D01*
X584160Y408251D01*
X584117Y408332D01*
X584081Y408415D01*
X584055Y408448D01*
X584044Y408468D01*
X584021Y408490D01*
X583976Y408546D01*
X568566Y423956D01*
X568492Y424009D01*
X568423Y424069D01*
X568393Y424081D01*
X568367Y424100D01*
X568280Y424127D01*
X568195Y424161D01*
X568154Y424165D01*
X568132Y424172D01*
X568099Y424171D01*
X568028Y424179D01*
X543040Y424179D01*
X542969Y424168D01*
X542898Y424166D01*
X542849Y424148D01*
X542797Y424140D01*
X542734Y424106D01*
X542667Y424081D01*
X542626Y424049D01*
X542580Y424024D01*
X542531Y423972D01*
X542475Y423928D01*
X542446Y423884D01*
X542411Y423846D01*
X542380Y423781D01*
X542342Y423721D01*
X542329Y423670D01*
X542307Y423623D01*
X542299Y423552D01*
X542282Y423482D01*
X542286Y423430D01*
X542280Y423379D01*
X542295Y423308D01*
X542301Y423237D01*
X542321Y423189D01*
X542332Y423138D01*
X542369Y423077D01*
X542397Y423011D01*
X542442Y422955D01*
X542458Y422927D01*
X542476Y422912D01*
X542502Y422880D01*
X544167Y421214D01*
X546101Y416546D01*
X546101Y396254D01*
X544167Y391586D01*
X540594Y388013D01*
X535926Y386079D01*
X530874Y386079D01*
G37*
%LPD*%
G36*
X73690Y365775D02*
X73690Y365775D01*
X73781Y365783D01*
X73810Y365795D01*
X73842Y365800D01*
X73923Y365843D01*
X74007Y365879D01*
X74039Y365905D01*
X74060Y365916D01*
X74082Y365939D01*
X74138Y365984D01*
X81304Y373150D01*
X81316Y373166D01*
X81331Y373178D01*
X81387Y373266D01*
X81448Y373350D01*
X81454Y373369D01*
X81464Y373385D01*
X81490Y373486D01*
X81520Y373585D01*
X81520Y373605D01*
X81524Y373624D01*
X81516Y373727D01*
X81514Y373831D01*
X81507Y373849D01*
X81505Y373869D01*
X81465Y373964D01*
X81429Y374062D01*
X81417Y374077D01*
X81409Y374095D01*
X81304Y374226D01*
X80179Y375351D01*
X22938Y432592D01*
X22864Y432645D01*
X22795Y432705D01*
X22765Y432717D01*
X22739Y432736D01*
X22652Y432763D01*
X22567Y432797D01*
X22526Y432801D01*
X22503Y432808D01*
X22471Y432807D01*
X22400Y432815D01*
X16472Y432815D01*
X12177Y434594D01*
X11460Y435311D01*
X11402Y435353D01*
X11350Y435402D01*
X11303Y435424D01*
X11261Y435455D01*
X11192Y435476D01*
X11127Y435506D01*
X11075Y435512D01*
X11025Y435527D01*
X10954Y435525D01*
X10883Y435533D01*
X10832Y435522D01*
X10780Y435521D01*
X10712Y435496D01*
X10642Y435481D01*
X10597Y435454D01*
X10549Y435436D01*
X10493Y435391D01*
X10431Y435355D01*
X10397Y435315D01*
X10357Y435282D01*
X10318Y435222D01*
X10271Y435168D01*
X10252Y435119D01*
X10224Y435076D01*
X10206Y435006D01*
X10179Y434939D01*
X10171Y434868D01*
X10163Y434837D01*
X10165Y434814D01*
X10161Y434773D01*
X10161Y389518D01*
X10163Y389506D01*
X10161Y389494D01*
X10182Y389385D01*
X10200Y389275D01*
X10206Y389264D01*
X10208Y389253D01*
X10264Y389156D01*
X10316Y389058D01*
X10324Y389049D01*
X10330Y389039D01*
X10413Y388965D01*
X10494Y388888D01*
X10505Y388883D01*
X10514Y388875D01*
X10616Y388831D01*
X10717Y388785D01*
X10729Y388783D01*
X10740Y388778D01*
X10851Y388770D01*
X10961Y388757D01*
X10973Y388760D01*
X10985Y388759D01*
X11093Y388786D01*
X11202Y388810D01*
X11212Y388816D01*
X11224Y388819D01*
X11369Y388902D01*
X12455Y389690D01*
X13880Y390416D01*
X15401Y390911D01*
X16980Y391161D01*
X23877Y391161D01*
X23877Y381762D01*
X23880Y381742D01*
X23878Y381723D01*
X23900Y381621D01*
X23917Y381519D01*
X23926Y381502D01*
X23930Y381482D01*
X23983Y381393D01*
X24032Y381302D01*
X24046Y381288D01*
X24056Y381271D01*
X24135Y381204D01*
X24210Y381133D01*
X24228Y381124D01*
X24243Y381111D01*
X24339Y381073D01*
X24433Y381029D01*
X24453Y381027D01*
X24471Y381019D01*
X24638Y381001D01*
X25401Y381001D01*
X25401Y380999D01*
X24638Y380999D01*
X24618Y380996D01*
X24599Y380998D01*
X24497Y380976D01*
X24395Y380959D01*
X24378Y380950D01*
X24358Y380946D01*
X24269Y380893D01*
X24178Y380844D01*
X24164Y380830D01*
X24147Y380820D01*
X24080Y380741D01*
X24009Y380666D01*
X24000Y380648D01*
X23987Y380633D01*
X23948Y380537D01*
X23905Y380443D01*
X23903Y380423D01*
X23895Y380405D01*
X23877Y380238D01*
X23877Y370839D01*
X16980Y370839D01*
X15401Y371089D01*
X13880Y371584D01*
X12455Y372310D01*
X11369Y373098D01*
X11359Y373104D01*
X11350Y373112D01*
X11249Y373159D01*
X11150Y373209D01*
X11138Y373210D01*
X11127Y373215D01*
X11016Y373228D01*
X10906Y373243D01*
X10894Y373241D01*
X10883Y373243D01*
X10774Y373219D01*
X10664Y373199D01*
X10654Y373193D01*
X10642Y373190D01*
X10546Y373133D01*
X10449Y373079D01*
X10441Y373070D01*
X10431Y373064D01*
X10359Y372979D01*
X10284Y372897D01*
X10279Y372886D01*
X10271Y372877D01*
X10229Y372774D01*
X10185Y372672D01*
X10184Y372660D01*
X10179Y372649D01*
X10161Y372482D01*
X10161Y367330D01*
X10168Y367285D01*
X10166Y367239D01*
X10188Y367164D01*
X10200Y367088D01*
X10222Y367047D01*
X10235Y367003D01*
X10279Y366939D01*
X10316Y366870D01*
X10349Y366839D01*
X10375Y366801D01*
X10438Y366755D01*
X10494Y366701D01*
X10536Y366682D01*
X10572Y366654D01*
X10646Y366630D01*
X10717Y366597D01*
X10763Y366592D01*
X10806Y366578D01*
X10884Y366579D01*
X10961Y366570D01*
X11006Y366580D01*
X11052Y366580D01*
X11184Y366619D01*
X11202Y366622D01*
X11206Y366625D01*
X11213Y366627D01*
X15254Y368301D01*
X35546Y368301D01*
X40214Y366367D01*
X40598Y365984D01*
X40672Y365931D01*
X40741Y365871D01*
X40771Y365859D01*
X40798Y365840D01*
X40885Y365813D01*
X40969Y365779D01*
X41010Y365775D01*
X41033Y365768D01*
X41065Y365769D01*
X41136Y365761D01*
X73600Y365761D01*
X73690Y365775D01*
G37*
%LPC*%
G36*
X467374Y386079D02*
X467374Y386079D01*
X462706Y388013D01*
X459133Y391586D01*
X457199Y396254D01*
X457199Y401658D01*
X457185Y401748D01*
X457177Y401839D01*
X457165Y401869D01*
X457160Y401901D01*
X457117Y401982D01*
X457081Y402065D01*
X457055Y402098D01*
X457044Y402118D01*
X457021Y402140D01*
X456976Y402196D01*
X414890Y444282D01*
X413537Y445636D01*
X413483Y445674D01*
X413436Y445720D01*
X413364Y445760D01*
X413337Y445780D01*
X413318Y445785D01*
X413290Y445801D01*
X412707Y446042D01*
X409532Y449217D01*
X407814Y453365D01*
X407814Y457855D01*
X409532Y462003D01*
X412707Y465178D01*
X416855Y466896D01*
X421345Y466896D01*
X425493Y465178D01*
X428668Y462003D01*
X430386Y457855D01*
X430386Y453365D01*
X429695Y451697D01*
X429668Y451584D01*
X429640Y451470D01*
X429640Y451464D01*
X429639Y451458D01*
X429650Y451341D01*
X429659Y451225D01*
X429661Y451219D01*
X429662Y451213D01*
X429710Y451105D01*
X429755Y450998D01*
X429760Y450993D01*
X429762Y450988D01*
X429774Y450974D01*
X429860Y450867D01*
X458785Y421943D01*
X458801Y421931D01*
X458813Y421916D01*
X458901Y421859D01*
X458984Y421799D01*
X459003Y421793D01*
X459020Y421783D01*
X459121Y421757D01*
X459219Y421727D01*
X459239Y421727D01*
X459259Y421722D01*
X459362Y421730D01*
X459465Y421733D01*
X459484Y421740D01*
X459504Y421742D01*
X459599Y421782D01*
X459696Y421818D01*
X459712Y421830D01*
X459730Y421838D01*
X459861Y421943D01*
X462706Y424787D01*
X467374Y426721D01*
X472426Y426721D01*
X477094Y424787D01*
X480667Y421214D01*
X482601Y416546D01*
X482601Y396254D01*
X480667Y391586D01*
X477094Y388013D01*
X472426Y386079D01*
X467374Y386079D01*
G37*
%LPD*%
%LPC*%
G36*
X76265Y566622D02*
X76265Y566622D01*
X67938Y570072D01*
X61564Y576446D01*
X58114Y584773D01*
X58114Y593787D01*
X61564Y602114D01*
X67938Y608488D01*
X76265Y611938D01*
X85279Y611938D01*
X93606Y608488D01*
X99980Y602114D01*
X103430Y593787D01*
X103430Y584773D01*
X99980Y576446D01*
X93606Y570072D01*
X85279Y566622D01*
X76265Y566622D01*
G37*
%LPD*%
%LPC*%
G36*
X378608Y27812D02*
X378608Y27812D01*
X373450Y29949D01*
X369502Y33897D01*
X367366Y39055D01*
X367366Y62545D01*
X369502Y67703D01*
X373450Y71651D01*
X378608Y73788D01*
X384192Y73788D01*
X389350Y71651D01*
X393298Y67703D01*
X395434Y62545D01*
X395434Y39055D01*
X393298Y33897D01*
X389350Y29949D01*
X384192Y27812D01*
X378608Y27812D01*
G37*
%LPD*%
%LPC*%
G36*
X428608Y27812D02*
X428608Y27812D01*
X423450Y29949D01*
X419502Y33897D01*
X417366Y39055D01*
X417366Y62545D01*
X419502Y67703D01*
X423450Y71651D01*
X428608Y73788D01*
X434192Y73788D01*
X439350Y71651D01*
X443298Y67703D01*
X445434Y62545D01*
X445434Y39055D01*
X443298Y33897D01*
X439350Y29949D01*
X434192Y27812D01*
X428608Y27812D01*
G37*
%LPD*%
%LPC*%
G36*
X518308Y27812D02*
X518308Y27812D01*
X513150Y29949D01*
X509202Y33897D01*
X507066Y39055D01*
X507066Y62545D01*
X509202Y67703D01*
X513150Y71651D01*
X518308Y73788D01*
X523892Y73788D01*
X529050Y71651D01*
X532998Y67703D01*
X535134Y62545D01*
X535134Y39055D01*
X532998Y33897D01*
X529050Y29949D01*
X523892Y27812D01*
X518308Y27812D01*
G37*
%LPD*%
%LPC*%
G36*
X568308Y27812D02*
X568308Y27812D01*
X563150Y29949D01*
X559202Y33897D01*
X557066Y39055D01*
X557066Y62545D01*
X559202Y67703D01*
X563150Y71651D01*
X568308Y73788D01*
X573892Y73788D01*
X579050Y71651D01*
X582998Y67703D01*
X585134Y62545D01*
X585134Y39055D01*
X582998Y33897D01*
X579050Y29949D01*
X573892Y27812D01*
X568308Y27812D01*
G37*
%LPD*%
%LPC*%
G36*
X619908Y27812D02*
X619908Y27812D01*
X614750Y29949D01*
X610802Y33897D01*
X608666Y39055D01*
X608666Y62545D01*
X610802Y67703D01*
X614750Y71651D01*
X619908Y73788D01*
X625492Y73788D01*
X630650Y71651D01*
X634598Y67703D01*
X636734Y62545D01*
X636734Y39055D01*
X634598Y33897D01*
X630650Y29949D01*
X625492Y27812D01*
X619908Y27812D01*
G37*
%LPD*%
%LPC*%
G36*
X327008Y27812D02*
X327008Y27812D01*
X321850Y29949D01*
X317902Y33897D01*
X315766Y39055D01*
X315766Y62545D01*
X317902Y67703D01*
X321850Y71651D01*
X327008Y73788D01*
X332592Y73788D01*
X337750Y71651D01*
X341698Y67703D01*
X343834Y62545D01*
X343834Y39055D01*
X341698Y33897D01*
X337750Y29949D01*
X332592Y27812D01*
X327008Y27812D01*
G37*
%LPD*%
%LPC*%
G36*
X669908Y27812D02*
X669908Y27812D01*
X664750Y29949D01*
X660802Y33897D01*
X658666Y39055D01*
X658666Y62545D01*
X660802Y67703D01*
X664750Y71651D01*
X669908Y73788D01*
X675492Y73788D01*
X680650Y71651D01*
X684598Y67703D01*
X686734Y62545D01*
X686734Y39055D01*
X684598Y33897D01*
X680650Y29949D01*
X675492Y27812D01*
X669908Y27812D01*
G37*
%LPD*%
%LPC*%
G36*
X277008Y27812D02*
X277008Y27812D01*
X271850Y29949D01*
X267902Y33897D01*
X265766Y39055D01*
X265766Y62545D01*
X267902Y67703D01*
X271850Y71651D01*
X277008Y73788D01*
X282592Y73788D01*
X287750Y71651D01*
X291698Y67703D01*
X293834Y62545D01*
X293834Y39055D01*
X291698Y33897D01*
X287750Y29949D01*
X282592Y27812D01*
X277008Y27812D01*
G37*
%LPD*%
%LPC*%
G36*
X187308Y27812D02*
X187308Y27812D01*
X182150Y29949D01*
X178202Y33897D01*
X176066Y39055D01*
X176066Y62545D01*
X178202Y67703D01*
X182150Y71651D01*
X187308Y73788D01*
X192892Y73788D01*
X198050Y71651D01*
X201998Y67703D01*
X204134Y62545D01*
X204134Y39055D01*
X201998Y33897D01*
X198050Y29949D01*
X192892Y27812D01*
X187308Y27812D01*
G37*
%LPD*%
%LPC*%
G36*
X137308Y27812D02*
X137308Y27812D01*
X132150Y29949D01*
X128202Y33897D01*
X126066Y39055D01*
X126066Y62545D01*
X128202Y67703D01*
X132150Y71651D01*
X137308Y73788D01*
X142892Y73788D01*
X148050Y71651D01*
X151998Y67703D01*
X154134Y62545D01*
X154134Y39055D01*
X151998Y33897D01*
X148050Y29949D01*
X142892Y27812D01*
X137308Y27812D01*
G37*
%LPD*%
%LPC*%
G36*
X85708Y27812D02*
X85708Y27812D01*
X80550Y29949D01*
X76602Y33897D01*
X74466Y39055D01*
X74466Y62545D01*
X76602Y67703D01*
X80550Y71651D01*
X85708Y73788D01*
X91292Y73788D01*
X96450Y71651D01*
X100398Y67703D01*
X102534Y62545D01*
X102534Y39055D01*
X100398Y33897D01*
X96450Y29949D01*
X91292Y27812D01*
X85708Y27812D01*
G37*
%LPD*%
%LPC*%
G36*
X35708Y27812D02*
X35708Y27812D01*
X30550Y29949D01*
X26602Y33897D01*
X24466Y39055D01*
X24466Y62545D01*
X26602Y67703D01*
X30550Y71651D01*
X35708Y73788D01*
X41292Y73788D01*
X46450Y71651D01*
X50398Y67703D01*
X52534Y62545D01*
X52534Y39055D01*
X50398Y33897D01*
X46450Y29949D01*
X41292Y27812D01*
X35708Y27812D01*
G37*
%LPD*%
%LPC*%
G36*
X403874Y259079D02*
X403874Y259079D01*
X399206Y261013D01*
X395633Y264586D01*
X393699Y269254D01*
X393699Y289546D01*
X395633Y294214D01*
X399206Y297787D01*
X403874Y299721D01*
X408926Y299721D01*
X413594Y297787D01*
X417167Y294214D01*
X419101Y289546D01*
X419101Y269254D01*
X417167Y264586D01*
X413594Y261013D01*
X408926Y259079D01*
X403874Y259079D01*
G37*
%LPD*%
%LPC*%
G36*
X340374Y259079D02*
X340374Y259079D01*
X335706Y261013D01*
X332133Y264586D01*
X330199Y269254D01*
X330199Y289546D01*
X332133Y294214D01*
X335706Y297787D01*
X340374Y299721D01*
X345426Y299721D01*
X350094Y297787D01*
X353667Y294214D01*
X355601Y289546D01*
X355601Y269254D01*
X353667Y264586D01*
X350094Y261013D01*
X345426Y259079D01*
X340374Y259079D01*
G37*
%LPD*%
%LPC*%
G36*
X657874Y259079D02*
X657874Y259079D01*
X653206Y261013D01*
X649633Y264586D01*
X647699Y269254D01*
X647699Y289546D01*
X649633Y294214D01*
X653206Y297787D01*
X657874Y299721D01*
X662926Y299721D01*
X667594Y297787D01*
X671167Y294214D01*
X673101Y289546D01*
X673101Y269254D01*
X671167Y264586D01*
X667594Y261013D01*
X662926Y259079D01*
X657874Y259079D01*
G37*
%LPD*%
%LPC*%
G36*
X594374Y259079D02*
X594374Y259079D01*
X589706Y261013D01*
X586133Y264586D01*
X584199Y269254D01*
X584199Y289546D01*
X586133Y294214D01*
X589706Y297787D01*
X594374Y299721D01*
X599426Y299721D01*
X604094Y297787D01*
X607667Y294214D01*
X609601Y289546D01*
X609601Y269254D01*
X607667Y264586D01*
X604094Y261013D01*
X599426Y259079D01*
X594374Y259079D01*
G37*
%LPD*%
%LPC*%
G36*
X16755Y216979D02*
X16755Y216979D01*
X13779Y219955D01*
X13779Y237245D01*
X16755Y240221D01*
X34045Y240221D01*
X37021Y237245D01*
X37021Y219955D01*
X34045Y216979D01*
X16755Y216979D01*
G37*
%LPD*%
%LPC*%
G36*
X258055Y115379D02*
X258055Y115379D01*
X255079Y118355D01*
X255079Y135645D01*
X258055Y138621D01*
X275345Y138621D01*
X278321Y135645D01*
X278321Y118355D01*
X275345Y115379D01*
X258055Y115379D01*
G37*
%LPD*%
%LPC*%
G36*
X16755Y115379D02*
X16755Y115379D01*
X13779Y118355D01*
X13779Y135645D01*
X16755Y138621D01*
X34045Y138621D01*
X37021Y135645D01*
X37021Y118355D01*
X34045Y115379D01*
X16755Y115379D01*
G37*
%LPD*%
%LPC*%
G36*
X683488Y216979D02*
X683488Y216979D01*
X679217Y218748D01*
X675948Y222017D01*
X674179Y226288D01*
X674179Y230912D01*
X675948Y235183D01*
X679217Y238452D01*
X683488Y240221D01*
X688112Y240221D01*
X692383Y238452D01*
X695652Y235183D01*
X697421Y230912D01*
X697421Y226288D01*
X695652Y222017D01*
X692383Y218748D01*
X688112Y216979D01*
X683488Y216979D01*
G37*
%LPD*%
%LPC*%
G36*
X556488Y115379D02*
X556488Y115379D01*
X552217Y117148D01*
X548948Y120417D01*
X547179Y124688D01*
X547179Y129312D01*
X548948Y133583D01*
X552217Y136852D01*
X556488Y138621D01*
X561112Y138621D01*
X565383Y136852D01*
X568652Y133583D01*
X570421Y129312D01*
X570421Y124688D01*
X568652Y120417D01*
X565383Y117148D01*
X561112Y115379D01*
X556488Y115379D01*
G37*
%LPD*%
%LPC*%
G36*
X200888Y115379D02*
X200888Y115379D01*
X196617Y117148D01*
X193348Y120417D01*
X191579Y124688D01*
X191579Y129312D01*
X193348Y133583D01*
X196617Y136852D01*
X200888Y138621D01*
X205512Y138621D01*
X209783Y136852D01*
X213052Y133583D01*
X214821Y129312D01*
X214821Y124688D01*
X213052Y120417D01*
X209783Y117148D01*
X205512Y115379D01*
X200888Y115379D01*
G37*
%LPD*%
%LPC*%
G36*
X175488Y115379D02*
X175488Y115379D01*
X171217Y117148D01*
X167948Y120417D01*
X166179Y124688D01*
X166179Y129312D01*
X167948Y133583D01*
X171217Y136852D01*
X175488Y138621D01*
X180112Y138621D01*
X184383Y136852D01*
X187652Y133583D01*
X189421Y129312D01*
X189421Y124688D01*
X187652Y120417D01*
X184383Y117148D01*
X180112Y115379D01*
X175488Y115379D01*
G37*
%LPD*%
%LPC*%
G36*
X150088Y115379D02*
X150088Y115379D01*
X145817Y117148D01*
X142548Y120417D01*
X140779Y124688D01*
X140779Y129312D01*
X142548Y133583D01*
X145817Y136852D01*
X150088Y138621D01*
X154712Y138621D01*
X158983Y136852D01*
X162252Y133583D01*
X164021Y129312D01*
X164021Y124688D01*
X162252Y120417D01*
X158983Y117148D01*
X154712Y115379D01*
X150088Y115379D01*
G37*
%LPD*%
%LPC*%
G36*
X124688Y115379D02*
X124688Y115379D01*
X120417Y117148D01*
X117148Y120417D01*
X115379Y124688D01*
X115379Y129312D01*
X117148Y133583D01*
X120417Y136852D01*
X124688Y138621D01*
X129312Y138621D01*
X133583Y136852D01*
X136852Y133583D01*
X138621Y129312D01*
X138621Y124688D01*
X136852Y120417D01*
X133583Y117148D01*
X129312Y115379D01*
X124688Y115379D01*
G37*
%LPD*%
%LPC*%
G36*
X99288Y115379D02*
X99288Y115379D01*
X95017Y117148D01*
X91748Y120417D01*
X89979Y124688D01*
X89979Y129312D01*
X91748Y133583D01*
X95017Y136852D01*
X99288Y138621D01*
X103912Y138621D01*
X108183Y136852D01*
X111452Y133583D01*
X113221Y129312D01*
X113221Y124688D01*
X111452Y120417D01*
X108183Y117148D01*
X103912Y115379D01*
X99288Y115379D01*
G37*
%LPD*%
%LPC*%
G36*
X48488Y216979D02*
X48488Y216979D01*
X44217Y218748D01*
X40948Y222017D01*
X39179Y226288D01*
X39179Y230912D01*
X40948Y235183D01*
X44217Y238452D01*
X48488Y240221D01*
X53112Y240221D01*
X57383Y238452D01*
X60652Y235183D01*
X62421Y230912D01*
X62421Y226288D01*
X60652Y222017D01*
X57383Y218748D01*
X53112Y216979D01*
X48488Y216979D01*
G37*
%LPD*%
%LPC*%
G36*
X73888Y115379D02*
X73888Y115379D01*
X69617Y117148D01*
X66348Y120417D01*
X64579Y124688D01*
X64579Y129312D01*
X66348Y133583D01*
X69617Y136852D01*
X73888Y138621D01*
X78512Y138621D01*
X82783Y136852D01*
X86052Y133583D01*
X87821Y129312D01*
X87821Y124688D01*
X86052Y120417D01*
X82783Y117148D01*
X78512Y115379D01*
X73888Y115379D01*
G37*
%LPD*%
%LPC*%
G36*
X48488Y115379D02*
X48488Y115379D01*
X44217Y117148D01*
X40948Y120417D01*
X39179Y124688D01*
X39179Y129312D01*
X40948Y133583D01*
X44217Y136852D01*
X48488Y138621D01*
X53112Y138621D01*
X57383Y136852D01*
X60652Y133583D01*
X62421Y129312D01*
X62421Y124688D01*
X60652Y120417D01*
X57383Y117148D01*
X53112Y115379D01*
X48488Y115379D01*
G37*
%LPD*%
%LPC*%
G36*
X683488Y115379D02*
X683488Y115379D01*
X679217Y117148D01*
X675948Y120417D01*
X674179Y124688D01*
X674179Y129312D01*
X675948Y133583D01*
X679217Y136852D01*
X683488Y138621D01*
X688112Y138621D01*
X692383Y136852D01*
X695652Y133583D01*
X697421Y129312D01*
X697421Y124688D01*
X695652Y120417D01*
X692383Y117148D01*
X688112Y115379D01*
X683488Y115379D01*
G37*
%LPD*%
%LPC*%
G36*
X658088Y115379D02*
X658088Y115379D01*
X653817Y117148D01*
X650548Y120417D01*
X648779Y124688D01*
X648779Y129312D01*
X650548Y133583D01*
X653817Y136852D01*
X658088Y138621D01*
X662712Y138621D01*
X666983Y136852D01*
X670252Y133583D01*
X672021Y129312D01*
X672021Y124688D01*
X670252Y120417D01*
X666983Y117148D01*
X662712Y115379D01*
X658088Y115379D01*
G37*
%LPD*%
%LPC*%
G36*
X632688Y115379D02*
X632688Y115379D01*
X628417Y117148D01*
X625148Y120417D01*
X623379Y124688D01*
X623379Y129312D01*
X625148Y133583D01*
X628417Y136852D01*
X632688Y138621D01*
X637312Y138621D01*
X641583Y136852D01*
X644852Y133583D01*
X646621Y129312D01*
X646621Y124688D01*
X644852Y120417D01*
X641583Y117148D01*
X637312Y115379D01*
X632688Y115379D01*
G37*
%LPD*%
%LPC*%
G36*
X607288Y115379D02*
X607288Y115379D01*
X603017Y117148D01*
X599748Y120417D01*
X597979Y124688D01*
X597979Y129312D01*
X599748Y133583D01*
X603017Y136852D01*
X607288Y138621D01*
X611912Y138621D01*
X616183Y136852D01*
X619452Y133583D01*
X621221Y129312D01*
X621221Y124688D01*
X619452Y120417D01*
X616183Y117148D01*
X611912Y115379D01*
X607288Y115379D01*
G37*
%LPD*%
%LPC*%
G36*
X581888Y115379D02*
X581888Y115379D01*
X577617Y117148D01*
X574348Y120417D01*
X572579Y124688D01*
X572579Y129312D01*
X574348Y133583D01*
X577617Y136852D01*
X581888Y138621D01*
X586512Y138621D01*
X590783Y136852D01*
X594052Y133583D01*
X595821Y129312D01*
X595821Y124688D01*
X594052Y120417D01*
X590783Y117148D01*
X586512Y115379D01*
X581888Y115379D01*
G37*
%LPD*%
%LPC*%
G36*
X366055Y444324D02*
X366055Y444324D01*
X361907Y446042D01*
X358732Y449217D01*
X357014Y453365D01*
X357014Y457855D01*
X358732Y462003D01*
X361907Y465178D01*
X366055Y466896D01*
X370545Y466896D01*
X374693Y465178D01*
X377868Y462003D01*
X379586Y457855D01*
X379586Y453365D01*
X377868Y449217D01*
X374693Y446042D01*
X370545Y444324D01*
X366055Y444324D01*
G37*
%LPD*%
%LPC*%
G36*
X137455Y523704D02*
X137455Y523704D01*
X133307Y525422D01*
X130132Y528597D01*
X128414Y532745D01*
X128414Y537235D01*
X130132Y541383D01*
X133307Y544558D01*
X137455Y546276D01*
X141945Y546276D01*
X146093Y544558D01*
X149268Y541383D01*
X150986Y537235D01*
X150986Y532745D01*
X149268Y528597D01*
X146093Y525422D01*
X141945Y523704D01*
X137455Y523704D01*
G37*
%LPD*%
%LPC*%
G36*
X239055Y523704D02*
X239055Y523704D01*
X234907Y525422D01*
X231732Y528597D01*
X230014Y532745D01*
X230014Y537235D01*
X231732Y541383D01*
X234907Y544558D01*
X239055Y546276D01*
X243545Y546276D01*
X247693Y544558D01*
X250868Y541383D01*
X252586Y537235D01*
X252586Y532745D01*
X250868Y528597D01*
X247693Y525422D01*
X243545Y523704D01*
X239055Y523704D01*
G37*
%LPD*%
%LPC*%
G36*
X213655Y523704D02*
X213655Y523704D01*
X209507Y525422D01*
X206332Y528597D01*
X204614Y532745D01*
X204614Y537235D01*
X206332Y541383D01*
X209507Y544558D01*
X213655Y546276D01*
X218145Y546276D01*
X222293Y544558D01*
X225468Y541383D01*
X227186Y537235D01*
X227186Y532745D01*
X225468Y528597D01*
X222293Y525422D01*
X218145Y523704D01*
X213655Y523704D01*
G37*
%LPD*%
%LPC*%
G36*
X162855Y523704D02*
X162855Y523704D01*
X158707Y525422D01*
X155532Y528597D01*
X153814Y532745D01*
X153814Y537235D01*
X155532Y541383D01*
X158707Y544558D01*
X162855Y546276D01*
X167345Y546276D01*
X171493Y544558D01*
X174668Y541383D01*
X176386Y537235D01*
X176386Y532745D01*
X174668Y528597D01*
X171493Y525422D01*
X167345Y523704D01*
X162855Y523704D01*
G37*
%LPD*%
%LPC*%
G36*
X340655Y444324D02*
X340655Y444324D01*
X336507Y446042D01*
X333332Y449217D01*
X331614Y453365D01*
X331614Y457855D01*
X333332Y462003D01*
X336507Y465178D01*
X340655Y466896D01*
X345145Y466896D01*
X349293Y465178D01*
X352468Y462003D01*
X354186Y457855D01*
X354186Y453365D01*
X352468Y449217D01*
X349293Y446042D01*
X345145Y444324D01*
X340655Y444324D01*
G37*
%LPD*%
%LPC*%
G36*
X188255Y523704D02*
X188255Y523704D01*
X184107Y525422D01*
X180932Y528597D01*
X179214Y532745D01*
X179214Y537235D01*
X180932Y541383D01*
X184107Y544558D01*
X188255Y546276D01*
X192745Y546276D01*
X196893Y544558D01*
X200068Y541383D01*
X201786Y537235D01*
X201786Y532745D01*
X200068Y528597D01*
X196893Y525422D01*
X192745Y523704D01*
X188255Y523704D01*
G37*
%LPD*%
%LPC*%
G36*
X26923Y382523D02*
X26923Y382523D01*
X26923Y391161D01*
X33820Y391161D01*
X35399Y390911D01*
X36920Y390416D01*
X38345Y389690D01*
X39639Y388750D01*
X40770Y387619D01*
X41710Y386325D01*
X42436Y384900D01*
X42931Y383379D01*
X43066Y382523D01*
X26923Y382523D01*
G37*
%LPD*%
%LPC*%
G36*
X677532Y508253D02*
X677532Y508253D01*
X677667Y509109D01*
X678162Y510630D01*
X678888Y512055D01*
X679828Y513349D01*
X680959Y514480D01*
X682253Y515420D01*
X683678Y516146D01*
X685199Y516641D01*
X686778Y516891D01*
X693675Y516891D01*
X693675Y508253D01*
X677532Y508253D01*
G37*
%LPD*%
%LPC*%
G36*
X26923Y370839D02*
X26923Y370839D01*
X26923Y379477D01*
X43066Y379477D01*
X42931Y378621D01*
X42436Y377100D01*
X41710Y375675D01*
X40770Y374381D01*
X39639Y373250D01*
X38345Y372310D01*
X36920Y371584D01*
X35399Y371089D01*
X33820Y370839D01*
X26923Y370839D01*
G37*
%LPD*%
%LPC*%
G36*
X686778Y496569D02*
X686778Y496569D01*
X685199Y496819D01*
X683678Y497314D01*
X682253Y498040D01*
X680959Y498980D01*
X679828Y500111D01*
X678888Y501405D01*
X678162Y502830D01*
X677667Y504351D01*
X677532Y505207D01*
X693675Y505207D01*
X693675Y496569D01*
X686778Y496569D01*
G37*
%LPD*%
%LPC*%
G36*
X26923Y496823D02*
X26923Y496823D01*
X26923Y504445D01*
X32905Y504445D01*
X34671Y504093D01*
X36336Y503404D01*
X37834Y502403D01*
X39107Y501130D01*
X40108Y499632D01*
X40797Y497967D01*
X41025Y496823D01*
X26923Y496823D01*
G37*
%LPD*%
%LPC*%
G36*
X26923Y522223D02*
X26923Y522223D01*
X26923Y529845D01*
X32905Y529845D01*
X34671Y529493D01*
X36336Y528804D01*
X37834Y527803D01*
X39107Y526530D01*
X40108Y525032D01*
X40797Y523367D01*
X41025Y522223D01*
X26923Y522223D01*
G37*
%LPD*%
%LPC*%
G36*
X26923Y547623D02*
X26923Y547623D01*
X26923Y555245D01*
X32905Y555245D01*
X34671Y554893D01*
X36336Y554204D01*
X37834Y553203D01*
X39107Y551930D01*
X40108Y550432D01*
X40797Y548767D01*
X41025Y547623D01*
X26923Y547623D01*
G37*
%LPD*%
%LPC*%
G36*
X26923Y573023D02*
X26923Y573023D01*
X26923Y580645D01*
X32905Y580645D01*
X34671Y580293D01*
X36336Y579604D01*
X37834Y578603D01*
X39107Y577330D01*
X40108Y575832D01*
X40797Y574167D01*
X41025Y573023D01*
X26923Y573023D01*
G37*
%LPD*%
%LPC*%
G36*
X420623Y608077D02*
X420623Y608077D01*
X428245Y608077D01*
X428245Y602095D01*
X427893Y600329D01*
X427204Y598664D01*
X426203Y597166D01*
X424930Y595893D01*
X423432Y594892D01*
X421767Y594203D01*
X420623Y593975D01*
X420623Y608077D01*
G37*
%LPD*%
%LPC*%
G36*
X26923Y536955D02*
X26923Y536955D01*
X26923Y544577D01*
X41025Y544577D01*
X40797Y543433D01*
X40108Y541768D01*
X39107Y540270D01*
X37834Y538997D01*
X36336Y537996D01*
X34671Y537307D01*
X32905Y536955D01*
X26923Y536955D01*
G37*
%LPD*%
%LPC*%
G36*
X26923Y486155D02*
X26923Y486155D01*
X26923Y493777D01*
X41025Y493777D01*
X40797Y492633D01*
X40108Y490968D01*
X39107Y489470D01*
X37834Y488197D01*
X36336Y487196D01*
X34671Y486507D01*
X32905Y486155D01*
X26923Y486155D01*
G37*
%LPD*%
%LPC*%
G36*
X26923Y511555D02*
X26923Y511555D01*
X26923Y519177D01*
X41025Y519177D01*
X40797Y518033D01*
X40108Y516368D01*
X39107Y514870D01*
X37834Y513597D01*
X36336Y512596D01*
X34671Y511907D01*
X32905Y511555D01*
X26923Y511555D01*
G37*
%LPD*%
%LPC*%
G36*
X26923Y562355D02*
X26923Y562355D01*
X26923Y569977D01*
X41025Y569977D01*
X40797Y568833D01*
X40108Y567168D01*
X39107Y565670D01*
X37834Y564397D01*
X36336Y563396D01*
X34671Y562707D01*
X32905Y562355D01*
X26923Y562355D01*
G37*
%LPD*%
%LPC*%
G36*
X416433Y594203D02*
X416433Y594203D01*
X414768Y594892D01*
X413270Y595893D01*
X411997Y597166D01*
X410996Y598664D01*
X410307Y600329D01*
X409955Y602095D01*
X409955Y608077D01*
X417577Y608077D01*
X417577Y593975D01*
X416433Y594203D01*
G37*
%LPD*%
%LPC*%
G36*
X700023Y598423D02*
X700023Y598423D01*
X700023Y607442D01*
X702867Y607442D01*
X709042Y601267D01*
X709042Y598423D01*
X700023Y598423D01*
G37*
%LPD*%
%LPC*%
G36*
X687958Y598423D02*
X687958Y598423D01*
X687958Y601267D01*
X694133Y607442D01*
X696977Y607442D01*
X696977Y598423D01*
X687958Y598423D01*
G37*
%LPD*%
%LPC*%
G36*
X700023Y586358D02*
X700023Y586358D01*
X700023Y595377D01*
X709042Y595377D01*
X709042Y592533D01*
X702867Y586358D01*
X700023Y586358D01*
G37*
%LPD*%
%LPC*%
G36*
X319023Y560958D02*
X319023Y560958D01*
X319023Y569977D01*
X328042Y569977D01*
X328042Y567133D01*
X321867Y560958D01*
X319023Y560958D01*
G37*
%LPD*%
%LPC*%
G36*
X694133Y586358D02*
X694133Y586358D01*
X687958Y592533D01*
X687958Y595377D01*
X696977Y595377D01*
X696977Y586358D01*
X694133Y586358D01*
G37*
%LPD*%
%LPC*%
G36*
X313133Y560958D02*
X313133Y560958D01*
X306958Y567133D01*
X306958Y569977D01*
X315977Y569977D01*
X315977Y560958D01*
X313133Y560958D01*
G37*
%LPD*%
%LPC*%
G36*
X90423Y534923D02*
X90423Y534923D01*
X90423Y542545D01*
X92688Y542545D01*
X98045Y537188D01*
X98045Y534923D01*
X90423Y534923D01*
G37*
%LPD*%
%LPC*%
G36*
X79755Y534923D02*
X79755Y534923D01*
X79755Y537188D01*
X85112Y542545D01*
X87377Y542545D01*
X87377Y534923D01*
X79755Y534923D01*
G37*
%LPD*%
%LPC*%
G36*
X90423Y524255D02*
X90423Y524255D01*
X90423Y531877D01*
X98045Y531877D01*
X98045Y529612D01*
X92688Y524255D01*
X90423Y524255D01*
G37*
%LPD*%
%LPC*%
G36*
X85112Y524255D02*
X85112Y524255D01*
X79755Y529612D01*
X79755Y531877D01*
X87377Y531877D01*
X87377Y524255D01*
X85112Y524255D01*
G37*
%LPD*%
%LPC*%
G36*
X293623Y536513D02*
X293623Y536513D01*
X293623Y543604D01*
X294651Y543400D01*
X296243Y542740D01*
X297675Y541783D01*
X298893Y540565D01*
X299850Y539133D01*
X300510Y537541D01*
X300714Y536513D01*
X293623Y536513D01*
G37*
%LPD*%
%LPC*%
G36*
X319023Y457133D02*
X319023Y457133D01*
X319023Y464224D01*
X320051Y464020D01*
X321643Y463360D01*
X323075Y462403D01*
X324293Y461185D01*
X325250Y459753D01*
X325910Y458161D01*
X326114Y457133D01*
X319023Y457133D01*
G37*
%LPD*%
%LPC*%
G36*
X319023Y454087D02*
X319023Y454087D01*
X326114Y454087D01*
X325910Y453059D01*
X325250Y451467D01*
X324665Y450591D01*
X324293Y450035D01*
X323075Y448817D01*
X321643Y447860D01*
X320051Y447200D01*
X319023Y446996D01*
X319023Y454087D01*
G37*
%LPD*%
%LPC*%
G36*
X283486Y536513D02*
X283486Y536513D01*
X283690Y537541D01*
X284350Y539133D01*
X285307Y540565D01*
X286525Y541783D01*
X287957Y542740D01*
X289549Y543400D01*
X290577Y543604D01*
X290577Y536513D01*
X283486Y536513D01*
G37*
%LPD*%
%LPC*%
G36*
X293623Y533467D02*
X293623Y533467D01*
X300714Y533467D01*
X300510Y532439D01*
X299850Y530847D01*
X298893Y529415D01*
X297675Y528197D01*
X296243Y527240D01*
X294651Y526580D01*
X293623Y526376D01*
X293623Y533467D01*
G37*
%LPD*%
%LPC*%
G36*
X308886Y457133D02*
X308886Y457133D01*
X309090Y458161D01*
X309750Y459753D01*
X310707Y461185D01*
X311925Y462403D01*
X313357Y463360D01*
X314949Y464020D01*
X315977Y464224D01*
X315977Y457133D01*
X308886Y457133D01*
G37*
%LPD*%
%LPC*%
G36*
X314949Y447200D02*
X314949Y447200D01*
X313357Y447860D01*
X311925Y448817D01*
X310707Y450035D01*
X309750Y451467D01*
X309090Y453059D01*
X308886Y454087D01*
X315977Y454087D01*
X315977Y446996D01*
X314949Y447200D01*
G37*
%LPD*%
%LPC*%
G36*
X289549Y526580D02*
X289549Y526580D01*
X287957Y527240D01*
X286525Y528197D01*
X285307Y529415D01*
X284350Y530847D01*
X283690Y532439D01*
X283486Y533467D01*
X290577Y533467D01*
X290577Y526376D01*
X289549Y526580D01*
G37*
%LPD*%
%LPC*%
G36*
X292099Y534989D02*
X292099Y534989D01*
X292099Y534991D01*
X292101Y534991D01*
X292101Y534989D01*
X292099Y534989D01*
G37*
%LPD*%
%LPC*%
G36*
X88899Y533399D02*
X88899Y533399D01*
X88899Y533401D01*
X88901Y533401D01*
X88901Y533399D01*
X88899Y533399D01*
G37*
%LPD*%
%LPC*%
G36*
X698499Y596899D02*
X698499Y596899D01*
X698499Y596901D01*
X698501Y596901D01*
X698501Y596899D01*
X698499Y596899D01*
G37*
%LPD*%
%LPC*%
G36*
X317499Y455609D02*
X317499Y455609D01*
X317499Y455611D01*
X317501Y455611D01*
X317501Y455609D01*
X317499Y455609D01*
G37*
%LPD*%
D10*
X508000Y127000D03*
X508000Y228600D03*
D11*
X533400Y127000D03*
X533400Y228600D03*
X558800Y127000D03*
X558800Y228600D03*
X584200Y127000D03*
X584200Y228600D03*
X609600Y127000D03*
X609600Y228600D03*
X635000Y127000D03*
X635000Y228600D03*
X660400Y127000D03*
X660400Y228600D03*
X685800Y127000D03*
X685800Y228600D03*
D10*
X266700Y127000D03*
X266700Y228600D03*
D11*
X292100Y127000D03*
X292100Y228600D03*
X317500Y127000D03*
X317500Y228600D03*
X342900Y127000D03*
X342900Y228600D03*
X368300Y127000D03*
X368300Y228600D03*
X393700Y127000D03*
X393700Y228600D03*
X419100Y127000D03*
X419100Y228600D03*
X444500Y127000D03*
X444500Y228600D03*
D10*
X25400Y127000D03*
X25400Y228600D03*
D11*
X50800Y127000D03*
X50800Y228600D03*
X76200Y127000D03*
X76200Y228600D03*
X101600Y127000D03*
X101600Y228600D03*
X127000Y127000D03*
X127000Y228600D03*
X152400Y127000D03*
X152400Y228600D03*
X177800Y127000D03*
X177800Y228600D03*
X203200Y127000D03*
X203200Y228600D03*
D12*
X139700Y355600D03*
D13*
X88900Y355600D03*
D14*
X698500Y622300D03*
X698500Y596900D03*
D15*
X317500Y571500D03*
X292100Y571500D03*
D16*
X533400Y287020D02*
X533400Y271780D01*
X533400Y398780D02*
X533400Y414020D01*
X596900Y287020D02*
X596900Y271780D01*
X596900Y398780D02*
X596900Y414020D01*
X342900Y287020D02*
X342900Y271780D01*
X342900Y398780D02*
X342900Y414020D01*
X660400Y287020D02*
X660400Y271780D01*
X660400Y398780D02*
X660400Y414020D01*
X469900Y287020D02*
X469900Y271780D01*
X469900Y398780D02*
X469900Y414020D01*
X406400Y287020D02*
X406400Y271780D01*
X406400Y398780D02*
X406400Y414020D01*
X215900Y287020D02*
X215900Y271780D01*
X215900Y398780D02*
X215900Y414020D01*
X279400Y287020D02*
X279400Y271780D01*
X279400Y398780D02*
X279400Y414020D01*
D17*
X419100Y602996D02*
X419100Y616204D01*
X393700Y616204D02*
X393700Y602996D01*
X368300Y602996D02*
X368300Y616204D01*
X342900Y616204D02*
X342900Y602996D01*
X317500Y602996D02*
X317500Y616204D01*
X292100Y616204D02*
X292100Y602996D01*
X266700Y602996D02*
X266700Y616204D01*
X241300Y616204D02*
X241300Y602996D01*
X215900Y602996D02*
X215900Y616204D01*
X190500Y616204D02*
X190500Y602996D01*
X165100Y602996D02*
X165100Y616204D01*
X139700Y616204D02*
X139700Y602996D01*
D18*
X139700Y455610D03*
D19*
X165100Y455610D03*
X190500Y455610D03*
X215900Y455610D03*
X241300Y455610D03*
X266700Y455610D03*
X292100Y455610D03*
X317500Y455610D03*
X342900Y455610D03*
X368300Y455610D03*
X393700Y455610D03*
X419100Y455610D03*
X444500Y455610D03*
X469900Y455610D03*
X469900Y534990D03*
X444500Y534990D03*
X419100Y534990D03*
X393700Y534990D03*
X368300Y534990D03*
X342900Y534990D03*
X317500Y534990D03*
X292100Y534990D03*
X266700Y534990D03*
X241300Y534990D03*
X215900Y534990D03*
X190500Y534990D03*
X165100Y534990D03*
X139700Y534990D03*
D17*
X32004Y622300D02*
X18796Y622300D01*
X18796Y596900D02*
X32004Y596900D01*
X32004Y571500D02*
X18796Y571500D01*
X18796Y546100D02*
X32004Y546100D01*
X32004Y520700D02*
X18796Y520700D01*
X18796Y495300D02*
X32004Y495300D01*
X32004Y469900D02*
X18796Y469900D01*
X18796Y444500D02*
X32004Y444500D01*
D16*
X33020Y330200D02*
X17780Y330200D01*
X17780Y355600D02*
X33020Y355600D01*
X33020Y381000D02*
X17780Y381000D01*
D20*
X76200Y279400D03*
X152400Y279400D03*
D21*
X88900Y457200D03*
X88900Y533400D03*
D22*
X622700Y59754D02*
X622700Y41847D01*
X672700Y41847D02*
X672700Y59754D01*
X521100Y59754D02*
X521100Y41847D01*
X571100Y41847D02*
X571100Y59754D01*
X279800Y59754D02*
X279800Y41847D01*
X329800Y41847D02*
X329800Y59754D01*
X381400Y59754D02*
X381400Y41847D01*
X431400Y41847D02*
X431400Y59754D01*
X38500Y59754D02*
X38500Y41847D01*
X88500Y41847D02*
X88500Y59754D01*
X140100Y59754D02*
X140100Y41847D01*
X190100Y41847D02*
X190100Y59754D01*
D16*
X687578Y506730D02*
X702818Y506730D01*
X702818Y481330D02*
X687578Y481330D01*
X687578Y455930D02*
X702818Y455930D01*
X702818Y430530D02*
X687578Y430530D01*
X687578Y405130D02*
X702818Y405130D01*
D23*
X88900Y533400D02*
X76200Y546100D01*
X25400Y546100D01*
X254000Y495300D02*
X292100Y533400D01*
X254000Y495300D02*
X25400Y495300D01*
X292100Y533400D02*
X292100Y534990D01*
X673100Y571500D02*
X698500Y596900D01*
X419100Y571500D02*
X317500Y571500D01*
X419100Y571500D02*
X673100Y571500D01*
X419100Y571500D02*
X419100Y609600D01*
D24*
X177800Y228600D02*
X196850Y209550D01*
X400050Y209550D01*
X419100Y228600D01*
X641350Y209550D02*
X660400Y228600D01*
X641350Y209550D02*
X400050Y209550D01*
X558800Y228600D02*
X571500Y241300D01*
X622300Y241300D01*
X635000Y228600D01*
X88900Y215900D02*
X76200Y228600D01*
X88900Y215900D02*
X139700Y215900D01*
X152400Y228600D01*
X317500Y228600D02*
X330200Y241300D01*
X381000Y241300D01*
X393700Y228600D01*
X431800Y241300D02*
X444500Y254000D01*
X469900Y279400D01*
X431800Y241300D02*
X381000Y241300D01*
X171450Y247650D02*
X152400Y228600D01*
X171450Y247650D02*
X298450Y247650D01*
X317500Y228600D01*
X533400Y254000D02*
X558800Y228600D01*
X533400Y254000D02*
X444500Y254000D01*
D23*
X88900Y355600D02*
X76200Y355600D01*
X25400Y355600D01*
X76200Y355600D02*
X76200Y279400D01*
X88900Y381000D02*
X25400Y444500D01*
X88900Y381000D02*
X114300Y381000D01*
X139700Y355600D01*
X533400Y127000D02*
X533400Y107950D01*
X311150Y107950D01*
X292100Y127000D01*
D24*
X127000Y228600D02*
X203200Y304800D01*
X254000Y304800D01*
X279400Y279400D01*
X184150Y431800D02*
X165100Y450850D01*
X184150Y431800D02*
X247650Y431800D01*
X273050Y406400D01*
X279400Y406400D01*
X165100Y450850D02*
X165100Y455610D01*
X419100Y450850D02*
X463550Y406400D01*
X469900Y406400D01*
X419100Y450850D02*
X419100Y455610D01*
X393700Y450850D02*
X349250Y406400D01*
X342900Y406400D01*
X393700Y450850D02*
X393700Y455610D01*
X342900Y406400D02*
X311150Y438150D01*
X292100Y438150D01*
X279400Y450850D01*
X279400Y469900D01*
X101600Y469900D01*
X88900Y457200D01*
X342900Y508000D02*
X349250Y514350D01*
X342900Y508000D02*
X292100Y457200D01*
X349250Y514350D02*
X349250Y533400D01*
X342900Y533400D01*
X292100Y457200D02*
X292100Y455610D01*
X342900Y533400D02*
X342900Y534990D01*
X31750Y628650D02*
X25400Y622300D01*
X31750Y628650D02*
X273050Y628650D01*
X279400Y622300D01*
X279400Y571500D01*
X292100Y571500D01*
X609600Y508000D02*
X654050Y552450D01*
X609600Y508000D02*
X342900Y508000D01*
D25*
X654050Y552450D03*
D24*
X266700Y534990D02*
X266700Y609600D01*
X311150Y590550D02*
X355600Y590550D01*
X311150Y590550D02*
X292100Y609600D01*
D25*
X355600Y590550D03*
D24*
X426720Y633730D02*
X469900Y590550D01*
X426720Y633730D02*
X367030Y633730D01*
X342900Y609600D01*
D25*
X469900Y590550D03*
D24*
X330200Y552450D02*
X317500Y539750D01*
X330200Y552450D02*
X368300Y552450D01*
X317500Y539750D02*
X317500Y534990D01*
D25*
X368300Y552450D03*
D24*
X469900Y450850D02*
X488950Y431800D01*
X571500Y431800D01*
X596900Y406400D01*
X469900Y450850D02*
X469900Y455610D01*
X457200Y469900D02*
X444500Y457200D01*
X457200Y469900D02*
X596900Y469900D01*
X660400Y406400D01*
X444500Y455610D02*
X444500Y457200D01*
X260350Y431800D02*
X241300Y450850D01*
X260350Y431800D02*
X285750Y431800D01*
X336550Y381000D01*
X381000Y381000D01*
X406400Y406400D01*
X241300Y450850D02*
X241300Y455610D01*
X419100Y533400D02*
X431800Y520700D01*
X514350Y520700D01*
X419100Y533400D02*
X419100Y534990D01*
D25*
X514350Y520700D03*
D24*
X406400Y552450D02*
X393700Y539750D01*
X406400Y552450D02*
X514350Y552450D01*
X393700Y539750D02*
X393700Y534990D01*
D25*
X514350Y552450D03*
D26*
X654304Y634492D03*
M02*
