G04 EAGLE Gerber RS-274X export*
G75*
%MOMM*%
%FSLAX34Y34*%
%LPD*%
%INTop Copper*%
%IPPOS*%
%AMOC8*
5,1,8,0,0,1.08239X$1,22.5*%
G01*
%ADD10R,1.308000X1.308000*%
%ADD11C,1.308000*%
%ADD12C,2.540000*%
%ADD13P,2.749271X8X202.500000*%
%ADD14P,1.732040X8X292.500000*%
%ADD15P,1.732040X8X202.500000*%
%ADD16C,1.524000*%
%ADD17C,1.320800*%
%ADD18R,1.241000X1.241000*%
%ADD19C,1.241000*%
%ADD20P,1.429621X8X22.500000*%
%ADD21P,1.429621X8X112.500000*%
%ADD22R,1.270000X2.540000*%
%ADD23C,1.790700*%
%ADD24C,0.508000*%
%ADD25C,1.016000*%
%ADD26C,0.914400*%
%ADD27R,1.206400X1.206400*%

G36*
X710714Y10164D02*
X710714Y10164D01*
X710733Y10162D01*
X710835Y10184D01*
X710937Y10200D01*
X710954Y10210D01*
X710974Y10214D01*
X711063Y10267D01*
X711154Y10316D01*
X711168Y10330D01*
X711185Y10340D01*
X711252Y10419D01*
X711324Y10494D01*
X711332Y10512D01*
X711345Y10527D01*
X711384Y10623D01*
X711427Y10717D01*
X711429Y10737D01*
X711437Y10755D01*
X711455Y10922D01*
X711455Y257884D01*
X711448Y257929D01*
X711450Y257975D01*
X711428Y258050D01*
X711416Y258126D01*
X711394Y258167D01*
X711381Y258211D01*
X711337Y258275D01*
X711300Y258344D01*
X711267Y258375D01*
X711241Y258413D01*
X711179Y258460D01*
X711122Y258513D01*
X711080Y258533D01*
X711044Y258560D01*
X710970Y258584D01*
X710899Y258617D01*
X710853Y258622D01*
X710810Y258636D01*
X710732Y258635D01*
X710655Y258644D01*
X710610Y258634D01*
X710564Y258634D01*
X710432Y258596D01*
X710414Y258592D01*
X710410Y258589D01*
X710403Y258587D01*
X706563Y256996D01*
X697549Y256996D01*
X689222Y260446D01*
X682848Y266820D01*
X679398Y275147D01*
X679398Y284161D01*
X682848Y292488D01*
X689222Y298862D01*
X697549Y302312D01*
X706563Y302312D01*
X710403Y300721D01*
X710447Y300711D01*
X710489Y300691D01*
X710566Y300683D01*
X710642Y300665D01*
X710688Y300669D01*
X710733Y300664D01*
X710810Y300681D01*
X710887Y300688D01*
X710929Y300707D01*
X710974Y300716D01*
X711041Y300756D01*
X711112Y300788D01*
X711146Y300819D01*
X711185Y300843D01*
X711236Y300902D01*
X711293Y300954D01*
X711315Y300995D01*
X711345Y301029D01*
X711374Y301102D01*
X711411Y301170D01*
X711420Y301215D01*
X711437Y301258D01*
X711452Y301394D01*
X711455Y301412D01*
X711454Y301417D01*
X711455Y301424D01*
X711455Y393968D01*
X711444Y394039D01*
X711442Y394110D01*
X711424Y394159D01*
X711416Y394211D01*
X711382Y394274D01*
X711357Y394341D01*
X711325Y394382D01*
X711300Y394428D01*
X711249Y394477D01*
X711204Y394533D01*
X711160Y394562D01*
X711122Y394597D01*
X711057Y394628D01*
X710997Y394666D01*
X710946Y394679D01*
X710899Y394701D01*
X710828Y394709D01*
X710758Y394726D01*
X710706Y394722D01*
X710655Y394728D01*
X710584Y394713D01*
X710513Y394707D01*
X710465Y394687D01*
X710414Y394676D01*
X710353Y394639D01*
X710287Y394611D01*
X710231Y394566D01*
X710203Y394550D01*
X710188Y394532D01*
X710156Y394506D01*
X710012Y394363D01*
X705344Y392429D01*
X685052Y392429D01*
X680384Y394363D01*
X676811Y397936D01*
X674877Y402604D01*
X674877Y407656D01*
X676811Y412324D01*
X680384Y415897D01*
X683352Y417127D01*
X683413Y417165D01*
X683478Y417194D01*
X683517Y417229D01*
X683561Y417256D01*
X683607Y417312D01*
X683660Y417360D01*
X683685Y417406D01*
X683718Y417446D01*
X683744Y417513D01*
X683778Y417576D01*
X683787Y417627D01*
X683806Y417675D01*
X683809Y417747D01*
X683822Y417818D01*
X683814Y417869D01*
X683816Y417921D01*
X683796Y417990D01*
X683786Y418061D01*
X683762Y418107D01*
X683748Y418157D01*
X683707Y418216D01*
X683675Y418280D01*
X683637Y418317D01*
X683608Y418359D01*
X683550Y418402D01*
X683499Y418452D01*
X683436Y418487D01*
X683410Y418506D01*
X683388Y418513D01*
X683352Y418533D01*
X680384Y419763D01*
X676811Y423336D01*
X674877Y428004D01*
X674877Y433056D01*
X676811Y437724D01*
X680384Y441297D01*
X683352Y442527D01*
X683413Y442565D01*
X683478Y442594D01*
X683517Y442629D01*
X683561Y442656D01*
X683607Y442712D01*
X683660Y442760D01*
X683685Y442806D01*
X683718Y442846D01*
X683744Y442913D01*
X683778Y442976D01*
X683787Y443027D01*
X683806Y443075D01*
X683809Y443147D01*
X683822Y443218D01*
X683814Y443269D01*
X683816Y443321D01*
X683796Y443390D01*
X683786Y443461D01*
X683762Y443507D01*
X683748Y443557D01*
X683707Y443616D01*
X683675Y443680D01*
X683637Y443717D01*
X683608Y443759D01*
X683550Y443802D01*
X683499Y443852D01*
X683436Y443887D01*
X683410Y443906D01*
X683388Y443913D01*
X683352Y443933D01*
X680384Y445163D01*
X676811Y448736D01*
X674877Y453404D01*
X674877Y458456D01*
X676811Y463124D01*
X680384Y466697D01*
X683352Y467927D01*
X683413Y467965D01*
X683478Y467994D01*
X683517Y468029D01*
X683561Y468056D01*
X683607Y468112D01*
X683660Y468160D01*
X683685Y468206D01*
X683718Y468246D01*
X683744Y468313D01*
X683778Y468376D01*
X683787Y468427D01*
X683806Y468475D01*
X683809Y468547D01*
X683822Y468618D01*
X683814Y468669D01*
X683816Y468721D01*
X683796Y468790D01*
X683786Y468861D01*
X683762Y468907D01*
X683748Y468957D01*
X683707Y469016D01*
X683675Y469080D01*
X683637Y469117D01*
X683608Y469159D01*
X683550Y469202D01*
X683499Y469252D01*
X683436Y469287D01*
X683410Y469306D01*
X683388Y469313D01*
X683352Y469333D01*
X680384Y470563D01*
X676811Y474136D01*
X674877Y478804D01*
X674877Y483856D01*
X676811Y488524D01*
X680384Y492097D01*
X685052Y494031D01*
X705344Y494031D01*
X710012Y492097D01*
X710156Y491954D01*
X710214Y491912D01*
X710266Y491863D01*
X710313Y491841D01*
X710355Y491810D01*
X710424Y491789D01*
X710489Y491759D01*
X710541Y491753D01*
X710591Y491738D01*
X710662Y491740D01*
X710733Y491732D01*
X710784Y491743D01*
X710836Y491744D01*
X710904Y491769D01*
X710974Y491784D01*
X711019Y491811D01*
X711067Y491829D01*
X711123Y491874D01*
X711185Y491910D01*
X711219Y491950D01*
X711259Y491982D01*
X711298Y492043D01*
X711345Y492097D01*
X711364Y492146D01*
X711392Y492189D01*
X711410Y492259D01*
X711437Y492325D01*
X711445Y492397D01*
X711453Y492428D01*
X711451Y492451D01*
X711455Y492492D01*
X711455Y499160D01*
X711444Y499231D01*
X711442Y499302D01*
X711424Y499351D01*
X711416Y499403D01*
X711382Y499466D01*
X711357Y499533D01*
X711325Y499574D01*
X711300Y499620D01*
X711248Y499669D01*
X711204Y499725D01*
X711160Y499754D01*
X711122Y499790D01*
X711057Y499820D01*
X710997Y499858D01*
X710946Y499871D01*
X710899Y499893D01*
X710828Y499901D01*
X710758Y499919D01*
X710706Y499914D01*
X710655Y499920D01*
X710584Y499905D01*
X710513Y499899D01*
X710465Y499879D01*
X710414Y499868D01*
X710353Y499831D01*
X710287Y499803D01*
X710231Y499758D01*
X710203Y499742D01*
X710188Y499724D01*
X710156Y499698D01*
X709437Y498980D01*
X708143Y498040D01*
X706718Y497314D01*
X705197Y496819D01*
X703618Y496569D01*
X696721Y496569D01*
X696721Y505968D01*
X696718Y505988D01*
X696720Y506007D01*
X696698Y506109D01*
X696681Y506211D01*
X696672Y506228D01*
X696668Y506248D01*
X696615Y506337D01*
X696566Y506428D01*
X696552Y506442D01*
X696542Y506459D01*
X696463Y506526D01*
X696388Y506597D01*
X696370Y506606D01*
X696355Y506619D01*
X696259Y506657D01*
X696165Y506701D01*
X696145Y506703D01*
X696127Y506711D01*
X695960Y506729D01*
X695197Y506729D01*
X695197Y506731D01*
X695960Y506731D01*
X695980Y506734D01*
X695999Y506732D01*
X696101Y506754D01*
X696203Y506771D01*
X696220Y506780D01*
X696240Y506784D01*
X696329Y506837D01*
X696420Y506886D01*
X696434Y506900D01*
X696451Y506910D01*
X696518Y506989D01*
X696589Y507064D01*
X696598Y507082D01*
X696611Y507097D01*
X696650Y507193D01*
X696693Y507287D01*
X696695Y507307D01*
X696703Y507325D01*
X696721Y507492D01*
X696721Y516891D01*
X703618Y516891D01*
X705197Y516641D01*
X706718Y516146D01*
X708143Y515420D01*
X709437Y514480D01*
X710156Y513762D01*
X710214Y513720D01*
X710266Y513670D01*
X710313Y513649D01*
X710355Y513618D01*
X710424Y513597D01*
X710489Y513567D01*
X710541Y513561D01*
X710591Y513546D01*
X710662Y513548D01*
X710733Y513540D01*
X710784Y513551D01*
X710836Y513552D01*
X710904Y513577D01*
X710974Y513592D01*
X711019Y513619D01*
X711067Y513637D01*
X711123Y513681D01*
X711185Y513718D01*
X711219Y513758D01*
X711259Y513790D01*
X711298Y513851D01*
X711345Y513905D01*
X711364Y513953D01*
X711392Y513997D01*
X711410Y514067D01*
X711437Y514133D01*
X711445Y514205D01*
X711453Y514236D01*
X711451Y514259D01*
X711455Y514300D01*
X711455Y614917D01*
X711444Y614988D01*
X711442Y615060D01*
X711424Y615109D01*
X711416Y615160D01*
X711382Y615223D01*
X711357Y615291D01*
X711325Y615331D01*
X711300Y615377D01*
X711248Y615427D01*
X711204Y615483D01*
X711160Y615511D01*
X711122Y615547D01*
X711057Y615577D01*
X710997Y615616D01*
X710946Y615628D01*
X710899Y615650D01*
X710828Y615658D01*
X710758Y615676D01*
X710706Y615672D01*
X710655Y615677D01*
X710584Y615662D01*
X710513Y615657D01*
X710465Y615636D01*
X710414Y615625D01*
X710353Y615588D01*
X710287Y615560D01*
X710231Y615515D01*
X710203Y615499D01*
X710188Y615481D01*
X710156Y615455D01*
X703919Y609218D01*
X696511Y609218D01*
X696421Y609204D01*
X696330Y609196D01*
X696300Y609184D01*
X696268Y609179D01*
X696188Y609136D01*
X696104Y609100D01*
X696071Y609074D01*
X696051Y609063D01*
X696029Y609040D01*
X695973Y608995D01*
X695719Y608741D01*
X695677Y608683D01*
X695627Y608631D01*
X695605Y608584D01*
X695575Y608542D01*
X695554Y608473D01*
X695524Y608408D01*
X695518Y608356D01*
X695503Y608306D01*
X695505Y608235D01*
X695497Y608164D01*
X695508Y608113D01*
X695509Y608061D01*
X695534Y607993D01*
X695549Y607923D01*
X695576Y607878D01*
X695593Y607830D01*
X695638Y607774D01*
X695675Y607712D01*
X695715Y607678D01*
X695747Y607638D01*
X695807Y607599D01*
X695862Y607552D01*
X695910Y607533D01*
X695954Y607505D01*
X696024Y607487D01*
X696090Y607460D01*
X696161Y607452D01*
X696193Y607444D01*
X696216Y607446D01*
X696257Y607442D01*
X696977Y607442D01*
X696977Y597662D01*
X696980Y597642D01*
X696978Y597623D01*
X697000Y597521D01*
X697017Y597419D01*
X697026Y597402D01*
X697030Y597382D01*
X697083Y597293D01*
X697132Y597202D01*
X697146Y597188D01*
X697156Y597171D01*
X697235Y597104D01*
X697310Y597033D01*
X697328Y597024D01*
X697343Y597011D01*
X697439Y596973D01*
X697533Y596929D01*
X697553Y596927D01*
X697571Y596919D01*
X697738Y596901D01*
X698501Y596901D01*
X698501Y596899D01*
X697738Y596899D01*
X697718Y596896D01*
X697699Y596898D01*
X697597Y596876D01*
X697495Y596859D01*
X697478Y596850D01*
X697458Y596846D01*
X697369Y596793D01*
X697278Y596744D01*
X697264Y596730D01*
X697247Y596720D01*
X697180Y596641D01*
X697109Y596566D01*
X697100Y596548D01*
X697087Y596533D01*
X697048Y596437D01*
X697005Y596343D01*
X697003Y596323D01*
X696995Y596305D01*
X696977Y596138D01*
X696977Y586358D01*
X694133Y586358D01*
X688370Y592122D01*
X688312Y592163D01*
X688260Y592213D01*
X688213Y592235D01*
X688171Y592265D01*
X688102Y592286D01*
X688037Y592316D01*
X687985Y592322D01*
X687935Y592337D01*
X687864Y592336D01*
X687793Y592343D01*
X687742Y592332D01*
X687690Y592331D01*
X687622Y592306D01*
X687552Y592291D01*
X687507Y592264D01*
X687459Y592247D01*
X687403Y592202D01*
X687341Y592165D01*
X687307Y592125D01*
X687267Y592093D01*
X687228Y592033D01*
X687181Y591978D01*
X687162Y591930D01*
X687134Y591886D01*
X687116Y591817D01*
X687089Y591750D01*
X687081Y591679D01*
X687073Y591647D01*
X687075Y591624D01*
X687071Y591583D01*
X687071Y589034D01*
X685911Y586233D01*
X683767Y584089D01*
X680966Y582929D01*
X662432Y582929D01*
X662412Y582926D01*
X662393Y582928D01*
X662291Y582906D01*
X662189Y582890D01*
X662172Y582880D01*
X662152Y582876D01*
X662063Y582823D01*
X661972Y582774D01*
X661958Y582760D01*
X661941Y582750D01*
X661874Y582671D01*
X661802Y582596D01*
X661794Y582578D01*
X661781Y582563D01*
X661742Y582467D01*
X661699Y582373D01*
X661697Y582353D01*
X661689Y582335D01*
X661671Y582168D01*
X661671Y558796D01*
X661685Y558706D01*
X661693Y558615D01*
X661705Y558585D01*
X661710Y558553D01*
X661753Y558472D01*
X661789Y558388D01*
X661815Y558356D01*
X661826Y558335D01*
X661849Y558313D01*
X661894Y558257D01*
X662233Y557918D01*
X663703Y554370D01*
X663703Y550530D01*
X662233Y546982D01*
X659518Y544267D01*
X655970Y542797D01*
X652130Y542797D01*
X648582Y544267D01*
X645867Y546982D01*
X644397Y550530D01*
X644397Y554370D01*
X645867Y557918D01*
X646206Y558257D01*
X646259Y558331D01*
X646319Y558401D01*
X646331Y558431D01*
X646350Y558457D01*
X646377Y558544D01*
X646411Y558629D01*
X646415Y558670D01*
X646422Y558692D01*
X646421Y558724D01*
X646429Y558796D01*
X646429Y582168D01*
X646426Y582188D01*
X646428Y582207D01*
X646406Y582309D01*
X646390Y582411D01*
X646380Y582428D01*
X646376Y582448D01*
X646323Y582537D01*
X646274Y582628D01*
X646260Y582642D01*
X646250Y582659D01*
X646171Y582726D01*
X646096Y582798D01*
X646078Y582806D01*
X646063Y582819D01*
X645967Y582858D01*
X645873Y582901D01*
X645853Y582903D01*
X645835Y582911D01*
X645668Y582929D01*
X633484Y582929D01*
X630683Y584089D01*
X622189Y592583D01*
X621029Y595384D01*
X621029Y601716D01*
X621026Y601736D01*
X621028Y601755D01*
X621006Y601857D01*
X620990Y601959D01*
X620980Y601976D01*
X620976Y601996D01*
X620923Y602085D01*
X620874Y602176D01*
X620860Y602190D01*
X620850Y602207D01*
X620771Y602274D01*
X620696Y602346D01*
X620678Y602354D01*
X620663Y602367D01*
X620567Y602406D01*
X620473Y602449D01*
X620453Y602451D01*
X620435Y602459D01*
X620268Y602477D01*
X615883Y602477D01*
X615883Y616956D01*
X615880Y616976D01*
X615882Y616995D01*
X615860Y617097D01*
X615843Y617199D01*
X615834Y617216D01*
X615830Y617236D01*
X615777Y617325D01*
X615728Y617416D01*
X615714Y617430D01*
X615704Y617447D01*
X615625Y617514D01*
X615550Y617585D01*
X615532Y617594D01*
X615517Y617607D01*
X615421Y617646D01*
X615327Y617689D01*
X615307Y617691D01*
X615289Y617699D01*
X615122Y617717D01*
X613598Y617717D01*
X613578Y617714D01*
X613559Y617716D01*
X613457Y617694D01*
X613355Y617677D01*
X613338Y617668D01*
X613318Y617664D01*
X613229Y617611D01*
X613138Y617562D01*
X613124Y617548D01*
X613107Y617538D01*
X613040Y617459D01*
X612969Y617384D01*
X612960Y617366D01*
X612947Y617351D01*
X612908Y617255D01*
X612865Y617161D01*
X612863Y617141D01*
X612855Y617123D01*
X612837Y616956D01*
X612837Y602477D01*
X607676Y602477D01*
X607029Y602650D01*
X606583Y602908D01*
X606542Y602924D01*
X606505Y602947D01*
X606428Y602967D01*
X606353Y602995D01*
X606309Y602997D01*
X606267Y603007D01*
X606187Y603001D01*
X606107Y603004D01*
X606065Y602992D01*
X606022Y602988D01*
X605948Y602957D01*
X605871Y602934D01*
X605836Y602909D01*
X605795Y602892D01*
X605682Y602801D01*
X605670Y602793D01*
X605668Y602790D01*
X605664Y602787D01*
X602815Y599937D01*
X585905Y599937D01*
X584898Y600944D01*
X584882Y600956D01*
X584870Y600972D01*
X584782Y601028D01*
X584699Y601088D01*
X584680Y601094D01*
X584663Y601105D01*
X584562Y601130D01*
X584463Y601160D01*
X584444Y601160D01*
X584424Y601165D01*
X584321Y601157D01*
X584218Y601154D01*
X584199Y601147D01*
X584179Y601146D01*
X584084Y601105D01*
X583987Y601070D01*
X583971Y601057D01*
X583953Y601049D01*
X583822Y600944D01*
X582815Y599937D01*
X574875Y599937D01*
X574849Y599933D01*
X574823Y599936D01*
X574728Y599913D01*
X574632Y599898D01*
X574609Y599885D01*
X574584Y599879D01*
X574437Y599799D01*
X572159Y598196D01*
X572137Y598174D01*
X572059Y598112D01*
X523774Y549827D01*
X523736Y549774D01*
X523690Y549727D01*
X523650Y549654D01*
X523631Y549627D01*
X523625Y549609D01*
X523609Y549580D01*
X522533Y546982D01*
X519818Y544267D01*
X516270Y542797D01*
X512430Y542797D01*
X510323Y543670D01*
X510279Y543680D01*
X510237Y543700D01*
X510160Y543708D01*
X510084Y543726D01*
X510038Y543722D01*
X509993Y543727D01*
X509916Y543710D01*
X509839Y543703D01*
X509797Y543684D01*
X509752Y543675D01*
X509685Y543635D01*
X509614Y543603D01*
X509580Y543572D01*
X509541Y543548D01*
X509490Y543489D01*
X509433Y543437D01*
X509411Y543396D01*
X509381Y543361D01*
X509352Y543289D01*
X509315Y543221D01*
X509306Y543176D01*
X509289Y543133D01*
X509274Y542997D01*
X509271Y542979D01*
X509272Y542974D01*
X509271Y542967D01*
X509271Y530183D01*
X509278Y530138D01*
X509276Y530092D01*
X509298Y530017D01*
X509310Y529941D01*
X509332Y529900D01*
X509345Y529856D01*
X509389Y529792D01*
X509426Y529723D01*
X509459Y529692D01*
X509485Y529654D01*
X509547Y529608D01*
X509604Y529554D01*
X509646Y529535D01*
X509682Y529507D01*
X509756Y529483D01*
X509827Y529450D01*
X509873Y529445D01*
X509916Y529431D01*
X509994Y529432D01*
X510071Y529423D01*
X510116Y529433D01*
X510162Y529433D01*
X510294Y529471D01*
X510312Y529475D01*
X510316Y529478D01*
X510323Y529480D01*
X512430Y530353D01*
X516270Y530353D01*
X519818Y528883D01*
X522533Y526168D01*
X524003Y522620D01*
X524003Y522140D01*
X524017Y522050D01*
X524025Y521959D01*
X524037Y521929D01*
X524042Y521897D01*
X524085Y521816D01*
X524121Y521733D01*
X524147Y521700D01*
X524158Y521680D01*
X524181Y521658D01*
X524226Y521602D01*
X527161Y518667D01*
X528321Y515866D01*
X528321Y476260D01*
X528324Y476240D01*
X528322Y476221D01*
X528344Y476119D01*
X528360Y476017D01*
X528370Y476000D01*
X528374Y475980D01*
X528427Y475891D01*
X528476Y475800D01*
X528490Y475786D01*
X528500Y475769D01*
X528579Y475702D01*
X528654Y475630D01*
X528672Y475622D01*
X528687Y475609D01*
X528783Y475570D01*
X528877Y475527D01*
X528897Y475525D01*
X528915Y475517D01*
X529082Y475499D01*
X542815Y475499D01*
X543822Y474492D01*
X543838Y474480D01*
X543850Y474464D01*
X543938Y474408D01*
X544021Y474348D01*
X544040Y474342D01*
X544057Y474331D01*
X544158Y474306D01*
X544257Y474276D01*
X544276Y474276D01*
X544296Y474271D01*
X544399Y474279D01*
X544502Y474282D01*
X544521Y474289D01*
X544541Y474290D01*
X544636Y474331D01*
X544733Y474366D01*
X544749Y474379D01*
X544767Y474387D01*
X544898Y474492D01*
X545905Y475499D01*
X562815Y475499D01*
X563822Y474492D01*
X563838Y474480D01*
X563850Y474464D01*
X563938Y474408D01*
X564021Y474348D01*
X564040Y474342D01*
X564057Y474331D01*
X564158Y474306D01*
X564257Y474276D01*
X564276Y474276D01*
X564296Y474271D01*
X564399Y474279D01*
X564502Y474282D01*
X564521Y474289D01*
X564541Y474290D01*
X564636Y474331D01*
X564733Y474366D01*
X564749Y474379D01*
X564767Y474387D01*
X564898Y474492D01*
X565905Y475499D01*
X582815Y475499D01*
X583822Y474492D01*
X583838Y474480D01*
X583850Y474464D01*
X583938Y474408D01*
X584021Y474348D01*
X584040Y474342D01*
X584057Y474331D01*
X584158Y474306D01*
X584257Y474276D01*
X584276Y474276D01*
X584296Y474271D01*
X584399Y474279D01*
X584502Y474282D01*
X584521Y474289D01*
X584541Y474290D01*
X584636Y474331D01*
X584733Y474366D01*
X584749Y474379D01*
X584767Y474387D01*
X584898Y474492D01*
X585905Y475499D01*
X602815Y475499D01*
X603822Y474492D01*
X603838Y474480D01*
X603850Y474464D01*
X603938Y474408D01*
X604021Y474348D01*
X604040Y474342D01*
X604057Y474331D01*
X604158Y474306D01*
X604257Y474276D01*
X604276Y474276D01*
X604296Y474271D01*
X604399Y474279D01*
X604502Y474282D01*
X604521Y474289D01*
X604541Y474290D01*
X604636Y474331D01*
X604733Y474366D01*
X604749Y474379D01*
X604767Y474387D01*
X604898Y474492D01*
X605905Y475499D01*
X622815Y475499D01*
X623822Y474492D01*
X623838Y474480D01*
X623850Y474464D01*
X623938Y474408D01*
X624021Y474348D01*
X624040Y474342D01*
X624057Y474331D01*
X624158Y474306D01*
X624257Y474276D01*
X624276Y474276D01*
X624296Y474271D01*
X624399Y474279D01*
X624502Y474282D01*
X624521Y474289D01*
X624541Y474290D01*
X624636Y474331D01*
X624733Y474366D01*
X624749Y474379D01*
X624767Y474387D01*
X624898Y474492D01*
X625905Y475499D01*
X642815Y475499D01*
X643822Y474492D01*
X643838Y474480D01*
X643850Y474464D01*
X643938Y474408D01*
X644021Y474348D01*
X644040Y474342D01*
X644057Y474331D01*
X644158Y474306D01*
X644257Y474276D01*
X644276Y474276D01*
X644296Y474271D01*
X644399Y474279D01*
X644502Y474282D01*
X644521Y474289D01*
X644541Y474290D01*
X644636Y474331D01*
X644733Y474366D01*
X644749Y474379D01*
X644767Y474387D01*
X644898Y474492D01*
X645905Y475499D01*
X662815Y475499D01*
X665791Y472523D01*
X665791Y442913D01*
X662815Y439937D01*
X645905Y439937D01*
X644898Y440944D01*
X644882Y440956D01*
X644870Y440972D01*
X644782Y441028D01*
X644699Y441088D01*
X644680Y441094D01*
X644663Y441105D01*
X644562Y441130D01*
X644463Y441160D01*
X644444Y441160D01*
X644424Y441165D01*
X644321Y441157D01*
X644218Y441154D01*
X644199Y441147D01*
X644179Y441146D01*
X644084Y441105D01*
X643987Y441070D01*
X643971Y441057D01*
X643953Y441049D01*
X643822Y440944D01*
X642815Y439937D01*
X625905Y439937D01*
X624898Y440944D01*
X624882Y440956D01*
X624870Y440972D01*
X624782Y441028D01*
X624699Y441088D01*
X624680Y441094D01*
X624663Y441105D01*
X624562Y441130D01*
X624463Y441160D01*
X624444Y441160D01*
X624424Y441165D01*
X624321Y441157D01*
X624218Y441154D01*
X624199Y441147D01*
X624179Y441146D01*
X624084Y441105D01*
X623987Y441070D01*
X623971Y441057D01*
X623953Y441049D01*
X623822Y440944D01*
X622815Y439937D01*
X605905Y439937D01*
X604898Y440944D01*
X604882Y440956D01*
X604870Y440972D01*
X604782Y441028D01*
X604699Y441088D01*
X604680Y441094D01*
X604663Y441105D01*
X604562Y441130D01*
X604463Y441160D01*
X604444Y441160D01*
X604424Y441165D01*
X604321Y441157D01*
X604218Y441154D01*
X604199Y441147D01*
X604179Y441146D01*
X604084Y441105D01*
X603987Y441070D01*
X603971Y441057D01*
X603953Y441049D01*
X603822Y440944D01*
X602815Y439937D01*
X585905Y439937D01*
X584898Y440944D01*
X584882Y440956D01*
X584870Y440972D01*
X584782Y441028D01*
X584699Y441088D01*
X584680Y441094D01*
X584663Y441105D01*
X584562Y441130D01*
X584463Y441160D01*
X584444Y441160D01*
X584424Y441165D01*
X584321Y441157D01*
X584218Y441154D01*
X584199Y441147D01*
X584179Y441146D01*
X584084Y441105D01*
X583987Y441070D01*
X583971Y441057D01*
X583953Y441049D01*
X583822Y440944D01*
X582815Y439937D01*
X565905Y439937D01*
X564898Y440944D01*
X564882Y440956D01*
X564870Y440972D01*
X564782Y441028D01*
X564699Y441088D01*
X564680Y441094D01*
X564663Y441105D01*
X564562Y441130D01*
X564463Y441160D01*
X564444Y441160D01*
X564424Y441165D01*
X564321Y441157D01*
X564218Y441154D01*
X564199Y441147D01*
X564179Y441146D01*
X564084Y441105D01*
X563987Y441070D01*
X563971Y441057D01*
X563953Y441049D01*
X563822Y440944D01*
X562815Y439937D01*
X561848Y439937D01*
X561828Y439934D01*
X561809Y439936D01*
X561707Y439914D01*
X561605Y439898D01*
X561588Y439888D01*
X561568Y439884D01*
X561479Y439831D01*
X561388Y439782D01*
X561374Y439768D01*
X561357Y439758D01*
X561290Y439679D01*
X561218Y439604D01*
X561210Y439586D01*
X561197Y439571D01*
X561158Y439475D01*
X561115Y439381D01*
X561113Y439361D01*
X561105Y439343D01*
X561087Y439176D01*
X561087Y366784D01*
X559927Y363983D01*
X557783Y361839D01*
X554982Y360679D01*
X284234Y360679D01*
X281433Y361839D01*
X279182Y364090D01*
X265460Y377812D01*
X265402Y377854D01*
X265350Y377904D01*
X265303Y377926D01*
X265261Y377956D01*
X265192Y377977D01*
X265127Y378007D01*
X265075Y378013D01*
X265025Y378028D01*
X264954Y378026D01*
X264883Y378034D01*
X264832Y378023D01*
X264780Y378022D01*
X264712Y377997D01*
X264642Y377982D01*
X264597Y377955D01*
X264549Y377938D01*
X264493Y377893D01*
X264431Y377856D01*
X264397Y377816D01*
X264357Y377784D01*
X264318Y377724D01*
X264271Y377669D01*
X264252Y377621D01*
X264224Y377577D01*
X264206Y377507D01*
X264179Y377441D01*
X264171Y377370D01*
X264163Y377338D01*
X264165Y377315D01*
X264161Y377274D01*
X264161Y245824D01*
X264175Y245734D01*
X264183Y245643D01*
X264195Y245613D01*
X264200Y245581D01*
X264243Y245501D01*
X264279Y245417D01*
X264305Y245385D01*
X264316Y245364D01*
X264339Y245342D01*
X264384Y245286D01*
X269226Y240444D01*
X269300Y240391D01*
X269369Y240331D01*
X269399Y240319D01*
X269425Y240300D01*
X269512Y240273D01*
X269597Y240239D01*
X269638Y240235D01*
X269661Y240228D01*
X269693Y240229D01*
X269764Y240221D01*
X275345Y240221D01*
X278321Y237245D01*
X278321Y231664D01*
X278323Y231653D01*
X278322Y231645D01*
X278330Y231606D01*
X278335Y231574D01*
X278343Y231483D01*
X278355Y231453D01*
X278360Y231421D01*
X278403Y231341D01*
X278439Y231257D01*
X278465Y231225D01*
X278476Y231204D01*
X278499Y231182D01*
X278544Y231126D01*
X279180Y230490D01*
X279238Y230448D01*
X279290Y230398D01*
X279337Y230376D01*
X279379Y230346D01*
X279448Y230325D01*
X279513Y230295D01*
X279565Y230289D01*
X279615Y230274D01*
X279686Y230276D01*
X279757Y230268D01*
X279808Y230279D01*
X279860Y230280D01*
X279928Y230305D01*
X279998Y230320D01*
X280042Y230347D01*
X280091Y230365D01*
X280147Y230409D01*
X280209Y230446D01*
X280243Y230486D01*
X280283Y230518D01*
X280322Y230579D01*
X280369Y230633D01*
X280388Y230681D01*
X280416Y230725D01*
X280434Y230795D01*
X280461Y230861D01*
X280462Y230869D01*
X282248Y235183D01*
X285517Y238452D01*
X289788Y240221D01*
X294412Y240221D01*
X298683Y238452D01*
X301952Y235183D01*
X303721Y230912D01*
X303721Y226288D01*
X301952Y222017D01*
X298683Y218748D01*
X294335Y216948D01*
X294285Y216940D01*
X294222Y216906D01*
X294155Y216881D01*
X294114Y216849D01*
X294068Y216824D01*
X294019Y216773D01*
X293963Y216728D01*
X293934Y216684D01*
X293898Y216646D01*
X293868Y216581D01*
X293830Y216521D01*
X293817Y216470D01*
X293795Y216423D01*
X293787Y216352D01*
X293769Y216282D01*
X293774Y216230D01*
X293768Y216179D01*
X293783Y216108D01*
X293789Y216037D01*
X293809Y215989D01*
X293820Y215938D01*
X293857Y215877D01*
X293885Y215811D01*
X293930Y215755D01*
X293946Y215727D01*
X293964Y215712D01*
X293990Y215680D01*
X296086Y213584D01*
X296160Y213531D01*
X296229Y213471D01*
X296259Y213459D01*
X296285Y213440D01*
X296372Y213413D01*
X296457Y213379D01*
X296498Y213375D01*
X296521Y213368D01*
X296553Y213369D01*
X296624Y213361D01*
X345524Y213361D01*
X345595Y213372D01*
X345667Y213374D01*
X345716Y213392D01*
X345767Y213400D01*
X345830Y213434D01*
X345898Y213459D01*
X345938Y213491D01*
X345984Y213516D01*
X346034Y213567D01*
X346090Y213612D01*
X346118Y213656D01*
X346154Y213694D01*
X346184Y213759D01*
X346223Y213819D01*
X346235Y213870D01*
X346257Y213917D01*
X346265Y213988D01*
X346283Y214058D01*
X346279Y214110D01*
X346284Y214161D01*
X346269Y214232D01*
X346264Y214303D01*
X346243Y214351D01*
X346232Y214402D01*
X346195Y214463D01*
X346167Y214529D01*
X346122Y214585D01*
X346106Y214613D01*
X346088Y214628D01*
X346062Y214660D01*
X343966Y216756D01*
X343892Y216809D01*
X343823Y216869D01*
X343793Y216881D01*
X343767Y216900D01*
X343680Y216927D01*
X343595Y216961D01*
X343554Y216965D01*
X343532Y216972D01*
X343499Y216971D01*
X343428Y216979D01*
X340588Y216979D01*
X336317Y218748D01*
X333048Y222017D01*
X331279Y226288D01*
X331279Y230912D01*
X333048Y235183D01*
X336317Y238452D01*
X340588Y240221D01*
X345212Y240221D01*
X349483Y238452D01*
X352752Y235183D01*
X354521Y230912D01*
X354521Y228072D01*
X354535Y227982D01*
X354543Y227891D01*
X354555Y227861D01*
X354560Y227829D01*
X354603Y227748D01*
X354639Y227665D01*
X354665Y227632D01*
X354676Y227612D01*
X354699Y227590D01*
X354744Y227534D01*
X355380Y226898D01*
X355438Y226856D01*
X355490Y226806D01*
X355537Y226784D01*
X355579Y226754D01*
X355648Y226733D01*
X355713Y226703D01*
X355765Y226697D01*
X355815Y226682D01*
X355886Y226684D01*
X355957Y226676D01*
X356008Y226687D01*
X356060Y226688D01*
X356128Y226713D01*
X356198Y226728D01*
X356242Y226755D01*
X356291Y226772D01*
X356347Y226817D01*
X356409Y226854D01*
X356443Y226894D01*
X356483Y226926D01*
X356522Y226986D01*
X356569Y227041D01*
X356588Y227089D01*
X356616Y227133D01*
X356634Y227203D01*
X356661Y227269D01*
X356669Y227340D01*
X356677Y227372D01*
X356675Y227395D01*
X356679Y227436D01*
X356679Y230912D01*
X358448Y235183D01*
X361717Y238452D01*
X365988Y240221D01*
X368828Y240221D01*
X368918Y240235D01*
X369009Y240243D01*
X369039Y240255D01*
X369071Y240260D01*
X369152Y240303D01*
X369235Y240339D01*
X369268Y240365D01*
X369288Y240376D01*
X369310Y240399D01*
X369366Y240444D01*
X394651Y265728D01*
X394719Y265823D01*
X394789Y265917D01*
X394791Y265923D01*
X394794Y265928D01*
X394829Y266039D01*
X394865Y266151D01*
X394865Y266157D01*
X394867Y266163D01*
X394864Y266280D01*
X394863Y266397D01*
X394861Y266404D01*
X394860Y266409D01*
X394854Y266426D01*
X394816Y266558D01*
X393699Y269254D01*
X393699Y271800D01*
X393692Y271846D01*
X393694Y271892D01*
X393672Y271966D01*
X393660Y272043D01*
X393638Y272084D01*
X393625Y272128D01*
X393581Y272192D01*
X393544Y272260D01*
X393511Y272292D01*
X393485Y272330D01*
X393422Y272376D01*
X393366Y272430D01*
X393324Y272449D01*
X393288Y272477D01*
X393214Y272501D01*
X393143Y272533D01*
X393097Y272539D01*
X393054Y272553D01*
X392976Y272552D01*
X392899Y272561D01*
X392854Y272551D01*
X392808Y272550D01*
X392676Y272512D01*
X392658Y272508D01*
X392654Y272506D01*
X392647Y272504D01*
X390898Y271779D01*
X356362Y271779D01*
X356342Y271776D01*
X356323Y271778D01*
X356221Y271756D01*
X356119Y271740D01*
X356102Y271730D01*
X356082Y271726D01*
X355993Y271673D01*
X355902Y271624D01*
X355888Y271610D01*
X355871Y271600D01*
X355804Y271521D01*
X355732Y271446D01*
X355724Y271428D01*
X355711Y271413D01*
X355672Y271317D01*
X355629Y271223D01*
X355627Y271203D01*
X355619Y271185D01*
X355601Y271018D01*
X355601Y269254D01*
X353667Y264586D01*
X350094Y261013D01*
X345426Y259079D01*
X340374Y259079D01*
X335706Y261013D01*
X332133Y264586D01*
X330199Y269254D01*
X330199Y289546D01*
X332133Y294214D01*
X335706Y297787D01*
X340374Y299721D01*
X345426Y299721D01*
X350094Y297787D01*
X353667Y294214D01*
X355601Y289546D01*
X355601Y287782D01*
X355604Y287762D01*
X355602Y287743D01*
X355624Y287641D01*
X355640Y287539D01*
X355650Y287522D01*
X355654Y287502D01*
X355707Y287413D01*
X355756Y287322D01*
X355770Y287308D01*
X355780Y287291D01*
X355859Y287224D01*
X355934Y287152D01*
X355952Y287144D01*
X355967Y287131D01*
X356063Y287092D01*
X356157Y287049D01*
X356177Y287047D01*
X356195Y287039D01*
X356362Y287021D01*
X381000Y287021D01*
X381020Y287024D01*
X381039Y287022D01*
X381141Y287044D01*
X381243Y287060D01*
X381260Y287070D01*
X381280Y287074D01*
X381369Y287127D01*
X381460Y287176D01*
X381474Y287190D01*
X381491Y287200D01*
X381558Y287279D01*
X381630Y287354D01*
X381638Y287372D01*
X381651Y287387D01*
X381690Y287483D01*
X381733Y287577D01*
X381735Y287597D01*
X381743Y287615D01*
X381761Y287782D01*
X381761Y295648D01*
X382921Y298449D01*
X393482Y309010D01*
X395733Y311261D01*
X398534Y312421D01*
X424680Y312421D01*
X427481Y311261D01*
X429625Y309117D01*
X430785Y306316D01*
X430785Y231148D01*
X430779Y231134D01*
X430764Y231070D01*
X430739Y231009D01*
X430730Y230926D01*
X430723Y230894D01*
X430724Y230875D01*
X430721Y230842D01*
X430721Y226288D01*
X430010Y224573D01*
X430000Y224529D01*
X429980Y224487D01*
X429972Y224410D01*
X429954Y224334D01*
X429958Y224288D01*
X429953Y224243D01*
X429970Y224166D01*
X429977Y224089D01*
X429996Y224047D01*
X430006Y224002D01*
X430046Y223935D01*
X430077Y223864D01*
X430108Y223830D01*
X430132Y223791D01*
X430191Y223740D01*
X430244Y223683D01*
X430284Y223661D01*
X430319Y223631D01*
X430391Y223602D01*
X430459Y223565D01*
X430504Y223556D01*
X430547Y223539D01*
X430683Y223524D01*
X430701Y223521D01*
X430706Y223522D01*
X430714Y223521D01*
X432886Y223521D01*
X432932Y223528D01*
X432978Y223526D01*
X433052Y223548D01*
X433129Y223560D01*
X433170Y223582D01*
X433214Y223595D01*
X433278Y223639D01*
X433347Y223676D01*
X433378Y223709D01*
X433416Y223735D01*
X433462Y223798D01*
X433516Y223854D01*
X433535Y223896D01*
X433563Y223932D01*
X433587Y224006D01*
X433620Y224077D01*
X433625Y224123D01*
X433639Y224166D01*
X433638Y224244D01*
X433647Y224321D01*
X433637Y224366D01*
X433636Y224412D01*
X433598Y224544D01*
X433594Y224562D01*
X433592Y224566D01*
X433590Y224573D01*
X432879Y226288D01*
X432879Y230912D01*
X434648Y235183D01*
X437917Y238452D01*
X442188Y240221D01*
X446812Y240221D01*
X451083Y238452D01*
X454352Y235183D01*
X456121Y230912D01*
X456121Y226288D01*
X455410Y224573D01*
X455400Y224529D01*
X455380Y224487D01*
X455372Y224410D01*
X455354Y224334D01*
X455358Y224288D01*
X455353Y224243D01*
X455370Y224166D01*
X455377Y224089D01*
X455396Y224047D01*
X455406Y224002D01*
X455446Y223935D01*
X455477Y223864D01*
X455508Y223830D01*
X455532Y223791D01*
X455591Y223740D01*
X455644Y223683D01*
X455684Y223661D01*
X455719Y223631D01*
X455791Y223602D01*
X455859Y223565D01*
X455904Y223556D01*
X455947Y223539D01*
X456083Y223524D01*
X456101Y223521D01*
X456106Y223522D01*
X456114Y223521D01*
X480568Y223521D01*
X480588Y223524D01*
X480607Y223522D01*
X480709Y223544D01*
X480811Y223560D01*
X480828Y223570D01*
X480848Y223574D01*
X480937Y223627D01*
X481028Y223676D01*
X481042Y223690D01*
X481059Y223700D01*
X481126Y223779D01*
X481198Y223854D01*
X481206Y223872D01*
X481219Y223887D01*
X481258Y223983D01*
X481301Y224077D01*
X481303Y224097D01*
X481311Y224115D01*
X481329Y224282D01*
X481329Y236466D01*
X482489Y239267D01*
X520476Y277254D01*
X520529Y277328D01*
X520589Y277397D01*
X520601Y277427D01*
X520620Y277453D01*
X520647Y277540D01*
X520681Y277625D01*
X520685Y277666D01*
X520692Y277688D01*
X520691Y277721D01*
X520699Y277792D01*
X520699Y289546D01*
X522633Y294214D01*
X526206Y297787D01*
X530874Y299721D01*
X535926Y299721D01*
X540594Y297787D01*
X544167Y294214D01*
X546101Y289546D01*
X546101Y269254D01*
X544167Y264586D01*
X540594Y261013D01*
X535926Y259079D01*
X530874Y259079D01*
X526382Y260940D01*
X526268Y260967D01*
X526155Y260995D01*
X526148Y260995D01*
X526142Y260996D01*
X526026Y260985D01*
X525909Y260976D01*
X525904Y260974D01*
X525897Y260973D01*
X525790Y260925D01*
X525683Y260880D01*
X525677Y260875D01*
X525673Y260873D01*
X525659Y260860D01*
X525552Y260775D01*
X506298Y241520D01*
X506256Y241462D01*
X506206Y241410D01*
X506184Y241363D01*
X506154Y241321D01*
X506133Y241252D01*
X506103Y241187D01*
X506097Y241135D01*
X506082Y241085D01*
X506084Y241014D01*
X506076Y240943D01*
X506087Y240892D01*
X506088Y240840D01*
X506113Y240772D01*
X506128Y240702D01*
X506155Y240658D01*
X506172Y240609D01*
X506217Y240553D01*
X506254Y240491D01*
X506294Y240457D01*
X506326Y240417D01*
X506386Y240378D01*
X506441Y240331D01*
X506489Y240312D01*
X506533Y240284D01*
X506603Y240266D01*
X506669Y240239D01*
X506740Y240231D01*
X506772Y240223D01*
X506795Y240225D01*
X506836Y240221D01*
X516645Y240221D01*
X519621Y237245D01*
X519621Y219955D01*
X518384Y218718D01*
X518331Y218645D01*
X518271Y218575D01*
X518259Y218545D01*
X518240Y218519D01*
X518213Y218432D01*
X518179Y218347D01*
X518175Y218306D01*
X518168Y218284D01*
X518169Y218251D01*
X518161Y218180D01*
X518161Y201179D01*
X516614Y197444D01*
X513756Y194586D01*
X510021Y193039D01*
X290079Y193039D01*
X286344Y194586D01*
X283379Y197551D01*
X264174Y216756D01*
X264100Y216809D01*
X264031Y216869D01*
X264001Y216881D01*
X263975Y216900D01*
X263888Y216927D01*
X263803Y216961D01*
X263762Y216965D01*
X263739Y216972D01*
X263707Y216971D01*
X263636Y216979D01*
X258055Y216979D01*
X255079Y219955D01*
X255079Y225536D01*
X255065Y225626D01*
X255057Y225717D01*
X255045Y225747D01*
X255040Y225779D01*
X254997Y225859D01*
X254961Y225943D01*
X254935Y225975D01*
X254924Y225996D01*
X254901Y226018D01*
X254856Y226074D01*
X246410Y234520D01*
X246352Y234562D01*
X246300Y234612D01*
X246253Y234634D01*
X246211Y234664D01*
X246142Y234685D01*
X246077Y234715D01*
X246025Y234721D01*
X245975Y234736D01*
X245904Y234734D01*
X245833Y234742D01*
X245782Y234731D01*
X245730Y234730D01*
X245662Y234705D01*
X245592Y234690D01*
X245548Y234663D01*
X245499Y234645D01*
X245443Y234601D01*
X245381Y234564D01*
X245347Y234524D01*
X245307Y234492D01*
X245268Y234431D01*
X245221Y234377D01*
X245202Y234329D01*
X245174Y234285D01*
X245156Y234215D01*
X245140Y234177D01*
X245139Y234173D01*
X245139Y234172D01*
X245129Y234149D01*
X245121Y234077D01*
X245113Y234046D01*
X245115Y234023D01*
X245111Y233982D01*
X245111Y156972D01*
X245114Y156952D01*
X245112Y156933D01*
X245134Y156831D01*
X245150Y156729D01*
X245160Y156712D01*
X245164Y156692D01*
X245217Y156603D01*
X245266Y156512D01*
X245280Y156498D01*
X245290Y156481D01*
X245369Y156414D01*
X245444Y156342D01*
X245462Y156334D01*
X245477Y156321D01*
X245573Y156282D01*
X245667Y156239D01*
X245687Y156237D01*
X245705Y156229D01*
X245872Y156211D01*
X294121Y156211D01*
X297856Y154664D01*
X300714Y151806D01*
X302261Y148071D01*
X302261Y132988D01*
X302271Y132923D01*
X302272Y132857D01*
X302295Y132777D01*
X302300Y132745D01*
X302310Y132728D01*
X302319Y132696D01*
X303752Y129235D01*
X303760Y129185D01*
X303794Y129122D01*
X303819Y129055D01*
X303851Y129014D01*
X303876Y128968D01*
X303928Y128919D01*
X303972Y128863D01*
X304016Y128834D01*
X304054Y128798D01*
X304119Y128768D01*
X304179Y128730D01*
X304230Y128717D01*
X304277Y128695D01*
X304348Y128687D01*
X304418Y128669D01*
X304470Y128674D01*
X304521Y128668D01*
X304592Y128683D01*
X304663Y128689D01*
X304711Y128709D01*
X304762Y128720D01*
X304823Y128757D01*
X304889Y128785D01*
X304945Y128830D01*
X304973Y128846D01*
X304988Y128864D01*
X305020Y128890D01*
X306081Y129951D01*
X306120Y130004D01*
X306165Y130051D01*
X306206Y130124D01*
X306225Y130151D01*
X306231Y130169D01*
X306246Y130198D01*
X307648Y133583D01*
X310917Y136852D01*
X315188Y138621D01*
X319812Y138621D01*
X324083Y136852D01*
X327352Y133583D01*
X329152Y129235D01*
X329160Y129185D01*
X329194Y129122D01*
X329219Y129055D01*
X329251Y129014D01*
X329276Y128968D01*
X329328Y128919D01*
X329372Y128863D01*
X329416Y128834D01*
X329454Y128798D01*
X329519Y128768D01*
X329579Y128730D01*
X329630Y128717D01*
X329677Y128695D01*
X329748Y128687D01*
X329818Y128669D01*
X329870Y128674D01*
X329921Y128668D01*
X329992Y128683D01*
X330063Y128689D01*
X330111Y128709D01*
X330162Y128720D01*
X330223Y128757D01*
X330289Y128785D01*
X330345Y128830D01*
X330373Y128846D01*
X330388Y128864D01*
X330420Y128890D01*
X331481Y129951D01*
X331520Y130004D01*
X331565Y130051D01*
X331606Y130124D01*
X331625Y130151D01*
X331631Y130169D01*
X331646Y130198D01*
X333048Y133583D01*
X336317Y136852D01*
X340588Y138621D01*
X345212Y138621D01*
X349483Y136852D01*
X352752Y133583D01*
X354521Y129312D01*
X354521Y124688D01*
X352752Y120417D01*
X349483Y117148D01*
X346098Y115746D01*
X346042Y115712D01*
X345982Y115686D01*
X345917Y115634D01*
X345889Y115617D01*
X345876Y115602D01*
X345851Y115581D01*
X340584Y110314D01*
X340531Y110240D01*
X340471Y110171D01*
X340459Y110141D01*
X340440Y110114D01*
X340413Y110028D01*
X340379Y109943D01*
X340375Y109902D01*
X340368Y109879D01*
X340369Y109847D01*
X340361Y109776D01*
X340361Y69355D01*
X340375Y69265D01*
X340383Y69174D01*
X340395Y69145D01*
X340400Y69113D01*
X340443Y69032D01*
X340479Y68948D01*
X340505Y68916D01*
X340516Y68895D01*
X340539Y68873D01*
X340584Y68817D01*
X341698Y67703D01*
X343834Y62545D01*
X343834Y39055D01*
X341698Y33897D01*
X337750Y29949D01*
X332592Y27812D01*
X327008Y27812D01*
X321850Y29949D01*
X317902Y33897D01*
X315766Y39055D01*
X315766Y62545D01*
X317902Y67703D01*
X319816Y69617D01*
X319869Y69691D01*
X319929Y69761D01*
X319941Y69791D01*
X319960Y69817D01*
X319987Y69904D01*
X320021Y69989D01*
X320025Y70030D01*
X320032Y70052D01*
X320031Y70084D01*
X320039Y70155D01*
X320039Y113332D01*
X320028Y113403D01*
X320026Y113474D01*
X320008Y113523D01*
X320000Y113575D01*
X319966Y113638D01*
X319941Y113705D01*
X319909Y113746D01*
X319884Y113792D01*
X319832Y113841D01*
X319788Y113897D01*
X319744Y113926D01*
X319706Y113962D01*
X319641Y113992D01*
X319581Y114030D01*
X319530Y114043D01*
X319483Y114065D01*
X319412Y114073D01*
X319342Y114091D01*
X319290Y114086D01*
X319239Y114092D01*
X319168Y114077D01*
X319097Y114071D01*
X319049Y114051D01*
X318998Y114040D01*
X318937Y114003D01*
X318871Y113975D01*
X318815Y113930D01*
X318787Y113914D01*
X318772Y113896D01*
X318740Y113870D01*
X296134Y91264D01*
X296081Y91190D01*
X296021Y91121D01*
X296009Y91091D01*
X295990Y91064D01*
X295963Y90978D01*
X295929Y90893D01*
X295925Y90852D01*
X295918Y90829D01*
X295919Y90797D01*
X295911Y90726D01*
X295911Y48779D01*
X294364Y45044D01*
X294057Y44738D01*
X294004Y44664D01*
X293945Y44594D01*
X293932Y44564D01*
X293914Y44538D01*
X293887Y44451D01*
X293853Y44366D01*
X293848Y44325D01*
X293841Y44303D01*
X293842Y44271D01*
X293834Y44199D01*
X293834Y39055D01*
X291698Y33897D01*
X287750Y29949D01*
X282592Y27812D01*
X277008Y27812D01*
X271850Y29949D01*
X267902Y33897D01*
X265766Y39055D01*
X265766Y62545D01*
X267902Y67703D01*
X271850Y71651D01*
X275119Y73005D01*
X275219Y73067D01*
X275319Y73127D01*
X275323Y73132D01*
X275328Y73135D01*
X275403Y73225D01*
X275479Y73314D01*
X275481Y73320D01*
X275485Y73324D01*
X275527Y73433D01*
X275571Y73542D01*
X275572Y73549D01*
X275573Y73554D01*
X275574Y73572D01*
X275589Y73709D01*
X275589Y97271D01*
X277136Y101006D01*
X280101Y103971D01*
X290210Y114080D01*
X290252Y114138D01*
X290302Y114190D01*
X290323Y114237D01*
X290354Y114279D01*
X290375Y114348D01*
X290405Y114413D01*
X290411Y114465D01*
X290426Y114515D01*
X290424Y114586D01*
X290432Y114657D01*
X290421Y114708D01*
X290420Y114760D01*
X290395Y114828D01*
X290380Y114898D01*
X290353Y114943D01*
X290335Y114991D01*
X290291Y115047D01*
X290254Y115109D01*
X290214Y115143D01*
X290182Y115183D01*
X290121Y115222D01*
X290067Y115269D01*
X290019Y115288D01*
X289975Y115316D01*
X289905Y115334D01*
X289839Y115361D01*
X289831Y115362D01*
X285517Y117148D01*
X282248Y120417D01*
X280479Y124688D01*
X280479Y129312D01*
X281881Y132696D01*
X281896Y132760D01*
X281921Y132821D01*
X281930Y132904D01*
X281937Y132936D01*
X281936Y132955D01*
X281939Y132988D01*
X281939Y135128D01*
X281936Y135148D01*
X281938Y135167D01*
X281916Y135269D01*
X281900Y135371D01*
X281890Y135388D01*
X281886Y135408D01*
X281833Y135497D01*
X281784Y135588D01*
X281770Y135602D01*
X281760Y135619D01*
X281681Y135686D01*
X281606Y135758D01*
X281588Y135766D01*
X281573Y135779D01*
X281477Y135818D01*
X281383Y135861D01*
X281363Y135863D01*
X281345Y135871D01*
X281178Y135889D01*
X279082Y135889D01*
X279062Y135886D01*
X279043Y135888D01*
X278941Y135866D01*
X278839Y135850D01*
X278822Y135840D01*
X278802Y135836D01*
X278713Y135783D01*
X278622Y135734D01*
X278608Y135720D01*
X278591Y135710D01*
X278524Y135631D01*
X278452Y135556D01*
X278444Y135538D01*
X278431Y135523D01*
X278392Y135427D01*
X278349Y135333D01*
X278347Y135313D01*
X278339Y135295D01*
X278321Y135128D01*
X278321Y118355D01*
X275345Y115379D01*
X258055Y115379D01*
X255079Y118355D01*
X255079Y135128D01*
X255076Y135148D01*
X255078Y135167D01*
X255056Y135269D01*
X255040Y135371D01*
X255030Y135388D01*
X255026Y135408D01*
X254973Y135497D01*
X254924Y135588D01*
X254910Y135602D01*
X254900Y135619D01*
X254821Y135686D01*
X254746Y135758D01*
X254728Y135766D01*
X254713Y135779D01*
X254617Y135818D01*
X254523Y135861D01*
X254503Y135863D01*
X254485Y135871D01*
X254318Y135889D01*
X212583Y135889D01*
X212512Y135878D01*
X212440Y135876D01*
X212391Y135858D01*
X212340Y135850D01*
X212277Y135816D01*
X212209Y135791D01*
X212169Y135759D01*
X212123Y135734D01*
X212073Y135682D01*
X212017Y135638D01*
X211989Y135594D01*
X211953Y135556D01*
X211923Y135491D01*
X211884Y135431D01*
X211872Y135380D01*
X211850Y135333D01*
X211842Y135262D01*
X211824Y135192D01*
X211828Y135140D01*
X211823Y135089D01*
X211838Y135018D01*
X211843Y134947D01*
X211864Y134899D01*
X211875Y134848D01*
X211912Y134787D01*
X211940Y134721D01*
X211984Y134665D01*
X212001Y134637D01*
X212019Y134622D01*
X212044Y134590D01*
X213052Y133583D01*
X214821Y129312D01*
X214821Y124688D01*
X213052Y120417D01*
X209783Y117148D01*
X205512Y115379D01*
X200888Y115379D01*
X196617Y117148D01*
X193348Y120417D01*
X191579Y124688D01*
X191579Y129312D01*
X193348Y133583D01*
X194356Y134590D01*
X194397Y134648D01*
X194447Y134700D01*
X194469Y134747D01*
X194499Y134789D01*
X194520Y134858D01*
X194550Y134923D01*
X194556Y134975D01*
X194571Y135025D01*
X194570Y135096D01*
X194577Y135167D01*
X194566Y135218D01*
X194565Y135270D01*
X194540Y135338D01*
X194525Y135408D01*
X194499Y135453D01*
X194481Y135501D01*
X194436Y135557D01*
X194399Y135619D01*
X194359Y135653D01*
X194327Y135693D01*
X194267Y135732D01*
X194212Y135779D01*
X194164Y135798D01*
X194120Y135826D01*
X194051Y135844D01*
X193984Y135871D01*
X193913Y135879D01*
X193882Y135887D01*
X193858Y135885D01*
X193817Y135889D01*
X187183Y135889D01*
X187112Y135878D01*
X187040Y135876D01*
X186991Y135858D01*
X186940Y135850D01*
X186877Y135816D01*
X186809Y135791D01*
X186769Y135759D01*
X186723Y135734D01*
X186673Y135682D01*
X186617Y135638D01*
X186589Y135594D01*
X186553Y135556D01*
X186523Y135491D01*
X186484Y135431D01*
X186472Y135380D01*
X186450Y135333D01*
X186442Y135262D01*
X186424Y135192D01*
X186428Y135140D01*
X186423Y135089D01*
X186438Y135018D01*
X186443Y134947D01*
X186464Y134899D01*
X186475Y134848D01*
X186512Y134787D01*
X186540Y134721D01*
X186584Y134665D01*
X186601Y134637D01*
X186619Y134622D01*
X186644Y134590D01*
X187652Y133583D01*
X189421Y129312D01*
X189421Y124688D01*
X187652Y120417D01*
X184383Y117148D01*
X180035Y115348D01*
X179985Y115340D01*
X179922Y115306D01*
X179855Y115281D01*
X179814Y115249D01*
X179768Y115224D01*
X179719Y115172D01*
X179663Y115128D01*
X179634Y115084D01*
X179598Y115046D01*
X179568Y114981D01*
X179530Y114921D01*
X179517Y114870D01*
X179495Y114823D01*
X179487Y114752D01*
X179469Y114682D01*
X179474Y114630D01*
X179468Y114579D01*
X179483Y114508D01*
X179489Y114437D01*
X179509Y114389D01*
X179520Y114338D01*
X179557Y114277D01*
X179585Y114211D01*
X179630Y114155D01*
X179646Y114127D01*
X179664Y114112D01*
X179690Y114080D01*
X189799Y103971D01*
X192764Y101006D01*
X194311Y97271D01*
X194311Y73709D01*
X194330Y73594D01*
X194347Y73478D01*
X194349Y73472D01*
X194350Y73466D01*
X194405Y73363D01*
X194458Y73258D01*
X194463Y73254D01*
X194466Y73248D01*
X194550Y73169D01*
X194634Y73086D01*
X194640Y73082D01*
X194644Y73079D01*
X194661Y73071D01*
X194781Y73005D01*
X198050Y71651D01*
X201998Y67703D01*
X204134Y62545D01*
X204134Y39055D01*
X201998Y33897D01*
X198050Y29949D01*
X192892Y27812D01*
X187308Y27812D01*
X182150Y29949D01*
X178202Y33897D01*
X176066Y39055D01*
X176066Y44199D01*
X176051Y44290D01*
X176044Y44380D01*
X176031Y44410D01*
X176026Y44442D01*
X175983Y44523D01*
X175948Y44607D01*
X175922Y44639D01*
X175911Y44660D01*
X175888Y44682D01*
X175843Y44738D01*
X175536Y45044D01*
X173989Y48779D01*
X173989Y90726D01*
X173975Y90816D01*
X173967Y90907D01*
X173955Y90937D01*
X173950Y90969D01*
X173907Y91049D01*
X173871Y91133D01*
X173845Y91165D01*
X173834Y91186D01*
X173811Y91208D01*
X173766Y91264D01*
X151160Y113870D01*
X151102Y113912D01*
X151050Y113962D01*
X151003Y113984D01*
X150961Y114014D01*
X150892Y114035D01*
X150827Y114065D01*
X150775Y114071D01*
X150725Y114086D01*
X150654Y114084D01*
X150583Y114092D01*
X150532Y114081D01*
X150480Y114080D01*
X150412Y114055D01*
X150342Y114040D01*
X150297Y114013D01*
X150249Y113995D01*
X150193Y113951D01*
X150131Y113914D01*
X150097Y113874D01*
X150057Y113842D01*
X150018Y113781D01*
X149971Y113727D01*
X149952Y113679D01*
X149924Y113635D01*
X149906Y113565D01*
X149879Y113499D01*
X149871Y113427D01*
X149863Y113396D01*
X149865Y113373D01*
X149861Y113332D01*
X149861Y70156D01*
X149875Y70065D01*
X149883Y69975D01*
X149895Y69945D01*
X149900Y69913D01*
X149943Y69832D01*
X149979Y69748D01*
X150005Y69716D01*
X150016Y69695D01*
X150039Y69673D01*
X150084Y69617D01*
X151998Y67703D01*
X154134Y62545D01*
X154134Y39055D01*
X151998Y33897D01*
X148050Y29949D01*
X142892Y27812D01*
X137308Y27812D01*
X132150Y29949D01*
X128202Y33897D01*
X126066Y39055D01*
X126066Y62545D01*
X128202Y67703D01*
X129316Y68817D01*
X129369Y68891D01*
X129429Y68961D01*
X129441Y68991D01*
X129460Y69017D01*
X129487Y69104D01*
X129521Y69189D01*
X129525Y69230D01*
X129532Y69252D01*
X129531Y69284D01*
X129539Y69356D01*
X129539Y109776D01*
X129525Y109866D01*
X129517Y109957D01*
X129505Y109987D01*
X129500Y110019D01*
X129457Y110099D01*
X129421Y110183D01*
X129395Y110215D01*
X129384Y110236D01*
X129361Y110258D01*
X129316Y110314D01*
X124049Y115581D01*
X123996Y115620D01*
X123949Y115666D01*
X123876Y115706D01*
X123849Y115725D01*
X123831Y115731D01*
X123802Y115746D01*
X120417Y117148D01*
X117148Y120417D01*
X115379Y124688D01*
X115379Y129312D01*
X117148Y133583D01*
X118156Y134590D01*
X118197Y134648D01*
X118247Y134700D01*
X118269Y134747D01*
X118299Y134789D01*
X118320Y134858D01*
X118350Y134923D01*
X118356Y134975D01*
X118371Y135025D01*
X118370Y135096D01*
X118377Y135167D01*
X118366Y135218D01*
X118365Y135270D01*
X118340Y135338D01*
X118325Y135408D01*
X118299Y135453D01*
X118281Y135501D01*
X118236Y135557D01*
X118199Y135619D01*
X118159Y135653D01*
X118127Y135693D01*
X118067Y135732D01*
X118012Y135779D01*
X117964Y135798D01*
X117920Y135826D01*
X117851Y135844D01*
X117784Y135871D01*
X117713Y135879D01*
X117682Y135887D01*
X117658Y135885D01*
X117617Y135889D01*
X110983Y135889D01*
X110912Y135878D01*
X110840Y135876D01*
X110791Y135858D01*
X110740Y135850D01*
X110677Y135816D01*
X110609Y135791D01*
X110569Y135759D01*
X110523Y135734D01*
X110473Y135682D01*
X110417Y135638D01*
X110389Y135594D01*
X110353Y135556D01*
X110323Y135491D01*
X110284Y135431D01*
X110272Y135380D01*
X110250Y135333D01*
X110242Y135262D01*
X110224Y135192D01*
X110228Y135140D01*
X110223Y135089D01*
X110238Y135018D01*
X110243Y134947D01*
X110264Y134899D01*
X110275Y134848D01*
X110312Y134787D01*
X110340Y134721D01*
X110384Y134665D01*
X110401Y134637D01*
X110419Y134622D01*
X110444Y134590D01*
X111452Y133583D01*
X113221Y129312D01*
X113221Y124688D01*
X111452Y120417D01*
X108183Y117148D01*
X104798Y115746D01*
X104742Y115712D01*
X104682Y115686D01*
X104617Y115634D01*
X104589Y115617D01*
X104576Y115602D01*
X104551Y115581D01*
X99284Y110314D01*
X99231Y110240D01*
X99171Y110171D01*
X99159Y110141D01*
X99140Y110114D01*
X99113Y110028D01*
X99079Y109943D01*
X99075Y109902D01*
X99068Y109879D01*
X99069Y109847D01*
X99061Y109776D01*
X99061Y69356D01*
X99075Y69265D01*
X99083Y69175D01*
X99095Y69145D01*
X99100Y69113D01*
X99143Y69032D01*
X99179Y68948D01*
X99205Y68916D01*
X99216Y68895D01*
X99239Y68873D01*
X99284Y68817D01*
X100398Y67703D01*
X102534Y62545D01*
X102534Y39055D01*
X100398Y33897D01*
X96450Y29949D01*
X91292Y27812D01*
X85708Y27812D01*
X80550Y29949D01*
X76602Y33897D01*
X74466Y39055D01*
X74466Y62545D01*
X76602Y67703D01*
X78516Y69617D01*
X78569Y69691D01*
X78629Y69761D01*
X78641Y69791D01*
X78660Y69817D01*
X78687Y69904D01*
X78721Y69989D01*
X78725Y70030D01*
X78732Y70052D01*
X78731Y70084D01*
X78739Y70156D01*
X78739Y113332D01*
X78728Y113403D01*
X78726Y113474D01*
X78708Y113523D01*
X78700Y113575D01*
X78666Y113638D01*
X78641Y113705D01*
X78609Y113746D01*
X78584Y113792D01*
X78532Y113841D01*
X78488Y113897D01*
X78444Y113926D01*
X78406Y113962D01*
X78341Y113992D01*
X78281Y114030D01*
X78230Y114043D01*
X78183Y114065D01*
X78112Y114073D01*
X78042Y114091D01*
X77990Y114086D01*
X77939Y114092D01*
X77868Y114077D01*
X77797Y114071D01*
X77749Y114051D01*
X77698Y114040D01*
X77637Y114003D01*
X77571Y113975D01*
X77515Y113930D01*
X77487Y113914D01*
X77472Y113896D01*
X77440Y113870D01*
X54834Y91264D01*
X54781Y91190D01*
X54721Y91121D01*
X54709Y91091D01*
X54690Y91064D01*
X54663Y90978D01*
X54629Y90893D01*
X54625Y90852D01*
X54618Y90829D01*
X54619Y90797D01*
X54611Y90726D01*
X54611Y48779D01*
X53064Y45044D01*
X52757Y44738D01*
X52704Y44664D01*
X52645Y44594D01*
X52632Y44564D01*
X52614Y44538D01*
X52587Y44451D01*
X52553Y44366D01*
X52548Y44325D01*
X52541Y44303D01*
X52542Y44271D01*
X52534Y44199D01*
X52534Y39055D01*
X50398Y33897D01*
X46450Y29949D01*
X41292Y27812D01*
X35708Y27812D01*
X30550Y29949D01*
X26602Y33897D01*
X24466Y39055D01*
X24466Y62545D01*
X26602Y67703D01*
X30550Y71651D01*
X33819Y73005D01*
X33919Y73067D01*
X34019Y73127D01*
X34023Y73132D01*
X34028Y73135D01*
X34103Y73225D01*
X34179Y73314D01*
X34181Y73320D01*
X34185Y73324D01*
X34227Y73433D01*
X34271Y73542D01*
X34272Y73549D01*
X34273Y73554D01*
X34274Y73572D01*
X34289Y73709D01*
X34289Y97271D01*
X35836Y101006D01*
X38801Y103971D01*
X48910Y114080D01*
X48952Y114138D01*
X49002Y114190D01*
X49023Y114237D01*
X49054Y114279D01*
X49075Y114348D01*
X49105Y114413D01*
X49111Y114465D01*
X49126Y114515D01*
X49124Y114586D01*
X49132Y114657D01*
X49121Y114708D01*
X49120Y114760D01*
X49095Y114828D01*
X49080Y114898D01*
X49053Y114943D01*
X49035Y114991D01*
X48991Y115047D01*
X48954Y115109D01*
X48914Y115143D01*
X48882Y115183D01*
X48821Y115222D01*
X48767Y115269D01*
X48719Y115288D01*
X48675Y115316D01*
X48605Y115334D01*
X48539Y115361D01*
X48531Y115362D01*
X44217Y117148D01*
X40948Y120417D01*
X39179Y124688D01*
X39179Y129312D01*
X40948Y133583D01*
X44217Y136852D01*
X47602Y138254D01*
X47658Y138288D01*
X47718Y138314D01*
X47783Y138366D01*
X47811Y138383D01*
X47824Y138398D01*
X47849Y138419D01*
X61129Y151699D01*
X64094Y154664D01*
X67829Y156211D01*
X224028Y156211D01*
X224048Y156214D01*
X224067Y156212D01*
X224169Y156234D01*
X224271Y156250D01*
X224288Y156260D01*
X224308Y156264D01*
X224397Y156317D01*
X224488Y156366D01*
X224502Y156380D01*
X224519Y156390D01*
X224586Y156469D01*
X224658Y156544D01*
X224666Y156562D01*
X224679Y156577D01*
X224718Y156673D01*
X224761Y156767D01*
X224763Y156787D01*
X224771Y156805D01*
X224789Y156972D01*
X224789Y258070D01*
X224774Y258166D01*
X224764Y258263D01*
X224754Y258287D01*
X224750Y258312D01*
X224704Y258398D01*
X224664Y258487D01*
X224647Y258507D01*
X224634Y258530D01*
X224564Y258597D01*
X224498Y258669D01*
X224475Y258681D01*
X224456Y258699D01*
X224368Y258740D01*
X224282Y258787D01*
X224257Y258792D01*
X224233Y258803D01*
X224136Y258813D01*
X224040Y258831D01*
X224014Y258827D01*
X223989Y258830D01*
X223893Y258809D01*
X223797Y258795D01*
X223774Y258783D01*
X223748Y258778D01*
X223665Y258728D01*
X223578Y258684D01*
X223559Y258665D01*
X223537Y258651D01*
X223474Y258578D01*
X223406Y258508D01*
X223390Y258479D01*
X223377Y258465D01*
X223365Y258434D01*
X223325Y258361D01*
X222361Y256033D01*
X220217Y253889D01*
X217416Y252729D01*
X136822Y252729D01*
X136732Y252715D01*
X136641Y252707D01*
X136611Y252695D01*
X136579Y252690D01*
X136498Y252647D01*
X136415Y252611D01*
X136382Y252585D01*
X136362Y252574D01*
X136340Y252551D01*
X136284Y252506D01*
X125298Y241520D01*
X125256Y241462D01*
X125206Y241410D01*
X125184Y241363D01*
X125154Y241321D01*
X125133Y241252D01*
X125103Y241187D01*
X125097Y241135D01*
X125082Y241085D01*
X125084Y241014D01*
X125076Y240943D01*
X125087Y240892D01*
X125088Y240840D01*
X125113Y240772D01*
X125128Y240702D01*
X125155Y240657D01*
X125172Y240609D01*
X125217Y240553D01*
X125254Y240491D01*
X125294Y240457D01*
X125326Y240417D01*
X125386Y240378D01*
X125441Y240331D01*
X125489Y240312D01*
X125533Y240284D01*
X125603Y240266D01*
X125669Y240239D01*
X125740Y240231D01*
X125772Y240223D01*
X125795Y240225D01*
X125836Y240221D01*
X129312Y240221D01*
X133583Y238452D01*
X136852Y235183D01*
X138621Y230912D01*
X138621Y226288D01*
X136852Y222017D01*
X133583Y218748D01*
X129312Y216979D01*
X124688Y216979D01*
X120417Y218748D01*
X117148Y222017D01*
X115379Y226288D01*
X115379Y229764D01*
X115368Y229835D01*
X115366Y229907D01*
X115348Y229956D01*
X115340Y230007D01*
X115306Y230070D01*
X115281Y230138D01*
X115249Y230178D01*
X115224Y230224D01*
X115173Y230274D01*
X115128Y230330D01*
X115084Y230358D01*
X115046Y230394D01*
X114981Y230424D01*
X114921Y230463D01*
X114870Y230475D01*
X114823Y230497D01*
X114752Y230505D01*
X114682Y230523D01*
X114630Y230519D01*
X114579Y230524D01*
X114508Y230509D01*
X114437Y230504D01*
X114389Y230483D01*
X114338Y230472D01*
X114277Y230435D01*
X114211Y230407D01*
X114155Y230362D01*
X114127Y230346D01*
X114112Y230328D01*
X114080Y230302D01*
X113444Y229666D01*
X113390Y229592D01*
X113331Y229523D01*
X113319Y229493D01*
X113300Y229467D01*
X113273Y229380D01*
X113239Y229295D01*
X113235Y229254D01*
X113228Y229232D01*
X113229Y229199D01*
X113221Y229128D01*
X113221Y226288D01*
X111452Y222017D01*
X108183Y218748D01*
X103912Y216979D01*
X99288Y216979D01*
X95017Y218748D01*
X91748Y222017D01*
X89979Y226288D01*
X89979Y230912D01*
X91748Y235183D01*
X95017Y238452D01*
X99288Y240221D01*
X102128Y240221D01*
X102218Y240235D01*
X102309Y240243D01*
X102339Y240255D01*
X102371Y240260D01*
X102452Y240303D01*
X102535Y240339D01*
X102568Y240365D01*
X102588Y240376D01*
X102610Y240399D01*
X102666Y240444D01*
X129033Y266811D01*
X131834Y267971D01*
X145467Y267971D01*
X145537Y267982D01*
X145609Y267984D01*
X145658Y268002D01*
X145710Y268010D01*
X145773Y268044D01*
X145840Y268069D01*
X145881Y268101D01*
X145927Y268126D01*
X145976Y268178D01*
X146032Y268222D01*
X146060Y268266D01*
X146096Y268304D01*
X146126Y268369D01*
X146165Y268429D01*
X146178Y268480D01*
X146200Y268527D01*
X146208Y268598D01*
X146225Y268668D01*
X146221Y268720D01*
X146227Y268771D01*
X146212Y268842D01*
X146206Y268913D01*
X146186Y268961D01*
X146175Y269012D01*
X146138Y269073D01*
X146110Y269139D01*
X146065Y269195D01*
X146049Y269223D01*
X146031Y269238D01*
X146005Y269270D01*
X140715Y274560D01*
X140715Y276400D01*
X140701Y276490D01*
X140693Y276581D01*
X140681Y276611D01*
X140676Y276643D01*
X140633Y276723D01*
X140597Y276807D01*
X140571Y276839D01*
X140560Y276860D01*
X140537Y276882D01*
X140492Y276938D01*
X134051Y283379D01*
X131086Y286344D01*
X129539Y290079D01*
X129539Y340300D01*
X129525Y340390D01*
X129517Y340481D01*
X129505Y340510D01*
X129500Y340542D01*
X129457Y340623D01*
X129421Y340707D01*
X129395Y340739D01*
X129384Y340760D01*
X129361Y340782D01*
X129316Y340838D01*
X124626Y345528D01*
X121919Y352063D01*
X121919Y359137D01*
X124626Y365672D01*
X128494Y369540D01*
X128536Y369598D01*
X128585Y369650D01*
X128607Y369697D01*
X128638Y369739D01*
X128659Y369808D01*
X128689Y369873D01*
X128695Y369925D01*
X128710Y369975D01*
X128708Y370046D01*
X128716Y370117D01*
X128705Y370168D01*
X128704Y370220D01*
X128679Y370288D01*
X128664Y370358D01*
X128637Y370403D01*
X128619Y370451D01*
X128574Y370507D01*
X128537Y370569D01*
X128498Y370603D01*
X128465Y370643D01*
X128405Y370682D01*
X128351Y370729D01*
X128302Y370748D01*
X128258Y370776D01*
X128189Y370794D01*
X128122Y370821D01*
X128051Y370829D01*
X128020Y370837D01*
X127997Y370835D01*
X127956Y370839D01*
X118824Y370839D01*
X118734Y370825D01*
X118643Y370817D01*
X118613Y370805D01*
X118581Y370800D01*
X118501Y370757D01*
X118417Y370721D01*
X118385Y370695D01*
X118364Y370684D01*
X118342Y370661D01*
X118286Y370616D01*
X106904Y359234D01*
X106851Y359160D01*
X106791Y359091D01*
X106779Y359061D01*
X106760Y359035D01*
X106733Y358948D01*
X106699Y358863D01*
X106695Y358822D01*
X106688Y358799D01*
X106689Y358767D01*
X106681Y358696D01*
X106681Y348235D01*
X96265Y337819D01*
X81535Y337819D01*
X71119Y348235D01*
X71119Y356954D01*
X71108Y357025D01*
X71106Y357097D01*
X71088Y357146D01*
X71080Y357197D01*
X71046Y357260D01*
X71021Y357328D01*
X70989Y357368D01*
X70964Y357414D01*
X70913Y357464D01*
X70868Y357520D01*
X70824Y357548D01*
X70786Y357584D01*
X70721Y357614D01*
X70661Y357653D01*
X70610Y357665D01*
X70563Y357687D01*
X70492Y357695D01*
X70422Y357713D01*
X70370Y357709D01*
X70319Y357714D01*
X70248Y357699D01*
X70177Y357694D01*
X70129Y357673D01*
X70078Y357662D01*
X70017Y357625D01*
X69951Y357597D01*
X69895Y357552D01*
X69867Y357536D01*
X69852Y357518D01*
X69820Y357492D01*
X45885Y333558D01*
X45817Y333463D01*
X45747Y333369D01*
X45745Y333363D01*
X45741Y333358D01*
X45707Y333247D01*
X45671Y333135D01*
X45671Y333129D01*
X45669Y333123D01*
X45672Y333006D01*
X45673Y332889D01*
X45675Y332882D01*
X45675Y332877D01*
X45682Y332860D01*
X45720Y332728D01*
X45721Y332726D01*
X45721Y327674D01*
X43787Y323006D01*
X40214Y319433D01*
X35546Y317499D01*
X15254Y317499D01*
X11213Y319173D01*
X11169Y319183D01*
X11127Y319203D01*
X11107Y319205D01*
X11095Y319210D01*
X11021Y319218D01*
X10974Y319229D01*
X10945Y319226D01*
X10928Y319228D01*
X10922Y319228D01*
X10912Y319227D01*
X10883Y319230D01*
X10806Y319213D01*
X10729Y319206D01*
X10696Y319191D01*
X10679Y319188D01*
X10670Y319184D01*
X10642Y319178D01*
X10575Y319138D01*
X10504Y319106D01*
X10478Y319082D01*
X10462Y319073D01*
X10454Y319065D01*
X10431Y319051D01*
X10380Y318992D01*
X10323Y318940D01*
X10307Y318910D01*
X10292Y318895D01*
X10287Y318883D01*
X10271Y318864D01*
X10242Y318792D01*
X10205Y318724D01*
X10199Y318694D01*
X10189Y318672D01*
X10187Y318656D01*
X10179Y318636D01*
X10164Y318500D01*
X10161Y318482D01*
X10162Y318477D01*
X10161Y318470D01*
X10161Y10922D01*
X10164Y10902D01*
X10162Y10883D01*
X10184Y10781D01*
X10200Y10679D01*
X10210Y10662D01*
X10214Y10642D01*
X10267Y10553D01*
X10316Y10462D01*
X10330Y10448D01*
X10340Y10431D01*
X10419Y10364D01*
X10494Y10292D01*
X10512Y10284D01*
X10527Y10271D01*
X10623Y10232D01*
X10717Y10189D01*
X10737Y10187D01*
X10755Y10179D01*
X10922Y10161D01*
X710694Y10161D01*
X710714Y10164D01*
G37*
G36*
X46592Y356041D02*
X46592Y356041D01*
X46663Y356046D01*
X46711Y356067D01*
X46762Y356078D01*
X46823Y356115D01*
X46889Y356143D01*
X46945Y356188D01*
X46973Y356204D01*
X46988Y356222D01*
X47020Y356248D01*
X55656Y364884D01*
X55709Y364958D01*
X55769Y365027D01*
X55781Y365057D01*
X55800Y365083D01*
X55827Y365170D01*
X55861Y365255D01*
X55865Y365296D01*
X55872Y365318D01*
X55871Y365351D01*
X55879Y365422D01*
X55879Y433316D01*
X57039Y436117D01*
X59290Y438368D01*
X76992Y456070D01*
X77045Y456144D01*
X77105Y456213D01*
X77117Y456243D01*
X77136Y456269D01*
X77163Y456356D01*
X77197Y456441D01*
X77201Y456482D01*
X77208Y456504D01*
X77207Y456537D01*
X77215Y456608D01*
X77215Y462040D01*
X84060Y468885D01*
X93740Y468885D01*
X100585Y462040D01*
X100585Y452360D01*
X93740Y445515D01*
X88308Y445515D01*
X88218Y445501D01*
X88127Y445493D01*
X88097Y445481D01*
X88065Y445476D01*
X87984Y445433D01*
X87901Y445397D01*
X87868Y445371D01*
X87848Y445360D01*
X87826Y445337D01*
X87770Y445292D01*
X71344Y428866D01*
X71291Y428792D01*
X71231Y428723D01*
X71219Y428693D01*
X71200Y428667D01*
X71173Y428580D01*
X71139Y428495D01*
X71135Y428454D01*
X71128Y428432D01*
X71129Y428399D01*
X71121Y428328D01*
X71121Y364804D01*
X71132Y364734D01*
X71134Y364662D01*
X71152Y364613D01*
X71160Y364562D01*
X71194Y364498D01*
X71219Y364431D01*
X71251Y364390D01*
X71276Y364344D01*
X71328Y364295D01*
X71372Y364239D01*
X71416Y364211D01*
X71454Y364175D01*
X71519Y364145D01*
X71579Y364106D01*
X71630Y364093D01*
X71677Y364071D01*
X71748Y364063D01*
X71818Y364046D01*
X71870Y364050D01*
X71921Y364044D01*
X71992Y364059D01*
X72063Y364065D01*
X72111Y364085D01*
X72162Y364096D01*
X72223Y364133D01*
X72289Y364161D01*
X72345Y364206D01*
X72373Y364222D01*
X72388Y364240D01*
X72420Y364266D01*
X81535Y373381D01*
X91996Y373381D01*
X92086Y373395D01*
X92177Y373403D01*
X92207Y373415D01*
X92239Y373420D01*
X92319Y373463D01*
X92403Y373499D01*
X92435Y373525D01*
X92456Y373536D01*
X92478Y373559D01*
X92534Y373604D01*
X105579Y386649D01*
X108544Y389614D01*
X112279Y391161D01*
X204170Y391161D01*
X204215Y391168D01*
X204261Y391166D01*
X204336Y391188D01*
X204412Y391200D01*
X204453Y391222D01*
X204497Y391235D01*
X204561Y391279D01*
X204630Y391316D01*
X204661Y391349D01*
X204699Y391375D01*
X204745Y391438D01*
X204799Y391494D01*
X204818Y391536D01*
X204846Y391572D01*
X204870Y391646D01*
X204903Y391717D01*
X204908Y391763D01*
X204922Y391806D01*
X204921Y391884D01*
X204930Y391961D01*
X204920Y392006D01*
X204920Y392052D01*
X204881Y392184D01*
X204878Y392202D01*
X204875Y392206D01*
X204873Y392213D01*
X203199Y396254D01*
X203199Y416546D01*
X205133Y421214D01*
X206707Y422789D01*
X206719Y422805D01*
X206734Y422817D01*
X206791Y422905D01*
X206851Y422989D01*
X206857Y423008D01*
X206867Y423024D01*
X206893Y423125D01*
X206923Y423224D01*
X206923Y423244D01*
X206928Y423263D01*
X206920Y423366D01*
X206917Y423470D01*
X206910Y423488D01*
X206908Y423508D01*
X206868Y423603D01*
X206832Y423701D01*
X206820Y423716D01*
X206812Y423734D01*
X206707Y423865D01*
X186290Y444282D01*
X184937Y445636D01*
X184883Y445674D01*
X184837Y445720D01*
X184763Y445761D01*
X184737Y445780D01*
X184718Y445785D01*
X184690Y445801D01*
X184107Y446042D01*
X180932Y449217D01*
X179214Y453365D01*
X179214Y457855D01*
X180932Y462003D01*
X184107Y465178D01*
X188255Y466896D01*
X192745Y466896D01*
X196893Y465178D01*
X200068Y462003D01*
X201786Y457855D01*
X201786Y453365D01*
X201095Y451697D01*
X201068Y451584D01*
X201040Y451470D01*
X201040Y451464D01*
X201039Y451458D01*
X201050Y451341D01*
X201059Y451225D01*
X201061Y451219D01*
X201062Y451213D01*
X201110Y451105D01*
X201155Y450998D01*
X201160Y450993D01*
X201162Y450988D01*
X201174Y450974D01*
X201260Y450867D01*
X220110Y432018D01*
X222361Y429767D01*
X223521Y426966D01*
X223521Y424676D01*
X223535Y424586D01*
X223543Y424495D01*
X223555Y424465D01*
X223560Y424433D01*
X223603Y424353D01*
X223639Y424269D01*
X223665Y424237D01*
X223676Y424216D01*
X223699Y424194D01*
X223744Y424138D01*
X226667Y421214D01*
X228601Y416546D01*
X228601Y396254D01*
X226927Y392213D01*
X226917Y392169D01*
X226897Y392127D01*
X226889Y392050D01*
X226871Y391974D01*
X226875Y391928D01*
X226870Y391883D01*
X226887Y391806D01*
X226894Y391729D01*
X226913Y391687D01*
X226922Y391642D01*
X226962Y391575D01*
X226994Y391504D01*
X227025Y391470D01*
X227049Y391431D01*
X227108Y391380D01*
X227160Y391323D01*
X227201Y391301D01*
X227236Y391271D01*
X227308Y391242D01*
X227376Y391205D01*
X227421Y391196D01*
X227464Y391179D01*
X227600Y391164D01*
X227618Y391161D01*
X227623Y391162D01*
X227630Y391161D01*
X252014Y391161D01*
X252059Y391168D01*
X252105Y391166D01*
X252180Y391188D01*
X252257Y391200D01*
X252297Y391222D01*
X252341Y391235D01*
X252405Y391279D01*
X252474Y391316D01*
X252506Y391349D01*
X252543Y391375D01*
X252590Y391438D01*
X252643Y391494D01*
X252663Y391536D01*
X252690Y391572D01*
X252714Y391646D01*
X252747Y391717D01*
X252752Y391763D01*
X252766Y391806D01*
X252766Y391884D01*
X252774Y391961D01*
X252764Y392006D01*
X252764Y392052D01*
X252729Y392172D01*
X252729Y402928D01*
X252715Y403018D01*
X252707Y403109D01*
X252695Y403139D01*
X252690Y403171D01*
X252647Y403252D01*
X252611Y403335D01*
X252585Y403368D01*
X252574Y403388D01*
X252551Y403410D01*
X252506Y403466D01*
X211690Y444282D01*
X210337Y445636D01*
X210283Y445674D01*
X210237Y445720D01*
X210164Y445760D01*
X210137Y445780D01*
X210118Y445785D01*
X210090Y445801D01*
X209507Y446042D01*
X206332Y449217D01*
X204614Y453365D01*
X204614Y457855D01*
X206332Y462003D01*
X209507Y465178D01*
X213655Y466896D01*
X218145Y466896D01*
X222293Y465178D01*
X225468Y462003D01*
X227186Y457855D01*
X227186Y453365D01*
X226495Y451697D01*
X226468Y451584D01*
X226440Y451470D01*
X226440Y451464D01*
X226439Y451458D01*
X226450Y451341D01*
X226459Y451225D01*
X226461Y451219D01*
X226462Y451213D01*
X226510Y451105D01*
X226555Y450998D01*
X226560Y450993D01*
X226562Y450988D01*
X226574Y450974D01*
X226660Y450867D01*
X264560Y412968D01*
X265400Y412128D01*
X265458Y412086D01*
X265510Y412036D01*
X265557Y412014D01*
X265599Y411984D01*
X265668Y411963D01*
X265733Y411933D01*
X265785Y411927D01*
X265835Y411912D01*
X265906Y411914D01*
X265977Y411906D01*
X266028Y411917D01*
X266080Y411918D01*
X266148Y411943D01*
X266218Y411958D01*
X266263Y411985D01*
X266311Y412002D01*
X266367Y412047D01*
X266429Y412084D01*
X266463Y412124D01*
X266503Y412156D01*
X266542Y412216D01*
X266589Y412271D01*
X266608Y412319D01*
X266636Y412363D01*
X266654Y412433D01*
X266681Y412499D01*
X266689Y412570D01*
X266697Y412602D01*
X266695Y412625D01*
X266699Y412666D01*
X266699Y416546D01*
X268633Y421214D01*
X272206Y424787D01*
X276874Y426721D01*
X278214Y426721D01*
X278285Y426732D01*
X278357Y426734D01*
X278406Y426752D01*
X278457Y426760D01*
X278520Y426794D01*
X278588Y426819D01*
X278628Y426851D01*
X278674Y426876D01*
X278724Y426928D01*
X278780Y426972D01*
X278808Y427016D01*
X278844Y427054D01*
X278874Y427119D01*
X278913Y427179D01*
X278925Y427230D01*
X278947Y427277D01*
X278955Y427348D01*
X278973Y427418D01*
X278969Y427470D01*
X278974Y427521D01*
X278959Y427592D01*
X278954Y427663D01*
X278933Y427711D01*
X278922Y427762D01*
X278885Y427823D01*
X278857Y427889D01*
X278812Y427945D01*
X278796Y427973D01*
X278778Y427988D01*
X278752Y428020D01*
X262490Y444282D01*
X261137Y445636D01*
X261083Y445674D01*
X261037Y445720D01*
X260964Y445760D01*
X260937Y445780D01*
X260918Y445785D01*
X260890Y445801D01*
X260307Y446042D01*
X257132Y449217D01*
X255414Y453365D01*
X255414Y457855D01*
X257132Y462003D01*
X260307Y465178D01*
X264455Y466896D01*
X268945Y466896D01*
X269988Y466464D01*
X270083Y466442D01*
X270176Y466413D01*
X270202Y466414D01*
X270227Y466408D01*
X270324Y466417D01*
X270421Y466419D01*
X270446Y466428D01*
X270472Y466431D01*
X270561Y466470D01*
X270652Y466504D01*
X270673Y466520D01*
X270697Y466531D01*
X270769Y466597D01*
X270845Y466657D01*
X270859Y466679D01*
X270878Y466697D01*
X270925Y466782D01*
X270978Y466864D01*
X270984Y466890D01*
X270997Y466913D01*
X271014Y467009D01*
X271038Y467103D01*
X271036Y467129D01*
X271040Y467155D01*
X271026Y467251D01*
X271018Y467348D01*
X271008Y467372D01*
X271004Y467398D01*
X270960Y467485D01*
X270922Y467574D01*
X270902Y467600D01*
X270893Y467617D01*
X270869Y467641D01*
X270817Y467705D01*
X247539Y490983D01*
X246379Y493784D01*
X246379Y523739D01*
X246372Y523784D01*
X246374Y523830D01*
X246352Y523905D01*
X246340Y523982D01*
X246318Y524022D01*
X246305Y524066D01*
X246261Y524130D01*
X246224Y524199D01*
X246191Y524231D01*
X246165Y524268D01*
X246102Y524315D01*
X246046Y524369D01*
X246004Y524388D01*
X245968Y524415D01*
X245894Y524439D01*
X245823Y524472D01*
X245777Y524477D01*
X245734Y524491D01*
X245656Y524491D01*
X245579Y524499D01*
X245534Y524489D01*
X245488Y524489D01*
X245356Y524451D01*
X245338Y524447D01*
X245334Y524444D01*
X245327Y524442D01*
X243545Y523704D01*
X239055Y523704D01*
X237273Y524442D01*
X237229Y524453D01*
X237187Y524472D01*
X237110Y524481D01*
X237034Y524498D01*
X236988Y524494D01*
X236943Y524499D01*
X236866Y524483D01*
X236789Y524475D01*
X236747Y524457D01*
X236702Y524447D01*
X236635Y524407D01*
X236564Y524375D01*
X236530Y524344D01*
X236491Y524321D01*
X236440Y524262D01*
X236383Y524209D01*
X236361Y524169D01*
X236331Y524134D01*
X236302Y524062D01*
X236265Y523993D01*
X236256Y523948D01*
X236239Y523906D01*
X236224Y523770D01*
X236221Y523751D01*
X236222Y523746D01*
X236221Y523739D01*
X236221Y519184D01*
X235061Y516383D01*
X232917Y514239D01*
X230116Y513079D01*
X206672Y513079D01*
X206582Y513065D01*
X206491Y513057D01*
X206461Y513045D01*
X206429Y513040D01*
X206348Y512997D01*
X206265Y512961D01*
X206232Y512935D01*
X206212Y512924D01*
X206190Y512901D01*
X206134Y512856D01*
X160983Y467705D01*
X160926Y467627D01*
X160864Y467551D01*
X160854Y467527D01*
X160839Y467506D01*
X160811Y467413D01*
X160776Y467322D01*
X160774Y467296D01*
X160767Y467271D01*
X160769Y467173D01*
X160765Y467076D01*
X160772Y467051D01*
X160773Y467025D01*
X160807Y466933D01*
X160834Y466840D01*
X160849Y466818D01*
X160858Y466794D01*
X160918Y466718D01*
X160974Y466638D01*
X160995Y466622D01*
X161011Y466602D01*
X161093Y466549D01*
X161171Y466491D01*
X161196Y466483D01*
X161218Y466469D01*
X161313Y466445D01*
X161405Y466415D01*
X161431Y466415D01*
X161457Y466409D01*
X161554Y466416D01*
X161651Y466417D01*
X161683Y466426D01*
X161702Y466428D01*
X161732Y466441D01*
X161812Y466464D01*
X162855Y466896D01*
X167345Y466896D01*
X171493Y465178D01*
X174668Y462003D01*
X176386Y457855D01*
X176386Y453365D01*
X174668Y449217D01*
X171493Y446042D01*
X167345Y444324D01*
X162855Y444324D01*
X158707Y446042D01*
X155532Y449217D01*
X153814Y453365D01*
X153814Y457855D01*
X154246Y458898D01*
X154268Y458993D01*
X154297Y459086D01*
X154296Y459112D01*
X154302Y459137D01*
X154293Y459234D01*
X154291Y459331D01*
X154282Y459356D01*
X154279Y459382D01*
X154240Y459471D01*
X154206Y459562D01*
X154190Y459583D01*
X154179Y459607D01*
X154113Y459678D01*
X154053Y459755D01*
X154031Y459769D01*
X154013Y459788D01*
X153928Y459835D01*
X153846Y459888D01*
X153820Y459894D01*
X153797Y459907D01*
X153701Y459924D01*
X153607Y459948D01*
X153581Y459946D01*
X153555Y459950D01*
X153459Y459936D01*
X153362Y459928D01*
X153338Y459918D01*
X153312Y459914D01*
X153225Y459870D01*
X153136Y459832D01*
X153110Y459812D01*
X153093Y459803D01*
X153069Y459779D01*
X153005Y459727D01*
X151209Y457931D01*
X151156Y457857D01*
X151096Y457788D01*
X151084Y457758D01*
X151065Y457732D01*
X151038Y457645D01*
X151004Y457560D01*
X151000Y457519D01*
X150993Y457497D01*
X150994Y457464D01*
X150986Y457393D01*
X150986Y447300D01*
X148010Y444324D01*
X131390Y444324D01*
X128414Y447300D01*
X128414Y463920D01*
X131390Y466896D01*
X138303Y466896D01*
X138393Y466910D01*
X138484Y466918D01*
X138514Y466930D01*
X138546Y466935D01*
X138627Y466978D01*
X138710Y467014D01*
X138743Y467040D01*
X138763Y467051D01*
X138777Y467065D01*
X138778Y467066D01*
X138789Y467076D01*
X138841Y467119D01*
X194617Y522895D01*
X194674Y522974D01*
X194736Y523049D01*
X194746Y523073D01*
X194761Y523094D01*
X194789Y523187D01*
X194824Y523278D01*
X194826Y523304D01*
X194833Y523329D01*
X194831Y523427D01*
X194835Y523524D01*
X194828Y523549D01*
X194827Y523575D01*
X194793Y523667D01*
X194766Y523760D01*
X194751Y523782D01*
X194742Y523806D01*
X194682Y523882D01*
X194626Y523962D01*
X194605Y523978D01*
X194589Y523998D01*
X194507Y524051D01*
X194429Y524109D01*
X194404Y524117D01*
X194382Y524131D01*
X194287Y524155D01*
X194195Y524185D01*
X194169Y524185D01*
X194143Y524191D01*
X194046Y524184D01*
X193949Y524183D01*
X193917Y524174D01*
X193898Y524172D01*
X193868Y524159D01*
X193788Y524136D01*
X192745Y523704D01*
X188255Y523704D01*
X184107Y525422D01*
X180932Y528597D01*
X179214Y532745D01*
X179214Y537235D01*
X180932Y541383D01*
X182656Y543107D01*
X182709Y543181D01*
X182769Y543250D01*
X182781Y543280D01*
X182800Y543306D01*
X182827Y543393D01*
X182861Y543478D01*
X182865Y543519D01*
X182872Y543542D01*
X182871Y543574D01*
X182879Y543645D01*
X182879Y593777D01*
X182865Y593867D01*
X182857Y593958D01*
X182845Y593988D01*
X182840Y594019D01*
X182797Y594100D01*
X182761Y594184D01*
X182735Y594216D01*
X182724Y594237D01*
X182701Y594259D01*
X182656Y594315D01*
X180594Y596377D01*
X178815Y600672D01*
X178815Y618528D01*
X180594Y622823D01*
X183881Y626110D01*
X188176Y627889D01*
X192824Y627889D01*
X197119Y626110D01*
X200406Y622823D01*
X202185Y618528D01*
X202185Y600672D01*
X200406Y596377D01*
X198344Y594315D01*
X198291Y594241D01*
X198231Y594172D01*
X198219Y594142D01*
X198200Y594115D01*
X198173Y594028D01*
X198139Y593943D01*
X198135Y593903D01*
X198128Y593880D01*
X198129Y593848D01*
X198121Y593777D01*
X198121Y543645D01*
X198135Y543555D01*
X198143Y543464D01*
X198155Y543434D01*
X198160Y543402D01*
X198203Y543322D01*
X198239Y543238D01*
X198265Y543206D01*
X198276Y543185D01*
X198299Y543163D01*
X198344Y543107D01*
X200068Y541383D01*
X201786Y537235D01*
X201786Y532745D01*
X200298Y529153D01*
X200281Y529083D01*
X200256Y529016D01*
X200254Y528964D01*
X200242Y528914D01*
X200248Y528842D01*
X200245Y528771D01*
X200260Y528721D01*
X200265Y528669D01*
X200294Y528603D01*
X200314Y528534D01*
X200344Y528492D01*
X200365Y528444D01*
X200413Y528391D01*
X200454Y528332D01*
X200496Y528301D01*
X200531Y528263D01*
X200594Y528228D01*
X200652Y528186D01*
X200701Y528169D01*
X200747Y528144D01*
X200817Y528132D01*
X200885Y528109D01*
X200937Y528110D01*
X200989Y528101D01*
X201060Y528111D01*
X201131Y528112D01*
X201200Y528132D01*
X201232Y528136D01*
X201253Y528147D01*
X201293Y528159D01*
X201684Y528321D01*
X205308Y528321D01*
X205353Y528328D01*
X205399Y528326D01*
X205474Y528348D01*
X205550Y528360D01*
X205591Y528382D01*
X205635Y528395D01*
X205699Y528439D01*
X205768Y528476D01*
X205799Y528509D01*
X205837Y528535D01*
X205884Y528598D01*
X205937Y528654D01*
X205956Y528696D01*
X205984Y528732D01*
X206008Y528806D01*
X206041Y528877D01*
X206046Y528923D01*
X206060Y528966D01*
X206059Y529044D01*
X206068Y529121D01*
X206058Y529166D01*
X206058Y529212D01*
X206020Y529344D01*
X206016Y529362D01*
X206013Y529366D01*
X206011Y529373D01*
X204614Y532745D01*
X204614Y537235D01*
X206332Y541383D01*
X208056Y543107D01*
X208109Y543181D01*
X208169Y543250D01*
X208181Y543280D01*
X208200Y543307D01*
X208227Y543393D01*
X208261Y543478D01*
X208265Y543519D01*
X208272Y543542D01*
X208271Y543574D01*
X208279Y543645D01*
X208279Y593777D01*
X208265Y593867D01*
X208257Y593958D01*
X208245Y593987D01*
X208240Y594019D01*
X208197Y594100D01*
X208161Y594184D01*
X208135Y594216D01*
X208124Y594237D01*
X208101Y594259D01*
X208056Y594315D01*
X205994Y596377D01*
X204215Y600672D01*
X204215Y618528D01*
X205994Y622823D01*
X209281Y626110D01*
X213576Y627889D01*
X218224Y627889D01*
X221422Y626564D01*
X221536Y626537D01*
X221649Y626509D01*
X221656Y626509D01*
X221662Y626508D01*
X221778Y626519D01*
X221895Y626528D01*
X221900Y626530D01*
X221907Y626531D01*
X222014Y626579D01*
X222121Y626624D01*
X222127Y626629D01*
X222131Y626631D01*
X222145Y626644D01*
X222252Y626729D01*
X228382Y632860D01*
X230633Y635111D01*
X232720Y635975D01*
X232802Y636026D01*
X232888Y636072D01*
X232906Y636091D01*
X232929Y636104D01*
X232991Y636179D01*
X233058Y636250D01*
X233069Y636274D01*
X233085Y636294D01*
X233120Y636385D01*
X233161Y636473D01*
X233164Y636499D01*
X233174Y636523D01*
X233178Y636621D01*
X233188Y636717D01*
X233183Y636743D01*
X233184Y636769D01*
X233157Y636863D01*
X233136Y636958D01*
X233123Y636980D01*
X233115Y637005D01*
X233060Y637085D01*
X233010Y637169D01*
X232990Y637186D01*
X232975Y637207D01*
X232897Y637266D01*
X232823Y637329D01*
X232799Y637339D01*
X232778Y637354D01*
X232685Y637384D01*
X232595Y637421D01*
X232562Y637424D01*
X232544Y637430D01*
X232511Y637430D01*
X232428Y637439D01*
X10922Y637439D01*
X10902Y637436D01*
X10883Y637438D01*
X10781Y637416D01*
X10679Y637400D01*
X10662Y637390D01*
X10642Y637386D01*
X10553Y637333D01*
X10462Y637284D01*
X10448Y637270D01*
X10431Y637260D01*
X10364Y637181D01*
X10292Y637106D01*
X10284Y637088D01*
X10271Y637073D01*
X10232Y636977D01*
X10189Y636883D01*
X10187Y636863D01*
X10179Y636845D01*
X10161Y636678D01*
X10161Y632027D01*
X10172Y631957D01*
X10174Y631885D01*
X10192Y631836D01*
X10200Y631784D01*
X10234Y631721D01*
X10259Y631654D01*
X10291Y631613D01*
X10316Y631567D01*
X10368Y631518D01*
X10412Y631462D01*
X10456Y631434D01*
X10494Y631398D01*
X10559Y631368D01*
X10619Y631329D01*
X10670Y631316D01*
X10717Y631294D01*
X10788Y631286D01*
X10858Y631269D01*
X10910Y631273D01*
X10961Y631267D01*
X11032Y631282D01*
X11103Y631288D01*
X11151Y631308D01*
X11202Y631319D01*
X11263Y631356D01*
X11329Y631384D01*
X11385Y631429D01*
X11413Y631445D01*
X11428Y631463D01*
X11460Y631489D01*
X12177Y632206D01*
X16472Y633985D01*
X34328Y633985D01*
X38623Y632206D01*
X41910Y628919D01*
X43689Y624624D01*
X43689Y619976D01*
X41910Y615681D01*
X38623Y612394D01*
X34328Y610615D01*
X33782Y610615D01*
X33762Y610612D01*
X33743Y610614D01*
X33641Y610592D01*
X33539Y610576D01*
X33522Y610566D01*
X33502Y610562D01*
X33413Y610509D01*
X33322Y610460D01*
X33308Y610446D01*
X33291Y610436D01*
X33224Y610357D01*
X33152Y610282D01*
X33144Y610264D01*
X33131Y610249D01*
X33092Y610153D01*
X33049Y610059D01*
X33047Y610039D01*
X33039Y610021D01*
X33021Y609854D01*
X33021Y609346D01*
X33024Y609326D01*
X33022Y609307D01*
X33044Y609205D01*
X33060Y609103D01*
X33070Y609086D01*
X33074Y609066D01*
X33127Y608977D01*
X33176Y608886D01*
X33190Y608872D01*
X33200Y608855D01*
X33279Y608788D01*
X33354Y608716D01*
X33372Y608708D01*
X33387Y608695D01*
X33483Y608656D01*
X33577Y608613D01*
X33597Y608611D01*
X33615Y608603D01*
X33782Y608585D01*
X34328Y608585D01*
X38623Y606806D01*
X41910Y603519D01*
X43689Y599224D01*
X43689Y594576D01*
X41910Y590281D01*
X38623Y586994D01*
X34328Y585215D01*
X16472Y585215D01*
X12177Y586994D01*
X11460Y587711D01*
X11402Y587753D01*
X11350Y587802D01*
X11303Y587824D01*
X11261Y587855D01*
X11192Y587876D01*
X11127Y587906D01*
X11075Y587912D01*
X11025Y587927D01*
X10954Y587925D01*
X10883Y587933D01*
X10832Y587922D01*
X10780Y587921D01*
X10712Y587896D01*
X10642Y587881D01*
X10597Y587854D01*
X10549Y587836D01*
X10493Y587791D01*
X10431Y587755D01*
X10397Y587715D01*
X10357Y587682D01*
X10318Y587622D01*
X10271Y587568D01*
X10252Y587519D01*
X10224Y587476D01*
X10206Y587406D01*
X10179Y587339D01*
X10171Y587268D01*
X10163Y587237D01*
X10165Y587214D01*
X10161Y587173D01*
X10161Y577546D01*
X10164Y577523D01*
X10162Y577500D01*
X10184Y577402D01*
X10200Y577303D01*
X10211Y577283D01*
X10216Y577260D01*
X10269Y577175D01*
X10316Y577086D01*
X10332Y577070D01*
X10344Y577050D01*
X10421Y576986D01*
X10494Y576916D01*
X10515Y576907D01*
X10532Y576892D01*
X10626Y576855D01*
X10717Y576813D01*
X10740Y576810D01*
X10761Y576802D01*
X10862Y576797D01*
X10961Y576786D01*
X10984Y576791D01*
X11007Y576789D01*
X11104Y576817D01*
X11202Y576838D01*
X11222Y576850D01*
X11244Y576856D01*
X11327Y576913D01*
X11413Y576964D01*
X11428Y576982D01*
X11447Y576995D01*
X11555Y577123D01*
X11693Y577329D01*
X12966Y578603D01*
X14464Y579604D01*
X16129Y580293D01*
X17895Y580645D01*
X23877Y580645D01*
X23877Y572262D01*
X23880Y572242D01*
X23878Y572223D01*
X23900Y572121D01*
X23917Y572019D01*
X23926Y572002D01*
X23930Y571982D01*
X23983Y571893D01*
X24032Y571802D01*
X24046Y571788D01*
X24056Y571771D01*
X24135Y571704D01*
X24210Y571633D01*
X24228Y571624D01*
X24243Y571611D01*
X24339Y571573D01*
X24433Y571529D01*
X24453Y571527D01*
X24471Y571519D01*
X24638Y571501D01*
X25401Y571501D01*
X25401Y571499D01*
X24638Y571499D01*
X24618Y571496D01*
X24599Y571498D01*
X24497Y571476D01*
X24395Y571459D01*
X24378Y571450D01*
X24358Y571446D01*
X24269Y571393D01*
X24178Y571344D01*
X24164Y571330D01*
X24147Y571320D01*
X24080Y571241D01*
X24009Y571166D01*
X24000Y571148D01*
X23987Y571133D01*
X23948Y571037D01*
X23905Y570943D01*
X23903Y570923D01*
X23895Y570905D01*
X23877Y570738D01*
X23877Y562355D01*
X17895Y562355D01*
X16129Y562707D01*
X14464Y563396D01*
X12966Y564397D01*
X11693Y565671D01*
X11555Y565877D01*
X11539Y565894D01*
X11528Y565914D01*
X11456Y565983D01*
X11387Y566057D01*
X11367Y566068D01*
X11350Y566084D01*
X11259Y566126D01*
X11171Y566174D01*
X11148Y566177D01*
X11127Y566187D01*
X11027Y566198D01*
X10928Y566215D01*
X10905Y566212D01*
X10883Y566214D01*
X10784Y566193D01*
X10685Y566177D01*
X10665Y566167D01*
X10642Y566162D01*
X10556Y566110D01*
X10467Y566064D01*
X10451Y566048D01*
X10431Y566036D01*
X10366Y565960D01*
X10296Y565887D01*
X10286Y565866D01*
X10271Y565849D01*
X10233Y565755D01*
X10191Y565665D01*
X10188Y565642D01*
X10179Y565621D01*
X10161Y565454D01*
X10161Y552146D01*
X10162Y552136D01*
X10162Y552131D01*
X10164Y552120D01*
X10162Y552100D01*
X10184Y552002D01*
X10200Y551903D01*
X10211Y551883D01*
X10216Y551860D01*
X10269Y551775D01*
X10316Y551686D01*
X10332Y551670D01*
X10344Y551650D01*
X10421Y551586D01*
X10494Y551516D01*
X10515Y551507D01*
X10532Y551492D01*
X10626Y551455D01*
X10717Y551413D01*
X10740Y551410D01*
X10761Y551402D01*
X10862Y551397D01*
X10961Y551386D01*
X10984Y551391D01*
X11007Y551389D01*
X11104Y551417D01*
X11202Y551438D01*
X11222Y551450D01*
X11244Y551456D01*
X11327Y551513D01*
X11413Y551564D01*
X11428Y551582D01*
X11447Y551595D01*
X11555Y551723D01*
X11693Y551929D01*
X12966Y553203D01*
X14464Y554204D01*
X16129Y554893D01*
X17895Y555245D01*
X23877Y555245D01*
X23877Y546862D01*
X23880Y546842D01*
X23878Y546823D01*
X23900Y546721D01*
X23917Y546619D01*
X23926Y546602D01*
X23930Y546582D01*
X23983Y546493D01*
X24032Y546402D01*
X24046Y546388D01*
X24056Y546371D01*
X24135Y546304D01*
X24210Y546233D01*
X24228Y546224D01*
X24243Y546211D01*
X24339Y546173D01*
X24433Y546129D01*
X24453Y546127D01*
X24471Y546119D01*
X24638Y546101D01*
X25401Y546101D01*
X25401Y546099D01*
X24638Y546099D01*
X24618Y546096D01*
X24599Y546098D01*
X24497Y546076D01*
X24395Y546059D01*
X24378Y546050D01*
X24358Y546046D01*
X24269Y545993D01*
X24178Y545944D01*
X24164Y545930D01*
X24147Y545920D01*
X24080Y545841D01*
X24009Y545766D01*
X24000Y545748D01*
X23987Y545733D01*
X23948Y545637D01*
X23905Y545543D01*
X23903Y545523D01*
X23895Y545505D01*
X23877Y545338D01*
X23877Y536955D01*
X17895Y536955D01*
X16129Y537307D01*
X14464Y537996D01*
X12966Y538997D01*
X11693Y540271D01*
X11555Y540477D01*
X11539Y540494D01*
X11528Y540514D01*
X11456Y540583D01*
X11387Y540657D01*
X11367Y540668D01*
X11350Y540684D01*
X11259Y540726D01*
X11171Y540774D01*
X11148Y540777D01*
X11127Y540787D01*
X11027Y540798D01*
X10928Y540815D01*
X10905Y540812D01*
X10883Y540814D01*
X10784Y540793D01*
X10685Y540777D01*
X10665Y540767D01*
X10642Y540762D01*
X10556Y540710D01*
X10467Y540664D01*
X10451Y540648D01*
X10431Y540636D01*
X10366Y540560D01*
X10296Y540487D01*
X10286Y540466D01*
X10271Y540449D01*
X10233Y540355D01*
X10191Y540265D01*
X10188Y540242D01*
X10179Y540221D01*
X10161Y540054D01*
X10161Y526746D01*
X10164Y526723D01*
X10162Y526700D01*
X10184Y526602D01*
X10200Y526503D01*
X10211Y526483D01*
X10216Y526460D01*
X10269Y526374D01*
X10316Y526286D01*
X10332Y526270D01*
X10344Y526250D01*
X10421Y526185D01*
X10494Y526116D01*
X10515Y526107D01*
X10533Y526092D01*
X10626Y526055D01*
X10717Y526013D01*
X10740Y526010D01*
X10761Y526002D01*
X10862Y525997D01*
X10961Y525986D01*
X10984Y525991D01*
X11007Y525989D01*
X11104Y526017D01*
X11202Y526038D01*
X11222Y526050D01*
X11244Y526056D01*
X11327Y526113D01*
X11413Y526164D01*
X11428Y526182D01*
X11447Y526195D01*
X11555Y526323D01*
X11693Y526530D01*
X12966Y527803D01*
X14464Y528804D01*
X16129Y529493D01*
X17895Y529845D01*
X23877Y529845D01*
X23877Y521462D01*
X23880Y521442D01*
X23878Y521423D01*
X23900Y521321D01*
X23917Y521219D01*
X23926Y521202D01*
X23930Y521182D01*
X23983Y521093D01*
X24032Y521002D01*
X24046Y520988D01*
X24056Y520971D01*
X24135Y520904D01*
X24210Y520833D01*
X24228Y520824D01*
X24243Y520811D01*
X24339Y520773D01*
X24433Y520729D01*
X24453Y520727D01*
X24471Y520719D01*
X24638Y520701D01*
X25401Y520701D01*
X25401Y520699D01*
X24638Y520699D01*
X24618Y520696D01*
X24599Y520698D01*
X24497Y520676D01*
X24395Y520659D01*
X24378Y520650D01*
X24358Y520646D01*
X24269Y520593D01*
X24178Y520544D01*
X24164Y520530D01*
X24147Y520520D01*
X24080Y520441D01*
X24009Y520366D01*
X24000Y520348D01*
X23987Y520333D01*
X23948Y520237D01*
X23905Y520143D01*
X23903Y520123D01*
X23895Y520105D01*
X23877Y519938D01*
X23877Y511555D01*
X17895Y511555D01*
X16129Y511907D01*
X14464Y512596D01*
X12966Y513597D01*
X11693Y514870D01*
X11555Y515077D01*
X11539Y515094D01*
X11528Y515114D01*
X11456Y515183D01*
X11387Y515257D01*
X11367Y515268D01*
X11350Y515284D01*
X11259Y515326D01*
X11171Y515374D01*
X11148Y515377D01*
X11127Y515387D01*
X11027Y515398D01*
X10928Y515415D01*
X10905Y515412D01*
X10883Y515414D01*
X10784Y515393D01*
X10685Y515378D01*
X10665Y515367D01*
X10642Y515362D01*
X10556Y515310D01*
X10467Y515264D01*
X10451Y515248D01*
X10431Y515236D01*
X10366Y515159D01*
X10296Y515087D01*
X10286Y515066D01*
X10271Y515049D01*
X10234Y514956D01*
X10191Y514865D01*
X10188Y514842D01*
X10179Y514821D01*
X10161Y514654D01*
X10161Y501346D01*
X10164Y501323D01*
X10162Y501300D01*
X10184Y501202D01*
X10200Y501103D01*
X10211Y501083D01*
X10216Y501060D01*
X10269Y500974D01*
X10316Y500886D01*
X10332Y500870D01*
X10344Y500850D01*
X10421Y500785D01*
X10494Y500716D01*
X10515Y500707D01*
X10533Y500692D01*
X10626Y500655D01*
X10717Y500613D01*
X10740Y500610D01*
X10761Y500602D01*
X10862Y500597D01*
X10961Y500586D01*
X10984Y500591D01*
X11007Y500589D01*
X11104Y500617D01*
X11202Y500638D01*
X11222Y500650D01*
X11244Y500656D01*
X11327Y500713D01*
X11413Y500764D01*
X11428Y500782D01*
X11447Y500795D01*
X11555Y500923D01*
X11693Y501130D01*
X12966Y502403D01*
X14464Y503404D01*
X16129Y504093D01*
X17895Y504445D01*
X23877Y504445D01*
X23877Y496062D01*
X23880Y496042D01*
X23878Y496023D01*
X23900Y495921D01*
X23917Y495819D01*
X23926Y495802D01*
X23930Y495782D01*
X23983Y495693D01*
X24032Y495602D01*
X24046Y495588D01*
X24056Y495571D01*
X24135Y495504D01*
X24210Y495433D01*
X24228Y495424D01*
X24243Y495411D01*
X24339Y495373D01*
X24433Y495329D01*
X24453Y495327D01*
X24471Y495319D01*
X24638Y495301D01*
X25401Y495301D01*
X25401Y495299D01*
X24638Y495299D01*
X24618Y495296D01*
X24599Y495298D01*
X24497Y495276D01*
X24395Y495259D01*
X24378Y495250D01*
X24358Y495246D01*
X24269Y495193D01*
X24178Y495144D01*
X24164Y495130D01*
X24147Y495120D01*
X24080Y495041D01*
X24009Y494966D01*
X24000Y494948D01*
X23987Y494933D01*
X23948Y494837D01*
X23905Y494743D01*
X23903Y494723D01*
X23895Y494705D01*
X23877Y494538D01*
X23877Y486155D01*
X17895Y486155D01*
X16129Y486507D01*
X14464Y487196D01*
X12966Y488197D01*
X11693Y489470D01*
X11555Y489677D01*
X11539Y489694D01*
X11528Y489714D01*
X11456Y489783D01*
X11387Y489857D01*
X11367Y489868D01*
X11350Y489884D01*
X11259Y489926D01*
X11171Y489974D01*
X11148Y489977D01*
X11127Y489987D01*
X11027Y489998D01*
X10928Y490015D01*
X10905Y490012D01*
X10883Y490014D01*
X10784Y489993D01*
X10685Y489978D01*
X10665Y489967D01*
X10642Y489962D01*
X10556Y489910D01*
X10467Y489864D01*
X10451Y489848D01*
X10431Y489836D01*
X10366Y489759D01*
X10296Y489687D01*
X10286Y489666D01*
X10271Y489649D01*
X10234Y489556D01*
X10191Y489465D01*
X10188Y489442D01*
X10179Y489421D01*
X10161Y489254D01*
X10161Y479627D01*
X10172Y479557D01*
X10174Y479485D01*
X10192Y479436D01*
X10200Y479384D01*
X10234Y479321D01*
X10259Y479254D01*
X10291Y479213D01*
X10316Y479167D01*
X10368Y479118D01*
X10412Y479062D01*
X10456Y479034D01*
X10494Y478998D01*
X10559Y478968D01*
X10619Y478929D01*
X10670Y478916D01*
X10717Y478894D01*
X10788Y478886D01*
X10858Y478869D01*
X10910Y478873D01*
X10961Y478867D01*
X11032Y478882D01*
X11103Y478888D01*
X11151Y478908D01*
X11202Y478919D01*
X11263Y478956D01*
X11329Y478984D01*
X11385Y479029D01*
X11413Y479045D01*
X11428Y479063D01*
X11460Y479089D01*
X12177Y479806D01*
X16472Y481585D01*
X34328Y481585D01*
X38623Y479806D01*
X41910Y476519D01*
X43689Y472224D01*
X43689Y467576D01*
X41910Y463281D01*
X38623Y459994D01*
X36031Y458920D01*
X35931Y458859D01*
X35831Y458799D01*
X35827Y458794D01*
X35822Y458791D01*
X35747Y458701D01*
X35671Y458612D01*
X35669Y458606D01*
X35665Y458601D01*
X35623Y458493D01*
X35579Y458384D01*
X35578Y458376D01*
X35577Y458372D01*
X35576Y458353D01*
X35561Y458217D01*
X35561Y456183D01*
X35580Y456068D01*
X35597Y455952D01*
X35599Y455946D01*
X35600Y455940D01*
X35655Y455837D01*
X35708Y455733D01*
X35713Y455728D01*
X35716Y455723D01*
X35800Y455643D01*
X35884Y455560D01*
X35890Y455557D01*
X35894Y455553D01*
X35911Y455546D01*
X36031Y455480D01*
X38623Y454406D01*
X41910Y451119D01*
X43689Y446824D01*
X43689Y442176D01*
X41910Y437881D01*
X38623Y434594D01*
X34328Y432815D01*
X16472Y432815D01*
X12177Y434594D01*
X11460Y435311D01*
X11402Y435353D01*
X11350Y435402D01*
X11303Y435424D01*
X11261Y435455D01*
X11192Y435476D01*
X11127Y435506D01*
X11075Y435512D01*
X11025Y435527D01*
X10954Y435525D01*
X10883Y435533D01*
X10832Y435522D01*
X10780Y435521D01*
X10712Y435496D01*
X10642Y435481D01*
X10597Y435454D01*
X10549Y435436D01*
X10493Y435391D01*
X10431Y435355D01*
X10397Y435315D01*
X10357Y435282D01*
X10318Y435222D01*
X10271Y435168D01*
X10252Y435119D01*
X10224Y435076D01*
X10206Y435006D01*
X10179Y434939D01*
X10171Y434868D01*
X10163Y434837D01*
X10165Y434814D01*
X10161Y434773D01*
X10161Y389518D01*
X10163Y389506D01*
X10161Y389494D01*
X10182Y389385D01*
X10200Y389275D01*
X10206Y389264D01*
X10208Y389253D01*
X10264Y389156D01*
X10316Y389058D01*
X10324Y389049D01*
X10330Y389039D01*
X10413Y388965D01*
X10494Y388888D01*
X10505Y388883D01*
X10514Y388875D01*
X10616Y388831D01*
X10717Y388785D01*
X10729Y388783D01*
X10740Y388778D01*
X10851Y388770D01*
X10961Y388757D01*
X10973Y388760D01*
X10985Y388759D01*
X11093Y388786D01*
X11202Y388810D01*
X11212Y388816D01*
X11224Y388819D01*
X11369Y388902D01*
X12455Y389690D01*
X13880Y390416D01*
X15401Y390911D01*
X16980Y391161D01*
X23877Y391161D01*
X23877Y381762D01*
X23880Y381742D01*
X23878Y381723D01*
X23900Y381621D01*
X23917Y381519D01*
X23926Y381502D01*
X23930Y381482D01*
X23983Y381393D01*
X24032Y381302D01*
X24046Y381288D01*
X24056Y381271D01*
X24135Y381204D01*
X24210Y381133D01*
X24228Y381124D01*
X24243Y381111D01*
X24339Y381073D01*
X24433Y381029D01*
X24453Y381027D01*
X24471Y381019D01*
X24638Y381001D01*
X25401Y381001D01*
X25401Y380999D01*
X24638Y380999D01*
X24618Y380996D01*
X24599Y380998D01*
X24497Y380976D01*
X24395Y380959D01*
X24378Y380950D01*
X24358Y380946D01*
X24269Y380893D01*
X24178Y380844D01*
X24164Y380830D01*
X24147Y380820D01*
X24080Y380741D01*
X24009Y380666D01*
X24000Y380648D01*
X23987Y380633D01*
X23948Y380537D01*
X23905Y380443D01*
X23903Y380423D01*
X23895Y380405D01*
X23877Y380238D01*
X23877Y370839D01*
X16980Y370839D01*
X15401Y371089D01*
X13880Y371584D01*
X12455Y372310D01*
X11369Y373098D01*
X11359Y373104D01*
X11350Y373112D01*
X11249Y373159D01*
X11150Y373209D01*
X11138Y373210D01*
X11127Y373215D01*
X11016Y373228D01*
X10906Y373243D01*
X10894Y373241D01*
X10883Y373243D01*
X10774Y373219D01*
X10664Y373199D01*
X10654Y373193D01*
X10642Y373190D01*
X10546Y373133D01*
X10449Y373079D01*
X10441Y373070D01*
X10431Y373064D01*
X10359Y372979D01*
X10284Y372897D01*
X10279Y372886D01*
X10271Y372877D01*
X10229Y372774D01*
X10185Y372672D01*
X10184Y372660D01*
X10179Y372649D01*
X10161Y372482D01*
X10161Y367330D01*
X10168Y367285D01*
X10166Y367239D01*
X10188Y367164D01*
X10200Y367088D01*
X10222Y367047D01*
X10235Y367003D01*
X10279Y366939D01*
X10316Y366870D01*
X10349Y366839D01*
X10375Y366801D01*
X10438Y366755D01*
X10494Y366701D01*
X10536Y366682D01*
X10572Y366654D01*
X10646Y366630D01*
X10717Y366597D01*
X10763Y366592D01*
X10806Y366578D01*
X10884Y366579D01*
X10961Y366570D01*
X11006Y366580D01*
X11052Y366580D01*
X11184Y366619D01*
X11202Y366622D01*
X11206Y366625D01*
X11213Y366627D01*
X15254Y368301D01*
X35546Y368301D01*
X40214Y366367D01*
X43787Y362794D01*
X45721Y358126D01*
X45721Y356786D01*
X45732Y356715D01*
X45734Y356643D01*
X45752Y356594D01*
X45760Y356543D01*
X45794Y356480D01*
X45819Y356412D01*
X45851Y356372D01*
X45876Y356326D01*
X45928Y356276D01*
X45972Y356220D01*
X46016Y356192D01*
X46054Y356156D01*
X46119Y356126D01*
X46179Y356087D01*
X46230Y356075D01*
X46277Y356053D01*
X46348Y356045D01*
X46418Y356027D01*
X46470Y356031D01*
X46521Y356026D01*
X46592Y356041D01*
G37*
G36*
X396831Y388632D02*
X396831Y388632D01*
X396902Y388634D01*
X396951Y388652D01*
X397003Y388660D01*
X397066Y388694D01*
X397133Y388719D01*
X397174Y388751D01*
X397220Y388776D01*
X397269Y388828D01*
X397325Y388872D01*
X397354Y388916D01*
X397389Y388954D01*
X397420Y389019D01*
X397458Y389079D01*
X397471Y389130D01*
X397493Y389177D01*
X397501Y389248D01*
X397518Y389318D01*
X397514Y389370D01*
X397520Y389421D01*
X397505Y389492D01*
X397499Y389563D01*
X397479Y389611D01*
X397468Y389662D01*
X397431Y389723D01*
X397403Y389789D01*
X397358Y389845D01*
X397342Y389873D01*
X397324Y389888D01*
X397298Y389920D01*
X395633Y391586D01*
X393699Y396254D01*
X393699Y416546D01*
X395633Y421214D01*
X399206Y424787D01*
X403874Y426721D01*
X408926Y426721D01*
X413594Y424787D01*
X417167Y421214D01*
X419101Y416546D01*
X419101Y396254D01*
X417167Y391586D01*
X415502Y389920D01*
X415460Y389862D01*
X415411Y389810D01*
X415389Y389763D01*
X415358Y389721D01*
X415337Y389652D01*
X415307Y389587D01*
X415301Y389535D01*
X415286Y389485D01*
X415288Y389414D01*
X415280Y389343D01*
X415291Y389292D01*
X415292Y389240D01*
X415317Y389172D01*
X415332Y389102D01*
X415359Y389057D01*
X415377Y389009D01*
X415422Y388953D01*
X415458Y388891D01*
X415498Y388857D01*
X415530Y388817D01*
X415591Y388778D01*
X415645Y388731D01*
X415694Y388712D01*
X415737Y388684D01*
X415807Y388666D01*
X415873Y388639D01*
X415945Y388631D01*
X415976Y388623D01*
X415999Y388625D01*
X416040Y388621D01*
X460260Y388621D01*
X460331Y388632D01*
X460402Y388634D01*
X460451Y388652D01*
X460503Y388660D01*
X460566Y388694D01*
X460633Y388719D01*
X460674Y388751D01*
X460720Y388776D01*
X460769Y388828D01*
X460825Y388872D01*
X460854Y388916D01*
X460889Y388954D01*
X460920Y389019D01*
X460958Y389079D01*
X460971Y389130D01*
X460993Y389177D01*
X461001Y389248D01*
X461018Y389318D01*
X461014Y389370D01*
X461020Y389421D01*
X461005Y389492D01*
X460999Y389563D01*
X460979Y389611D01*
X460968Y389662D01*
X460931Y389723D01*
X460903Y389789D01*
X460858Y389845D01*
X460842Y389873D01*
X460824Y389888D01*
X460798Y389920D01*
X459133Y391586D01*
X457199Y396254D01*
X457199Y416546D01*
X459133Y421214D01*
X462706Y424787D01*
X467374Y426721D01*
X472426Y426721D01*
X477094Y424787D01*
X480667Y421214D01*
X482601Y416546D01*
X482601Y396254D01*
X480667Y391586D01*
X479002Y389920D01*
X478960Y389862D01*
X478911Y389810D01*
X478889Y389763D01*
X478858Y389721D01*
X478837Y389652D01*
X478807Y389587D01*
X478801Y389535D01*
X478786Y389485D01*
X478788Y389414D01*
X478780Y389343D01*
X478791Y389292D01*
X478792Y389240D01*
X478817Y389172D01*
X478832Y389102D01*
X478859Y389057D01*
X478877Y389009D01*
X478922Y388953D01*
X478958Y388891D01*
X478998Y388857D01*
X479030Y388817D01*
X479091Y388778D01*
X479145Y388731D01*
X479194Y388712D01*
X479237Y388684D01*
X479307Y388666D01*
X479373Y388639D01*
X479445Y388631D01*
X479476Y388623D01*
X479499Y388625D01*
X479540Y388621D01*
X523760Y388621D01*
X523831Y388632D01*
X523902Y388634D01*
X523951Y388652D01*
X524003Y388660D01*
X524066Y388694D01*
X524133Y388719D01*
X524174Y388751D01*
X524220Y388776D01*
X524269Y388828D01*
X524325Y388872D01*
X524354Y388916D01*
X524389Y388954D01*
X524420Y389019D01*
X524458Y389079D01*
X524471Y389130D01*
X524493Y389177D01*
X524501Y389248D01*
X524518Y389318D01*
X524514Y389370D01*
X524520Y389421D01*
X524505Y389492D01*
X524499Y389563D01*
X524479Y389611D01*
X524468Y389662D01*
X524431Y389723D01*
X524403Y389789D01*
X524358Y389845D01*
X524342Y389873D01*
X524324Y389888D01*
X524298Y389920D01*
X522633Y391586D01*
X520699Y396254D01*
X520699Y416546D01*
X522633Y421214D01*
X526206Y424787D01*
X530874Y426721D01*
X535926Y426721D01*
X540594Y424787D01*
X544167Y421214D01*
X544381Y420699D01*
X544432Y420616D01*
X544478Y420530D01*
X544497Y420512D01*
X544510Y420490D01*
X544585Y420428D01*
X544656Y420361D01*
X544680Y420350D01*
X544700Y420333D01*
X544791Y420298D01*
X544879Y420257D01*
X544905Y420254D01*
X544929Y420245D01*
X545027Y420241D01*
X545123Y420230D01*
X545149Y420235D01*
X545175Y420234D01*
X545269Y420261D01*
X545364Y420282D01*
X545386Y420296D01*
X545411Y420303D01*
X545491Y420358D01*
X545575Y420408D01*
X545592Y420428D01*
X545613Y420443D01*
X545672Y420521D01*
X545735Y420595D01*
X545745Y420620D01*
X545760Y420640D01*
X545790Y420733D01*
X545827Y420823D01*
X545830Y420856D01*
X545836Y420874D01*
X545836Y420907D01*
X545845Y420990D01*
X545845Y439682D01*
X545831Y439772D01*
X545823Y439863D01*
X545811Y439893D01*
X545806Y439925D01*
X545763Y440006D01*
X545727Y440089D01*
X545701Y440122D01*
X545690Y440142D01*
X545667Y440164D01*
X545622Y440220D01*
X544898Y440944D01*
X544882Y440956D01*
X544870Y440972D01*
X544782Y441028D01*
X544699Y441088D01*
X544680Y441094D01*
X544663Y441105D01*
X544562Y441130D01*
X544463Y441160D01*
X544444Y441160D01*
X544424Y441165D01*
X544321Y441157D01*
X544218Y441154D01*
X544199Y441147D01*
X544179Y441146D01*
X544084Y441105D01*
X543987Y441070D01*
X543971Y441057D01*
X543953Y441049D01*
X543822Y440944D01*
X542815Y439937D01*
X525905Y439937D01*
X522929Y442913D01*
X522929Y458583D01*
X522917Y458657D01*
X522914Y458733D01*
X522897Y458778D01*
X522890Y458825D01*
X522854Y458892D01*
X522827Y458963D01*
X522789Y459015D01*
X522774Y459043D01*
X522756Y459060D01*
X522728Y459098D01*
X515211Y467259D01*
X515202Y467267D01*
X515190Y467282D01*
X514240Y468232D01*
X514229Y468257D01*
X514203Y468299D01*
X514185Y468346D01*
X514113Y468444D01*
X514100Y468466D01*
X514093Y468471D01*
X514086Y468481D01*
X514068Y468501D01*
X513605Y469763D01*
X513599Y469773D01*
X513593Y469792D01*
X513079Y471033D01*
X513079Y471060D01*
X513071Y471109D01*
X513073Y471159D01*
X513044Y471278D01*
X513040Y471303D01*
X513036Y471310D01*
X513033Y471322D01*
X513023Y471347D01*
X513079Y472690D01*
X513077Y472702D01*
X513079Y472721D01*
X513079Y510286D01*
X513076Y510306D01*
X513078Y510325D01*
X513056Y510427D01*
X513040Y510529D01*
X513030Y510546D01*
X513026Y510566D01*
X512973Y510655D01*
X512924Y510746D01*
X512910Y510760D01*
X512900Y510777D01*
X512821Y510844D01*
X512746Y510916D01*
X512728Y510924D01*
X512713Y510937D01*
X512617Y510976D01*
X512523Y511019D01*
X512503Y511021D01*
X512485Y511029D01*
X512471Y511030D01*
X508882Y512517D01*
X507101Y514298D01*
X507085Y514309D01*
X507073Y514325D01*
X506986Y514381D01*
X506902Y514441D01*
X506883Y514447D01*
X506866Y514458D01*
X506765Y514483D01*
X506667Y514513D01*
X506647Y514513D01*
X506627Y514518D01*
X506524Y514510D01*
X506421Y514507D01*
X506402Y514500D01*
X506382Y514499D01*
X506287Y514458D01*
X506190Y514423D01*
X506174Y514410D01*
X506156Y514402D01*
X506025Y514297D01*
X505967Y514239D01*
X503166Y513079D01*
X379484Y513079D01*
X376683Y514239D01*
X374433Y516490D01*
X374432Y516490D01*
X367441Y523481D01*
X367367Y523534D01*
X367298Y523594D01*
X367268Y523606D01*
X367242Y523625D01*
X367155Y523652D01*
X367070Y523686D01*
X367029Y523690D01*
X367007Y523697D01*
X366974Y523696D01*
X366903Y523704D01*
X366055Y523704D01*
X364273Y524442D01*
X364229Y524453D01*
X364187Y524472D01*
X364110Y524481D01*
X364034Y524499D01*
X363988Y524494D01*
X363943Y524499D01*
X363866Y524483D01*
X363789Y524475D01*
X363747Y524457D01*
X363702Y524447D01*
X363635Y524407D01*
X363564Y524375D01*
X363530Y524344D01*
X363491Y524321D01*
X363440Y524262D01*
X363383Y524209D01*
X363361Y524169D01*
X363331Y524134D01*
X363302Y524062D01*
X363265Y523994D01*
X363256Y523948D01*
X363239Y523906D01*
X363224Y523770D01*
X363221Y523751D01*
X363222Y523746D01*
X363221Y523739D01*
X363221Y473372D01*
X363235Y473282D01*
X363243Y473191D01*
X363255Y473161D01*
X363260Y473129D01*
X363303Y473048D01*
X363339Y472965D01*
X363365Y472932D01*
X363376Y472912D01*
X363399Y472890D01*
X363444Y472834D01*
X369159Y467119D01*
X369233Y467066D01*
X369302Y467006D01*
X369332Y466994D01*
X369358Y466975D01*
X369445Y466948D01*
X369530Y466914D01*
X369571Y466910D01*
X369593Y466903D01*
X369626Y466904D01*
X369697Y466896D01*
X370545Y466896D01*
X374693Y465178D01*
X377868Y462003D01*
X379586Y457855D01*
X379586Y453365D01*
X377868Y449217D01*
X374693Y446042D01*
X370545Y444324D01*
X366055Y444324D01*
X361907Y446042D01*
X358732Y449217D01*
X357014Y453365D01*
X357014Y457393D01*
X357000Y457483D01*
X356992Y457574D01*
X356980Y457604D01*
X356975Y457636D01*
X356932Y457717D01*
X356896Y457800D01*
X356870Y457833D01*
X356859Y457853D01*
X356836Y457875D01*
X356791Y457931D01*
X354995Y459727D01*
X354916Y459784D01*
X354841Y459846D01*
X354817Y459856D01*
X354796Y459871D01*
X354703Y459900D01*
X354612Y459934D01*
X354586Y459936D01*
X354561Y459943D01*
X354463Y459941D01*
X354366Y459945D01*
X354341Y459938D01*
X354315Y459937D01*
X354223Y459903D01*
X354130Y459876D01*
X354108Y459861D01*
X354084Y459852D01*
X354007Y459791D01*
X353928Y459736D01*
X353912Y459715D01*
X353892Y459699D01*
X353839Y459617D01*
X353781Y459539D01*
X353773Y459514D01*
X353759Y459492D01*
X353735Y459397D01*
X353705Y459305D01*
X353705Y459279D01*
X353699Y459253D01*
X353706Y459156D01*
X353707Y459059D01*
X353716Y459027D01*
X353718Y459008D01*
X353731Y458978D01*
X353754Y458898D01*
X354186Y457855D01*
X354186Y453365D01*
X352468Y449217D01*
X349293Y446042D01*
X345145Y444324D01*
X340655Y444324D01*
X336507Y446042D01*
X333332Y449217D01*
X331614Y453365D01*
X331614Y457393D01*
X331600Y457483D01*
X331592Y457574D01*
X331580Y457604D01*
X331575Y457636D01*
X331532Y457717D01*
X331496Y457800D01*
X331470Y457833D01*
X331459Y457853D01*
X331436Y457875D01*
X331391Y457931D01*
X323739Y465583D01*
X322579Y468384D01*
X322579Y523739D01*
X322572Y523784D01*
X322574Y523830D01*
X322552Y523905D01*
X322540Y523982D01*
X322518Y524022D01*
X322505Y524066D01*
X322461Y524130D01*
X322424Y524199D01*
X322391Y524231D01*
X322365Y524268D01*
X322303Y524315D01*
X322246Y524369D01*
X322204Y524388D01*
X322168Y524415D01*
X322094Y524439D01*
X322023Y524472D01*
X321977Y524477D01*
X321934Y524491D01*
X321856Y524491D01*
X321779Y524499D01*
X321734Y524490D01*
X321688Y524489D01*
X321556Y524451D01*
X321538Y524447D01*
X321534Y524444D01*
X321527Y524442D01*
X319745Y523704D01*
X315255Y523704D01*
X311107Y525422D01*
X307932Y528597D01*
X306214Y532745D01*
X306214Y537235D01*
X307932Y541383D01*
X311107Y544558D01*
X315255Y546276D01*
X319745Y546276D01*
X321527Y545538D01*
X321571Y545527D01*
X321613Y545508D01*
X321690Y545499D01*
X321766Y545481D01*
X321812Y545486D01*
X321857Y545481D01*
X321934Y545497D01*
X322011Y545505D01*
X322053Y545523D01*
X322098Y545533D01*
X322165Y545573D01*
X322236Y545605D01*
X322270Y545636D01*
X322309Y545659D01*
X322360Y545718D01*
X322417Y545771D01*
X322439Y545811D01*
X322469Y545846D01*
X322498Y545918D01*
X322535Y545986D01*
X322544Y546032D01*
X322561Y546074D01*
X322576Y546210D01*
X322579Y546229D01*
X322578Y546234D01*
X322579Y546241D01*
X322579Y560197D01*
X322576Y560217D01*
X322578Y560236D01*
X322556Y560338D01*
X322540Y560440D01*
X322530Y560457D01*
X322526Y560477D01*
X322473Y560566D01*
X322424Y560657D01*
X322410Y560671D01*
X322400Y560688D01*
X322321Y560755D01*
X322246Y560827D01*
X322228Y560835D01*
X322213Y560848D01*
X322117Y560887D01*
X322023Y560930D01*
X322003Y560932D01*
X321985Y560940D01*
X321818Y560958D01*
X319023Y560958D01*
X319023Y570738D01*
X319020Y570758D01*
X319022Y570777D01*
X319000Y570879D01*
X318983Y570981D01*
X318974Y570998D01*
X318970Y571018D01*
X318917Y571107D01*
X318868Y571198D01*
X318854Y571212D01*
X318844Y571229D01*
X318765Y571296D01*
X318690Y571367D01*
X318672Y571376D01*
X318657Y571389D01*
X318561Y571427D01*
X318467Y571471D01*
X318447Y571473D01*
X318429Y571481D01*
X318262Y571499D01*
X317499Y571499D01*
X317499Y571501D01*
X318262Y571501D01*
X318282Y571504D01*
X318301Y571502D01*
X318403Y571524D01*
X318505Y571541D01*
X318522Y571550D01*
X318542Y571554D01*
X318631Y571607D01*
X318722Y571656D01*
X318736Y571670D01*
X318753Y571680D01*
X318820Y571759D01*
X318891Y571834D01*
X318900Y571852D01*
X318913Y571867D01*
X318951Y571963D01*
X318995Y572057D01*
X318997Y572077D01*
X319005Y572095D01*
X319023Y572262D01*
X319023Y582042D01*
X321867Y582042D01*
X327630Y576278D01*
X327688Y576237D01*
X327740Y576187D01*
X327787Y576165D01*
X327829Y576135D01*
X327898Y576114D01*
X327963Y576084D01*
X328015Y576078D01*
X328065Y576063D01*
X328136Y576064D01*
X328207Y576057D01*
X328258Y576068D01*
X328310Y576069D01*
X328378Y576094D01*
X328448Y576109D01*
X328493Y576136D01*
X328541Y576153D01*
X328597Y576198D01*
X328659Y576235D01*
X328693Y576275D01*
X328733Y576307D01*
X328772Y576367D01*
X328819Y576422D01*
X328838Y576470D01*
X328866Y576514D01*
X328884Y576583D01*
X328911Y576650D01*
X328919Y576721D01*
X328927Y576753D01*
X328925Y576776D01*
X328929Y576817D01*
X328929Y584284D01*
X328915Y584374D01*
X328907Y584465D01*
X328895Y584495D01*
X328890Y584527D01*
X328847Y584608D01*
X328811Y584691D01*
X328785Y584724D01*
X328774Y584744D01*
X328751Y584766D01*
X328706Y584822D01*
X321876Y591653D01*
X321781Y591721D01*
X321687Y591790D01*
X321681Y591792D01*
X321676Y591796D01*
X321565Y591830D01*
X321454Y591867D01*
X321447Y591867D01*
X321441Y591868D01*
X321325Y591865D01*
X321208Y591864D01*
X321200Y591862D01*
X321195Y591862D01*
X321178Y591856D01*
X321047Y591818D01*
X319824Y591311D01*
X315176Y591311D01*
X310881Y593090D01*
X307594Y596377D01*
X305815Y600672D01*
X305815Y618528D01*
X306415Y619977D01*
X306426Y620021D01*
X306445Y620063D01*
X306454Y620140D01*
X306471Y620216D01*
X306467Y620262D01*
X306472Y620307D01*
X306456Y620384D01*
X306448Y620461D01*
X306430Y620503D01*
X306420Y620548D01*
X306380Y620615D01*
X306348Y620686D01*
X306317Y620720D01*
X306294Y620759D01*
X306235Y620810D01*
X306182Y620867D01*
X306142Y620889D01*
X306107Y620919D01*
X306035Y620948D01*
X305966Y620985D01*
X305921Y620994D01*
X305879Y621011D01*
X305743Y621026D01*
X305724Y621029D01*
X305719Y621028D01*
X305712Y621029D01*
X303888Y621029D01*
X303843Y621022D01*
X303797Y621024D01*
X303722Y621002D01*
X303645Y620990D01*
X303605Y620968D01*
X303561Y620955D01*
X303497Y620911D01*
X303428Y620874D01*
X303396Y620841D01*
X303359Y620815D01*
X303312Y620753D01*
X303259Y620696D01*
X303239Y620654D01*
X303212Y620618D01*
X303188Y620544D01*
X303155Y620473D01*
X303150Y620427D01*
X303136Y620384D01*
X303136Y620306D01*
X303128Y620229D01*
X303138Y620184D01*
X303138Y620138D01*
X303176Y620006D01*
X303180Y619988D01*
X303183Y619984D01*
X303185Y619977D01*
X303785Y618528D01*
X303785Y600672D01*
X302006Y596377D01*
X298719Y593090D01*
X294424Y591311D01*
X289776Y591311D01*
X285481Y593090D01*
X282194Y596377D01*
X280415Y600672D01*
X280415Y618528D01*
X281015Y619977D01*
X281026Y620021D01*
X281045Y620063D01*
X281054Y620140D01*
X281071Y620216D01*
X281067Y620262D01*
X281072Y620307D01*
X281056Y620384D01*
X281048Y620461D01*
X281030Y620503D01*
X281020Y620548D01*
X280980Y620615D01*
X280948Y620686D01*
X280917Y620720D01*
X280894Y620759D01*
X280835Y620810D01*
X280782Y620867D01*
X280742Y620889D01*
X280707Y620919D01*
X280635Y620948D01*
X280566Y620985D01*
X280521Y620994D01*
X280479Y621011D01*
X280343Y621026D01*
X280324Y621029D01*
X280319Y621028D01*
X280312Y621029D01*
X278488Y621029D01*
X278443Y621022D01*
X278397Y621024D01*
X278322Y621002D01*
X278245Y620990D01*
X278205Y620968D01*
X278161Y620955D01*
X278097Y620911D01*
X278028Y620874D01*
X277996Y620841D01*
X277959Y620815D01*
X277912Y620753D01*
X277859Y620696D01*
X277839Y620654D01*
X277812Y620618D01*
X277788Y620544D01*
X277755Y620473D01*
X277750Y620427D01*
X277736Y620384D01*
X277736Y620306D01*
X277728Y620229D01*
X277738Y620184D01*
X277738Y620138D01*
X277776Y620006D01*
X277780Y619988D01*
X277783Y619984D01*
X277785Y619977D01*
X278385Y618528D01*
X278385Y600672D01*
X276606Y596377D01*
X273319Y593090D01*
X269024Y591311D01*
X264376Y591311D01*
X260081Y593090D01*
X256794Y596377D01*
X255015Y600672D01*
X255015Y618528D01*
X255615Y619977D01*
X255626Y620021D01*
X255645Y620063D01*
X255654Y620140D01*
X255671Y620216D01*
X255667Y620262D01*
X255672Y620307D01*
X255656Y620384D01*
X255648Y620461D01*
X255630Y620503D01*
X255620Y620548D01*
X255580Y620615D01*
X255548Y620686D01*
X255517Y620720D01*
X255494Y620759D01*
X255435Y620810D01*
X255382Y620867D01*
X255342Y620889D01*
X255307Y620919D01*
X255235Y620948D01*
X255166Y620985D01*
X255121Y620994D01*
X255079Y621011D01*
X254943Y621026D01*
X254924Y621029D01*
X254919Y621028D01*
X254912Y621029D01*
X253088Y621029D01*
X253043Y621022D01*
X252997Y621024D01*
X252922Y621002D01*
X252845Y620990D01*
X252805Y620968D01*
X252761Y620955D01*
X252697Y620911D01*
X252628Y620874D01*
X252596Y620841D01*
X252559Y620815D01*
X252512Y620753D01*
X252459Y620696D01*
X252439Y620654D01*
X252412Y620618D01*
X252388Y620544D01*
X252355Y620473D01*
X252350Y620427D01*
X252336Y620384D01*
X252336Y620306D01*
X252328Y620229D01*
X252338Y620184D01*
X252338Y620138D01*
X252376Y620006D01*
X252380Y619988D01*
X252383Y619984D01*
X252385Y619977D01*
X252985Y618528D01*
X252985Y600672D01*
X251206Y596377D01*
X249144Y594315D01*
X249091Y594241D01*
X249031Y594172D01*
X249019Y594141D01*
X249000Y594115D01*
X248973Y594028D01*
X248939Y593943D01*
X248935Y593902D01*
X248928Y593880D01*
X248929Y593848D01*
X248921Y593777D01*
X248921Y578784D01*
X248922Y578777D01*
X248922Y578775D01*
X248924Y578767D01*
X248928Y578739D01*
X248926Y578693D01*
X248948Y578618D01*
X248960Y578541D01*
X248982Y578501D01*
X248995Y578457D01*
X249039Y578393D01*
X249076Y578324D01*
X249109Y578292D01*
X249135Y578255D01*
X249197Y578208D01*
X249254Y578154D01*
X249296Y578135D01*
X249332Y578108D01*
X249406Y578084D01*
X249477Y578051D01*
X249523Y578046D01*
X249566Y578032D01*
X249644Y578032D01*
X249721Y578024D01*
X249766Y578034D01*
X249812Y578034D01*
X249944Y578072D01*
X249962Y578076D01*
X249966Y578079D01*
X249973Y578081D01*
X252484Y579121D01*
X280905Y579121D01*
X280995Y579135D01*
X281086Y579143D01*
X281116Y579155D01*
X281148Y579160D01*
X281228Y579203D01*
X281312Y579239D01*
X281344Y579265D01*
X281365Y579276D01*
X281387Y579299D01*
X281443Y579344D01*
X286681Y584582D01*
X297519Y584582D01*
X305182Y576919D01*
X305182Y566081D01*
X297519Y558418D01*
X286681Y558418D01*
X281443Y563656D01*
X281369Y563709D01*
X281300Y563769D01*
X281270Y563781D01*
X281244Y563800D01*
X281157Y563827D01*
X281072Y563861D01*
X281031Y563865D01*
X281009Y563872D01*
X280976Y563871D01*
X280905Y563879D01*
X262382Y563879D01*
X262362Y563876D01*
X262343Y563878D01*
X262241Y563856D01*
X262139Y563840D01*
X262122Y563830D01*
X262102Y563826D01*
X262013Y563773D01*
X261922Y563724D01*
X261908Y563710D01*
X261891Y563700D01*
X261824Y563621D01*
X261752Y563546D01*
X261744Y563528D01*
X261731Y563513D01*
X261692Y563417D01*
X261649Y563323D01*
X261647Y563303D01*
X261639Y563285D01*
X261621Y563118D01*
X261621Y546241D01*
X261628Y546196D01*
X261626Y546150D01*
X261648Y546075D01*
X261660Y545998D01*
X261682Y545958D01*
X261695Y545914D01*
X261739Y545850D01*
X261776Y545781D01*
X261809Y545749D01*
X261835Y545712D01*
X261898Y545665D01*
X261954Y545611D01*
X261996Y545592D01*
X262032Y545565D01*
X262106Y545541D01*
X262177Y545508D01*
X262223Y545503D01*
X262266Y545489D01*
X262344Y545489D01*
X262421Y545481D01*
X262466Y545491D01*
X262512Y545491D01*
X262644Y545529D01*
X262662Y545533D01*
X262666Y545536D01*
X262673Y545538D01*
X264455Y546276D01*
X268945Y546276D01*
X273093Y544558D01*
X276268Y541383D01*
X277986Y537235D01*
X277986Y532745D01*
X276268Y528597D01*
X273093Y525422D01*
X268945Y523704D01*
X264455Y523704D01*
X262673Y524442D01*
X262629Y524453D01*
X262587Y524472D01*
X262510Y524481D01*
X262434Y524498D01*
X262388Y524494D01*
X262343Y524499D01*
X262266Y524483D01*
X262189Y524475D01*
X262147Y524457D01*
X262102Y524447D01*
X262035Y524407D01*
X261964Y524375D01*
X261930Y524344D01*
X261891Y524321D01*
X261840Y524262D01*
X261783Y524209D01*
X261761Y524169D01*
X261731Y524134D01*
X261702Y524062D01*
X261665Y523993D01*
X261656Y523948D01*
X261639Y523906D01*
X261624Y523770D01*
X261621Y523751D01*
X261622Y523746D01*
X261621Y523739D01*
X261621Y498772D01*
X261635Y498682D01*
X261643Y498591D01*
X261655Y498561D01*
X261660Y498529D01*
X261703Y498448D01*
X261739Y498365D01*
X261765Y498332D01*
X261776Y498312D01*
X261799Y498290D01*
X261844Y498234D01*
X292959Y467119D01*
X293033Y467066D01*
X293102Y467006D01*
X293132Y466994D01*
X293158Y466975D01*
X293245Y466948D01*
X293330Y466914D01*
X293371Y466910D01*
X293393Y466903D01*
X293426Y466904D01*
X293497Y466896D01*
X294345Y466896D01*
X298493Y465178D01*
X301668Y462003D01*
X303386Y457855D01*
X303386Y453365D01*
X301668Y449217D01*
X298493Y446042D01*
X294345Y444324D01*
X289855Y444324D01*
X285707Y446042D01*
X282532Y449217D01*
X280814Y453365D01*
X280814Y457393D01*
X280800Y457483D01*
X280792Y457574D01*
X280780Y457604D01*
X280775Y457636D01*
X280732Y457716D01*
X280696Y457800D01*
X280670Y457833D01*
X280659Y457853D01*
X280636Y457875D01*
X280591Y457931D01*
X278795Y459727D01*
X278716Y459784D01*
X278641Y459846D01*
X278617Y459856D01*
X278596Y459871D01*
X278503Y459900D01*
X278412Y459934D01*
X278386Y459936D01*
X278361Y459943D01*
X278263Y459941D01*
X278166Y459945D01*
X278141Y459938D01*
X278115Y459937D01*
X278023Y459903D01*
X277930Y459876D01*
X277908Y459861D01*
X277884Y459852D01*
X277808Y459792D01*
X277728Y459736D01*
X277712Y459715D01*
X277692Y459699D01*
X277639Y459617D01*
X277581Y459539D01*
X277573Y459514D01*
X277559Y459492D01*
X277535Y459397D01*
X277505Y459305D01*
X277505Y459279D01*
X277499Y459253D01*
X277506Y459156D01*
X277507Y459059D01*
X277516Y459027D01*
X277518Y459008D01*
X277531Y458978D01*
X277554Y458898D01*
X277986Y457855D01*
X277986Y453365D01*
X277295Y451697D01*
X277268Y451584D01*
X277240Y451470D01*
X277240Y451464D01*
X277239Y451458D01*
X277250Y451341D01*
X277259Y451225D01*
X277261Y451219D01*
X277262Y451213D01*
X277310Y451105D01*
X277355Y450998D01*
X277360Y450993D01*
X277362Y450988D01*
X277374Y450974D01*
X277460Y450867D01*
X328900Y399428D01*
X328958Y399386D01*
X329010Y399336D01*
X329057Y399314D01*
X329099Y399284D01*
X329168Y399263D01*
X329233Y399233D01*
X329285Y399227D01*
X329335Y399212D01*
X329406Y399214D01*
X329477Y399206D01*
X329528Y399217D01*
X329580Y399218D01*
X329648Y399243D01*
X329718Y399258D01*
X329762Y399285D01*
X329811Y399302D01*
X329867Y399347D01*
X329929Y399384D01*
X329963Y399424D01*
X330003Y399456D01*
X330042Y399516D01*
X330089Y399571D01*
X330108Y399619D01*
X330136Y399663D01*
X330154Y399733D01*
X330181Y399799D01*
X330189Y399870D01*
X330197Y399902D01*
X330195Y399925D01*
X330199Y399966D01*
X330199Y416546D01*
X332133Y421214D01*
X335706Y424787D01*
X340374Y426721D01*
X345426Y426721D01*
X350094Y424787D01*
X353667Y421214D01*
X355601Y416546D01*
X355601Y396254D01*
X353667Y391586D01*
X352002Y389920D01*
X351960Y389862D01*
X351911Y389810D01*
X351889Y389763D01*
X351858Y389721D01*
X351837Y389652D01*
X351807Y389587D01*
X351801Y389535D01*
X351786Y389485D01*
X351788Y389414D01*
X351780Y389343D01*
X351791Y389292D01*
X351792Y389240D01*
X351817Y389172D01*
X351832Y389102D01*
X351859Y389057D01*
X351877Y389009D01*
X351922Y388953D01*
X351958Y388891D01*
X351998Y388857D01*
X352030Y388817D01*
X352091Y388778D01*
X352145Y388731D01*
X352194Y388712D01*
X352237Y388684D01*
X352307Y388666D01*
X352373Y388639D01*
X352445Y388631D01*
X352476Y388623D01*
X352499Y388625D01*
X352540Y388621D01*
X396760Y388621D01*
X396831Y388632D01*
G37*
G36*
X408553Y528328D02*
X408553Y528328D01*
X408599Y528326D01*
X408674Y528348D01*
X408750Y528360D01*
X408791Y528382D01*
X408835Y528395D01*
X408899Y528439D01*
X408968Y528476D01*
X408999Y528509D01*
X409037Y528535D01*
X409084Y528598D01*
X409137Y528654D01*
X409156Y528696D01*
X409184Y528732D01*
X409208Y528806D01*
X409241Y528877D01*
X409246Y528923D01*
X409260Y528966D01*
X409259Y529044D01*
X409268Y529121D01*
X409258Y529166D01*
X409258Y529212D01*
X409220Y529344D01*
X409216Y529362D01*
X409213Y529366D01*
X409211Y529373D01*
X407814Y532745D01*
X407814Y537235D01*
X409532Y541383D01*
X412707Y544558D01*
X416855Y546276D01*
X421345Y546276D01*
X425493Y544558D01*
X428668Y541383D01*
X430386Y537235D01*
X430386Y532745D01*
X428989Y529373D01*
X428979Y529329D01*
X428959Y529287D01*
X428951Y529210D01*
X428933Y529134D01*
X428937Y529088D01*
X428932Y529043D01*
X428949Y528966D01*
X428956Y528889D01*
X428975Y528847D01*
X428984Y528802D01*
X429024Y528735D01*
X429056Y528664D01*
X429087Y528630D01*
X429111Y528591D01*
X429170Y528540D01*
X429222Y528483D01*
X429263Y528461D01*
X429297Y528431D01*
X429370Y528402D01*
X429438Y528365D01*
X429483Y528356D01*
X429526Y528339D01*
X429662Y528324D01*
X429680Y528321D01*
X429685Y528322D01*
X429692Y528321D01*
X433908Y528321D01*
X433953Y528328D01*
X433999Y528326D01*
X434074Y528348D01*
X434150Y528360D01*
X434191Y528382D01*
X434235Y528395D01*
X434299Y528439D01*
X434368Y528476D01*
X434399Y528509D01*
X434437Y528535D01*
X434484Y528598D01*
X434537Y528654D01*
X434556Y528696D01*
X434584Y528732D01*
X434608Y528806D01*
X434641Y528877D01*
X434646Y528923D01*
X434660Y528966D01*
X434659Y529044D01*
X434668Y529121D01*
X434658Y529166D01*
X434658Y529212D01*
X434620Y529344D01*
X434616Y529362D01*
X434613Y529366D01*
X434611Y529373D01*
X433214Y532745D01*
X433214Y537235D01*
X434932Y541383D01*
X438107Y544558D01*
X438690Y544799D01*
X438745Y544833D01*
X438806Y544859D01*
X438871Y544911D01*
X438899Y544928D01*
X438911Y544943D01*
X438937Y544964D01*
X440290Y546317D01*
X440290Y546318D01*
X449356Y555384D01*
X449409Y555458D01*
X449469Y555527D01*
X449481Y555557D01*
X449500Y555583D01*
X449527Y555670D01*
X449561Y555755D01*
X449565Y555796D01*
X449572Y555818D01*
X449571Y555851D01*
X449579Y555922D01*
X449579Y598416D01*
X450739Y601217D01*
X463332Y613810D01*
X465583Y616061D01*
X468384Y617221D01*
X522168Y617221D01*
X522188Y617224D01*
X522207Y617222D01*
X522309Y617244D01*
X522411Y617260D01*
X522428Y617270D01*
X522448Y617274D01*
X522537Y617327D01*
X522628Y617376D01*
X522642Y617390D01*
X522659Y617400D01*
X522726Y617479D01*
X522798Y617554D01*
X522806Y617572D01*
X522819Y617587D01*
X522858Y617683D01*
X522901Y617777D01*
X522903Y617797D01*
X522911Y617815D01*
X522929Y617982D01*
X522929Y632523D01*
X525905Y635499D01*
X542815Y635499D01*
X543822Y634492D01*
X543838Y634480D01*
X543850Y634464D01*
X543938Y634408D01*
X544021Y634348D01*
X544040Y634342D01*
X544057Y634331D01*
X544158Y634306D01*
X544257Y634276D01*
X544276Y634276D01*
X544296Y634271D01*
X544399Y634279D01*
X544502Y634282D01*
X544521Y634289D01*
X544541Y634290D01*
X544636Y634331D01*
X544733Y634366D01*
X544749Y634379D01*
X544767Y634387D01*
X544898Y634492D01*
X545905Y635499D01*
X562815Y635499D01*
X563822Y634492D01*
X563838Y634480D01*
X563850Y634464D01*
X563938Y634408D01*
X564021Y634348D01*
X564040Y634342D01*
X564057Y634331D01*
X564158Y634306D01*
X564257Y634276D01*
X564276Y634276D01*
X564296Y634271D01*
X564399Y634279D01*
X564502Y634282D01*
X564521Y634289D01*
X564541Y634290D01*
X564636Y634331D01*
X564733Y634366D01*
X564749Y634379D01*
X564767Y634387D01*
X564898Y634492D01*
X565905Y635499D01*
X582815Y635499D01*
X583822Y634492D01*
X583838Y634480D01*
X583850Y634464D01*
X583938Y634408D01*
X584021Y634348D01*
X584040Y634342D01*
X584057Y634331D01*
X584158Y634306D01*
X584257Y634276D01*
X584276Y634276D01*
X584296Y634271D01*
X584399Y634279D01*
X584502Y634282D01*
X584521Y634289D01*
X584541Y634290D01*
X584636Y634331D01*
X584733Y634366D01*
X584749Y634379D01*
X584767Y634387D01*
X584898Y634492D01*
X585905Y635499D01*
X602815Y635499D01*
X605664Y632649D01*
X605700Y632623D01*
X605729Y632591D01*
X605799Y632552D01*
X605864Y632505D01*
X605906Y632493D01*
X605944Y632471D01*
X606023Y632457D01*
X606099Y632433D01*
X606143Y632434D01*
X606186Y632426D01*
X606265Y632437D01*
X606345Y632439D01*
X606386Y632455D01*
X606430Y632461D01*
X606563Y632519D01*
X606576Y632524D01*
X606579Y632526D01*
X606583Y632528D01*
X607029Y632786D01*
X607676Y632959D01*
X612837Y632959D01*
X612837Y618480D01*
X612840Y618460D01*
X612838Y618441D01*
X612860Y618339D01*
X612877Y618237D01*
X612886Y618220D01*
X612890Y618200D01*
X612943Y618111D01*
X612992Y618020D01*
X613006Y618006D01*
X613016Y617989D01*
X613095Y617922D01*
X613170Y617851D01*
X613188Y617842D01*
X613203Y617829D01*
X613299Y617790D01*
X613393Y617747D01*
X613413Y617745D01*
X613431Y617737D01*
X613598Y617719D01*
X615122Y617719D01*
X615142Y617722D01*
X615161Y617720D01*
X615263Y617742D01*
X615365Y617759D01*
X615382Y617768D01*
X615402Y617772D01*
X615491Y617825D01*
X615582Y617874D01*
X615596Y617888D01*
X615613Y617898D01*
X615680Y617977D01*
X615751Y618052D01*
X615760Y618070D01*
X615773Y618085D01*
X615812Y618181D01*
X615855Y618275D01*
X615857Y618295D01*
X615865Y618313D01*
X615883Y618480D01*
X615883Y632959D01*
X621044Y632959D01*
X621691Y632786D01*
X622137Y632528D01*
X622178Y632512D01*
X622215Y632489D01*
X622292Y632469D01*
X622367Y632441D01*
X622411Y632439D01*
X622453Y632429D01*
X622533Y632435D01*
X622613Y632432D01*
X622655Y632444D01*
X622698Y632448D01*
X622772Y632479D01*
X622849Y632502D01*
X622884Y632527D01*
X622925Y632544D01*
X623038Y632635D01*
X623050Y632643D01*
X623052Y632646D01*
X623056Y632649D01*
X625905Y635499D01*
X642430Y635499D01*
X642450Y635502D01*
X642469Y635500D01*
X642571Y635522D01*
X642673Y635538D01*
X642690Y635548D01*
X642710Y635552D01*
X642799Y635605D01*
X642890Y635654D01*
X642904Y635668D01*
X642921Y635678D01*
X642988Y635757D01*
X643060Y635832D01*
X643068Y635850D01*
X643081Y635865D01*
X643120Y635961D01*
X643163Y636055D01*
X643165Y636075D01*
X643173Y636093D01*
X643191Y636260D01*
X643191Y636678D01*
X643189Y636694D01*
X643190Y636709D01*
X643190Y636712D01*
X643190Y636717D01*
X643168Y636819D01*
X643152Y636921D01*
X643142Y636938D01*
X643138Y636958D01*
X643085Y637047D01*
X643036Y637138D01*
X643022Y637152D01*
X643012Y637169D01*
X642933Y637236D01*
X642858Y637308D01*
X642840Y637316D01*
X642825Y637329D01*
X642729Y637368D01*
X642635Y637411D01*
X642615Y637413D01*
X642597Y637421D01*
X642430Y637439D01*
X396857Y637439D01*
X396761Y637424D01*
X396664Y637414D01*
X396640Y637404D01*
X396614Y637400D01*
X396528Y637354D01*
X396439Y637314D01*
X396420Y637297D01*
X396397Y637284D01*
X396330Y637214D01*
X396258Y637148D01*
X396245Y637125D01*
X396227Y637106D01*
X396186Y637018D01*
X396139Y636932D01*
X396135Y636907D01*
X396124Y636883D01*
X396113Y636786D01*
X396096Y636690D01*
X396099Y636664D01*
X396097Y636639D01*
X396117Y636543D01*
X396131Y636447D01*
X396143Y636424D01*
X396149Y636398D01*
X396199Y636315D01*
X396243Y636228D01*
X396262Y636209D01*
X396275Y636187D01*
X396349Y636124D01*
X396418Y636056D01*
X396447Y636040D01*
X396462Y636027D01*
X396482Y636019D01*
X396483Y636019D01*
X396494Y636014D01*
X396565Y635975D01*
X398652Y635111D01*
X400796Y632967D01*
X401956Y630166D01*
X401956Y624788D01*
X401970Y624698D01*
X401978Y624607D01*
X401990Y624578D01*
X401995Y624546D01*
X402038Y624465D01*
X402074Y624381D01*
X402100Y624349D01*
X402111Y624328D01*
X402134Y624306D01*
X402179Y624250D01*
X403606Y622823D01*
X405385Y618528D01*
X405385Y600672D01*
X403606Y596377D01*
X400319Y593090D01*
X396024Y591311D01*
X391376Y591311D01*
X387081Y593090D01*
X383794Y596377D01*
X382015Y600672D01*
X382015Y618528D01*
X382615Y619977D01*
X382626Y620021D01*
X382645Y620063D01*
X382654Y620140D01*
X382671Y620216D01*
X382667Y620262D01*
X382672Y620307D01*
X382656Y620384D01*
X382648Y620461D01*
X382630Y620503D01*
X382620Y620548D01*
X382580Y620615D01*
X382548Y620686D01*
X382517Y620720D01*
X382494Y620759D01*
X382435Y620810D01*
X382382Y620867D01*
X382342Y620889D01*
X382307Y620919D01*
X382235Y620948D01*
X382166Y620985D01*
X382121Y620994D01*
X382079Y621011D01*
X381943Y621026D01*
X381924Y621029D01*
X381919Y621028D01*
X381912Y621029D01*
X380088Y621029D01*
X380043Y621022D01*
X379997Y621024D01*
X379922Y621002D01*
X379845Y620990D01*
X379805Y620968D01*
X379761Y620955D01*
X379697Y620911D01*
X379628Y620874D01*
X379596Y620841D01*
X379559Y620815D01*
X379512Y620753D01*
X379459Y620696D01*
X379439Y620654D01*
X379412Y620618D01*
X379388Y620544D01*
X379355Y620473D01*
X379350Y620427D01*
X379336Y620384D01*
X379336Y620306D01*
X379328Y620229D01*
X379338Y620184D01*
X379338Y620138D01*
X379376Y620006D01*
X379380Y619988D01*
X379383Y619984D01*
X379385Y619977D01*
X379985Y618528D01*
X379985Y600672D01*
X378206Y596377D01*
X376144Y594315D01*
X376091Y594241D01*
X376031Y594172D01*
X376019Y594141D01*
X376000Y594115D01*
X375973Y594028D01*
X375939Y593943D01*
X375935Y593902D01*
X375928Y593880D01*
X375929Y593848D01*
X375921Y593777D01*
X375921Y558796D01*
X375935Y558706D01*
X375943Y558615D01*
X375955Y558585D01*
X375960Y558553D01*
X376003Y558472D01*
X376039Y558388D01*
X376065Y558356D01*
X376076Y558335D01*
X376099Y558313D01*
X376144Y558257D01*
X376483Y557918D01*
X377953Y554370D01*
X377953Y550530D01*
X376483Y546982D01*
X374914Y545413D01*
X374902Y545397D01*
X374887Y545384D01*
X374831Y545297D01*
X374770Y545213D01*
X374765Y545194D01*
X374754Y545177D01*
X374729Y545077D01*
X374698Y544978D01*
X374699Y544958D01*
X374694Y544939D01*
X374702Y544836D01*
X374704Y544732D01*
X374711Y544713D01*
X374713Y544694D01*
X374753Y544599D01*
X374789Y544501D01*
X374801Y544486D01*
X374809Y544467D01*
X374914Y544336D01*
X377868Y541383D01*
X379586Y537235D01*
X379586Y533207D01*
X379600Y533117D01*
X379608Y533026D01*
X379620Y532996D01*
X379625Y532964D01*
X379668Y532883D01*
X379704Y532800D01*
X379730Y532767D01*
X379741Y532747D01*
X379764Y532725D01*
X379809Y532669D01*
X381605Y530873D01*
X381684Y530816D01*
X381759Y530754D01*
X381783Y530744D01*
X381804Y530729D01*
X381897Y530700D01*
X381988Y530666D01*
X382014Y530664D01*
X382039Y530657D01*
X382137Y530659D01*
X382234Y530655D01*
X382259Y530662D01*
X382285Y530663D01*
X382377Y530697D01*
X382470Y530724D01*
X382492Y530739D01*
X382516Y530748D01*
X382593Y530809D01*
X382672Y530864D01*
X382688Y530885D01*
X382708Y530901D01*
X382761Y530983D01*
X382819Y531061D01*
X382827Y531086D01*
X382841Y531108D01*
X382865Y531203D01*
X382895Y531295D01*
X382895Y531321D01*
X382901Y531347D01*
X382894Y531444D01*
X382893Y531541D01*
X382884Y531573D01*
X382882Y531592D01*
X382869Y531622D01*
X382846Y531702D01*
X382414Y532745D01*
X382414Y537235D01*
X384132Y541383D01*
X387307Y544558D01*
X391455Y546276D01*
X395945Y546276D01*
X400093Y544558D01*
X403268Y541383D01*
X404986Y537235D01*
X404986Y532745D01*
X403589Y529373D01*
X403579Y529329D01*
X403559Y529287D01*
X403551Y529210D01*
X403533Y529134D01*
X403537Y529088D01*
X403532Y529043D01*
X403549Y528966D01*
X403556Y528889D01*
X403575Y528847D01*
X403584Y528802D01*
X403624Y528735D01*
X403656Y528664D01*
X403687Y528630D01*
X403711Y528591D01*
X403770Y528540D01*
X403822Y528483D01*
X403863Y528461D01*
X403897Y528431D01*
X403970Y528402D01*
X404038Y528365D01*
X404083Y528356D01*
X404126Y528339D01*
X404262Y528324D01*
X404280Y528321D01*
X404285Y528322D01*
X404292Y528321D01*
X408508Y528321D01*
X408553Y528328D01*
G37*
%LPC*%
G36*
X378608Y27812D02*
X378608Y27812D01*
X373450Y29949D01*
X369502Y33897D01*
X367366Y39055D01*
X367366Y62545D01*
X369502Y67703D01*
X370616Y68817D01*
X370669Y68891D01*
X370729Y68961D01*
X370741Y68991D01*
X370760Y69017D01*
X370787Y69104D01*
X370821Y69189D01*
X370825Y69230D01*
X370832Y69252D01*
X370831Y69284D01*
X370839Y69355D01*
X370839Y109776D01*
X370825Y109866D01*
X370817Y109957D01*
X370805Y109987D01*
X370800Y110019D01*
X370757Y110099D01*
X370721Y110183D01*
X370695Y110215D01*
X370684Y110236D01*
X370661Y110258D01*
X370616Y110314D01*
X365349Y115581D01*
X365296Y115619D01*
X365249Y115665D01*
X365176Y115706D01*
X365149Y115725D01*
X365131Y115731D01*
X365102Y115746D01*
X361717Y117148D01*
X358448Y120417D01*
X356679Y124688D01*
X356679Y129312D01*
X358448Y133583D01*
X361717Y136852D01*
X365988Y138621D01*
X370612Y138621D01*
X374883Y136852D01*
X378152Y133583D01*
X379554Y130198D01*
X379588Y130142D01*
X379614Y130082D01*
X379666Y130017D01*
X379683Y129989D01*
X379698Y129976D01*
X379719Y129951D01*
X380780Y128890D01*
X380838Y128848D01*
X380890Y128798D01*
X380937Y128777D01*
X380979Y128746D01*
X381048Y128725D01*
X381113Y128695D01*
X381165Y128689D01*
X381215Y128674D01*
X381286Y128676D01*
X381357Y128668D01*
X381408Y128679D01*
X381460Y128680D01*
X381528Y128705D01*
X381598Y128720D01*
X381643Y128747D01*
X381691Y128765D01*
X381747Y128809D01*
X381809Y128846D01*
X381843Y128886D01*
X381883Y128918D01*
X381922Y128979D01*
X381969Y129033D01*
X381988Y129081D01*
X382016Y129125D01*
X382034Y129195D01*
X382061Y129261D01*
X382062Y129269D01*
X383848Y133583D01*
X387117Y136852D01*
X391388Y138621D01*
X396012Y138621D01*
X400283Y136852D01*
X403552Y133583D01*
X404954Y130198D01*
X404988Y130142D01*
X405014Y130082D01*
X405066Y130017D01*
X405083Y129989D01*
X405098Y129976D01*
X405119Y129951D01*
X406180Y128890D01*
X406238Y128848D01*
X406290Y128798D01*
X406337Y128777D01*
X406379Y128746D01*
X406448Y128725D01*
X406513Y128695D01*
X406565Y128689D01*
X406615Y128674D01*
X406686Y128676D01*
X406757Y128668D01*
X406808Y128679D01*
X406860Y128680D01*
X406928Y128705D01*
X406998Y128720D01*
X407043Y128747D01*
X407091Y128765D01*
X407147Y128809D01*
X407209Y128846D01*
X407243Y128886D01*
X407283Y128918D01*
X407322Y128979D01*
X407369Y129033D01*
X407388Y129081D01*
X407416Y129125D01*
X407434Y129195D01*
X407461Y129261D01*
X407462Y129269D01*
X409248Y133583D01*
X412517Y136852D01*
X416788Y138621D01*
X421412Y138621D01*
X425683Y136852D01*
X428952Y133583D01*
X430721Y129312D01*
X430721Y124688D01*
X428952Y120417D01*
X425683Y117148D01*
X421335Y115348D01*
X421285Y115340D01*
X421222Y115306D01*
X421155Y115281D01*
X421114Y115249D01*
X421068Y115224D01*
X421019Y115172D01*
X420963Y115128D01*
X420934Y115084D01*
X420898Y115046D01*
X420868Y114981D01*
X420830Y114921D01*
X420817Y114870D01*
X420795Y114823D01*
X420787Y114752D01*
X420769Y114682D01*
X420774Y114630D01*
X420768Y114579D01*
X420783Y114508D01*
X420789Y114437D01*
X420809Y114389D01*
X420820Y114338D01*
X420857Y114277D01*
X420885Y114211D01*
X420930Y114155D01*
X420946Y114127D01*
X420964Y114112D01*
X420990Y114080D01*
X431099Y103971D01*
X434064Y101006D01*
X435611Y97271D01*
X435611Y73709D01*
X435630Y73594D01*
X435647Y73478D01*
X435649Y73472D01*
X435650Y73466D01*
X435705Y73363D01*
X435758Y73258D01*
X435763Y73254D01*
X435766Y73248D01*
X435850Y73169D01*
X435934Y73086D01*
X435940Y73082D01*
X435944Y73079D01*
X435961Y73071D01*
X436081Y73005D01*
X439350Y71651D01*
X443298Y67703D01*
X445434Y62545D01*
X445434Y39055D01*
X443298Y33897D01*
X439350Y29949D01*
X434192Y27812D01*
X428608Y27812D01*
X423450Y29949D01*
X419502Y33897D01*
X417366Y39055D01*
X417366Y44199D01*
X417351Y44290D01*
X417344Y44380D01*
X417331Y44410D01*
X417326Y44442D01*
X417283Y44523D01*
X417248Y44607D01*
X417222Y44639D01*
X417211Y44660D01*
X417188Y44682D01*
X417143Y44738D01*
X416836Y45044D01*
X415289Y48779D01*
X415289Y90726D01*
X415275Y90816D01*
X415267Y90907D01*
X415255Y90937D01*
X415250Y90969D01*
X415207Y91049D01*
X415171Y91133D01*
X415145Y91165D01*
X415134Y91186D01*
X415111Y91208D01*
X415066Y91264D01*
X392460Y113870D01*
X392402Y113912D01*
X392350Y113962D01*
X392303Y113984D01*
X392261Y114014D01*
X392192Y114035D01*
X392127Y114065D01*
X392075Y114071D01*
X392025Y114086D01*
X391954Y114084D01*
X391883Y114092D01*
X391832Y114081D01*
X391780Y114080D01*
X391712Y114055D01*
X391642Y114040D01*
X391597Y114013D01*
X391549Y113995D01*
X391493Y113951D01*
X391431Y113914D01*
X391397Y113874D01*
X391357Y113842D01*
X391318Y113781D01*
X391271Y113727D01*
X391252Y113679D01*
X391224Y113635D01*
X391206Y113565D01*
X391179Y113499D01*
X391171Y113427D01*
X391163Y113396D01*
X391165Y113373D01*
X391161Y113332D01*
X391161Y70155D01*
X391175Y70065D01*
X391183Y69974D01*
X391195Y69945D01*
X391200Y69913D01*
X391243Y69832D01*
X391279Y69748D01*
X391305Y69716D01*
X391316Y69695D01*
X391339Y69673D01*
X391384Y69617D01*
X393298Y67703D01*
X395434Y62545D01*
X395434Y39055D01*
X393298Y33897D01*
X389350Y29949D01*
X384192Y27812D01*
X378608Y27812D01*
G37*
%LPD*%
%LPC*%
G36*
X619908Y27812D02*
X619908Y27812D01*
X614750Y29949D01*
X610802Y33897D01*
X608666Y39055D01*
X608666Y62545D01*
X610802Y67703D01*
X611916Y68817D01*
X611969Y68891D01*
X612029Y68961D01*
X612041Y68991D01*
X612060Y69017D01*
X612087Y69104D01*
X612121Y69189D01*
X612125Y69230D01*
X612132Y69252D01*
X612131Y69284D01*
X612139Y69356D01*
X612139Y109776D01*
X612125Y109866D01*
X612117Y109957D01*
X612105Y109987D01*
X612100Y110019D01*
X612057Y110099D01*
X612021Y110183D01*
X611995Y110215D01*
X611984Y110236D01*
X611961Y110258D01*
X611916Y110314D01*
X606649Y115581D01*
X606596Y115620D01*
X606549Y115666D01*
X606476Y115706D01*
X606449Y115725D01*
X606431Y115731D01*
X606402Y115746D01*
X603017Y117148D01*
X599748Y120417D01*
X597979Y124688D01*
X597979Y129312D01*
X599748Y133583D01*
X603017Y136852D01*
X607288Y138621D01*
X611912Y138621D01*
X616183Y136852D01*
X619452Y133583D01*
X620854Y130198D01*
X620888Y130142D01*
X620914Y130082D01*
X620966Y130017D01*
X620983Y129989D01*
X620998Y129976D01*
X621019Y129951D01*
X622080Y128890D01*
X622138Y128848D01*
X622190Y128798D01*
X622237Y128776D01*
X622279Y128746D01*
X622348Y128725D01*
X622413Y128695D01*
X622465Y128689D01*
X622515Y128674D01*
X622586Y128676D01*
X622657Y128668D01*
X622708Y128679D01*
X622760Y128680D01*
X622828Y128705D01*
X622898Y128720D01*
X622942Y128747D01*
X622991Y128765D01*
X623047Y128809D01*
X623109Y128846D01*
X623143Y128886D01*
X623183Y128918D01*
X623222Y128979D01*
X623269Y129033D01*
X623288Y129081D01*
X623316Y129125D01*
X623334Y129195D01*
X623361Y129261D01*
X623362Y129269D01*
X625148Y133583D01*
X628417Y136852D01*
X632688Y138621D01*
X637312Y138621D01*
X641583Y136852D01*
X644852Y133583D01*
X646254Y130198D01*
X646288Y130142D01*
X646314Y130082D01*
X646366Y130017D01*
X646383Y129989D01*
X646398Y129976D01*
X646419Y129951D01*
X647480Y128890D01*
X647538Y128848D01*
X647590Y128798D01*
X647637Y128776D01*
X647679Y128746D01*
X647748Y128725D01*
X647813Y128695D01*
X647865Y128689D01*
X647915Y128674D01*
X647986Y128676D01*
X648057Y128668D01*
X648108Y128679D01*
X648160Y128680D01*
X648228Y128705D01*
X648298Y128720D01*
X648342Y128747D01*
X648391Y128765D01*
X648447Y128809D01*
X648509Y128846D01*
X648543Y128886D01*
X648583Y128918D01*
X648622Y128979D01*
X648669Y129033D01*
X648688Y129081D01*
X648716Y129125D01*
X648734Y129195D01*
X648761Y129261D01*
X648762Y129269D01*
X650548Y133583D01*
X653817Y136852D01*
X658088Y138621D01*
X662712Y138621D01*
X666983Y136852D01*
X670252Y133583D01*
X672021Y129312D01*
X672021Y124688D01*
X670252Y120417D01*
X666983Y117148D01*
X662635Y115348D01*
X662585Y115340D01*
X662522Y115306D01*
X662455Y115281D01*
X662414Y115249D01*
X662368Y115224D01*
X662319Y115172D01*
X662263Y115128D01*
X662234Y115084D01*
X662198Y115046D01*
X662168Y114981D01*
X662130Y114921D01*
X662117Y114870D01*
X662095Y114823D01*
X662087Y114752D01*
X662069Y114682D01*
X662074Y114630D01*
X662068Y114579D01*
X662083Y114508D01*
X662089Y114437D01*
X662109Y114389D01*
X662120Y114338D01*
X662157Y114277D01*
X662185Y114211D01*
X662230Y114155D01*
X662246Y114127D01*
X662264Y114112D01*
X662290Y114080D01*
X672399Y103971D01*
X675364Y101006D01*
X676911Y97271D01*
X676911Y73709D01*
X676930Y73594D01*
X676947Y73478D01*
X676949Y73472D01*
X676950Y73466D01*
X677005Y73363D01*
X677058Y73258D01*
X677063Y73254D01*
X677066Y73248D01*
X677150Y73169D01*
X677234Y73086D01*
X677240Y73082D01*
X677244Y73079D01*
X677261Y73071D01*
X677381Y73005D01*
X680650Y71651D01*
X684598Y67703D01*
X686734Y62545D01*
X686734Y39055D01*
X684598Y33897D01*
X680650Y29949D01*
X675492Y27812D01*
X669908Y27812D01*
X664750Y29949D01*
X660802Y33897D01*
X658666Y39055D01*
X658666Y44199D01*
X658651Y44290D01*
X658644Y44380D01*
X658631Y44410D01*
X658626Y44442D01*
X658583Y44523D01*
X658548Y44607D01*
X658522Y44639D01*
X658511Y44660D01*
X658488Y44682D01*
X658443Y44738D01*
X658136Y45044D01*
X656589Y48779D01*
X656589Y90726D01*
X656575Y90816D01*
X656567Y90907D01*
X656555Y90937D01*
X656550Y90969D01*
X656507Y91049D01*
X656471Y91133D01*
X656445Y91165D01*
X656434Y91186D01*
X656411Y91208D01*
X656366Y91264D01*
X633760Y113870D01*
X633702Y113912D01*
X633650Y113962D01*
X633603Y113984D01*
X633561Y114014D01*
X633492Y114035D01*
X633427Y114065D01*
X633375Y114071D01*
X633325Y114086D01*
X633254Y114084D01*
X633183Y114092D01*
X633132Y114081D01*
X633080Y114080D01*
X633012Y114055D01*
X632942Y114040D01*
X632897Y114013D01*
X632849Y113995D01*
X632793Y113951D01*
X632731Y113914D01*
X632697Y113874D01*
X632657Y113842D01*
X632618Y113781D01*
X632571Y113727D01*
X632552Y113679D01*
X632524Y113635D01*
X632506Y113565D01*
X632479Y113499D01*
X632471Y113427D01*
X632463Y113396D01*
X632465Y113373D01*
X632461Y113332D01*
X632461Y70156D01*
X632475Y70065D01*
X632483Y69975D01*
X632495Y69945D01*
X632500Y69913D01*
X632543Y69832D01*
X632579Y69748D01*
X632605Y69716D01*
X632616Y69695D01*
X632639Y69673D01*
X632684Y69617D01*
X634598Y67703D01*
X636734Y62545D01*
X636734Y39055D01*
X634598Y33897D01*
X630650Y29949D01*
X625492Y27812D01*
X619908Y27812D01*
G37*
%LPD*%
%LPC*%
G36*
X518308Y27812D02*
X518308Y27812D01*
X513150Y29949D01*
X509202Y33897D01*
X507066Y39055D01*
X507066Y62545D01*
X509202Y67703D01*
X513150Y71651D01*
X516419Y73005D01*
X516519Y73067D01*
X516619Y73127D01*
X516623Y73132D01*
X516628Y73135D01*
X516703Y73225D01*
X516779Y73314D01*
X516781Y73320D01*
X516785Y73324D01*
X516827Y73433D01*
X516871Y73542D01*
X516872Y73549D01*
X516873Y73554D01*
X516874Y73572D01*
X516889Y73709D01*
X516889Y97271D01*
X518436Y101006D01*
X521401Y103971D01*
X531510Y114080D01*
X531552Y114138D01*
X531602Y114190D01*
X531623Y114237D01*
X531654Y114279D01*
X531675Y114348D01*
X531705Y114413D01*
X531711Y114465D01*
X531726Y114515D01*
X531724Y114586D01*
X531732Y114657D01*
X531721Y114708D01*
X531720Y114760D01*
X531695Y114828D01*
X531680Y114898D01*
X531653Y114943D01*
X531635Y114991D01*
X531591Y115047D01*
X531554Y115109D01*
X531514Y115143D01*
X531482Y115183D01*
X531421Y115222D01*
X531367Y115269D01*
X531319Y115288D01*
X531275Y115316D01*
X531205Y115334D01*
X531139Y115361D01*
X531131Y115362D01*
X526817Y117148D01*
X523548Y120417D01*
X521779Y124688D01*
X521779Y129312D01*
X523548Y133583D01*
X526817Y136852D01*
X531088Y138621D01*
X535712Y138621D01*
X539983Y136852D01*
X543252Y133583D01*
X545052Y129235D01*
X545060Y129185D01*
X545094Y129122D01*
X545119Y129055D01*
X545151Y129014D01*
X545176Y128968D01*
X545227Y128919D01*
X545272Y128863D01*
X545316Y128834D01*
X545354Y128798D01*
X545419Y128768D01*
X545479Y128730D01*
X545530Y128717D01*
X545577Y128695D01*
X545648Y128687D01*
X545718Y128669D01*
X545770Y128674D01*
X545821Y128668D01*
X545892Y128683D01*
X545963Y128689D01*
X546011Y128709D01*
X546062Y128720D01*
X546123Y128757D01*
X546189Y128785D01*
X546245Y128830D01*
X546273Y128846D01*
X546288Y128864D01*
X546320Y128890D01*
X547381Y129951D01*
X547420Y130004D01*
X547466Y130051D01*
X547506Y130124D01*
X547525Y130151D01*
X547531Y130169D01*
X547546Y130198D01*
X548948Y133583D01*
X552217Y136852D01*
X556488Y138621D01*
X561112Y138621D01*
X565383Y136852D01*
X568652Y133583D01*
X570452Y129235D01*
X570460Y129185D01*
X570494Y129122D01*
X570519Y129055D01*
X570551Y129014D01*
X570576Y128968D01*
X570627Y128919D01*
X570672Y128863D01*
X570716Y128834D01*
X570754Y128798D01*
X570819Y128768D01*
X570879Y128730D01*
X570930Y128717D01*
X570977Y128695D01*
X571048Y128687D01*
X571118Y128669D01*
X571170Y128674D01*
X571221Y128668D01*
X571292Y128683D01*
X571363Y128689D01*
X571411Y128709D01*
X571462Y128720D01*
X571523Y128757D01*
X571589Y128785D01*
X571645Y128830D01*
X571673Y128846D01*
X571688Y128864D01*
X571720Y128890D01*
X572781Y129951D01*
X572820Y130004D01*
X572866Y130051D01*
X572906Y130124D01*
X572925Y130151D01*
X572931Y130169D01*
X572946Y130198D01*
X574348Y133583D01*
X577617Y136852D01*
X581888Y138621D01*
X586512Y138621D01*
X590783Y136852D01*
X594052Y133583D01*
X595821Y129312D01*
X595821Y124688D01*
X594052Y120417D01*
X590783Y117148D01*
X587398Y115746D01*
X587342Y115712D01*
X587282Y115686D01*
X587217Y115634D01*
X587189Y115617D01*
X587176Y115602D01*
X587151Y115581D01*
X581884Y110314D01*
X581831Y110240D01*
X581771Y110171D01*
X581759Y110141D01*
X581740Y110114D01*
X581713Y110028D01*
X581679Y109943D01*
X581675Y109902D01*
X581668Y109879D01*
X581669Y109847D01*
X581661Y109776D01*
X581661Y69356D01*
X581675Y69265D01*
X581683Y69175D01*
X581695Y69145D01*
X581700Y69113D01*
X581743Y69032D01*
X581779Y68948D01*
X581805Y68916D01*
X581816Y68895D01*
X581839Y68873D01*
X581884Y68817D01*
X582998Y67703D01*
X585134Y62545D01*
X585134Y39055D01*
X582998Y33897D01*
X579050Y29949D01*
X573892Y27812D01*
X568308Y27812D01*
X563150Y29949D01*
X559202Y33897D01*
X557066Y39055D01*
X557066Y62545D01*
X559202Y67703D01*
X561116Y69617D01*
X561169Y69691D01*
X561229Y69761D01*
X561241Y69791D01*
X561260Y69817D01*
X561287Y69904D01*
X561321Y69989D01*
X561325Y70030D01*
X561332Y70052D01*
X561331Y70084D01*
X561339Y70156D01*
X561339Y113332D01*
X561328Y113403D01*
X561326Y113474D01*
X561308Y113523D01*
X561300Y113575D01*
X561266Y113638D01*
X561241Y113705D01*
X561209Y113746D01*
X561184Y113792D01*
X561132Y113841D01*
X561088Y113897D01*
X561044Y113926D01*
X561006Y113962D01*
X560941Y113992D01*
X560881Y114030D01*
X560830Y114043D01*
X560783Y114065D01*
X560712Y114073D01*
X560642Y114091D01*
X560590Y114086D01*
X560539Y114092D01*
X560468Y114077D01*
X560397Y114071D01*
X560349Y114051D01*
X560298Y114040D01*
X560237Y114003D01*
X560171Y113975D01*
X560115Y113930D01*
X560087Y113914D01*
X560072Y113896D01*
X560040Y113870D01*
X537434Y91264D01*
X537381Y91190D01*
X537321Y91121D01*
X537309Y91091D01*
X537290Y91064D01*
X537263Y90978D01*
X537229Y90893D01*
X537225Y90852D01*
X537218Y90829D01*
X537219Y90797D01*
X537211Y90726D01*
X537211Y48779D01*
X535664Y45044D01*
X535357Y44738D01*
X535304Y44664D01*
X535245Y44594D01*
X535233Y44564D01*
X535214Y44538D01*
X535187Y44451D01*
X535153Y44366D01*
X535148Y44325D01*
X535141Y44303D01*
X535142Y44271D01*
X535134Y44199D01*
X535134Y39055D01*
X532998Y33897D01*
X529050Y29949D01*
X523892Y27812D01*
X518308Y27812D01*
G37*
%LPD*%
%LPC*%
G36*
X581888Y216979D02*
X581888Y216979D01*
X577617Y218748D01*
X574348Y222017D01*
X572579Y226288D01*
X572579Y230912D01*
X574348Y235183D01*
X577617Y238452D01*
X581888Y240221D01*
X584728Y240221D01*
X584818Y240235D01*
X584909Y240243D01*
X584939Y240255D01*
X584971Y240260D01*
X585052Y240303D01*
X585135Y240339D01*
X585168Y240365D01*
X585188Y240376D01*
X585210Y240399D01*
X585266Y240444D01*
X589056Y244234D01*
X589109Y244308D01*
X589169Y244377D01*
X589181Y244407D01*
X589200Y244433D01*
X589227Y244520D01*
X589261Y244605D01*
X589265Y244646D01*
X589272Y244668D01*
X589271Y244701D01*
X589279Y244772D01*
X589279Y261124D01*
X589265Y261214D01*
X589257Y261305D01*
X589245Y261335D01*
X589240Y261367D01*
X589197Y261447D01*
X589161Y261531D01*
X589135Y261563D01*
X589124Y261584D01*
X589101Y261606D01*
X589056Y261662D01*
X586133Y264586D01*
X584199Y269254D01*
X584199Y289546D01*
X586133Y294214D01*
X589706Y297787D01*
X594374Y299721D01*
X599426Y299721D01*
X604094Y297787D01*
X607667Y294214D01*
X609601Y289546D01*
X609601Y269254D01*
X607667Y264586D01*
X604744Y261662D01*
X604691Y261588D01*
X604631Y261519D01*
X604619Y261489D01*
X604600Y261462D01*
X604573Y261375D01*
X604539Y261291D01*
X604535Y261250D01*
X604528Y261227D01*
X604529Y261195D01*
X604521Y261124D01*
X604521Y240214D01*
X604528Y240168D01*
X604526Y240122D01*
X604548Y240048D01*
X604560Y239971D01*
X604582Y239930D01*
X604595Y239886D01*
X604639Y239822D01*
X604676Y239753D01*
X604709Y239722D01*
X604735Y239684D01*
X604798Y239638D01*
X604854Y239584D01*
X604896Y239565D01*
X604932Y239537D01*
X605006Y239513D01*
X605077Y239480D01*
X605123Y239475D01*
X605166Y239461D01*
X605244Y239462D01*
X605321Y239453D01*
X605366Y239463D01*
X605412Y239464D01*
X605544Y239502D01*
X605562Y239506D01*
X605566Y239508D01*
X605573Y239510D01*
X607288Y240221D01*
X610128Y240221D01*
X610218Y240235D01*
X610309Y240243D01*
X610339Y240255D01*
X610371Y240260D01*
X610452Y240303D01*
X610535Y240339D01*
X610568Y240365D01*
X610588Y240376D01*
X610610Y240399D01*
X610666Y240444D01*
X647476Y277254D01*
X647529Y277328D01*
X647589Y277397D01*
X647601Y277427D01*
X647620Y277453D01*
X647647Y277540D01*
X647681Y277625D01*
X647685Y277666D01*
X647692Y277688D01*
X647691Y277721D01*
X647699Y277792D01*
X647699Y289546D01*
X649633Y294214D01*
X653206Y297787D01*
X657874Y299721D01*
X662926Y299721D01*
X667594Y297787D01*
X671167Y294214D01*
X673101Y289546D01*
X673101Y269254D01*
X671167Y264586D01*
X667594Y261013D01*
X662926Y259079D01*
X657874Y259079D01*
X653382Y260940D01*
X653268Y260967D01*
X653155Y260995D01*
X653148Y260995D01*
X653142Y260996D01*
X653026Y260985D01*
X652909Y260976D01*
X652904Y260974D01*
X652897Y260973D01*
X652790Y260925D01*
X652683Y260880D01*
X652677Y260875D01*
X652673Y260873D01*
X652659Y260860D01*
X652552Y260775D01*
X633298Y241520D01*
X633256Y241462D01*
X633206Y241410D01*
X633184Y241363D01*
X633154Y241321D01*
X633133Y241252D01*
X633103Y241187D01*
X633097Y241135D01*
X633082Y241085D01*
X633084Y241014D01*
X633076Y240943D01*
X633087Y240892D01*
X633088Y240840D01*
X633113Y240772D01*
X633128Y240702D01*
X633155Y240658D01*
X633172Y240609D01*
X633217Y240553D01*
X633254Y240491D01*
X633294Y240457D01*
X633326Y240417D01*
X633386Y240378D01*
X633441Y240331D01*
X633489Y240312D01*
X633533Y240284D01*
X633603Y240266D01*
X633669Y240239D01*
X633740Y240231D01*
X633772Y240223D01*
X633795Y240225D01*
X633836Y240221D01*
X637312Y240221D01*
X641583Y238452D01*
X644852Y235183D01*
X646621Y230912D01*
X646621Y226288D01*
X644852Y222017D01*
X641583Y218748D01*
X637312Y216979D01*
X632688Y216979D01*
X628417Y218748D01*
X625148Y222017D01*
X623379Y226288D01*
X623379Y229764D01*
X623368Y229835D01*
X623366Y229907D01*
X623348Y229956D01*
X623340Y230007D01*
X623306Y230070D01*
X623281Y230138D01*
X623249Y230178D01*
X623224Y230224D01*
X623173Y230274D01*
X623128Y230330D01*
X623084Y230358D01*
X623046Y230394D01*
X622981Y230424D01*
X622921Y230463D01*
X622870Y230475D01*
X622823Y230497D01*
X622752Y230505D01*
X622682Y230523D01*
X622630Y230519D01*
X622579Y230524D01*
X622508Y230509D01*
X622437Y230504D01*
X622389Y230483D01*
X622338Y230472D01*
X622277Y230435D01*
X622211Y230407D01*
X622155Y230362D01*
X622127Y230346D01*
X622112Y230328D01*
X622080Y230302D01*
X621444Y229666D01*
X621391Y229592D01*
X621331Y229523D01*
X621319Y229493D01*
X621300Y229467D01*
X621273Y229380D01*
X621239Y229295D01*
X621235Y229254D01*
X621228Y229232D01*
X621229Y229199D01*
X621221Y229128D01*
X621221Y226288D01*
X619452Y222017D01*
X616183Y218748D01*
X611912Y216979D01*
X607288Y216979D01*
X603017Y218748D01*
X599748Y222017D01*
X597979Y226288D01*
X597979Y229764D01*
X597968Y229835D01*
X597966Y229907D01*
X597948Y229956D01*
X597940Y230007D01*
X597906Y230070D01*
X597881Y230138D01*
X597849Y230178D01*
X597824Y230224D01*
X597773Y230274D01*
X597728Y230330D01*
X597684Y230358D01*
X597646Y230394D01*
X597581Y230424D01*
X597521Y230463D01*
X597470Y230475D01*
X597423Y230497D01*
X597352Y230505D01*
X597282Y230523D01*
X597230Y230519D01*
X597179Y230524D01*
X597108Y230509D01*
X597037Y230504D01*
X596989Y230483D01*
X596938Y230472D01*
X596877Y230435D01*
X596811Y230407D01*
X596755Y230362D01*
X596727Y230346D01*
X596712Y230328D01*
X596680Y230302D01*
X596044Y229666D01*
X595990Y229592D01*
X595931Y229523D01*
X595919Y229493D01*
X595900Y229467D01*
X595873Y229380D01*
X595839Y229295D01*
X595835Y229254D01*
X595828Y229232D01*
X595829Y229199D01*
X595821Y229128D01*
X595821Y226288D01*
X594052Y222017D01*
X590783Y218748D01*
X586512Y216979D01*
X581888Y216979D01*
G37*
%LPD*%
%LPC*%
G36*
X16755Y216979D02*
X16755Y216979D01*
X13779Y219955D01*
X13779Y237245D01*
X16755Y240221D01*
X22336Y240221D01*
X22426Y240235D01*
X22517Y240243D01*
X22547Y240255D01*
X22579Y240260D01*
X22659Y240303D01*
X22743Y240339D01*
X22775Y240365D01*
X22796Y240376D01*
X22818Y240399D01*
X22874Y240444D01*
X64292Y281862D01*
X64345Y281936D01*
X64405Y282005D01*
X64417Y282035D01*
X64436Y282061D01*
X64463Y282148D01*
X64497Y282233D01*
X64501Y282274D01*
X64508Y282297D01*
X64507Y282329D01*
X64515Y282400D01*
X64515Y284240D01*
X71360Y291085D01*
X81040Y291085D01*
X87885Y284240D01*
X87885Y274560D01*
X81040Y267715D01*
X79200Y267715D01*
X79110Y267701D01*
X79019Y267693D01*
X78989Y267681D01*
X78957Y267676D01*
X78877Y267633D01*
X78793Y267597D01*
X78761Y267571D01*
X78740Y267560D01*
X78718Y267537D01*
X78662Y267492D01*
X52690Y241520D01*
X52648Y241462D01*
X52598Y241410D01*
X52576Y241363D01*
X52546Y241321D01*
X52525Y241252D01*
X52495Y241187D01*
X52489Y241135D01*
X52474Y241085D01*
X52476Y241014D01*
X52468Y240943D01*
X52479Y240892D01*
X52480Y240840D01*
X52505Y240772D01*
X52520Y240702D01*
X52547Y240658D01*
X52565Y240609D01*
X52609Y240553D01*
X52646Y240491D01*
X52686Y240457D01*
X52718Y240417D01*
X52779Y240378D01*
X52833Y240331D01*
X52881Y240312D01*
X52925Y240284D01*
X52995Y240266D01*
X53061Y240239D01*
X53069Y240238D01*
X57383Y238452D01*
X60652Y235183D01*
X62421Y230912D01*
X62421Y226288D01*
X60652Y222017D01*
X57383Y218748D01*
X53112Y216979D01*
X48488Y216979D01*
X44217Y218748D01*
X40948Y222017D01*
X39148Y226365D01*
X39140Y226415D01*
X39106Y226478D01*
X39081Y226545D01*
X39049Y226586D01*
X39024Y226632D01*
X38973Y226681D01*
X38928Y226737D01*
X38884Y226766D01*
X38846Y226802D01*
X38781Y226832D01*
X38721Y226870D01*
X38670Y226883D01*
X38623Y226905D01*
X38552Y226913D01*
X38482Y226931D01*
X38430Y226926D01*
X38379Y226932D01*
X38308Y226917D01*
X38237Y226911D01*
X38189Y226891D01*
X38138Y226880D01*
X38077Y226843D01*
X38011Y226815D01*
X37955Y226770D01*
X37927Y226754D01*
X37912Y226736D01*
X37880Y226710D01*
X37244Y226074D01*
X37191Y226000D01*
X37131Y225931D01*
X37119Y225901D01*
X37100Y225875D01*
X37073Y225788D01*
X37039Y225703D01*
X37035Y225662D01*
X37028Y225639D01*
X37029Y225607D01*
X37021Y225536D01*
X37021Y219955D01*
X34045Y216979D01*
X16755Y216979D01*
G37*
%LPD*%
%LPC*%
G36*
X162855Y523704D02*
X162855Y523704D01*
X158707Y525422D01*
X155532Y528597D01*
X153814Y532745D01*
X153814Y537235D01*
X155532Y541383D01*
X157256Y543107D01*
X157309Y543181D01*
X157369Y543250D01*
X157381Y543280D01*
X157400Y543307D01*
X157427Y543393D01*
X157461Y543478D01*
X157465Y543519D01*
X157472Y543542D01*
X157471Y543574D01*
X157479Y543645D01*
X157479Y593777D01*
X157465Y593867D01*
X157457Y593958D01*
X157445Y593987D01*
X157440Y594019D01*
X157397Y594100D01*
X157361Y594184D01*
X157335Y594216D01*
X157324Y594237D01*
X157301Y594259D01*
X157256Y594315D01*
X155194Y596377D01*
X153415Y600672D01*
X153415Y618528D01*
X155194Y622823D01*
X158481Y626110D01*
X162776Y627889D01*
X167424Y627889D01*
X171719Y626110D01*
X175006Y622823D01*
X176785Y618528D01*
X176785Y600672D01*
X175006Y596377D01*
X172944Y594315D01*
X172891Y594241D01*
X172831Y594172D01*
X172819Y594141D01*
X172800Y594115D01*
X172773Y594028D01*
X172739Y593943D01*
X172735Y593902D01*
X172728Y593880D01*
X172729Y593848D01*
X172721Y593777D01*
X172721Y543645D01*
X172735Y543555D01*
X172743Y543464D01*
X172755Y543434D01*
X172760Y543402D01*
X172803Y543322D01*
X172839Y543238D01*
X172865Y543206D01*
X172876Y543185D01*
X172899Y543163D01*
X172944Y543107D01*
X174668Y541383D01*
X176386Y537235D01*
X176386Y532745D01*
X174668Y528597D01*
X171493Y525422D01*
X167345Y523704D01*
X162855Y523704D01*
G37*
%LPD*%
%LPC*%
G36*
X137455Y523704D02*
X137455Y523704D01*
X133307Y525422D01*
X130132Y528597D01*
X128414Y532745D01*
X128414Y537235D01*
X130132Y541383D01*
X131856Y543107D01*
X131909Y543181D01*
X131969Y543250D01*
X131981Y543280D01*
X132000Y543307D01*
X132027Y543393D01*
X132061Y543478D01*
X132065Y543519D01*
X132072Y543542D01*
X132071Y543574D01*
X132079Y543645D01*
X132079Y593777D01*
X132065Y593867D01*
X132057Y593958D01*
X132045Y593987D01*
X132040Y594019D01*
X131997Y594100D01*
X131961Y594184D01*
X131935Y594216D01*
X131924Y594237D01*
X131901Y594259D01*
X131856Y594315D01*
X129794Y596377D01*
X128015Y600672D01*
X128015Y618528D01*
X129794Y622823D01*
X133081Y626110D01*
X137376Y627889D01*
X142024Y627889D01*
X146319Y626110D01*
X149606Y622823D01*
X151385Y618528D01*
X151385Y600672D01*
X149606Y596377D01*
X147544Y594315D01*
X147491Y594241D01*
X147431Y594172D01*
X147419Y594141D01*
X147400Y594115D01*
X147373Y594028D01*
X147339Y593943D01*
X147335Y593902D01*
X147328Y593880D01*
X147329Y593848D01*
X147321Y593777D01*
X147321Y543645D01*
X147335Y543555D01*
X147343Y543464D01*
X147355Y543434D01*
X147360Y543402D01*
X147403Y543322D01*
X147439Y543238D01*
X147465Y543206D01*
X147476Y543185D01*
X147499Y543163D01*
X147544Y543107D01*
X149268Y541383D01*
X150986Y537235D01*
X150986Y532745D01*
X149268Y528597D01*
X146093Y525422D01*
X141945Y523704D01*
X137455Y523704D01*
G37*
%LPD*%
%LPC*%
G36*
X76265Y566622D02*
X76265Y566622D01*
X67938Y570072D01*
X61564Y576446D01*
X58114Y584773D01*
X58114Y593787D01*
X61564Y602114D01*
X67938Y608488D01*
X76265Y611938D01*
X85279Y611938D01*
X93606Y608488D01*
X99980Y602114D01*
X103430Y593787D01*
X103430Y584773D01*
X99980Y576446D01*
X93606Y570072D01*
X85279Y566622D01*
X76265Y566622D01*
G37*
%LPD*%
%LPC*%
G36*
X657874Y386079D02*
X657874Y386079D01*
X653206Y388013D01*
X649633Y391586D01*
X647699Y396254D01*
X647699Y416546D01*
X649633Y421214D01*
X653206Y424787D01*
X657874Y426721D01*
X662926Y426721D01*
X667594Y424787D01*
X671167Y421214D01*
X673101Y416546D01*
X673101Y396254D01*
X671167Y391586D01*
X667594Y388013D01*
X662926Y386079D01*
X657874Y386079D01*
G37*
%LPD*%
%LPC*%
G36*
X594374Y386079D02*
X594374Y386079D01*
X589706Y388013D01*
X586133Y391586D01*
X584199Y396254D01*
X584199Y416546D01*
X586133Y421214D01*
X589706Y424787D01*
X594374Y426721D01*
X599426Y426721D01*
X604094Y424787D01*
X607667Y421214D01*
X609601Y416546D01*
X609601Y396254D01*
X607667Y391586D01*
X604094Y388013D01*
X599426Y386079D01*
X594374Y386079D01*
G37*
%LPD*%
%LPC*%
G36*
X467374Y259079D02*
X467374Y259079D01*
X462706Y261013D01*
X459133Y264586D01*
X457199Y269254D01*
X457199Y289546D01*
X459133Y294214D01*
X462706Y297787D01*
X467374Y299721D01*
X472426Y299721D01*
X477094Y297787D01*
X480667Y294214D01*
X482601Y289546D01*
X482601Y269254D01*
X480667Y264586D01*
X477094Y261013D01*
X472426Y259079D01*
X467374Y259079D01*
G37*
%LPD*%
%LPC*%
G36*
X276874Y259079D02*
X276874Y259079D01*
X272206Y261013D01*
X268633Y264586D01*
X266699Y269254D01*
X266699Y289546D01*
X268633Y294214D01*
X272206Y297787D01*
X276874Y299721D01*
X281926Y299721D01*
X286594Y297787D01*
X290167Y294214D01*
X292101Y289546D01*
X292101Y269254D01*
X290167Y264586D01*
X286594Y261013D01*
X281926Y259079D01*
X276874Y259079D01*
G37*
%LPD*%
%LPC*%
G36*
X16755Y115379D02*
X16755Y115379D01*
X13779Y118355D01*
X13779Y135645D01*
X16755Y138621D01*
X34045Y138621D01*
X37021Y135645D01*
X37021Y118355D01*
X34045Y115379D01*
X16755Y115379D01*
G37*
%LPD*%
%LPC*%
G36*
X499355Y115379D02*
X499355Y115379D01*
X496379Y118355D01*
X496379Y135645D01*
X499355Y138621D01*
X516645Y138621D01*
X519621Y135645D01*
X519621Y118355D01*
X516645Y115379D01*
X499355Y115379D01*
G37*
%LPD*%
%LPC*%
G36*
X531088Y216979D02*
X531088Y216979D01*
X526817Y218748D01*
X523548Y222017D01*
X521779Y226288D01*
X521779Y230912D01*
X523548Y235183D01*
X526817Y238452D01*
X531088Y240221D01*
X535712Y240221D01*
X539983Y238452D01*
X543252Y235183D01*
X545021Y230912D01*
X545021Y226288D01*
X543252Y222017D01*
X539983Y218748D01*
X535712Y216979D01*
X531088Y216979D01*
G37*
%LPD*%
%LPC*%
G36*
X683488Y216979D02*
X683488Y216979D01*
X679217Y218748D01*
X675948Y222017D01*
X674179Y226288D01*
X674179Y230912D01*
X675948Y235183D01*
X679217Y238452D01*
X683488Y240221D01*
X688112Y240221D01*
X692383Y238452D01*
X695652Y235183D01*
X697421Y230912D01*
X697421Y226288D01*
X695652Y222017D01*
X692383Y218748D01*
X688112Y216979D01*
X683488Y216979D01*
G37*
%LPD*%
%LPC*%
G36*
X658088Y216979D02*
X658088Y216979D01*
X653817Y218748D01*
X650548Y222017D01*
X648779Y226288D01*
X648779Y230912D01*
X650548Y235183D01*
X653817Y238452D01*
X658088Y240221D01*
X662712Y240221D01*
X666983Y238452D01*
X670252Y235183D01*
X672021Y230912D01*
X672021Y226288D01*
X670252Y222017D01*
X666983Y218748D01*
X662712Y216979D01*
X658088Y216979D01*
G37*
%LPD*%
%LPC*%
G36*
X556488Y216979D02*
X556488Y216979D01*
X552217Y218748D01*
X548948Y222017D01*
X547179Y226288D01*
X547179Y230912D01*
X548948Y235183D01*
X552217Y238452D01*
X556488Y240221D01*
X561112Y240221D01*
X565383Y238452D01*
X568652Y235183D01*
X570421Y230912D01*
X570421Y226288D01*
X568652Y222017D01*
X565383Y218748D01*
X561112Y216979D01*
X556488Y216979D01*
G37*
%LPD*%
%LPC*%
G36*
X315188Y216979D02*
X315188Y216979D01*
X310917Y218748D01*
X307648Y222017D01*
X305879Y226288D01*
X305879Y230912D01*
X307648Y235183D01*
X310917Y238452D01*
X315188Y240221D01*
X319812Y240221D01*
X324083Y238452D01*
X327352Y235183D01*
X329121Y230912D01*
X329121Y226288D01*
X327352Y222017D01*
X324083Y218748D01*
X319812Y216979D01*
X315188Y216979D01*
G37*
%LPD*%
%LPC*%
G36*
X200888Y216979D02*
X200888Y216979D01*
X196617Y218748D01*
X193348Y222017D01*
X191579Y226288D01*
X191579Y230912D01*
X193348Y235183D01*
X196617Y238452D01*
X200888Y240221D01*
X205512Y240221D01*
X209783Y238452D01*
X213052Y235183D01*
X214821Y230912D01*
X214821Y226288D01*
X213052Y222017D01*
X209783Y218748D01*
X205512Y216979D01*
X200888Y216979D01*
G37*
%LPD*%
%LPC*%
G36*
X175488Y216979D02*
X175488Y216979D01*
X171217Y218748D01*
X167948Y222017D01*
X166179Y226288D01*
X166179Y230912D01*
X167948Y235183D01*
X171217Y238452D01*
X175488Y240221D01*
X180112Y240221D01*
X184383Y238452D01*
X187652Y235183D01*
X189421Y230912D01*
X189421Y226288D01*
X187652Y222017D01*
X184383Y218748D01*
X180112Y216979D01*
X175488Y216979D01*
G37*
%LPD*%
%LPC*%
G36*
X150088Y216979D02*
X150088Y216979D01*
X145817Y218748D01*
X142548Y222017D01*
X140779Y226288D01*
X140779Y230912D01*
X142548Y235183D01*
X145817Y238452D01*
X150088Y240221D01*
X154712Y240221D01*
X158983Y238452D01*
X162252Y235183D01*
X164021Y230912D01*
X164021Y226288D01*
X162252Y222017D01*
X158983Y218748D01*
X154712Y216979D01*
X150088Y216979D01*
G37*
%LPD*%
%LPC*%
G36*
X73888Y216979D02*
X73888Y216979D01*
X69617Y218748D01*
X66348Y222017D01*
X64579Y226288D01*
X64579Y230912D01*
X66348Y235183D01*
X69617Y238452D01*
X73888Y240221D01*
X78512Y240221D01*
X82783Y238452D01*
X86052Y235183D01*
X87821Y230912D01*
X87821Y226288D01*
X86052Y222017D01*
X82783Y218748D01*
X78512Y216979D01*
X73888Y216979D01*
G37*
%LPD*%
%LPC*%
G36*
X442188Y115379D02*
X442188Y115379D01*
X437917Y117148D01*
X434648Y120417D01*
X432879Y124688D01*
X432879Y129312D01*
X434648Y133583D01*
X437917Y136852D01*
X442188Y138621D01*
X446812Y138621D01*
X451083Y136852D01*
X454352Y133583D01*
X456121Y129312D01*
X456121Y124688D01*
X454352Y120417D01*
X451083Y117148D01*
X446812Y115379D01*
X442188Y115379D01*
G37*
%LPD*%
%LPC*%
G36*
X683488Y115379D02*
X683488Y115379D01*
X679217Y117148D01*
X675948Y120417D01*
X674179Y124688D01*
X674179Y129312D01*
X675948Y133583D01*
X679217Y136852D01*
X683488Y138621D01*
X688112Y138621D01*
X692383Y136852D01*
X695652Y133583D01*
X697421Y129312D01*
X697421Y124688D01*
X695652Y120417D01*
X692383Y117148D01*
X688112Y115379D01*
X683488Y115379D01*
G37*
%LPD*%
%LPC*%
G36*
X416855Y444324D02*
X416855Y444324D01*
X412707Y446042D01*
X409532Y449217D01*
X407814Y453365D01*
X407814Y457855D01*
X409532Y462003D01*
X412707Y465178D01*
X416855Y466896D01*
X421345Y466896D01*
X425493Y465178D01*
X428668Y462003D01*
X430386Y457855D01*
X430386Y453365D01*
X428668Y449217D01*
X425493Y446042D01*
X421345Y444324D01*
X416855Y444324D01*
G37*
%LPD*%
%LPC*%
G36*
X239055Y444324D02*
X239055Y444324D01*
X234907Y446042D01*
X231732Y449217D01*
X230014Y453365D01*
X230014Y457855D01*
X231732Y462003D01*
X234907Y465178D01*
X239055Y466896D01*
X243545Y466896D01*
X247693Y465178D01*
X250868Y462003D01*
X252586Y457855D01*
X252586Y453365D01*
X250868Y449217D01*
X247693Y446042D01*
X243545Y444324D01*
X239055Y444324D01*
G37*
%LPD*%
%LPC*%
G36*
X391455Y444324D02*
X391455Y444324D01*
X387307Y446042D01*
X384132Y449217D01*
X382414Y453365D01*
X382414Y457855D01*
X384132Y462003D01*
X387307Y465178D01*
X391455Y466896D01*
X395945Y466896D01*
X400093Y465178D01*
X403268Y462003D01*
X404986Y457855D01*
X404986Y453365D01*
X403268Y449217D01*
X400093Y446042D01*
X395945Y444324D01*
X391455Y444324D01*
G37*
%LPD*%
%LPC*%
G36*
X467655Y444324D02*
X467655Y444324D01*
X463507Y446042D01*
X460332Y449217D01*
X458614Y453365D01*
X458614Y457855D01*
X460332Y462003D01*
X463507Y465178D01*
X467655Y466896D01*
X472145Y466896D01*
X476293Y465178D01*
X479468Y462003D01*
X481186Y457855D01*
X481186Y453365D01*
X479468Y449217D01*
X476293Y446042D01*
X472145Y444324D01*
X467655Y444324D01*
G37*
%LPD*%
%LPC*%
G36*
X442255Y444324D02*
X442255Y444324D01*
X438107Y446042D01*
X434932Y449217D01*
X433214Y453365D01*
X433214Y457855D01*
X434932Y462003D01*
X438107Y465178D01*
X442255Y466896D01*
X446745Y466896D01*
X450893Y465178D01*
X454068Y462003D01*
X455786Y457855D01*
X455786Y453365D01*
X454068Y449217D01*
X450893Y446042D01*
X446745Y444324D01*
X442255Y444324D01*
G37*
%LPD*%
%LPC*%
G36*
X26923Y382523D02*
X26923Y382523D01*
X26923Y391161D01*
X33820Y391161D01*
X35399Y390911D01*
X36920Y390416D01*
X38345Y389690D01*
X39639Y388750D01*
X40770Y387619D01*
X41710Y386325D01*
X42436Y384900D01*
X42931Y383379D01*
X43066Y382523D01*
X26923Y382523D01*
G37*
%LPD*%
%LPC*%
G36*
X677532Y508253D02*
X677532Y508253D01*
X677667Y509109D01*
X678162Y510630D01*
X678888Y512055D01*
X679828Y513349D01*
X680959Y514480D01*
X682253Y515420D01*
X683678Y516146D01*
X685199Y516641D01*
X686778Y516891D01*
X693675Y516891D01*
X693675Y508253D01*
X677532Y508253D01*
G37*
%LPD*%
%LPC*%
G36*
X26923Y370839D02*
X26923Y370839D01*
X26923Y379477D01*
X43066Y379477D01*
X42931Y378621D01*
X42436Y377100D01*
X41710Y375675D01*
X40770Y374381D01*
X39639Y373250D01*
X38345Y372310D01*
X36920Y371584D01*
X35399Y371089D01*
X33820Y370839D01*
X26923Y370839D01*
G37*
%LPD*%
%LPC*%
G36*
X686778Y496569D02*
X686778Y496569D01*
X685199Y496819D01*
X683678Y497314D01*
X682253Y498040D01*
X680959Y498980D01*
X679828Y500111D01*
X678888Y501405D01*
X678162Y502830D01*
X677667Y504351D01*
X677532Y505207D01*
X693675Y505207D01*
X693675Y496569D01*
X686778Y496569D01*
G37*
%LPD*%
%LPC*%
G36*
X26923Y496823D02*
X26923Y496823D01*
X26923Y504445D01*
X32905Y504445D01*
X34671Y504093D01*
X36336Y503404D01*
X37834Y502403D01*
X39107Y501130D01*
X40108Y499632D01*
X40797Y497967D01*
X41025Y496823D01*
X26923Y496823D01*
G37*
%LPD*%
%LPC*%
G36*
X420623Y611123D02*
X420623Y611123D01*
X420623Y625225D01*
X421767Y624997D01*
X423432Y624308D01*
X424930Y623307D01*
X426203Y622034D01*
X427204Y620536D01*
X427893Y618871D01*
X428245Y617105D01*
X428245Y611123D01*
X420623Y611123D01*
G37*
%LPD*%
%LPC*%
G36*
X26923Y522223D02*
X26923Y522223D01*
X26923Y529845D01*
X32905Y529845D01*
X34671Y529493D01*
X36336Y528804D01*
X37834Y527803D01*
X39107Y526530D01*
X40108Y525032D01*
X40797Y523367D01*
X41025Y522223D01*
X26923Y522223D01*
G37*
%LPD*%
%LPC*%
G36*
X26923Y573023D02*
X26923Y573023D01*
X26923Y580645D01*
X32905Y580645D01*
X34671Y580293D01*
X36336Y579604D01*
X37834Y578603D01*
X39107Y577330D01*
X40108Y575832D01*
X40797Y574167D01*
X41025Y573023D01*
X26923Y573023D01*
G37*
%LPD*%
%LPC*%
G36*
X26923Y547623D02*
X26923Y547623D01*
X26923Y555245D01*
X32905Y555245D01*
X34671Y554893D01*
X36336Y554204D01*
X37834Y553203D01*
X39107Y551930D01*
X40108Y550432D01*
X40797Y548767D01*
X41025Y547623D01*
X26923Y547623D01*
G37*
%LPD*%
%LPC*%
G36*
X420623Y608077D02*
X420623Y608077D01*
X428245Y608077D01*
X428245Y602095D01*
X427893Y600329D01*
X427204Y598664D01*
X426203Y597166D01*
X424930Y595893D01*
X423432Y594892D01*
X421767Y594203D01*
X420623Y593975D01*
X420623Y608077D01*
G37*
%LPD*%
%LPC*%
G36*
X26923Y486155D02*
X26923Y486155D01*
X26923Y493777D01*
X41025Y493777D01*
X40797Y492633D01*
X40108Y490968D01*
X39107Y489470D01*
X37834Y488197D01*
X36336Y487196D01*
X34671Y486507D01*
X32905Y486155D01*
X26923Y486155D01*
G37*
%LPD*%
%LPC*%
G36*
X26923Y562355D02*
X26923Y562355D01*
X26923Y569977D01*
X41025Y569977D01*
X40797Y568833D01*
X40108Y567168D01*
X39107Y565670D01*
X37834Y564397D01*
X36336Y563396D01*
X34671Y562707D01*
X32905Y562355D01*
X26923Y562355D01*
G37*
%LPD*%
%LPC*%
G36*
X26923Y536955D02*
X26923Y536955D01*
X26923Y544577D01*
X41025Y544577D01*
X40797Y543433D01*
X40108Y541768D01*
X39107Y540270D01*
X37834Y538997D01*
X36336Y537996D01*
X34671Y537307D01*
X32905Y536955D01*
X26923Y536955D01*
G37*
%LPD*%
%LPC*%
G36*
X409955Y611123D02*
X409955Y611123D01*
X409955Y617105D01*
X410307Y618871D01*
X410996Y620536D01*
X411997Y622034D01*
X413270Y623307D01*
X414768Y624308D01*
X416433Y624997D01*
X417577Y625225D01*
X417577Y611123D01*
X409955Y611123D01*
G37*
%LPD*%
%LPC*%
G36*
X26923Y511555D02*
X26923Y511555D01*
X26923Y519177D01*
X41025Y519177D01*
X40797Y518033D01*
X40108Y516368D01*
X39107Y514870D01*
X37834Y513597D01*
X36336Y512596D01*
X34671Y511907D01*
X32905Y511555D01*
X26923Y511555D01*
G37*
%LPD*%
%LPC*%
G36*
X416433Y594203D02*
X416433Y594203D01*
X414768Y594892D01*
X413270Y595893D01*
X411997Y597166D01*
X410996Y598664D01*
X410307Y600329D01*
X409955Y602095D01*
X409955Y608077D01*
X417577Y608077D01*
X417577Y593975D01*
X416433Y594203D01*
G37*
%LPD*%
%LPC*%
G36*
X700023Y598423D02*
X700023Y598423D01*
X700023Y607442D01*
X702867Y607442D01*
X709042Y601267D01*
X709042Y598423D01*
X700023Y598423D01*
G37*
%LPD*%
%LPC*%
G36*
X700023Y586358D02*
X700023Y586358D01*
X700023Y595377D01*
X709042Y595377D01*
X709042Y592533D01*
X702867Y586358D01*
X700023Y586358D01*
G37*
%LPD*%
%LPC*%
G36*
X306958Y573023D02*
X306958Y573023D01*
X306958Y575867D01*
X313133Y582042D01*
X315977Y582042D01*
X315977Y573023D01*
X306958Y573023D01*
G37*
%LPD*%
%LPC*%
G36*
X313133Y560958D02*
X313133Y560958D01*
X306958Y567133D01*
X306958Y569977D01*
X315977Y569977D01*
X315977Y560958D01*
X313133Y560958D01*
G37*
%LPD*%
%LPC*%
G36*
X90423Y534923D02*
X90423Y534923D01*
X90423Y542545D01*
X92688Y542545D01*
X98045Y537188D01*
X98045Y534923D01*
X90423Y534923D01*
G37*
%LPD*%
%LPC*%
G36*
X90423Y524255D02*
X90423Y524255D01*
X90423Y531877D01*
X98045Y531877D01*
X98045Y529612D01*
X92688Y524255D01*
X90423Y524255D01*
G37*
%LPD*%
%LPC*%
G36*
X79755Y534923D02*
X79755Y534923D01*
X79755Y537188D01*
X85112Y542545D01*
X87377Y542545D01*
X87377Y534923D01*
X79755Y534923D01*
G37*
%LPD*%
%LPC*%
G36*
X85112Y524255D02*
X85112Y524255D01*
X79755Y529612D01*
X79755Y531877D01*
X87377Y531877D01*
X87377Y524255D01*
X85112Y524255D01*
G37*
%LPD*%
%LPC*%
G36*
X293623Y536513D02*
X293623Y536513D01*
X293623Y543604D01*
X294651Y543400D01*
X296243Y542740D01*
X297675Y541783D01*
X298893Y540565D01*
X299850Y539133D01*
X300510Y537541D01*
X300714Y536513D01*
X293623Y536513D01*
G37*
%LPD*%
%LPC*%
G36*
X319023Y457133D02*
X319023Y457133D01*
X319023Y464224D01*
X320051Y464020D01*
X321643Y463360D01*
X323075Y462403D01*
X324293Y461185D01*
X325250Y459753D01*
X325910Y458161D01*
X326114Y457133D01*
X319023Y457133D01*
G37*
%LPD*%
%LPC*%
G36*
X319023Y454087D02*
X319023Y454087D01*
X326114Y454087D01*
X325910Y453059D01*
X325250Y451467D01*
X324665Y450591D01*
X324293Y450035D01*
X323075Y448817D01*
X321643Y447860D01*
X320051Y447200D01*
X319023Y446996D01*
X319023Y454087D01*
G37*
%LPD*%
%LPC*%
G36*
X283486Y536513D02*
X283486Y536513D01*
X283690Y537541D01*
X284350Y539133D01*
X285307Y540565D01*
X286525Y541783D01*
X287957Y542740D01*
X289549Y543400D01*
X290577Y543604D01*
X290577Y536513D01*
X283486Y536513D01*
G37*
%LPD*%
%LPC*%
G36*
X308886Y457133D02*
X308886Y457133D01*
X309090Y458161D01*
X309750Y459753D01*
X310707Y461185D01*
X311925Y462403D01*
X313357Y463360D01*
X314949Y464020D01*
X315977Y464224D01*
X315977Y457133D01*
X308886Y457133D01*
G37*
%LPD*%
%LPC*%
G36*
X293623Y533467D02*
X293623Y533467D01*
X300714Y533467D01*
X300510Y532439D01*
X299850Y530847D01*
X298893Y529415D01*
X297675Y528197D01*
X296243Y527240D01*
X294651Y526580D01*
X293623Y526376D01*
X293623Y533467D01*
G37*
%LPD*%
%LPC*%
G36*
X289549Y526580D02*
X289549Y526580D01*
X287957Y527240D01*
X286525Y528197D01*
X285307Y529415D01*
X284350Y530847D01*
X283690Y532439D01*
X283486Y533467D01*
X290577Y533467D01*
X290577Y526376D01*
X289549Y526580D01*
G37*
%LPD*%
%LPC*%
G36*
X314949Y447200D02*
X314949Y447200D01*
X313357Y447860D01*
X311925Y448817D01*
X310707Y450035D01*
X309750Y451467D01*
X309090Y453059D01*
X308886Y454087D01*
X315977Y454087D01*
X315977Y446996D01*
X314949Y447200D01*
G37*
%LPD*%
%LPC*%
G36*
X317499Y455609D02*
X317499Y455609D01*
X317499Y455611D01*
X317501Y455611D01*
X317501Y455609D01*
X317499Y455609D01*
G37*
%LPD*%
%LPC*%
G36*
X292099Y534989D02*
X292099Y534989D01*
X292099Y534991D01*
X292101Y534991D01*
X292101Y534989D01*
X292099Y534989D01*
G37*
%LPD*%
%LPC*%
G36*
X88899Y533399D02*
X88899Y533399D01*
X88899Y533401D01*
X88901Y533401D01*
X88901Y533399D01*
X88899Y533399D01*
G37*
%LPD*%
%LPC*%
G36*
X419099Y609599D02*
X419099Y609599D01*
X419099Y609601D01*
X419101Y609601D01*
X419101Y609599D01*
X419099Y609599D01*
G37*
%LPD*%
D10*
X508000Y127000D03*
X508000Y228600D03*
D11*
X533400Y127000D03*
X533400Y228600D03*
X558800Y127000D03*
X558800Y228600D03*
X584200Y127000D03*
X584200Y228600D03*
X609600Y127000D03*
X609600Y228600D03*
X635000Y127000D03*
X635000Y228600D03*
X660400Y127000D03*
X660400Y228600D03*
X685800Y127000D03*
X685800Y228600D03*
D10*
X266700Y127000D03*
X266700Y228600D03*
D11*
X292100Y127000D03*
X292100Y228600D03*
X317500Y127000D03*
X317500Y228600D03*
X342900Y127000D03*
X342900Y228600D03*
X368300Y127000D03*
X368300Y228600D03*
X393700Y127000D03*
X393700Y228600D03*
X419100Y127000D03*
X419100Y228600D03*
X444500Y127000D03*
X444500Y228600D03*
D10*
X25400Y127000D03*
X25400Y228600D03*
D11*
X50800Y127000D03*
X50800Y228600D03*
X76200Y127000D03*
X76200Y228600D03*
X101600Y127000D03*
X101600Y228600D03*
X127000Y127000D03*
X127000Y228600D03*
X152400Y127000D03*
X152400Y228600D03*
X177800Y127000D03*
X177800Y228600D03*
X203200Y127000D03*
X203200Y228600D03*
D12*
X139700Y355600D03*
D13*
X88900Y355600D03*
D14*
X698500Y622300D03*
X698500Y596900D03*
D15*
X317500Y571500D03*
X292100Y571500D03*
D16*
X533400Y287020D02*
X533400Y271780D01*
X533400Y398780D02*
X533400Y414020D01*
X596900Y287020D02*
X596900Y271780D01*
X596900Y398780D02*
X596900Y414020D01*
X342900Y287020D02*
X342900Y271780D01*
X342900Y398780D02*
X342900Y414020D01*
X660400Y287020D02*
X660400Y271780D01*
X660400Y398780D02*
X660400Y414020D01*
X469900Y287020D02*
X469900Y271780D01*
X469900Y398780D02*
X469900Y414020D01*
X406400Y287020D02*
X406400Y271780D01*
X406400Y398780D02*
X406400Y414020D01*
X215900Y287020D02*
X215900Y271780D01*
X215900Y398780D02*
X215900Y414020D01*
X279400Y287020D02*
X279400Y271780D01*
X279400Y398780D02*
X279400Y414020D01*
D17*
X419100Y602996D02*
X419100Y616204D01*
X393700Y616204D02*
X393700Y602996D01*
X368300Y602996D02*
X368300Y616204D01*
X342900Y616204D02*
X342900Y602996D01*
X317500Y602996D02*
X317500Y616204D01*
X292100Y616204D02*
X292100Y602996D01*
X266700Y602996D02*
X266700Y616204D01*
X241300Y616204D02*
X241300Y602996D01*
X215900Y602996D02*
X215900Y616204D01*
X190500Y616204D02*
X190500Y602996D01*
X165100Y602996D02*
X165100Y616204D01*
X139700Y616204D02*
X139700Y602996D01*
D18*
X139700Y455610D03*
D19*
X165100Y455610D03*
X190500Y455610D03*
X215900Y455610D03*
X241300Y455610D03*
X266700Y455610D03*
X292100Y455610D03*
X317500Y455610D03*
X342900Y455610D03*
X368300Y455610D03*
X393700Y455610D03*
X419100Y455610D03*
X444500Y455610D03*
X469900Y455610D03*
X469900Y534990D03*
X444500Y534990D03*
X419100Y534990D03*
X393700Y534990D03*
X368300Y534990D03*
X342900Y534990D03*
X317500Y534990D03*
X292100Y534990D03*
X266700Y534990D03*
X241300Y534990D03*
X215900Y534990D03*
X190500Y534990D03*
X165100Y534990D03*
X139700Y534990D03*
D17*
X32004Y622300D02*
X18796Y622300D01*
X18796Y596900D02*
X32004Y596900D01*
X32004Y571500D02*
X18796Y571500D01*
X18796Y546100D02*
X32004Y546100D01*
X32004Y520700D02*
X18796Y520700D01*
X18796Y495300D02*
X32004Y495300D01*
X32004Y469900D02*
X18796Y469900D01*
X18796Y444500D02*
X32004Y444500D01*
D16*
X33020Y330200D02*
X17780Y330200D01*
X17780Y355600D02*
X33020Y355600D01*
X33020Y381000D02*
X17780Y381000D01*
D20*
X76200Y279400D03*
X152400Y279400D03*
D21*
X88900Y457200D03*
X88900Y533400D03*
D22*
X534360Y457718D03*
X554360Y457718D03*
X574360Y457718D03*
X594360Y457718D03*
X614360Y457718D03*
X634360Y457718D03*
X654360Y457718D03*
X534360Y617718D03*
X554360Y617718D03*
X574360Y617718D03*
X594360Y617718D03*
X614360Y617718D03*
X634360Y617718D03*
X654360Y617718D03*
D23*
X622700Y59754D02*
X622700Y41847D01*
X672700Y41847D02*
X672700Y59754D01*
X521100Y59754D02*
X521100Y41847D01*
X571100Y41847D02*
X571100Y59754D01*
X279800Y59754D02*
X279800Y41847D01*
X329800Y41847D02*
X329800Y59754D01*
X381400Y59754D02*
X381400Y41847D01*
X431400Y41847D02*
X431400Y59754D01*
X38500Y59754D02*
X38500Y41847D01*
X88500Y41847D02*
X88500Y59754D01*
X140100Y59754D02*
X140100Y41847D01*
X190100Y41847D02*
X190100Y59754D01*
D16*
X687578Y506730D02*
X702818Y506730D01*
X702818Y481330D02*
X687578Y481330D01*
X687578Y455930D02*
X702818Y455930D01*
X702818Y430530D02*
X687578Y430530D01*
X687578Y405130D02*
X702818Y405130D01*
D24*
X596900Y241300D02*
X584200Y228600D01*
X596900Y241300D02*
X596900Y279400D01*
D25*
X647700Y533400D02*
X604164Y576936D01*
X647700Y533400D02*
X698500Y533400D01*
X698500Y596900D01*
X614360Y617718D02*
X604164Y576936D01*
X317500Y565150D02*
X292100Y539750D01*
X317500Y565150D02*
X317500Y571500D01*
X292100Y539750D02*
X292100Y534990D01*
X292100Y482600D02*
X317500Y457200D01*
X292100Y482600D02*
X292100Y534990D01*
X317500Y457200D02*
X317500Y455610D01*
X25400Y546100D02*
X25400Y571500D01*
X25400Y520700D02*
X25400Y501650D01*
X50800Y406400D02*
X25400Y381000D01*
X50800Y406400D02*
X50800Y476250D01*
X25400Y501650D01*
X25400Y495300D01*
X25400Y520700D02*
X25400Y546100D01*
D24*
X342900Y279400D02*
X389382Y279400D01*
X389382Y294132D01*
X400050Y304800D01*
X423164Y304800D01*
X423164Y232664D01*
X419100Y228600D01*
X609600Y228600D02*
X660400Y279400D01*
D25*
X558800Y127000D02*
X527050Y95250D01*
X527050Y50800D01*
X521100Y50800D01*
X571500Y114300D02*
X584200Y127000D01*
X571500Y114300D02*
X571500Y50800D01*
X571100Y50800D01*
X622300Y114300D02*
X609600Y127000D01*
X622300Y114300D02*
X622300Y50800D01*
X622700Y50800D01*
X666750Y95250D02*
X635000Y127000D01*
X666750Y95250D02*
X666750Y50800D01*
X672700Y50800D01*
D24*
X355600Y215900D02*
X342900Y228600D01*
X355600Y215900D02*
X488950Y215900D01*
X488950Y234950D01*
X533400Y279400D01*
X406400Y266700D02*
X368300Y228600D01*
X406400Y266700D02*
X406400Y279400D01*
D25*
X317500Y127000D02*
X285750Y95250D01*
X285750Y50800D01*
X279800Y50800D01*
X330200Y114300D02*
X342900Y127000D01*
X330200Y114300D02*
X330200Y50800D01*
X329800Y50800D01*
X381000Y114300D02*
X368300Y127000D01*
X381000Y114300D02*
X381000Y50800D01*
X381400Y50800D01*
X425450Y95250D02*
X393700Y127000D01*
X425450Y95250D02*
X425450Y50800D01*
X431400Y50800D01*
X76200Y279400D02*
X25400Y228600D01*
X266700Y228600D02*
X292100Y203200D01*
X508000Y203200D01*
X508000Y228600D01*
X114300Y381000D02*
X88900Y355600D01*
X114300Y381000D02*
X254000Y381000D01*
X254000Y241300D01*
X266700Y228600D01*
X25400Y444500D02*
X25400Y469900D01*
X139700Y292100D02*
X152400Y279400D01*
X139700Y317500D02*
X139700Y355600D01*
X139700Y317500D02*
X139700Y292100D01*
X69850Y146050D02*
X50800Y127000D01*
X234950Y146050D02*
X292100Y146050D01*
X234950Y146050D02*
X69850Y146050D01*
X292100Y146050D02*
X292100Y127000D01*
X234950Y317500D02*
X139700Y317500D01*
X234950Y317500D02*
X234950Y146050D01*
D24*
X133350Y260350D02*
X101600Y228600D01*
X133350Y260350D02*
X215900Y260350D01*
X215900Y279400D01*
D25*
X76200Y127000D02*
X44450Y95250D01*
X44450Y50800D01*
X38500Y50800D01*
X88900Y114300D02*
X101600Y127000D01*
X88900Y114300D02*
X88900Y50800D01*
X88500Y50800D01*
X139700Y114300D02*
X127000Y127000D01*
X139700Y114300D02*
X139700Y50800D01*
X140100Y50800D01*
X184150Y95250D02*
X152400Y127000D01*
X184150Y95250D02*
X184150Y50800D01*
X190100Y50800D01*
D24*
X215900Y425450D02*
X190500Y450850D01*
X215900Y425450D02*
X215900Y406400D01*
X190500Y450850D02*
X190500Y455610D01*
X444500Y539750D02*
X457200Y552450D01*
X457200Y596900D01*
X469900Y609600D01*
X526883Y609600D01*
X444500Y539750D02*
X444500Y534990D01*
X526883Y609600D02*
X534360Y617718D01*
X260350Y406400D02*
X215900Y450850D01*
X260350Y406400D02*
X260350Y393700D01*
X285750Y368300D01*
X553466Y368300D01*
X553466Y456518D01*
X215900Y455610D02*
X215900Y450850D01*
X553466Y456518D02*
X554360Y457718D01*
X88900Y457200D02*
X63500Y431800D01*
X63500Y361950D01*
X31750Y330200D01*
X25400Y330200D01*
X266700Y450850D02*
X336550Y381000D01*
X533400Y381000D01*
X533400Y406400D01*
X266700Y450850D02*
X266700Y455610D01*
X628650Y596900D02*
X628650Y612842D01*
X628650Y596900D02*
X635000Y590550D01*
X654050Y590550D02*
X679450Y590550D01*
X654050Y590550D02*
X635000Y590550D01*
X679450Y590550D02*
X679450Y603250D01*
X698500Y622300D01*
X634360Y617718D02*
X628650Y612842D01*
X25400Y622300D02*
X25400Y596900D01*
X254000Y571500D02*
X292100Y571500D01*
X254000Y571500D02*
X254000Y495300D01*
X292100Y457200D01*
X292100Y455610D01*
X654050Y552450D02*
X654050Y590550D01*
D26*
X654050Y552450D03*
D24*
X190500Y534990D02*
X190500Y609600D01*
X215900Y609600D02*
X215900Y534990D01*
X241300Y534990D02*
X241300Y609600D01*
X355600Y469900D02*
X368300Y457200D01*
X355600Y469900D02*
X355600Y590550D01*
X368300Y457200D02*
X368300Y455610D01*
D26*
X355600Y590550D03*
D24*
X330200Y469900D02*
X342900Y457200D01*
X330200Y469900D02*
X330200Y558800D01*
X336550Y565150D01*
X336550Y587756D01*
X317500Y606806D01*
X317500Y609600D01*
X342900Y457200D02*
X342900Y455610D01*
X469900Y534990D02*
X469900Y590550D01*
D26*
X469900Y590550D03*
D24*
X368300Y609600D02*
X368300Y552450D01*
D26*
X368300Y552450D03*
D24*
X203200Y520700D02*
X140335Y457835D01*
X139700Y457200D01*
X203200Y520700D02*
X228600Y520700D01*
X228600Y622300D01*
X234950Y628650D01*
X394335Y628650D01*
X394335Y609600D01*
X393700Y609600D01*
X140970Y457200D02*
X139700Y455610D01*
X140970Y457200D02*
X140335Y457835D01*
X139700Y534990D02*
X139700Y609600D01*
X165100Y609600D02*
X165100Y534990D01*
X514350Y520700D02*
X520700Y514350D01*
X520700Y472549D01*
X534360Y457718D01*
D26*
X514350Y520700D03*
D24*
X515620Y552450D02*
X567182Y604012D01*
X515620Y552450D02*
X514350Y552450D01*
X574360Y609063D02*
X574360Y617718D01*
X574360Y609063D02*
X567182Y604012D01*
D26*
X514350Y552450D03*
D24*
X381000Y520700D02*
X368300Y533400D01*
X381000Y520700D02*
X501650Y520700D01*
X501650Y558800D01*
X539750Y596900D01*
X539750Y597348D01*
X368300Y534990D02*
X368300Y533400D01*
X554360Y617718D02*
X555376Y616702D01*
X555376Y610692D01*
X539750Y597348D01*
D27*
X654304Y634492D03*
D24*
X698500Y425450D02*
X698500Y406400D01*
X695198Y405130D01*
X698500Y425450D02*
X695198Y430530D01*
X698500Y457200D02*
X698500Y476250D01*
X698500Y457200D02*
X695198Y455930D01*
X698500Y476250D02*
X695198Y481330D01*
M02*
