G04 EAGLE Gerber RS-274X export*
G75*
%MOMM*%
%FSLAX34Y34*%
%LPD*%
%IN*%
%IPPOS*%
%AMOC8*
5,1,8,0,0,1.08239X$1,22.5*%
G01*
%ADD10C,0.254000*%


D10*
X0Y0D02*
X721616Y0D01*
X721616Y647600D01*
X0Y647600D01*
X0Y0D01*
X93269Y588789D02*
X93192Y587810D01*
X93038Y586840D01*
X92809Y585885D01*
X92505Y584951D01*
X92130Y584044D01*
X91684Y583169D01*
X91171Y582332D01*
X90594Y581537D01*
X89956Y580791D01*
X89261Y580096D01*
X88515Y579458D01*
X87720Y578881D01*
X86883Y578368D01*
X86008Y577922D01*
X85101Y577547D01*
X84167Y577243D01*
X83212Y577014D01*
X82242Y576860D01*
X81263Y576783D01*
X80281Y576783D01*
X79302Y576860D01*
X78332Y577014D01*
X77377Y577243D01*
X76443Y577547D01*
X75536Y577922D01*
X74661Y578368D01*
X73824Y578881D01*
X73029Y579458D01*
X72283Y580096D01*
X71588Y580791D01*
X70950Y581537D01*
X70373Y582332D01*
X69860Y583169D01*
X69414Y584044D01*
X69039Y584951D01*
X68735Y585885D01*
X68506Y586840D01*
X68352Y587810D01*
X68275Y588789D01*
X68275Y589771D01*
X68352Y590750D01*
X68506Y591720D01*
X68735Y592675D01*
X69039Y593609D01*
X69414Y594516D01*
X69860Y595391D01*
X70373Y596228D01*
X70950Y597023D01*
X71588Y597769D01*
X72283Y598464D01*
X73029Y599102D01*
X73824Y599679D01*
X74661Y600192D01*
X75536Y600638D01*
X76443Y601013D01*
X77377Y601317D01*
X78332Y601546D01*
X79302Y601700D01*
X80281Y601777D01*
X81263Y601777D01*
X82242Y601700D01*
X83212Y601546D01*
X84167Y601317D01*
X85101Y601013D01*
X86008Y600638D01*
X86883Y600192D01*
X87720Y599679D01*
X88515Y599102D01*
X89261Y598464D01*
X89956Y597769D01*
X90594Y597023D01*
X91171Y596228D01*
X91684Y595391D01*
X92130Y594516D01*
X92505Y593609D01*
X92809Y592675D01*
X93038Y591720D01*
X93192Y590750D01*
X93269Y589771D01*
X93269Y588789D01*
X714553Y279163D02*
X714476Y278184D01*
X714322Y277214D01*
X714093Y276259D01*
X713789Y275325D01*
X713414Y274418D01*
X712968Y273543D01*
X712455Y272706D01*
X711878Y271911D01*
X711240Y271165D01*
X710545Y270470D01*
X709799Y269832D01*
X709004Y269255D01*
X708167Y268742D01*
X707292Y268296D01*
X706385Y267921D01*
X705451Y267617D01*
X704496Y267388D01*
X703526Y267234D01*
X702547Y267157D01*
X701565Y267157D01*
X700586Y267234D01*
X699616Y267388D01*
X698661Y267617D01*
X697727Y267921D01*
X696820Y268296D01*
X695945Y268742D01*
X695108Y269255D01*
X694313Y269832D01*
X693567Y270470D01*
X692872Y271165D01*
X692234Y271911D01*
X691657Y272706D01*
X691144Y273543D01*
X690698Y274418D01*
X690323Y275325D01*
X690019Y276259D01*
X689790Y277214D01*
X689636Y278184D01*
X689559Y279163D01*
X689559Y280145D01*
X689636Y281124D01*
X689790Y282094D01*
X690019Y283049D01*
X690323Y283983D01*
X690698Y284890D01*
X691144Y285765D01*
X691657Y286602D01*
X692234Y287397D01*
X692872Y288143D01*
X693567Y288838D01*
X694313Y289476D01*
X695108Y290053D01*
X695945Y290566D01*
X696820Y291012D01*
X697727Y291387D01*
X698661Y291691D01*
X699616Y291920D01*
X700586Y292074D01*
X701565Y292151D01*
X702547Y292151D01*
X703526Y292074D01*
X704496Y291920D01*
X705451Y291691D01*
X706385Y291387D01*
X707292Y291012D01*
X708167Y290566D01*
X709004Y290053D01*
X709799Y289476D01*
X710545Y288838D01*
X711240Y288143D01*
X711878Y287397D01*
X712455Y286602D01*
X712968Y285765D01*
X713414Y284890D01*
X713789Y283983D01*
X714093Y283049D01*
X714322Y282094D01*
X714476Y281124D01*
X714553Y280145D01*
X714553Y279163D01*
M02*
