M48
;GenerationSoftware,Autodesk,EAGLE,9.3.0*%
;CreationDate,2019-05-05T04:24:42Z*%
FMAT,2
ICI,OFF
METRIC,TZ,000.000
T7C0.800
T6C0.813
T5C1.016
T4C1.118
T3C1.194
T2C3.302
%
G90
M71
T2
X14224Y33020
T3
X12700Y16550
X12700Y21550
X12700Y6390
X12700Y11390
T4
X31750Y35560
X31750Y33020
X31750Y30480
T5
X39370Y24130
X52070Y3810
X52070Y24130
X39370Y19050
X52070Y19050
X39370Y3810
X39370Y13970
X52070Y13970
X39370Y8890
X52070Y8890
X55880Y35560
X55880Y30480
T6
X45720Y34290
X58420Y21590
X58420Y19050
X58420Y16510
X58420Y13970
X58420Y11430
X58420Y8890
X58420Y6350
X58420Y3810
X45720Y30480
X38100Y30480
X38100Y34290
T7
X21590Y17780
X31750Y17780
X21590Y15240
X31750Y15240
X21590Y12700
X31750Y12700
X21590Y10160
X31750Y10160
X21590Y7620
X31750Y7620
X21590Y5080
X31750Y5080
X31750Y20320
X21590Y20320
X31750Y22860
X21590Y22860
M30