G04 EAGLE Gerber RS-274X export*
G75*
%MOMM*%
%FSLAX34Y34*%
%LPD*%
%INTop Copper*%
%IPPOS*%
%AMOC8*
5,1,8,0,0,1.08239X$1,22.5*%
G01*
%ADD10R,1.308000X1.308000*%
%ADD11C,1.308000*%
%ADD12C,2.540000*%
%ADD13P,2.749271X8X292.500000*%
%ADD14C,1.524000*%
%ADD15C,1.676400*%
%ADD16P,1.429621X8X22.500000*%
%ADD17C,1.320800*%
%ADD18C,1.790700*%
%ADD19C,1.016000*%

G36*
X608098Y10164D02*
X608098Y10164D01*
X608117Y10162D01*
X608219Y10184D01*
X608321Y10200D01*
X608338Y10210D01*
X608358Y10214D01*
X608447Y10267D01*
X608538Y10316D01*
X608552Y10330D01*
X608569Y10340D01*
X608636Y10419D01*
X608708Y10494D01*
X608716Y10512D01*
X608729Y10527D01*
X608768Y10623D01*
X608811Y10717D01*
X608813Y10737D01*
X608821Y10755D01*
X608839Y10922D01*
X608839Y382678D01*
X608836Y382698D01*
X608838Y382717D01*
X608816Y382819D01*
X608800Y382921D01*
X608790Y382938D01*
X608786Y382958D01*
X608733Y383047D01*
X608684Y383138D01*
X608670Y383152D01*
X608660Y383169D01*
X608581Y383236D01*
X608506Y383308D01*
X608488Y383316D01*
X608473Y383329D01*
X608377Y383368D01*
X608283Y383411D01*
X608263Y383413D01*
X608245Y383421D01*
X608078Y383439D01*
X87122Y383439D01*
X87102Y383436D01*
X87083Y383438D01*
X86981Y383416D01*
X86879Y383400D01*
X86862Y383390D01*
X86842Y383386D01*
X86753Y383333D01*
X86662Y383284D01*
X86648Y383270D01*
X86631Y383260D01*
X86564Y383181D01*
X86492Y383106D01*
X86484Y383088D01*
X86471Y383073D01*
X86432Y382977D01*
X86389Y382883D01*
X86387Y382863D01*
X86379Y382845D01*
X86361Y382678D01*
X86361Y10922D01*
X86364Y10902D01*
X86362Y10883D01*
X86384Y10781D01*
X86400Y10679D01*
X86410Y10662D01*
X86414Y10642D01*
X86467Y10553D01*
X86516Y10462D01*
X86530Y10448D01*
X86540Y10431D01*
X86619Y10364D01*
X86694Y10292D01*
X86712Y10284D01*
X86727Y10271D01*
X86823Y10232D01*
X86917Y10189D01*
X86937Y10187D01*
X86955Y10179D01*
X87122Y10161D01*
X608078Y10161D01*
X608098Y10164D01*
G37*
%LPC*%
G36*
X510554Y25399D02*
X510554Y25399D01*
X505886Y27333D01*
X502313Y30906D01*
X500379Y35574D01*
X500379Y40626D01*
X502313Y45294D01*
X505886Y48867D01*
X506514Y49128D01*
X506553Y49152D01*
X506597Y49168D01*
X506657Y49216D01*
X506723Y49257D01*
X506753Y49293D01*
X506789Y49321D01*
X506831Y49387D01*
X506880Y49447D01*
X506897Y49490D01*
X506922Y49528D01*
X506941Y49604D01*
X506968Y49676D01*
X506970Y49722D01*
X506982Y49767D01*
X506976Y49844D01*
X506979Y49922D01*
X506966Y49966D01*
X506962Y50012D01*
X506932Y50083D01*
X506910Y50158D01*
X506884Y50196D01*
X506866Y50238D01*
X506781Y50345D01*
X506770Y50360D01*
X506766Y50363D01*
X506761Y50369D01*
X415320Y141810D01*
X415262Y141852D01*
X415210Y141902D01*
X415163Y141924D01*
X415121Y141954D01*
X415052Y141975D01*
X414987Y142005D01*
X414935Y142011D01*
X414885Y142026D01*
X414814Y142024D01*
X414743Y142032D01*
X414692Y142021D01*
X414640Y142020D01*
X414572Y141995D01*
X414502Y141980D01*
X414458Y141953D01*
X414409Y141935D01*
X414353Y141891D01*
X414291Y141854D01*
X414257Y141814D01*
X414217Y141782D01*
X414178Y141721D01*
X414131Y141667D01*
X414112Y141619D01*
X414084Y141575D01*
X414066Y141505D01*
X414039Y141439D01*
X414031Y141367D01*
X414023Y141336D01*
X414025Y141313D01*
X414021Y141272D01*
X414021Y137174D01*
X412087Y132506D01*
X408514Y128933D01*
X403846Y126999D01*
X383554Y126999D01*
X378886Y128933D01*
X375313Y132506D01*
X373379Y137174D01*
X373379Y142226D01*
X375313Y146894D01*
X378886Y150467D01*
X383554Y152401D01*
X403846Y152401D01*
X407887Y150727D01*
X407931Y150717D01*
X407973Y150697D01*
X408050Y150689D01*
X408126Y150671D01*
X408172Y150675D01*
X408217Y150670D01*
X408294Y150687D01*
X408371Y150694D01*
X408413Y150713D01*
X408458Y150722D01*
X408525Y150762D01*
X408596Y150794D01*
X408630Y150825D01*
X408669Y150849D01*
X408720Y150908D01*
X408777Y150960D01*
X408799Y151001D01*
X408829Y151036D01*
X408858Y151108D01*
X408895Y151176D01*
X408904Y151221D01*
X408921Y151264D01*
X408936Y151400D01*
X408939Y151418D01*
X408938Y151423D01*
X408939Y151430D01*
X408939Y178770D01*
X408932Y178815D01*
X408934Y178861D01*
X408912Y178936D01*
X408900Y179012D01*
X408878Y179053D01*
X408865Y179097D01*
X408821Y179161D01*
X408784Y179230D01*
X408751Y179261D01*
X408725Y179299D01*
X408662Y179345D01*
X408606Y179399D01*
X408564Y179418D01*
X408528Y179446D01*
X408454Y179470D01*
X408383Y179503D01*
X408337Y179508D01*
X408294Y179522D01*
X408216Y179521D01*
X408139Y179530D01*
X408094Y179520D01*
X408048Y179520D01*
X407916Y179481D01*
X407898Y179478D01*
X407894Y179475D01*
X407887Y179473D01*
X403846Y177799D01*
X390604Y177799D01*
X390514Y177785D01*
X390423Y177777D01*
X390393Y177765D01*
X390361Y177760D01*
X390281Y177717D01*
X390197Y177681D01*
X390165Y177655D01*
X390144Y177644D01*
X390122Y177621D01*
X390066Y177576D01*
X356276Y143786D01*
X352541Y142239D01*
X323488Y142239D01*
X323423Y142229D01*
X323357Y142228D01*
X323277Y142205D01*
X323245Y142200D01*
X323228Y142190D01*
X323196Y142181D01*
X319812Y140779D01*
X315188Y140779D01*
X310917Y142548D01*
X307648Y145817D01*
X305879Y150088D01*
X305879Y154712D01*
X307648Y158983D01*
X310917Y162252D01*
X315188Y164021D01*
X319812Y164021D01*
X323196Y162619D01*
X323260Y162604D01*
X323321Y162579D01*
X323404Y162570D01*
X323436Y162563D01*
X323455Y162564D01*
X323488Y162561D01*
X345996Y162561D01*
X346086Y162575D01*
X346177Y162583D01*
X346207Y162595D01*
X346239Y162600D01*
X346319Y162643D01*
X346403Y162679D01*
X346435Y162705D01*
X346456Y162716D01*
X346478Y162739D01*
X346534Y162784D01*
X373156Y189406D01*
X373209Y189480D01*
X373269Y189549D01*
X373281Y189579D01*
X373300Y189606D01*
X373327Y189692D01*
X373361Y189777D01*
X373365Y189818D01*
X373372Y189841D01*
X373371Y189873D01*
X373379Y189944D01*
X373379Y193026D01*
X375313Y197694D01*
X378886Y201267D01*
X383554Y203201D01*
X403846Y203201D01*
X407887Y201527D01*
X407931Y201517D01*
X407973Y201497D01*
X408050Y201489D01*
X408126Y201471D01*
X408172Y201475D01*
X408217Y201470D01*
X408294Y201487D01*
X408371Y201494D01*
X408413Y201513D01*
X408458Y201522D01*
X408525Y201562D01*
X408596Y201594D01*
X408630Y201625D01*
X408669Y201649D01*
X408720Y201708D01*
X408777Y201760D01*
X408799Y201801D01*
X408829Y201836D01*
X408858Y201908D01*
X408895Y201976D01*
X408904Y202021D01*
X408921Y202064D01*
X408936Y202200D01*
X408939Y202218D01*
X408938Y202223D01*
X408939Y202230D01*
X408939Y229570D01*
X408932Y229615D01*
X408934Y229661D01*
X408912Y229736D01*
X408900Y229812D01*
X408878Y229853D01*
X408865Y229897D01*
X408821Y229961D01*
X408784Y230030D01*
X408751Y230061D01*
X408725Y230099D01*
X408662Y230145D01*
X408606Y230199D01*
X408564Y230218D01*
X408528Y230246D01*
X408454Y230270D01*
X408383Y230303D01*
X408337Y230308D01*
X408294Y230322D01*
X408216Y230321D01*
X408139Y230330D01*
X408094Y230320D01*
X408048Y230320D01*
X407916Y230281D01*
X407898Y230278D01*
X407894Y230275D01*
X407887Y230273D01*
X403846Y228599D01*
X395684Y228599D01*
X395594Y228585D01*
X395503Y228577D01*
X395473Y228565D01*
X395441Y228560D01*
X395361Y228517D01*
X395277Y228481D01*
X395245Y228455D01*
X395224Y228444D01*
X395202Y228421D01*
X395146Y228376D01*
X341036Y174266D01*
X337301Y172719D01*
X328482Y172719D01*
X328368Y172700D01*
X328251Y172683D01*
X328246Y172681D01*
X328240Y172680D01*
X328137Y172625D01*
X328032Y172572D01*
X328028Y172567D01*
X328022Y172564D01*
X327942Y172480D01*
X327860Y172396D01*
X327856Y172390D01*
X327853Y172386D01*
X327845Y172369D01*
X327779Y172249D01*
X327352Y171217D01*
X324083Y167948D01*
X319812Y166179D01*
X315188Y166179D01*
X310917Y167948D01*
X307648Y171217D01*
X305879Y175488D01*
X305879Y180112D01*
X307648Y184383D01*
X310983Y187717D01*
X311021Y187770D01*
X311067Y187817D01*
X311107Y187890D01*
X311127Y187917D01*
X311132Y187936D01*
X311148Y187964D01*
X311426Y188636D01*
X311602Y188812D01*
X311625Y188843D01*
X311654Y188868D01*
X311745Y189009D01*
X311856Y189232D01*
X313090Y190302D01*
X313103Y190317D01*
X313129Y190339D01*
X313804Y191013D01*
X313831Y191051D01*
X313865Y191082D01*
X313902Y191150D01*
X313948Y191213D01*
X313961Y191257D01*
X313983Y191297D01*
X313997Y191374D01*
X314020Y191448D01*
X314019Y191494D01*
X314027Y191539D01*
X314016Y191616D01*
X314014Y191694D01*
X313998Y191737D01*
X313991Y191783D01*
X313956Y191852D01*
X313929Y191925D01*
X313900Y191961D01*
X313880Y192002D01*
X313824Y192056D01*
X313775Y192117D01*
X313737Y192142D01*
X313704Y192174D01*
X313584Y192240D01*
X313568Y192250D01*
X313564Y192251D01*
X313557Y192255D01*
X310917Y193348D01*
X307648Y196617D01*
X305879Y200888D01*
X305879Y205512D01*
X307648Y209783D01*
X310917Y213052D01*
X315188Y214821D01*
X319812Y214821D01*
X324083Y213052D01*
X327352Y209783D01*
X329121Y205512D01*
X329121Y200888D01*
X327352Y196617D01*
X325074Y194340D01*
X325033Y194282D01*
X324983Y194230D01*
X324961Y194183D01*
X324931Y194141D01*
X324910Y194072D01*
X324880Y194007D01*
X324874Y193955D01*
X324859Y193905D01*
X324860Y193834D01*
X324853Y193763D01*
X324864Y193712D01*
X324865Y193660D01*
X324890Y193592D01*
X324905Y193522D01*
X324931Y193477D01*
X324949Y193429D01*
X324994Y193373D01*
X325031Y193311D01*
X325071Y193277D01*
X325103Y193237D01*
X325163Y193198D01*
X325218Y193151D01*
X325266Y193132D01*
X325310Y193104D01*
X325379Y193086D01*
X325446Y193059D01*
X325517Y193051D01*
X325549Y193043D01*
X325572Y193045D01*
X325613Y193041D01*
X330756Y193041D01*
X330846Y193055D01*
X330937Y193063D01*
X330967Y193075D01*
X330999Y193080D01*
X331079Y193123D01*
X331163Y193159D01*
X331195Y193185D01*
X331216Y193196D01*
X331238Y193219D01*
X331294Y193264D01*
X374023Y235992D01*
X374090Y236086D01*
X374161Y236181D01*
X374163Y236187D01*
X374166Y236192D01*
X374200Y236303D01*
X374237Y236415D01*
X374237Y236421D01*
X374239Y236427D01*
X374236Y236544D01*
X374234Y236661D01*
X374232Y236668D01*
X374232Y236673D01*
X374226Y236690D01*
X374188Y236822D01*
X373379Y238774D01*
X373379Y243826D01*
X375313Y248494D01*
X378886Y252067D01*
X383554Y254001D01*
X403846Y254001D01*
X407887Y252327D01*
X407931Y252317D01*
X407973Y252297D01*
X408050Y252289D01*
X408126Y252271D01*
X408172Y252275D01*
X408217Y252270D01*
X408294Y252287D01*
X408371Y252294D01*
X408413Y252313D01*
X408458Y252322D01*
X408525Y252362D01*
X408596Y252394D01*
X408630Y252425D01*
X408669Y252449D01*
X408720Y252508D01*
X408777Y252560D01*
X408799Y252601D01*
X408829Y252636D01*
X408858Y252708D01*
X408895Y252776D01*
X408904Y252821D01*
X408921Y252864D01*
X408936Y252999D01*
X408939Y253018D01*
X408938Y253023D01*
X408939Y253030D01*
X408939Y262176D01*
X408925Y262266D01*
X408917Y262357D01*
X408905Y262387D01*
X408900Y262419D01*
X408857Y262499D01*
X408821Y262583D01*
X408795Y262615D01*
X408784Y262636D01*
X408761Y262658D01*
X408716Y262714D01*
X378538Y292892D01*
X378464Y292945D01*
X378395Y293005D01*
X378365Y293017D01*
X378338Y293036D01*
X378252Y293063D01*
X378167Y293097D01*
X378126Y293101D01*
X378103Y293108D01*
X378071Y293107D01*
X378000Y293115D01*
X376160Y293115D01*
X374859Y294416D01*
X374785Y294469D01*
X374716Y294529D01*
X374686Y294541D01*
X374659Y294560D01*
X374572Y294587D01*
X374487Y294621D01*
X374447Y294625D01*
X374424Y294632D01*
X374392Y294631D01*
X374321Y294639D01*
X335076Y294639D01*
X334986Y294625D01*
X334895Y294617D01*
X334865Y294605D01*
X334833Y294600D01*
X334752Y294557D01*
X334668Y294521D01*
X334636Y294495D01*
X334616Y294484D01*
X334593Y294461D01*
X334537Y294416D01*
X333508Y293387D01*
X328560Y291337D01*
X311610Y291337D01*
X311539Y291326D01*
X311468Y291324D01*
X311419Y291306D01*
X311367Y291298D01*
X311304Y291264D01*
X311237Y291239D01*
X311196Y291207D01*
X311150Y291182D01*
X311101Y291130D01*
X311045Y291086D01*
X311016Y291042D01*
X310980Y291004D01*
X310950Y290939D01*
X310912Y290879D01*
X310899Y290828D01*
X310877Y290781D01*
X310869Y290710D01*
X310851Y290640D01*
X310856Y290588D01*
X310850Y290537D01*
X310865Y290466D01*
X310871Y290395D01*
X310891Y290347D01*
X310902Y290296D01*
X310939Y290235D01*
X310967Y290169D01*
X311012Y290113D01*
X311028Y290085D01*
X311046Y290070D01*
X311072Y290038D01*
X321034Y280076D01*
X322581Y276341D01*
X322581Y240982D01*
X322584Y240962D01*
X322582Y240943D01*
X322604Y240841D01*
X322620Y240739D01*
X322630Y240722D01*
X322634Y240702D01*
X322687Y240613D01*
X322736Y240522D01*
X322750Y240508D01*
X322760Y240491D01*
X322839Y240424D01*
X322914Y240352D01*
X322932Y240344D01*
X322947Y240331D01*
X323043Y240292D01*
X323137Y240249D01*
X323157Y240247D01*
X323175Y240239D01*
X323342Y240221D01*
X326145Y240221D01*
X329121Y237245D01*
X329121Y219955D01*
X326145Y216979D01*
X308855Y216979D01*
X305879Y219955D01*
X305879Y220456D01*
X305865Y220546D01*
X305857Y220637D01*
X305845Y220667D01*
X305840Y220699D01*
X305797Y220779D01*
X305761Y220863D01*
X305735Y220895D01*
X305724Y220916D01*
X305701Y220938D01*
X305656Y220994D01*
X303806Y222844D01*
X302259Y226579D01*
X302259Y269796D01*
X302245Y269886D01*
X302237Y269977D01*
X302225Y270007D01*
X302220Y270039D01*
X302177Y270119D01*
X302141Y270203D01*
X302115Y270235D01*
X302104Y270256D01*
X302081Y270278D01*
X302036Y270334D01*
X280946Y291424D01*
X279399Y295159D01*
X279399Y314441D01*
X280946Y318176D01*
X295553Y332782D01*
X295591Y332836D01*
X295637Y332882D01*
X295677Y332956D01*
X295697Y332982D01*
X295702Y333001D01*
X295718Y333029D01*
X297705Y337826D01*
X301492Y341613D01*
X302901Y342197D01*
X302962Y342235D01*
X303027Y342264D01*
X303066Y342299D01*
X303110Y342326D01*
X303156Y342382D01*
X303208Y342430D01*
X303233Y342476D01*
X303267Y342516D01*
X303292Y342583D01*
X303327Y342646D01*
X303336Y342697D01*
X303355Y342745D01*
X303358Y342817D01*
X303371Y342888D01*
X303363Y342939D01*
X303365Y342991D01*
X303345Y343060D01*
X303335Y343131D01*
X303311Y343177D01*
X303297Y343227D01*
X303256Y343286D01*
X303223Y343350D01*
X303186Y343387D01*
X303156Y343429D01*
X303099Y343472D01*
X303048Y343522D01*
X302985Y343557D01*
X302959Y343576D01*
X302937Y343583D01*
X302901Y343603D01*
X301492Y344187D01*
X297705Y347974D01*
X295655Y352922D01*
X295655Y358278D01*
X297705Y363226D01*
X301492Y367013D01*
X306440Y369063D01*
X316278Y369063D01*
X316368Y369077D01*
X316459Y369085D01*
X316489Y369097D01*
X316521Y369102D01*
X316601Y369145D01*
X316685Y369181D01*
X316717Y369207D01*
X316738Y369218D01*
X316760Y369241D01*
X316816Y369286D01*
X321904Y374374D01*
X325639Y375921D01*
X398261Y375921D01*
X401996Y374374D01*
X404961Y371409D01*
X459662Y316708D01*
X459736Y316655D01*
X459805Y316595D01*
X459835Y316583D01*
X459861Y316564D01*
X459948Y316537D01*
X460033Y316503D01*
X460074Y316499D01*
X460097Y316492D01*
X460129Y316493D01*
X460200Y316485D01*
X462040Y316485D01*
X463341Y315184D01*
X463415Y315131D01*
X463484Y315071D01*
X463514Y315059D01*
X463541Y315040D01*
X463628Y315013D01*
X463713Y314979D01*
X463753Y314975D01*
X463776Y314968D01*
X463808Y314969D01*
X463879Y314961D01*
X497321Y314961D01*
X501056Y313414D01*
X557254Y257216D01*
X558801Y253481D01*
X558801Y225504D01*
X558815Y225414D01*
X558823Y225323D01*
X558835Y225293D01*
X558840Y225261D01*
X558883Y225181D01*
X558919Y225097D01*
X558945Y225065D01*
X558956Y225044D01*
X558979Y225022D01*
X559024Y224966D01*
X565063Y218927D01*
X565100Y218900D01*
X565131Y218866D01*
X565200Y218828D01*
X565263Y218783D01*
X565306Y218770D01*
X565347Y218747D01*
X565423Y218734D01*
X565498Y218711D01*
X565544Y218712D01*
X565589Y218704D01*
X565666Y218715D01*
X565744Y218717D01*
X565787Y218733D01*
X565832Y218739D01*
X565901Y218775D01*
X565975Y218801D01*
X566010Y218830D01*
X566051Y218851D01*
X566106Y218907D01*
X566167Y218955D01*
X566191Y218994D01*
X566224Y219027D01*
X566290Y219146D01*
X566300Y219162D01*
X566301Y219167D01*
X566304Y219174D01*
X567690Y222519D01*
X570977Y225806D01*
X575272Y227585D01*
X575818Y227585D01*
X575838Y227588D01*
X575857Y227586D01*
X575959Y227608D01*
X576061Y227624D01*
X576078Y227634D01*
X576098Y227638D01*
X576187Y227691D01*
X576278Y227740D01*
X576292Y227754D01*
X576309Y227764D01*
X576376Y227843D01*
X576448Y227918D01*
X576456Y227936D01*
X576469Y227951D01*
X576508Y228047D01*
X576551Y228141D01*
X576553Y228161D01*
X576561Y228179D01*
X576579Y228346D01*
X576579Y295596D01*
X576568Y295666D01*
X576566Y295738D01*
X576548Y295787D01*
X576540Y295838D01*
X576506Y295902D01*
X576481Y295969D01*
X576449Y296010D01*
X576424Y296056D01*
X576372Y296105D01*
X576328Y296161D01*
X576284Y296189D01*
X576246Y296225D01*
X576181Y296255D01*
X576121Y296294D01*
X576070Y296307D01*
X576023Y296329D01*
X575952Y296337D01*
X575882Y296354D01*
X575830Y296350D01*
X575779Y296356D01*
X575708Y296341D01*
X575637Y296335D01*
X575589Y296315D01*
X575538Y296304D01*
X575477Y296267D01*
X575411Y296239D01*
X575355Y296194D01*
X575327Y296178D01*
X575312Y296160D01*
X575280Y296134D01*
X566165Y287019D01*
X551435Y287019D01*
X541019Y297435D01*
X541019Y312165D01*
X551435Y322581D01*
X566165Y322581D01*
X575280Y313466D01*
X575338Y313424D01*
X575390Y313375D01*
X575437Y313353D01*
X575479Y313322D01*
X575548Y313301D01*
X575613Y313271D01*
X575665Y313265D01*
X575715Y313250D01*
X575786Y313252D01*
X575857Y313244D01*
X575908Y313255D01*
X575960Y313256D01*
X576028Y313281D01*
X576098Y313296D01*
X576143Y313323D01*
X576191Y313341D01*
X576247Y313386D01*
X576309Y313422D01*
X576343Y313462D01*
X576383Y313495D01*
X576422Y313555D01*
X576469Y313609D01*
X576488Y313658D01*
X576516Y313702D01*
X576534Y313771D01*
X576561Y313838D01*
X576569Y313909D01*
X576577Y313940D01*
X576575Y313963D01*
X576579Y314004D01*
X576579Y323136D01*
X576565Y323226D01*
X576557Y323317D01*
X576545Y323347D01*
X576540Y323379D01*
X576497Y323459D01*
X576461Y323543D01*
X576435Y323575D01*
X576424Y323596D01*
X576401Y323618D01*
X576356Y323674D01*
X562434Y337596D01*
X562360Y337649D01*
X562291Y337709D01*
X562261Y337721D01*
X562235Y337740D01*
X562148Y337767D01*
X562063Y337801D01*
X562022Y337805D01*
X561999Y337812D01*
X561967Y337811D01*
X561896Y337819D01*
X555263Y337819D01*
X549271Y340301D01*
X549207Y340316D01*
X549146Y340341D01*
X549064Y340350D01*
X549031Y340357D01*
X549012Y340356D01*
X548980Y340359D01*
X469646Y340359D01*
X469626Y340356D01*
X469607Y340358D01*
X469505Y340336D01*
X469403Y340320D01*
X469386Y340310D01*
X469366Y340306D01*
X469277Y340253D01*
X469186Y340204D01*
X469172Y340190D01*
X469155Y340180D01*
X469088Y340101D01*
X469016Y340026D01*
X469008Y340008D01*
X468995Y339993D01*
X468956Y339897D01*
X468913Y339803D01*
X468911Y339783D01*
X468903Y339765D01*
X468885Y339598D01*
X468885Y338060D01*
X462040Y331215D01*
X452360Y331215D01*
X445515Y338060D01*
X445515Y347740D01*
X452360Y354585D01*
X454200Y354585D01*
X454290Y354599D01*
X454381Y354607D01*
X454411Y354619D01*
X454443Y354624D01*
X454523Y354667D01*
X454607Y354703D01*
X454639Y354729D01*
X454660Y354740D01*
X454682Y354763D01*
X454738Y354808D01*
X459064Y359134D01*
X462799Y360681D01*
X541150Y360681D01*
X541265Y360700D01*
X541381Y360717D01*
X541387Y360719D01*
X541393Y360720D01*
X541496Y360775D01*
X541600Y360828D01*
X541605Y360833D01*
X541610Y360836D01*
X541690Y360920D01*
X541773Y361004D01*
X541776Y361010D01*
X541780Y361014D01*
X541787Y361031D01*
X541853Y361151D01*
X543726Y365672D01*
X548728Y370674D01*
X555263Y373381D01*
X562337Y373381D01*
X568872Y370674D01*
X573874Y365672D01*
X576581Y359137D01*
X576581Y352504D01*
X576595Y352414D01*
X576603Y352323D01*
X576615Y352293D01*
X576620Y352261D01*
X576663Y352181D01*
X576699Y352097D01*
X576725Y352065D01*
X576736Y352044D01*
X576759Y352022D01*
X576804Y351966D01*
X595354Y333416D01*
X596901Y329681D01*
X596901Y226531D01*
X596920Y226416D01*
X596937Y226300D01*
X596939Y226294D01*
X596940Y226288D01*
X596995Y226185D01*
X597048Y226081D01*
X597053Y226076D01*
X597056Y226071D01*
X597141Y225990D01*
X597224Y225908D01*
X597230Y225905D01*
X597234Y225901D01*
X597251Y225893D01*
X597371Y225827D01*
X597423Y225806D01*
X600710Y222519D01*
X602489Y218224D01*
X602489Y213576D01*
X600710Y209281D01*
X597423Y205994D01*
X593128Y204215D01*
X581612Y204215D01*
X581541Y204204D01*
X581470Y204202D01*
X581421Y204184D01*
X581369Y204176D01*
X581306Y204142D01*
X581239Y204117D01*
X581198Y204085D01*
X581152Y204060D01*
X581103Y204009D01*
X581047Y203964D01*
X581018Y203920D01*
X580982Y203882D01*
X580952Y203817D01*
X580914Y203757D01*
X580901Y203706D01*
X580879Y203659D01*
X580871Y203588D01*
X580853Y203518D01*
X580858Y203466D01*
X580852Y203415D01*
X580867Y203344D01*
X580873Y203273D01*
X580893Y203225D01*
X580904Y203174D01*
X580941Y203113D01*
X580969Y203047D01*
X581014Y202991D01*
X581030Y202963D01*
X581048Y202948D01*
X581074Y202916D01*
X581582Y202408D01*
X581656Y202355D01*
X581725Y202295D01*
X581755Y202283D01*
X581781Y202264D01*
X581868Y202237D01*
X581953Y202203D01*
X581994Y202199D01*
X582017Y202192D01*
X582049Y202193D01*
X582120Y202185D01*
X593128Y202185D01*
X597423Y200406D01*
X600710Y197119D01*
X602489Y192824D01*
X602489Y188176D01*
X600710Y183881D01*
X597423Y180594D01*
X597371Y180573D01*
X597271Y180511D01*
X597171Y180451D01*
X597167Y180446D01*
X597162Y180443D01*
X597087Y180353D01*
X597011Y180264D01*
X597009Y180258D01*
X597005Y180253D01*
X596963Y180145D01*
X596919Y180036D01*
X596918Y180028D01*
X596917Y180024D01*
X596916Y180006D01*
X596901Y179869D01*
X596901Y175731D01*
X596920Y175616D01*
X596937Y175500D01*
X596939Y175494D01*
X596940Y175488D01*
X596995Y175385D01*
X597048Y175281D01*
X597053Y175276D01*
X597056Y175271D01*
X597141Y175190D01*
X597224Y175108D01*
X597230Y175105D01*
X597234Y175101D01*
X597251Y175093D01*
X597371Y175027D01*
X597423Y175006D01*
X600710Y171719D01*
X602489Y167424D01*
X602489Y162776D01*
X600710Y158481D01*
X597423Y155194D01*
X593128Y153415D01*
X575272Y153415D01*
X570977Y155194D01*
X567690Y158481D01*
X565911Y162776D01*
X565911Y167424D01*
X567690Y171719D01*
X570977Y175006D01*
X575272Y176785D01*
X575818Y176785D01*
X575838Y176788D01*
X575857Y176786D01*
X575959Y176808D01*
X576061Y176824D01*
X576078Y176834D01*
X576098Y176838D01*
X576187Y176891D01*
X576278Y176940D01*
X576292Y176954D01*
X576309Y176964D01*
X576376Y177043D01*
X576448Y177118D01*
X576456Y177136D01*
X576469Y177151D01*
X576508Y177247D01*
X576551Y177341D01*
X576553Y177361D01*
X576561Y177379D01*
X576579Y177546D01*
X576579Y178054D01*
X576576Y178074D01*
X576578Y178093D01*
X576556Y178195D01*
X576540Y178297D01*
X576530Y178314D01*
X576526Y178334D01*
X576473Y178423D01*
X576424Y178514D01*
X576410Y178528D01*
X576400Y178545D01*
X576321Y178612D01*
X576246Y178684D01*
X576228Y178692D01*
X576213Y178705D01*
X576117Y178744D01*
X576023Y178787D01*
X576003Y178789D01*
X575985Y178797D01*
X575818Y178815D01*
X575272Y178815D01*
X570977Y180594D01*
X567690Y183881D01*
X565911Y188176D01*
X565911Y189024D01*
X565897Y189114D01*
X565889Y189205D01*
X565877Y189235D01*
X565872Y189267D01*
X565829Y189347D01*
X565793Y189431D01*
X565767Y189463D01*
X565756Y189484D01*
X565733Y189506D01*
X565688Y189562D01*
X542991Y212259D01*
X540026Y215224D01*
X538479Y218959D01*
X538479Y231660D01*
X538468Y231731D01*
X538466Y231802D01*
X538448Y231851D01*
X538440Y231903D01*
X538406Y231966D01*
X538381Y232033D01*
X538349Y232074D01*
X538324Y232120D01*
X538272Y232169D01*
X538228Y232225D01*
X538184Y232254D01*
X538146Y232289D01*
X538081Y232320D01*
X538021Y232358D01*
X537970Y232371D01*
X537923Y232393D01*
X537852Y232401D01*
X537782Y232418D01*
X537730Y232414D01*
X537679Y232420D01*
X537608Y232405D01*
X537537Y232399D01*
X537489Y232379D01*
X537438Y232368D01*
X537377Y232331D01*
X537311Y232303D01*
X537255Y232258D01*
X537227Y232242D01*
X537212Y232224D01*
X537180Y232198D01*
X535514Y230533D01*
X530846Y228599D01*
X510554Y228599D01*
X505886Y230533D01*
X502313Y234106D01*
X500379Y238774D01*
X500379Y243826D01*
X502313Y248494D01*
X505886Y252067D01*
X510554Y254001D01*
X529892Y254001D01*
X529963Y254012D01*
X530034Y254014D01*
X530083Y254032D01*
X530135Y254040D01*
X530198Y254074D01*
X530265Y254099D01*
X530306Y254131D01*
X530352Y254156D01*
X530401Y254208D01*
X530457Y254252D01*
X530486Y254296D01*
X530522Y254334D01*
X530552Y254399D01*
X530590Y254459D01*
X530603Y254510D01*
X530625Y254557D01*
X530633Y254628D01*
X530651Y254698D01*
X530646Y254750D01*
X530652Y254801D01*
X530637Y254872D01*
X530631Y254943D01*
X530611Y254991D01*
X530600Y255042D01*
X530563Y255103D01*
X530535Y255169D01*
X530490Y255225D01*
X530474Y255253D01*
X530456Y255268D01*
X530430Y255300D01*
X491314Y294416D01*
X491240Y294469D01*
X491171Y294529D01*
X491141Y294541D01*
X491114Y294560D01*
X491028Y294587D01*
X490943Y294621D01*
X490902Y294625D01*
X490879Y294632D01*
X490847Y294631D01*
X490776Y294639D01*
X463879Y294639D01*
X463789Y294625D01*
X463698Y294617D01*
X463668Y294605D01*
X463637Y294600D01*
X463556Y294557D01*
X463472Y294521D01*
X463440Y294495D01*
X463419Y294484D01*
X463397Y294461D01*
X463341Y294416D01*
X462040Y293115D01*
X452360Y293115D01*
X445515Y299960D01*
X445515Y301800D01*
X445501Y301890D01*
X445493Y301981D01*
X445481Y302011D01*
X445476Y302043D01*
X445433Y302123D01*
X445397Y302207D01*
X445371Y302239D01*
X445360Y302260D01*
X445337Y302282D01*
X445292Y302338D01*
X392254Y355376D01*
X392180Y355429D01*
X392111Y355489D01*
X392081Y355501D01*
X392055Y355520D01*
X391968Y355547D01*
X391883Y355581D01*
X391842Y355585D01*
X391819Y355592D01*
X391787Y355591D01*
X391716Y355599D01*
X386663Y355599D01*
X386593Y355588D01*
X386521Y355586D01*
X386472Y355568D01*
X386420Y355560D01*
X386357Y355526D01*
X386290Y355501D01*
X386249Y355469D01*
X386203Y355444D01*
X386154Y355392D01*
X386098Y355348D01*
X386070Y355304D01*
X386034Y355266D01*
X386004Y355201D01*
X385965Y355141D01*
X385952Y355090D01*
X385930Y355043D01*
X385922Y354972D01*
X385905Y354902D01*
X385909Y354850D01*
X385903Y354799D01*
X385918Y354728D01*
X385924Y354657D01*
X385944Y354609D01*
X385955Y354558D01*
X385992Y354497D01*
X386020Y354431D01*
X386065Y354375D01*
X386081Y354347D01*
X386099Y354332D01*
X386125Y354300D01*
X392685Y347740D01*
X392685Y338060D01*
X385840Y331215D01*
X376160Y331215D01*
X374859Y332516D01*
X374785Y332569D01*
X374716Y332629D01*
X374685Y332641D01*
X374659Y332660D01*
X374572Y332687D01*
X374487Y332721D01*
X374446Y332725D01*
X374424Y332732D01*
X374392Y332731D01*
X374321Y332739D01*
X347424Y332739D01*
X347334Y332725D01*
X347243Y332717D01*
X347213Y332705D01*
X347181Y332700D01*
X347101Y332657D01*
X347017Y332621D01*
X346985Y332595D01*
X346964Y332584D01*
X346942Y332561D01*
X346886Y332516D01*
X341036Y326666D01*
X338858Y325764D01*
X338780Y325716D01*
X338699Y325675D01*
X338676Y325652D01*
X338649Y325635D01*
X338591Y325564D01*
X338527Y325499D01*
X338507Y325463D01*
X338492Y325445D01*
X338480Y325415D01*
X338446Y325352D01*
X337295Y322574D01*
X333508Y318787D01*
X332099Y318203D01*
X332038Y318166D01*
X331973Y318136D01*
X331934Y318101D01*
X331890Y318074D01*
X331844Y318018D01*
X331792Y317970D01*
X331767Y317924D01*
X331733Y317884D01*
X331708Y317817D01*
X331673Y317754D01*
X331664Y317703D01*
X331645Y317655D01*
X331642Y317583D01*
X331629Y317512D01*
X331637Y317461D01*
X331635Y317409D01*
X331655Y317340D01*
X331665Y317269D01*
X331689Y317223D01*
X331703Y317173D01*
X331744Y317114D01*
X331777Y317050D01*
X331814Y317013D01*
X331844Y316971D01*
X331901Y316928D01*
X331952Y316878D01*
X332015Y316843D01*
X332041Y316824D01*
X332063Y316817D01*
X332099Y316797D01*
X333508Y316213D01*
X334537Y315184D01*
X334611Y315131D01*
X334681Y315071D01*
X334711Y315059D01*
X334737Y315040D01*
X334824Y315013D01*
X334909Y314979D01*
X334950Y314975D01*
X334972Y314968D01*
X335004Y314969D01*
X335076Y314961D01*
X374321Y314961D01*
X374411Y314975D01*
X374502Y314983D01*
X374532Y314995D01*
X374563Y315000D01*
X374644Y315043D01*
X374728Y315079D01*
X374760Y315105D01*
X374781Y315116D01*
X374803Y315139D01*
X374859Y315184D01*
X376160Y316485D01*
X385840Y316485D01*
X392685Y309640D01*
X392685Y307800D01*
X392687Y307784D01*
X392686Y307770D01*
X392700Y307705D01*
X392707Y307619D01*
X392719Y307589D01*
X392724Y307557D01*
X392737Y307533D01*
X392738Y307530D01*
X392748Y307514D01*
X392767Y307477D01*
X392803Y307393D01*
X392829Y307361D01*
X392840Y307340D01*
X392863Y307318D01*
X392908Y307262D01*
X427714Y272456D01*
X429261Y268721D01*
X429261Y156924D01*
X429275Y156834D01*
X429283Y156743D01*
X429295Y156713D01*
X429300Y156681D01*
X429343Y156601D01*
X429379Y156517D01*
X429405Y156485D01*
X429416Y156464D01*
X429439Y156442D01*
X429484Y156386D01*
X499080Y86790D01*
X499138Y86748D01*
X499190Y86698D01*
X499237Y86676D01*
X499279Y86646D01*
X499348Y86625D01*
X499413Y86595D01*
X499465Y86589D01*
X499515Y86574D01*
X499586Y86576D01*
X499657Y86568D01*
X499708Y86579D01*
X499760Y86580D01*
X499828Y86605D01*
X499898Y86620D01*
X499943Y86647D01*
X499991Y86665D01*
X500047Y86709D01*
X500109Y86746D01*
X500143Y86786D01*
X500183Y86818D01*
X500222Y86879D01*
X500269Y86933D01*
X500288Y86981D01*
X500316Y87025D01*
X500334Y87095D01*
X500361Y87161D01*
X500369Y87233D01*
X500377Y87264D01*
X500375Y87287D01*
X500379Y87328D01*
X500379Y91426D01*
X502313Y96094D01*
X505886Y99667D01*
X510554Y101601D01*
X530846Y101601D01*
X535514Y99667D01*
X539087Y96094D01*
X541021Y91426D01*
X541021Y86374D01*
X540212Y84422D01*
X540186Y84308D01*
X540157Y84195D01*
X540158Y84188D01*
X540156Y84182D01*
X540167Y84066D01*
X540176Y83949D01*
X540179Y83944D01*
X540179Y83937D01*
X540227Y83830D01*
X540272Y83723D01*
X540277Y83717D01*
X540279Y83713D01*
X540292Y83699D01*
X540377Y83592D01*
X545006Y78964D01*
X545080Y78911D01*
X545149Y78851D01*
X545179Y78839D01*
X545206Y78820D01*
X545292Y78793D01*
X545377Y78759D01*
X545418Y78755D01*
X545441Y78748D01*
X545473Y78749D01*
X545544Y78741D01*
X569393Y78741D01*
X569463Y78752D01*
X569535Y78754D01*
X569584Y78772D01*
X569636Y78780D01*
X569699Y78814D01*
X569766Y78839D01*
X569807Y78871D01*
X569853Y78896D01*
X569902Y78947D01*
X569958Y78992D01*
X569986Y79036D01*
X570022Y79074D01*
X570052Y79139D01*
X570091Y79199D01*
X570104Y79250D01*
X570126Y79297D01*
X570134Y79368D01*
X570151Y79438D01*
X570147Y79490D01*
X570153Y79541D01*
X570138Y79612D01*
X570132Y79683D01*
X570112Y79731D01*
X570101Y79782D01*
X570064Y79843D01*
X570036Y79909D01*
X569991Y79965D01*
X569975Y79993D01*
X569957Y80008D01*
X569931Y80040D01*
X568243Y81729D01*
X568190Y81767D01*
X568143Y81813D01*
X568070Y81853D01*
X568043Y81872D01*
X568024Y81878D01*
X567996Y81894D01*
X565744Y82826D01*
X521794Y126776D01*
X521720Y126829D01*
X521651Y126889D01*
X521621Y126901D01*
X521594Y126920D01*
X521508Y126947D01*
X521423Y126981D01*
X521382Y126985D01*
X521359Y126992D01*
X521327Y126991D01*
X521256Y126999D01*
X510554Y126999D01*
X505886Y128933D01*
X502313Y132506D01*
X500379Y137174D01*
X500379Y142226D01*
X502313Y146894D01*
X505886Y150467D01*
X510554Y152401D01*
X524812Y152401D01*
X524883Y152412D01*
X524954Y152414D01*
X525003Y152432D01*
X525055Y152440D01*
X525118Y152474D01*
X525185Y152499D01*
X525226Y152531D01*
X525272Y152556D01*
X525321Y152608D01*
X525377Y152652D01*
X525406Y152696D01*
X525442Y152734D01*
X525472Y152799D01*
X525510Y152859D01*
X525523Y152910D01*
X525545Y152957D01*
X525553Y153028D01*
X525571Y153098D01*
X525566Y153150D01*
X525572Y153201D01*
X525557Y153272D01*
X525551Y153343D01*
X525531Y153391D01*
X525520Y153442D01*
X525483Y153503D01*
X525455Y153569D01*
X525410Y153625D01*
X525394Y153653D01*
X525376Y153668D01*
X525350Y153700D01*
X520131Y158919D01*
X517166Y161884D01*
X515619Y165619D01*
X515619Y177038D01*
X515616Y177058D01*
X515618Y177077D01*
X515596Y177179D01*
X515580Y177281D01*
X515570Y177298D01*
X515566Y177318D01*
X515513Y177407D01*
X515464Y177498D01*
X515450Y177512D01*
X515440Y177529D01*
X515361Y177596D01*
X515286Y177668D01*
X515268Y177676D01*
X515253Y177689D01*
X515157Y177728D01*
X515063Y177771D01*
X515043Y177773D01*
X515025Y177781D01*
X514858Y177799D01*
X510554Y177799D01*
X505886Y179733D01*
X502313Y183306D01*
X500379Y187974D01*
X500379Y193026D01*
X502313Y197694D01*
X505886Y201267D01*
X510554Y203201D01*
X530846Y203201D01*
X535514Y201267D01*
X539087Y197694D01*
X541021Y193026D01*
X541021Y187974D01*
X539087Y183306D01*
X536164Y180382D01*
X536111Y180308D01*
X536051Y180239D01*
X536039Y180209D01*
X536020Y180182D01*
X535993Y180095D01*
X535959Y180011D01*
X535955Y179970D01*
X535948Y179947D01*
X535949Y179915D01*
X535941Y179844D01*
X535941Y172164D01*
X535956Y172074D01*
X535963Y171983D01*
X535975Y171953D01*
X535980Y171921D01*
X536023Y171841D01*
X536059Y171757D01*
X536085Y171725D01*
X536096Y171704D01*
X536119Y171682D01*
X536164Y171626D01*
X565063Y142727D01*
X565100Y142700D01*
X565131Y142666D01*
X565200Y142628D01*
X565263Y142583D01*
X565306Y142570D01*
X565347Y142547D01*
X565423Y142534D01*
X565498Y142511D01*
X565544Y142512D01*
X565589Y142504D01*
X565666Y142515D01*
X565744Y142517D01*
X565787Y142533D01*
X565832Y142539D01*
X565901Y142575D01*
X565975Y142601D01*
X566010Y142630D01*
X566051Y142651D01*
X566106Y142707D01*
X566167Y142755D01*
X566191Y142794D01*
X566224Y142827D01*
X566290Y142946D01*
X566300Y142962D01*
X566301Y142967D01*
X566304Y142974D01*
X567690Y146319D01*
X570977Y149606D01*
X575272Y151385D01*
X593128Y151385D01*
X597423Y149606D01*
X600710Y146319D01*
X602489Y142024D01*
X602489Y137376D01*
X600710Y133081D01*
X597423Y129794D01*
X593128Y128015D01*
X581612Y128015D01*
X581541Y128004D01*
X581470Y128002D01*
X581421Y127984D01*
X581369Y127976D01*
X581306Y127942D01*
X581239Y127917D01*
X581198Y127885D01*
X581152Y127860D01*
X581102Y127808D01*
X581047Y127764D01*
X581018Y127720D01*
X580982Y127682D01*
X580952Y127617D01*
X580914Y127557D01*
X580901Y127506D01*
X580879Y127459D01*
X580871Y127388D01*
X580853Y127318D01*
X580858Y127266D01*
X580852Y127215D01*
X580867Y127144D01*
X580873Y127073D01*
X580893Y127025D01*
X580904Y126974D01*
X580941Y126913D01*
X580969Y126847D01*
X581014Y126791D01*
X581030Y126763D01*
X581048Y126748D01*
X581074Y126716D01*
X581582Y126208D01*
X581656Y126154D01*
X581725Y126095D01*
X581755Y126083D01*
X581782Y126064D01*
X581869Y126037D01*
X581953Y126003D01*
X581994Y125999D01*
X582017Y125992D01*
X582049Y125993D01*
X582120Y125985D01*
X593128Y125985D01*
X597423Y124206D01*
X600710Y120919D01*
X602489Y116624D01*
X602489Y111976D01*
X600710Y107681D01*
X597423Y104394D01*
X593128Y102615D01*
X582714Y102615D01*
X582644Y102604D01*
X582574Y102602D01*
X582524Y102584D01*
X582471Y102576D01*
X582409Y102543D01*
X582343Y102518D01*
X582301Y102485D01*
X582254Y102460D01*
X582205Y102409D01*
X582150Y102365D01*
X582121Y102321D01*
X582085Y102282D01*
X582055Y102218D01*
X582017Y102159D01*
X582003Y102107D01*
X581981Y102059D01*
X581973Y101989D01*
X581956Y101920D01*
X581960Y101867D01*
X581954Y101815D01*
X581969Y101745D01*
X581974Y101675D01*
X581995Y101626D01*
X582006Y101574D01*
X582043Y101513D01*
X582070Y101448D01*
X582105Y101409D01*
X582132Y101363D01*
X582186Y101317D01*
X582233Y101264D01*
X582295Y101224D01*
X582319Y101203D01*
X582341Y101195D01*
X582374Y101173D01*
X583317Y100701D01*
X583336Y100695D01*
X583366Y100679D01*
X583454Y100643D01*
X583518Y100628D01*
X583579Y100603D01*
X583661Y100594D01*
X583694Y100586D01*
X583713Y100588D01*
X583745Y100585D01*
X593128Y100585D01*
X597423Y98806D01*
X600710Y95519D01*
X602489Y91224D01*
X602489Y86576D01*
X600710Y82281D01*
X597423Y78994D01*
X593128Y77215D01*
X586692Y77215D01*
X586621Y77204D01*
X586550Y77202D01*
X586501Y77184D01*
X586449Y77176D01*
X586386Y77142D01*
X586319Y77117D01*
X586278Y77085D01*
X586232Y77060D01*
X586182Y77008D01*
X586127Y76964D01*
X586098Y76920D01*
X586062Y76882D01*
X586032Y76817D01*
X585994Y76757D01*
X585981Y76706D01*
X585959Y76659D01*
X585951Y76588D01*
X585933Y76518D01*
X585938Y76466D01*
X585932Y76415D01*
X585947Y76344D01*
X585953Y76273D01*
X585973Y76225D01*
X585984Y76174D01*
X586021Y76113D01*
X586049Y76047D01*
X586094Y75991D01*
X586110Y75963D01*
X586128Y75948D01*
X586154Y75916D01*
X586662Y75408D01*
X586736Y75354D01*
X586805Y75295D01*
X586835Y75283D01*
X586862Y75264D01*
X586949Y75237D01*
X587033Y75203D01*
X587074Y75199D01*
X587097Y75192D01*
X587129Y75193D01*
X587200Y75185D01*
X593128Y75185D01*
X597423Y73406D01*
X600710Y70119D01*
X602489Y65824D01*
X602489Y61176D01*
X600710Y56881D01*
X597423Y53594D01*
X593128Y51815D01*
X575272Y51815D01*
X570977Y53594D01*
X567690Y56881D01*
X567248Y57949D01*
X567186Y58049D01*
X567126Y58149D01*
X567121Y58153D01*
X567118Y58158D01*
X567028Y58233D01*
X566939Y58309D01*
X566933Y58311D01*
X566929Y58315D01*
X566821Y58357D01*
X566711Y58401D01*
X566704Y58402D01*
X566699Y58403D01*
X566681Y58404D01*
X566544Y58419D01*
X538999Y58419D01*
X535264Y59966D01*
X519254Y75976D01*
X519180Y76029D01*
X519111Y76089D01*
X519081Y76101D01*
X519054Y76120D01*
X518968Y76147D01*
X518883Y76181D01*
X518842Y76185D01*
X518819Y76192D01*
X518787Y76191D01*
X518716Y76199D01*
X511508Y76199D01*
X511437Y76188D01*
X511366Y76186D01*
X511317Y76168D01*
X511265Y76160D01*
X511202Y76126D01*
X511135Y76101D01*
X511094Y76069D01*
X511048Y76044D01*
X510999Y75992D01*
X510943Y75948D01*
X510914Y75904D01*
X510878Y75866D01*
X510848Y75801D01*
X510810Y75741D01*
X510797Y75690D01*
X510775Y75643D01*
X510767Y75572D01*
X510749Y75502D01*
X510754Y75450D01*
X510748Y75399D01*
X510763Y75328D01*
X510769Y75257D01*
X510789Y75209D01*
X510800Y75158D01*
X510837Y75097D01*
X510865Y75031D01*
X510910Y74975D01*
X510926Y74947D01*
X510944Y74932D01*
X510970Y74900D01*
X526774Y59096D01*
X528321Y55361D01*
X528321Y51562D01*
X528324Y51542D01*
X528322Y51523D01*
X528344Y51421D01*
X528360Y51319D01*
X528370Y51302D01*
X528374Y51282D01*
X528427Y51193D01*
X528476Y51102D01*
X528490Y51088D01*
X528500Y51071D01*
X528579Y51004D01*
X528654Y50932D01*
X528672Y50924D01*
X528687Y50911D01*
X528783Y50872D01*
X528877Y50829D01*
X528897Y50827D01*
X528915Y50819D01*
X529082Y50801D01*
X530846Y50801D01*
X535514Y48867D01*
X535898Y48484D01*
X535972Y48431D01*
X536041Y48371D01*
X536071Y48359D01*
X536098Y48340D01*
X536185Y48313D01*
X536269Y48279D01*
X536310Y48275D01*
X536333Y48268D01*
X536365Y48269D01*
X536436Y48261D01*
X571441Y48261D01*
X571506Y48271D01*
X571571Y48272D01*
X571651Y48295D01*
X571684Y48300D01*
X571701Y48310D01*
X571732Y48319D01*
X575272Y49785D01*
X593128Y49785D01*
X597423Y48006D01*
X600710Y44719D01*
X602489Y40424D01*
X602489Y35776D01*
X600710Y31481D01*
X597423Y28194D01*
X593128Y26415D01*
X575272Y26415D01*
X571732Y27881D01*
X571669Y27896D01*
X571608Y27921D01*
X571525Y27930D01*
X571493Y27937D01*
X571474Y27936D01*
X571441Y27939D01*
X536436Y27939D01*
X536346Y27925D01*
X536255Y27917D01*
X536225Y27905D01*
X536193Y27900D01*
X536113Y27857D01*
X536029Y27821D01*
X535997Y27795D01*
X535976Y27784D01*
X535954Y27761D01*
X535898Y27716D01*
X535514Y27333D01*
X530846Y25399D01*
X510554Y25399D01*
G37*
%LPD*%
%LPC*%
G36*
X115255Y49866D02*
X115255Y49866D01*
X110097Y52002D01*
X106149Y55950D01*
X104012Y61108D01*
X104012Y66692D01*
X106149Y71850D01*
X110097Y75798D01*
X115255Y77934D01*
X124209Y77934D01*
X124300Y77949D01*
X124390Y77956D01*
X124420Y77969D01*
X124452Y77974D01*
X124533Y78017D01*
X124617Y78052D01*
X124649Y78078D01*
X124670Y78089D01*
X124692Y78112D01*
X124748Y78157D01*
X154264Y107674D01*
X157999Y109221D01*
X206771Y109221D01*
X206861Y109235D01*
X206952Y109243D01*
X206982Y109255D01*
X207014Y109260D01*
X207094Y109303D01*
X207179Y109339D01*
X207211Y109365D01*
X207231Y109376D01*
X207253Y109399D01*
X207309Y109444D01*
X208326Y110460D01*
X208367Y110518D01*
X208417Y110570D01*
X208439Y110617D01*
X208469Y110659D01*
X208490Y110728D01*
X208520Y110793D01*
X208526Y110845D01*
X208541Y110895D01*
X208540Y110966D01*
X208547Y111037D01*
X208536Y111088D01*
X208535Y111140D01*
X208510Y111208D01*
X208495Y111278D01*
X208469Y111323D01*
X208451Y111371D01*
X208406Y111427D01*
X208369Y111489D01*
X208329Y111523D01*
X208297Y111563D01*
X208237Y111602D01*
X208182Y111649D01*
X208134Y111668D01*
X208090Y111696D01*
X208021Y111714D01*
X207954Y111741D01*
X207883Y111749D01*
X207852Y111757D01*
X207828Y111755D01*
X207787Y111759D01*
X150749Y111759D01*
X150729Y111756D01*
X150710Y111758D01*
X150608Y111736D01*
X150506Y111720D01*
X150489Y111710D01*
X150469Y111706D01*
X150380Y111653D01*
X150289Y111604D01*
X150275Y111590D01*
X150258Y111580D01*
X150191Y111501D01*
X150119Y111426D01*
X150111Y111408D01*
X150098Y111393D01*
X150059Y111297D01*
X150016Y111203D01*
X150014Y111183D01*
X150006Y111165D01*
X150004Y111149D01*
X147851Y105950D01*
X143903Y102002D01*
X138745Y99866D01*
X115255Y99866D01*
X110097Y102002D01*
X106149Y105950D01*
X104012Y111108D01*
X104012Y116692D01*
X106149Y121850D01*
X110097Y125798D01*
X115255Y127934D01*
X128489Y127934D01*
X128580Y127949D01*
X128670Y127956D01*
X128700Y127969D01*
X128732Y127974D01*
X128813Y128017D01*
X128897Y128052D01*
X128929Y128078D01*
X128950Y128089D01*
X128972Y128112D01*
X129028Y128157D01*
X131404Y130534D01*
X135139Y132081D01*
X204918Y132081D01*
X205032Y132100D01*
X205149Y132117D01*
X205154Y132119D01*
X205160Y132120D01*
X205263Y132175D01*
X205368Y132228D01*
X205372Y132233D01*
X205378Y132236D01*
X205458Y132320D01*
X205540Y132404D01*
X205544Y132410D01*
X205547Y132414D01*
X205555Y132431D01*
X205621Y132551D01*
X206048Y133583D01*
X209317Y136852D01*
X213588Y138621D01*
X218212Y138621D01*
X222483Y136852D01*
X225752Y133583D01*
X227521Y129312D01*
X227521Y124688D01*
X225752Y120417D01*
X222417Y117083D01*
X222379Y117030D01*
X222333Y116983D01*
X222293Y116910D01*
X222273Y116883D01*
X222268Y116864D01*
X222252Y116836D01*
X221974Y116164D01*
X221798Y115988D01*
X221775Y115957D01*
X221746Y115932D01*
X221655Y115791D01*
X221544Y115568D01*
X220310Y114498D01*
X220297Y114483D01*
X220271Y114461D01*
X219596Y113787D01*
X219569Y113749D01*
X219535Y113718D01*
X219498Y113650D01*
X219452Y113587D01*
X219439Y113543D01*
X219417Y113503D01*
X219403Y113426D01*
X219380Y113352D01*
X219381Y113306D01*
X219373Y113261D01*
X219384Y113184D01*
X219386Y113106D01*
X219402Y113063D01*
X219409Y113017D01*
X219444Y112948D01*
X219471Y112875D01*
X219500Y112839D01*
X219520Y112798D01*
X219576Y112744D01*
X219625Y112683D01*
X219663Y112658D01*
X219696Y112626D01*
X219816Y112560D01*
X219832Y112550D01*
X219836Y112549D01*
X219843Y112545D01*
X222483Y111452D01*
X225752Y108183D01*
X227521Y103912D01*
X227521Y99288D01*
X225752Y95017D01*
X222483Y91748D01*
X218212Y89979D01*
X218140Y89979D01*
X218075Y89969D01*
X218010Y89968D01*
X217930Y89945D01*
X217897Y89940D01*
X217880Y89930D01*
X217849Y89921D01*
X216313Y89285D01*
X216230Y89234D01*
X216144Y89188D01*
X216126Y89170D01*
X216104Y89156D01*
X216042Y89080D01*
X215975Y89010D01*
X215964Y88986D01*
X215947Y88966D01*
X215912Y88875D01*
X215871Y88787D01*
X215868Y88761D01*
X215859Y88737D01*
X215855Y88639D01*
X215844Y88543D01*
X215850Y88517D01*
X215849Y88491D01*
X215876Y88397D01*
X215896Y88302D01*
X215910Y88280D01*
X215917Y88255D01*
X215973Y88175D01*
X216023Y88091D01*
X216042Y88074D01*
X216057Y88053D01*
X216135Y87994D01*
X216209Y87931D01*
X216234Y87921D01*
X216255Y87906D01*
X216347Y87876D01*
X216438Y87839D01*
X216470Y87836D01*
X216489Y87830D01*
X216522Y87830D01*
X216604Y87821D01*
X218212Y87821D01*
X222483Y86052D01*
X225752Y82783D01*
X227521Y78512D01*
X227521Y73888D01*
X225752Y69617D01*
X222483Y66348D01*
X218212Y64579D01*
X213588Y64579D01*
X209317Y66348D01*
X206048Y69617D01*
X204279Y73888D01*
X204279Y78512D01*
X206048Y82783D01*
X209317Y86052D01*
X212657Y87435D01*
X212739Y87486D01*
X212825Y87532D01*
X212843Y87551D01*
X212866Y87564D01*
X212928Y87639D01*
X212995Y87710D01*
X213006Y87734D01*
X213022Y87754D01*
X213057Y87845D01*
X213098Y87933D01*
X213101Y87959D01*
X213111Y87983D01*
X213115Y88081D01*
X213125Y88177D01*
X213120Y88203D01*
X213121Y88229D01*
X213094Y88323D01*
X213073Y88418D01*
X213060Y88440D01*
X213053Y88465D01*
X212997Y88545D01*
X212947Y88629D01*
X212927Y88646D01*
X212912Y88667D01*
X212834Y88726D01*
X212760Y88789D01*
X212736Y88799D01*
X212715Y88814D01*
X212622Y88844D01*
X212532Y88881D01*
X212500Y88884D01*
X212481Y88890D01*
X212448Y88890D01*
X212365Y88899D01*
X164544Y88899D01*
X164454Y88885D01*
X164363Y88877D01*
X164333Y88865D01*
X164301Y88860D01*
X164221Y88817D01*
X164137Y88781D01*
X164105Y88755D01*
X164084Y88744D01*
X164062Y88721D01*
X164006Y88676D01*
X148014Y72685D01*
X147946Y72591D01*
X147876Y72496D01*
X147874Y72490D01*
X147870Y72485D01*
X147836Y72374D01*
X147800Y72262D01*
X147800Y72256D01*
X147798Y72250D01*
X147801Y72133D01*
X147802Y72016D01*
X147804Y72009D01*
X147804Y72004D01*
X147811Y71986D01*
X147849Y71855D01*
X149988Y66692D01*
X149988Y61108D01*
X147851Y55950D01*
X143903Y52002D01*
X138745Y49866D01*
X115255Y49866D01*
G37*
%LPD*%
%LPC*%
G36*
X383554Y25399D02*
X383554Y25399D01*
X378886Y27333D01*
X375313Y30906D01*
X373379Y35574D01*
X373379Y38656D01*
X373365Y38746D01*
X373357Y38837D01*
X373345Y38867D01*
X373340Y38899D01*
X373297Y38979D01*
X373261Y39063D01*
X373235Y39095D01*
X373224Y39116D01*
X373201Y39138D01*
X373156Y39194D01*
X346534Y65816D01*
X346460Y65869D01*
X346391Y65929D01*
X346361Y65941D01*
X346334Y65960D01*
X346248Y65987D01*
X346163Y66021D01*
X346122Y66025D01*
X346099Y66032D01*
X346067Y66031D01*
X345996Y66039D01*
X323488Y66039D01*
X323423Y66029D01*
X323357Y66028D01*
X323277Y66005D01*
X323245Y66000D01*
X323228Y65990D01*
X323196Y65981D01*
X319812Y64579D01*
X315188Y64579D01*
X310917Y66348D01*
X307648Y69617D01*
X305879Y73888D01*
X305879Y78512D01*
X307648Y82783D01*
X310917Y86052D01*
X315188Y87821D01*
X316796Y87821D01*
X316892Y87836D01*
X316989Y87846D01*
X317013Y87856D01*
X317038Y87860D01*
X317124Y87906D01*
X317213Y87946D01*
X317233Y87963D01*
X317256Y87976D01*
X317323Y88046D01*
X317395Y88112D01*
X317407Y88135D01*
X317425Y88154D01*
X317466Y88242D01*
X317513Y88328D01*
X317518Y88353D01*
X317529Y88377D01*
X317540Y88474D01*
X317557Y88570D01*
X317553Y88596D01*
X317556Y88621D01*
X317535Y88717D01*
X317521Y88813D01*
X317509Y88836D01*
X317504Y88862D01*
X317454Y88945D01*
X317410Y89032D01*
X317391Y89051D01*
X317377Y89073D01*
X317304Y89136D01*
X317234Y89204D01*
X317205Y89220D01*
X317191Y89233D01*
X317160Y89245D01*
X317087Y89285D01*
X315551Y89921D01*
X315488Y89936D01*
X315427Y89961D01*
X315344Y89970D01*
X315312Y89977D01*
X315293Y89976D01*
X315260Y89979D01*
X315188Y89979D01*
X310917Y91748D01*
X307648Y95017D01*
X305879Y99288D01*
X305879Y103912D01*
X307648Y108183D01*
X310917Y111452D01*
X315188Y113221D01*
X319812Y113221D01*
X324083Y111452D01*
X326090Y109444D01*
X326164Y109391D01*
X326234Y109331D01*
X326264Y109319D01*
X326290Y109300D01*
X326377Y109273D01*
X326462Y109239D01*
X326503Y109235D01*
X326525Y109228D01*
X326557Y109229D01*
X326629Y109221D01*
X383021Y109221D01*
X386756Y107674D01*
X392606Y101824D01*
X392680Y101771D01*
X392749Y101711D01*
X392779Y101699D01*
X392806Y101680D01*
X392892Y101653D01*
X392977Y101619D01*
X393018Y101615D01*
X393041Y101608D01*
X393073Y101609D01*
X393144Y101601D01*
X403846Y101601D01*
X408514Y99667D01*
X412087Y96094D01*
X414021Y91426D01*
X414021Y86374D01*
X412087Y81706D01*
X408514Y78133D01*
X403846Y76199D01*
X383554Y76199D01*
X378886Y78133D01*
X375313Y81706D01*
X373379Y86374D01*
X373379Y88138D01*
X373376Y88158D01*
X373378Y88177D01*
X373356Y88279D01*
X373340Y88381D01*
X373330Y88398D01*
X373326Y88418D01*
X373273Y88507D01*
X373224Y88598D01*
X373210Y88612D01*
X373200Y88629D01*
X373121Y88696D01*
X373046Y88768D01*
X373028Y88776D01*
X373013Y88789D01*
X372917Y88828D01*
X372823Y88871D01*
X372803Y88873D01*
X372785Y88881D01*
X372618Y88899D01*
X321035Y88899D01*
X320939Y88884D01*
X320842Y88874D01*
X320818Y88864D01*
X320792Y88860D01*
X320706Y88814D01*
X320617Y88774D01*
X320598Y88757D01*
X320575Y88744D01*
X320508Y88674D01*
X320436Y88608D01*
X320423Y88585D01*
X320405Y88566D01*
X320364Y88478D01*
X320317Y88392D01*
X320313Y88367D01*
X320302Y88343D01*
X320291Y88246D01*
X320274Y88150D01*
X320277Y88124D01*
X320275Y88099D01*
X320295Y88003D01*
X320309Y87907D01*
X320321Y87884D01*
X320327Y87858D01*
X320377Y87775D01*
X320421Y87688D01*
X320440Y87669D01*
X320453Y87647D01*
X320527Y87584D01*
X320596Y87516D01*
X320625Y87500D01*
X320640Y87487D01*
X320671Y87475D01*
X320743Y87435D01*
X323196Y86419D01*
X323260Y86404D01*
X323321Y86379D01*
X323404Y86370D01*
X323436Y86363D01*
X323455Y86364D01*
X323488Y86361D01*
X352541Y86361D01*
X356276Y84814D01*
X390066Y51024D01*
X390140Y50971D01*
X390209Y50911D01*
X390239Y50899D01*
X390266Y50880D01*
X390352Y50853D01*
X390437Y50819D01*
X390478Y50815D01*
X390501Y50808D01*
X390533Y50809D01*
X390604Y50801D01*
X403846Y50801D01*
X408514Y48867D01*
X412087Y45294D01*
X414021Y40626D01*
X414021Y35574D01*
X412087Y30906D01*
X408514Y27333D01*
X403846Y25399D01*
X383554Y25399D01*
G37*
%LPD*%
%LPC*%
G36*
X213588Y166179D02*
X213588Y166179D01*
X209317Y167948D01*
X206048Y171217D01*
X205621Y172249D01*
X205559Y172349D01*
X205499Y172449D01*
X205495Y172453D01*
X205491Y172458D01*
X205401Y172533D01*
X205313Y172609D01*
X205307Y172611D01*
X205302Y172615D01*
X205193Y172657D01*
X205084Y172701D01*
X205077Y172702D01*
X205072Y172703D01*
X205054Y172704D01*
X204918Y172719D01*
X157999Y172719D01*
X154264Y174266D01*
X127288Y201243D01*
X127214Y201296D01*
X127144Y201355D01*
X127114Y201368D01*
X127088Y201386D01*
X127001Y201413D01*
X126916Y201447D01*
X126875Y201452D01*
X126853Y201459D01*
X126821Y201458D01*
X126749Y201466D01*
X115255Y201466D01*
X110097Y203602D01*
X106149Y207550D01*
X104012Y212708D01*
X104012Y218292D01*
X106149Y223450D01*
X110097Y227398D01*
X115255Y229534D01*
X138745Y229534D01*
X143903Y227398D01*
X147851Y223450D01*
X149988Y218292D01*
X149988Y212708D01*
X148593Y209341D01*
X148566Y209228D01*
X148538Y209114D01*
X148538Y209108D01*
X148537Y209102D01*
X148548Y208985D01*
X148557Y208869D01*
X148559Y208863D01*
X148560Y208857D01*
X148608Y208749D01*
X148653Y208642D01*
X148658Y208637D01*
X148660Y208632D01*
X148673Y208618D01*
X148758Y208511D01*
X164006Y193264D01*
X164080Y193211D01*
X164149Y193151D01*
X164179Y193139D01*
X164206Y193120D01*
X164292Y193093D01*
X164377Y193059D01*
X164418Y193055D01*
X164441Y193048D01*
X164473Y193049D01*
X164544Y193041D01*
X207787Y193041D01*
X207858Y193052D01*
X207930Y193054D01*
X207979Y193072D01*
X208030Y193080D01*
X208093Y193114D01*
X208161Y193139D01*
X208201Y193171D01*
X208247Y193196D01*
X208297Y193248D01*
X208353Y193292D01*
X208381Y193336D01*
X208417Y193374D01*
X208447Y193439D01*
X208486Y193499D01*
X208498Y193550D01*
X208520Y193597D01*
X208528Y193668D01*
X208546Y193738D01*
X208542Y193790D01*
X208547Y193841D01*
X208532Y193912D01*
X208527Y193983D01*
X208506Y194031D01*
X208495Y194082D01*
X208458Y194143D01*
X208430Y194209D01*
X208386Y194265D01*
X208369Y194293D01*
X208351Y194308D01*
X208326Y194340D01*
X206048Y196617D01*
X204279Y200888D01*
X204279Y205512D01*
X206048Y209783D01*
X209317Y213052D01*
X213588Y214821D01*
X218212Y214821D01*
X222483Y213052D01*
X225752Y209783D01*
X227521Y205512D01*
X227521Y200888D01*
X225752Y196617D01*
X222483Y193348D01*
X219843Y192255D01*
X219804Y192231D01*
X219761Y192215D01*
X219700Y192166D01*
X219634Y192125D01*
X219605Y192090D01*
X219569Y192061D01*
X219527Y191996D01*
X219477Y191936D01*
X219461Y191893D01*
X219436Y191854D01*
X219417Y191779D01*
X219389Y191706D01*
X219387Y191660D01*
X219376Y191616D01*
X219382Y191538D01*
X219378Y191461D01*
X219391Y191416D01*
X219395Y191371D01*
X219425Y191299D01*
X219447Y191224D01*
X219473Y191187D01*
X219491Y191144D01*
X219577Y191038D01*
X219587Y191022D01*
X219591Y191019D01*
X219596Y191013D01*
X220271Y190339D01*
X220287Y190327D01*
X220310Y190302D01*
X221544Y189232D01*
X221655Y189009D01*
X221678Y188978D01*
X221693Y188942D01*
X221798Y188811D01*
X221974Y188636D01*
X222252Y187964D01*
X222287Y187908D01*
X222312Y187848D01*
X222364Y187783D01*
X222382Y187755D01*
X222397Y187743D01*
X222417Y187717D01*
X225752Y184383D01*
X227521Y180112D01*
X227521Y175488D01*
X225752Y171217D01*
X222483Y167948D01*
X218212Y166179D01*
X213588Y166179D01*
G37*
%LPD*%
%LPC*%
G36*
X213588Y140779D02*
X213588Y140779D01*
X210204Y142181D01*
X210140Y142196D01*
X210079Y142221D01*
X209996Y142230D01*
X209964Y142237D01*
X209945Y142236D01*
X209912Y142239D01*
X135139Y142239D01*
X131404Y143786D01*
X123948Y151243D01*
X123874Y151296D01*
X123804Y151355D01*
X123774Y151367D01*
X123748Y151386D01*
X123661Y151413D01*
X123576Y151447D01*
X123535Y151452D01*
X123513Y151459D01*
X123481Y151458D01*
X123409Y151466D01*
X115255Y151466D01*
X110097Y153602D01*
X106149Y157550D01*
X104012Y162708D01*
X104012Y168292D01*
X106149Y173450D01*
X110097Y177398D01*
X115255Y179534D01*
X138745Y179534D01*
X143903Y177398D01*
X147851Y173450D01*
X149988Y168292D01*
X149988Y163322D01*
X149991Y163302D01*
X149989Y163283D01*
X150011Y163181D01*
X150027Y163079D01*
X150037Y163062D01*
X150041Y163042D01*
X150094Y162953D01*
X150143Y162862D01*
X150157Y162848D01*
X150167Y162831D01*
X150246Y162764D01*
X150321Y162692D01*
X150339Y162684D01*
X150354Y162671D01*
X150450Y162632D01*
X150544Y162589D01*
X150564Y162587D01*
X150582Y162579D01*
X150749Y162561D01*
X209912Y162561D01*
X209977Y162571D01*
X210043Y162572D01*
X210123Y162595D01*
X210155Y162600D01*
X210172Y162610D01*
X210204Y162619D01*
X213588Y164021D01*
X218212Y164021D01*
X222483Y162252D01*
X225752Y158983D01*
X227521Y154712D01*
X227521Y150088D01*
X225752Y145817D01*
X222483Y142548D01*
X218212Y140779D01*
X213588Y140779D01*
G37*
%LPD*%
%LPC*%
G36*
X138729Y303529D02*
X138729Y303529D01*
X131945Y305347D01*
X125864Y308858D01*
X120898Y313824D01*
X117387Y319905D01*
X115569Y326689D01*
X115569Y333711D01*
X117387Y340495D01*
X120898Y346576D01*
X125864Y351542D01*
X131945Y355053D01*
X138729Y356871D01*
X145751Y356871D01*
X152535Y355053D01*
X158616Y351542D01*
X163582Y346576D01*
X167093Y340495D01*
X168911Y333711D01*
X168911Y326689D01*
X167093Y319905D01*
X163582Y313824D01*
X158616Y308858D01*
X152535Y305347D01*
X145751Y303529D01*
X138729Y303529D01*
G37*
%LPD*%
%LPC*%
G36*
X207255Y216979D02*
X207255Y216979D01*
X204279Y219955D01*
X204279Y237245D01*
X207255Y240221D01*
X224545Y240221D01*
X227521Y237245D01*
X227521Y219955D01*
X224545Y216979D01*
X207255Y216979D01*
G37*
%LPD*%
%LPC*%
G36*
X315188Y115379D02*
X315188Y115379D01*
X310917Y117148D01*
X307648Y120417D01*
X305879Y124688D01*
X305879Y129312D01*
X307648Y133583D01*
X310917Y136852D01*
X315188Y138621D01*
X319812Y138621D01*
X324083Y136852D01*
X327352Y133583D01*
X329121Y129312D01*
X329121Y124688D01*
X327352Y120417D01*
X324083Y117148D01*
X319812Y115379D01*
X315188Y115379D01*
G37*
%LPD*%
%LPC*%
G36*
X315188Y39179D02*
X315188Y39179D01*
X310917Y40948D01*
X307648Y44217D01*
X305879Y48488D01*
X305879Y53112D01*
X307648Y57383D01*
X310917Y60652D01*
X315188Y62421D01*
X319812Y62421D01*
X324083Y60652D01*
X327352Y57383D01*
X329121Y53112D01*
X329121Y48488D01*
X327352Y44217D01*
X324083Y40948D01*
X319812Y39179D01*
X315188Y39179D01*
G37*
%LPD*%
%LPC*%
G36*
X213588Y39179D02*
X213588Y39179D01*
X209317Y40948D01*
X206048Y44217D01*
X204279Y48488D01*
X204279Y53112D01*
X206048Y57383D01*
X209317Y60652D01*
X213588Y62421D01*
X218212Y62421D01*
X222483Y60652D01*
X225752Y57383D01*
X227521Y53112D01*
X227521Y48488D01*
X225752Y44217D01*
X222483Y40948D01*
X218212Y39179D01*
X213588Y39179D01*
G37*
%LPD*%
G36*
X340190Y352814D02*
X340190Y352814D01*
X340236Y352815D01*
X340368Y352853D01*
X340386Y352857D01*
X340390Y352859D01*
X340397Y352861D01*
X340879Y353061D01*
X374321Y353061D01*
X374411Y353075D01*
X374502Y353083D01*
X374532Y353095D01*
X374563Y353100D01*
X374644Y353143D01*
X374728Y353179D01*
X374760Y353205D01*
X374781Y353216D01*
X374803Y353239D01*
X374859Y353284D01*
X375875Y354300D01*
X375917Y354358D01*
X375966Y354410D01*
X375988Y354457D01*
X376019Y354499D01*
X376040Y354568D01*
X376070Y354633D01*
X376076Y354685D01*
X376091Y354735D01*
X376089Y354806D01*
X376097Y354877D01*
X376086Y354928D01*
X376085Y354980D01*
X376060Y355048D01*
X376045Y355118D01*
X376018Y355163D01*
X376000Y355211D01*
X375955Y355267D01*
X375919Y355329D01*
X375879Y355363D01*
X375846Y355403D01*
X375786Y355442D01*
X375732Y355489D01*
X375683Y355508D01*
X375640Y355536D01*
X375570Y355554D01*
X375503Y355581D01*
X375432Y355589D01*
X375401Y355597D01*
X375378Y355595D01*
X375337Y355599D01*
X340106Y355599D01*
X340086Y355596D01*
X340067Y355598D01*
X339965Y355576D01*
X339863Y355560D01*
X339846Y355550D01*
X339826Y355546D01*
X339737Y355493D01*
X339646Y355444D01*
X339632Y355430D01*
X339615Y355420D01*
X339548Y355341D01*
X339476Y355266D01*
X339468Y355248D01*
X339455Y355233D01*
X339416Y355137D01*
X339373Y355043D01*
X339371Y355023D01*
X339363Y355005D01*
X339345Y354838D01*
X339345Y353565D01*
X339352Y353519D01*
X339350Y353473D01*
X339372Y353399D01*
X339384Y353322D01*
X339406Y353281D01*
X339419Y353237D01*
X339463Y353173D01*
X339500Y353104D01*
X339533Y353073D01*
X339559Y353035D01*
X339622Y352989D01*
X339678Y352935D01*
X339720Y352916D01*
X339756Y352888D01*
X339830Y352864D01*
X339901Y352831D01*
X339947Y352826D01*
X339990Y352812D01*
X340068Y352813D01*
X340145Y352804D01*
X340190Y352814D01*
G37*
D10*
X215900Y228600D03*
X317500Y228600D03*
D11*
X215900Y203200D03*
X317500Y203200D03*
X215900Y177800D03*
X317500Y177800D03*
X215900Y152400D03*
X317500Y152400D03*
X215900Y127000D03*
X317500Y127000D03*
X215900Y101600D03*
X317500Y101600D03*
X215900Y76200D03*
X317500Y76200D03*
X215900Y50800D03*
X317500Y50800D03*
D12*
X558800Y355600D03*
D13*
X558800Y304800D03*
D14*
X401320Y241300D02*
X386080Y241300D01*
X513080Y241300D02*
X528320Y241300D01*
X401320Y190500D02*
X386080Y190500D01*
X513080Y190500D02*
X528320Y190500D01*
X401320Y38100D02*
X386080Y38100D01*
X513080Y38100D02*
X528320Y38100D01*
X401320Y139700D02*
X386080Y139700D01*
X513080Y139700D02*
X528320Y139700D01*
X401320Y88900D02*
X386080Y88900D01*
X513080Y88900D02*
X528320Y88900D01*
D15*
X325882Y304800D02*
X309118Y304800D01*
X309118Y330200D02*
X325882Y330200D01*
X325882Y355600D02*
X309118Y355600D01*
D16*
X381000Y342900D03*
X457200Y342900D03*
X381000Y304800D03*
X457200Y304800D03*
D17*
X577596Y38100D02*
X590804Y38100D01*
X590804Y63500D02*
X577596Y63500D01*
X577596Y88900D02*
X590804Y88900D01*
X590804Y114300D02*
X577596Y114300D01*
X577596Y139700D02*
X590804Y139700D01*
X590804Y165100D02*
X577596Y165100D01*
X577596Y190500D02*
X590804Y190500D01*
X590804Y215900D02*
X577596Y215900D01*
D18*
X135954Y113900D02*
X118047Y113900D01*
X118047Y63900D02*
X135954Y63900D01*
X135954Y215500D02*
X118047Y215500D01*
X118047Y165500D02*
X135954Y165500D01*
D19*
X320040Y182880D02*
X335280Y182880D01*
X393700Y241300D01*
X320040Y182880D02*
X317500Y177800D01*
X317500Y152400D02*
X350520Y152400D01*
X388620Y190500D01*
X393700Y190500D01*
X350520Y76200D02*
X317500Y76200D01*
X350520Y76200D02*
X388620Y38100D01*
X393700Y38100D01*
X312420Y228600D02*
X312420Y274320D01*
X289560Y297180D01*
X289560Y312420D01*
X312420Y335280D01*
X312420Y228600D02*
X317500Y228600D01*
X317500Y330200D02*
X312420Y335280D01*
X342900Y342900D02*
X381000Y342900D01*
X342900Y342900D02*
X335280Y335280D01*
X320040Y335280D01*
X317500Y330200D01*
X586740Y190500D02*
X586740Y167640D01*
X584200Y165100D01*
X584200Y190500D02*
X586740Y190500D01*
X457200Y304800D02*
X396240Y365760D01*
X327660Y365760D01*
X317500Y355600D01*
X548640Y220980D02*
X579120Y190500D01*
X548640Y220980D02*
X548640Y251460D01*
X495300Y304800D01*
X457200Y304800D01*
X579120Y190500D02*
X584200Y190500D01*
X586740Y220980D02*
X586740Y327660D01*
X558800Y355600D01*
X586740Y220980D02*
X584200Y215900D01*
X556260Y350520D02*
X464820Y350520D01*
X457200Y342900D01*
X556260Y350520D02*
X558800Y355600D01*
X584200Y38100D02*
X520700Y38100D01*
X381000Y304800D02*
X317500Y304800D01*
X518160Y53340D02*
X518160Y38100D01*
X518160Y53340D02*
X419100Y152400D01*
X419100Y266700D01*
X381000Y304800D01*
X518160Y38100D02*
X520700Y38100D01*
X381000Y99060D02*
X320040Y99060D01*
X381000Y99060D02*
X388620Y91440D01*
X320040Y99060D02*
X317500Y101600D01*
X388620Y91440D02*
X393700Y88900D01*
X571500Y91440D02*
X579120Y91440D01*
X571500Y91440D02*
X525780Y137160D01*
X579120Y91440D02*
X584200Y88900D01*
X525780Y137160D02*
X520700Y139700D01*
X541020Y68580D02*
X579120Y68580D01*
X541020Y68580D02*
X520700Y88900D01*
X579120Y68580D02*
X584200Y63500D01*
X579120Y114300D02*
X525780Y167640D01*
X525780Y190500D01*
X579120Y114300D02*
X584200Y114300D01*
X525780Y190500D02*
X520700Y190500D01*
X213360Y182880D02*
X160020Y182880D01*
X129540Y213360D01*
X213360Y182880D02*
X215900Y177800D01*
X129540Y213360D02*
X127000Y215500D01*
X137160Y152400D02*
X215900Y152400D01*
X137160Y152400D02*
X129540Y160020D01*
X127000Y165500D01*
X137160Y121920D02*
X213360Y121920D01*
X137160Y121920D02*
X129540Y114300D01*
X213360Y121920D02*
X215900Y127000D01*
X129540Y114300D02*
X127000Y113900D01*
X160020Y99060D02*
X213360Y99060D01*
X160020Y99060D02*
X129540Y68580D01*
X213360Y99060D02*
X215900Y101600D01*
X129540Y68580D02*
X127000Y63900D01*
M02*
