G04 EAGLE Gerber RS-274X export*
G75*
%MOMM*%
%FSLAX34Y34*%
%LPD*%
%IN*%
%IPPOS*%
%AMOC8*
5,1,8,0,0,1.08239X$1,22.5*%
G01*
%ADD10C,0.254000*%


D10*
X76200Y0D02*
X619000Y0D01*
X619000Y393600D01*
X76200Y393600D01*
X76200Y0D01*
X142780Y346710D02*
X143859Y346639D01*
X144931Y346498D01*
X145991Y346287D01*
X147035Y346008D01*
X148059Y345660D01*
X149057Y345246D01*
X150027Y344768D01*
X150963Y344228D01*
X151862Y343627D01*
X152719Y342969D01*
X153532Y342257D01*
X154297Y341492D01*
X155009Y340679D01*
X155667Y339822D01*
X156268Y338923D01*
X156808Y337987D01*
X157286Y337017D01*
X157700Y336019D01*
X158048Y334995D01*
X158327Y333951D01*
X158538Y332891D01*
X158679Y331819D01*
X158750Y330740D01*
X158750Y329660D01*
X158679Y328581D01*
X158538Y327509D01*
X158327Y326449D01*
X158048Y325405D01*
X157700Y324381D01*
X157286Y323383D01*
X156808Y322413D01*
X156268Y321477D01*
X155667Y320578D01*
X155009Y319721D01*
X154297Y318908D01*
X153532Y318144D01*
X152719Y317431D01*
X151862Y316773D01*
X150963Y316172D01*
X150027Y315632D01*
X149057Y315154D01*
X148059Y314740D01*
X147035Y314392D01*
X145991Y314113D01*
X144931Y313902D01*
X143859Y313761D01*
X142780Y313690D01*
X141700Y313690D01*
X140621Y313761D01*
X139549Y313902D01*
X138489Y314113D01*
X137445Y314392D01*
X136421Y314740D01*
X135423Y315154D01*
X134453Y315632D01*
X133517Y316172D01*
X132618Y316773D01*
X131761Y317431D01*
X130948Y318144D01*
X130184Y318908D01*
X129471Y319721D01*
X128813Y320578D01*
X128212Y321477D01*
X127672Y322413D01*
X127194Y323383D01*
X126780Y324381D01*
X126432Y325405D01*
X126153Y326449D01*
X125942Y327509D01*
X125801Y328581D01*
X125730Y329660D01*
X125730Y330740D01*
X125801Y331819D01*
X125942Y332891D01*
X126153Y333951D01*
X126432Y334995D01*
X126780Y336019D01*
X127194Y337017D01*
X127672Y337987D01*
X128212Y338923D01*
X128813Y339822D01*
X129471Y340679D01*
X130184Y341492D01*
X130948Y342257D01*
X131761Y342969D01*
X132618Y343627D01*
X133517Y344228D01*
X134453Y344768D01*
X135423Y345246D01*
X136421Y345660D01*
X137445Y346008D01*
X138489Y346287D01*
X139549Y346498D01*
X140621Y346639D01*
X141700Y346710D01*
X142780Y346710D01*
M02*
