G04 EAGLE Gerber RS-274X export*
G75*
%MOMM*%
%FSLAX34Y34*%
%LPD*%
%INSilkscreen Top*%
%IPPOS*%
%AMOC8*
5,1,8,0,0,1.08239X$1,22.5*%
G01*
%ADD10C,0.127000*%
%ADD11C,0.076200*%
%ADD12C,0.025400*%
%ADD13C,0.101600*%
%ADD14C,0.152400*%
%ADD15R,2.286000X0.635000*%
%ADD16R,0.762000X3.048000*%
%ADD17R,1.676400X0.812800*%
%ADD18C,0.050800*%
%ADD19R,0.635000X0.762000*%
%ADD20R,2.794000X1.270000*%
%ADD21C,0.177800*%
%ADD22R,0.381000X0.508000*%


D10*
X203000Y240400D02*
X203000Y37200D01*
X330000Y37200D01*
X330000Y240400D01*
X203000Y240400D01*
D11*
X228981Y210819D02*
X228981Y203581D01*
X228981Y210819D02*
X230992Y210819D01*
X231081Y210817D01*
X231170Y210811D01*
X231258Y210801D01*
X231346Y210788D01*
X231433Y210770D01*
X231520Y210749D01*
X231605Y210723D01*
X231689Y210694D01*
X231772Y210662D01*
X231853Y210625D01*
X231933Y210585D01*
X232010Y210542D01*
X232086Y210495D01*
X232160Y210445D01*
X232231Y210392D01*
X232300Y210336D01*
X232366Y210276D01*
X232430Y210214D01*
X232490Y210149D01*
X232548Y210082D01*
X232603Y210012D01*
X232655Y209939D01*
X232703Y209864D01*
X232748Y209788D01*
X232790Y209709D01*
X232828Y209629D01*
X232862Y209547D01*
X232893Y209463D01*
X232920Y209378D01*
X232944Y209293D01*
X232963Y209206D01*
X232979Y209118D01*
X232991Y209030D01*
X232999Y208941D01*
X233003Y208852D01*
X233003Y208764D01*
X232999Y208675D01*
X232991Y208586D01*
X232979Y208498D01*
X232963Y208410D01*
X232944Y208323D01*
X232920Y208238D01*
X232893Y208153D01*
X232862Y208069D01*
X232828Y207987D01*
X232790Y207907D01*
X232748Y207828D01*
X232703Y207752D01*
X232655Y207677D01*
X232603Y207604D01*
X232548Y207534D01*
X232490Y207467D01*
X232430Y207402D01*
X232366Y207340D01*
X232300Y207280D01*
X232231Y207224D01*
X232160Y207171D01*
X232086Y207121D01*
X232010Y207074D01*
X231933Y207031D01*
X231853Y206991D01*
X231772Y206954D01*
X231689Y206922D01*
X231605Y206893D01*
X231520Y206867D01*
X231433Y206846D01*
X231346Y206828D01*
X231258Y206815D01*
X231170Y206805D01*
X231081Y206799D01*
X230992Y206797D01*
X230992Y206798D02*
X228981Y206798D01*
X235746Y206798D02*
X235746Y205189D01*
X235747Y206798D02*
X235749Y206877D01*
X235755Y206956D01*
X235764Y207034D01*
X235778Y207112D01*
X235795Y207189D01*
X235816Y207265D01*
X235841Y207340D01*
X235869Y207413D01*
X235901Y207486D01*
X235937Y207556D01*
X235976Y207625D01*
X236018Y207691D01*
X236063Y207756D01*
X236112Y207818D01*
X236164Y207878D01*
X236218Y207935D01*
X236275Y207989D01*
X236335Y208041D01*
X236397Y208090D01*
X236462Y208135D01*
X236528Y208177D01*
X236597Y208216D01*
X236667Y208252D01*
X236740Y208284D01*
X236813Y208312D01*
X236888Y208337D01*
X236964Y208358D01*
X237041Y208375D01*
X237119Y208389D01*
X237197Y208398D01*
X237276Y208404D01*
X237355Y208406D01*
X237434Y208404D01*
X237513Y208398D01*
X237591Y208389D01*
X237669Y208375D01*
X237746Y208358D01*
X237822Y208337D01*
X237897Y208312D01*
X237970Y208284D01*
X238043Y208252D01*
X238113Y208216D01*
X238182Y208177D01*
X238248Y208135D01*
X238313Y208090D01*
X238375Y208041D01*
X238435Y207989D01*
X238492Y207935D01*
X238546Y207878D01*
X238598Y207818D01*
X238647Y207756D01*
X238692Y207691D01*
X238734Y207625D01*
X238773Y207556D01*
X238809Y207486D01*
X238841Y207413D01*
X238869Y207340D01*
X238894Y207265D01*
X238915Y207189D01*
X238932Y207112D01*
X238946Y207034D01*
X238955Y206956D01*
X238961Y206877D01*
X238963Y206798D01*
X238963Y205189D01*
X238961Y205110D01*
X238955Y205031D01*
X238946Y204953D01*
X238932Y204875D01*
X238915Y204798D01*
X238894Y204722D01*
X238869Y204647D01*
X238841Y204574D01*
X238809Y204501D01*
X238773Y204431D01*
X238734Y204362D01*
X238692Y204296D01*
X238647Y204231D01*
X238598Y204169D01*
X238546Y204109D01*
X238492Y204052D01*
X238435Y203998D01*
X238375Y203946D01*
X238313Y203897D01*
X238248Y203852D01*
X238182Y203810D01*
X238113Y203771D01*
X238043Y203735D01*
X237970Y203703D01*
X237897Y203675D01*
X237822Y203650D01*
X237746Y203629D01*
X237669Y203612D01*
X237591Y203598D01*
X237513Y203589D01*
X237434Y203583D01*
X237355Y203581D01*
X237276Y203583D01*
X237197Y203589D01*
X237119Y203598D01*
X237041Y203612D01*
X236964Y203629D01*
X236888Y203650D01*
X236813Y203675D01*
X236740Y203703D01*
X236667Y203735D01*
X236597Y203771D01*
X236528Y203810D01*
X236462Y203852D01*
X236397Y203897D01*
X236335Y203946D01*
X236275Y203998D01*
X236218Y204052D01*
X236164Y204109D01*
X236112Y204169D01*
X236063Y204231D01*
X236018Y204296D01*
X235976Y204362D01*
X235937Y204431D01*
X235901Y204501D01*
X235869Y204574D01*
X235841Y204647D01*
X235816Y204722D01*
X235795Y204798D01*
X235778Y204875D01*
X235764Y204953D01*
X235755Y205031D01*
X235749Y205110D01*
X235747Y205189D01*
X242067Y204787D02*
X242067Y210819D01*
X242067Y204787D02*
X242069Y204719D01*
X242075Y204652D01*
X242084Y204585D01*
X242097Y204519D01*
X242114Y204453D01*
X242135Y204389D01*
X242159Y204325D01*
X242186Y204264D01*
X242217Y204204D01*
X242252Y204145D01*
X242289Y204089D01*
X242330Y204035D01*
X242374Y203983D01*
X242420Y203934D01*
X242469Y203888D01*
X242521Y203844D01*
X242575Y203803D01*
X242631Y203766D01*
X242690Y203731D01*
X242750Y203700D01*
X242811Y203673D01*
X242875Y203649D01*
X242939Y203628D01*
X243005Y203611D01*
X243071Y203598D01*
X243138Y203589D01*
X243205Y203583D01*
X243273Y203581D01*
X245826Y205189D02*
X245826Y206798D01*
X245827Y206798D02*
X245829Y206877D01*
X245835Y206956D01*
X245844Y207034D01*
X245858Y207112D01*
X245875Y207189D01*
X245896Y207265D01*
X245921Y207340D01*
X245949Y207413D01*
X245981Y207486D01*
X246017Y207556D01*
X246056Y207625D01*
X246098Y207691D01*
X246143Y207756D01*
X246192Y207818D01*
X246244Y207878D01*
X246298Y207935D01*
X246355Y207989D01*
X246415Y208041D01*
X246477Y208090D01*
X246542Y208135D01*
X246608Y208177D01*
X246677Y208216D01*
X246747Y208252D01*
X246820Y208284D01*
X246893Y208312D01*
X246968Y208337D01*
X247044Y208358D01*
X247121Y208375D01*
X247199Y208389D01*
X247277Y208398D01*
X247356Y208404D01*
X247435Y208406D01*
X247514Y208404D01*
X247593Y208398D01*
X247671Y208389D01*
X247749Y208375D01*
X247826Y208358D01*
X247902Y208337D01*
X247977Y208312D01*
X248050Y208284D01*
X248123Y208252D01*
X248193Y208216D01*
X248262Y208177D01*
X248328Y208135D01*
X248393Y208090D01*
X248455Y208041D01*
X248515Y207989D01*
X248572Y207935D01*
X248626Y207878D01*
X248678Y207818D01*
X248727Y207756D01*
X248772Y207691D01*
X248814Y207625D01*
X248853Y207556D01*
X248889Y207486D01*
X248921Y207413D01*
X248949Y207340D01*
X248974Y207265D01*
X248995Y207189D01*
X249012Y207112D01*
X249026Y207034D01*
X249035Y206956D01*
X249041Y206877D01*
X249043Y206798D01*
X249043Y205189D01*
X249041Y205110D01*
X249035Y205031D01*
X249026Y204953D01*
X249012Y204875D01*
X248995Y204798D01*
X248974Y204722D01*
X248949Y204647D01*
X248921Y204574D01*
X248889Y204501D01*
X248853Y204431D01*
X248814Y204362D01*
X248772Y204296D01*
X248727Y204231D01*
X248678Y204169D01*
X248626Y204109D01*
X248572Y204052D01*
X248515Y203998D01*
X248455Y203946D01*
X248393Y203897D01*
X248328Y203852D01*
X248262Y203810D01*
X248193Y203771D01*
X248123Y203735D01*
X248050Y203703D01*
X247977Y203675D01*
X247902Y203650D01*
X247826Y203629D01*
X247749Y203612D01*
X247671Y203598D01*
X247593Y203589D01*
X247514Y203583D01*
X247435Y203581D01*
X247356Y203583D01*
X247277Y203589D01*
X247199Y203598D01*
X247121Y203612D01*
X247044Y203629D01*
X246968Y203650D01*
X246893Y203675D01*
X246820Y203703D01*
X246747Y203735D01*
X246677Y203771D01*
X246608Y203810D01*
X246542Y203852D01*
X246477Y203897D01*
X246415Y203946D01*
X246355Y203998D01*
X246298Y204052D01*
X246244Y204109D01*
X246192Y204169D01*
X246143Y204231D01*
X246098Y204296D01*
X246056Y204362D01*
X246017Y204431D01*
X245981Y204501D01*
X245949Y204574D01*
X245921Y204647D01*
X245896Y204722D01*
X245875Y204798D01*
X245858Y204875D01*
X245844Y204953D01*
X245835Y205031D01*
X245829Y205110D01*
X245827Y205189D01*
X252147Y204787D02*
X252147Y210819D01*
X252147Y204787D02*
X252149Y204719D01*
X252155Y204652D01*
X252164Y204585D01*
X252177Y204519D01*
X252194Y204453D01*
X252215Y204389D01*
X252239Y204325D01*
X252266Y204264D01*
X252297Y204204D01*
X252332Y204145D01*
X252369Y204089D01*
X252410Y204035D01*
X252454Y203983D01*
X252500Y203934D01*
X252549Y203888D01*
X252601Y203844D01*
X252655Y203803D01*
X252711Y203766D01*
X252770Y203731D01*
X252830Y203700D01*
X252891Y203673D01*
X252955Y203649D01*
X253019Y203628D01*
X253085Y203611D01*
X253151Y203598D01*
X253218Y203589D01*
X253285Y203583D01*
X253353Y203581D01*
X256146Y204787D02*
X256146Y208406D01*
X256147Y204787D02*
X256149Y204719D01*
X256155Y204652D01*
X256164Y204585D01*
X256177Y204519D01*
X256194Y204453D01*
X256215Y204389D01*
X256239Y204325D01*
X256266Y204264D01*
X256297Y204204D01*
X256332Y204145D01*
X256369Y204089D01*
X256410Y204035D01*
X256454Y203983D01*
X256500Y203934D01*
X256549Y203888D01*
X256601Y203844D01*
X256655Y203803D01*
X256711Y203766D01*
X256770Y203731D01*
X256830Y203700D01*
X256891Y203673D01*
X256955Y203649D01*
X257019Y203628D01*
X257085Y203611D01*
X257151Y203598D01*
X257218Y203589D01*
X257285Y203583D01*
X257353Y203581D01*
X259363Y203581D01*
X259363Y208406D01*
X268756Y210820D02*
X268840Y210818D01*
X268923Y210812D01*
X269006Y210803D01*
X269089Y210789D01*
X269170Y210772D01*
X269251Y210751D01*
X269331Y210726D01*
X269410Y210698D01*
X269487Y210666D01*
X269563Y210630D01*
X269637Y210591D01*
X269709Y210549D01*
X269779Y210503D01*
X269847Y210454D01*
X269912Y210402D01*
X269975Y210348D01*
X270036Y210290D01*
X270094Y210229D01*
X270148Y210166D01*
X270200Y210101D01*
X270249Y210033D01*
X270295Y209963D01*
X270337Y209891D01*
X270376Y209817D01*
X270412Y209741D01*
X270444Y209664D01*
X270472Y209585D01*
X270497Y209505D01*
X270518Y209424D01*
X270535Y209343D01*
X270549Y209260D01*
X270558Y209177D01*
X270564Y209094D01*
X270566Y209010D01*
X268756Y210819D02*
X268662Y210817D01*
X268568Y210811D01*
X268474Y210802D01*
X268380Y210788D01*
X268288Y210771D01*
X268196Y210750D01*
X268105Y210726D01*
X268015Y210698D01*
X267926Y210666D01*
X267838Y210630D01*
X267753Y210591D01*
X267668Y210549D01*
X267586Y210503D01*
X267505Y210454D01*
X267427Y210402D01*
X267351Y210346D01*
X267277Y210288D01*
X267205Y210226D01*
X267136Y210162D01*
X267070Y210095D01*
X267006Y210025D01*
X266946Y209953D01*
X266888Y209878D01*
X266833Y209801D01*
X266782Y209722D01*
X266734Y209641D01*
X266689Y209558D01*
X266647Y209474D01*
X266609Y209387D01*
X266575Y209299D01*
X266544Y209210D01*
X269963Y207602D02*
X270025Y207664D01*
X270084Y207728D01*
X270140Y207796D01*
X270193Y207865D01*
X270243Y207937D01*
X270290Y208011D01*
X270333Y208087D01*
X270373Y208165D01*
X270409Y208244D01*
X270441Y208325D01*
X270470Y208408D01*
X270496Y208492D01*
X270517Y208576D01*
X270535Y208662D01*
X270548Y208748D01*
X270558Y208835D01*
X270564Y208923D01*
X270566Y209010D01*
X269962Y207602D02*
X266544Y203581D01*
X270565Y203581D01*
X273744Y207200D02*
X273746Y207350D01*
X273752Y207501D01*
X273761Y207651D01*
X273774Y207800D01*
X273791Y207950D01*
X273812Y208098D01*
X273837Y208247D01*
X273865Y208394D01*
X273897Y208541D01*
X273932Y208687D01*
X273972Y208832D01*
X274015Y208976D01*
X274061Y209119D01*
X274111Y209261D01*
X274165Y209401D01*
X274222Y209540D01*
X274283Y209678D01*
X274347Y209814D01*
X274373Y209883D01*
X274402Y209951D01*
X274435Y210017D01*
X274470Y210082D01*
X274509Y210144D01*
X274551Y210205D01*
X274596Y210264D01*
X274643Y210320D01*
X274694Y210374D01*
X274747Y210426D01*
X274802Y210474D01*
X274860Y210520D01*
X274920Y210563D01*
X274983Y210603D01*
X275047Y210640D01*
X275112Y210673D01*
X275180Y210703D01*
X275248Y210730D01*
X275319Y210754D01*
X275390Y210773D01*
X275462Y210790D01*
X275534Y210803D01*
X275608Y210812D01*
X275681Y210817D01*
X275755Y210819D01*
X275829Y210817D01*
X275902Y210812D01*
X275976Y210803D01*
X276048Y210790D01*
X276120Y210773D01*
X276191Y210754D01*
X276262Y210730D01*
X276330Y210703D01*
X276398Y210673D01*
X276463Y210640D01*
X276527Y210603D01*
X276590Y210563D01*
X276650Y210520D01*
X276708Y210474D01*
X276763Y210426D01*
X276816Y210374D01*
X276867Y210320D01*
X276914Y210264D01*
X276959Y210205D01*
X277001Y210144D01*
X277040Y210082D01*
X277075Y210017D01*
X277108Y209951D01*
X277137Y209883D01*
X277163Y209814D01*
X277162Y209814D02*
X277226Y209678D01*
X277287Y209540D01*
X277344Y209401D01*
X277398Y209261D01*
X277448Y209119D01*
X277494Y208976D01*
X277537Y208832D01*
X277577Y208687D01*
X277612Y208541D01*
X277644Y208394D01*
X277672Y208247D01*
X277697Y208098D01*
X277718Y207950D01*
X277735Y207800D01*
X277748Y207651D01*
X277757Y207501D01*
X277763Y207350D01*
X277765Y207200D01*
X273744Y207200D02*
X273746Y207050D01*
X273752Y206900D01*
X273761Y206749D01*
X273774Y206600D01*
X273791Y206450D01*
X273812Y206302D01*
X273837Y206153D01*
X273865Y206006D01*
X273897Y205859D01*
X273932Y205713D01*
X273972Y205568D01*
X274015Y205424D01*
X274061Y205281D01*
X274111Y205139D01*
X274165Y204999D01*
X274222Y204860D01*
X274283Y204722D01*
X274347Y204586D01*
X274373Y204517D01*
X274402Y204449D01*
X274435Y204383D01*
X274470Y204318D01*
X274509Y204256D01*
X274551Y204195D01*
X274596Y204136D01*
X274643Y204080D01*
X274694Y204026D01*
X274747Y203974D01*
X274802Y203926D01*
X274860Y203880D01*
X274920Y203837D01*
X274983Y203797D01*
X275047Y203760D01*
X275112Y203727D01*
X275180Y203697D01*
X275248Y203670D01*
X275319Y203646D01*
X275390Y203627D01*
X275462Y203610D01*
X275534Y203597D01*
X275608Y203588D01*
X275681Y203583D01*
X275755Y203581D01*
X277162Y204586D02*
X277226Y204722D01*
X277287Y204860D01*
X277344Y204999D01*
X277398Y205139D01*
X277448Y205281D01*
X277494Y205424D01*
X277537Y205568D01*
X277577Y205713D01*
X277612Y205859D01*
X277644Y206006D01*
X277672Y206153D01*
X277697Y206302D01*
X277718Y206450D01*
X277735Y206600D01*
X277748Y206749D01*
X277757Y206900D01*
X277763Y207050D01*
X277765Y207200D01*
X277163Y204586D02*
X277137Y204517D01*
X277108Y204449D01*
X277075Y204383D01*
X277040Y204318D01*
X277001Y204256D01*
X276959Y204195D01*
X276914Y204136D01*
X276867Y204080D01*
X276816Y204026D01*
X276763Y203974D01*
X276708Y203926D01*
X276650Y203880D01*
X276590Y203837D01*
X276527Y203797D01*
X276463Y203760D01*
X276398Y203727D01*
X276330Y203697D01*
X276262Y203670D01*
X276191Y203646D01*
X276120Y203627D01*
X276048Y203610D01*
X275976Y203597D01*
X275902Y203588D01*
X275829Y203583D01*
X275755Y203581D01*
X274146Y205189D02*
X277363Y209211D01*
X280944Y209211D02*
X282955Y210819D01*
X282955Y203581D01*
X284965Y203581D02*
X280944Y203581D01*
X290356Y210820D02*
X290440Y210818D01*
X290523Y210812D01*
X290606Y210803D01*
X290689Y210789D01*
X290770Y210772D01*
X290851Y210751D01*
X290931Y210726D01*
X291010Y210698D01*
X291087Y210666D01*
X291163Y210630D01*
X291237Y210591D01*
X291309Y210549D01*
X291379Y210503D01*
X291447Y210454D01*
X291512Y210402D01*
X291575Y210348D01*
X291636Y210290D01*
X291694Y210229D01*
X291748Y210166D01*
X291800Y210101D01*
X291849Y210033D01*
X291895Y209963D01*
X291937Y209891D01*
X291976Y209817D01*
X292012Y209741D01*
X292044Y209664D01*
X292072Y209585D01*
X292097Y209505D01*
X292118Y209424D01*
X292135Y209343D01*
X292149Y209260D01*
X292158Y209177D01*
X292164Y209094D01*
X292166Y209010D01*
X290356Y210819D02*
X290262Y210817D01*
X290168Y210811D01*
X290074Y210802D01*
X289980Y210788D01*
X289888Y210771D01*
X289796Y210750D01*
X289705Y210726D01*
X289615Y210698D01*
X289526Y210666D01*
X289438Y210630D01*
X289353Y210591D01*
X289268Y210549D01*
X289186Y210503D01*
X289105Y210454D01*
X289027Y210402D01*
X288951Y210346D01*
X288877Y210288D01*
X288805Y210226D01*
X288736Y210162D01*
X288670Y210095D01*
X288606Y210025D01*
X288546Y209953D01*
X288488Y209878D01*
X288433Y209801D01*
X288382Y209722D01*
X288334Y209641D01*
X288289Y209558D01*
X288247Y209474D01*
X288209Y209387D01*
X288175Y209299D01*
X288144Y209210D01*
X291562Y207602D02*
X291624Y207664D01*
X291683Y207728D01*
X291739Y207796D01*
X291792Y207865D01*
X291842Y207937D01*
X291889Y208011D01*
X291932Y208087D01*
X291972Y208165D01*
X292008Y208244D01*
X292040Y208325D01*
X292069Y208408D01*
X292095Y208492D01*
X292116Y208576D01*
X292134Y208662D01*
X292147Y208748D01*
X292157Y208835D01*
X292163Y208923D01*
X292165Y209010D01*
X291562Y207602D02*
X288144Y203581D01*
X292165Y203581D01*
X241681Y81808D02*
X241681Y78592D01*
X241681Y81808D02*
X241683Y81897D01*
X241689Y81986D01*
X241699Y82074D01*
X241712Y82162D01*
X241730Y82249D01*
X241751Y82336D01*
X241777Y82421D01*
X241806Y82505D01*
X241838Y82588D01*
X241875Y82669D01*
X241915Y82749D01*
X241958Y82826D01*
X242005Y82902D01*
X242055Y82976D01*
X242108Y83047D01*
X242164Y83116D01*
X242224Y83182D01*
X242286Y83246D01*
X242351Y83306D01*
X242418Y83364D01*
X242488Y83419D01*
X242561Y83471D01*
X242636Y83519D01*
X242712Y83564D01*
X242791Y83606D01*
X242871Y83644D01*
X242953Y83678D01*
X243037Y83709D01*
X243122Y83736D01*
X243207Y83760D01*
X243294Y83779D01*
X243382Y83795D01*
X243470Y83807D01*
X243559Y83815D01*
X243648Y83819D01*
X243736Y83819D01*
X243825Y83815D01*
X243914Y83807D01*
X244002Y83795D01*
X244090Y83779D01*
X244177Y83760D01*
X244262Y83736D01*
X244347Y83709D01*
X244431Y83678D01*
X244513Y83644D01*
X244593Y83606D01*
X244672Y83564D01*
X244748Y83519D01*
X244823Y83471D01*
X244896Y83419D01*
X244966Y83364D01*
X245033Y83306D01*
X245098Y83246D01*
X245160Y83182D01*
X245220Y83116D01*
X245276Y83047D01*
X245329Y82976D01*
X245379Y82902D01*
X245426Y82826D01*
X245469Y82749D01*
X245509Y82669D01*
X245546Y82588D01*
X245578Y82505D01*
X245607Y82421D01*
X245633Y82336D01*
X245654Y82249D01*
X245672Y82162D01*
X245685Y82074D01*
X245695Y81986D01*
X245701Y81897D01*
X245703Y81808D01*
X245702Y81808D02*
X245702Y78592D01*
X245703Y78592D02*
X245701Y78503D01*
X245695Y78414D01*
X245685Y78326D01*
X245672Y78238D01*
X245654Y78151D01*
X245633Y78064D01*
X245607Y77979D01*
X245578Y77895D01*
X245546Y77812D01*
X245509Y77731D01*
X245469Y77651D01*
X245426Y77574D01*
X245379Y77498D01*
X245329Y77424D01*
X245276Y77353D01*
X245220Y77284D01*
X245160Y77218D01*
X245098Y77154D01*
X245033Y77094D01*
X244966Y77036D01*
X244896Y76981D01*
X244823Y76929D01*
X244748Y76881D01*
X244672Y76836D01*
X244593Y76794D01*
X244513Y76756D01*
X244431Y76722D01*
X244347Y76691D01*
X244262Y76664D01*
X244177Y76640D01*
X244090Y76621D01*
X244002Y76605D01*
X243914Y76593D01*
X243825Y76585D01*
X243736Y76581D01*
X243648Y76581D01*
X243559Y76585D01*
X243470Y76593D01*
X243382Y76605D01*
X243294Y76621D01*
X243207Y76640D01*
X243122Y76664D01*
X243037Y76691D01*
X242953Y76722D01*
X242871Y76756D01*
X242791Y76794D01*
X242712Y76836D01*
X242636Y76881D01*
X242561Y76929D01*
X242488Y76981D01*
X242418Y77036D01*
X242351Y77094D01*
X242286Y77154D01*
X242224Y77218D01*
X242164Y77284D01*
X242108Y77353D01*
X242055Y77424D01*
X242005Y77498D01*
X241958Y77574D01*
X241915Y77651D01*
X241875Y77731D01*
X241838Y77812D01*
X241806Y77895D01*
X241777Y77979D01*
X241751Y78064D01*
X241730Y78151D01*
X241712Y78238D01*
X241699Y78326D01*
X241689Y78414D01*
X241683Y78503D01*
X241681Y78592D01*
X250534Y78189D02*
X250534Y83819D01*
X250534Y78189D02*
X250532Y78110D01*
X250526Y78031D01*
X250517Y77953D01*
X250503Y77875D01*
X250486Y77798D01*
X250465Y77722D01*
X250440Y77647D01*
X250412Y77574D01*
X250380Y77501D01*
X250344Y77431D01*
X250305Y77362D01*
X250263Y77296D01*
X250218Y77231D01*
X250169Y77169D01*
X250117Y77109D01*
X250063Y77052D01*
X250006Y76998D01*
X249946Y76946D01*
X249884Y76897D01*
X249819Y76852D01*
X249753Y76810D01*
X249684Y76771D01*
X249614Y76735D01*
X249541Y76703D01*
X249468Y76675D01*
X249393Y76650D01*
X249317Y76629D01*
X249240Y76612D01*
X249162Y76598D01*
X249084Y76589D01*
X249005Y76583D01*
X248926Y76581D01*
X248121Y76581D01*
X253920Y78592D02*
X253922Y78681D01*
X253928Y78770D01*
X253938Y78858D01*
X253951Y78946D01*
X253969Y79033D01*
X253990Y79120D01*
X254016Y79205D01*
X254045Y79289D01*
X254077Y79372D01*
X254114Y79453D01*
X254154Y79533D01*
X254197Y79610D01*
X254244Y79686D01*
X254294Y79760D01*
X254347Y79831D01*
X254403Y79900D01*
X254463Y79966D01*
X254525Y80030D01*
X254590Y80090D01*
X254657Y80148D01*
X254727Y80203D01*
X254800Y80255D01*
X254875Y80303D01*
X254951Y80348D01*
X255030Y80390D01*
X255110Y80428D01*
X255192Y80462D01*
X255276Y80493D01*
X255361Y80520D01*
X255446Y80544D01*
X255533Y80563D01*
X255621Y80579D01*
X255709Y80591D01*
X255798Y80599D01*
X255887Y80603D01*
X255975Y80603D01*
X256064Y80599D01*
X256153Y80591D01*
X256241Y80579D01*
X256329Y80563D01*
X256416Y80544D01*
X256501Y80520D01*
X256586Y80493D01*
X256670Y80462D01*
X256752Y80428D01*
X256832Y80390D01*
X256911Y80348D01*
X256987Y80303D01*
X257062Y80255D01*
X257135Y80203D01*
X257205Y80148D01*
X257272Y80090D01*
X257337Y80030D01*
X257399Y79966D01*
X257459Y79900D01*
X257515Y79831D01*
X257568Y79760D01*
X257618Y79686D01*
X257665Y79610D01*
X257708Y79533D01*
X257748Y79453D01*
X257785Y79372D01*
X257817Y79289D01*
X257846Y79205D01*
X257872Y79120D01*
X257893Y79033D01*
X257911Y78946D01*
X257924Y78858D01*
X257934Y78770D01*
X257940Y78681D01*
X257942Y78592D01*
X257940Y78503D01*
X257934Y78414D01*
X257924Y78326D01*
X257911Y78238D01*
X257893Y78151D01*
X257872Y78064D01*
X257846Y77979D01*
X257817Y77895D01*
X257785Y77812D01*
X257748Y77731D01*
X257708Y77651D01*
X257665Y77574D01*
X257618Y77498D01*
X257568Y77424D01*
X257515Y77353D01*
X257459Y77284D01*
X257399Y77218D01*
X257337Y77154D01*
X257272Y77094D01*
X257205Y77036D01*
X257135Y76981D01*
X257062Y76929D01*
X256987Y76881D01*
X256911Y76836D01*
X256832Y76794D01*
X256752Y76756D01*
X256670Y76722D01*
X256586Y76691D01*
X256501Y76664D01*
X256416Y76640D01*
X256329Y76621D01*
X256241Y76605D01*
X256153Y76593D01*
X256064Y76585D01*
X255975Y76581D01*
X255887Y76581D01*
X255798Y76585D01*
X255709Y76593D01*
X255621Y76605D01*
X255533Y76621D01*
X255446Y76640D01*
X255361Y76664D01*
X255276Y76691D01*
X255192Y76722D01*
X255110Y76756D01*
X255030Y76794D01*
X254951Y76836D01*
X254875Y76881D01*
X254800Y76929D01*
X254727Y76981D01*
X254657Y77036D01*
X254590Y77094D01*
X254525Y77154D01*
X254463Y77218D01*
X254403Y77284D01*
X254347Y77353D01*
X254294Y77424D01*
X254244Y77498D01*
X254197Y77574D01*
X254154Y77651D01*
X254114Y77731D01*
X254077Y77812D01*
X254045Y77895D01*
X254016Y77979D01*
X253990Y78064D01*
X253969Y78151D01*
X253951Y78238D01*
X253938Y78326D01*
X253928Y78414D01*
X253922Y78503D01*
X253920Y78592D01*
X254323Y82211D02*
X254325Y82290D01*
X254331Y82369D01*
X254340Y82447D01*
X254354Y82525D01*
X254371Y82602D01*
X254392Y82678D01*
X254417Y82753D01*
X254445Y82826D01*
X254477Y82899D01*
X254513Y82969D01*
X254552Y83038D01*
X254594Y83104D01*
X254639Y83169D01*
X254688Y83231D01*
X254740Y83291D01*
X254794Y83348D01*
X254851Y83402D01*
X254911Y83454D01*
X254973Y83503D01*
X255038Y83548D01*
X255104Y83590D01*
X255173Y83629D01*
X255243Y83665D01*
X255316Y83697D01*
X255389Y83725D01*
X255464Y83750D01*
X255540Y83771D01*
X255617Y83788D01*
X255695Y83802D01*
X255773Y83811D01*
X255852Y83817D01*
X255931Y83819D01*
X256010Y83817D01*
X256089Y83811D01*
X256167Y83802D01*
X256245Y83788D01*
X256322Y83771D01*
X256398Y83750D01*
X256473Y83725D01*
X256546Y83697D01*
X256619Y83665D01*
X256689Y83629D01*
X256758Y83590D01*
X256824Y83548D01*
X256889Y83503D01*
X256951Y83454D01*
X257011Y83402D01*
X257068Y83348D01*
X257122Y83291D01*
X257174Y83231D01*
X257223Y83169D01*
X257268Y83104D01*
X257310Y83038D01*
X257349Y82969D01*
X257385Y82899D01*
X257417Y82826D01*
X257445Y82753D01*
X257470Y82678D01*
X257491Y82602D01*
X257508Y82525D01*
X257522Y82447D01*
X257531Y82369D01*
X257537Y82290D01*
X257539Y82211D01*
X257537Y82132D01*
X257531Y82053D01*
X257522Y81975D01*
X257508Y81897D01*
X257491Y81820D01*
X257470Y81744D01*
X257445Y81669D01*
X257417Y81596D01*
X257385Y81523D01*
X257349Y81453D01*
X257310Y81384D01*
X257268Y81318D01*
X257223Y81253D01*
X257174Y81191D01*
X257122Y81131D01*
X257068Y81074D01*
X257011Y81020D01*
X256951Y80968D01*
X256889Y80919D01*
X256824Y80874D01*
X256758Y80832D01*
X256689Y80793D01*
X256619Y80757D01*
X256546Y80725D01*
X256473Y80697D01*
X256398Y80672D01*
X256322Y80651D01*
X256245Y80634D01*
X256167Y80620D01*
X256089Y80611D01*
X256010Y80605D01*
X255931Y80603D01*
X255852Y80605D01*
X255773Y80611D01*
X255695Y80620D01*
X255617Y80634D01*
X255540Y80651D01*
X255464Y80672D01*
X255389Y80697D01*
X255316Y80725D01*
X255243Y80757D01*
X255173Y80793D01*
X255104Y80832D01*
X255038Y80874D01*
X254973Y80919D01*
X254911Y80968D01*
X254851Y81020D01*
X254794Y81074D01*
X254740Y81131D01*
X254688Y81191D01*
X254639Y81253D01*
X254594Y81318D01*
X254552Y81384D01*
X254513Y81453D01*
X254477Y81523D01*
X254445Y81596D01*
X254417Y81669D01*
X254392Y81744D01*
X254371Y81820D01*
X254354Y81897D01*
X254340Y81975D01*
X254331Y82053D01*
X254325Y82132D01*
X254323Y82211D01*
X261121Y83015D02*
X261121Y83819D01*
X265142Y83819D01*
X263131Y76581D01*
X268321Y80602D02*
X270734Y80602D01*
X270813Y80600D01*
X270892Y80594D01*
X270970Y80585D01*
X271048Y80571D01*
X271125Y80554D01*
X271201Y80533D01*
X271276Y80508D01*
X271349Y80480D01*
X271422Y80448D01*
X271492Y80412D01*
X271561Y80373D01*
X271627Y80331D01*
X271692Y80286D01*
X271754Y80237D01*
X271814Y80185D01*
X271871Y80131D01*
X271925Y80074D01*
X271977Y80014D01*
X272026Y79952D01*
X272071Y79887D01*
X272113Y79821D01*
X272152Y79752D01*
X272188Y79682D01*
X272220Y79609D01*
X272248Y79536D01*
X272273Y79461D01*
X272294Y79385D01*
X272311Y79308D01*
X272325Y79230D01*
X272334Y79152D01*
X272340Y79073D01*
X272342Y78994D01*
X272342Y78592D01*
X272340Y78503D01*
X272334Y78414D01*
X272324Y78326D01*
X272311Y78238D01*
X272293Y78151D01*
X272272Y78064D01*
X272246Y77979D01*
X272217Y77895D01*
X272185Y77812D01*
X272148Y77731D01*
X272108Y77651D01*
X272065Y77574D01*
X272018Y77498D01*
X271968Y77424D01*
X271915Y77353D01*
X271859Y77284D01*
X271799Y77218D01*
X271737Y77154D01*
X271672Y77094D01*
X271605Y77036D01*
X271535Y76981D01*
X271462Y76929D01*
X271387Y76881D01*
X271311Y76836D01*
X271232Y76794D01*
X271152Y76756D01*
X271070Y76722D01*
X270986Y76691D01*
X270901Y76664D01*
X270816Y76640D01*
X270729Y76621D01*
X270641Y76605D01*
X270553Y76593D01*
X270464Y76585D01*
X270375Y76581D01*
X270287Y76581D01*
X270198Y76585D01*
X270109Y76593D01*
X270021Y76605D01*
X269933Y76621D01*
X269846Y76640D01*
X269761Y76664D01*
X269676Y76691D01*
X269592Y76722D01*
X269510Y76756D01*
X269430Y76794D01*
X269351Y76836D01*
X269275Y76881D01*
X269200Y76929D01*
X269127Y76981D01*
X269057Y77036D01*
X268990Y77094D01*
X268925Y77154D01*
X268863Y77218D01*
X268803Y77284D01*
X268747Y77353D01*
X268694Y77424D01*
X268644Y77498D01*
X268597Y77574D01*
X268554Y77651D01*
X268514Y77731D01*
X268477Y77812D01*
X268445Y77895D01*
X268416Y77979D01*
X268390Y78064D01*
X268369Y78151D01*
X268351Y78238D01*
X268338Y78326D01*
X268328Y78414D01*
X268322Y78503D01*
X268320Y78592D01*
X268321Y78592D02*
X268321Y80602D01*
X268323Y80714D01*
X268329Y80826D01*
X268339Y80938D01*
X268352Y81050D01*
X268370Y81161D01*
X268391Y81271D01*
X268417Y81380D01*
X268446Y81489D01*
X268478Y81596D01*
X268515Y81702D01*
X268555Y81807D01*
X268599Y81910D01*
X268647Y82012D01*
X268698Y82112D01*
X268752Y82210D01*
X268810Y82307D01*
X268871Y82401D01*
X268935Y82493D01*
X269003Y82583D01*
X269074Y82670D01*
X269147Y82755D01*
X269224Y82837D01*
X269303Y82916D01*
X269385Y82993D01*
X269470Y83066D01*
X269557Y83137D01*
X269647Y83205D01*
X269739Y83269D01*
X269833Y83330D01*
X269929Y83388D01*
X270028Y83442D01*
X270128Y83493D01*
X270230Y83541D01*
X270333Y83585D01*
X270438Y83625D01*
X270544Y83662D01*
X270651Y83694D01*
X270760Y83723D01*
X270869Y83749D01*
X270979Y83770D01*
X271090Y83788D01*
X271202Y83801D01*
X271314Y83811D01*
X271426Y83817D01*
X271538Y83819D01*
X277732Y83820D02*
X277816Y83818D01*
X277899Y83812D01*
X277982Y83803D01*
X278065Y83789D01*
X278146Y83772D01*
X278227Y83751D01*
X278307Y83726D01*
X278386Y83698D01*
X278463Y83666D01*
X278539Y83630D01*
X278613Y83591D01*
X278685Y83549D01*
X278755Y83503D01*
X278823Y83454D01*
X278888Y83402D01*
X278951Y83348D01*
X279012Y83290D01*
X279070Y83229D01*
X279124Y83166D01*
X279176Y83101D01*
X279225Y83033D01*
X279271Y82963D01*
X279313Y82891D01*
X279352Y82817D01*
X279388Y82741D01*
X279420Y82664D01*
X279448Y82585D01*
X279473Y82505D01*
X279494Y82424D01*
X279511Y82343D01*
X279525Y82260D01*
X279534Y82177D01*
X279540Y82094D01*
X279542Y82010D01*
X277732Y83819D02*
X277638Y83817D01*
X277544Y83811D01*
X277450Y83802D01*
X277356Y83788D01*
X277264Y83771D01*
X277172Y83750D01*
X277081Y83726D01*
X276991Y83698D01*
X276902Y83666D01*
X276814Y83630D01*
X276729Y83591D01*
X276644Y83549D01*
X276562Y83503D01*
X276481Y83454D01*
X276403Y83402D01*
X276327Y83346D01*
X276253Y83288D01*
X276181Y83226D01*
X276112Y83162D01*
X276046Y83095D01*
X275982Y83025D01*
X275922Y82953D01*
X275864Y82878D01*
X275809Y82801D01*
X275758Y82722D01*
X275710Y82641D01*
X275665Y82558D01*
X275623Y82474D01*
X275585Y82387D01*
X275551Y82299D01*
X275520Y82210D01*
X278939Y80602D02*
X279001Y80664D01*
X279060Y80728D01*
X279116Y80796D01*
X279169Y80865D01*
X279219Y80937D01*
X279266Y81011D01*
X279309Y81087D01*
X279349Y81165D01*
X279385Y81244D01*
X279417Y81325D01*
X279446Y81408D01*
X279472Y81492D01*
X279493Y81576D01*
X279511Y81662D01*
X279524Y81748D01*
X279534Y81835D01*
X279540Y81923D01*
X279542Y82010D01*
X278939Y80602D02*
X275521Y76581D01*
X279542Y76581D01*
D12*
X241427Y66373D02*
X241427Y63627D01*
X241427Y66373D02*
X242190Y66373D01*
X242244Y66371D01*
X242299Y66365D01*
X242352Y66356D01*
X242405Y66342D01*
X242457Y66325D01*
X242507Y66304D01*
X242556Y66280D01*
X242603Y66252D01*
X242647Y66221D01*
X242690Y66187D01*
X242730Y66150D01*
X242767Y66110D01*
X242801Y66067D01*
X242832Y66023D01*
X242860Y65976D01*
X242884Y65927D01*
X242905Y65877D01*
X242922Y65825D01*
X242936Y65772D01*
X242945Y65719D01*
X242951Y65664D01*
X242953Y65610D01*
X242953Y64390D01*
X242951Y64336D01*
X242945Y64281D01*
X242936Y64228D01*
X242922Y64175D01*
X242905Y64123D01*
X242884Y64073D01*
X242860Y64024D01*
X242832Y63977D01*
X242801Y63933D01*
X242767Y63890D01*
X242730Y63850D01*
X242690Y63813D01*
X242647Y63779D01*
X242603Y63748D01*
X242556Y63720D01*
X242507Y63696D01*
X242457Y63675D01*
X242405Y63658D01*
X242352Y63644D01*
X242299Y63635D01*
X242244Y63629D01*
X242190Y63627D01*
X241427Y63627D01*
X244647Y63627D02*
X245410Y63627D01*
X244647Y63627D02*
X244607Y63629D01*
X244567Y63634D01*
X244528Y63643D01*
X244490Y63655D01*
X244453Y63670D01*
X244418Y63688D01*
X244384Y63710D01*
X244353Y63734D01*
X244323Y63761D01*
X244296Y63791D01*
X244272Y63822D01*
X244250Y63856D01*
X244232Y63891D01*
X244217Y63928D01*
X244205Y63966D01*
X244196Y64005D01*
X244191Y64045D01*
X244189Y64085D01*
X244190Y64085D02*
X244190Y64847D01*
X244192Y64895D01*
X244198Y64942D01*
X244207Y64989D01*
X244220Y65036D01*
X244236Y65080D01*
X244256Y65124D01*
X244280Y65166D01*
X244306Y65206D01*
X244336Y65243D01*
X244369Y65278D01*
X244404Y65311D01*
X244441Y65341D01*
X244481Y65367D01*
X244523Y65391D01*
X244567Y65411D01*
X244611Y65427D01*
X244658Y65440D01*
X244705Y65449D01*
X244752Y65455D01*
X244800Y65457D01*
X244848Y65455D01*
X244895Y65449D01*
X244942Y65440D01*
X244989Y65427D01*
X245033Y65411D01*
X245077Y65391D01*
X245119Y65367D01*
X245159Y65341D01*
X245196Y65311D01*
X245231Y65278D01*
X245264Y65243D01*
X245294Y65206D01*
X245320Y65166D01*
X245344Y65124D01*
X245364Y65080D01*
X245380Y65036D01*
X245393Y64989D01*
X245402Y64942D01*
X245408Y64895D01*
X245410Y64847D01*
X245410Y64542D01*
X244190Y64542D01*
X246563Y64085D02*
X246563Y66373D01*
X246563Y64085D02*
X246565Y64045D01*
X246570Y64005D01*
X246579Y63966D01*
X246591Y63928D01*
X246606Y63891D01*
X246624Y63856D01*
X246646Y63822D01*
X246670Y63791D01*
X246697Y63761D01*
X246727Y63734D01*
X246758Y63710D01*
X246792Y63688D01*
X246827Y63670D01*
X246864Y63655D01*
X246902Y63643D01*
X246941Y63634D01*
X246981Y63629D01*
X247021Y63627D01*
X247740Y65458D02*
X248655Y65458D01*
X248045Y66373D02*
X248045Y64085D01*
X248044Y64085D02*
X248046Y64045D01*
X248051Y64005D01*
X248060Y63966D01*
X248072Y63928D01*
X248087Y63891D01*
X248105Y63856D01*
X248127Y63822D01*
X248151Y63791D01*
X248178Y63761D01*
X248208Y63734D01*
X248239Y63710D01*
X248273Y63688D01*
X248308Y63670D01*
X248345Y63655D01*
X248383Y63643D01*
X248422Y63634D01*
X248462Y63629D01*
X248502Y63627D01*
X248655Y63627D01*
X250199Y64695D02*
X250886Y64695D01*
X250199Y64695D02*
X250154Y64693D01*
X250109Y64687D01*
X250064Y64678D01*
X250021Y64664D01*
X249979Y64648D01*
X249939Y64627D01*
X249900Y64603D01*
X249864Y64576D01*
X249830Y64547D01*
X249798Y64514D01*
X249770Y64479D01*
X249744Y64441D01*
X249722Y64401D01*
X249704Y64360D01*
X249688Y64317D01*
X249677Y64274D01*
X249669Y64229D01*
X249665Y64184D01*
X249665Y64138D01*
X249669Y64093D01*
X249677Y64048D01*
X249688Y64005D01*
X249704Y63962D01*
X249722Y63921D01*
X249744Y63881D01*
X249770Y63843D01*
X249798Y63808D01*
X249830Y63775D01*
X249864Y63746D01*
X249900Y63719D01*
X249939Y63695D01*
X249979Y63674D01*
X250021Y63658D01*
X250064Y63644D01*
X250109Y63635D01*
X250154Y63629D01*
X250199Y63627D01*
X250886Y63627D01*
X250886Y65000D01*
X250884Y65040D01*
X250879Y65080D01*
X250870Y65119D01*
X250858Y65157D01*
X250843Y65194D01*
X250825Y65229D01*
X250803Y65263D01*
X250779Y65294D01*
X250752Y65324D01*
X250722Y65351D01*
X250691Y65375D01*
X250657Y65397D01*
X250622Y65415D01*
X250585Y65430D01*
X250547Y65442D01*
X250508Y65451D01*
X250468Y65456D01*
X250428Y65458D01*
X249818Y65458D01*
X252216Y65458D02*
X252216Y63627D01*
X252216Y65458D02*
X253131Y65458D01*
X253131Y65153D01*
X253980Y65458D02*
X253980Y63627D01*
X253903Y66220D02*
X253903Y66373D01*
X254056Y66373D01*
X254056Y66220D01*
X253903Y66220D01*
X255079Y64847D02*
X255079Y64237D01*
X255080Y64847D02*
X255082Y64895D01*
X255088Y64942D01*
X255097Y64989D01*
X255110Y65036D01*
X255126Y65080D01*
X255146Y65124D01*
X255170Y65166D01*
X255196Y65206D01*
X255226Y65243D01*
X255259Y65278D01*
X255294Y65311D01*
X255331Y65341D01*
X255371Y65367D01*
X255413Y65391D01*
X255457Y65411D01*
X255501Y65427D01*
X255548Y65440D01*
X255595Y65449D01*
X255642Y65455D01*
X255690Y65457D01*
X255738Y65455D01*
X255785Y65449D01*
X255832Y65440D01*
X255879Y65427D01*
X255923Y65411D01*
X255967Y65391D01*
X256009Y65367D01*
X256049Y65341D01*
X256086Y65311D01*
X256121Y65278D01*
X256154Y65243D01*
X256184Y65206D01*
X256210Y65166D01*
X256234Y65124D01*
X256254Y65080D01*
X256270Y65036D01*
X256283Y64989D01*
X256292Y64942D01*
X256298Y64895D01*
X256300Y64847D01*
X256300Y64237D01*
X256298Y64189D01*
X256292Y64142D01*
X256283Y64095D01*
X256270Y64048D01*
X256254Y64004D01*
X256234Y63960D01*
X256210Y63918D01*
X256184Y63878D01*
X256154Y63841D01*
X256121Y63806D01*
X256086Y63773D01*
X256049Y63743D01*
X256009Y63717D01*
X255967Y63693D01*
X255923Y63673D01*
X255879Y63657D01*
X255832Y63644D01*
X255785Y63635D01*
X255738Y63629D01*
X255690Y63627D01*
X255642Y63629D01*
X255595Y63635D01*
X255548Y63644D01*
X255501Y63657D01*
X255457Y63673D01*
X255413Y63693D01*
X255371Y63717D01*
X255331Y63743D01*
X255294Y63773D01*
X255259Y63806D01*
X255226Y63841D01*
X255196Y63878D01*
X255170Y63918D01*
X255146Y63960D01*
X255126Y64004D01*
X255110Y64048D01*
X255097Y64095D01*
X255088Y64142D01*
X255082Y64189D01*
X255080Y64237D01*
X257648Y64695D02*
X258411Y64390D01*
X257648Y64694D02*
X257612Y64711D01*
X257578Y64730D01*
X257547Y64754D01*
X257517Y64780D01*
X257491Y64809D01*
X257467Y64840D01*
X257447Y64873D01*
X257430Y64909D01*
X257416Y64946D01*
X257407Y64984D01*
X257401Y65022D01*
X257399Y65062D01*
X257401Y65101D01*
X257407Y65140D01*
X257416Y65178D01*
X257430Y65215D01*
X257446Y65250D01*
X257467Y65284D01*
X257490Y65315D01*
X257517Y65344D01*
X257546Y65370D01*
X257578Y65393D01*
X257612Y65413D01*
X257647Y65429D01*
X257684Y65442D01*
X257723Y65451D01*
X257761Y65457D01*
X257801Y65458D01*
X257879Y65455D01*
X257958Y65448D01*
X258036Y65438D01*
X258113Y65425D01*
X258190Y65408D01*
X258266Y65387D01*
X258341Y65363D01*
X258415Y65336D01*
X258487Y65305D01*
X258411Y64391D02*
X258447Y64374D01*
X258481Y64355D01*
X258512Y64331D01*
X258542Y64305D01*
X258568Y64276D01*
X258592Y64245D01*
X258612Y64212D01*
X258629Y64176D01*
X258643Y64139D01*
X258652Y64101D01*
X258658Y64063D01*
X258660Y64023D01*
X258658Y63984D01*
X258652Y63945D01*
X258643Y63907D01*
X258629Y63870D01*
X258613Y63835D01*
X258592Y63801D01*
X258569Y63770D01*
X258542Y63741D01*
X258513Y63715D01*
X258481Y63692D01*
X258447Y63672D01*
X258412Y63656D01*
X258375Y63643D01*
X258336Y63634D01*
X258298Y63628D01*
X258258Y63627D01*
X258163Y63630D01*
X258068Y63637D01*
X257973Y63647D01*
X257879Y63661D01*
X257785Y63678D01*
X257692Y63698D01*
X257600Y63722D01*
X257509Y63749D01*
X257419Y63780D01*
D13*
X203708Y24892D02*
X203708Y13208D01*
X203708Y24892D02*
X206954Y24892D01*
X207067Y24890D01*
X207180Y24884D01*
X207293Y24874D01*
X207406Y24860D01*
X207518Y24843D01*
X207629Y24821D01*
X207739Y24796D01*
X207849Y24766D01*
X207957Y24733D01*
X208064Y24696D01*
X208170Y24656D01*
X208274Y24611D01*
X208377Y24563D01*
X208478Y24512D01*
X208577Y24457D01*
X208674Y24399D01*
X208769Y24337D01*
X208862Y24272D01*
X208952Y24204D01*
X209040Y24133D01*
X209126Y24058D01*
X209209Y23981D01*
X209289Y23901D01*
X209366Y23818D01*
X209441Y23732D01*
X209512Y23644D01*
X209580Y23554D01*
X209645Y23461D01*
X209707Y23366D01*
X209765Y23269D01*
X209820Y23170D01*
X209871Y23069D01*
X209919Y22966D01*
X209964Y22862D01*
X210004Y22756D01*
X210041Y22649D01*
X210074Y22541D01*
X210104Y22431D01*
X210129Y22321D01*
X210151Y22210D01*
X210168Y22098D01*
X210182Y21985D01*
X210192Y21872D01*
X210198Y21759D01*
X210200Y21646D01*
X210199Y21646D02*
X210199Y16454D01*
X210200Y16454D02*
X210198Y16341D01*
X210192Y16228D01*
X210182Y16115D01*
X210168Y16002D01*
X210151Y15890D01*
X210129Y15779D01*
X210104Y15669D01*
X210074Y15559D01*
X210041Y15451D01*
X210004Y15344D01*
X209964Y15238D01*
X209919Y15134D01*
X209871Y15031D01*
X209820Y14930D01*
X209765Y14831D01*
X209707Y14734D01*
X209645Y14639D01*
X209580Y14546D01*
X209512Y14456D01*
X209441Y14368D01*
X209366Y14282D01*
X209289Y14199D01*
X209209Y14119D01*
X209126Y14042D01*
X209040Y13967D01*
X208952Y13896D01*
X208862Y13828D01*
X208769Y13763D01*
X208674Y13701D01*
X208577Y13643D01*
X208478Y13588D01*
X208377Y13537D01*
X208274Y13489D01*
X208170Y13444D01*
X208064Y13404D01*
X207957Y13367D01*
X207849Y13334D01*
X207739Y13304D01*
X207629Y13279D01*
X207518Y13257D01*
X207406Y13240D01*
X207293Y13226D01*
X207180Y13216D01*
X207067Y13210D01*
X206954Y13208D01*
X203708Y13208D01*
X215974Y13208D02*
X215974Y24892D01*
X219219Y24892D01*
X219332Y24890D01*
X219445Y24884D01*
X219558Y24874D01*
X219671Y24860D01*
X219783Y24843D01*
X219894Y24821D01*
X220004Y24796D01*
X220114Y24766D01*
X220222Y24733D01*
X220329Y24696D01*
X220435Y24656D01*
X220539Y24611D01*
X220642Y24563D01*
X220743Y24512D01*
X220842Y24457D01*
X220939Y24399D01*
X221034Y24337D01*
X221127Y24272D01*
X221217Y24204D01*
X221305Y24133D01*
X221391Y24058D01*
X221474Y23981D01*
X221554Y23901D01*
X221631Y23818D01*
X221706Y23732D01*
X221777Y23644D01*
X221845Y23554D01*
X221910Y23461D01*
X221972Y23366D01*
X222030Y23269D01*
X222085Y23170D01*
X222136Y23069D01*
X222184Y22966D01*
X222229Y22862D01*
X222269Y22756D01*
X222306Y22649D01*
X222339Y22541D01*
X222369Y22431D01*
X222394Y22321D01*
X222416Y22210D01*
X222433Y22098D01*
X222447Y21985D01*
X222457Y21872D01*
X222463Y21759D01*
X222465Y21646D01*
X222463Y21533D01*
X222457Y21420D01*
X222447Y21307D01*
X222433Y21194D01*
X222416Y21082D01*
X222394Y20971D01*
X222369Y20861D01*
X222339Y20751D01*
X222306Y20643D01*
X222269Y20536D01*
X222229Y20430D01*
X222184Y20326D01*
X222136Y20223D01*
X222085Y20122D01*
X222030Y20023D01*
X221972Y19926D01*
X221910Y19831D01*
X221845Y19738D01*
X221777Y19648D01*
X221706Y19560D01*
X221631Y19474D01*
X221554Y19391D01*
X221474Y19311D01*
X221391Y19234D01*
X221305Y19159D01*
X221217Y19088D01*
X221127Y19020D01*
X221034Y18955D01*
X220939Y18893D01*
X220842Y18835D01*
X220743Y18780D01*
X220642Y18729D01*
X220539Y18681D01*
X220435Y18636D01*
X220329Y18596D01*
X220222Y18559D01*
X220114Y18526D01*
X220004Y18496D01*
X219894Y18471D01*
X219783Y18449D01*
X219671Y18432D01*
X219558Y18418D01*
X219445Y18408D01*
X219332Y18402D01*
X219219Y18400D01*
X219219Y18401D02*
X215974Y18401D01*
X219868Y18401D02*
X222465Y13208D01*
X230576Y13208D02*
X226681Y24892D01*
X234470Y24892D02*
X230576Y13208D01*
X238759Y16454D02*
X238761Y16567D01*
X238767Y16680D01*
X238777Y16793D01*
X238791Y16906D01*
X238808Y17018D01*
X238830Y17129D01*
X238855Y17239D01*
X238885Y17349D01*
X238918Y17457D01*
X238955Y17564D01*
X238995Y17670D01*
X239040Y17774D01*
X239088Y17877D01*
X239139Y17978D01*
X239194Y18077D01*
X239252Y18174D01*
X239314Y18269D01*
X239379Y18362D01*
X239447Y18452D01*
X239518Y18540D01*
X239593Y18626D01*
X239670Y18709D01*
X239750Y18789D01*
X239833Y18866D01*
X239919Y18941D01*
X240007Y19012D01*
X240097Y19080D01*
X240190Y19145D01*
X240285Y19207D01*
X240382Y19265D01*
X240481Y19320D01*
X240582Y19371D01*
X240685Y19419D01*
X240789Y19464D01*
X240895Y19504D01*
X241002Y19541D01*
X241110Y19574D01*
X241220Y19604D01*
X241330Y19629D01*
X241441Y19651D01*
X241553Y19668D01*
X241666Y19682D01*
X241779Y19692D01*
X241892Y19698D01*
X242005Y19700D01*
X242118Y19698D01*
X242231Y19692D01*
X242344Y19682D01*
X242457Y19668D01*
X242569Y19651D01*
X242680Y19629D01*
X242790Y19604D01*
X242900Y19574D01*
X243008Y19541D01*
X243115Y19504D01*
X243221Y19464D01*
X243325Y19419D01*
X243428Y19371D01*
X243529Y19320D01*
X243628Y19265D01*
X243725Y19207D01*
X243820Y19145D01*
X243913Y19080D01*
X244003Y19012D01*
X244091Y18941D01*
X244177Y18866D01*
X244260Y18789D01*
X244340Y18709D01*
X244417Y18626D01*
X244492Y18540D01*
X244563Y18452D01*
X244631Y18362D01*
X244696Y18269D01*
X244758Y18174D01*
X244816Y18077D01*
X244871Y17978D01*
X244922Y17877D01*
X244970Y17774D01*
X245015Y17670D01*
X245055Y17564D01*
X245092Y17457D01*
X245125Y17349D01*
X245155Y17239D01*
X245180Y17129D01*
X245202Y17018D01*
X245219Y16906D01*
X245233Y16793D01*
X245243Y16680D01*
X245249Y16567D01*
X245251Y16454D01*
X245249Y16341D01*
X245243Y16228D01*
X245233Y16115D01*
X245219Y16002D01*
X245202Y15890D01*
X245180Y15779D01*
X245155Y15669D01*
X245125Y15559D01*
X245092Y15451D01*
X245055Y15344D01*
X245015Y15238D01*
X244970Y15134D01*
X244922Y15031D01*
X244871Y14930D01*
X244816Y14831D01*
X244758Y14734D01*
X244696Y14639D01*
X244631Y14546D01*
X244563Y14456D01*
X244492Y14368D01*
X244417Y14282D01*
X244340Y14199D01*
X244260Y14119D01*
X244177Y14042D01*
X244091Y13967D01*
X244003Y13896D01*
X243913Y13828D01*
X243820Y13763D01*
X243725Y13701D01*
X243628Y13643D01*
X243529Y13588D01*
X243428Y13537D01*
X243325Y13489D01*
X243221Y13444D01*
X243115Y13404D01*
X243008Y13367D01*
X242900Y13334D01*
X242790Y13304D01*
X242680Y13279D01*
X242569Y13257D01*
X242457Y13240D01*
X242344Y13226D01*
X242231Y13216D01*
X242118Y13210D01*
X242005Y13208D01*
X241892Y13210D01*
X241779Y13216D01*
X241666Y13226D01*
X241553Y13240D01*
X241441Y13257D01*
X241330Y13279D01*
X241220Y13304D01*
X241110Y13334D01*
X241002Y13367D01*
X240895Y13404D01*
X240789Y13444D01*
X240685Y13489D01*
X240582Y13537D01*
X240481Y13588D01*
X240382Y13643D01*
X240285Y13701D01*
X240190Y13763D01*
X240097Y13828D01*
X240007Y13896D01*
X239919Y13967D01*
X239833Y14042D01*
X239750Y14119D01*
X239670Y14199D01*
X239593Y14282D01*
X239518Y14368D01*
X239447Y14456D01*
X239379Y14546D01*
X239314Y14639D01*
X239252Y14734D01*
X239194Y14831D01*
X239139Y14930D01*
X239088Y15031D01*
X239040Y15134D01*
X238995Y15238D01*
X238955Y15344D01*
X238918Y15451D01*
X238885Y15559D01*
X238855Y15669D01*
X238830Y15779D01*
X238808Y15890D01*
X238791Y16002D01*
X238777Y16115D01*
X238767Y16228D01*
X238761Y16341D01*
X238759Y16454D01*
X239409Y22296D02*
X239411Y22397D01*
X239417Y22497D01*
X239427Y22597D01*
X239440Y22697D01*
X239458Y22796D01*
X239479Y22895D01*
X239504Y22992D01*
X239533Y23089D01*
X239566Y23184D01*
X239602Y23278D01*
X239642Y23370D01*
X239685Y23461D01*
X239732Y23550D01*
X239782Y23637D01*
X239836Y23723D01*
X239893Y23806D01*
X239953Y23886D01*
X240016Y23965D01*
X240083Y24041D01*
X240152Y24114D01*
X240224Y24184D01*
X240298Y24252D01*
X240375Y24317D01*
X240455Y24378D01*
X240537Y24437D01*
X240621Y24492D01*
X240707Y24544D01*
X240795Y24593D01*
X240885Y24638D01*
X240977Y24680D01*
X241070Y24718D01*
X241165Y24752D01*
X241260Y24783D01*
X241357Y24810D01*
X241455Y24833D01*
X241554Y24853D01*
X241654Y24868D01*
X241754Y24880D01*
X241854Y24888D01*
X241955Y24892D01*
X242055Y24892D01*
X242156Y24888D01*
X242256Y24880D01*
X242356Y24868D01*
X242456Y24853D01*
X242555Y24833D01*
X242653Y24810D01*
X242750Y24783D01*
X242845Y24752D01*
X242940Y24718D01*
X243033Y24680D01*
X243125Y24638D01*
X243215Y24593D01*
X243303Y24544D01*
X243389Y24492D01*
X243473Y24437D01*
X243555Y24378D01*
X243635Y24317D01*
X243712Y24252D01*
X243786Y24184D01*
X243858Y24114D01*
X243927Y24041D01*
X243994Y23965D01*
X244057Y23886D01*
X244117Y23806D01*
X244174Y23723D01*
X244228Y23637D01*
X244278Y23550D01*
X244325Y23461D01*
X244368Y23370D01*
X244408Y23278D01*
X244444Y23184D01*
X244477Y23089D01*
X244506Y22992D01*
X244531Y22895D01*
X244552Y22796D01*
X244570Y22697D01*
X244583Y22597D01*
X244593Y22497D01*
X244599Y22397D01*
X244601Y22296D01*
X244599Y22195D01*
X244593Y22095D01*
X244583Y21995D01*
X244570Y21895D01*
X244552Y21796D01*
X244531Y21697D01*
X244506Y21600D01*
X244477Y21503D01*
X244444Y21408D01*
X244408Y21314D01*
X244368Y21222D01*
X244325Y21131D01*
X244278Y21042D01*
X244228Y20955D01*
X244174Y20869D01*
X244117Y20786D01*
X244057Y20706D01*
X243994Y20627D01*
X243927Y20551D01*
X243858Y20478D01*
X243786Y20408D01*
X243712Y20340D01*
X243635Y20275D01*
X243555Y20214D01*
X243473Y20155D01*
X243389Y20100D01*
X243303Y20048D01*
X243215Y19999D01*
X243125Y19954D01*
X243033Y19912D01*
X242940Y19874D01*
X242845Y19840D01*
X242750Y19809D01*
X242653Y19782D01*
X242555Y19759D01*
X242456Y19739D01*
X242356Y19724D01*
X242256Y19712D01*
X242156Y19704D01*
X242055Y19700D01*
X241955Y19700D01*
X241854Y19704D01*
X241754Y19712D01*
X241654Y19724D01*
X241554Y19739D01*
X241455Y19759D01*
X241357Y19782D01*
X241260Y19809D01*
X241165Y19840D01*
X241070Y19874D01*
X240977Y19912D01*
X240885Y19954D01*
X240795Y19999D01*
X240707Y20048D01*
X240621Y20100D01*
X240537Y20155D01*
X240455Y20214D01*
X240375Y20275D01*
X240298Y20340D01*
X240224Y20408D01*
X240152Y20478D01*
X240083Y20551D01*
X240016Y20627D01*
X239953Y20706D01*
X239893Y20786D01*
X239836Y20869D01*
X239782Y20955D01*
X239732Y21042D01*
X239685Y21131D01*
X239642Y21222D01*
X239602Y21314D01*
X239566Y21408D01*
X239533Y21503D01*
X239504Y21600D01*
X239479Y21697D01*
X239458Y21796D01*
X239440Y21895D01*
X239427Y21995D01*
X239417Y22095D01*
X239411Y22195D01*
X239409Y22296D01*
X250189Y16454D02*
X250191Y16567D01*
X250197Y16680D01*
X250207Y16793D01*
X250221Y16906D01*
X250238Y17018D01*
X250260Y17129D01*
X250285Y17239D01*
X250315Y17349D01*
X250348Y17457D01*
X250385Y17564D01*
X250425Y17670D01*
X250470Y17774D01*
X250518Y17877D01*
X250569Y17978D01*
X250624Y18077D01*
X250682Y18174D01*
X250744Y18269D01*
X250809Y18362D01*
X250877Y18452D01*
X250948Y18540D01*
X251023Y18626D01*
X251100Y18709D01*
X251180Y18789D01*
X251263Y18866D01*
X251349Y18941D01*
X251437Y19012D01*
X251527Y19080D01*
X251620Y19145D01*
X251715Y19207D01*
X251812Y19265D01*
X251911Y19320D01*
X252012Y19371D01*
X252115Y19419D01*
X252219Y19464D01*
X252325Y19504D01*
X252432Y19541D01*
X252540Y19574D01*
X252650Y19604D01*
X252760Y19629D01*
X252871Y19651D01*
X252983Y19668D01*
X253096Y19682D01*
X253209Y19692D01*
X253322Y19698D01*
X253435Y19700D01*
X253548Y19698D01*
X253661Y19692D01*
X253774Y19682D01*
X253887Y19668D01*
X253999Y19651D01*
X254110Y19629D01*
X254220Y19604D01*
X254330Y19574D01*
X254438Y19541D01*
X254545Y19504D01*
X254651Y19464D01*
X254755Y19419D01*
X254858Y19371D01*
X254959Y19320D01*
X255058Y19265D01*
X255155Y19207D01*
X255250Y19145D01*
X255343Y19080D01*
X255433Y19012D01*
X255521Y18941D01*
X255607Y18866D01*
X255690Y18789D01*
X255770Y18709D01*
X255847Y18626D01*
X255922Y18540D01*
X255993Y18452D01*
X256061Y18362D01*
X256126Y18269D01*
X256188Y18174D01*
X256246Y18077D01*
X256301Y17978D01*
X256352Y17877D01*
X256400Y17774D01*
X256445Y17670D01*
X256485Y17564D01*
X256522Y17457D01*
X256555Y17349D01*
X256585Y17239D01*
X256610Y17129D01*
X256632Y17018D01*
X256649Y16906D01*
X256663Y16793D01*
X256673Y16680D01*
X256679Y16567D01*
X256681Y16454D01*
X256679Y16341D01*
X256673Y16228D01*
X256663Y16115D01*
X256649Y16002D01*
X256632Y15890D01*
X256610Y15779D01*
X256585Y15669D01*
X256555Y15559D01*
X256522Y15451D01*
X256485Y15344D01*
X256445Y15238D01*
X256400Y15134D01*
X256352Y15031D01*
X256301Y14930D01*
X256246Y14831D01*
X256188Y14734D01*
X256126Y14639D01*
X256061Y14546D01*
X255993Y14456D01*
X255922Y14368D01*
X255847Y14282D01*
X255770Y14199D01*
X255690Y14119D01*
X255607Y14042D01*
X255521Y13967D01*
X255433Y13896D01*
X255343Y13828D01*
X255250Y13763D01*
X255155Y13701D01*
X255058Y13643D01*
X254959Y13588D01*
X254858Y13537D01*
X254755Y13489D01*
X254651Y13444D01*
X254545Y13404D01*
X254438Y13367D01*
X254330Y13334D01*
X254220Y13304D01*
X254110Y13279D01*
X253999Y13257D01*
X253887Y13240D01*
X253774Y13226D01*
X253661Y13216D01*
X253548Y13210D01*
X253435Y13208D01*
X253322Y13210D01*
X253209Y13216D01*
X253096Y13226D01*
X252983Y13240D01*
X252871Y13257D01*
X252760Y13279D01*
X252650Y13304D01*
X252540Y13334D01*
X252432Y13367D01*
X252325Y13404D01*
X252219Y13444D01*
X252115Y13489D01*
X252012Y13537D01*
X251911Y13588D01*
X251812Y13643D01*
X251715Y13701D01*
X251620Y13763D01*
X251527Y13828D01*
X251437Y13896D01*
X251349Y13967D01*
X251263Y14042D01*
X251180Y14119D01*
X251100Y14199D01*
X251023Y14282D01*
X250948Y14368D01*
X250877Y14456D01*
X250809Y14546D01*
X250744Y14639D01*
X250682Y14734D01*
X250624Y14831D01*
X250569Y14930D01*
X250518Y15031D01*
X250470Y15134D01*
X250425Y15238D01*
X250385Y15344D01*
X250348Y15451D01*
X250315Y15559D01*
X250285Y15669D01*
X250260Y15779D01*
X250238Y15890D01*
X250221Y16002D01*
X250207Y16115D01*
X250197Y16228D01*
X250191Y16341D01*
X250189Y16454D01*
X250839Y22296D02*
X250841Y22397D01*
X250847Y22497D01*
X250857Y22597D01*
X250870Y22697D01*
X250888Y22796D01*
X250909Y22895D01*
X250934Y22992D01*
X250963Y23089D01*
X250996Y23184D01*
X251032Y23278D01*
X251072Y23370D01*
X251115Y23461D01*
X251162Y23550D01*
X251212Y23637D01*
X251266Y23723D01*
X251323Y23806D01*
X251383Y23886D01*
X251446Y23965D01*
X251513Y24041D01*
X251582Y24114D01*
X251654Y24184D01*
X251728Y24252D01*
X251805Y24317D01*
X251885Y24378D01*
X251967Y24437D01*
X252051Y24492D01*
X252137Y24544D01*
X252225Y24593D01*
X252315Y24638D01*
X252407Y24680D01*
X252500Y24718D01*
X252595Y24752D01*
X252690Y24783D01*
X252787Y24810D01*
X252885Y24833D01*
X252984Y24853D01*
X253084Y24868D01*
X253184Y24880D01*
X253284Y24888D01*
X253385Y24892D01*
X253485Y24892D01*
X253586Y24888D01*
X253686Y24880D01*
X253786Y24868D01*
X253886Y24853D01*
X253985Y24833D01*
X254083Y24810D01*
X254180Y24783D01*
X254275Y24752D01*
X254370Y24718D01*
X254463Y24680D01*
X254555Y24638D01*
X254645Y24593D01*
X254733Y24544D01*
X254819Y24492D01*
X254903Y24437D01*
X254985Y24378D01*
X255065Y24317D01*
X255142Y24252D01*
X255216Y24184D01*
X255288Y24114D01*
X255357Y24041D01*
X255424Y23965D01*
X255487Y23886D01*
X255547Y23806D01*
X255604Y23723D01*
X255658Y23637D01*
X255708Y23550D01*
X255755Y23461D01*
X255798Y23370D01*
X255838Y23278D01*
X255874Y23184D01*
X255907Y23089D01*
X255936Y22992D01*
X255961Y22895D01*
X255982Y22796D01*
X256000Y22697D01*
X256013Y22597D01*
X256023Y22497D01*
X256029Y22397D01*
X256031Y22296D01*
X256029Y22195D01*
X256023Y22095D01*
X256013Y21995D01*
X256000Y21895D01*
X255982Y21796D01*
X255961Y21697D01*
X255936Y21600D01*
X255907Y21503D01*
X255874Y21408D01*
X255838Y21314D01*
X255798Y21222D01*
X255755Y21131D01*
X255708Y21042D01*
X255658Y20955D01*
X255604Y20869D01*
X255547Y20786D01*
X255487Y20706D01*
X255424Y20627D01*
X255357Y20551D01*
X255288Y20478D01*
X255216Y20408D01*
X255142Y20340D01*
X255065Y20275D01*
X254985Y20214D01*
X254903Y20155D01*
X254819Y20100D01*
X254733Y20048D01*
X254645Y19999D01*
X254555Y19954D01*
X254463Y19912D01*
X254370Y19874D01*
X254275Y19840D01*
X254180Y19809D01*
X254083Y19782D01*
X253985Y19759D01*
X253886Y19739D01*
X253786Y19724D01*
X253686Y19712D01*
X253586Y19704D01*
X253485Y19700D01*
X253385Y19700D01*
X253284Y19704D01*
X253184Y19712D01*
X253084Y19724D01*
X252984Y19739D01*
X252885Y19759D01*
X252787Y19782D01*
X252690Y19809D01*
X252595Y19840D01*
X252500Y19874D01*
X252407Y19912D01*
X252315Y19954D01*
X252225Y19999D01*
X252137Y20048D01*
X252051Y20100D01*
X251967Y20155D01*
X251885Y20214D01*
X251805Y20275D01*
X251728Y20340D01*
X251654Y20408D01*
X251582Y20478D01*
X251513Y20551D01*
X251446Y20627D01*
X251383Y20706D01*
X251323Y20786D01*
X251266Y20869D01*
X251212Y20955D01*
X251162Y21042D01*
X251115Y21131D01*
X251072Y21222D01*
X251032Y21314D01*
X250996Y21408D01*
X250963Y21503D01*
X250934Y21600D01*
X250909Y21697D01*
X250888Y21796D01*
X250870Y21895D01*
X250857Y21995D01*
X250847Y22095D01*
X250841Y22195D01*
X250839Y22296D01*
X261620Y13208D02*
X264865Y13208D01*
X264978Y13210D01*
X265091Y13216D01*
X265204Y13226D01*
X265317Y13240D01*
X265429Y13257D01*
X265540Y13279D01*
X265650Y13304D01*
X265760Y13334D01*
X265868Y13367D01*
X265975Y13404D01*
X266081Y13444D01*
X266185Y13489D01*
X266288Y13537D01*
X266389Y13588D01*
X266488Y13643D01*
X266585Y13701D01*
X266680Y13763D01*
X266773Y13828D01*
X266863Y13896D01*
X266951Y13967D01*
X267037Y14042D01*
X267120Y14119D01*
X267200Y14199D01*
X267277Y14282D01*
X267352Y14368D01*
X267423Y14456D01*
X267491Y14546D01*
X267556Y14639D01*
X267618Y14734D01*
X267676Y14831D01*
X267731Y14930D01*
X267782Y15031D01*
X267830Y15134D01*
X267875Y15238D01*
X267915Y15344D01*
X267952Y15451D01*
X267985Y15559D01*
X268015Y15669D01*
X268040Y15779D01*
X268062Y15890D01*
X268079Y16002D01*
X268093Y16115D01*
X268103Y16228D01*
X268109Y16341D01*
X268111Y16454D01*
X268109Y16567D01*
X268103Y16680D01*
X268093Y16793D01*
X268079Y16906D01*
X268062Y17018D01*
X268040Y17129D01*
X268015Y17239D01*
X267985Y17349D01*
X267952Y17457D01*
X267915Y17564D01*
X267875Y17670D01*
X267830Y17774D01*
X267782Y17877D01*
X267731Y17978D01*
X267676Y18077D01*
X267618Y18174D01*
X267556Y18269D01*
X267491Y18362D01*
X267423Y18452D01*
X267352Y18540D01*
X267277Y18626D01*
X267200Y18709D01*
X267120Y18789D01*
X267037Y18866D01*
X266951Y18941D01*
X266863Y19012D01*
X266773Y19080D01*
X266680Y19145D01*
X266585Y19207D01*
X266488Y19265D01*
X266389Y19320D01*
X266288Y19371D01*
X266185Y19419D01*
X266081Y19464D01*
X265975Y19504D01*
X265868Y19541D01*
X265760Y19574D01*
X265650Y19604D01*
X265540Y19629D01*
X265429Y19651D01*
X265317Y19668D01*
X265204Y19682D01*
X265091Y19692D01*
X264978Y19698D01*
X264865Y19700D01*
X265515Y24892D02*
X261620Y24892D01*
X265515Y24892D02*
X265616Y24890D01*
X265716Y24884D01*
X265816Y24874D01*
X265916Y24861D01*
X266015Y24843D01*
X266114Y24822D01*
X266211Y24797D01*
X266308Y24768D01*
X266403Y24735D01*
X266497Y24699D01*
X266589Y24659D01*
X266680Y24616D01*
X266769Y24569D01*
X266856Y24519D01*
X266942Y24465D01*
X267025Y24408D01*
X267105Y24348D01*
X267184Y24285D01*
X267260Y24218D01*
X267333Y24149D01*
X267403Y24077D01*
X267471Y24003D01*
X267536Y23926D01*
X267597Y23846D01*
X267656Y23764D01*
X267711Y23680D01*
X267763Y23594D01*
X267812Y23506D01*
X267857Y23416D01*
X267899Y23324D01*
X267937Y23231D01*
X267971Y23136D01*
X268002Y23041D01*
X268029Y22944D01*
X268052Y22846D01*
X268072Y22747D01*
X268087Y22647D01*
X268099Y22547D01*
X268107Y22447D01*
X268111Y22346D01*
X268111Y22246D01*
X268107Y22145D01*
X268099Y22045D01*
X268087Y21945D01*
X268072Y21845D01*
X268052Y21746D01*
X268029Y21648D01*
X268002Y21551D01*
X267971Y21456D01*
X267937Y21361D01*
X267899Y21268D01*
X267857Y21176D01*
X267812Y21086D01*
X267763Y20998D01*
X267711Y20912D01*
X267656Y20828D01*
X267597Y20746D01*
X267536Y20666D01*
X267471Y20589D01*
X267403Y20515D01*
X267333Y20443D01*
X267260Y20374D01*
X267184Y20307D01*
X267105Y20244D01*
X267025Y20184D01*
X266942Y20127D01*
X266856Y20073D01*
X266769Y20023D01*
X266680Y19976D01*
X266589Y19933D01*
X266497Y19893D01*
X266403Y19857D01*
X266308Y19824D01*
X266211Y19795D01*
X266114Y19770D01*
X266015Y19749D01*
X265916Y19731D01*
X265816Y19718D01*
X265716Y19708D01*
X265616Y19702D01*
X265515Y19700D01*
X265515Y19699D02*
X262918Y19699D01*
X273050Y13208D02*
X276295Y13208D01*
X276408Y13210D01*
X276521Y13216D01*
X276634Y13226D01*
X276747Y13240D01*
X276859Y13257D01*
X276970Y13279D01*
X277080Y13304D01*
X277190Y13334D01*
X277298Y13367D01*
X277405Y13404D01*
X277511Y13444D01*
X277615Y13489D01*
X277718Y13537D01*
X277819Y13588D01*
X277918Y13643D01*
X278015Y13701D01*
X278110Y13763D01*
X278203Y13828D01*
X278293Y13896D01*
X278381Y13967D01*
X278467Y14042D01*
X278550Y14119D01*
X278630Y14199D01*
X278707Y14282D01*
X278782Y14368D01*
X278853Y14456D01*
X278921Y14546D01*
X278986Y14639D01*
X279048Y14734D01*
X279106Y14831D01*
X279161Y14930D01*
X279212Y15031D01*
X279260Y15134D01*
X279305Y15238D01*
X279345Y15344D01*
X279382Y15451D01*
X279415Y15559D01*
X279445Y15669D01*
X279470Y15779D01*
X279492Y15890D01*
X279509Y16002D01*
X279523Y16115D01*
X279533Y16228D01*
X279539Y16341D01*
X279541Y16454D01*
X279539Y16567D01*
X279533Y16680D01*
X279523Y16793D01*
X279509Y16906D01*
X279492Y17018D01*
X279470Y17129D01*
X279445Y17239D01*
X279415Y17349D01*
X279382Y17457D01*
X279345Y17564D01*
X279305Y17670D01*
X279260Y17774D01*
X279212Y17877D01*
X279161Y17978D01*
X279106Y18077D01*
X279048Y18174D01*
X278986Y18269D01*
X278921Y18362D01*
X278853Y18452D01*
X278782Y18540D01*
X278707Y18626D01*
X278630Y18709D01*
X278550Y18789D01*
X278467Y18866D01*
X278381Y18941D01*
X278293Y19012D01*
X278203Y19080D01*
X278110Y19145D01*
X278015Y19207D01*
X277918Y19265D01*
X277819Y19320D01*
X277718Y19371D01*
X277615Y19419D01*
X277511Y19464D01*
X277405Y19504D01*
X277298Y19541D01*
X277190Y19574D01*
X277080Y19604D01*
X276970Y19629D01*
X276859Y19651D01*
X276747Y19668D01*
X276634Y19682D01*
X276521Y19692D01*
X276408Y19698D01*
X276295Y19700D01*
X276945Y24892D02*
X273050Y24892D01*
X276945Y24892D02*
X277046Y24890D01*
X277146Y24884D01*
X277246Y24874D01*
X277346Y24861D01*
X277445Y24843D01*
X277544Y24822D01*
X277641Y24797D01*
X277738Y24768D01*
X277833Y24735D01*
X277927Y24699D01*
X278019Y24659D01*
X278110Y24616D01*
X278199Y24569D01*
X278286Y24519D01*
X278372Y24465D01*
X278455Y24408D01*
X278535Y24348D01*
X278614Y24285D01*
X278690Y24218D01*
X278763Y24149D01*
X278833Y24077D01*
X278901Y24003D01*
X278966Y23926D01*
X279027Y23846D01*
X279086Y23764D01*
X279141Y23680D01*
X279193Y23594D01*
X279242Y23506D01*
X279287Y23416D01*
X279329Y23324D01*
X279367Y23231D01*
X279401Y23136D01*
X279432Y23041D01*
X279459Y22944D01*
X279482Y22846D01*
X279502Y22747D01*
X279517Y22647D01*
X279529Y22547D01*
X279537Y22447D01*
X279541Y22346D01*
X279541Y22246D01*
X279537Y22145D01*
X279529Y22045D01*
X279517Y21945D01*
X279502Y21845D01*
X279482Y21746D01*
X279459Y21648D01*
X279432Y21551D01*
X279401Y21456D01*
X279367Y21361D01*
X279329Y21268D01*
X279287Y21176D01*
X279242Y21086D01*
X279193Y20998D01*
X279141Y20912D01*
X279086Y20828D01*
X279027Y20746D01*
X278966Y20666D01*
X278901Y20589D01*
X278833Y20515D01*
X278763Y20443D01*
X278690Y20374D01*
X278614Y20307D01*
X278535Y20244D01*
X278455Y20184D01*
X278372Y20127D01*
X278286Y20073D01*
X278199Y20023D01*
X278110Y19976D01*
X278019Y19933D01*
X277927Y19893D01*
X277833Y19857D01*
X277738Y19824D01*
X277641Y19795D01*
X277544Y19770D01*
X277445Y19749D01*
X277346Y19731D01*
X277246Y19718D01*
X277146Y19708D01*
X277046Y19702D01*
X276945Y19700D01*
X276945Y19699D02*
X274348Y19699D01*
D14*
X558800Y339090D02*
X558800Y341630D01*
X558800Y339090D02*
X547370Y339090D01*
X547370Y332740D01*
X570230Y332740D01*
X570230Y339090D01*
X558800Y339090D01*
X558800Y323850D02*
X558800Y318770D01*
X567690Y368300D02*
X575310Y368300D01*
X571500Y364490D02*
X571500Y372110D01*
X508000Y330200D02*
X508015Y331447D01*
X508061Y332693D01*
X508138Y333937D01*
X508245Y335179D01*
X508382Y336418D01*
X508550Y337654D01*
X508748Y338885D01*
X508976Y340111D01*
X509234Y341330D01*
X509522Y342543D01*
X509840Y343749D01*
X510187Y344946D01*
X510564Y346135D01*
X510970Y347314D01*
X511404Y348483D01*
X511867Y349640D01*
X512358Y350786D01*
X512877Y351920D01*
X513424Y353040D01*
X513998Y354147D01*
X514600Y355239D01*
X515227Y356316D01*
X515881Y357378D01*
X516561Y358423D01*
X517267Y359451D01*
X517997Y360462D01*
X518752Y361454D01*
X519531Y362427D01*
X520334Y363381D01*
X521160Y364315D01*
X522008Y365229D01*
X522879Y366121D01*
X523771Y366992D01*
X524685Y367840D01*
X525619Y368666D01*
X526573Y369469D01*
X527546Y370248D01*
X528538Y371003D01*
X529549Y371733D01*
X530577Y372439D01*
X531622Y373119D01*
X532684Y373773D01*
X533761Y374400D01*
X534853Y375002D01*
X535960Y375576D01*
X537080Y376123D01*
X538214Y376642D01*
X539360Y377133D01*
X540517Y377596D01*
X541686Y378030D01*
X542865Y378436D01*
X544054Y378813D01*
X545251Y379160D01*
X546457Y379478D01*
X547670Y379766D01*
X548889Y380024D01*
X550115Y380252D01*
X551346Y380450D01*
X552582Y380618D01*
X553821Y380755D01*
X555063Y380862D01*
X556307Y380939D01*
X557553Y380985D01*
X558800Y381000D01*
X560047Y380985D01*
X561293Y380939D01*
X562537Y380862D01*
X563779Y380755D01*
X565018Y380618D01*
X566254Y380450D01*
X567485Y380252D01*
X568711Y380024D01*
X569930Y379766D01*
X571143Y379478D01*
X572349Y379160D01*
X573546Y378813D01*
X574735Y378436D01*
X575914Y378030D01*
X577083Y377596D01*
X578240Y377133D01*
X579386Y376642D01*
X580520Y376123D01*
X581640Y375576D01*
X582747Y375002D01*
X583839Y374400D01*
X584916Y373773D01*
X585978Y373119D01*
X587023Y372439D01*
X588051Y371733D01*
X589062Y371003D01*
X590054Y370248D01*
X591027Y369469D01*
X591981Y368666D01*
X592915Y367840D01*
X593829Y366992D01*
X594721Y366121D01*
X595592Y365229D01*
X596440Y364315D01*
X597266Y363381D01*
X598069Y362427D01*
X598848Y361454D01*
X599603Y360462D01*
X600333Y359451D01*
X601039Y358423D01*
X601719Y357378D01*
X602373Y356316D01*
X603000Y355239D01*
X603602Y354147D01*
X604176Y353040D01*
X604723Y351920D01*
X605242Y350786D01*
X605733Y349640D01*
X606196Y348483D01*
X606630Y347314D01*
X607036Y346135D01*
X607413Y344946D01*
X607760Y343749D01*
X608078Y342543D01*
X608366Y341330D01*
X608624Y340111D01*
X608852Y338885D01*
X609050Y337654D01*
X609218Y336418D01*
X609355Y335179D01*
X609462Y333937D01*
X609539Y332693D01*
X609585Y331447D01*
X609600Y330200D01*
X609585Y328953D01*
X609539Y327707D01*
X609462Y326463D01*
X609355Y325221D01*
X609218Y323982D01*
X609050Y322746D01*
X608852Y321515D01*
X608624Y320289D01*
X608366Y319070D01*
X608078Y317857D01*
X607760Y316651D01*
X607413Y315454D01*
X607036Y314265D01*
X606630Y313086D01*
X606196Y311917D01*
X605733Y310760D01*
X605242Y309614D01*
X604723Y308480D01*
X604176Y307360D01*
X603602Y306253D01*
X603000Y305161D01*
X602373Y304084D01*
X601719Y303022D01*
X601039Y301977D01*
X600333Y300949D01*
X599603Y299938D01*
X598848Y298946D01*
X598069Y297973D01*
X597266Y297019D01*
X596440Y296085D01*
X595592Y295171D01*
X594721Y294279D01*
X593829Y293408D01*
X592915Y292560D01*
X591981Y291734D01*
X591027Y290931D01*
X590054Y290152D01*
X589062Y289397D01*
X588051Y288667D01*
X587023Y287961D01*
X585978Y287281D01*
X584916Y286627D01*
X583839Y286000D01*
X582747Y285398D01*
X581640Y284824D01*
X580520Y284277D01*
X579386Y283758D01*
X578240Y283267D01*
X577083Y282804D01*
X575914Y282370D01*
X574735Y281964D01*
X573546Y281587D01*
X572349Y281240D01*
X571143Y280922D01*
X569930Y280634D01*
X568711Y280376D01*
X567485Y280148D01*
X566254Y279950D01*
X565018Y279782D01*
X563779Y279645D01*
X562537Y279538D01*
X561293Y279461D01*
X560047Y279415D01*
X558800Y279400D01*
X557553Y279415D01*
X556307Y279461D01*
X555063Y279538D01*
X553821Y279645D01*
X552582Y279782D01*
X551346Y279950D01*
X550115Y280148D01*
X548889Y280376D01*
X547670Y280634D01*
X546457Y280922D01*
X545251Y281240D01*
X544054Y281587D01*
X542865Y281964D01*
X541686Y282370D01*
X540517Y282804D01*
X539360Y283267D01*
X538214Y283758D01*
X537080Y284277D01*
X535960Y284824D01*
X534853Y285398D01*
X533761Y286000D01*
X532684Y286627D01*
X531622Y287281D01*
X530577Y287961D01*
X529549Y288667D01*
X528538Y289397D01*
X527546Y290152D01*
X526573Y290931D01*
X525619Y291734D01*
X524685Y292560D01*
X523771Y293408D01*
X522879Y294279D01*
X522008Y295171D01*
X521160Y296085D01*
X520334Y297019D01*
X519531Y297973D01*
X518752Y298946D01*
X517997Y299938D01*
X517267Y300949D01*
X516561Y301977D01*
X515881Y303022D01*
X515227Y304084D01*
X514600Y305161D01*
X513998Y306253D01*
X513424Y307360D01*
X512877Y308480D01*
X512358Y309614D01*
X511867Y310760D01*
X511404Y311917D01*
X510970Y313086D01*
X510564Y314265D01*
X510187Y315454D01*
X509840Y316651D01*
X509522Y317857D01*
X509234Y319070D01*
X508976Y320289D01*
X508748Y321515D01*
X508550Y322746D01*
X508382Y323982D01*
X508245Y325221D01*
X508138Y326463D01*
X508061Y327707D01*
X508015Y328953D01*
X508000Y330200D01*
D15*
X558800Y324485D03*
D10*
X598297Y271743D02*
X598297Y269203D01*
X598295Y269103D01*
X598289Y269004D01*
X598279Y268904D01*
X598266Y268806D01*
X598248Y268707D01*
X598227Y268610D01*
X598202Y268514D01*
X598173Y268418D01*
X598140Y268324D01*
X598104Y268231D01*
X598064Y268140D01*
X598020Y268050D01*
X597973Y267962D01*
X597923Y267876D01*
X597869Y267792D01*
X597812Y267710D01*
X597752Y267631D01*
X597688Y267553D01*
X597622Y267479D01*
X597553Y267407D01*
X597481Y267338D01*
X597407Y267272D01*
X597329Y267208D01*
X597250Y267148D01*
X597168Y267091D01*
X597084Y267037D01*
X596998Y266987D01*
X596910Y266940D01*
X596820Y266896D01*
X596729Y266856D01*
X596636Y266820D01*
X596542Y266787D01*
X596446Y266758D01*
X596350Y266733D01*
X596253Y266712D01*
X596154Y266694D01*
X596056Y266681D01*
X595956Y266671D01*
X595857Y266665D01*
X595757Y266663D01*
X589407Y266663D01*
X589307Y266665D01*
X589208Y266671D01*
X589108Y266681D01*
X589010Y266694D01*
X588911Y266712D01*
X588814Y266733D01*
X588718Y266758D01*
X588622Y266787D01*
X588528Y266820D01*
X588435Y266856D01*
X588344Y266896D01*
X588254Y266940D01*
X588166Y266987D01*
X588080Y267037D01*
X587996Y267091D01*
X587914Y267148D01*
X587835Y267208D01*
X587757Y267272D01*
X587683Y267338D01*
X587611Y267407D01*
X587542Y267479D01*
X587476Y267553D01*
X587412Y267631D01*
X587352Y267710D01*
X587295Y267792D01*
X587241Y267876D01*
X587191Y267962D01*
X587144Y268050D01*
X587100Y268140D01*
X587060Y268231D01*
X587024Y268324D01*
X586991Y268418D01*
X586962Y268514D01*
X586937Y268610D01*
X586916Y268707D01*
X586898Y268806D01*
X586885Y268904D01*
X586875Y269004D01*
X586869Y269103D01*
X586867Y269203D01*
X586867Y271743D01*
X589407Y276225D02*
X586867Y279400D01*
X598297Y279400D01*
X598297Y276225D02*
X598297Y282575D01*
D14*
X488950Y226060D02*
X425450Y226060D01*
X425450Y256540D02*
X488950Y256540D01*
X488950Y226060D01*
X425450Y226060D02*
X425450Y256540D01*
X450850Y241300D02*
X457200Y241300D01*
X467360Y247650D02*
X467360Y234950D01*
X457200Y241300D01*
X472440Y241300D01*
X467360Y247650D02*
X457200Y241300D01*
X457200Y234950D01*
X457200Y247650D02*
X459740Y247650D01*
X457200Y247650D02*
X457200Y241300D01*
D16*
X435610Y241300D03*
D17*
X417068Y241300D03*
X497332Y241300D03*
D10*
X426085Y259715D02*
X426085Y271145D01*
X429260Y271145D01*
X429371Y271143D01*
X429481Y271137D01*
X429592Y271128D01*
X429702Y271114D01*
X429811Y271097D01*
X429920Y271076D01*
X430028Y271051D01*
X430135Y271022D01*
X430241Y270990D01*
X430346Y270954D01*
X430449Y270914D01*
X430551Y270871D01*
X430652Y270824D01*
X430751Y270773D01*
X430848Y270720D01*
X430942Y270663D01*
X431035Y270602D01*
X431126Y270539D01*
X431215Y270472D01*
X431301Y270402D01*
X431384Y270329D01*
X431466Y270254D01*
X431544Y270176D01*
X431619Y270094D01*
X431692Y270011D01*
X431762Y269925D01*
X431829Y269836D01*
X431892Y269745D01*
X431953Y269652D01*
X432010Y269558D01*
X432063Y269461D01*
X432114Y269362D01*
X432161Y269261D01*
X432204Y269159D01*
X432244Y269056D01*
X432280Y268951D01*
X432312Y268845D01*
X432341Y268738D01*
X432366Y268630D01*
X432387Y268521D01*
X432404Y268412D01*
X432418Y268302D01*
X432427Y268191D01*
X432433Y268081D01*
X432435Y267970D01*
X432435Y262890D01*
X432433Y262779D01*
X432427Y262669D01*
X432418Y262558D01*
X432404Y262448D01*
X432387Y262339D01*
X432366Y262230D01*
X432341Y262122D01*
X432312Y262015D01*
X432280Y261909D01*
X432244Y261804D01*
X432204Y261701D01*
X432161Y261599D01*
X432114Y261498D01*
X432063Y261399D01*
X432010Y261302D01*
X431953Y261208D01*
X431892Y261115D01*
X431829Y261024D01*
X431762Y260935D01*
X431692Y260849D01*
X431619Y260766D01*
X431544Y260684D01*
X431466Y260606D01*
X431384Y260531D01*
X431301Y260458D01*
X431215Y260388D01*
X431126Y260321D01*
X431035Y260258D01*
X430942Y260197D01*
X430848Y260140D01*
X430751Y260087D01*
X430652Y260036D01*
X430551Y259989D01*
X430449Y259946D01*
X430346Y259906D01*
X430241Y259870D01*
X430135Y259838D01*
X430028Y259809D01*
X429920Y259784D01*
X429811Y259763D01*
X429702Y259746D01*
X429592Y259732D01*
X429481Y259723D01*
X429371Y259717D01*
X429260Y259715D01*
X426085Y259715D01*
X437896Y268605D02*
X441071Y271145D01*
X441071Y259715D01*
X437896Y259715D02*
X444246Y259715D01*
D14*
X425450Y175260D02*
X488950Y175260D01*
X488950Y205740D02*
X425450Y205740D01*
X488950Y205740D02*
X488950Y175260D01*
X425450Y175260D02*
X425450Y205740D01*
X450850Y190500D02*
X457200Y190500D01*
X467360Y196850D02*
X467360Y184150D01*
X457200Y190500D01*
X472440Y190500D01*
X467360Y196850D02*
X457200Y190500D01*
X457200Y184150D01*
X457200Y196850D02*
X459740Y196850D01*
X457200Y196850D02*
X457200Y190500D01*
D16*
X435610Y190500D03*
D17*
X417068Y190500D03*
X497332Y190500D03*
D10*
X426085Y208915D02*
X426085Y220345D01*
X429260Y220345D01*
X429371Y220343D01*
X429481Y220337D01*
X429592Y220328D01*
X429702Y220314D01*
X429811Y220297D01*
X429920Y220276D01*
X430028Y220251D01*
X430135Y220222D01*
X430241Y220190D01*
X430346Y220154D01*
X430449Y220114D01*
X430551Y220071D01*
X430652Y220024D01*
X430751Y219973D01*
X430848Y219920D01*
X430942Y219863D01*
X431035Y219802D01*
X431126Y219739D01*
X431215Y219672D01*
X431301Y219602D01*
X431384Y219529D01*
X431466Y219454D01*
X431544Y219376D01*
X431619Y219294D01*
X431692Y219211D01*
X431762Y219125D01*
X431829Y219036D01*
X431892Y218945D01*
X431953Y218852D01*
X432010Y218758D01*
X432063Y218661D01*
X432114Y218562D01*
X432161Y218461D01*
X432204Y218359D01*
X432244Y218256D01*
X432280Y218151D01*
X432312Y218045D01*
X432341Y217938D01*
X432366Y217830D01*
X432387Y217721D01*
X432404Y217612D01*
X432418Y217502D01*
X432427Y217391D01*
X432433Y217281D01*
X432435Y217170D01*
X432435Y212090D01*
X432433Y211979D01*
X432427Y211869D01*
X432418Y211758D01*
X432404Y211648D01*
X432387Y211539D01*
X432366Y211430D01*
X432341Y211322D01*
X432312Y211215D01*
X432280Y211109D01*
X432244Y211004D01*
X432204Y210901D01*
X432161Y210799D01*
X432114Y210698D01*
X432063Y210599D01*
X432010Y210502D01*
X431953Y210408D01*
X431892Y210315D01*
X431829Y210224D01*
X431762Y210135D01*
X431692Y210049D01*
X431619Y209966D01*
X431544Y209884D01*
X431466Y209806D01*
X431384Y209731D01*
X431301Y209658D01*
X431215Y209588D01*
X431126Y209521D01*
X431035Y209458D01*
X430942Y209397D01*
X430848Y209340D01*
X430751Y209287D01*
X430652Y209236D01*
X430551Y209189D01*
X430449Y209146D01*
X430346Y209106D01*
X430241Y209070D01*
X430135Y209038D01*
X430028Y209009D01*
X429920Y208984D01*
X429811Y208963D01*
X429702Y208946D01*
X429592Y208932D01*
X429481Y208923D01*
X429371Y208917D01*
X429260Y208915D01*
X426085Y208915D01*
X441389Y220346D02*
X441493Y220344D01*
X441598Y220338D01*
X441702Y220329D01*
X441805Y220316D01*
X441908Y220298D01*
X442010Y220278D01*
X442112Y220253D01*
X442212Y220225D01*
X442312Y220193D01*
X442410Y220157D01*
X442507Y220118D01*
X442602Y220076D01*
X442696Y220030D01*
X442788Y219980D01*
X442878Y219928D01*
X442966Y219872D01*
X443052Y219812D01*
X443136Y219750D01*
X443217Y219685D01*
X443296Y219617D01*
X443373Y219545D01*
X443446Y219472D01*
X443518Y219395D01*
X443586Y219316D01*
X443651Y219235D01*
X443713Y219151D01*
X443773Y219065D01*
X443829Y218977D01*
X443881Y218887D01*
X443931Y218795D01*
X443977Y218701D01*
X444019Y218606D01*
X444058Y218509D01*
X444094Y218411D01*
X444126Y218311D01*
X444154Y218211D01*
X444179Y218109D01*
X444199Y218007D01*
X444217Y217904D01*
X444230Y217801D01*
X444239Y217697D01*
X444245Y217592D01*
X444247Y217488D01*
X441389Y220345D02*
X441271Y220343D01*
X441152Y220337D01*
X441034Y220328D01*
X440917Y220315D01*
X440800Y220297D01*
X440683Y220277D01*
X440567Y220252D01*
X440452Y220224D01*
X440339Y220191D01*
X440226Y220156D01*
X440114Y220116D01*
X440004Y220074D01*
X439895Y220027D01*
X439787Y219977D01*
X439682Y219924D01*
X439578Y219867D01*
X439476Y219807D01*
X439376Y219744D01*
X439278Y219677D01*
X439182Y219608D01*
X439089Y219535D01*
X438998Y219459D01*
X438909Y219381D01*
X438823Y219299D01*
X438740Y219215D01*
X438659Y219129D01*
X438582Y219039D01*
X438507Y218948D01*
X438435Y218854D01*
X438366Y218757D01*
X438301Y218659D01*
X438238Y218558D01*
X438179Y218455D01*
X438123Y218351D01*
X438071Y218245D01*
X438022Y218137D01*
X437977Y218028D01*
X437935Y217917D01*
X437897Y217805D01*
X443294Y215266D02*
X443370Y215341D01*
X443445Y215420D01*
X443516Y215501D01*
X443585Y215585D01*
X443650Y215671D01*
X443712Y215759D01*
X443772Y215849D01*
X443828Y215941D01*
X443881Y216036D01*
X443930Y216132D01*
X443976Y216230D01*
X444019Y216329D01*
X444058Y216430D01*
X444093Y216532D01*
X444125Y216635D01*
X444153Y216739D01*
X444178Y216844D01*
X444199Y216951D01*
X444216Y217057D01*
X444229Y217164D01*
X444238Y217272D01*
X444244Y217380D01*
X444246Y217488D01*
X443294Y215265D02*
X437896Y208915D01*
X444246Y208915D01*
D14*
X425450Y22860D02*
X488950Y22860D01*
X488950Y53340D02*
X425450Y53340D01*
X488950Y53340D02*
X488950Y22860D01*
X425450Y22860D02*
X425450Y53340D01*
X450850Y38100D02*
X457200Y38100D01*
X467360Y44450D02*
X467360Y31750D01*
X457200Y38100D01*
X472440Y38100D01*
X467360Y44450D02*
X457200Y38100D01*
X457200Y31750D01*
X457200Y44450D02*
X459740Y44450D01*
X457200Y44450D02*
X457200Y38100D01*
D16*
X435610Y38100D03*
D17*
X417068Y38100D03*
X497332Y38100D03*
D10*
X426085Y56515D02*
X426085Y67945D01*
X429260Y67945D01*
X429371Y67943D01*
X429481Y67937D01*
X429592Y67928D01*
X429702Y67914D01*
X429811Y67897D01*
X429920Y67876D01*
X430028Y67851D01*
X430135Y67822D01*
X430241Y67790D01*
X430346Y67754D01*
X430449Y67714D01*
X430551Y67671D01*
X430652Y67624D01*
X430751Y67573D01*
X430848Y67520D01*
X430942Y67463D01*
X431035Y67402D01*
X431126Y67339D01*
X431215Y67272D01*
X431301Y67202D01*
X431384Y67129D01*
X431466Y67054D01*
X431544Y66976D01*
X431619Y66894D01*
X431692Y66811D01*
X431762Y66725D01*
X431829Y66636D01*
X431892Y66545D01*
X431953Y66452D01*
X432010Y66358D01*
X432063Y66261D01*
X432114Y66162D01*
X432161Y66061D01*
X432204Y65959D01*
X432244Y65856D01*
X432280Y65751D01*
X432312Y65645D01*
X432341Y65538D01*
X432366Y65430D01*
X432387Y65321D01*
X432404Y65212D01*
X432418Y65102D01*
X432427Y64991D01*
X432433Y64881D01*
X432435Y64770D01*
X432435Y59690D01*
X432433Y59579D01*
X432427Y59469D01*
X432418Y59358D01*
X432404Y59248D01*
X432387Y59139D01*
X432366Y59030D01*
X432341Y58922D01*
X432312Y58815D01*
X432280Y58709D01*
X432244Y58604D01*
X432204Y58501D01*
X432161Y58399D01*
X432114Y58298D01*
X432063Y58199D01*
X432010Y58102D01*
X431953Y58008D01*
X431892Y57915D01*
X431829Y57824D01*
X431762Y57735D01*
X431692Y57649D01*
X431619Y57566D01*
X431544Y57484D01*
X431466Y57406D01*
X431384Y57331D01*
X431301Y57258D01*
X431215Y57188D01*
X431126Y57121D01*
X431035Y57058D01*
X430942Y56997D01*
X430848Y56940D01*
X430751Y56887D01*
X430652Y56836D01*
X430551Y56789D01*
X430449Y56746D01*
X430346Y56706D01*
X430241Y56670D01*
X430135Y56638D01*
X430028Y56609D01*
X429920Y56584D01*
X429811Y56563D01*
X429702Y56546D01*
X429592Y56532D01*
X429481Y56523D01*
X429371Y56517D01*
X429260Y56515D01*
X426085Y56515D01*
X437896Y56515D02*
X441071Y56515D01*
X441182Y56517D01*
X441292Y56523D01*
X441403Y56532D01*
X441513Y56546D01*
X441622Y56563D01*
X441731Y56584D01*
X441839Y56609D01*
X441946Y56638D01*
X442052Y56670D01*
X442157Y56706D01*
X442260Y56746D01*
X442362Y56789D01*
X442463Y56836D01*
X442562Y56887D01*
X442659Y56940D01*
X442753Y56997D01*
X442846Y57058D01*
X442937Y57121D01*
X443026Y57188D01*
X443112Y57258D01*
X443195Y57331D01*
X443277Y57406D01*
X443355Y57484D01*
X443430Y57566D01*
X443503Y57649D01*
X443573Y57735D01*
X443640Y57824D01*
X443703Y57915D01*
X443764Y58008D01*
X443821Y58102D01*
X443874Y58199D01*
X443925Y58298D01*
X443972Y58399D01*
X444015Y58501D01*
X444055Y58604D01*
X444091Y58709D01*
X444123Y58815D01*
X444152Y58922D01*
X444177Y59030D01*
X444198Y59139D01*
X444215Y59248D01*
X444229Y59358D01*
X444238Y59469D01*
X444244Y59579D01*
X444246Y59690D01*
X444244Y59801D01*
X444238Y59911D01*
X444229Y60022D01*
X444215Y60132D01*
X444198Y60241D01*
X444177Y60350D01*
X444152Y60458D01*
X444123Y60565D01*
X444091Y60671D01*
X444055Y60776D01*
X444015Y60879D01*
X443972Y60981D01*
X443925Y61082D01*
X443874Y61181D01*
X443821Y61277D01*
X443764Y61372D01*
X443703Y61465D01*
X443640Y61556D01*
X443573Y61645D01*
X443503Y61731D01*
X443430Y61814D01*
X443355Y61896D01*
X443277Y61974D01*
X443195Y62049D01*
X443112Y62122D01*
X443026Y62192D01*
X442937Y62259D01*
X442846Y62322D01*
X442753Y62383D01*
X442659Y62440D01*
X442562Y62493D01*
X442463Y62544D01*
X442362Y62591D01*
X442260Y62634D01*
X442157Y62674D01*
X442052Y62710D01*
X441946Y62742D01*
X441839Y62771D01*
X441731Y62796D01*
X441622Y62817D01*
X441513Y62834D01*
X441403Y62848D01*
X441292Y62857D01*
X441182Y62863D01*
X441071Y62865D01*
X441706Y67945D02*
X437896Y67945D01*
X441706Y67945D02*
X441806Y67943D01*
X441905Y67937D01*
X442005Y67927D01*
X442103Y67914D01*
X442202Y67896D01*
X442299Y67875D01*
X442395Y67850D01*
X442491Y67821D01*
X442585Y67788D01*
X442678Y67752D01*
X442769Y67712D01*
X442859Y67668D01*
X442947Y67621D01*
X443033Y67571D01*
X443117Y67517D01*
X443199Y67460D01*
X443278Y67400D01*
X443356Y67336D01*
X443430Y67270D01*
X443502Y67201D01*
X443571Y67129D01*
X443637Y67055D01*
X443701Y66977D01*
X443761Y66898D01*
X443818Y66816D01*
X443872Y66732D01*
X443922Y66646D01*
X443969Y66558D01*
X444013Y66468D01*
X444053Y66377D01*
X444089Y66284D01*
X444122Y66190D01*
X444151Y66094D01*
X444176Y65998D01*
X444197Y65901D01*
X444215Y65802D01*
X444228Y65704D01*
X444238Y65604D01*
X444244Y65505D01*
X444246Y65405D01*
X444244Y65305D01*
X444238Y65206D01*
X444228Y65106D01*
X444215Y65008D01*
X444197Y64909D01*
X444176Y64812D01*
X444151Y64716D01*
X444122Y64620D01*
X444089Y64526D01*
X444053Y64433D01*
X444013Y64342D01*
X443969Y64252D01*
X443922Y64164D01*
X443872Y64078D01*
X443818Y63994D01*
X443761Y63912D01*
X443701Y63833D01*
X443637Y63755D01*
X443571Y63681D01*
X443502Y63609D01*
X443430Y63540D01*
X443356Y63474D01*
X443278Y63410D01*
X443199Y63350D01*
X443117Y63293D01*
X443033Y63239D01*
X442947Y63189D01*
X442859Y63142D01*
X442769Y63098D01*
X442678Y63058D01*
X442585Y63022D01*
X442491Y62989D01*
X442395Y62960D01*
X442299Y62935D01*
X442202Y62914D01*
X442103Y62896D01*
X442005Y62883D01*
X441905Y62873D01*
X441806Y62867D01*
X441706Y62865D01*
X439166Y62865D01*
D14*
X425450Y124460D02*
X488950Y124460D01*
X488950Y154940D02*
X425450Y154940D01*
X488950Y154940D02*
X488950Y124460D01*
X425450Y124460D02*
X425450Y154940D01*
X450850Y139700D02*
X457200Y139700D01*
X467360Y146050D02*
X467360Y133350D01*
X457200Y139700D01*
X472440Y139700D01*
X467360Y146050D02*
X457200Y139700D01*
X457200Y133350D01*
X457200Y146050D02*
X459740Y146050D01*
X457200Y146050D02*
X457200Y139700D01*
D16*
X435610Y139700D03*
D17*
X417068Y139700D03*
X497332Y139700D03*
D10*
X426085Y158115D02*
X426085Y169545D01*
X429260Y169545D01*
X429371Y169543D01*
X429481Y169537D01*
X429592Y169528D01*
X429702Y169514D01*
X429811Y169497D01*
X429920Y169476D01*
X430028Y169451D01*
X430135Y169422D01*
X430241Y169390D01*
X430346Y169354D01*
X430449Y169314D01*
X430551Y169271D01*
X430652Y169224D01*
X430751Y169173D01*
X430848Y169120D01*
X430942Y169063D01*
X431035Y169002D01*
X431126Y168939D01*
X431215Y168872D01*
X431301Y168802D01*
X431384Y168729D01*
X431466Y168654D01*
X431544Y168576D01*
X431619Y168494D01*
X431692Y168411D01*
X431762Y168325D01*
X431829Y168236D01*
X431892Y168145D01*
X431953Y168052D01*
X432010Y167958D01*
X432063Y167861D01*
X432114Y167762D01*
X432161Y167661D01*
X432204Y167559D01*
X432244Y167456D01*
X432280Y167351D01*
X432312Y167245D01*
X432341Y167138D01*
X432366Y167030D01*
X432387Y166921D01*
X432404Y166812D01*
X432418Y166702D01*
X432427Y166591D01*
X432433Y166481D01*
X432435Y166370D01*
X432435Y161290D01*
X432433Y161179D01*
X432427Y161069D01*
X432418Y160958D01*
X432404Y160848D01*
X432387Y160739D01*
X432366Y160630D01*
X432341Y160522D01*
X432312Y160415D01*
X432280Y160309D01*
X432244Y160204D01*
X432204Y160101D01*
X432161Y159999D01*
X432114Y159898D01*
X432063Y159799D01*
X432010Y159702D01*
X431953Y159608D01*
X431892Y159515D01*
X431829Y159424D01*
X431762Y159335D01*
X431692Y159249D01*
X431619Y159166D01*
X431544Y159084D01*
X431466Y159006D01*
X431384Y158931D01*
X431301Y158858D01*
X431215Y158788D01*
X431126Y158721D01*
X431035Y158658D01*
X430942Y158597D01*
X430848Y158540D01*
X430751Y158487D01*
X430652Y158436D01*
X430551Y158389D01*
X430449Y158346D01*
X430346Y158306D01*
X430241Y158270D01*
X430135Y158238D01*
X430028Y158209D01*
X429920Y158184D01*
X429811Y158163D01*
X429702Y158146D01*
X429592Y158132D01*
X429481Y158123D01*
X429371Y158117D01*
X429260Y158115D01*
X426085Y158115D01*
X437896Y160655D02*
X440436Y169545D01*
X437896Y160655D02*
X444246Y160655D01*
X442341Y163195D02*
X442341Y158115D01*
D14*
X425450Y73660D02*
X488950Y73660D01*
X488950Y104140D02*
X425450Y104140D01*
X488950Y104140D02*
X488950Y73660D01*
X425450Y73660D02*
X425450Y104140D01*
X450850Y88900D02*
X457200Y88900D01*
X467360Y95250D02*
X467360Y82550D01*
X457200Y88900D01*
X472440Y88900D01*
X467360Y95250D02*
X457200Y88900D01*
X457200Y82550D01*
X457200Y95250D02*
X459740Y95250D01*
X457200Y95250D02*
X457200Y88900D01*
D16*
X435610Y88900D03*
D17*
X417068Y88900D03*
X497332Y88900D03*
D10*
X426085Y107315D02*
X426085Y118745D01*
X429260Y118745D01*
X429371Y118743D01*
X429481Y118737D01*
X429592Y118728D01*
X429702Y118714D01*
X429811Y118697D01*
X429920Y118676D01*
X430028Y118651D01*
X430135Y118622D01*
X430241Y118590D01*
X430346Y118554D01*
X430449Y118514D01*
X430551Y118471D01*
X430652Y118424D01*
X430751Y118373D01*
X430848Y118320D01*
X430942Y118263D01*
X431035Y118202D01*
X431126Y118139D01*
X431215Y118072D01*
X431301Y118002D01*
X431384Y117929D01*
X431466Y117854D01*
X431544Y117776D01*
X431619Y117694D01*
X431692Y117611D01*
X431762Y117525D01*
X431829Y117436D01*
X431892Y117345D01*
X431953Y117252D01*
X432010Y117158D01*
X432063Y117061D01*
X432114Y116962D01*
X432161Y116861D01*
X432204Y116759D01*
X432244Y116656D01*
X432280Y116551D01*
X432312Y116445D01*
X432341Y116338D01*
X432366Y116230D01*
X432387Y116121D01*
X432404Y116012D01*
X432418Y115902D01*
X432427Y115791D01*
X432433Y115681D01*
X432435Y115570D01*
X432435Y110490D01*
X432433Y110379D01*
X432427Y110269D01*
X432418Y110158D01*
X432404Y110048D01*
X432387Y109939D01*
X432366Y109830D01*
X432341Y109722D01*
X432312Y109615D01*
X432280Y109509D01*
X432244Y109404D01*
X432204Y109301D01*
X432161Y109199D01*
X432114Y109098D01*
X432063Y108999D01*
X432010Y108902D01*
X431953Y108808D01*
X431892Y108715D01*
X431829Y108624D01*
X431762Y108535D01*
X431692Y108449D01*
X431619Y108366D01*
X431544Y108284D01*
X431466Y108206D01*
X431384Y108131D01*
X431301Y108058D01*
X431215Y107988D01*
X431126Y107921D01*
X431035Y107858D01*
X430942Y107797D01*
X430848Y107740D01*
X430751Y107687D01*
X430652Y107636D01*
X430551Y107589D01*
X430449Y107546D01*
X430346Y107506D01*
X430241Y107470D01*
X430135Y107438D01*
X430028Y107409D01*
X429920Y107384D01*
X429811Y107363D01*
X429702Y107346D01*
X429592Y107332D01*
X429481Y107323D01*
X429371Y107317D01*
X429260Y107315D01*
X426085Y107315D01*
X437896Y107315D02*
X441706Y107315D01*
X441806Y107317D01*
X441905Y107323D01*
X442005Y107333D01*
X442103Y107346D01*
X442202Y107364D01*
X442299Y107385D01*
X442395Y107410D01*
X442491Y107439D01*
X442585Y107472D01*
X442678Y107508D01*
X442769Y107548D01*
X442859Y107592D01*
X442947Y107639D01*
X443033Y107689D01*
X443117Y107743D01*
X443199Y107800D01*
X443278Y107860D01*
X443356Y107924D01*
X443430Y107990D01*
X443502Y108059D01*
X443571Y108131D01*
X443637Y108205D01*
X443701Y108283D01*
X443761Y108362D01*
X443818Y108444D01*
X443872Y108528D01*
X443922Y108614D01*
X443969Y108702D01*
X444013Y108792D01*
X444053Y108883D01*
X444089Y108976D01*
X444122Y109070D01*
X444151Y109166D01*
X444176Y109262D01*
X444197Y109359D01*
X444215Y109458D01*
X444228Y109556D01*
X444238Y109656D01*
X444244Y109755D01*
X444246Y109855D01*
X444246Y111125D01*
X444244Y111225D01*
X444238Y111324D01*
X444228Y111424D01*
X444215Y111522D01*
X444197Y111621D01*
X444176Y111718D01*
X444151Y111814D01*
X444122Y111910D01*
X444089Y112004D01*
X444053Y112097D01*
X444013Y112188D01*
X443969Y112278D01*
X443922Y112366D01*
X443872Y112452D01*
X443818Y112536D01*
X443761Y112618D01*
X443701Y112697D01*
X443637Y112775D01*
X443571Y112849D01*
X443502Y112921D01*
X443430Y112990D01*
X443356Y113056D01*
X443278Y113120D01*
X443199Y113180D01*
X443117Y113237D01*
X443033Y113291D01*
X442947Y113341D01*
X442859Y113388D01*
X442769Y113432D01*
X442678Y113472D01*
X442585Y113508D01*
X442491Y113541D01*
X442395Y113570D01*
X442299Y113595D01*
X442202Y113616D01*
X442103Y113634D01*
X442005Y113647D01*
X441905Y113657D01*
X441806Y113663D01*
X441706Y113665D01*
X437896Y113665D01*
X437896Y118745D01*
X444246Y118745D01*
X266700Y278130D02*
X266700Y382270D01*
X107950Y382270D02*
X107950Y278130D01*
X142240Y382270D02*
X266700Y382270D01*
X142240Y382270D02*
X142240Y373380D01*
X127000Y373380D01*
X127000Y382270D01*
X107950Y382270D01*
X142240Y278130D02*
X266700Y278130D01*
X142240Y278130D02*
X142240Y287020D01*
X127000Y287020D01*
X127000Y278130D01*
X107950Y278130D01*
D18*
X260350Y284480D02*
X260350Y375920D01*
X177800Y375920D01*
X177800Y284480D01*
X260350Y284480D01*
D10*
X124206Y330200D02*
X124211Y330643D01*
X124228Y331085D01*
X124255Y331527D01*
X124293Y331968D01*
X124342Y332408D01*
X124401Y332846D01*
X124472Y333283D01*
X124553Y333718D01*
X124644Y334151D01*
X124746Y334582D01*
X124859Y335010D01*
X124983Y335435D01*
X125116Y335857D01*
X125260Y336275D01*
X125414Y336690D01*
X125579Y337101D01*
X125753Y337508D01*
X125937Y337911D01*
X126132Y338308D01*
X126335Y338701D01*
X126549Y339089D01*
X126772Y339471D01*
X127004Y339848D01*
X127245Y340219D01*
X127496Y340584D01*
X127755Y340943D01*
X128023Y341295D01*
X128300Y341641D01*
X128584Y341979D01*
X128878Y342311D01*
X129179Y342635D01*
X129488Y342952D01*
X129805Y343261D01*
X130129Y343562D01*
X130461Y343856D01*
X130799Y344140D01*
X131145Y344417D01*
X131497Y344685D01*
X131856Y344944D01*
X132221Y345195D01*
X132592Y345436D01*
X132969Y345668D01*
X133351Y345891D01*
X133739Y346105D01*
X134132Y346308D01*
X134529Y346503D01*
X134932Y346687D01*
X135339Y346861D01*
X135750Y347026D01*
X136165Y347180D01*
X136583Y347324D01*
X137005Y347457D01*
X137430Y347581D01*
X137858Y347694D01*
X138289Y347796D01*
X138722Y347887D01*
X139157Y347968D01*
X139594Y348039D01*
X140032Y348098D01*
X140472Y348147D01*
X140913Y348185D01*
X141355Y348212D01*
X141797Y348229D01*
X142240Y348234D01*
X142683Y348229D01*
X143125Y348212D01*
X143567Y348185D01*
X144008Y348147D01*
X144448Y348098D01*
X144886Y348039D01*
X145323Y347968D01*
X145758Y347887D01*
X146191Y347796D01*
X146622Y347694D01*
X147050Y347581D01*
X147475Y347457D01*
X147897Y347324D01*
X148315Y347180D01*
X148730Y347026D01*
X149141Y346861D01*
X149548Y346687D01*
X149951Y346503D01*
X150348Y346308D01*
X150741Y346105D01*
X151129Y345891D01*
X151511Y345668D01*
X151888Y345436D01*
X152259Y345195D01*
X152624Y344944D01*
X152983Y344685D01*
X153335Y344417D01*
X153681Y344140D01*
X154019Y343856D01*
X154351Y343562D01*
X154675Y343261D01*
X154992Y342952D01*
X155301Y342635D01*
X155602Y342311D01*
X155896Y341979D01*
X156180Y341641D01*
X156457Y341295D01*
X156725Y340943D01*
X156984Y340584D01*
X157235Y340219D01*
X157476Y339848D01*
X157708Y339471D01*
X157931Y339089D01*
X158145Y338701D01*
X158348Y338308D01*
X158543Y337911D01*
X158727Y337508D01*
X158901Y337101D01*
X159066Y336690D01*
X159220Y336275D01*
X159364Y335857D01*
X159497Y335435D01*
X159621Y335010D01*
X159734Y334582D01*
X159836Y334151D01*
X159927Y333718D01*
X160008Y333283D01*
X160079Y332846D01*
X160138Y332408D01*
X160187Y331968D01*
X160225Y331527D01*
X160252Y331085D01*
X160269Y330643D01*
X160274Y330200D01*
X160269Y329757D01*
X160252Y329315D01*
X160225Y328873D01*
X160187Y328432D01*
X160138Y327992D01*
X160079Y327554D01*
X160008Y327117D01*
X159927Y326682D01*
X159836Y326249D01*
X159734Y325818D01*
X159621Y325390D01*
X159497Y324965D01*
X159364Y324543D01*
X159220Y324125D01*
X159066Y323710D01*
X158901Y323299D01*
X158727Y322892D01*
X158543Y322489D01*
X158348Y322092D01*
X158145Y321699D01*
X157931Y321311D01*
X157708Y320929D01*
X157476Y320552D01*
X157235Y320181D01*
X156984Y319816D01*
X156725Y319457D01*
X156457Y319105D01*
X156180Y318759D01*
X155896Y318421D01*
X155602Y318089D01*
X155301Y317765D01*
X154992Y317448D01*
X154675Y317139D01*
X154351Y316838D01*
X154019Y316544D01*
X153681Y316260D01*
X153335Y315983D01*
X152983Y315715D01*
X152624Y315456D01*
X152259Y315205D01*
X151888Y314964D01*
X151511Y314732D01*
X151129Y314509D01*
X150741Y314295D01*
X150348Y314092D01*
X149951Y313897D01*
X149548Y313713D01*
X149141Y313539D01*
X148730Y313374D01*
X148315Y313220D01*
X147897Y313076D01*
X147475Y312943D01*
X147050Y312819D01*
X146622Y312706D01*
X146191Y312604D01*
X145758Y312513D01*
X145323Y312432D01*
X144886Y312361D01*
X144448Y312302D01*
X144008Y312253D01*
X143567Y312215D01*
X143125Y312188D01*
X142683Y312171D01*
X142240Y312166D01*
X141797Y312171D01*
X141355Y312188D01*
X140913Y312215D01*
X140472Y312253D01*
X140032Y312302D01*
X139594Y312361D01*
X139157Y312432D01*
X138722Y312513D01*
X138289Y312604D01*
X137858Y312706D01*
X137430Y312819D01*
X137005Y312943D01*
X136583Y313076D01*
X136165Y313220D01*
X135750Y313374D01*
X135339Y313539D01*
X134932Y313713D01*
X134529Y313897D01*
X134132Y314092D01*
X133739Y314295D01*
X133351Y314509D01*
X132969Y314732D01*
X132592Y314964D01*
X132221Y315205D01*
X131856Y315456D01*
X131497Y315715D01*
X131145Y315983D01*
X130799Y316260D01*
X130461Y316544D01*
X130129Y316838D01*
X129805Y317139D01*
X129488Y317448D01*
X129179Y317765D01*
X128878Y318089D01*
X128584Y318421D01*
X128300Y318759D01*
X128023Y319105D01*
X127755Y319457D01*
X127496Y319816D01*
X127245Y320181D01*
X127004Y320552D01*
X126772Y320929D01*
X126549Y321311D01*
X126335Y321699D01*
X126132Y322092D01*
X125937Y322489D01*
X125753Y322892D01*
X125579Y323299D01*
X125414Y323710D01*
X125260Y324125D01*
X125116Y324543D01*
X124983Y324965D01*
X124859Y325390D01*
X124746Y325818D01*
X124644Y326249D01*
X124553Y326682D01*
X124472Y327117D01*
X124401Y327554D01*
X124342Y327992D01*
X124293Y328432D01*
X124255Y328873D01*
X124228Y329315D01*
X124211Y329757D01*
X124206Y330200D01*
X165989Y289264D02*
X174625Y286385D01*
X174625Y292142D02*
X165989Y289264D01*
X172466Y291423D02*
X172466Y287105D01*
X167908Y295780D02*
X165989Y298179D01*
X174625Y298179D01*
X174625Y295780D02*
X174625Y300578D01*
X166949Y304696D02*
X165989Y304696D01*
X165989Y309493D01*
X174625Y307094D01*
X174625Y313051D02*
X174625Y313531D01*
X174625Y313051D02*
X174145Y313051D01*
X174145Y313531D01*
X174625Y313531D01*
X176544Y312812D01*
X174625Y317177D02*
X174625Y320056D01*
X174623Y320142D01*
X174617Y320228D01*
X174608Y320314D01*
X174594Y320399D01*
X174577Y320483D01*
X174556Y320567D01*
X174531Y320649D01*
X174503Y320730D01*
X174471Y320810D01*
X174435Y320889D01*
X174396Y320965D01*
X174353Y321040D01*
X174308Y321113D01*
X174259Y321184D01*
X174206Y321252D01*
X174151Y321319D01*
X174093Y321382D01*
X174032Y321443D01*
X173969Y321501D01*
X173902Y321556D01*
X173834Y321609D01*
X173763Y321658D01*
X173690Y321703D01*
X173615Y321746D01*
X173539Y321785D01*
X173460Y321821D01*
X173380Y321853D01*
X173299Y321881D01*
X173217Y321906D01*
X173133Y321927D01*
X173049Y321944D01*
X172964Y321958D01*
X172878Y321967D01*
X172792Y321973D01*
X172706Y321975D01*
X171746Y321975D01*
X171660Y321973D01*
X171574Y321967D01*
X171488Y321958D01*
X171403Y321944D01*
X171319Y321927D01*
X171235Y321906D01*
X171153Y321881D01*
X171072Y321853D01*
X170992Y321821D01*
X170913Y321785D01*
X170837Y321746D01*
X170762Y321703D01*
X170689Y321658D01*
X170618Y321609D01*
X170550Y321556D01*
X170483Y321501D01*
X170420Y321443D01*
X170359Y321382D01*
X170301Y321319D01*
X170246Y321252D01*
X170194Y321184D01*
X170144Y321113D01*
X170099Y321040D01*
X170056Y320965D01*
X170017Y320889D01*
X169981Y320810D01*
X169949Y320730D01*
X169921Y320649D01*
X169896Y320567D01*
X169875Y320483D01*
X169858Y320399D01*
X169844Y320314D01*
X169835Y320228D01*
X169829Y320142D01*
X169827Y320056D01*
X169827Y317177D01*
X165989Y317177D01*
X165989Y321975D01*
X168868Y326504D02*
X174625Y326504D01*
X168868Y326504D02*
X168868Y330822D01*
X168870Y330897D01*
X168876Y330972D01*
X168886Y331047D01*
X168899Y331121D01*
X168917Y331194D01*
X168938Y331267D01*
X168964Y331338D01*
X168992Y331407D01*
X169025Y331475D01*
X169061Y331542D01*
X169100Y331606D01*
X169143Y331668D01*
X169189Y331728D01*
X169238Y331785D01*
X169289Y331840D01*
X169344Y331891D01*
X169401Y331940D01*
X169461Y331986D01*
X169523Y332029D01*
X169588Y332068D01*
X169654Y332104D01*
X169722Y332137D01*
X169791Y332165D01*
X169862Y332191D01*
X169935Y332212D01*
X170008Y332230D01*
X170082Y332243D01*
X170157Y332253D01*
X170232Y332259D01*
X170307Y332261D01*
X174625Y332261D01*
X174625Y329383D02*
X168868Y329383D01*
X168868Y337203D02*
X174625Y337203D01*
X168868Y337203D02*
X168868Y341521D01*
X168870Y341596D01*
X168876Y341671D01*
X168886Y341746D01*
X168899Y341820D01*
X168917Y341893D01*
X168938Y341966D01*
X168964Y342037D01*
X168992Y342106D01*
X169025Y342174D01*
X169061Y342241D01*
X169100Y342305D01*
X169143Y342367D01*
X169189Y342427D01*
X169238Y342484D01*
X169289Y342539D01*
X169344Y342590D01*
X169401Y342639D01*
X169461Y342685D01*
X169523Y342728D01*
X169588Y342767D01*
X169654Y342803D01*
X169722Y342836D01*
X169791Y342864D01*
X169862Y342890D01*
X169935Y342911D01*
X170008Y342929D01*
X170082Y342942D01*
X170157Y342952D01*
X170232Y342958D01*
X170307Y342960D01*
X174625Y342960D01*
X174625Y340081D02*
X168868Y340081D01*
D19*
X297815Y355600D03*
X297815Y330200D03*
X297815Y304800D03*
D20*
X280670Y304800D03*
X280670Y330200D03*
X280670Y355600D03*
D21*
X196596Y292989D02*
X189484Y292989D01*
X189352Y292991D01*
X189221Y292997D01*
X189089Y293007D01*
X188958Y293020D01*
X188828Y293038D01*
X188698Y293059D01*
X188568Y293084D01*
X188440Y293113D01*
X188312Y293146D01*
X188186Y293183D01*
X188060Y293223D01*
X187936Y293267D01*
X187813Y293315D01*
X187692Y293366D01*
X187572Y293421D01*
X187454Y293479D01*
X187338Y293541D01*
X187224Y293607D01*
X187111Y293675D01*
X187001Y293747D01*
X186893Y293822D01*
X186787Y293901D01*
X186683Y293982D01*
X186582Y294067D01*
X186484Y294154D01*
X186388Y294245D01*
X186295Y294338D01*
X186204Y294434D01*
X186117Y294532D01*
X186032Y294633D01*
X185951Y294737D01*
X185872Y294843D01*
X185797Y294951D01*
X185725Y295061D01*
X185657Y295174D01*
X185591Y295288D01*
X185529Y295404D01*
X185471Y295522D01*
X185416Y295642D01*
X185365Y295763D01*
X185317Y295886D01*
X185273Y296010D01*
X185233Y296136D01*
X185196Y296262D01*
X185163Y296390D01*
X185134Y296518D01*
X185109Y296648D01*
X185088Y296778D01*
X185070Y296908D01*
X185057Y297039D01*
X185047Y297171D01*
X185041Y297302D01*
X185039Y297434D01*
X185041Y297566D01*
X185047Y297697D01*
X185057Y297829D01*
X185070Y297960D01*
X185088Y298090D01*
X185109Y298220D01*
X185134Y298350D01*
X185163Y298478D01*
X185196Y298606D01*
X185233Y298732D01*
X185273Y298858D01*
X185317Y298982D01*
X185365Y299105D01*
X185416Y299226D01*
X185471Y299346D01*
X185529Y299464D01*
X185591Y299580D01*
X185657Y299694D01*
X185725Y299807D01*
X185797Y299917D01*
X185872Y300025D01*
X185951Y300131D01*
X186032Y300235D01*
X186117Y300336D01*
X186204Y300434D01*
X186295Y300530D01*
X186388Y300623D01*
X186484Y300714D01*
X186582Y300801D01*
X186683Y300886D01*
X186787Y300967D01*
X186893Y301046D01*
X187001Y301121D01*
X187111Y301193D01*
X187224Y301261D01*
X187338Y301327D01*
X187454Y301389D01*
X187572Y301447D01*
X187692Y301502D01*
X187813Y301553D01*
X187936Y301601D01*
X188060Y301645D01*
X188186Y301685D01*
X188312Y301722D01*
X188440Y301755D01*
X188568Y301784D01*
X188698Y301809D01*
X188828Y301830D01*
X188958Y301848D01*
X189089Y301861D01*
X189221Y301871D01*
X189352Y301877D01*
X189484Y301879D01*
X196596Y301879D01*
X196728Y301877D01*
X196859Y301871D01*
X196991Y301861D01*
X197122Y301848D01*
X197252Y301830D01*
X197382Y301809D01*
X197512Y301784D01*
X197640Y301755D01*
X197768Y301722D01*
X197894Y301685D01*
X198020Y301645D01*
X198144Y301601D01*
X198267Y301553D01*
X198388Y301502D01*
X198508Y301447D01*
X198626Y301389D01*
X198742Y301327D01*
X198856Y301261D01*
X198969Y301193D01*
X199079Y301121D01*
X199187Y301046D01*
X199293Y300967D01*
X199397Y300886D01*
X199498Y300801D01*
X199596Y300714D01*
X199692Y300623D01*
X199785Y300530D01*
X199876Y300434D01*
X199963Y300336D01*
X200048Y300235D01*
X200129Y300131D01*
X200208Y300025D01*
X200283Y299917D01*
X200355Y299807D01*
X200423Y299694D01*
X200489Y299580D01*
X200551Y299464D01*
X200609Y299346D01*
X200664Y299226D01*
X200715Y299105D01*
X200763Y298982D01*
X200807Y298858D01*
X200847Y298732D01*
X200884Y298606D01*
X200917Y298478D01*
X200946Y298350D01*
X200971Y298220D01*
X200992Y298090D01*
X201010Y297960D01*
X201023Y297829D01*
X201033Y297697D01*
X201039Y297566D01*
X201041Y297434D01*
X201039Y297302D01*
X201033Y297171D01*
X201023Y297039D01*
X201010Y296908D01*
X200992Y296778D01*
X200971Y296648D01*
X200946Y296518D01*
X200917Y296390D01*
X200884Y296262D01*
X200847Y296136D01*
X200807Y296010D01*
X200763Y295886D01*
X200715Y295763D01*
X200664Y295642D01*
X200609Y295522D01*
X200551Y295404D01*
X200489Y295288D01*
X200423Y295174D01*
X200355Y295061D01*
X200283Y294951D01*
X200208Y294843D01*
X200129Y294737D01*
X200048Y294633D01*
X199963Y294532D01*
X199876Y294434D01*
X199785Y294338D01*
X199692Y294245D01*
X199596Y294154D01*
X199498Y294067D01*
X199397Y293982D01*
X199293Y293901D01*
X199187Y293822D01*
X199079Y293747D01*
X198969Y293675D01*
X198856Y293607D01*
X198742Y293541D01*
X198626Y293479D01*
X198508Y293421D01*
X198388Y293366D01*
X198267Y293315D01*
X198144Y293267D01*
X198020Y293223D01*
X197894Y293183D01*
X197768Y293146D01*
X197640Y293113D01*
X197512Y293084D01*
X197382Y293059D01*
X197252Y293038D01*
X197122Y293020D01*
X196991Y293007D01*
X196859Y292997D01*
X196728Y292991D01*
X196596Y292989D01*
X197485Y300101D02*
X201041Y303657D01*
X188595Y308220D02*
X185039Y312665D01*
X201041Y312665D01*
X201041Y308220D02*
X201041Y317110D01*
D14*
X393700Y350520D02*
X393702Y350620D01*
X393708Y350719D01*
X393718Y350819D01*
X393731Y350917D01*
X393749Y351016D01*
X393770Y351113D01*
X393795Y351209D01*
X393824Y351305D01*
X393857Y351399D01*
X393893Y351492D01*
X393933Y351583D01*
X393977Y351673D01*
X394024Y351761D01*
X394074Y351847D01*
X394128Y351931D01*
X394185Y352013D01*
X394245Y352092D01*
X394309Y352170D01*
X394375Y352244D01*
X394444Y352316D01*
X394516Y352385D01*
X394590Y352451D01*
X394668Y352515D01*
X394747Y352575D01*
X394829Y352632D01*
X394913Y352686D01*
X394999Y352736D01*
X395087Y352783D01*
X395177Y352827D01*
X395268Y352867D01*
X395361Y352903D01*
X395455Y352936D01*
X395551Y352965D01*
X395647Y352990D01*
X395744Y353011D01*
X395843Y353029D01*
X395941Y353042D01*
X396041Y353052D01*
X396140Y353058D01*
X396240Y353060D01*
X393700Y335280D02*
X393702Y335180D01*
X393708Y335081D01*
X393718Y334981D01*
X393731Y334883D01*
X393749Y334784D01*
X393770Y334687D01*
X393795Y334591D01*
X393824Y334495D01*
X393857Y334401D01*
X393893Y334308D01*
X393933Y334217D01*
X393977Y334127D01*
X394024Y334039D01*
X394074Y333953D01*
X394128Y333869D01*
X394185Y333787D01*
X394245Y333708D01*
X394309Y333630D01*
X394375Y333556D01*
X394444Y333484D01*
X394516Y333415D01*
X394590Y333349D01*
X394668Y333285D01*
X394747Y333225D01*
X394829Y333168D01*
X394913Y333114D01*
X394999Y333064D01*
X395087Y333017D01*
X395177Y332973D01*
X395268Y332933D01*
X395361Y332897D01*
X395455Y332864D01*
X395551Y332835D01*
X395647Y332810D01*
X395744Y332789D01*
X395843Y332771D01*
X395941Y332758D01*
X396041Y332748D01*
X396140Y332742D01*
X396240Y332740D01*
X441960Y332740D02*
X442060Y332742D01*
X442159Y332748D01*
X442259Y332758D01*
X442357Y332771D01*
X442456Y332789D01*
X442553Y332810D01*
X442649Y332835D01*
X442745Y332864D01*
X442839Y332897D01*
X442932Y332933D01*
X443023Y332973D01*
X443113Y333017D01*
X443201Y333064D01*
X443287Y333114D01*
X443371Y333168D01*
X443453Y333225D01*
X443532Y333285D01*
X443610Y333349D01*
X443684Y333415D01*
X443756Y333484D01*
X443825Y333556D01*
X443891Y333630D01*
X443955Y333708D01*
X444015Y333787D01*
X444072Y333869D01*
X444126Y333953D01*
X444176Y334039D01*
X444223Y334127D01*
X444267Y334217D01*
X444307Y334308D01*
X444343Y334401D01*
X444376Y334495D01*
X444405Y334591D01*
X444430Y334687D01*
X444451Y334784D01*
X444469Y334883D01*
X444482Y334981D01*
X444492Y335081D01*
X444498Y335180D01*
X444500Y335280D01*
X444500Y350520D02*
X444498Y350620D01*
X444492Y350719D01*
X444482Y350819D01*
X444469Y350917D01*
X444451Y351016D01*
X444430Y351113D01*
X444405Y351209D01*
X444376Y351305D01*
X444343Y351399D01*
X444307Y351492D01*
X444267Y351583D01*
X444223Y351673D01*
X444176Y351761D01*
X444126Y351847D01*
X444072Y351931D01*
X444015Y352013D01*
X443955Y352092D01*
X443891Y352170D01*
X443825Y352244D01*
X443756Y352316D01*
X443684Y352385D01*
X443610Y352451D01*
X443532Y352515D01*
X443453Y352575D01*
X443371Y352632D01*
X443287Y352686D01*
X443201Y352736D01*
X443113Y352783D01*
X443023Y352827D01*
X442932Y352867D01*
X442839Y352903D01*
X442745Y352936D01*
X442649Y352965D01*
X442553Y352990D01*
X442456Y353011D01*
X442357Y353029D01*
X442259Y353042D01*
X442159Y353052D01*
X442060Y353058D01*
X441960Y353060D01*
X393700Y350520D02*
X393700Y335280D01*
X396240Y353060D02*
X400050Y353060D01*
X401320Y351790D01*
X400050Y332740D02*
X396240Y332740D01*
X400050Y332740D02*
X401320Y334010D01*
X436880Y351790D02*
X438150Y353060D01*
X436880Y351790D02*
X401320Y351790D01*
X436880Y334010D02*
X438150Y332740D01*
X436880Y334010D02*
X401320Y334010D01*
X438150Y353060D02*
X441960Y353060D01*
X441960Y332740D02*
X438150Y332740D01*
X444500Y335280D02*
X444500Y350520D01*
D22*
X446405Y342900D03*
X391795Y342900D03*
D13*
X394208Y356362D02*
X394208Y365252D01*
X396677Y365252D01*
X396775Y365250D01*
X396873Y365244D01*
X396971Y365234D01*
X397068Y365221D01*
X397165Y365203D01*
X397261Y365182D01*
X397355Y365157D01*
X397449Y365128D01*
X397542Y365096D01*
X397633Y365059D01*
X397723Y365020D01*
X397811Y364976D01*
X397897Y364929D01*
X397982Y364879D01*
X398064Y364826D01*
X398144Y364769D01*
X398222Y364709D01*
X398297Y364646D01*
X398370Y364580D01*
X398440Y364511D01*
X398507Y364440D01*
X398572Y364366D01*
X398633Y364289D01*
X398692Y364210D01*
X398747Y364129D01*
X398799Y364046D01*
X398847Y363960D01*
X398892Y363873D01*
X398934Y363784D01*
X398972Y363694D01*
X399006Y363602D01*
X399037Y363509D01*
X399064Y363414D01*
X399087Y363319D01*
X399107Y363222D01*
X399122Y363126D01*
X399134Y363028D01*
X399142Y362930D01*
X399146Y362832D01*
X399146Y362734D01*
X399142Y362636D01*
X399134Y362538D01*
X399122Y362440D01*
X399107Y362344D01*
X399087Y362247D01*
X399064Y362152D01*
X399037Y362057D01*
X399006Y361964D01*
X398972Y361872D01*
X398934Y361782D01*
X398892Y361693D01*
X398847Y361606D01*
X398799Y361520D01*
X398747Y361437D01*
X398692Y361356D01*
X398633Y361277D01*
X398572Y361200D01*
X398507Y361126D01*
X398440Y361055D01*
X398370Y360986D01*
X398297Y360920D01*
X398222Y360857D01*
X398144Y360797D01*
X398064Y360740D01*
X397982Y360687D01*
X397897Y360637D01*
X397811Y360590D01*
X397723Y360546D01*
X397633Y360507D01*
X397542Y360470D01*
X397449Y360438D01*
X397355Y360409D01*
X397261Y360384D01*
X397165Y360363D01*
X397068Y360345D01*
X396971Y360332D01*
X396873Y360322D01*
X396775Y360316D01*
X396677Y360314D01*
X396677Y360313D02*
X394208Y360313D01*
X397171Y360313D02*
X399147Y356362D01*
X403058Y356362D02*
X405527Y356362D01*
X405625Y356364D01*
X405723Y356370D01*
X405821Y356380D01*
X405918Y356393D01*
X406015Y356411D01*
X406111Y356432D01*
X406205Y356457D01*
X406299Y356486D01*
X406392Y356518D01*
X406483Y356555D01*
X406573Y356594D01*
X406661Y356638D01*
X406747Y356685D01*
X406832Y356735D01*
X406914Y356788D01*
X406994Y356845D01*
X407072Y356905D01*
X407147Y356968D01*
X407220Y357034D01*
X407290Y357103D01*
X407357Y357174D01*
X407422Y357248D01*
X407483Y357325D01*
X407542Y357404D01*
X407597Y357485D01*
X407649Y357568D01*
X407697Y357654D01*
X407742Y357741D01*
X407784Y357830D01*
X407822Y357920D01*
X407856Y358012D01*
X407887Y358105D01*
X407914Y358200D01*
X407937Y358295D01*
X407957Y358392D01*
X407972Y358488D01*
X407984Y358586D01*
X407992Y358684D01*
X407996Y358782D01*
X407996Y358880D01*
X407992Y358978D01*
X407984Y359076D01*
X407972Y359174D01*
X407957Y359270D01*
X407937Y359367D01*
X407914Y359462D01*
X407887Y359557D01*
X407856Y359650D01*
X407822Y359742D01*
X407784Y359832D01*
X407742Y359921D01*
X407697Y360008D01*
X407649Y360094D01*
X407597Y360177D01*
X407542Y360258D01*
X407483Y360337D01*
X407422Y360414D01*
X407357Y360488D01*
X407290Y360559D01*
X407220Y360628D01*
X407147Y360694D01*
X407072Y360757D01*
X406994Y360817D01*
X406914Y360874D01*
X406832Y360927D01*
X406747Y360977D01*
X406661Y361024D01*
X406573Y361068D01*
X406483Y361107D01*
X406392Y361144D01*
X406299Y361176D01*
X406205Y361205D01*
X406111Y361230D01*
X406015Y361251D01*
X405918Y361269D01*
X405821Y361282D01*
X405723Y361292D01*
X405625Y361298D01*
X405527Y361300D01*
X406021Y365252D02*
X403058Y365252D01*
X406021Y365252D02*
X406108Y365250D01*
X406196Y365244D01*
X406283Y365235D01*
X406369Y365221D01*
X406455Y365204D01*
X406539Y365183D01*
X406623Y365158D01*
X406706Y365129D01*
X406787Y365097D01*
X406867Y365062D01*
X406945Y365023D01*
X407022Y364980D01*
X407096Y364934D01*
X407168Y364885D01*
X407238Y364833D01*
X407306Y364777D01*
X407371Y364719D01*
X407434Y364658D01*
X407493Y364594D01*
X407550Y364527D01*
X407604Y364459D01*
X407655Y364387D01*
X407702Y364314D01*
X407747Y364239D01*
X407788Y364161D01*
X407825Y364082D01*
X407859Y364002D01*
X407889Y363920D01*
X407916Y363837D01*
X407939Y363752D01*
X407958Y363667D01*
X407973Y363581D01*
X407985Y363494D01*
X407993Y363407D01*
X407997Y363320D01*
X407997Y363232D01*
X407993Y363145D01*
X407985Y363058D01*
X407973Y362971D01*
X407958Y362885D01*
X407939Y362800D01*
X407916Y362715D01*
X407889Y362632D01*
X407859Y362550D01*
X407825Y362470D01*
X407788Y362391D01*
X407747Y362313D01*
X407702Y362238D01*
X407655Y362165D01*
X407604Y362093D01*
X407550Y362025D01*
X407493Y361958D01*
X407434Y361894D01*
X407371Y361833D01*
X407306Y361775D01*
X407238Y361719D01*
X407168Y361667D01*
X407096Y361618D01*
X407022Y361572D01*
X406945Y361529D01*
X406867Y361490D01*
X406787Y361455D01*
X406706Y361423D01*
X406623Y361394D01*
X406539Y361369D01*
X406455Y361348D01*
X406369Y361331D01*
X406283Y361317D01*
X406196Y361308D01*
X406108Y361302D01*
X406021Y361300D01*
X406021Y361301D02*
X404046Y361301D01*
D14*
X396240Y314960D02*
X396140Y314958D01*
X396041Y314952D01*
X395941Y314942D01*
X395843Y314929D01*
X395744Y314911D01*
X395647Y314890D01*
X395551Y314865D01*
X395455Y314836D01*
X395361Y314803D01*
X395268Y314767D01*
X395177Y314727D01*
X395087Y314683D01*
X394999Y314636D01*
X394913Y314586D01*
X394829Y314532D01*
X394747Y314475D01*
X394668Y314415D01*
X394590Y314351D01*
X394516Y314285D01*
X394444Y314216D01*
X394375Y314144D01*
X394309Y314070D01*
X394245Y313992D01*
X394185Y313913D01*
X394128Y313831D01*
X394074Y313747D01*
X394024Y313661D01*
X393977Y313573D01*
X393933Y313483D01*
X393893Y313392D01*
X393857Y313299D01*
X393824Y313205D01*
X393795Y313109D01*
X393770Y313013D01*
X393749Y312916D01*
X393731Y312817D01*
X393718Y312719D01*
X393708Y312619D01*
X393702Y312520D01*
X393700Y312420D01*
X393700Y297180D02*
X393702Y297080D01*
X393708Y296981D01*
X393718Y296881D01*
X393731Y296783D01*
X393749Y296684D01*
X393770Y296587D01*
X393795Y296491D01*
X393824Y296395D01*
X393857Y296301D01*
X393893Y296208D01*
X393933Y296117D01*
X393977Y296027D01*
X394024Y295939D01*
X394074Y295853D01*
X394128Y295769D01*
X394185Y295687D01*
X394245Y295608D01*
X394309Y295530D01*
X394375Y295456D01*
X394444Y295384D01*
X394516Y295315D01*
X394590Y295249D01*
X394668Y295185D01*
X394747Y295125D01*
X394829Y295068D01*
X394913Y295014D01*
X394999Y294964D01*
X395087Y294917D01*
X395177Y294873D01*
X395268Y294833D01*
X395361Y294797D01*
X395455Y294764D01*
X395551Y294735D01*
X395647Y294710D01*
X395744Y294689D01*
X395843Y294671D01*
X395941Y294658D01*
X396041Y294648D01*
X396140Y294642D01*
X396240Y294640D01*
X441960Y294640D02*
X442060Y294642D01*
X442159Y294648D01*
X442259Y294658D01*
X442357Y294671D01*
X442456Y294689D01*
X442553Y294710D01*
X442649Y294735D01*
X442745Y294764D01*
X442839Y294797D01*
X442932Y294833D01*
X443023Y294873D01*
X443113Y294917D01*
X443201Y294964D01*
X443287Y295014D01*
X443371Y295068D01*
X443453Y295125D01*
X443532Y295185D01*
X443610Y295249D01*
X443684Y295315D01*
X443756Y295384D01*
X443825Y295456D01*
X443891Y295530D01*
X443955Y295608D01*
X444015Y295687D01*
X444072Y295769D01*
X444126Y295853D01*
X444176Y295939D01*
X444223Y296027D01*
X444267Y296117D01*
X444307Y296208D01*
X444343Y296301D01*
X444376Y296395D01*
X444405Y296491D01*
X444430Y296587D01*
X444451Y296684D01*
X444469Y296783D01*
X444482Y296881D01*
X444492Y296981D01*
X444498Y297080D01*
X444500Y297180D01*
X444500Y312420D02*
X444498Y312520D01*
X444492Y312619D01*
X444482Y312719D01*
X444469Y312817D01*
X444451Y312916D01*
X444430Y313013D01*
X444405Y313109D01*
X444376Y313205D01*
X444343Y313299D01*
X444307Y313392D01*
X444267Y313483D01*
X444223Y313573D01*
X444176Y313661D01*
X444126Y313747D01*
X444072Y313831D01*
X444015Y313913D01*
X443955Y313992D01*
X443891Y314070D01*
X443825Y314144D01*
X443756Y314216D01*
X443684Y314285D01*
X443610Y314351D01*
X443532Y314415D01*
X443453Y314475D01*
X443371Y314532D01*
X443287Y314586D01*
X443201Y314636D01*
X443113Y314683D01*
X443023Y314727D01*
X442932Y314767D01*
X442839Y314803D01*
X442745Y314836D01*
X442649Y314865D01*
X442553Y314890D01*
X442456Y314911D01*
X442357Y314929D01*
X442259Y314942D01*
X442159Y314952D01*
X442060Y314958D01*
X441960Y314960D01*
X393700Y312420D02*
X393700Y297180D01*
X396240Y314960D02*
X400050Y314960D01*
X401320Y313690D01*
X400050Y294640D02*
X396240Y294640D01*
X400050Y294640D02*
X401320Y295910D01*
X436880Y313690D02*
X438150Y314960D01*
X436880Y313690D02*
X401320Y313690D01*
X436880Y295910D02*
X438150Y294640D01*
X436880Y295910D02*
X401320Y295910D01*
X438150Y314960D02*
X441960Y314960D01*
X441960Y294640D02*
X438150Y294640D01*
X444500Y297180D02*
X444500Y312420D01*
D22*
X446405Y304800D03*
X391795Y304800D03*
D13*
X394208Y318262D02*
X394208Y327152D01*
X396677Y327152D01*
X396775Y327150D01*
X396873Y327144D01*
X396971Y327134D01*
X397068Y327121D01*
X397165Y327103D01*
X397261Y327082D01*
X397355Y327057D01*
X397449Y327028D01*
X397542Y326996D01*
X397633Y326959D01*
X397723Y326920D01*
X397811Y326876D01*
X397897Y326829D01*
X397982Y326779D01*
X398064Y326726D01*
X398144Y326669D01*
X398222Y326609D01*
X398297Y326546D01*
X398370Y326480D01*
X398440Y326411D01*
X398507Y326340D01*
X398572Y326266D01*
X398633Y326189D01*
X398692Y326110D01*
X398747Y326029D01*
X398799Y325946D01*
X398847Y325860D01*
X398892Y325773D01*
X398934Y325684D01*
X398972Y325594D01*
X399006Y325502D01*
X399037Y325409D01*
X399064Y325314D01*
X399087Y325219D01*
X399107Y325122D01*
X399122Y325026D01*
X399134Y324928D01*
X399142Y324830D01*
X399146Y324732D01*
X399146Y324634D01*
X399142Y324536D01*
X399134Y324438D01*
X399122Y324340D01*
X399107Y324244D01*
X399087Y324147D01*
X399064Y324052D01*
X399037Y323957D01*
X399006Y323864D01*
X398972Y323772D01*
X398934Y323682D01*
X398892Y323593D01*
X398847Y323506D01*
X398799Y323420D01*
X398747Y323337D01*
X398692Y323256D01*
X398633Y323177D01*
X398572Y323100D01*
X398507Y323026D01*
X398440Y322955D01*
X398370Y322886D01*
X398297Y322820D01*
X398222Y322757D01*
X398144Y322697D01*
X398064Y322640D01*
X397982Y322587D01*
X397897Y322537D01*
X397811Y322490D01*
X397723Y322446D01*
X397633Y322407D01*
X397542Y322370D01*
X397449Y322338D01*
X397355Y322309D01*
X397261Y322284D01*
X397165Y322263D01*
X397068Y322245D01*
X396971Y322232D01*
X396873Y322222D01*
X396775Y322216D01*
X396677Y322214D01*
X396677Y322213D02*
X394208Y322213D01*
X397171Y322213D02*
X399147Y318262D01*
X403058Y320238D02*
X405033Y327152D01*
X403058Y320238D02*
X407997Y320238D01*
X406515Y322213D02*
X406515Y318262D01*
D14*
X571500Y25400D02*
X596900Y25400D01*
X596900Y48260D01*
X594360Y50800D01*
X596900Y53340D01*
X596900Y73660D01*
X594360Y76200D01*
X596900Y78740D01*
X596900Y99060D01*
X594360Y101600D01*
X596900Y104140D01*
X596900Y124460D01*
X594360Y127000D01*
X596900Y129540D01*
X574040Y127000D02*
X571500Y129540D01*
X574040Y127000D02*
X571500Y124460D01*
X571500Y104140D01*
X574040Y101600D01*
X571500Y99060D01*
X571500Y78740D01*
X574040Y76200D01*
X571500Y73660D01*
X571500Y53340D01*
X574040Y50800D01*
X571500Y48260D01*
X571500Y25400D01*
X596900Y129540D02*
X596900Y149860D01*
X594360Y152400D01*
X596900Y154940D01*
X596900Y175260D01*
X594360Y177800D01*
X596900Y180340D01*
X574040Y177800D02*
X571500Y180340D01*
X574040Y177800D02*
X571500Y175260D01*
X571500Y154940D01*
X574040Y152400D01*
X571500Y149860D01*
X571500Y129540D01*
X571500Y205740D02*
X571500Y228600D01*
X596900Y228600D01*
X596900Y205740D01*
X574040Y203200D02*
X571500Y200660D01*
X574040Y203200D02*
X571500Y205740D01*
X571500Y200660D02*
X571500Y180340D01*
X594360Y203200D02*
X596900Y205740D01*
X594360Y203200D02*
X596900Y200660D01*
X596900Y180340D01*
D10*
X556895Y36830D02*
X559435Y33655D01*
X556895Y36830D02*
X568325Y36830D01*
X568325Y33655D02*
X568325Y40005D01*
X565150Y211455D02*
X565039Y211457D01*
X564929Y211463D01*
X564818Y211472D01*
X564708Y211486D01*
X564599Y211503D01*
X564490Y211524D01*
X564382Y211549D01*
X564275Y211578D01*
X564169Y211610D01*
X564064Y211646D01*
X563961Y211686D01*
X563859Y211729D01*
X563758Y211776D01*
X563659Y211827D01*
X563563Y211880D01*
X563468Y211937D01*
X563375Y211998D01*
X563284Y212061D01*
X563195Y212128D01*
X563109Y212198D01*
X563026Y212271D01*
X562944Y212346D01*
X562866Y212424D01*
X562791Y212506D01*
X562718Y212589D01*
X562648Y212675D01*
X562581Y212764D01*
X562518Y212855D01*
X562457Y212948D01*
X562400Y213043D01*
X562347Y213139D01*
X562296Y213238D01*
X562249Y213339D01*
X562206Y213441D01*
X562166Y213544D01*
X562130Y213649D01*
X562098Y213755D01*
X562069Y213862D01*
X562044Y213970D01*
X562023Y214079D01*
X562006Y214188D01*
X561992Y214298D01*
X561983Y214409D01*
X561977Y214519D01*
X561975Y214630D01*
X561977Y214741D01*
X561983Y214851D01*
X561992Y214962D01*
X562006Y215072D01*
X562023Y215181D01*
X562044Y215290D01*
X562069Y215398D01*
X562098Y215505D01*
X562130Y215611D01*
X562166Y215716D01*
X562206Y215819D01*
X562249Y215921D01*
X562296Y216022D01*
X562347Y216121D01*
X562400Y216218D01*
X562457Y216312D01*
X562518Y216405D01*
X562581Y216496D01*
X562648Y216585D01*
X562718Y216671D01*
X562791Y216754D01*
X562866Y216836D01*
X562944Y216914D01*
X563026Y216989D01*
X563109Y217062D01*
X563195Y217132D01*
X563284Y217199D01*
X563375Y217262D01*
X563468Y217323D01*
X563563Y217380D01*
X563659Y217433D01*
X563758Y217484D01*
X563859Y217531D01*
X563961Y217574D01*
X564064Y217614D01*
X564169Y217650D01*
X564275Y217682D01*
X564382Y217711D01*
X564490Y217736D01*
X564599Y217757D01*
X564708Y217774D01*
X564818Y217788D01*
X564929Y217797D01*
X565039Y217803D01*
X565150Y217805D01*
X565261Y217803D01*
X565371Y217797D01*
X565482Y217788D01*
X565592Y217774D01*
X565701Y217757D01*
X565810Y217736D01*
X565918Y217711D01*
X566025Y217682D01*
X566131Y217650D01*
X566236Y217614D01*
X566339Y217574D01*
X566441Y217531D01*
X566542Y217484D01*
X566641Y217433D01*
X566738Y217380D01*
X566832Y217323D01*
X566925Y217262D01*
X567016Y217199D01*
X567105Y217132D01*
X567191Y217062D01*
X567274Y216989D01*
X567356Y216914D01*
X567434Y216836D01*
X567509Y216754D01*
X567582Y216671D01*
X567652Y216585D01*
X567719Y216496D01*
X567782Y216405D01*
X567843Y216312D01*
X567900Y216217D01*
X567953Y216121D01*
X568004Y216022D01*
X568051Y215921D01*
X568094Y215819D01*
X568134Y215716D01*
X568170Y215611D01*
X568202Y215505D01*
X568231Y215398D01*
X568256Y215290D01*
X568277Y215181D01*
X568294Y215072D01*
X568308Y214962D01*
X568317Y214851D01*
X568323Y214741D01*
X568325Y214630D01*
X568323Y214519D01*
X568317Y214409D01*
X568308Y214298D01*
X568294Y214188D01*
X568277Y214079D01*
X568256Y213970D01*
X568231Y213862D01*
X568202Y213755D01*
X568170Y213649D01*
X568134Y213544D01*
X568094Y213441D01*
X568051Y213339D01*
X568004Y213238D01*
X567953Y213139D01*
X567900Y213042D01*
X567843Y212948D01*
X567782Y212855D01*
X567719Y212764D01*
X567652Y212675D01*
X567582Y212589D01*
X567509Y212506D01*
X567434Y212424D01*
X567356Y212346D01*
X567274Y212271D01*
X567191Y212198D01*
X567105Y212128D01*
X567016Y212061D01*
X566925Y211998D01*
X566832Y211937D01*
X566738Y211880D01*
X566641Y211827D01*
X566542Y211776D01*
X566441Y211729D01*
X566339Y211686D01*
X566236Y211646D01*
X566131Y211610D01*
X566025Y211578D01*
X565918Y211549D01*
X565810Y211524D01*
X565701Y211503D01*
X565592Y211486D01*
X565482Y211472D01*
X565371Y211463D01*
X565261Y211457D01*
X565150Y211455D01*
X559435Y212090D02*
X559335Y212092D01*
X559236Y212098D01*
X559136Y212108D01*
X559038Y212121D01*
X558939Y212139D01*
X558842Y212160D01*
X558746Y212185D01*
X558650Y212214D01*
X558556Y212247D01*
X558463Y212283D01*
X558372Y212323D01*
X558282Y212367D01*
X558194Y212414D01*
X558108Y212464D01*
X558024Y212518D01*
X557942Y212575D01*
X557863Y212635D01*
X557785Y212699D01*
X557711Y212765D01*
X557639Y212834D01*
X557570Y212906D01*
X557504Y212980D01*
X557440Y213058D01*
X557380Y213137D01*
X557323Y213219D01*
X557269Y213303D01*
X557219Y213389D01*
X557172Y213477D01*
X557128Y213567D01*
X557088Y213658D01*
X557052Y213751D01*
X557019Y213845D01*
X556990Y213941D01*
X556965Y214037D01*
X556944Y214134D01*
X556926Y214233D01*
X556913Y214331D01*
X556903Y214431D01*
X556897Y214530D01*
X556895Y214630D01*
X556897Y214730D01*
X556903Y214829D01*
X556913Y214929D01*
X556926Y215027D01*
X556944Y215126D01*
X556965Y215223D01*
X556990Y215319D01*
X557019Y215415D01*
X557052Y215509D01*
X557088Y215602D01*
X557128Y215693D01*
X557172Y215783D01*
X557219Y215871D01*
X557269Y215957D01*
X557323Y216041D01*
X557380Y216123D01*
X557440Y216202D01*
X557504Y216280D01*
X557570Y216354D01*
X557639Y216426D01*
X557711Y216495D01*
X557785Y216561D01*
X557863Y216625D01*
X557942Y216685D01*
X558024Y216742D01*
X558108Y216796D01*
X558194Y216846D01*
X558282Y216893D01*
X558372Y216937D01*
X558463Y216977D01*
X558556Y217013D01*
X558650Y217046D01*
X558746Y217075D01*
X558842Y217100D01*
X558939Y217121D01*
X559038Y217139D01*
X559136Y217152D01*
X559236Y217162D01*
X559335Y217168D01*
X559435Y217170D01*
X559535Y217168D01*
X559634Y217162D01*
X559734Y217152D01*
X559832Y217139D01*
X559931Y217121D01*
X560028Y217100D01*
X560124Y217075D01*
X560220Y217046D01*
X560314Y217013D01*
X560407Y216977D01*
X560498Y216937D01*
X560588Y216893D01*
X560676Y216846D01*
X560762Y216796D01*
X560846Y216742D01*
X560928Y216685D01*
X561007Y216625D01*
X561085Y216561D01*
X561159Y216495D01*
X561231Y216426D01*
X561300Y216354D01*
X561366Y216280D01*
X561430Y216202D01*
X561490Y216123D01*
X561547Y216041D01*
X561601Y215957D01*
X561651Y215871D01*
X561698Y215783D01*
X561742Y215693D01*
X561782Y215602D01*
X561818Y215509D01*
X561851Y215415D01*
X561880Y215319D01*
X561905Y215223D01*
X561926Y215126D01*
X561944Y215027D01*
X561957Y214929D01*
X561967Y214829D01*
X561973Y214730D01*
X561975Y214630D01*
X561973Y214530D01*
X561967Y214431D01*
X561957Y214331D01*
X561944Y214233D01*
X561926Y214134D01*
X561905Y214037D01*
X561880Y213941D01*
X561851Y213845D01*
X561818Y213751D01*
X561782Y213658D01*
X561742Y213567D01*
X561698Y213477D01*
X561651Y213389D01*
X561601Y213303D01*
X561547Y213219D01*
X561490Y213137D01*
X561430Y213058D01*
X561366Y212980D01*
X561300Y212906D01*
X561231Y212834D01*
X561159Y212765D01*
X561085Y212699D01*
X561007Y212635D01*
X560928Y212575D01*
X560846Y212518D01*
X560762Y212464D01*
X560676Y212414D01*
X560588Y212367D01*
X560498Y212323D01*
X560407Y212283D01*
X560314Y212247D01*
X560220Y212214D01*
X560124Y212185D01*
X560028Y212160D01*
X559931Y212139D01*
X559832Y212121D01*
X559734Y212108D01*
X559634Y212098D01*
X559535Y212092D01*
X559435Y212090D01*
X555625Y67310D02*
X567055Y67310D01*
X555625Y64135D02*
X555625Y70485D01*
X558800Y74803D02*
X563880Y74803D01*
X558800Y74803D02*
X558689Y74805D01*
X558579Y74811D01*
X558468Y74820D01*
X558358Y74834D01*
X558249Y74851D01*
X558140Y74872D01*
X558032Y74897D01*
X557925Y74926D01*
X557819Y74958D01*
X557714Y74994D01*
X557611Y75034D01*
X557509Y75077D01*
X557408Y75124D01*
X557309Y75175D01*
X557213Y75228D01*
X557118Y75285D01*
X557025Y75346D01*
X556934Y75409D01*
X556845Y75476D01*
X556759Y75546D01*
X556676Y75619D01*
X556594Y75694D01*
X556516Y75772D01*
X556441Y75854D01*
X556368Y75937D01*
X556298Y76023D01*
X556231Y76112D01*
X556168Y76203D01*
X556107Y76296D01*
X556050Y76390D01*
X555997Y76487D01*
X555946Y76586D01*
X555899Y76687D01*
X555856Y76789D01*
X555816Y76892D01*
X555780Y76997D01*
X555748Y77103D01*
X555719Y77210D01*
X555694Y77318D01*
X555673Y77427D01*
X555656Y77536D01*
X555642Y77646D01*
X555633Y77757D01*
X555627Y77867D01*
X555625Y77978D01*
X555627Y78089D01*
X555633Y78199D01*
X555642Y78310D01*
X555656Y78420D01*
X555673Y78529D01*
X555694Y78638D01*
X555719Y78746D01*
X555748Y78853D01*
X555780Y78959D01*
X555816Y79064D01*
X555856Y79167D01*
X555899Y79269D01*
X555946Y79370D01*
X555997Y79469D01*
X556050Y79566D01*
X556107Y79660D01*
X556168Y79753D01*
X556231Y79844D01*
X556298Y79933D01*
X556368Y80019D01*
X556441Y80102D01*
X556516Y80184D01*
X556594Y80262D01*
X556676Y80337D01*
X556759Y80410D01*
X556845Y80480D01*
X556934Y80547D01*
X557025Y80610D01*
X557118Y80671D01*
X557213Y80728D01*
X557309Y80781D01*
X557408Y80832D01*
X557509Y80879D01*
X557611Y80922D01*
X557714Y80962D01*
X557819Y80998D01*
X557925Y81030D01*
X558032Y81059D01*
X558140Y81084D01*
X558249Y81105D01*
X558358Y81122D01*
X558468Y81136D01*
X558579Y81145D01*
X558689Y81151D01*
X558800Y81153D01*
X563880Y81153D01*
X563991Y81151D01*
X564101Y81145D01*
X564212Y81136D01*
X564322Y81122D01*
X564431Y81105D01*
X564540Y81084D01*
X564648Y81059D01*
X564755Y81030D01*
X564861Y80998D01*
X564966Y80962D01*
X565069Y80922D01*
X565171Y80879D01*
X565272Y80832D01*
X565371Y80781D01*
X565468Y80728D01*
X565562Y80671D01*
X565655Y80610D01*
X565746Y80547D01*
X565835Y80480D01*
X565921Y80410D01*
X566004Y80337D01*
X566086Y80262D01*
X566164Y80184D01*
X566239Y80102D01*
X566312Y80019D01*
X566382Y79933D01*
X566449Y79844D01*
X566512Y79753D01*
X566573Y79660D01*
X566630Y79565D01*
X566683Y79469D01*
X566734Y79370D01*
X566781Y79269D01*
X566824Y79167D01*
X566864Y79064D01*
X566900Y78959D01*
X566932Y78853D01*
X566961Y78746D01*
X566986Y78638D01*
X567007Y78529D01*
X567024Y78420D01*
X567038Y78310D01*
X567047Y78199D01*
X567053Y78089D01*
X567055Y77978D01*
X567053Y77867D01*
X567047Y77757D01*
X567038Y77646D01*
X567024Y77536D01*
X567007Y77427D01*
X566986Y77318D01*
X566961Y77210D01*
X566932Y77103D01*
X566900Y76997D01*
X566864Y76892D01*
X566824Y76789D01*
X566781Y76687D01*
X566734Y76586D01*
X566683Y76487D01*
X566630Y76390D01*
X566573Y76296D01*
X566512Y76203D01*
X566449Y76112D01*
X566382Y76023D01*
X566312Y75937D01*
X566239Y75854D01*
X566164Y75772D01*
X566086Y75694D01*
X566004Y75619D01*
X565921Y75546D01*
X565835Y75476D01*
X565746Y75409D01*
X565655Y75346D01*
X565562Y75285D01*
X565468Y75228D01*
X565371Y75175D01*
X565272Y75124D01*
X565171Y75077D01*
X565069Y75034D01*
X564966Y74994D01*
X564861Y74958D01*
X564755Y74926D01*
X564648Y74897D01*
X564540Y74872D01*
X564431Y74851D01*
X564322Y74834D01*
X564212Y74820D01*
X564101Y74811D01*
X563991Y74805D01*
X563880Y74803D01*
X567055Y86741D02*
X555625Y86741D01*
X561975Y90551D01*
X555625Y94361D01*
X567055Y94361D01*
X567055Y102452D02*
X567055Y104992D01*
X567055Y102452D02*
X567053Y102352D01*
X567047Y102253D01*
X567037Y102153D01*
X567024Y102055D01*
X567006Y101956D01*
X566985Y101859D01*
X566960Y101763D01*
X566931Y101667D01*
X566898Y101573D01*
X566862Y101480D01*
X566822Y101389D01*
X566778Y101299D01*
X566731Y101211D01*
X566681Y101125D01*
X566627Y101041D01*
X566570Y100959D01*
X566510Y100880D01*
X566446Y100802D01*
X566380Y100728D01*
X566311Y100656D01*
X566239Y100587D01*
X566165Y100521D01*
X566087Y100457D01*
X566008Y100397D01*
X565926Y100340D01*
X565842Y100286D01*
X565756Y100236D01*
X565668Y100189D01*
X565578Y100145D01*
X565487Y100105D01*
X565394Y100069D01*
X565300Y100036D01*
X565204Y100007D01*
X565108Y99982D01*
X565011Y99961D01*
X564912Y99943D01*
X564814Y99930D01*
X564714Y99920D01*
X564615Y99914D01*
X564515Y99912D01*
X558165Y99912D01*
X558065Y99914D01*
X557966Y99920D01*
X557866Y99930D01*
X557768Y99943D01*
X557669Y99961D01*
X557572Y99982D01*
X557476Y100007D01*
X557380Y100036D01*
X557286Y100069D01*
X557193Y100105D01*
X557102Y100145D01*
X557012Y100189D01*
X556924Y100236D01*
X556838Y100286D01*
X556754Y100340D01*
X556672Y100397D01*
X556593Y100457D01*
X556515Y100521D01*
X556441Y100587D01*
X556369Y100656D01*
X556300Y100728D01*
X556234Y100802D01*
X556170Y100880D01*
X556110Y100959D01*
X556053Y101041D01*
X555999Y101125D01*
X555949Y101211D01*
X555902Y101299D01*
X555858Y101389D01*
X555818Y101480D01*
X555782Y101573D01*
X555749Y101667D01*
X555720Y101763D01*
X555695Y101859D01*
X555674Y101956D01*
X555656Y102055D01*
X555643Y102153D01*
X555633Y102253D01*
X555627Y102352D01*
X555625Y102452D01*
X555625Y104992D01*
X555625Y109855D02*
X563880Y109855D01*
X563991Y109857D01*
X564101Y109863D01*
X564212Y109872D01*
X564322Y109886D01*
X564431Y109903D01*
X564540Y109924D01*
X564648Y109949D01*
X564755Y109978D01*
X564861Y110010D01*
X564966Y110046D01*
X565069Y110086D01*
X565171Y110129D01*
X565272Y110176D01*
X565371Y110227D01*
X565468Y110280D01*
X565562Y110337D01*
X565655Y110398D01*
X565746Y110461D01*
X565835Y110528D01*
X565921Y110598D01*
X566004Y110671D01*
X566086Y110746D01*
X566164Y110824D01*
X566239Y110906D01*
X566312Y110989D01*
X566382Y111075D01*
X566449Y111164D01*
X566512Y111255D01*
X566573Y111348D01*
X566630Y111442D01*
X566683Y111539D01*
X566734Y111638D01*
X566781Y111739D01*
X566824Y111841D01*
X566864Y111944D01*
X566900Y112049D01*
X566932Y112155D01*
X566961Y112262D01*
X566986Y112370D01*
X567007Y112479D01*
X567024Y112588D01*
X567038Y112698D01*
X567047Y112809D01*
X567053Y112919D01*
X567055Y113030D01*
X567053Y113141D01*
X567047Y113251D01*
X567038Y113362D01*
X567024Y113472D01*
X567007Y113581D01*
X566986Y113690D01*
X566961Y113798D01*
X566932Y113905D01*
X566900Y114011D01*
X566864Y114116D01*
X566824Y114219D01*
X566781Y114321D01*
X566734Y114422D01*
X566683Y114521D01*
X566630Y114617D01*
X566573Y114712D01*
X566512Y114805D01*
X566449Y114896D01*
X566382Y114985D01*
X566312Y115071D01*
X566239Y115154D01*
X566164Y115236D01*
X566086Y115314D01*
X566004Y115389D01*
X565921Y115462D01*
X565835Y115532D01*
X565746Y115599D01*
X565655Y115662D01*
X565562Y115723D01*
X565468Y115780D01*
X565371Y115833D01*
X565272Y115884D01*
X565171Y115931D01*
X565069Y115974D01*
X564966Y116014D01*
X564861Y116050D01*
X564755Y116082D01*
X564648Y116111D01*
X564540Y116136D01*
X564431Y116157D01*
X564322Y116174D01*
X564212Y116188D01*
X564101Y116197D01*
X563991Y116203D01*
X563880Y116205D01*
X555625Y116205D01*
D14*
X85090Y138790D02*
X85090Y38970D01*
X175010Y38970D02*
X177040Y38970D01*
X177040Y138790D01*
X108970Y138790D02*
X85090Y138790D01*
X108970Y138790D02*
X108970Y122790D01*
X108970Y105010D02*
X108970Y72750D01*
X108970Y54970D02*
X108970Y38970D01*
X108970Y138790D02*
X175010Y138790D01*
X108970Y38970D02*
X85090Y38970D01*
X175010Y38970D02*
X175010Y138790D01*
X177040Y138790D01*
X175010Y38970D02*
X108970Y38970D01*
X156718Y113900D02*
X156720Y114042D01*
X156726Y114185D01*
X156736Y114327D01*
X156750Y114469D01*
X156768Y114610D01*
X156790Y114751D01*
X156816Y114891D01*
X156845Y115030D01*
X156879Y115169D01*
X156917Y115306D01*
X156958Y115443D01*
X157003Y115578D01*
X157052Y115712D01*
X157105Y115844D01*
X157161Y115975D01*
X157221Y116104D01*
X157285Y116232D01*
X157352Y116357D01*
X157423Y116481D01*
X157497Y116603D01*
X157574Y116722D01*
X157655Y116840D01*
X157739Y116955D01*
X157826Y117067D01*
X157917Y117177D01*
X158010Y117285D01*
X158107Y117390D01*
X158206Y117492D01*
X158308Y117591D01*
X158413Y117688D01*
X158521Y117781D01*
X158631Y117872D01*
X158743Y117959D01*
X158858Y118043D01*
X158976Y118124D01*
X159095Y118201D01*
X159217Y118275D01*
X159341Y118346D01*
X159466Y118413D01*
X159594Y118477D01*
X159723Y118537D01*
X159854Y118593D01*
X159986Y118646D01*
X160120Y118695D01*
X160255Y118740D01*
X160392Y118781D01*
X160529Y118819D01*
X160668Y118853D01*
X160807Y118882D01*
X160947Y118908D01*
X161088Y118930D01*
X161229Y118948D01*
X161371Y118962D01*
X161513Y118972D01*
X161656Y118978D01*
X161798Y118980D01*
X161940Y118978D01*
X162083Y118972D01*
X162225Y118962D01*
X162367Y118948D01*
X162508Y118930D01*
X162649Y118908D01*
X162789Y118882D01*
X162928Y118853D01*
X163067Y118819D01*
X163204Y118781D01*
X163341Y118740D01*
X163476Y118695D01*
X163610Y118646D01*
X163742Y118593D01*
X163873Y118537D01*
X164002Y118477D01*
X164130Y118413D01*
X164255Y118346D01*
X164379Y118275D01*
X164501Y118201D01*
X164620Y118124D01*
X164738Y118043D01*
X164853Y117959D01*
X164965Y117872D01*
X165075Y117781D01*
X165183Y117688D01*
X165288Y117591D01*
X165390Y117492D01*
X165489Y117390D01*
X165586Y117285D01*
X165679Y117177D01*
X165770Y117067D01*
X165857Y116955D01*
X165941Y116840D01*
X166022Y116722D01*
X166099Y116603D01*
X166173Y116481D01*
X166244Y116357D01*
X166311Y116232D01*
X166375Y116104D01*
X166435Y115975D01*
X166491Y115844D01*
X166544Y115712D01*
X166593Y115578D01*
X166638Y115443D01*
X166679Y115306D01*
X166717Y115169D01*
X166751Y115030D01*
X166780Y114891D01*
X166806Y114751D01*
X166828Y114610D01*
X166846Y114469D01*
X166860Y114327D01*
X166870Y114185D01*
X166876Y114042D01*
X166878Y113900D01*
X166876Y113758D01*
X166870Y113615D01*
X166860Y113473D01*
X166846Y113331D01*
X166828Y113190D01*
X166806Y113049D01*
X166780Y112909D01*
X166751Y112770D01*
X166717Y112631D01*
X166679Y112494D01*
X166638Y112357D01*
X166593Y112222D01*
X166544Y112088D01*
X166491Y111956D01*
X166435Y111825D01*
X166375Y111696D01*
X166311Y111568D01*
X166244Y111443D01*
X166173Y111319D01*
X166099Y111197D01*
X166022Y111078D01*
X165941Y110960D01*
X165857Y110845D01*
X165770Y110733D01*
X165679Y110623D01*
X165586Y110515D01*
X165489Y110410D01*
X165390Y110308D01*
X165288Y110209D01*
X165183Y110112D01*
X165075Y110019D01*
X164965Y109928D01*
X164853Y109841D01*
X164738Y109757D01*
X164620Y109676D01*
X164501Y109599D01*
X164379Y109525D01*
X164255Y109454D01*
X164130Y109387D01*
X164002Y109323D01*
X163873Y109263D01*
X163742Y109207D01*
X163610Y109154D01*
X163476Y109105D01*
X163341Y109060D01*
X163204Y109019D01*
X163067Y108981D01*
X162928Y108947D01*
X162789Y108918D01*
X162649Y108892D01*
X162508Y108870D01*
X162367Y108852D01*
X162225Y108838D01*
X162083Y108828D01*
X161940Y108822D01*
X161798Y108820D01*
X161656Y108822D01*
X161513Y108828D01*
X161371Y108838D01*
X161229Y108852D01*
X161088Y108870D01*
X160947Y108892D01*
X160807Y108918D01*
X160668Y108947D01*
X160529Y108981D01*
X160392Y109019D01*
X160255Y109060D01*
X160120Y109105D01*
X159986Y109154D01*
X159854Y109207D01*
X159723Y109263D01*
X159594Y109323D01*
X159466Y109387D01*
X159341Y109454D01*
X159217Y109525D01*
X159095Y109599D01*
X158976Y109676D01*
X158858Y109757D01*
X158743Y109841D01*
X158631Y109928D01*
X158521Y110019D01*
X158413Y110112D01*
X158308Y110209D01*
X158206Y110308D01*
X158107Y110410D01*
X158010Y110515D01*
X157917Y110623D01*
X157826Y110733D01*
X157739Y110845D01*
X157655Y110960D01*
X157574Y111078D01*
X157497Y111197D01*
X157423Y111319D01*
X157352Y111443D01*
X157285Y111568D01*
X157221Y111696D01*
X157161Y111825D01*
X157105Y111956D01*
X157052Y112088D01*
X157003Y112222D01*
X156958Y112357D01*
X156917Y112494D01*
X156879Y112631D01*
X156845Y112770D01*
X156816Y112909D01*
X156790Y113049D01*
X156768Y113190D01*
X156750Y113331D01*
X156736Y113473D01*
X156726Y113615D01*
X156720Y113758D01*
X156718Y113900D01*
X156718Y63862D02*
X156720Y64004D01*
X156726Y64147D01*
X156736Y64289D01*
X156750Y64431D01*
X156768Y64572D01*
X156790Y64713D01*
X156816Y64853D01*
X156845Y64992D01*
X156879Y65131D01*
X156917Y65268D01*
X156958Y65405D01*
X157003Y65540D01*
X157052Y65674D01*
X157105Y65806D01*
X157161Y65937D01*
X157221Y66066D01*
X157285Y66194D01*
X157352Y66319D01*
X157423Y66443D01*
X157497Y66565D01*
X157574Y66684D01*
X157655Y66802D01*
X157739Y66917D01*
X157826Y67029D01*
X157917Y67139D01*
X158010Y67247D01*
X158107Y67352D01*
X158206Y67454D01*
X158308Y67553D01*
X158413Y67650D01*
X158521Y67743D01*
X158631Y67834D01*
X158743Y67921D01*
X158858Y68005D01*
X158976Y68086D01*
X159095Y68163D01*
X159217Y68237D01*
X159341Y68308D01*
X159466Y68375D01*
X159594Y68439D01*
X159723Y68499D01*
X159854Y68555D01*
X159986Y68608D01*
X160120Y68657D01*
X160255Y68702D01*
X160392Y68743D01*
X160529Y68781D01*
X160668Y68815D01*
X160807Y68844D01*
X160947Y68870D01*
X161088Y68892D01*
X161229Y68910D01*
X161371Y68924D01*
X161513Y68934D01*
X161656Y68940D01*
X161798Y68942D01*
X161940Y68940D01*
X162083Y68934D01*
X162225Y68924D01*
X162367Y68910D01*
X162508Y68892D01*
X162649Y68870D01*
X162789Y68844D01*
X162928Y68815D01*
X163067Y68781D01*
X163204Y68743D01*
X163341Y68702D01*
X163476Y68657D01*
X163610Y68608D01*
X163742Y68555D01*
X163873Y68499D01*
X164002Y68439D01*
X164130Y68375D01*
X164255Y68308D01*
X164379Y68237D01*
X164501Y68163D01*
X164620Y68086D01*
X164738Y68005D01*
X164853Y67921D01*
X164965Y67834D01*
X165075Y67743D01*
X165183Y67650D01*
X165288Y67553D01*
X165390Y67454D01*
X165489Y67352D01*
X165586Y67247D01*
X165679Y67139D01*
X165770Y67029D01*
X165857Y66917D01*
X165941Y66802D01*
X166022Y66684D01*
X166099Y66565D01*
X166173Y66443D01*
X166244Y66319D01*
X166311Y66194D01*
X166375Y66066D01*
X166435Y65937D01*
X166491Y65806D01*
X166544Y65674D01*
X166593Y65540D01*
X166638Y65405D01*
X166679Y65268D01*
X166717Y65131D01*
X166751Y64992D01*
X166780Y64853D01*
X166806Y64713D01*
X166828Y64572D01*
X166846Y64431D01*
X166860Y64289D01*
X166870Y64147D01*
X166876Y64004D01*
X166878Y63862D01*
X166876Y63720D01*
X166870Y63577D01*
X166860Y63435D01*
X166846Y63293D01*
X166828Y63152D01*
X166806Y63011D01*
X166780Y62871D01*
X166751Y62732D01*
X166717Y62593D01*
X166679Y62456D01*
X166638Y62319D01*
X166593Y62184D01*
X166544Y62050D01*
X166491Y61918D01*
X166435Y61787D01*
X166375Y61658D01*
X166311Y61530D01*
X166244Y61405D01*
X166173Y61281D01*
X166099Y61159D01*
X166022Y61040D01*
X165941Y60922D01*
X165857Y60807D01*
X165770Y60695D01*
X165679Y60585D01*
X165586Y60477D01*
X165489Y60372D01*
X165390Y60270D01*
X165288Y60171D01*
X165183Y60074D01*
X165075Y59981D01*
X164965Y59890D01*
X164853Y59803D01*
X164738Y59719D01*
X164620Y59638D01*
X164501Y59561D01*
X164379Y59487D01*
X164255Y59416D01*
X164130Y59349D01*
X164002Y59285D01*
X163873Y59225D01*
X163742Y59169D01*
X163610Y59116D01*
X163476Y59067D01*
X163341Y59022D01*
X163204Y58981D01*
X163067Y58943D01*
X162928Y58909D01*
X162789Y58880D01*
X162649Y58854D01*
X162508Y58832D01*
X162367Y58814D01*
X162225Y58800D01*
X162083Y58790D01*
X161940Y58784D01*
X161798Y58782D01*
X161656Y58784D01*
X161513Y58790D01*
X161371Y58800D01*
X161229Y58814D01*
X161088Y58832D01*
X160947Y58854D01*
X160807Y58880D01*
X160668Y58909D01*
X160529Y58943D01*
X160392Y58981D01*
X160255Y59022D01*
X160120Y59067D01*
X159986Y59116D01*
X159854Y59169D01*
X159723Y59225D01*
X159594Y59285D01*
X159466Y59349D01*
X159341Y59416D01*
X159217Y59487D01*
X159095Y59561D01*
X158976Y59638D01*
X158858Y59719D01*
X158743Y59803D01*
X158631Y59890D01*
X158521Y59981D01*
X158413Y60074D01*
X158308Y60171D01*
X158206Y60270D01*
X158107Y60372D01*
X158010Y60477D01*
X157917Y60585D01*
X157826Y60695D01*
X157739Y60807D01*
X157655Y60922D01*
X157574Y61040D01*
X157497Y61159D01*
X157423Y61281D01*
X157352Y61405D01*
X157285Y61530D01*
X157221Y61658D01*
X157161Y61787D01*
X157105Y61918D01*
X157052Y62050D01*
X157003Y62184D01*
X156958Y62319D01*
X156917Y62456D01*
X156879Y62593D01*
X156845Y62732D01*
X156816Y62871D01*
X156790Y63011D01*
X156768Y63152D01*
X156750Y63293D01*
X156736Y63435D01*
X156726Y63577D01*
X156720Y63720D01*
X156718Y63862D01*
D10*
X149225Y127235D02*
X146685Y130410D01*
X158115Y130410D01*
X158115Y127235D02*
X158115Y133585D01*
X149543Y84056D02*
X149439Y84054D01*
X149334Y84048D01*
X149230Y84039D01*
X149127Y84026D01*
X149024Y84008D01*
X148922Y83988D01*
X148820Y83963D01*
X148720Y83935D01*
X148620Y83903D01*
X148522Y83867D01*
X148425Y83828D01*
X148330Y83786D01*
X148236Y83740D01*
X148144Y83690D01*
X148054Y83638D01*
X147966Y83582D01*
X147880Y83522D01*
X147796Y83460D01*
X147715Y83395D01*
X147636Y83327D01*
X147559Y83255D01*
X147486Y83182D01*
X147414Y83105D01*
X147346Y83026D01*
X147281Y82945D01*
X147219Y82861D01*
X147159Y82775D01*
X147103Y82687D01*
X147051Y82597D01*
X147001Y82505D01*
X146955Y82411D01*
X146913Y82316D01*
X146874Y82219D01*
X146838Y82121D01*
X146806Y82021D01*
X146778Y81921D01*
X146753Y81819D01*
X146733Y81717D01*
X146715Y81614D01*
X146702Y81511D01*
X146693Y81407D01*
X146687Y81302D01*
X146685Y81198D01*
X146687Y81080D01*
X146693Y80961D01*
X146702Y80843D01*
X146715Y80726D01*
X146733Y80609D01*
X146753Y80492D01*
X146778Y80376D01*
X146806Y80261D01*
X146839Y80148D01*
X146874Y80035D01*
X146914Y79923D01*
X146956Y79813D01*
X147003Y79704D01*
X147053Y79596D01*
X147106Y79491D01*
X147163Y79387D01*
X147223Y79285D01*
X147286Y79185D01*
X147353Y79087D01*
X147422Y78991D01*
X147495Y78898D01*
X147571Y78807D01*
X147649Y78718D01*
X147731Y78632D01*
X147815Y78549D01*
X147901Y78468D01*
X147991Y78391D01*
X148082Y78316D01*
X148176Y78244D01*
X148273Y78175D01*
X148371Y78110D01*
X148472Y78047D01*
X148575Y77988D01*
X148679Y77932D01*
X148785Y77880D01*
X148893Y77831D01*
X149002Y77786D01*
X149113Y77744D01*
X149225Y77706D01*
X151765Y83103D02*
X151690Y83179D01*
X151611Y83254D01*
X151530Y83325D01*
X151446Y83394D01*
X151360Y83459D01*
X151272Y83521D01*
X151182Y83581D01*
X151090Y83637D01*
X150995Y83690D01*
X150899Y83739D01*
X150801Y83785D01*
X150702Y83828D01*
X150601Y83867D01*
X150499Y83902D01*
X150396Y83934D01*
X150292Y83962D01*
X150187Y83987D01*
X150080Y84008D01*
X149974Y84025D01*
X149867Y84038D01*
X149759Y84047D01*
X149651Y84053D01*
X149543Y84055D01*
X151765Y83103D02*
X158115Y77705D01*
X158115Y84055D01*
X101727Y108312D02*
X90297Y115932D01*
X90297Y108312D02*
X101727Y115932D01*
X92837Y120377D02*
X90297Y123552D01*
X101727Y123552D01*
X101727Y120377D02*
X101727Y126727D01*
D14*
X85090Y140570D02*
X85090Y240390D01*
X175010Y140570D02*
X177040Y140570D01*
X177040Y240390D01*
X108970Y240390D02*
X85090Y240390D01*
X108970Y240390D02*
X108970Y224390D01*
X108970Y206610D02*
X108970Y174350D01*
X108970Y156570D02*
X108970Y140570D01*
X108970Y240390D02*
X175010Y240390D01*
X108970Y140570D02*
X85090Y140570D01*
X175010Y140570D02*
X175010Y240390D01*
X177040Y240390D01*
X175010Y140570D02*
X108970Y140570D01*
X156718Y215500D02*
X156720Y215642D01*
X156726Y215785D01*
X156736Y215927D01*
X156750Y216069D01*
X156768Y216210D01*
X156790Y216351D01*
X156816Y216491D01*
X156845Y216630D01*
X156879Y216769D01*
X156917Y216906D01*
X156958Y217043D01*
X157003Y217178D01*
X157052Y217312D01*
X157105Y217444D01*
X157161Y217575D01*
X157221Y217704D01*
X157285Y217832D01*
X157352Y217957D01*
X157423Y218081D01*
X157497Y218203D01*
X157574Y218322D01*
X157655Y218440D01*
X157739Y218555D01*
X157826Y218667D01*
X157917Y218777D01*
X158010Y218885D01*
X158107Y218990D01*
X158206Y219092D01*
X158308Y219191D01*
X158413Y219288D01*
X158521Y219381D01*
X158631Y219472D01*
X158743Y219559D01*
X158858Y219643D01*
X158976Y219724D01*
X159095Y219801D01*
X159217Y219875D01*
X159341Y219946D01*
X159466Y220013D01*
X159594Y220077D01*
X159723Y220137D01*
X159854Y220193D01*
X159986Y220246D01*
X160120Y220295D01*
X160255Y220340D01*
X160392Y220381D01*
X160529Y220419D01*
X160668Y220453D01*
X160807Y220482D01*
X160947Y220508D01*
X161088Y220530D01*
X161229Y220548D01*
X161371Y220562D01*
X161513Y220572D01*
X161656Y220578D01*
X161798Y220580D01*
X161940Y220578D01*
X162083Y220572D01*
X162225Y220562D01*
X162367Y220548D01*
X162508Y220530D01*
X162649Y220508D01*
X162789Y220482D01*
X162928Y220453D01*
X163067Y220419D01*
X163204Y220381D01*
X163341Y220340D01*
X163476Y220295D01*
X163610Y220246D01*
X163742Y220193D01*
X163873Y220137D01*
X164002Y220077D01*
X164130Y220013D01*
X164255Y219946D01*
X164379Y219875D01*
X164501Y219801D01*
X164620Y219724D01*
X164738Y219643D01*
X164853Y219559D01*
X164965Y219472D01*
X165075Y219381D01*
X165183Y219288D01*
X165288Y219191D01*
X165390Y219092D01*
X165489Y218990D01*
X165586Y218885D01*
X165679Y218777D01*
X165770Y218667D01*
X165857Y218555D01*
X165941Y218440D01*
X166022Y218322D01*
X166099Y218203D01*
X166173Y218081D01*
X166244Y217957D01*
X166311Y217832D01*
X166375Y217704D01*
X166435Y217575D01*
X166491Y217444D01*
X166544Y217312D01*
X166593Y217178D01*
X166638Y217043D01*
X166679Y216906D01*
X166717Y216769D01*
X166751Y216630D01*
X166780Y216491D01*
X166806Y216351D01*
X166828Y216210D01*
X166846Y216069D01*
X166860Y215927D01*
X166870Y215785D01*
X166876Y215642D01*
X166878Y215500D01*
X166876Y215358D01*
X166870Y215215D01*
X166860Y215073D01*
X166846Y214931D01*
X166828Y214790D01*
X166806Y214649D01*
X166780Y214509D01*
X166751Y214370D01*
X166717Y214231D01*
X166679Y214094D01*
X166638Y213957D01*
X166593Y213822D01*
X166544Y213688D01*
X166491Y213556D01*
X166435Y213425D01*
X166375Y213296D01*
X166311Y213168D01*
X166244Y213043D01*
X166173Y212919D01*
X166099Y212797D01*
X166022Y212678D01*
X165941Y212560D01*
X165857Y212445D01*
X165770Y212333D01*
X165679Y212223D01*
X165586Y212115D01*
X165489Y212010D01*
X165390Y211908D01*
X165288Y211809D01*
X165183Y211712D01*
X165075Y211619D01*
X164965Y211528D01*
X164853Y211441D01*
X164738Y211357D01*
X164620Y211276D01*
X164501Y211199D01*
X164379Y211125D01*
X164255Y211054D01*
X164130Y210987D01*
X164002Y210923D01*
X163873Y210863D01*
X163742Y210807D01*
X163610Y210754D01*
X163476Y210705D01*
X163341Y210660D01*
X163204Y210619D01*
X163067Y210581D01*
X162928Y210547D01*
X162789Y210518D01*
X162649Y210492D01*
X162508Y210470D01*
X162367Y210452D01*
X162225Y210438D01*
X162083Y210428D01*
X161940Y210422D01*
X161798Y210420D01*
X161656Y210422D01*
X161513Y210428D01*
X161371Y210438D01*
X161229Y210452D01*
X161088Y210470D01*
X160947Y210492D01*
X160807Y210518D01*
X160668Y210547D01*
X160529Y210581D01*
X160392Y210619D01*
X160255Y210660D01*
X160120Y210705D01*
X159986Y210754D01*
X159854Y210807D01*
X159723Y210863D01*
X159594Y210923D01*
X159466Y210987D01*
X159341Y211054D01*
X159217Y211125D01*
X159095Y211199D01*
X158976Y211276D01*
X158858Y211357D01*
X158743Y211441D01*
X158631Y211528D01*
X158521Y211619D01*
X158413Y211712D01*
X158308Y211809D01*
X158206Y211908D01*
X158107Y212010D01*
X158010Y212115D01*
X157917Y212223D01*
X157826Y212333D01*
X157739Y212445D01*
X157655Y212560D01*
X157574Y212678D01*
X157497Y212797D01*
X157423Y212919D01*
X157352Y213043D01*
X157285Y213168D01*
X157221Y213296D01*
X157161Y213425D01*
X157105Y213556D01*
X157052Y213688D01*
X157003Y213822D01*
X156958Y213957D01*
X156917Y214094D01*
X156879Y214231D01*
X156845Y214370D01*
X156816Y214509D01*
X156790Y214649D01*
X156768Y214790D01*
X156750Y214931D01*
X156736Y215073D01*
X156726Y215215D01*
X156720Y215358D01*
X156718Y215500D01*
X156718Y165462D02*
X156720Y165604D01*
X156726Y165747D01*
X156736Y165889D01*
X156750Y166031D01*
X156768Y166172D01*
X156790Y166313D01*
X156816Y166453D01*
X156845Y166592D01*
X156879Y166731D01*
X156917Y166868D01*
X156958Y167005D01*
X157003Y167140D01*
X157052Y167274D01*
X157105Y167406D01*
X157161Y167537D01*
X157221Y167666D01*
X157285Y167794D01*
X157352Y167919D01*
X157423Y168043D01*
X157497Y168165D01*
X157574Y168284D01*
X157655Y168402D01*
X157739Y168517D01*
X157826Y168629D01*
X157917Y168739D01*
X158010Y168847D01*
X158107Y168952D01*
X158206Y169054D01*
X158308Y169153D01*
X158413Y169250D01*
X158521Y169343D01*
X158631Y169434D01*
X158743Y169521D01*
X158858Y169605D01*
X158976Y169686D01*
X159095Y169763D01*
X159217Y169837D01*
X159341Y169908D01*
X159466Y169975D01*
X159594Y170039D01*
X159723Y170099D01*
X159854Y170155D01*
X159986Y170208D01*
X160120Y170257D01*
X160255Y170302D01*
X160392Y170343D01*
X160529Y170381D01*
X160668Y170415D01*
X160807Y170444D01*
X160947Y170470D01*
X161088Y170492D01*
X161229Y170510D01*
X161371Y170524D01*
X161513Y170534D01*
X161656Y170540D01*
X161798Y170542D01*
X161940Y170540D01*
X162083Y170534D01*
X162225Y170524D01*
X162367Y170510D01*
X162508Y170492D01*
X162649Y170470D01*
X162789Y170444D01*
X162928Y170415D01*
X163067Y170381D01*
X163204Y170343D01*
X163341Y170302D01*
X163476Y170257D01*
X163610Y170208D01*
X163742Y170155D01*
X163873Y170099D01*
X164002Y170039D01*
X164130Y169975D01*
X164255Y169908D01*
X164379Y169837D01*
X164501Y169763D01*
X164620Y169686D01*
X164738Y169605D01*
X164853Y169521D01*
X164965Y169434D01*
X165075Y169343D01*
X165183Y169250D01*
X165288Y169153D01*
X165390Y169054D01*
X165489Y168952D01*
X165586Y168847D01*
X165679Y168739D01*
X165770Y168629D01*
X165857Y168517D01*
X165941Y168402D01*
X166022Y168284D01*
X166099Y168165D01*
X166173Y168043D01*
X166244Y167919D01*
X166311Y167794D01*
X166375Y167666D01*
X166435Y167537D01*
X166491Y167406D01*
X166544Y167274D01*
X166593Y167140D01*
X166638Y167005D01*
X166679Y166868D01*
X166717Y166731D01*
X166751Y166592D01*
X166780Y166453D01*
X166806Y166313D01*
X166828Y166172D01*
X166846Y166031D01*
X166860Y165889D01*
X166870Y165747D01*
X166876Y165604D01*
X166878Y165462D01*
X166876Y165320D01*
X166870Y165177D01*
X166860Y165035D01*
X166846Y164893D01*
X166828Y164752D01*
X166806Y164611D01*
X166780Y164471D01*
X166751Y164332D01*
X166717Y164193D01*
X166679Y164056D01*
X166638Y163919D01*
X166593Y163784D01*
X166544Y163650D01*
X166491Y163518D01*
X166435Y163387D01*
X166375Y163258D01*
X166311Y163130D01*
X166244Y163005D01*
X166173Y162881D01*
X166099Y162759D01*
X166022Y162640D01*
X165941Y162522D01*
X165857Y162407D01*
X165770Y162295D01*
X165679Y162185D01*
X165586Y162077D01*
X165489Y161972D01*
X165390Y161870D01*
X165288Y161771D01*
X165183Y161674D01*
X165075Y161581D01*
X164965Y161490D01*
X164853Y161403D01*
X164738Y161319D01*
X164620Y161238D01*
X164501Y161161D01*
X164379Y161087D01*
X164255Y161016D01*
X164130Y160949D01*
X164002Y160885D01*
X163873Y160825D01*
X163742Y160769D01*
X163610Y160716D01*
X163476Y160667D01*
X163341Y160622D01*
X163204Y160581D01*
X163067Y160543D01*
X162928Y160509D01*
X162789Y160480D01*
X162649Y160454D01*
X162508Y160432D01*
X162367Y160414D01*
X162225Y160400D01*
X162083Y160390D01*
X161940Y160384D01*
X161798Y160382D01*
X161656Y160384D01*
X161513Y160390D01*
X161371Y160400D01*
X161229Y160414D01*
X161088Y160432D01*
X160947Y160454D01*
X160807Y160480D01*
X160668Y160509D01*
X160529Y160543D01*
X160392Y160581D01*
X160255Y160622D01*
X160120Y160667D01*
X159986Y160716D01*
X159854Y160769D01*
X159723Y160825D01*
X159594Y160885D01*
X159466Y160949D01*
X159341Y161016D01*
X159217Y161087D01*
X159095Y161161D01*
X158976Y161238D01*
X158858Y161319D01*
X158743Y161403D01*
X158631Y161490D01*
X158521Y161581D01*
X158413Y161674D01*
X158308Y161771D01*
X158206Y161870D01*
X158107Y161972D01*
X158010Y162077D01*
X157917Y162185D01*
X157826Y162295D01*
X157739Y162407D01*
X157655Y162522D01*
X157574Y162640D01*
X157497Y162759D01*
X157423Y162881D01*
X157352Y163005D01*
X157285Y163130D01*
X157221Y163258D01*
X157161Y163387D01*
X157105Y163518D01*
X157052Y163650D01*
X157003Y163784D01*
X156958Y163919D01*
X156917Y164056D01*
X156879Y164193D01*
X156845Y164332D01*
X156816Y164471D01*
X156790Y164611D01*
X156768Y164752D01*
X156750Y164893D01*
X156736Y165035D01*
X156726Y165177D01*
X156720Y165320D01*
X156718Y165462D01*
D10*
X149225Y228835D02*
X146685Y232010D01*
X158115Y232010D01*
X158115Y228835D02*
X158115Y235185D01*
X149543Y185656D02*
X149439Y185654D01*
X149334Y185648D01*
X149230Y185639D01*
X149127Y185626D01*
X149024Y185608D01*
X148922Y185588D01*
X148820Y185563D01*
X148720Y185535D01*
X148620Y185503D01*
X148522Y185467D01*
X148425Y185428D01*
X148330Y185386D01*
X148236Y185340D01*
X148144Y185290D01*
X148054Y185238D01*
X147966Y185182D01*
X147880Y185122D01*
X147796Y185060D01*
X147715Y184995D01*
X147636Y184927D01*
X147559Y184855D01*
X147486Y184782D01*
X147414Y184705D01*
X147346Y184626D01*
X147281Y184545D01*
X147219Y184461D01*
X147159Y184375D01*
X147103Y184287D01*
X147051Y184197D01*
X147001Y184105D01*
X146955Y184011D01*
X146913Y183916D01*
X146874Y183819D01*
X146838Y183721D01*
X146806Y183621D01*
X146778Y183521D01*
X146753Y183419D01*
X146733Y183317D01*
X146715Y183214D01*
X146702Y183111D01*
X146693Y183007D01*
X146687Y182902D01*
X146685Y182798D01*
X146687Y182680D01*
X146693Y182561D01*
X146702Y182443D01*
X146715Y182326D01*
X146733Y182209D01*
X146753Y182092D01*
X146778Y181976D01*
X146806Y181861D01*
X146839Y181748D01*
X146874Y181635D01*
X146914Y181523D01*
X146956Y181413D01*
X147003Y181304D01*
X147053Y181196D01*
X147106Y181091D01*
X147163Y180987D01*
X147223Y180885D01*
X147286Y180785D01*
X147353Y180687D01*
X147422Y180591D01*
X147495Y180498D01*
X147571Y180407D01*
X147649Y180318D01*
X147731Y180232D01*
X147815Y180149D01*
X147901Y180068D01*
X147991Y179991D01*
X148082Y179916D01*
X148176Y179844D01*
X148273Y179775D01*
X148371Y179710D01*
X148472Y179647D01*
X148575Y179588D01*
X148679Y179532D01*
X148785Y179480D01*
X148893Y179431D01*
X149002Y179386D01*
X149113Y179344D01*
X149225Y179306D01*
X151765Y184703D02*
X151690Y184779D01*
X151611Y184854D01*
X151530Y184925D01*
X151446Y184994D01*
X151360Y185059D01*
X151272Y185121D01*
X151182Y185181D01*
X151090Y185237D01*
X150995Y185290D01*
X150899Y185339D01*
X150801Y185385D01*
X150702Y185428D01*
X150601Y185467D01*
X150499Y185502D01*
X150396Y185534D01*
X150292Y185562D01*
X150187Y185587D01*
X150080Y185608D01*
X149974Y185625D01*
X149867Y185638D01*
X149759Y185647D01*
X149651Y185653D01*
X149543Y185655D01*
X151765Y184703D02*
X158115Y179305D01*
X158115Y185655D01*
X101727Y209912D02*
X90297Y217532D01*
X90297Y209912D02*
X101727Y217532D01*
X93155Y228328D02*
X93051Y228326D01*
X92946Y228320D01*
X92842Y228311D01*
X92739Y228298D01*
X92636Y228280D01*
X92534Y228260D01*
X92432Y228235D01*
X92332Y228207D01*
X92232Y228175D01*
X92134Y228139D01*
X92037Y228100D01*
X91942Y228058D01*
X91848Y228012D01*
X91756Y227962D01*
X91666Y227910D01*
X91578Y227854D01*
X91492Y227794D01*
X91408Y227732D01*
X91327Y227667D01*
X91248Y227599D01*
X91171Y227527D01*
X91098Y227454D01*
X91026Y227377D01*
X90958Y227298D01*
X90893Y227217D01*
X90831Y227133D01*
X90771Y227047D01*
X90715Y226959D01*
X90663Y226869D01*
X90613Y226777D01*
X90567Y226683D01*
X90525Y226588D01*
X90486Y226491D01*
X90450Y226393D01*
X90418Y226293D01*
X90390Y226193D01*
X90365Y226091D01*
X90345Y225989D01*
X90327Y225886D01*
X90314Y225783D01*
X90305Y225679D01*
X90299Y225574D01*
X90297Y225470D01*
X90299Y225352D01*
X90305Y225233D01*
X90314Y225115D01*
X90327Y224998D01*
X90345Y224881D01*
X90365Y224764D01*
X90390Y224648D01*
X90418Y224533D01*
X90451Y224420D01*
X90486Y224307D01*
X90526Y224195D01*
X90568Y224085D01*
X90615Y223976D01*
X90665Y223868D01*
X90718Y223763D01*
X90775Y223659D01*
X90835Y223557D01*
X90898Y223457D01*
X90965Y223359D01*
X91034Y223263D01*
X91107Y223170D01*
X91183Y223079D01*
X91261Y222990D01*
X91343Y222904D01*
X91427Y222821D01*
X91513Y222740D01*
X91603Y222663D01*
X91694Y222588D01*
X91788Y222516D01*
X91885Y222447D01*
X91983Y222382D01*
X92084Y222319D01*
X92187Y222260D01*
X92291Y222204D01*
X92397Y222152D01*
X92505Y222103D01*
X92614Y222058D01*
X92725Y222016D01*
X92837Y221978D01*
X95377Y227375D02*
X95302Y227451D01*
X95223Y227526D01*
X95142Y227597D01*
X95058Y227666D01*
X94972Y227731D01*
X94884Y227793D01*
X94794Y227853D01*
X94702Y227909D01*
X94607Y227962D01*
X94511Y228011D01*
X94413Y228057D01*
X94314Y228100D01*
X94213Y228139D01*
X94111Y228174D01*
X94008Y228206D01*
X93904Y228234D01*
X93799Y228259D01*
X93692Y228280D01*
X93586Y228297D01*
X93479Y228310D01*
X93371Y228319D01*
X93263Y228325D01*
X93155Y228327D01*
X95377Y227375D02*
X101727Y221977D01*
X101727Y228327D01*
M02*
