G04 EAGLE Gerber RS-274X export*
G75*
%MOMM*%
%FSLAX34Y34*%
%LPD*%
%INSoldermask Top*%
%IPPOS*%
%AMOC8*
5,1,8,0,0,1.08239X$1,22.5*%
G01*
%ADD10R,1.511200X1.511200*%
%ADD11C,1.511200*%
%ADD12C,2.743200*%
%ADD13P,2.969212X8X292.500000*%
%ADD14C,1.727200*%
%ADD15C,1.879600*%
%ADD16C,3.505200*%
%ADD17P,1.649562X8X22.500000*%
%ADD18C,1.524000*%
%ADD19C,1.993900*%


D10*
X215900Y228600D03*
X317500Y228600D03*
D11*
X215900Y203200D03*
X317500Y203200D03*
X215900Y177800D03*
X317500Y177800D03*
X215900Y152400D03*
X317500Y152400D03*
X215900Y127000D03*
X317500Y127000D03*
X215900Y101600D03*
X317500Y101600D03*
X215900Y76200D03*
X317500Y76200D03*
X215900Y50800D03*
X317500Y50800D03*
D12*
X558800Y355600D03*
D13*
X558800Y304800D03*
D14*
X401320Y241300D02*
X386080Y241300D01*
X513080Y241300D02*
X528320Y241300D01*
X401320Y190500D02*
X386080Y190500D01*
X513080Y190500D02*
X528320Y190500D01*
X401320Y38100D02*
X386080Y38100D01*
X513080Y38100D02*
X528320Y38100D01*
X401320Y139700D02*
X386080Y139700D01*
X513080Y139700D02*
X528320Y139700D01*
X401320Y88900D02*
X386080Y88900D01*
X513080Y88900D02*
X528320Y88900D01*
D15*
X325882Y304800D02*
X309118Y304800D01*
X309118Y330200D02*
X325882Y330200D01*
X325882Y355600D02*
X309118Y355600D01*
D16*
X142240Y330200D03*
D17*
X381000Y342900D03*
X457200Y342900D03*
X381000Y304800D03*
X457200Y304800D03*
D18*
X577596Y38100D02*
X590804Y38100D01*
X590804Y63500D02*
X577596Y63500D01*
X577596Y88900D02*
X590804Y88900D01*
X590804Y114300D02*
X577596Y114300D01*
X577596Y139700D02*
X590804Y139700D01*
X590804Y165100D02*
X577596Y165100D01*
X577596Y190500D02*
X590804Y190500D01*
X590804Y215900D02*
X577596Y215900D01*
D19*
X135954Y113900D02*
X118047Y113900D01*
X118047Y63900D02*
X135954Y63900D01*
X135954Y215500D02*
X118047Y215500D01*
X118047Y165500D02*
X135954Y165500D01*
M02*
