G04 EAGLE Gerber RS-274X export*
G75*
%MOMM*%
%FSLAX34Y34*%
%LPD*%
%INTop Copper*%
%IPPOS*%
%AMOC8*
5,1,8,0,0,1.08239X$1,22.5*%
G01*
%ADD10R,1.308000X1.308000*%
%ADD11C,1.308000*%
%ADD12C,2.540000*%
%ADD13P,2.749271X8X22.500000*%
%ADD14C,1.524000*%
%ADD15C,1.676400*%
%ADD16P,1.429621X8X22.500000*%
%ADD17C,1.320800*%
%ADD18C,1.790700*%
%ADD19C,1.016000*%
%ADD20C,1.524000*%

G36*
X417188Y22876D02*
X417188Y22876D01*
X417307Y22883D01*
X417345Y22896D01*
X417386Y22901D01*
X417496Y22944D01*
X417609Y22981D01*
X417644Y23003D01*
X417681Y23018D01*
X417777Y23087D01*
X417878Y23151D01*
X417906Y23181D01*
X417939Y23204D01*
X418015Y23296D01*
X418096Y23383D01*
X418116Y23418D01*
X418141Y23449D01*
X418192Y23557D01*
X418250Y23661D01*
X418260Y23701D01*
X418277Y23737D01*
X418299Y23854D01*
X418329Y23969D01*
X418333Y24029D01*
X418337Y24049D01*
X418335Y24070D01*
X418339Y24130D01*
X418339Y509170D01*
X418324Y509288D01*
X418317Y509407D01*
X418304Y509445D01*
X418299Y509486D01*
X418256Y509596D01*
X418219Y509709D01*
X418197Y509744D01*
X418182Y509781D01*
X418113Y509877D01*
X418049Y509978D01*
X418019Y510006D01*
X417996Y510039D01*
X417904Y510115D01*
X417817Y510196D01*
X417782Y510216D01*
X417751Y510241D01*
X417643Y510292D01*
X417539Y510350D01*
X417499Y510360D01*
X417463Y510377D01*
X417346Y510399D01*
X417231Y510429D01*
X417171Y510433D01*
X417151Y510437D01*
X417130Y510435D01*
X417070Y510439D01*
X-1270Y510439D01*
X-1388Y510424D01*
X-1507Y510417D01*
X-1545Y510404D01*
X-1586Y510399D01*
X-1696Y510356D01*
X-1809Y510319D01*
X-1844Y510297D01*
X-1881Y510282D01*
X-1977Y510213D01*
X-2078Y510149D01*
X-2106Y510119D01*
X-2139Y510096D01*
X-2215Y510004D01*
X-2296Y509917D01*
X-2316Y509882D01*
X-2341Y509851D01*
X-2392Y509743D01*
X-2450Y509639D01*
X-2460Y509599D01*
X-2477Y509563D01*
X-2499Y509446D01*
X-2529Y509331D01*
X-2533Y509271D01*
X-2537Y509251D01*
X-2535Y509230D01*
X-2539Y509170D01*
X-2539Y24130D01*
X-2524Y24012D01*
X-2517Y23893D01*
X-2504Y23855D01*
X-2499Y23814D01*
X-2456Y23704D01*
X-2419Y23591D01*
X-2397Y23556D01*
X-2382Y23519D01*
X-2313Y23423D01*
X-2249Y23322D01*
X-2219Y23294D01*
X-2196Y23261D01*
X-2104Y23185D01*
X-2017Y23104D01*
X-1982Y23084D01*
X-1951Y23059D01*
X-1843Y23008D01*
X-1739Y22950D01*
X-1699Y22940D01*
X-1663Y22923D01*
X-1546Y22901D01*
X-1431Y22871D01*
X-1371Y22867D01*
X-1351Y22863D01*
X-1330Y22865D01*
X-1270Y22861D01*
X417070Y22861D01*
X417188Y22876D01*
G37*
%LPC*%
G36*
X213588Y51879D02*
X213588Y51879D01*
X209317Y53648D01*
X206048Y56917D01*
X204279Y61188D01*
X204279Y65812D01*
X206048Y70083D01*
X209317Y73352D01*
X213363Y75027D01*
X213484Y75096D01*
X213607Y75161D01*
X213622Y75175D01*
X213639Y75185D01*
X213739Y75282D01*
X213842Y75375D01*
X213853Y75392D01*
X213868Y75406D01*
X213941Y75525D01*
X214017Y75641D01*
X214023Y75660D01*
X214034Y75677D01*
X214075Y75810D01*
X214120Y75942D01*
X214122Y75962D01*
X214128Y75981D01*
X214134Y76120D01*
X214145Y76259D01*
X214142Y76279D01*
X214143Y76299D01*
X214115Y76435D01*
X214091Y76572D01*
X214083Y76591D01*
X214078Y76610D01*
X214017Y76736D01*
X213960Y76862D01*
X213948Y76878D01*
X213939Y76896D01*
X213848Y77002D01*
X213762Y77110D01*
X213746Y77123D01*
X213732Y77138D01*
X213619Y77218D01*
X213508Y77302D01*
X213482Y77314D01*
X213472Y77321D01*
X213453Y77328D01*
X213363Y77373D01*
X209317Y79048D01*
X206048Y82317D01*
X204279Y86588D01*
X204279Y91212D01*
X206048Y95483D01*
X209317Y98752D01*
X213363Y100427D01*
X213484Y100496D01*
X213607Y100561D01*
X213622Y100575D01*
X213639Y100585D01*
X213739Y100682D01*
X213842Y100775D01*
X213853Y100792D01*
X213868Y100806D01*
X213941Y100925D01*
X214017Y101041D01*
X214023Y101060D01*
X214034Y101077D01*
X214075Y101210D01*
X214120Y101342D01*
X214122Y101362D01*
X214128Y101381D01*
X214134Y101520D01*
X214145Y101659D01*
X214142Y101679D01*
X214143Y101699D01*
X214115Y101835D01*
X214091Y101972D01*
X214083Y101991D01*
X214078Y102010D01*
X214017Y102136D01*
X213960Y102262D01*
X213948Y102278D01*
X213939Y102296D01*
X213848Y102402D01*
X213762Y102510D01*
X213746Y102523D01*
X213732Y102538D01*
X213619Y102618D01*
X213508Y102702D01*
X213482Y102714D01*
X213472Y102721D01*
X213453Y102728D01*
X213363Y102773D01*
X209317Y104448D01*
X206048Y107717D01*
X204279Y111988D01*
X204279Y116612D01*
X206048Y120883D01*
X209317Y124152D01*
X213363Y125827D01*
X213484Y125896D01*
X213607Y125961D01*
X213622Y125975D01*
X213639Y125985D01*
X213739Y126082D01*
X213842Y126175D01*
X213853Y126192D01*
X213868Y126206D01*
X213941Y126325D01*
X214017Y126441D01*
X214023Y126460D01*
X214034Y126477D01*
X214075Y126610D01*
X214120Y126742D01*
X214122Y126762D01*
X214128Y126781D01*
X214134Y126920D01*
X214145Y127059D01*
X214142Y127079D01*
X214143Y127099D01*
X214115Y127235D01*
X214091Y127372D01*
X214083Y127391D01*
X214078Y127410D01*
X214017Y127536D01*
X213960Y127662D01*
X213948Y127678D01*
X213939Y127696D01*
X213848Y127802D01*
X213762Y127910D01*
X213746Y127923D01*
X213732Y127938D01*
X213619Y128018D01*
X213508Y128102D01*
X213482Y128114D01*
X213472Y128121D01*
X213453Y128128D01*
X213363Y128173D01*
X209317Y129848D01*
X206048Y133117D01*
X204279Y137388D01*
X204279Y142012D01*
X206048Y146283D01*
X209317Y149552D01*
X213363Y151227D01*
X213484Y151296D01*
X213607Y151361D01*
X213622Y151375D01*
X213639Y151385D01*
X213739Y151482D01*
X213842Y151575D01*
X213853Y151592D01*
X213868Y151606D01*
X213941Y151725D01*
X214017Y151841D01*
X214023Y151860D01*
X214034Y151877D01*
X214075Y152010D01*
X214120Y152142D01*
X214122Y152162D01*
X214128Y152181D01*
X214134Y152320D01*
X214145Y152459D01*
X214142Y152479D01*
X214143Y152499D01*
X214115Y152635D01*
X214091Y152772D01*
X214083Y152791D01*
X214078Y152810D01*
X214017Y152936D01*
X213960Y153062D01*
X213948Y153078D01*
X213939Y153096D01*
X213848Y153202D01*
X213762Y153310D01*
X213746Y153323D01*
X213732Y153338D01*
X213619Y153418D01*
X213508Y153502D01*
X213482Y153514D01*
X213472Y153521D01*
X213453Y153528D01*
X213363Y153573D01*
X209317Y155248D01*
X206048Y158517D01*
X204279Y162788D01*
X204279Y167412D01*
X206048Y171683D01*
X209317Y174952D01*
X213363Y176627D01*
X213484Y176696D01*
X213607Y176761D01*
X213622Y176775D01*
X213639Y176785D01*
X213739Y176882D01*
X213842Y176975D01*
X213853Y176992D01*
X213868Y177006D01*
X213941Y177125D01*
X214017Y177241D01*
X214023Y177260D01*
X214034Y177277D01*
X214075Y177410D01*
X214120Y177542D01*
X214122Y177562D01*
X214128Y177581D01*
X214134Y177720D01*
X214145Y177859D01*
X214142Y177879D01*
X214143Y177899D01*
X214115Y178035D01*
X214091Y178172D01*
X214083Y178191D01*
X214078Y178210D01*
X214017Y178336D01*
X213960Y178462D01*
X213948Y178478D01*
X213939Y178496D01*
X213848Y178602D01*
X213762Y178710D01*
X213746Y178723D01*
X213732Y178738D01*
X213619Y178818D01*
X213508Y178902D01*
X213482Y178914D01*
X213472Y178921D01*
X213453Y178928D01*
X213363Y178973D01*
X209317Y180648D01*
X206048Y183917D01*
X204279Y188188D01*
X204279Y192812D01*
X206048Y197083D01*
X209317Y200352D01*
X213363Y202027D01*
X213484Y202096D01*
X213607Y202161D01*
X213622Y202175D01*
X213639Y202185D01*
X213739Y202282D01*
X213842Y202375D01*
X213853Y202392D01*
X213868Y202406D01*
X213941Y202525D01*
X214017Y202641D01*
X214023Y202660D01*
X214034Y202677D01*
X214075Y202810D01*
X214120Y202942D01*
X214122Y202962D01*
X214128Y202981D01*
X214134Y203120D01*
X214145Y203259D01*
X214142Y203279D01*
X214143Y203299D01*
X214115Y203435D01*
X214091Y203572D01*
X214083Y203591D01*
X214078Y203610D01*
X214017Y203736D01*
X213960Y203862D01*
X213948Y203878D01*
X213939Y203896D01*
X213848Y204002D01*
X213762Y204110D01*
X213746Y204123D01*
X213732Y204138D01*
X213619Y204218D01*
X213508Y204302D01*
X213482Y204314D01*
X213472Y204321D01*
X213453Y204328D01*
X213363Y204373D01*
X209317Y206048D01*
X206048Y209317D01*
X204279Y213588D01*
X204279Y218212D01*
X206048Y222483D01*
X209317Y225752D01*
X212904Y227237D01*
X212965Y227272D01*
X213030Y227298D01*
X213103Y227350D01*
X213181Y227395D01*
X213231Y227443D01*
X213287Y227484D01*
X213345Y227554D01*
X213409Y227616D01*
X213446Y227676D01*
X213490Y227729D01*
X213528Y227811D01*
X213575Y227887D01*
X213596Y227954D01*
X213626Y228017D01*
X213643Y228105D01*
X213669Y228191D01*
X213672Y228261D01*
X213685Y228330D01*
X213680Y228419D01*
X213684Y228509D01*
X213670Y228577D01*
X213666Y228647D01*
X213638Y228732D01*
X213620Y228820D01*
X213589Y228883D01*
X213568Y228949D01*
X213520Y229025D01*
X213480Y229106D01*
X213435Y229159D01*
X213398Y229218D01*
X213332Y229280D01*
X213274Y229348D01*
X213217Y229388D01*
X213166Y229436D01*
X213087Y229479D01*
X213014Y229531D01*
X212948Y229556D01*
X212887Y229590D01*
X212801Y229612D01*
X212716Y229644D01*
X212647Y229652D01*
X212579Y229669D01*
X212419Y229679D01*
X208349Y229679D01*
X206482Y230453D01*
X205053Y231882D01*
X204279Y233749D01*
X204279Y248851D01*
X205053Y250718D01*
X206482Y252147D01*
X208349Y252921D01*
X209550Y252921D01*
X209668Y252936D01*
X209787Y252943D01*
X209825Y252956D01*
X209866Y252961D01*
X209976Y253004D01*
X210089Y253041D01*
X210124Y253063D01*
X210161Y253078D01*
X210257Y253147D01*
X210358Y253211D01*
X210386Y253241D01*
X210419Y253264D01*
X210495Y253356D01*
X210576Y253443D01*
X210596Y253478D01*
X210621Y253509D01*
X210672Y253617D01*
X210730Y253721D01*
X210740Y253761D01*
X210757Y253797D01*
X210779Y253914D01*
X210809Y254029D01*
X210813Y254089D01*
X210817Y254109D01*
X210815Y254130D01*
X210819Y254190D01*
X210819Y316230D01*
X210804Y316348D01*
X210797Y316467D01*
X210784Y316505D01*
X210779Y316546D01*
X210736Y316656D01*
X210699Y316769D01*
X210677Y316804D01*
X210662Y316841D01*
X210593Y316937D01*
X210529Y317038D01*
X210499Y317066D01*
X210476Y317099D01*
X210384Y317175D01*
X210297Y317256D01*
X210262Y317276D01*
X210231Y317301D01*
X210123Y317352D01*
X210019Y317410D01*
X209979Y317420D01*
X209943Y317437D01*
X209826Y317459D01*
X209711Y317489D01*
X209651Y317493D01*
X209631Y317497D01*
X209610Y317495D01*
X209550Y317499D01*
X150379Y317499D01*
X146644Y319046D01*
X105686Y360004D01*
X104235Y363507D01*
X104231Y363515D01*
X104228Y363524D01*
X104218Y363541D01*
X104212Y363559D01*
X104145Y363665D01*
X104078Y363783D01*
X104071Y363790D01*
X104067Y363798D01*
X104047Y363820D01*
X104042Y363828D01*
X104031Y363838D01*
X103960Y363919D01*
X102887Y364992D01*
X102773Y365268D01*
X102704Y365388D01*
X102639Y365511D01*
X102625Y365526D01*
X102615Y365544D01*
X102518Y365644D01*
X102425Y365747D01*
X102408Y365758D01*
X102394Y365772D01*
X102275Y365845D01*
X102159Y365921D01*
X102140Y365928D01*
X102123Y365939D01*
X101990Y365980D01*
X101858Y366025D01*
X101838Y366026D01*
X101819Y366032D01*
X101680Y366039D01*
X101541Y366050D01*
X101521Y366046D01*
X101501Y366047D01*
X101365Y366019D01*
X101228Y365995D01*
X101209Y365987D01*
X101190Y365983D01*
X101065Y365922D01*
X100938Y365865D01*
X100922Y365852D01*
X100904Y365843D01*
X100798Y365753D01*
X100689Y365666D01*
X100677Y365650D01*
X100662Y365637D01*
X100582Y365524D01*
X100498Y365412D01*
X100486Y365387D01*
X100479Y365377D01*
X100472Y365358D01*
X100427Y365268D01*
X100313Y364992D01*
X96526Y361205D01*
X91578Y359155D01*
X86222Y359155D01*
X81274Y361205D01*
X77487Y364992D01*
X75437Y369940D01*
X75437Y392060D01*
X77487Y397008D01*
X81274Y400795D01*
X82062Y401121D01*
X82148Y401171D01*
X82238Y401211D01*
X82285Y401249D01*
X82338Y401279D01*
X82409Y401348D01*
X82486Y401410D01*
X82523Y401458D01*
X82566Y401500D01*
X82618Y401585D01*
X82678Y401664D01*
X82722Y401754D01*
X82733Y401771D01*
X82736Y401783D01*
X82749Y401808D01*
X82826Y401996D01*
X100924Y420094D01*
X104659Y421641D01*
X238241Y421641D01*
X241976Y420094D01*
X303649Y358421D01*
X303759Y358336D01*
X303865Y358247D01*
X303884Y358238D01*
X303900Y358226D01*
X304028Y358171D01*
X304153Y358112D01*
X304173Y358108D01*
X304192Y358100D01*
X304330Y358078D01*
X304466Y358052D01*
X304486Y358053D01*
X304506Y358050D01*
X304645Y358063D01*
X304783Y358071D01*
X304802Y358078D01*
X304822Y358080D01*
X304954Y358127D01*
X305085Y358170D01*
X305103Y358180D01*
X305122Y358187D01*
X305237Y358265D01*
X305354Y358340D01*
X305368Y358354D01*
X305385Y358366D01*
X305477Y358470D01*
X305572Y358571D01*
X305582Y358589D01*
X305595Y358604D01*
X305659Y358728D01*
X305726Y358850D01*
X305731Y358869D01*
X305740Y358887D01*
X305770Y359023D01*
X305805Y359158D01*
X305807Y359186D01*
X305810Y359198D01*
X305809Y359218D01*
X305815Y359318D01*
X305815Y360440D01*
X309508Y364132D01*
X309568Y364210D01*
X309636Y364283D01*
X309665Y364336D01*
X309702Y364383D01*
X309742Y364474D01*
X309790Y364561D01*
X309805Y364620D01*
X309829Y364675D01*
X309844Y364773D01*
X309869Y364869D01*
X309875Y364969D01*
X309879Y364989D01*
X309877Y365002D01*
X309879Y365030D01*
X309879Y383021D01*
X311426Y386756D01*
X314463Y389792D01*
X323823Y399152D01*
X323896Y399247D01*
X323975Y399336D01*
X323993Y399372D01*
X324018Y399404D01*
X324065Y399513D01*
X324119Y399619D01*
X324128Y399658D01*
X324144Y399696D01*
X324163Y399813D01*
X324189Y399929D01*
X324188Y399970D01*
X324194Y400010D01*
X324183Y400128D01*
X324179Y400247D01*
X324168Y400286D01*
X324164Y400326D01*
X324124Y400439D01*
X324091Y400553D01*
X324070Y400587D01*
X324057Y400626D01*
X323990Y400724D01*
X323929Y400827D01*
X323890Y400872D01*
X323878Y400889D01*
X323863Y400902D01*
X323823Y400947D01*
X304007Y420764D01*
X303909Y420840D01*
X303816Y420921D01*
X303771Y420947D01*
X303755Y420959D01*
X303736Y420967D01*
X303677Y421002D01*
X263144Y441268D01*
X263008Y441316D01*
X262874Y441367D01*
X262858Y441368D01*
X262844Y441374D01*
X262701Y441386D01*
X262558Y441402D01*
X262542Y441400D01*
X262527Y441401D01*
X262386Y441378D01*
X262243Y441358D01*
X262223Y441351D01*
X262213Y441349D01*
X262196Y441342D01*
X262090Y441305D01*
X257537Y439419D01*
X250463Y439419D01*
X243928Y442126D01*
X238926Y447128D01*
X236219Y453663D01*
X236219Y460737D01*
X238926Y467272D01*
X243928Y472274D01*
X250463Y474981D01*
X257537Y474981D01*
X264072Y472274D01*
X269074Y467272D01*
X271781Y460737D01*
X271781Y460454D01*
X271799Y460312D01*
X271813Y460169D01*
X271819Y460154D01*
X271821Y460139D01*
X271873Y460005D01*
X271923Y459871D01*
X271932Y459858D01*
X271938Y459843D01*
X272022Y459727D01*
X272103Y459609D01*
X272115Y459598D01*
X272124Y459586D01*
X272235Y459494D01*
X272343Y459400D01*
X272362Y459389D01*
X272369Y459383D01*
X272386Y459375D01*
X272482Y459319D01*
X285182Y452969D01*
X285272Y452937D01*
X285357Y452897D01*
X285421Y452885D01*
X285482Y452863D01*
X285577Y452855D01*
X285670Y452837D01*
X285734Y452841D01*
X285799Y452836D01*
X285893Y452851D01*
X285987Y452857D01*
X286049Y452877D01*
X286113Y452888D01*
X286200Y452926D01*
X286289Y452955D01*
X286344Y452990D01*
X286404Y453016D01*
X286478Y453075D01*
X286558Y453125D01*
X286603Y453173D01*
X286654Y453213D01*
X286711Y453288D01*
X286776Y453357D01*
X286807Y453414D01*
X286847Y453466D01*
X286884Y453553D01*
X286930Y453635D01*
X286946Y453698D01*
X286971Y453758D01*
X286985Y453852D01*
X287009Y453943D01*
X287016Y454054D01*
X287019Y454073D01*
X287018Y454083D01*
X287019Y454104D01*
X287019Y464565D01*
X297435Y474981D01*
X312165Y474981D01*
X322581Y464565D01*
X322581Y449835D01*
X313449Y440703D01*
X313446Y440700D01*
X313443Y440697D01*
X313349Y440575D01*
X313254Y440452D01*
X313252Y440448D01*
X313250Y440444D01*
X313189Y440302D01*
X313128Y440160D01*
X313127Y440156D01*
X313125Y440152D01*
X313102Y439999D01*
X313078Y439846D01*
X313078Y439842D01*
X313078Y439837D01*
X313093Y439685D01*
X313108Y439529D01*
X313109Y439525D01*
X313110Y439521D01*
X313163Y439377D01*
X313215Y439230D01*
X313218Y439226D01*
X313219Y439222D01*
X313307Y439096D01*
X313394Y438967D01*
X313397Y438964D01*
X313400Y438960D01*
X313515Y438860D01*
X313632Y438757D01*
X313636Y438754D01*
X313640Y438752D01*
X313779Y438671D01*
X314061Y438530D01*
X314081Y438522D01*
X314143Y438492D01*
X315636Y437874D01*
X315753Y437756D01*
X315851Y437680D01*
X315944Y437599D01*
X315989Y437573D01*
X316005Y437561D01*
X316024Y437553D01*
X316083Y437518D01*
X316232Y437444D01*
X317290Y436224D01*
X317306Y436210D01*
X317351Y436158D01*
X338193Y415317D01*
X338287Y415244D01*
X338376Y415165D01*
X338412Y415147D01*
X338444Y415122D01*
X338553Y415075D01*
X338659Y415021D01*
X338698Y415012D01*
X338736Y414996D01*
X338853Y414977D01*
X338969Y414951D01*
X339010Y414952D01*
X339050Y414946D01*
X339168Y414957D01*
X339287Y414961D01*
X339326Y414972D01*
X339366Y414976D01*
X339479Y415016D01*
X339593Y415049D01*
X339628Y415070D01*
X339666Y415083D01*
X339764Y415150D01*
X339867Y415211D01*
X339912Y415250D01*
X339929Y415262D01*
X339942Y415277D01*
X339988Y415317D01*
X375244Y450574D01*
X377402Y451468D01*
X377410Y451472D01*
X377419Y451475D01*
X377548Y451551D01*
X377679Y451625D01*
X377685Y451632D01*
X377693Y451636D01*
X377814Y451743D01*
X380477Y454406D01*
X384772Y456185D01*
X402628Y456185D01*
X406923Y454406D01*
X410210Y451119D01*
X411989Y446824D01*
X411989Y442176D01*
X410210Y437881D01*
X406923Y434594D01*
X403008Y432973D01*
X402887Y432904D01*
X402764Y432839D01*
X402749Y432825D01*
X402732Y432815D01*
X402632Y432718D01*
X402529Y432625D01*
X402518Y432608D01*
X402503Y432594D01*
X402431Y432475D01*
X402354Y432359D01*
X402348Y432340D01*
X402337Y432323D01*
X402296Y432190D01*
X402251Y432058D01*
X402250Y432038D01*
X402244Y432019D01*
X402237Y431880D01*
X402226Y431741D01*
X402229Y431721D01*
X402228Y431701D01*
X402257Y431565D01*
X402280Y431428D01*
X402289Y431409D01*
X402293Y431390D01*
X402354Y431264D01*
X402411Y431138D01*
X402424Y431122D01*
X402432Y431104D01*
X402523Y430998D01*
X402610Y430890D01*
X402626Y430877D01*
X402639Y430862D01*
X402753Y430782D01*
X402864Y430698D01*
X402889Y430686D01*
X402899Y430679D01*
X402918Y430672D01*
X403008Y430627D01*
X406923Y429006D01*
X410210Y425719D01*
X411989Y421424D01*
X411989Y416776D01*
X410210Y412481D01*
X406772Y409044D01*
X406712Y408966D01*
X406644Y408893D01*
X406615Y408840D01*
X406578Y408793D01*
X406538Y408702D01*
X406490Y408615D01*
X406475Y408556D01*
X406451Y408501D01*
X406436Y408403D01*
X406411Y408307D01*
X406405Y408207D01*
X406401Y408187D01*
X406403Y408174D01*
X406401Y408146D01*
X406401Y404654D01*
X406413Y404556D01*
X406416Y404456D01*
X406433Y404398D01*
X406441Y404338D01*
X406477Y404246D01*
X406505Y404151D01*
X406535Y404099D01*
X406558Y404042D01*
X406616Y403962D01*
X406666Y403877D01*
X406732Y403802D01*
X406744Y403785D01*
X406754Y403777D01*
X406772Y403756D01*
X410210Y400319D01*
X411989Y396024D01*
X411989Y391376D01*
X410210Y387081D01*
X406923Y383794D01*
X403008Y382173D01*
X402887Y382104D01*
X402764Y382039D01*
X402749Y382025D01*
X402732Y382015D01*
X402632Y381918D01*
X402529Y381825D01*
X402518Y381808D01*
X402503Y381794D01*
X402431Y381675D01*
X402354Y381559D01*
X402348Y381540D01*
X402337Y381523D01*
X402296Y381390D01*
X402251Y381258D01*
X402250Y381238D01*
X402244Y381219D01*
X402237Y381080D01*
X402226Y380941D01*
X402229Y380921D01*
X402228Y380901D01*
X402257Y380765D01*
X402280Y380628D01*
X402289Y380609D01*
X402293Y380590D01*
X402354Y380464D01*
X402411Y380338D01*
X402424Y380322D01*
X402432Y380304D01*
X402523Y380198D01*
X402610Y380090D01*
X402626Y380077D01*
X402639Y380062D01*
X402753Y379982D01*
X402864Y379898D01*
X402889Y379886D01*
X402899Y379879D01*
X402918Y379872D01*
X403008Y379827D01*
X406923Y378206D01*
X410210Y374919D01*
X411989Y370624D01*
X411989Y365976D01*
X410210Y361681D01*
X406923Y358394D01*
X403008Y356773D01*
X402887Y356704D01*
X402764Y356639D01*
X402749Y356625D01*
X402732Y356615D01*
X402632Y356518D01*
X402529Y356425D01*
X402518Y356408D01*
X402503Y356394D01*
X402431Y356275D01*
X402354Y356159D01*
X402348Y356140D01*
X402337Y356123D01*
X402296Y355990D01*
X402251Y355858D01*
X402250Y355838D01*
X402244Y355819D01*
X402237Y355680D01*
X402226Y355541D01*
X402229Y355521D01*
X402228Y355501D01*
X402257Y355365D01*
X402280Y355228D01*
X402289Y355209D01*
X402293Y355190D01*
X402354Y355064D01*
X402411Y354938D01*
X402424Y354922D01*
X402432Y354904D01*
X402523Y354798D01*
X402610Y354690D01*
X402626Y354677D01*
X402639Y354662D01*
X402753Y354582D01*
X402864Y354498D01*
X402889Y354486D01*
X402899Y354479D01*
X402918Y354472D01*
X403008Y354427D01*
X406923Y352806D01*
X410210Y349519D01*
X411989Y345224D01*
X411989Y340576D01*
X410210Y336281D01*
X406923Y332994D01*
X403008Y331373D01*
X402888Y331304D01*
X402764Y331239D01*
X402750Y331225D01*
X402732Y331215D01*
X402632Y331118D01*
X402529Y331025D01*
X402518Y331008D01*
X402503Y330994D01*
X402431Y330876D01*
X402354Y330759D01*
X402348Y330740D01*
X402337Y330723D01*
X402296Y330590D01*
X402251Y330458D01*
X402250Y330438D01*
X402244Y330419D01*
X402237Y330280D01*
X402226Y330141D01*
X402229Y330121D01*
X402228Y330101D01*
X402257Y329965D01*
X402280Y329828D01*
X402289Y329810D01*
X402293Y329790D01*
X402354Y329664D01*
X402411Y329538D01*
X402424Y329522D01*
X402432Y329504D01*
X402523Y329398D01*
X402610Y329290D01*
X402626Y329277D01*
X402639Y329262D01*
X402753Y329182D01*
X402864Y329098D01*
X402889Y329086D01*
X402899Y329079D01*
X402918Y329072D01*
X403008Y329027D01*
X406923Y327406D01*
X410210Y324119D01*
X411989Y319824D01*
X411989Y315176D01*
X410210Y310881D01*
X406923Y307594D01*
X402628Y305815D01*
X384772Y305815D01*
X380477Y307594D01*
X378087Y309984D01*
X377978Y310069D01*
X377871Y310158D01*
X377852Y310166D01*
X377836Y310179D01*
X377708Y310234D01*
X377583Y310293D01*
X377563Y310297D01*
X377544Y310305D01*
X377406Y310327D01*
X377270Y310353D01*
X377250Y310352D01*
X377230Y310355D01*
X377091Y310342D01*
X376953Y310333D01*
X376934Y310327D01*
X376914Y310325D01*
X376782Y310278D01*
X376651Y310235D01*
X376633Y310224D01*
X376614Y310218D01*
X376499Y310139D01*
X376382Y310065D01*
X376368Y310050D01*
X376351Y310039D01*
X376259Y309935D01*
X376164Y309833D01*
X376154Y309816D01*
X376141Y309801D01*
X376077Y309676D01*
X376010Y309555D01*
X376005Y309535D01*
X375996Y309517D01*
X375966Y309381D01*
X375931Y309247D01*
X375929Y309219D01*
X375926Y309207D01*
X375927Y309187D01*
X375921Y309086D01*
X375921Y218094D01*
X375933Y217996D01*
X375936Y217897D01*
X375953Y217839D01*
X375961Y217779D01*
X375997Y217687D01*
X376025Y217592D01*
X376055Y217540D01*
X376078Y217483D01*
X376136Y217403D01*
X376186Y217318D01*
X376252Y217242D01*
X376264Y217226D01*
X376274Y217218D01*
X376292Y217197D01*
X389917Y203572D01*
X389995Y203512D01*
X390067Y203444D01*
X390120Y203415D01*
X390168Y203378D01*
X390259Y203338D01*
X390346Y203290D01*
X390404Y203275D01*
X390460Y203251D01*
X390558Y203236D01*
X390654Y203211D01*
X390754Y203205D01*
X390774Y203201D01*
X390786Y203203D01*
X390814Y203201D01*
X403846Y203201D01*
X408514Y201267D01*
X412087Y197694D01*
X414021Y193026D01*
X414021Y187974D01*
X412087Y183306D01*
X408514Y179733D01*
X403846Y177799D01*
X383554Y177799D01*
X379476Y179488D01*
X379361Y179520D01*
X379249Y179558D01*
X379208Y179562D01*
X379169Y179572D01*
X379050Y179574D01*
X378932Y179584D01*
X378892Y179577D01*
X378851Y179577D01*
X378736Y179550D01*
X378618Y179529D01*
X378581Y179513D01*
X378542Y179503D01*
X378437Y179447D01*
X378328Y179399D01*
X378297Y179373D01*
X378261Y179354D01*
X378173Y179274D01*
X378080Y179200D01*
X378056Y179168D01*
X378026Y179140D01*
X377960Y179041D01*
X377889Y178946D01*
X377862Y178892D01*
X377851Y178875D01*
X377844Y178855D01*
X377818Y178801D01*
X376527Y175686D01*
X372954Y172113D01*
X368286Y170179D01*
X367954Y170179D01*
X367856Y170167D01*
X367757Y170164D01*
X367699Y170147D01*
X367639Y170139D01*
X367547Y170103D01*
X367452Y170075D01*
X367400Y170045D01*
X367343Y170022D01*
X367263Y169964D01*
X367178Y169914D01*
X367102Y169848D01*
X367086Y169836D01*
X367078Y169826D01*
X367057Y169808D01*
X354357Y157107D01*
X354284Y157013D01*
X354205Y156924D01*
X354187Y156888D01*
X354162Y156856D01*
X354115Y156747D01*
X354061Y156641D01*
X354052Y156602D01*
X354036Y156564D01*
X354017Y156447D01*
X353991Y156331D01*
X353992Y156290D01*
X353986Y156250D01*
X353997Y156132D01*
X354001Y156013D01*
X354012Y155974D01*
X354016Y155934D01*
X354056Y155821D01*
X354089Y155707D01*
X354110Y155672D01*
X354123Y155634D01*
X354190Y155536D01*
X354251Y155433D01*
X354290Y155388D01*
X354302Y155371D01*
X354317Y155358D01*
X354357Y155312D01*
X371213Y138457D01*
X371322Y138372D01*
X371429Y138283D01*
X371448Y138274D01*
X371464Y138262D01*
X371592Y138207D01*
X371717Y138148D01*
X371737Y138144D01*
X371756Y138136D01*
X371894Y138114D01*
X372030Y138088D01*
X372050Y138089D01*
X372070Y138086D01*
X372209Y138099D01*
X372347Y138107D01*
X372366Y138114D01*
X372386Y138116D01*
X372518Y138163D01*
X372649Y138206D01*
X372667Y138216D01*
X372686Y138223D01*
X372801Y138301D01*
X372918Y138376D01*
X372932Y138390D01*
X372949Y138402D01*
X373041Y138506D01*
X373136Y138607D01*
X373146Y138625D01*
X373159Y138640D01*
X373223Y138764D01*
X373290Y138886D01*
X373295Y138905D01*
X373304Y138923D01*
X373334Y139059D01*
X373369Y139194D01*
X373371Y139222D01*
X373374Y139234D01*
X373373Y139254D01*
X373379Y139354D01*
X373379Y142226D01*
X375313Y146894D01*
X378886Y150467D01*
X383554Y152401D01*
X403846Y152401D01*
X408514Y150467D01*
X412087Y146894D01*
X414021Y142226D01*
X414021Y137174D01*
X412087Y132506D01*
X408514Y128933D01*
X403846Y126999D01*
X385734Y126999D01*
X385597Y126982D01*
X385458Y126969D01*
X385439Y126962D01*
X385419Y126959D01*
X385290Y126908D01*
X385159Y126861D01*
X385142Y126850D01*
X385123Y126842D01*
X385011Y126761D01*
X384896Y126683D01*
X384882Y126667D01*
X384866Y126656D01*
X384777Y126548D01*
X384685Y126444D01*
X384676Y126426D01*
X384663Y126411D01*
X384604Y126285D01*
X384541Y126161D01*
X384536Y126141D01*
X384528Y126123D01*
X384501Y125987D01*
X384471Y125851D01*
X384472Y125830D01*
X384468Y125811D01*
X384476Y125672D01*
X384481Y125533D01*
X384486Y125513D01*
X384487Y125493D01*
X384530Y125361D01*
X384569Y125227D01*
X384579Y125210D01*
X384586Y125191D01*
X384660Y125073D01*
X384731Y124953D01*
X384749Y124932D01*
X384756Y124922D01*
X384771Y124908D01*
X384837Y124833D01*
X394197Y115472D01*
X397234Y112436D01*
X398781Y108701D01*
X398781Y102870D01*
X398796Y102752D01*
X398803Y102633D01*
X398816Y102595D01*
X398821Y102554D01*
X398864Y102444D01*
X398901Y102331D01*
X398923Y102296D01*
X398938Y102259D01*
X399007Y102163D01*
X399071Y102062D01*
X399101Y102034D01*
X399124Y102001D01*
X399216Y101925D01*
X399303Y101844D01*
X399338Y101824D01*
X399369Y101799D01*
X399477Y101748D01*
X399581Y101690D01*
X399621Y101680D01*
X399657Y101663D01*
X399774Y101641D01*
X399889Y101611D01*
X399949Y101607D01*
X399969Y101603D01*
X399990Y101605D01*
X400050Y101601D01*
X403846Y101601D01*
X408514Y99667D01*
X412087Y96094D01*
X414021Y91426D01*
X414021Y86374D01*
X412087Y81706D01*
X408514Y78133D01*
X403846Y76199D01*
X383554Y76199D01*
X378886Y78133D01*
X375313Y81706D01*
X373379Y86374D01*
X373379Y91426D01*
X375313Y96094D01*
X378088Y98869D01*
X378148Y98947D01*
X378216Y99019D01*
X378245Y99072D01*
X378282Y99120D01*
X378322Y99211D01*
X378370Y99298D01*
X378385Y99356D01*
X378409Y99412D01*
X378424Y99510D01*
X378449Y99606D01*
X378455Y99706D01*
X378459Y99726D01*
X378457Y99739D01*
X378459Y99767D01*
X378459Y101946D01*
X378447Y102044D01*
X378444Y102143D01*
X378427Y102201D01*
X378419Y102261D01*
X378383Y102353D01*
X378355Y102448D01*
X378325Y102500D01*
X378302Y102557D01*
X378244Y102637D01*
X378194Y102722D01*
X378128Y102798D01*
X378116Y102814D01*
X378106Y102822D01*
X378088Y102843D01*
X329703Y151228D01*
X326488Y154443D01*
X289187Y191743D01*
X289078Y191828D01*
X288971Y191917D01*
X288952Y191926D01*
X288936Y191938D01*
X288808Y191993D01*
X288683Y192052D01*
X288663Y192056D01*
X288644Y192064D01*
X288506Y192086D01*
X288370Y192112D01*
X288350Y192111D01*
X288330Y192114D01*
X288191Y192101D01*
X288053Y192093D01*
X288034Y192086D01*
X288014Y192084D01*
X287882Y192037D01*
X287751Y191994D01*
X287733Y191984D01*
X287714Y191977D01*
X287599Y191899D01*
X287482Y191824D01*
X287468Y191810D01*
X287451Y191798D01*
X287359Y191694D01*
X287264Y191593D01*
X287254Y191575D01*
X287241Y191560D01*
X287177Y191436D01*
X287110Y191314D01*
X287105Y191295D01*
X287096Y191277D01*
X287066Y191141D01*
X287031Y191006D01*
X287029Y190978D01*
X287026Y190966D01*
X287027Y190946D01*
X287021Y190846D01*
X287021Y187974D01*
X285087Y183306D01*
X281514Y179733D01*
X276846Y177799D01*
X256554Y177799D01*
X251886Y179733D01*
X251651Y179968D01*
X251573Y180028D01*
X251501Y180096D01*
X251448Y180125D01*
X251400Y180162D01*
X251309Y180202D01*
X251222Y180250D01*
X251164Y180265D01*
X251108Y180289D01*
X251010Y180304D01*
X250914Y180329D01*
X250814Y180335D01*
X250794Y180339D01*
X250781Y180337D01*
X250753Y180339D01*
X222835Y180339D01*
X222780Y180332D01*
X222726Y180335D01*
X222623Y180313D01*
X222519Y180299D01*
X222468Y180279D01*
X222415Y180268D01*
X222321Y180221D01*
X222223Y180182D01*
X222179Y180150D01*
X222130Y180126D01*
X222051Y180057D01*
X221966Y179996D01*
X221931Y179953D01*
X221890Y179917D01*
X221830Y179831D01*
X221763Y179751D01*
X221740Y179701D01*
X221709Y179656D01*
X221672Y179558D01*
X221628Y179463D01*
X221617Y179409D01*
X221598Y179358D01*
X221588Y179253D01*
X221568Y179151D01*
X221571Y179096D01*
X221566Y179041D01*
X221581Y178938D01*
X221588Y178833D01*
X221605Y178781D01*
X221613Y178727D01*
X221653Y178630D01*
X221686Y178531D01*
X221715Y178484D01*
X221736Y178434D01*
X221800Y178350D01*
X221856Y178262D01*
X221896Y178224D01*
X221929Y178181D01*
X222011Y178116D01*
X222088Y178044D01*
X222135Y178018D01*
X222178Y177984D01*
X222274Y177941D01*
X222366Y177890D01*
X222419Y177877D01*
X222469Y177855D01*
X222626Y177818D01*
X222650Y177817D01*
X222674Y177811D01*
X222835Y177801D01*
X245861Y177801D01*
X249596Y176254D01*
X272277Y153572D01*
X273077Y152773D01*
X273155Y152712D01*
X273227Y152644D01*
X273280Y152615D01*
X273328Y152578D01*
X273419Y152538D01*
X273506Y152490D01*
X273564Y152475D01*
X273620Y152451D01*
X273718Y152436D01*
X273814Y152411D01*
X273914Y152405D01*
X273934Y152401D01*
X273946Y152403D01*
X273974Y152401D01*
X276846Y152401D01*
X281514Y150467D01*
X285087Y146894D01*
X287021Y142226D01*
X287021Y137174D01*
X285087Y132506D01*
X281514Y128933D01*
X276846Y126999D01*
X256554Y126999D01*
X251886Y128933D01*
X248313Y132506D01*
X246379Y137174D01*
X246379Y142226D01*
X248313Y146894D01*
X248367Y146949D01*
X248440Y147043D01*
X248519Y147132D01*
X248537Y147168D01*
X248562Y147200D01*
X248609Y147309D01*
X248663Y147415D01*
X248672Y147454D01*
X248688Y147492D01*
X248707Y147609D01*
X248733Y147725D01*
X248732Y147766D01*
X248738Y147806D01*
X248727Y147924D01*
X248723Y148043D01*
X248712Y148082D01*
X248708Y148122D01*
X248668Y148235D01*
X248635Y148349D01*
X248614Y148384D01*
X248601Y148422D01*
X248534Y148520D01*
X248473Y148623D01*
X248434Y148668D01*
X248422Y148685D01*
X248407Y148698D01*
X248367Y148744D01*
X240003Y157108D01*
X239925Y157168D01*
X239853Y157236D01*
X239800Y157265D01*
X239752Y157302D01*
X239661Y157342D01*
X239574Y157390D01*
X239516Y157405D01*
X239460Y157429D01*
X239362Y157444D01*
X239266Y157469D01*
X239166Y157475D01*
X239146Y157479D01*
X239134Y157477D01*
X239106Y157479D01*
X225239Y157479D01*
X225141Y157467D01*
X225042Y157464D01*
X224984Y157447D01*
X224924Y157439D01*
X224832Y157403D01*
X224737Y157375D01*
X224684Y157345D01*
X224628Y157322D01*
X224548Y157264D01*
X224463Y157214D01*
X224387Y157148D01*
X224371Y157136D01*
X224363Y157126D01*
X224342Y157108D01*
X222483Y155248D01*
X218437Y153573D01*
X218316Y153504D01*
X218193Y153439D01*
X218178Y153425D01*
X218161Y153415D01*
X218061Y153318D01*
X217958Y153225D01*
X217947Y153208D01*
X217932Y153194D01*
X217860Y153076D01*
X217783Y152959D01*
X217777Y152940D01*
X217766Y152923D01*
X217725Y152790D01*
X217680Y152658D01*
X217678Y152638D01*
X217672Y152619D01*
X217666Y152480D01*
X217655Y152341D01*
X217658Y152321D01*
X217657Y152301D01*
X217685Y152165D01*
X217709Y152028D01*
X217717Y152009D01*
X217722Y151990D01*
X217783Y151865D01*
X217840Y151738D01*
X217852Y151722D01*
X217861Y151704D01*
X217952Y151598D01*
X218038Y151490D01*
X218054Y151477D01*
X218068Y151462D01*
X218181Y151382D01*
X218292Y151298D01*
X218318Y151286D01*
X218328Y151279D01*
X218347Y151272D01*
X218437Y151227D01*
X222483Y149552D01*
X225752Y146283D01*
X227521Y142012D01*
X227521Y137388D01*
X225752Y133117D01*
X222483Y129848D01*
X218437Y128173D01*
X218316Y128104D01*
X218193Y128039D01*
X218178Y128025D01*
X218161Y128015D01*
X218061Y127918D01*
X217958Y127825D01*
X217947Y127808D01*
X217932Y127794D01*
X217860Y127676D01*
X217783Y127559D01*
X217777Y127540D01*
X217766Y127523D01*
X217725Y127390D01*
X217680Y127258D01*
X217678Y127238D01*
X217672Y127219D01*
X217666Y127080D01*
X217655Y126941D01*
X217658Y126921D01*
X217657Y126901D01*
X217685Y126764D01*
X217709Y126628D01*
X217717Y126609D01*
X217722Y126590D01*
X217783Y126464D01*
X217840Y126338D01*
X217852Y126322D01*
X217861Y126304D01*
X217952Y126198D01*
X218038Y126090D01*
X218054Y126077D01*
X218068Y126062D01*
X218181Y125982D01*
X218292Y125898D01*
X218318Y125886D01*
X218328Y125879D01*
X218347Y125872D01*
X218437Y125827D01*
X222483Y124152D01*
X225752Y120883D01*
X227521Y116612D01*
X227521Y111988D01*
X225752Y107717D01*
X222483Y104448D01*
X221796Y104164D01*
X221696Y104107D01*
X221593Y104058D01*
X221559Y104029D01*
X221520Y104006D01*
X221437Y103927D01*
X221350Y103853D01*
X221323Y103816D01*
X221291Y103785D01*
X221231Y103687D01*
X221165Y103594D01*
X221148Y103552D01*
X221125Y103514D01*
X221091Y103404D01*
X221050Y103298D01*
X221044Y103253D01*
X221031Y103210D01*
X221026Y103096D01*
X221012Y102982D01*
X221018Y102937D01*
X221016Y102892D01*
X221039Y102780D01*
X221054Y102667D01*
X221071Y102625D01*
X221080Y102581D01*
X221131Y102478D01*
X221174Y102372D01*
X221200Y102336D01*
X221220Y102295D01*
X221295Y102208D01*
X221362Y102116D01*
X221397Y102087D01*
X221426Y102053D01*
X221520Y101987D01*
X221609Y101915D01*
X221650Y101896D01*
X221686Y101870D01*
X221794Y101830D01*
X221898Y101781D01*
X221942Y101773D01*
X221984Y101757D01*
X222098Y101745D01*
X222210Y101724D01*
X222258Y101724D01*
X222433Y101666D01*
X222555Y101642D01*
X222674Y101611D01*
X222727Y101608D01*
X222745Y101604D01*
X222767Y101605D01*
X222835Y101601D01*
X276846Y101601D01*
X281514Y99667D01*
X285087Y96094D01*
X287021Y91426D01*
X287021Y86374D01*
X285087Y81706D01*
X281514Y78133D01*
X276846Y76199D01*
X256554Y76199D01*
X251886Y78133D01*
X249111Y80908D01*
X249033Y80968D01*
X248961Y81036D01*
X248908Y81065D01*
X248860Y81102D01*
X248769Y81142D01*
X248682Y81190D01*
X248624Y81205D01*
X248568Y81229D01*
X248470Y81244D01*
X248374Y81269D01*
X248274Y81275D01*
X248254Y81279D01*
X248241Y81277D01*
X248213Y81279D01*
X225239Y81279D01*
X225141Y81267D01*
X225042Y81264D01*
X224984Y81247D01*
X224924Y81239D01*
X224832Y81203D01*
X224737Y81175D01*
X224684Y81145D01*
X224628Y81122D01*
X224548Y81064D01*
X224463Y81014D01*
X224387Y80948D01*
X224371Y80936D01*
X224363Y80926D01*
X224342Y80908D01*
X222483Y79048D01*
X218437Y77373D01*
X218316Y77304D01*
X218193Y77239D01*
X218178Y77225D01*
X218161Y77215D01*
X218061Y77118D01*
X217958Y77025D01*
X217947Y77008D01*
X217932Y76994D01*
X217860Y76876D01*
X217783Y76759D01*
X217777Y76740D01*
X217766Y76723D01*
X217725Y76590D01*
X217680Y76458D01*
X217678Y76438D01*
X217672Y76419D01*
X217666Y76280D01*
X217655Y76141D01*
X217658Y76121D01*
X217657Y76101D01*
X217685Y75964D01*
X217709Y75828D01*
X217717Y75809D01*
X217722Y75790D01*
X217783Y75665D01*
X217840Y75538D01*
X217852Y75522D01*
X217861Y75504D01*
X217952Y75398D01*
X218038Y75290D01*
X218054Y75277D01*
X218068Y75262D01*
X218181Y75182D01*
X218292Y75098D01*
X218318Y75086D01*
X218328Y75079D01*
X218347Y75072D01*
X218437Y75027D01*
X222483Y73352D01*
X225752Y70083D01*
X227521Y65812D01*
X227521Y61188D01*
X225752Y56917D01*
X222483Y53648D01*
X218212Y51879D01*
X213588Y51879D01*
G37*
%LPD*%
G36*
X339168Y171117D02*
X339168Y171117D01*
X339287Y171121D01*
X339326Y171132D01*
X339366Y171136D01*
X339479Y171176D01*
X339593Y171209D01*
X339627Y171230D01*
X339666Y171243D01*
X339764Y171310D01*
X339867Y171371D01*
X339912Y171410D01*
X339929Y171422D01*
X339942Y171437D01*
X339987Y171477D01*
X352688Y184177D01*
X352748Y184255D01*
X352816Y184327D01*
X352845Y184380D01*
X352882Y184428D01*
X352922Y184519D01*
X352970Y184606D01*
X352985Y184664D01*
X353009Y184720D01*
X353024Y184818D01*
X353049Y184914D01*
X353055Y185014D01*
X353059Y185034D01*
X353057Y185046D01*
X353059Y185074D01*
X353059Y185406D01*
X354993Y190074D01*
X358566Y193647D01*
X363234Y195581D01*
X366106Y195581D01*
X366243Y195598D01*
X366382Y195611D01*
X366401Y195618D01*
X366421Y195621D01*
X366550Y195672D01*
X366681Y195719D01*
X366698Y195730D01*
X366717Y195738D01*
X366829Y195819D01*
X366944Y195897D01*
X366958Y195913D01*
X366974Y195924D01*
X367063Y196032D01*
X367155Y196136D01*
X367164Y196154D01*
X367177Y196169D01*
X367236Y196295D01*
X367299Y196419D01*
X367304Y196439D01*
X367312Y196457D01*
X367339Y196593D01*
X367369Y196729D01*
X367368Y196750D01*
X367372Y196769D01*
X367364Y196908D01*
X367359Y197047D01*
X367354Y197067D01*
X367353Y197087D01*
X367310Y197219D01*
X367271Y197353D01*
X367261Y197370D01*
X367254Y197389D01*
X367180Y197507D01*
X367109Y197627D01*
X367091Y197648D01*
X367084Y197658D01*
X367069Y197672D01*
X367003Y197747D01*
X357146Y207604D01*
X355599Y211339D01*
X355599Y352541D01*
X357146Y356276D01*
X375244Y374374D01*
X377402Y375268D01*
X377410Y375272D01*
X377419Y375275D01*
X377548Y375351D01*
X377679Y375425D01*
X377685Y375432D01*
X377693Y375436D01*
X377814Y375543D01*
X380477Y378206D01*
X384392Y379827D01*
X384512Y379896D01*
X384636Y379961D01*
X384650Y379975D01*
X384668Y379985D01*
X384768Y380082D01*
X384871Y380175D01*
X384882Y380192D01*
X384897Y380206D01*
X384969Y380324D01*
X385046Y380441D01*
X385052Y380460D01*
X385063Y380477D01*
X385104Y380610D01*
X385149Y380742D01*
X385150Y380762D01*
X385156Y380781D01*
X385163Y380920D01*
X385174Y381059D01*
X385171Y381079D01*
X385172Y381099D01*
X385143Y381235D01*
X385120Y381372D01*
X385111Y381390D01*
X385107Y381410D01*
X385046Y381536D01*
X384989Y381662D01*
X384976Y381678D01*
X384968Y381696D01*
X384877Y381802D01*
X384790Y381910D01*
X384774Y381923D01*
X384761Y381938D01*
X384647Y382018D01*
X384536Y382102D01*
X384511Y382114D01*
X384501Y382121D01*
X384482Y382128D01*
X384392Y382173D01*
X380477Y383794D01*
X377190Y387081D01*
X375411Y391376D01*
X375411Y396024D01*
X377190Y400319D01*
X380477Y403606D01*
X384392Y405227D01*
X384512Y405296D01*
X384636Y405361D01*
X384650Y405375D01*
X384668Y405385D01*
X384768Y405482D01*
X384871Y405575D01*
X384882Y405592D01*
X384897Y405606D01*
X384969Y405724D01*
X385046Y405841D01*
X385052Y405860D01*
X385063Y405877D01*
X385104Y406010D01*
X385149Y406142D01*
X385150Y406162D01*
X385156Y406181D01*
X385163Y406320D01*
X385174Y406459D01*
X385171Y406479D01*
X385172Y406499D01*
X385143Y406635D01*
X385120Y406772D01*
X385111Y406790D01*
X385107Y406810D01*
X385046Y406936D01*
X384989Y407062D01*
X384976Y407078D01*
X384968Y407096D01*
X384877Y407202D01*
X384790Y407310D01*
X384774Y407323D01*
X384761Y407338D01*
X384647Y407418D01*
X384536Y407502D01*
X384511Y407514D01*
X384501Y407521D01*
X384482Y407528D01*
X384392Y407573D01*
X380477Y409194D01*
X377190Y412481D01*
X375411Y416776D01*
X375411Y418938D01*
X375394Y419075D01*
X375381Y419214D01*
X375374Y419233D01*
X375371Y419253D01*
X375320Y419382D01*
X375273Y419513D01*
X375262Y419530D01*
X375254Y419549D01*
X375173Y419661D01*
X375095Y419776D01*
X375079Y419790D01*
X375068Y419806D01*
X374960Y419895D01*
X374856Y419987D01*
X374838Y419996D01*
X374823Y420009D01*
X374697Y420068D01*
X374573Y420131D01*
X374553Y420136D01*
X374535Y420144D01*
X374399Y420171D01*
X374263Y420201D01*
X374242Y420200D01*
X374223Y420204D01*
X374084Y420196D01*
X373945Y420191D01*
X373925Y420186D01*
X373905Y420185D01*
X373773Y420142D01*
X373639Y420103D01*
X373622Y420093D01*
X373603Y420086D01*
X373485Y420012D01*
X373365Y419941D01*
X373344Y419923D01*
X373334Y419916D01*
X373320Y419901D01*
X373245Y419835D01*
X351692Y398283D01*
X330572Y377163D01*
X330512Y377085D01*
X330444Y377013D01*
X330415Y376960D01*
X330378Y376912D01*
X330338Y376821D01*
X330290Y376734D01*
X330275Y376676D01*
X330251Y376620D01*
X330236Y376522D01*
X330211Y376426D01*
X330205Y376326D01*
X330201Y376306D01*
X330203Y376294D01*
X330201Y376266D01*
X330201Y356119D01*
X329281Y353899D01*
X329279Y353890D01*
X329274Y353882D01*
X329237Y353737D01*
X329197Y353593D01*
X329197Y353583D01*
X329195Y353574D01*
X329185Y353414D01*
X329185Y350760D01*
X322340Y343915D01*
X321218Y343915D01*
X321081Y343898D01*
X320942Y343885D01*
X320923Y343878D01*
X320903Y343875D01*
X320774Y343824D01*
X320643Y343777D01*
X320626Y343766D01*
X320607Y343758D01*
X320495Y343677D01*
X320380Y343599D01*
X320366Y343583D01*
X320350Y343572D01*
X320261Y343464D01*
X320169Y343360D01*
X320160Y343342D01*
X320147Y343327D01*
X320088Y343201D01*
X320025Y343077D01*
X320020Y343057D01*
X320012Y343039D01*
X319985Y342903D01*
X319955Y342767D01*
X319956Y342746D01*
X319952Y342727D01*
X319960Y342588D01*
X319965Y342449D01*
X319970Y342429D01*
X319971Y342409D01*
X320014Y342277D01*
X320053Y342143D01*
X320063Y342126D01*
X320070Y342107D01*
X320144Y341989D01*
X320215Y341869D01*
X320233Y341848D01*
X320240Y341838D01*
X320255Y341824D01*
X320321Y341749D01*
X340857Y321212D01*
X343894Y318176D01*
X345441Y314441D01*
X345441Y295159D01*
X343894Y291424D01*
X281967Y229497D01*
X281894Y229403D01*
X281815Y229314D01*
X281797Y229278D01*
X281772Y229246D01*
X281725Y229137D01*
X281671Y229031D01*
X281662Y228992D01*
X281646Y228954D01*
X281627Y228837D01*
X281601Y228721D01*
X281602Y228680D01*
X281596Y228640D01*
X281607Y228522D01*
X281611Y228403D01*
X281622Y228364D01*
X281626Y228324D01*
X281666Y228211D01*
X281699Y228097D01*
X281720Y228062D01*
X281733Y228024D01*
X281800Y227926D01*
X281861Y227823D01*
X281900Y227778D01*
X281912Y227761D01*
X281927Y227748D01*
X281967Y227702D01*
X338192Y171477D01*
X338287Y171404D01*
X338376Y171325D01*
X338412Y171307D01*
X338444Y171282D01*
X338553Y171235D01*
X338659Y171181D01*
X338698Y171172D01*
X338736Y171156D01*
X338853Y171137D01*
X338969Y171111D01*
X339010Y171112D01*
X339050Y171106D01*
X339168Y171117D01*
G37*
%LPC*%
G36*
X111988Y51879D02*
X111988Y51879D01*
X107717Y53648D01*
X104448Y56917D01*
X102679Y61188D01*
X102679Y65812D01*
X104448Y70083D01*
X107717Y73352D01*
X111763Y75027D01*
X111884Y75096D01*
X112007Y75161D01*
X112022Y75175D01*
X112039Y75185D01*
X112139Y75282D01*
X112242Y75375D01*
X112253Y75392D01*
X112268Y75406D01*
X112341Y75525D01*
X112417Y75641D01*
X112423Y75660D01*
X112434Y75677D01*
X112475Y75810D01*
X112520Y75942D01*
X112522Y75962D01*
X112528Y75981D01*
X112534Y76120D01*
X112545Y76259D01*
X112542Y76279D01*
X112543Y76299D01*
X112515Y76435D01*
X112491Y76572D01*
X112483Y76591D01*
X112478Y76610D01*
X112417Y76736D01*
X112360Y76862D01*
X112348Y76878D01*
X112339Y76896D01*
X112248Y77002D01*
X112162Y77110D01*
X112146Y77123D01*
X112132Y77138D01*
X112019Y77218D01*
X111908Y77302D01*
X111882Y77314D01*
X111872Y77321D01*
X111853Y77328D01*
X111763Y77373D01*
X107717Y79048D01*
X104448Y82317D01*
X102679Y86588D01*
X102679Y91212D01*
X104448Y95483D01*
X107717Y98752D01*
X111763Y100427D01*
X111884Y100496D01*
X112007Y100561D01*
X112022Y100575D01*
X112039Y100585D01*
X112139Y100682D01*
X112242Y100775D01*
X112253Y100792D01*
X112268Y100806D01*
X112341Y100925D01*
X112417Y101041D01*
X112423Y101060D01*
X112434Y101077D01*
X112475Y101210D01*
X112520Y101342D01*
X112522Y101362D01*
X112528Y101381D01*
X112534Y101520D01*
X112545Y101659D01*
X112542Y101679D01*
X112543Y101699D01*
X112515Y101835D01*
X112491Y101972D01*
X112483Y101991D01*
X112478Y102010D01*
X112417Y102136D01*
X112360Y102262D01*
X112348Y102278D01*
X112339Y102296D01*
X112248Y102402D01*
X112162Y102510D01*
X112146Y102523D01*
X112132Y102538D01*
X112019Y102618D01*
X111908Y102702D01*
X111882Y102714D01*
X111872Y102721D01*
X111853Y102728D01*
X111763Y102773D01*
X107717Y104448D01*
X104448Y107717D01*
X102679Y111988D01*
X102679Y116612D01*
X104448Y120883D01*
X107717Y124152D01*
X111763Y125827D01*
X111884Y125896D01*
X112007Y125961D01*
X112022Y125975D01*
X112039Y125985D01*
X112139Y126082D01*
X112242Y126175D01*
X112253Y126192D01*
X112268Y126206D01*
X112341Y126325D01*
X112417Y126441D01*
X112423Y126460D01*
X112434Y126477D01*
X112475Y126610D01*
X112520Y126742D01*
X112522Y126762D01*
X112528Y126781D01*
X112534Y126920D01*
X112545Y127059D01*
X112542Y127079D01*
X112543Y127099D01*
X112515Y127235D01*
X112491Y127372D01*
X112483Y127391D01*
X112478Y127410D01*
X112417Y127536D01*
X112360Y127662D01*
X112348Y127678D01*
X112339Y127696D01*
X112248Y127802D01*
X112162Y127910D01*
X112146Y127923D01*
X112132Y127938D01*
X112019Y128018D01*
X111908Y128102D01*
X111882Y128114D01*
X111872Y128121D01*
X111853Y128128D01*
X111763Y128173D01*
X107717Y129848D01*
X104448Y133117D01*
X102679Y137388D01*
X102679Y142012D01*
X104448Y146283D01*
X105858Y147693D01*
X105944Y147802D01*
X106032Y147909D01*
X106041Y147928D01*
X106053Y147944D01*
X106109Y148072D01*
X106168Y148197D01*
X106172Y148217D01*
X106180Y148236D01*
X106202Y148374D01*
X106228Y148510D01*
X106226Y148530D01*
X106229Y148550D01*
X106216Y148689D01*
X106208Y148827D01*
X106202Y148846D01*
X106200Y148866D01*
X106152Y148998D01*
X106110Y149129D01*
X106099Y149147D01*
X106092Y149166D01*
X106014Y149281D01*
X105940Y149398D01*
X105925Y149412D01*
X105913Y149429D01*
X105809Y149521D01*
X105708Y149616D01*
X105690Y149626D01*
X105675Y149639D01*
X105551Y149703D01*
X105429Y149770D01*
X105410Y149775D01*
X105392Y149784D01*
X105256Y149814D01*
X105122Y149849D01*
X105093Y149851D01*
X105081Y149854D01*
X105061Y149853D01*
X104961Y149859D01*
X73314Y149859D01*
X73216Y149847D01*
X73117Y149844D01*
X73059Y149827D01*
X72999Y149819D01*
X72907Y149783D01*
X72812Y149755D01*
X72760Y149725D01*
X72703Y149702D01*
X72623Y149644D01*
X72538Y149594D01*
X72462Y149528D01*
X72446Y149516D01*
X72438Y149506D01*
X72417Y149488D01*
X61459Y138530D01*
X61399Y138452D01*
X61331Y138380D01*
X61302Y138327D01*
X61265Y138279D01*
X61225Y138188D01*
X61177Y138101D01*
X61162Y138043D01*
X61138Y137987D01*
X61123Y137889D01*
X61098Y137793D01*
X61092Y137693D01*
X61088Y137673D01*
X61090Y137661D01*
X61088Y137633D01*
X61088Y137308D01*
X58951Y132150D01*
X55003Y128202D01*
X49845Y126066D01*
X49521Y126066D01*
X49423Y126053D01*
X49324Y126050D01*
X49266Y126034D01*
X49205Y126026D01*
X49113Y125989D01*
X49018Y125962D01*
X48966Y125931D01*
X48910Y125909D01*
X48830Y125851D01*
X48744Y125800D01*
X48669Y125734D01*
X48652Y125722D01*
X48645Y125713D01*
X48623Y125694D01*
X39002Y116072D01*
X38994Y116063D01*
X38974Y116044D01*
X37693Y114679D01*
X37648Y114652D01*
X37520Y114576D01*
X37509Y114566D01*
X37503Y114563D01*
X37493Y114552D01*
X37457Y114521D01*
X35745Y113812D01*
X35734Y113806D01*
X35708Y113796D01*
X34002Y113025D01*
X33950Y113017D01*
X33803Y112996D01*
X33789Y112992D01*
X33782Y112990D01*
X33769Y112985D01*
X33724Y112969D01*
X31871Y112969D01*
X31859Y112968D01*
X31831Y112969D01*
X29959Y112910D01*
X29907Y112922D01*
X29764Y112959D01*
X29749Y112960D01*
X29743Y112962D01*
X29727Y112961D01*
X29681Y112964D01*
X27968Y113674D01*
X27957Y113677D01*
X27931Y113689D01*
X26180Y114350D01*
X26137Y114381D01*
X26018Y114470D01*
X26005Y114477D01*
X26000Y114481D01*
X25986Y114486D01*
X25944Y114507D01*
X24632Y115818D01*
X24623Y115826D01*
X24604Y115846D01*
X23239Y117127D01*
X23212Y117172D01*
X23136Y117300D01*
X23126Y117311D01*
X23123Y117317D01*
X23112Y117327D01*
X23081Y117363D01*
X22372Y119075D01*
X22366Y119086D01*
X22356Y119112D01*
X21585Y120818D01*
X21577Y120870D01*
X21556Y121017D01*
X21552Y121031D01*
X21550Y121038D01*
X21545Y121051D01*
X21529Y121096D01*
X21529Y122949D01*
X21528Y122961D01*
X21529Y122989D01*
X21470Y124861D01*
X21482Y124913D01*
X21519Y125056D01*
X21520Y125071D01*
X21522Y125078D01*
X21521Y125093D01*
X21524Y125139D01*
X22074Y126465D01*
X22086Y126510D01*
X22103Y126546D01*
X22115Y126609D01*
X22144Y126693D01*
X22147Y126733D01*
X22158Y126772D01*
X22159Y126837D01*
X22163Y126859D01*
X22160Y126901D01*
X22169Y127010D01*
X22162Y127049D01*
X22163Y127090D01*
X22143Y127170D01*
X22143Y127176D01*
X22139Y127189D01*
X22135Y127206D01*
X22115Y127323D01*
X22098Y127360D01*
X22089Y127399D01*
X22033Y127505D01*
X21984Y127613D01*
X21959Y127645D01*
X21940Y127680D01*
X21860Y127768D01*
X21785Y127861D01*
X21753Y127886D01*
X21726Y127916D01*
X21626Y127981D01*
X21531Y128053D01*
X21477Y128079D01*
X21460Y128090D01*
X21441Y128097D01*
X21387Y128124D01*
X21197Y128202D01*
X17249Y132150D01*
X15112Y137308D01*
X15112Y142892D01*
X17249Y148050D01*
X21197Y151998D01*
X26355Y154134D01*
X47799Y154134D01*
X47897Y154147D01*
X47996Y154150D01*
X48054Y154166D01*
X48115Y154174D01*
X48207Y154211D01*
X48302Y154238D01*
X48354Y154269D01*
X48410Y154291D01*
X48490Y154349D01*
X48576Y154400D01*
X48651Y154466D01*
X48668Y154478D01*
X48675Y154487D01*
X48697Y154506D01*
X62824Y168634D01*
X66559Y170181D01*
X102978Y170181D01*
X103008Y170184D01*
X103037Y170182D01*
X103165Y170204D01*
X103294Y170221D01*
X103321Y170231D01*
X103350Y170236D01*
X103469Y170290D01*
X103589Y170338D01*
X103613Y170355D01*
X103640Y170367D01*
X103742Y170448D01*
X103847Y170524D01*
X103866Y170547D01*
X103889Y170566D01*
X103967Y170669D01*
X104050Y170769D01*
X104062Y170796D01*
X104080Y170820D01*
X104151Y170964D01*
X104448Y171683D01*
X107717Y174952D01*
X111763Y176627D01*
X111884Y176696D01*
X112007Y176761D01*
X112022Y176775D01*
X112039Y176785D01*
X112139Y176882D01*
X112242Y176975D01*
X112253Y176992D01*
X112268Y177006D01*
X112341Y177125D01*
X112417Y177241D01*
X112423Y177260D01*
X112434Y177277D01*
X112475Y177410D01*
X112520Y177542D01*
X112522Y177562D01*
X112528Y177581D01*
X112534Y177720D01*
X112545Y177859D01*
X112542Y177879D01*
X112543Y177899D01*
X112515Y178035D01*
X112491Y178172D01*
X112483Y178191D01*
X112478Y178210D01*
X112417Y178336D01*
X112360Y178462D01*
X112348Y178478D01*
X112339Y178496D01*
X112248Y178602D01*
X112162Y178710D01*
X112146Y178723D01*
X112132Y178738D01*
X112019Y178818D01*
X111908Y178902D01*
X111882Y178914D01*
X111872Y178921D01*
X111853Y178928D01*
X111763Y178973D01*
X108697Y180243D01*
X108688Y180245D01*
X108680Y180250D01*
X108535Y180287D01*
X108390Y180327D01*
X108381Y180327D01*
X108372Y180329D01*
X108211Y180339D01*
X58074Y180339D01*
X57976Y180327D01*
X57877Y180324D01*
X57819Y180307D01*
X57759Y180299D01*
X57667Y180263D01*
X57572Y180235D01*
X57520Y180205D01*
X57463Y180182D01*
X57383Y180124D01*
X57298Y180074D01*
X57222Y180008D01*
X57206Y179996D01*
X57198Y179986D01*
X57177Y179968D01*
X54527Y177318D01*
X54515Y177302D01*
X54500Y177289D01*
X54397Y177165D01*
X53742Y176262D01*
X53168Y175909D01*
X53114Y175866D01*
X53056Y175832D01*
X52935Y175725D01*
X52458Y175249D01*
X51427Y174822D01*
X51410Y174812D01*
X51391Y174806D01*
X51249Y174731D01*
X50298Y174147D01*
X49632Y174041D01*
X49566Y174021D01*
X49499Y174012D01*
X49346Y173960D01*
X48724Y173702D01*
X47608Y173702D01*
X47588Y173699D01*
X47568Y173701D01*
X47408Y173686D01*
X46306Y173510D01*
X45650Y173667D01*
X45582Y173675D01*
X45516Y173692D01*
X45355Y173702D01*
X44681Y173702D01*
X43650Y174129D01*
X43631Y174134D01*
X43614Y174143D01*
X43460Y174191D01*
X42374Y174450D01*
X41829Y174846D01*
X41769Y174879D01*
X41714Y174920D01*
X41570Y174991D01*
X40947Y175249D01*
X40502Y175694D01*
X40423Y175755D01*
X40351Y175823D01*
X40298Y175852D01*
X40250Y175889D01*
X40159Y175928D01*
X40073Y175976D01*
X40014Y175991D01*
X39959Y176015D01*
X39861Y176031D01*
X39765Y176056D01*
X39665Y176062D01*
X39644Y176065D01*
X39632Y176064D01*
X39604Y176066D01*
X26355Y176066D01*
X21197Y178202D01*
X17249Y182150D01*
X15112Y187308D01*
X15112Y192892D01*
X17249Y198050D01*
X21197Y201998D01*
X26355Y204134D01*
X49845Y204134D01*
X55003Y201998D01*
X55968Y201033D01*
X56046Y200972D01*
X56119Y200904D01*
X56172Y200875D01*
X56220Y200838D01*
X56310Y200798D01*
X56397Y200750D01*
X56456Y200735D01*
X56512Y200711D01*
X56609Y200696D01*
X56705Y200671D01*
X56805Y200665D01*
X56826Y200661D01*
X56838Y200663D01*
X56866Y200661D01*
X108211Y200661D01*
X108220Y200662D01*
X108230Y200661D01*
X108378Y200682D01*
X108527Y200701D01*
X108535Y200704D01*
X108545Y200705D01*
X108697Y200757D01*
X111763Y202027D01*
X111884Y202096D01*
X112007Y202161D01*
X112022Y202175D01*
X112039Y202185D01*
X112139Y202282D01*
X112242Y202375D01*
X112253Y202392D01*
X112268Y202406D01*
X112341Y202525D01*
X112417Y202641D01*
X112423Y202660D01*
X112434Y202677D01*
X112475Y202810D01*
X112520Y202942D01*
X112522Y202962D01*
X112528Y202981D01*
X112534Y203120D01*
X112545Y203259D01*
X112542Y203279D01*
X112543Y203299D01*
X112515Y203435D01*
X112491Y203572D01*
X112483Y203591D01*
X112478Y203610D01*
X112417Y203736D01*
X112360Y203862D01*
X112348Y203878D01*
X112339Y203896D01*
X112248Y204002D01*
X112162Y204110D01*
X112146Y204123D01*
X112132Y204138D01*
X112019Y204218D01*
X111908Y204302D01*
X111882Y204314D01*
X111872Y204321D01*
X111853Y204328D01*
X111763Y204373D01*
X107717Y206048D01*
X104448Y209317D01*
X102679Y213588D01*
X102679Y218212D01*
X104448Y222483D01*
X107717Y225752D01*
X111304Y227237D01*
X111365Y227272D01*
X111430Y227298D01*
X111503Y227350D01*
X111581Y227395D01*
X111631Y227443D01*
X111687Y227484D01*
X111745Y227554D01*
X111809Y227616D01*
X111846Y227676D01*
X111890Y227729D01*
X111928Y227811D01*
X111975Y227887D01*
X111996Y227954D01*
X112026Y228017D01*
X112043Y228105D01*
X112069Y228191D01*
X112072Y228261D01*
X112085Y228330D01*
X112080Y228419D01*
X112084Y228509D01*
X112070Y228577D01*
X112066Y228647D01*
X112038Y228732D01*
X112020Y228820D01*
X111989Y228883D01*
X111968Y228949D01*
X111920Y229025D01*
X111880Y229106D01*
X111835Y229159D01*
X111798Y229218D01*
X111732Y229280D01*
X111674Y229348D01*
X111617Y229388D01*
X111566Y229436D01*
X111487Y229479D01*
X111414Y229531D01*
X111348Y229556D01*
X111287Y229590D01*
X111201Y229612D01*
X111116Y229644D01*
X111047Y229652D01*
X110979Y229669D01*
X110819Y229679D01*
X106749Y229679D01*
X104882Y230453D01*
X103453Y231882D01*
X102679Y233749D01*
X102679Y248851D01*
X103453Y250718D01*
X104882Y252147D01*
X106749Y252921D01*
X121851Y252921D01*
X123718Y252147D01*
X125147Y250718D01*
X125921Y248851D01*
X125921Y233749D01*
X125147Y231882D01*
X123718Y230453D01*
X121851Y229679D01*
X117781Y229679D01*
X117712Y229671D01*
X117642Y229672D01*
X117555Y229651D01*
X117466Y229639D01*
X117401Y229614D01*
X117333Y229597D01*
X117254Y229555D01*
X117170Y229522D01*
X117114Y229481D01*
X117052Y229449D01*
X116985Y229388D01*
X116913Y229336D01*
X116868Y229282D01*
X116817Y229235D01*
X116767Y229160D01*
X116710Y229091D01*
X116680Y229027D01*
X116642Y228969D01*
X116613Y228884D01*
X116574Y228803D01*
X116561Y228734D01*
X116539Y228668D01*
X116531Y228579D01*
X116515Y228491D01*
X116519Y228421D01*
X116513Y228351D01*
X116529Y228263D01*
X116534Y228173D01*
X116556Y228107D01*
X116568Y228038D01*
X116605Y227956D01*
X116632Y227871D01*
X116670Y227812D01*
X116698Y227748D01*
X116754Y227678D01*
X116802Y227602D01*
X116853Y227554D01*
X116897Y227500D01*
X116969Y227445D01*
X117034Y227384D01*
X117095Y227350D01*
X117151Y227308D01*
X117296Y227237D01*
X120883Y225752D01*
X124152Y222483D01*
X125921Y218212D01*
X125921Y213588D01*
X124152Y209317D01*
X120883Y206048D01*
X116837Y204373D01*
X116716Y204304D01*
X116593Y204239D01*
X116578Y204225D01*
X116561Y204215D01*
X116461Y204118D01*
X116358Y204025D01*
X116347Y204008D01*
X116332Y203994D01*
X116260Y203876D01*
X116183Y203759D01*
X116177Y203740D01*
X116166Y203723D01*
X116125Y203590D01*
X116080Y203458D01*
X116078Y203438D01*
X116072Y203419D01*
X116066Y203280D01*
X116055Y203141D01*
X116058Y203121D01*
X116057Y203101D01*
X116085Y202965D01*
X116109Y202828D01*
X116117Y202809D01*
X116122Y202790D01*
X116183Y202665D01*
X116240Y202538D01*
X116252Y202522D01*
X116261Y202504D01*
X116352Y202398D01*
X116438Y202290D01*
X116454Y202277D01*
X116468Y202262D01*
X116581Y202182D01*
X116692Y202098D01*
X116718Y202086D01*
X116728Y202079D01*
X116747Y202072D01*
X116837Y202027D01*
X120883Y200352D01*
X124152Y197083D01*
X125921Y192812D01*
X125921Y188188D01*
X124152Y183917D01*
X120883Y180648D01*
X116837Y178973D01*
X116716Y178904D01*
X116593Y178839D01*
X116578Y178825D01*
X116561Y178815D01*
X116461Y178718D01*
X116358Y178625D01*
X116347Y178608D01*
X116332Y178594D01*
X116260Y178476D01*
X116183Y178359D01*
X116177Y178340D01*
X116166Y178323D01*
X116125Y178190D01*
X116080Y178058D01*
X116078Y178038D01*
X116072Y178019D01*
X116066Y177880D01*
X116055Y177741D01*
X116058Y177721D01*
X116057Y177701D01*
X116085Y177564D01*
X116109Y177428D01*
X116117Y177409D01*
X116122Y177390D01*
X116183Y177265D01*
X116240Y177138D01*
X116252Y177122D01*
X116261Y177104D01*
X116352Y176998D01*
X116438Y176890D01*
X116454Y176877D01*
X116468Y176862D01*
X116581Y176782D01*
X116692Y176698D01*
X116718Y176686D01*
X116728Y176679D01*
X116747Y176672D01*
X116837Y176627D01*
X120883Y174952D01*
X124152Y171683D01*
X125921Y167412D01*
X125921Y162788D01*
X124557Y159497D01*
X124555Y159488D01*
X124550Y159480D01*
X124513Y159335D01*
X124473Y159190D01*
X124473Y159181D01*
X124471Y159172D01*
X124461Y159011D01*
X124461Y157999D01*
X122914Y154264D01*
X120330Y151680D01*
X120299Y151641D01*
X120262Y151607D01*
X120202Y151516D01*
X120135Y151429D01*
X120115Y151383D01*
X120088Y151342D01*
X120052Y151238D01*
X120008Y151137D01*
X120001Y151088D01*
X119984Y151041D01*
X119976Y150932D01*
X119959Y150823D01*
X119963Y150773D01*
X119959Y150724D01*
X119978Y150616D01*
X119988Y150506D01*
X120005Y150459D01*
X120014Y150411D01*
X120059Y150311D01*
X120096Y150207D01*
X120124Y150166D01*
X120144Y150121D01*
X120213Y150035D01*
X120275Y149944D01*
X120312Y149911D01*
X120343Y149872D01*
X120431Y149806D01*
X120513Y149733D01*
X120557Y149711D01*
X120597Y149681D01*
X120741Y149610D01*
X120883Y149552D01*
X124152Y146283D01*
X125921Y142012D01*
X125921Y137388D01*
X124152Y133117D01*
X120883Y129848D01*
X116837Y128173D01*
X116716Y128104D01*
X116593Y128039D01*
X116578Y128025D01*
X116561Y128015D01*
X116461Y127918D01*
X116358Y127825D01*
X116347Y127808D01*
X116332Y127794D01*
X116260Y127676D01*
X116183Y127559D01*
X116177Y127540D01*
X116166Y127523D01*
X116125Y127390D01*
X116080Y127258D01*
X116078Y127238D01*
X116072Y127219D01*
X116066Y127080D01*
X116055Y126941D01*
X116058Y126921D01*
X116057Y126901D01*
X116085Y126764D01*
X116109Y126628D01*
X116117Y126609D01*
X116122Y126590D01*
X116183Y126464D01*
X116240Y126338D01*
X116252Y126322D01*
X116261Y126304D01*
X116352Y126198D01*
X116438Y126090D01*
X116454Y126077D01*
X116468Y126062D01*
X116581Y125982D01*
X116692Y125898D01*
X116718Y125886D01*
X116728Y125879D01*
X116747Y125872D01*
X116837Y125827D01*
X120883Y124152D01*
X124152Y120883D01*
X125921Y116612D01*
X125921Y111988D01*
X124152Y107717D01*
X120883Y104448D01*
X116837Y102773D01*
X116716Y102704D01*
X116593Y102639D01*
X116578Y102625D01*
X116561Y102615D01*
X116461Y102518D01*
X116358Y102425D01*
X116347Y102408D01*
X116332Y102394D01*
X116260Y102276D01*
X116183Y102159D01*
X116177Y102140D01*
X116166Y102123D01*
X116125Y101990D01*
X116080Y101858D01*
X116078Y101838D01*
X116072Y101819D01*
X116066Y101680D01*
X116055Y101541D01*
X116058Y101521D01*
X116057Y101501D01*
X116085Y101365D01*
X116109Y101228D01*
X116117Y101209D01*
X116122Y101190D01*
X116183Y101065D01*
X116240Y100938D01*
X116252Y100922D01*
X116261Y100904D01*
X116352Y100798D01*
X116438Y100690D01*
X116454Y100677D01*
X116468Y100662D01*
X116581Y100582D01*
X116692Y100498D01*
X116718Y100486D01*
X116728Y100479D01*
X116747Y100472D01*
X116837Y100427D01*
X120883Y98752D01*
X124152Y95483D01*
X125921Y91212D01*
X125921Y86588D01*
X124152Y82317D01*
X120883Y79048D01*
X116837Y77373D01*
X116716Y77304D01*
X116593Y77239D01*
X116578Y77225D01*
X116561Y77215D01*
X116461Y77118D01*
X116358Y77025D01*
X116347Y77008D01*
X116332Y76994D01*
X116260Y76876D01*
X116183Y76759D01*
X116177Y76740D01*
X116166Y76723D01*
X116125Y76590D01*
X116080Y76458D01*
X116078Y76438D01*
X116072Y76419D01*
X116066Y76280D01*
X116055Y76141D01*
X116058Y76121D01*
X116057Y76101D01*
X116085Y75964D01*
X116109Y75828D01*
X116117Y75809D01*
X116122Y75790D01*
X116183Y75665D01*
X116240Y75538D01*
X116252Y75522D01*
X116261Y75504D01*
X116352Y75398D01*
X116438Y75290D01*
X116454Y75277D01*
X116468Y75262D01*
X116581Y75182D01*
X116692Y75098D01*
X116718Y75086D01*
X116728Y75079D01*
X116747Y75072D01*
X116837Y75027D01*
X120883Y73352D01*
X124152Y70083D01*
X125921Y65812D01*
X125921Y61188D01*
X124152Y56917D01*
X120883Y53648D01*
X116612Y51879D01*
X111988Y51879D01*
G37*
%LPD*%
G36*
X266778Y243507D02*
X266778Y243507D01*
X266897Y243511D01*
X266936Y243522D01*
X266976Y243526D01*
X267089Y243566D01*
X267203Y243599D01*
X267237Y243620D01*
X267276Y243633D01*
X267374Y243700D01*
X267477Y243761D01*
X267522Y243800D01*
X267539Y243812D01*
X267552Y243827D01*
X267597Y243867D01*
X314679Y290949D01*
X314764Y291058D01*
X314853Y291165D01*
X314862Y291184D01*
X314874Y291200D01*
X314929Y291328D01*
X314988Y291453D01*
X314992Y291473D01*
X315000Y291492D01*
X315022Y291630D01*
X315048Y291766D01*
X315047Y291786D01*
X315050Y291806D01*
X315037Y291945D01*
X315029Y292083D01*
X315022Y292102D01*
X315020Y292122D01*
X314973Y292254D01*
X314930Y292385D01*
X314920Y292403D01*
X314913Y292422D01*
X314835Y292537D01*
X314760Y292654D01*
X314746Y292668D01*
X314734Y292685D01*
X314630Y292777D01*
X314529Y292872D01*
X314511Y292882D01*
X314496Y292895D01*
X314372Y292958D01*
X314250Y293026D01*
X314231Y293031D01*
X314213Y293040D01*
X314077Y293070D01*
X313942Y293105D01*
X313914Y293107D01*
X313902Y293110D01*
X313882Y293109D01*
X313782Y293115D01*
X312660Y293115D01*
X305815Y299960D01*
X305815Y304130D01*
X305803Y304228D01*
X305800Y304327D01*
X305783Y304385D01*
X305775Y304445D01*
X305739Y304537D01*
X305711Y304632D01*
X305681Y304684D01*
X305658Y304741D01*
X305600Y304821D01*
X305550Y304906D01*
X305484Y304982D01*
X305472Y304998D01*
X305462Y305006D01*
X305444Y305027D01*
X255978Y354493D01*
X255958Y354508D01*
X255942Y354527D01*
X255833Y354605D01*
X255726Y354688D01*
X255704Y354698D01*
X255683Y354712D01*
X255558Y354761D01*
X255435Y354814D01*
X255410Y354818D01*
X255387Y354827D01*
X255253Y354843D01*
X255121Y354864D01*
X255096Y354862D01*
X255071Y354865D01*
X254938Y354847D01*
X254804Y354834D01*
X254780Y354826D01*
X254756Y354822D01*
X254631Y354772D01*
X254505Y354727D01*
X254484Y354713D01*
X254461Y354703D01*
X254352Y354623D01*
X254241Y354548D01*
X254225Y354529D01*
X254205Y354514D01*
X254120Y354410D01*
X254031Y354310D01*
X254020Y354287D01*
X254004Y354268D01*
X253947Y354146D01*
X253886Y354026D01*
X253881Y354002D01*
X253870Y353979D01*
X253846Y353847D01*
X253817Y353716D01*
X253817Y353691D01*
X253813Y353666D01*
X253814Y353505D01*
X253844Y353091D01*
X253868Y352969D01*
X253885Y352847D01*
X253902Y352797D01*
X253906Y352779D01*
X253915Y352759D01*
X253937Y352695D01*
X254001Y352541D01*
X254001Y350925D01*
X254003Y350904D01*
X254004Y350836D01*
X254118Y349224D01*
X254066Y349067D01*
X254042Y348945D01*
X254011Y348826D01*
X254008Y348773D01*
X254004Y348755D01*
X254005Y348733D01*
X254001Y348665D01*
X254001Y348499D01*
X253383Y347006D01*
X253377Y346986D01*
X253351Y346922D01*
X252840Y345390D01*
X252731Y345264D01*
X252663Y345161D01*
X252588Y345062D01*
X252565Y345015D01*
X252555Y345000D01*
X252548Y344979D01*
X252517Y344918D01*
X252454Y344764D01*
X251312Y343622D01*
X251298Y343605D01*
X251250Y343556D01*
X250192Y342336D01*
X250043Y342261D01*
X249940Y342193D01*
X249834Y342130D01*
X249794Y342095D01*
X249779Y342085D01*
X249764Y342069D01*
X249713Y342024D01*
X231512Y323823D01*
X231452Y323745D01*
X231384Y323673D01*
X231355Y323620D01*
X231318Y323572D01*
X231278Y323481D01*
X231230Y323394D01*
X231215Y323336D01*
X231191Y323280D01*
X231176Y323182D01*
X231151Y323086D01*
X231145Y322986D01*
X231141Y322966D01*
X231143Y322954D01*
X231141Y322926D01*
X231141Y314230D01*
X231158Y314092D01*
X231171Y313953D01*
X231178Y313934D01*
X231181Y313914D01*
X231232Y313785D01*
X231279Y313654D01*
X231290Y313637D01*
X231298Y313618D01*
X231379Y313506D01*
X231457Y313391D01*
X231473Y313377D01*
X231484Y313361D01*
X231592Y313272D01*
X231696Y313180D01*
X231714Y313171D01*
X231729Y313158D01*
X231855Y313099D01*
X231979Y313036D01*
X231999Y313031D01*
X232017Y313023D01*
X232153Y312997D01*
X232289Y312966D01*
X232310Y312967D01*
X232329Y312963D01*
X232468Y312972D01*
X232607Y312976D01*
X232627Y312981D01*
X232647Y312983D01*
X232779Y313026D01*
X232913Y313064D01*
X232930Y313074D01*
X232949Y313081D01*
X233067Y313155D01*
X233187Y313226D01*
X233208Y313244D01*
X233218Y313251D01*
X233232Y313266D01*
X233307Y313332D01*
X236460Y316485D01*
X246140Y316485D01*
X248760Y313864D01*
X248768Y313859D01*
X248773Y313851D01*
X248853Y313791D01*
X248884Y313762D01*
X248911Y313747D01*
X249012Y313670D01*
X249020Y313666D01*
X249027Y313660D01*
X249172Y313589D01*
X249596Y313414D01*
X252454Y310556D01*
X252629Y310132D01*
X252634Y310124D01*
X252637Y310115D01*
X252712Y309987D01*
X252787Y309856D01*
X252793Y309849D01*
X252798Y309841D01*
X252904Y309720D01*
X252985Y309640D01*
X252985Y309526D01*
X252986Y309517D01*
X252985Y309508D01*
X253006Y309359D01*
X253025Y309211D01*
X253028Y309202D01*
X253029Y309193D01*
X253081Y309041D01*
X254001Y306821D01*
X254001Y256194D01*
X254013Y256096D01*
X254016Y255997D01*
X254033Y255939D01*
X254041Y255879D01*
X254077Y255787D01*
X254105Y255692D01*
X254135Y255640D01*
X254158Y255583D01*
X254216Y255503D01*
X254266Y255418D01*
X254332Y255342D01*
X254344Y255326D01*
X254354Y255318D01*
X254372Y255297D01*
X265802Y243867D01*
X265897Y243794D01*
X265986Y243715D01*
X266022Y243697D01*
X266054Y243672D01*
X266163Y243625D01*
X266269Y243571D01*
X266308Y243562D01*
X266346Y243546D01*
X266463Y243527D01*
X266579Y243501D01*
X266620Y243502D01*
X266660Y243496D01*
X266778Y243507D01*
G37*
G36*
X216344Y337833D02*
X216344Y337833D01*
X216443Y337836D01*
X216501Y337853D01*
X216561Y337861D01*
X216653Y337897D01*
X216748Y337925D01*
X216800Y337955D01*
X216857Y337978D01*
X216937Y338036D01*
X217022Y338086D01*
X217098Y338152D01*
X217114Y338164D01*
X217122Y338174D01*
X217143Y338192D01*
X229244Y350293D01*
X229304Y350371D01*
X229372Y350443D01*
X229401Y350496D01*
X229438Y350544D01*
X229478Y350635D01*
X229526Y350722D01*
X229541Y350780D01*
X229565Y350836D01*
X229580Y350934D01*
X229605Y351030D01*
X229611Y351130D01*
X229615Y351150D01*
X229613Y351162D01*
X229615Y351190D01*
X229615Y360440D01*
X236460Y367285D01*
X240122Y367285D01*
X240260Y367302D01*
X240398Y367315D01*
X240417Y367322D01*
X240437Y367325D01*
X240566Y367376D01*
X240697Y367423D01*
X240714Y367434D01*
X240733Y367442D01*
X240845Y367523D01*
X240960Y367601D01*
X240974Y367617D01*
X240990Y367628D01*
X241079Y367736D01*
X241171Y367840D01*
X241180Y367858D01*
X241193Y367873D01*
X241252Y367999D01*
X241315Y368123D01*
X241320Y368143D01*
X241328Y368161D01*
X241355Y368298D01*
X241385Y368433D01*
X241384Y368454D01*
X241388Y368473D01*
X241380Y368612D01*
X241375Y368751D01*
X241370Y368771D01*
X241369Y368791D01*
X241326Y368923D01*
X241287Y369057D01*
X241277Y369074D01*
X241270Y369093D01*
X241196Y369211D01*
X241125Y369331D01*
X241107Y369352D01*
X241100Y369362D01*
X241085Y369376D01*
X241019Y369451D01*
X240003Y370468D01*
X239925Y370528D01*
X239853Y370596D01*
X239800Y370625D01*
X239752Y370662D01*
X239661Y370702D01*
X239574Y370750D01*
X239515Y370765D01*
X239460Y370789D01*
X239362Y370804D01*
X239266Y370829D01*
X239166Y370835D01*
X239146Y370839D01*
X239134Y370837D01*
X239106Y370839D01*
X154383Y370839D01*
X154354Y370836D01*
X154325Y370838D01*
X154196Y370816D01*
X154068Y370799D01*
X154040Y370789D01*
X154011Y370784D01*
X153893Y370730D01*
X153772Y370682D01*
X153748Y370665D01*
X153721Y370653D01*
X153620Y370572D01*
X153515Y370496D01*
X153496Y370473D01*
X153473Y370454D01*
X153395Y370351D01*
X153312Y370251D01*
X153299Y370224D01*
X153282Y370200D01*
X153211Y370056D01*
X151113Y364992D01*
X147326Y361205D01*
X142378Y359155D01*
X138338Y359155D01*
X138201Y359138D01*
X138062Y359125D01*
X138043Y359118D01*
X138023Y359115D01*
X137894Y359064D01*
X137763Y359017D01*
X137746Y359006D01*
X137727Y358998D01*
X137615Y358917D01*
X137500Y358839D01*
X137486Y358823D01*
X137470Y358812D01*
X137381Y358704D01*
X137289Y358600D01*
X137280Y358582D01*
X137267Y358567D01*
X137208Y358441D01*
X137145Y358317D01*
X137140Y358297D01*
X137132Y358279D01*
X137105Y358143D01*
X137075Y358007D01*
X137076Y357986D01*
X137072Y357967D01*
X137080Y357828D01*
X137085Y357689D01*
X137090Y357669D01*
X137091Y357649D01*
X137134Y357517D01*
X137173Y357383D01*
X137183Y357366D01*
X137190Y357347D01*
X137264Y357229D01*
X137335Y357109D01*
X137353Y357088D01*
X137360Y357078D01*
X137375Y357064D01*
X137441Y356989D01*
X156237Y338192D01*
X156315Y338132D01*
X156387Y338064D01*
X156440Y338035D01*
X156488Y337998D01*
X156579Y337958D01*
X156666Y337910D01*
X156724Y337895D01*
X156780Y337871D01*
X156878Y337856D01*
X156974Y337831D01*
X157074Y337825D01*
X157094Y337821D01*
X157106Y337823D01*
X157134Y337821D01*
X216246Y337821D01*
X216344Y337833D01*
G37*
G36*
X250852Y200673D02*
X250852Y200673D01*
X250951Y200676D01*
X251009Y200693D01*
X251069Y200701D01*
X251161Y200737D01*
X251256Y200765D01*
X251308Y200795D01*
X251365Y200818D01*
X251445Y200876D01*
X251530Y200926D01*
X251606Y200992D01*
X251622Y201004D01*
X251630Y201014D01*
X251651Y201032D01*
X251886Y201267D01*
X256554Y203201D01*
X274666Y203201D01*
X274803Y203218D01*
X274942Y203231D01*
X274961Y203238D01*
X274981Y203241D01*
X275110Y203292D01*
X275241Y203339D01*
X275258Y203350D01*
X275277Y203358D01*
X275389Y203439D01*
X275504Y203517D01*
X275518Y203533D01*
X275534Y203544D01*
X275623Y203652D01*
X275715Y203756D01*
X275724Y203774D01*
X275737Y203789D01*
X275796Y203915D01*
X275859Y204039D01*
X275864Y204059D01*
X275872Y204077D01*
X275899Y204213D01*
X275929Y204349D01*
X275928Y204370D01*
X275932Y204389D01*
X275924Y204528D01*
X275919Y204667D01*
X275914Y204687D01*
X275913Y204707D01*
X275870Y204839D01*
X275831Y204973D01*
X275821Y204990D01*
X275814Y205009D01*
X275740Y205127D01*
X275669Y205247D01*
X275651Y205268D01*
X275644Y205278D01*
X275629Y205292D01*
X275563Y205367D01*
X261123Y219808D01*
X257908Y223023D01*
X235226Y245704D01*
X233679Y249439D01*
X233679Y295370D01*
X233672Y295424D01*
X233675Y295479D01*
X233653Y295582D01*
X233639Y295686D01*
X233619Y295736D01*
X233608Y295790D01*
X233545Y295938D01*
X233531Y295959D01*
X233522Y295982D01*
X233443Y296090D01*
X233368Y296202D01*
X233350Y296219D01*
X233336Y296239D01*
X233232Y296325D01*
X233132Y296415D01*
X233110Y296426D01*
X233091Y296442D01*
X232969Y296499D01*
X232849Y296561D01*
X232825Y296567D01*
X232803Y296577D01*
X232671Y296602D01*
X232540Y296633D01*
X232515Y296632D01*
X232490Y296637D01*
X232356Y296629D01*
X232222Y296626D01*
X232198Y296619D01*
X232173Y296617D01*
X232045Y296576D01*
X231916Y296539D01*
X231894Y296527D01*
X231871Y296519D01*
X231757Y296447D01*
X231640Y296380D01*
X231623Y296362D01*
X231602Y296349D01*
X231510Y296251D01*
X231414Y296157D01*
X231401Y296135D01*
X231384Y296117D01*
X231319Y296000D01*
X231249Y295884D01*
X231242Y295861D01*
X231230Y295839D01*
X231197Y295708D01*
X231158Y295580D01*
X231157Y295555D01*
X231151Y295531D01*
X231141Y295370D01*
X231141Y244245D01*
X231143Y244224D01*
X231144Y244156D01*
X231258Y242544D01*
X231206Y242387D01*
X231182Y242265D01*
X231151Y242146D01*
X231148Y242093D01*
X231144Y242075D01*
X231145Y242053D01*
X231141Y241985D01*
X231141Y241819D01*
X230523Y240326D01*
X230517Y240306D01*
X230491Y240242D01*
X229980Y238710D01*
X229871Y238584D01*
X229803Y238481D01*
X229728Y238382D01*
X229705Y238335D01*
X229695Y238320D01*
X229688Y238299D01*
X229657Y238238D01*
X229594Y238084D01*
X228452Y236942D01*
X228438Y236925D01*
X228390Y236876D01*
X227831Y236232D01*
X227801Y236187D01*
X227764Y236147D01*
X227713Y236055D01*
X227654Y235967D01*
X227637Y235916D01*
X227610Y235869D01*
X227584Y235767D01*
X227549Y235667D01*
X227544Y235613D01*
X227531Y235561D01*
X227521Y235400D01*
X227521Y233749D01*
X226747Y231882D01*
X225318Y230453D01*
X223451Y229679D01*
X219381Y229679D01*
X219312Y229671D01*
X219242Y229672D01*
X219155Y229651D01*
X219066Y229639D01*
X219001Y229614D01*
X218933Y229597D01*
X218854Y229555D01*
X218770Y229522D01*
X218714Y229481D01*
X218652Y229449D01*
X218585Y229388D01*
X218513Y229336D01*
X218468Y229282D01*
X218417Y229235D01*
X218367Y229160D01*
X218310Y229091D01*
X218280Y229027D01*
X218242Y228969D01*
X218213Y228884D01*
X218174Y228803D01*
X218161Y228734D01*
X218139Y228668D01*
X218131Y228579D01*
X218115Y228491D01*
X218119Y228421D01*
X218113Y228351D01*
X218129Y228263D01*
X218134Y228173D01*
X218156Y228107D01*
X218168Y228038D01*
X218205Y227956D01*
X218232Y227871D01*
X218270Y227812D01*
X218298Y227748D01*
X218354Y227678D01*
X218402Y227602D01*
X218453Y227554D01*
X218497Y227500D01*
X218569Y227445D01*
X218634Y227384D01*
X218695Y227350D01*
X218751Y227308D01*
X218896Y227237D01*
X222483Y225752D01*
X225752Y222483D01*
X227521Y218212D01*
X227521Y213588D01*
X225752Y209317D01*
X222483Y206048D01*
X218437Y204373D01*
X218316Y204304D01*
X218193Y204239D01*
X218178Y204225D01*
X218161Y204215D01*
X218061Y204118D01*
X217958Y204025D01*
X217947Y204008D01*
X217932Y203994D01*
X217860Y203876D01*
X217783Y203759D01*
X217777Y203740D01*
X217766Y203723D01*
X217725Y203590D01*
X217680Y203458D01*
X217678Y203438D01*
X217672Y203419D01*
X217666Y203280D01*
X217655Y203141D01*
X217658Y203121D01*
X217657Y203101D01*
X217685Y202965D01*
X217709Y202828D01*
X217717Y202809D01*
X217722Y202790D01*
X217783Y202665D01*
X217840Y202538D01*
X217852Y202522D01*
X217861Y202504D01*
X217952Y202398D01*
X218038Y202290D01*
X218054Y202277D01*
X218068Y202262D01*
X218181Y202182D01*
X218292Y202098D01*
X218318Y202086D01*
X218328Y202079D01*
X218347Y202072D01*
X218437Y202027D01*
X221503Y200757D01*
X221512Y200755D01*
X221520Y200750D01*
X221665Y200713D01*
X221810Y200673D01*
X221819Y200673D01*
X221828Y200671D01*
X221989Y200661D01*
X250753Y200661D01*
X250852Y200673D01*
G37*
G36*
X239243Y391178D02*
X239243Y391178D01*
X239382Y391191D01*
X239401Y391198D01*
X239421Y391201D01*
X239550Y391252D01*
X239681Y391299D01*
X239698Y391310D01*
X239717Y391318D01*
X239829Y391399D01*
X239944Y391477D01*
X239958Y391493D01*
X239974Y391504D01*
X240063Y391612D01*
X240155Y391716D01*
X240164Y391734D01*
X240177Y391749D01*
X240236Y391875D01*
X240299Y391999D01*
X240304Y392019D01*
X240312Y392037D01*
X240339Y392173D01*
X240369Y392309D01*
X240368Y392330D01*
X240372Y392349D01*
X240364Y392488D01*
X240359Y392627D01*
X240354Y392647D01*
X240353Y392667D01*
X240310Y392799D01*
X240271Y392933D01*
X240261Y392950D01*
X240254Y392969D01*
X240180Y393087D01*
X240109Y393207D01*
X240091Y393228D01*
X240084Y393238D01*
X240069Y393252D01*
X240003Y393327D01*
X232383Y400948D01*
X232305Y401008D01*
X232233Y401076D01*
X232180Y401105D01*
X232132Y401142D01*
X232041Y401182D01*
X231954Y401230D01*
X231896Y401245D01*
X231840Y401269D01*
X231742Y401284D01*
X231646Y401309D01*
X231546Y401315D01*
X231526Y401319D01*
X231514Y401317D01*
X231486Y401319D01*
X149866Y401319D01*
X149729Y401302D01*
X149590Y401289D01*
X149571Y401282D01*
X149551Y401279D01*
X149422Y401228D01*
X149291Y401181D01*
X149274Y401170D01*
X149255Y401162D01*
X149142Y401081D01*
X149027Y401003D01*
X149014Y400987D01*
X148998Y400976D01*
X148909Y400868D01*
X148817Y400764D01*
X148808Y400746D01*
X148795Y400731D01*
X148736Y400605D01*
X148672Y400481D01*
X148668Y400461D01*
X148659Y400443D01*
X148633Y400307D01*
X148603Y400171D01*
X148603Y400150D01*
X148599Y400131D01*
X148608Y399992D01*
X148612Y399853D01*
X148618Y399833D01*
X148619Y399813D01*
X148662Y399681D01*
X148701Y399547D01*
X148711Y399530D01*
X148717Y399511D01*
X148792Y399393D01*
X148862Y399273D01*
X148881Y399252D01*
X148887Y399242D01*
X148902Y399228D01*
X148969Y399153D01*
X151113Y397008D01*
X153211Y391944D01*
X153225Y391919D01*
X153234Y391891D01*
X153304Y391781D01*
X153368Y391668D01*
X153389Y391647D01*
X153405Y391622D01*
X153499Y391533D01*
X153589Y391440D01*
X153615Y391424D01*
X153636Y391404D01*
X153750Y391341D01*
X153861Y391273D01*
X153889Y391265D01*
X153915Y391250D01*
X154040Y391218D01*
X154165Y391180D01*
X154194Y391178D01*
X154223Y391171D01*
X154383Y391161D01*
X239106Y391161D01*
X239243Y391178D01*
G37*
G36*
X377248Y324656D02*
X377248Y324656D01*
X377387Y324660D01*
X377407Y324665D01*
X377427Y324667D01*
X377559Y324710D01*
X377693Y324748D01*
X377710Y324759D01*
X377729Y324765D01*
X377847Y324839D01*
X377967Y324910D01*
X377988Y324928D01*
X377998Y324935D01*
X378012Y324950D01*
X378087Y325016D01*
X380477Y327406D01*
X384392Y329027D01*
X384513Y329096D01*
X384636Y329161D01*
X384651Y329175D01*
X384668Y329185D01*
X384768Y329282D01*
X384871Y329375D01*
X384882Y329392D01*
X384897Y329406D01*
X384969Y329525D01*
X385046Y329641D01*
X385052Y329660D01*
X385063Y329677D01*
X385104Y329810D01*
X385149Y329942D01*
X385150Y329962D01*
X385156Y329981D01*
X385163Y330120D01*
X385174Y330259D01*
X385171Y330279D01*
X385172Y330299D01*
X385143Y330435D01*
X385120Y330572D01*
X385111Y330591D01*
X385107Y330610D01*
X385046Y330736D01*
X384989Y330862D01*
X384976Y330878D01*
X384968Y330896D01*
X384877Y331002D01*
X384790Y331110D01*
X384774Y331123D01*
X384761Y331138D01*
X384647Y331218D01*
X384536Y331302D01*
X384511Y331314D01*
X384501Y331321D01*
X384482Y331328D01*
X384392Y331373D01*
X380477Y332994D01*
X378087Y335384D01*
X377978Y335469D01*
X377871Y335558D01*
X377852Y335566D01*
X377836Y335579D01*
X377708Y335634D01*
X377583Y335693D01*
X377563Y335697D01*
X377544Y335705D01*
X377406Y335727D01*
X377270Y335753D01*
X377250Y335752D01*
X377230Y335755D01*
X377091Y335742D01*
X376953Y335733D01*
X376934Y335727D01*
X376914Y335725D01*
X376782Y335678D01*
X376651Y335635D01*
X376633Y335624D01*
X376614Y335618D01*
X376499Y335539D01*
X376382Y335465D01*
X376368Y335450D01*
X376351Y335439D01*
X376259Y335335D01*
X376164Y335233D01*
X376154Y335216D01*
X376141Y335201D01*
X376077Y335076D01*
X376010Y334955D01*
X376005Y334935D01*
X375996Y334917D01*
X375966Y334781D01*
X375931Y334647D01*
X375929Y334619D01*
X375926Y334607D01*
X375927Y334587D01*
X375921Y334486D01*
X375921Y325914D01*
X375938Y325776D01*
X375951Y325637D01*
X375958Y325618D01*
X375961Y325598D01*
X376012Y325469D01*
X376059Y325338D01*
X376070Y325321D01*
X376078Y325302D01*
X376159Y325190D01*
X376237Y325075D01*
X376253Y325062D01*
X376264Y325045D01*
X376372Y324956D01*
X376476Y324864D01*
X376494Y324855D01*
X376509Y324842D01*
X376635Y324783D01*
X376759Y324720D01*
X376779Y324715D01*
X376797Y324707D01*
X376933Y324681D01*
X377069Y324650D01*
X377090Y324651D01*
X377109Y324647D01*
X377248Y324656D01*
G37*
G36*
X127079Y395954D02*
X127079Y395954D01*
X127099Y395953D01*
X127235Y395981D01*
X127372Y396005D01*
X127390Y396013D01*
X127410Y396017D01*
X127535Y396078D01*
X127662Y396135D01*
X127678Y396148D01*
X127696Y396157D01*
X127802Y396247D01*
X127910Y396334D01*
X127923Y396350D01*
X127938Y396363D01*
X128018Y396477D01*
X128102Y396588D01*
X128114Y396613D01*
X128121Y396623D01*
X128128Y396642D01*
X128173Y396732D01*
X128287Y397008D01*
X130431Y399153D01*
X130517Y399262D01*
X130605Y399369D01*
X130614Y399388D01*
X130626Y399404D01*
X130682Y399532D01*
X130741Y399657D01*
X130745Y399677D01*
X130753Y399696D01*
X130775Y399834D01*
X130801Y399970D01*
X130799Y399990D01*
X130802Y400010D01*
X130789Y400149D01*
X130781Y400287D01*
X130775Y400306D01*
X130773Y400326D01*
X130725Y400458D01*
X130683Y400589D01*
X130672Y400607D01*
X130665Y400626D01*
X130587Y400741D01*
X130513Y400858D01*
X130498Y400872D01*
X130486Y400889D01*
X130382Y400981D01*
X130281Y401076D01*
X130263Y401086D01*
X130248Y401099D01*
X130124Y401163D01*
X130002Y401230D01*
X129983Y401235D01*
X129965Y401244D01*
X129829Y401274D01*
X129695Y401309D01*
X129666Y401311D01*
X129655Y401314D01*
X129634Y401313D01*
X129534Y401319D01*
X124466Y401319D01*
X124329Y401302D01*
X124190Y401289D01*
X124171Y401282D01*
X124151Y401279D01*
X124022Y401228D01*
X123891Y401181D01*
X123874Y401170D01*
X123855Y401162D01*
X123742Y401081D01*
X123627Y401003D01*
X123614Y400987D01*
X123598Y400976D01*
X123509Y400868D01*
X123417Y400764D01*
X123408Y400746D01*
X123395Y400731D01*
X123336Y400605D01*
X123272Y400481D01*
X123268Y400461D01*
X123259Y400443D01*
X123233Y400307D01*
X123203Y400171D01*
X123203Y400150D01*
X123199Y400131D01*
X123208Y399992D01*
X123212Y399853D01*
X123218Y399833D01*
X123219Y399813D01*
X123262Y399681D01*
X123301Y399547D01*
X123311Y399530D01*
X123317Y399511D01*
X123392Y399393D01*
X123462Y399273D01*
X123481Y399252D01*
X123487Y399242D01*
X123502Y399228D01*
X123569Y399153D01*
X125713Y397008D01*
X125827Y396732D01*
X125896Y396612D01*
X125961Y396489D01*
X125975Y396474D01*
X125985Y396456D01*
X126082Y396356D01*
X126175Y396253D01*
X126192Y396242D01*
X126206Y396228D01*
X126325Y396155D01*
X126441Y396079D01*
X126460Y396072D01*
X126477Y396061D01*
X126610Y396020D01*
X126742Y395975D01*
X126762Y395974D01*
X126781Y395968D01*
X126920Y395961D01*
X127059Y395950D01*
X127079Y395954D01*
G37*
D10*
X114300Y241300D03*
X215900Y241300D03*
D11*
X114300Y215900D03*
X215900Y215900D03*
X114300Y190500D03*
X215900Y190500D03*
X114300Y165100D03*
X215900Y165100D03*
X114300Y139700D03*
X215900Y139700D03*
X114300Y114300D03*
X215900Y114300D03*
X114300Y88900D03*
X215900Y88900D03*
X114300Y63500D03*
X215900Y63500D03*
D12*
X254000Y457200D03*
D13*
X304800Y457200D03*
D14*
X274320Y190500D02*
X259080Y190500D01*
X386080Y190500D02*
X401320Y190500D01*
X274320Y139700D02*
X259080Y139700D01*
X386080Y139700D02*
X401320Y139700D01*
X274320Y88900D02*
X259080Y88900D01*
X386080Y88900D02*
X401320Y88900D01*
D15*
X88900Y372618D02*
X88900Y389382D01*
X114300Y389382D02*
X114300Y372618D01*
X139700Y372618D02*
X139700Y389382D01*
D16*
X241300Y355600D03*
X317500Y355600D03*
X241300Y304800D03*
X317500Y304800D03*
D17*
X387096Y317500D02*
X400304Y317500D01*
X400304Y342900D02*
X387096Y342900D01*
X387096Y368300D02*
X400304Y368300D01*
X400304Y393700D02*
X387096Y393700D01*
X387096Y419100D02*
X400304Y419100D01*
X400304Y444500D02*
X387096Y444500D01*
D18*
X47054Y190100D02*
X29147Y190100D01*
X29147Y140100D02*
X47054Y140100D01*
D19*
X215900Y190500D02*
X266700Y190500D01*
X243840Y167640D02*
X220980Y167640D01*
X243840Y167640D02*
X266700Y144780D01*
X220980Y167640D02*
X215900Y165100D01*
X266700Y144780D02*
X266700Y139700D01*
X266700Y91440D02*
X220980Y91440D01*
X215900Y88900D01*
X266700Y88900D02*
X266700Y91440D01*
X220980Y243840D02*
X220980Y327660D01*
X243840Y350520D01*
X220980Y243840D02*
X215900Y241300D01*
X243840Y350520D02*
X241300Y355600D01*
X114300Y365760D02*
X114300Y381000D01*
X114300Y365760D02*
X152400Y327660D01*
X220980Y327660D01*
X396240Y396240D02*
X396240Y419100D01*
X393700Y419100D01*
X396240Y396240D02*
X393700Y393700D01*
X243840Y381000D02*
X139700Y381000D01*
X243840Y381000D02*
X320040Y304800D01*
X317500Y304800D01*
X381000Y441960D02*
X388620Y441960D01*
X342900Y403860D02*
X320040Y381000D01*
X342900Y403860D02*
X381000Y441960D01*
X320040Y381000D02*
X320040Y358140D01*
X388620Y441960D02*
X393700Y444500D01*
X320040Y358140D02*
X317500Y355600D01*
X335280Y403860D02*
X309880Y429260D01*
X335280Y403860D02*
X342900Y403860D01*
X309880Y429260D02*
X254000Y457200D01*
X243840Y304800D02*
X243840Y251460D01*
X335280Y160020D02*
X388620Y106680D01*
X335280Y160020D02*
X266700Y228600D01*
X243840Y251460D01*
X388620Y106680D02*
X388620Y91440D01*
X243840Y304800D02*
X241300Y304800D01*
X388620Y91440D02*
X393700Y88900D01*
X342900Y160020D02*
X365760Y182880D01*
X342900Y160020D02*
X335280Y160020D01*
X91440Y381000D02*
X91440Y396240D01*
X106680Y411480D01*
X236220Y411480D01*
X335280Y312420D01*
X335280Y297180D01*
X266700Y228600D01*
X91440Y381000D02*
X88900Y381000D01*
D20*
X365760Y182880D03*
D19*
X114300Y190500D02*
X53340Y190500D01*
X46703Y183863D01*
X38100Y190100D01*
X68580Y160020D02*
X114300Y160020D01*
X68580Y160020D02*
X31690Y123130D01*
X114300Y160020D02*
X114300Y165100D01*
X38100Y140100D02*
X31690Y123130D01*
X381000Y365760D02*
X388620Y365760D01*
X381000Y365760D02*
X365760Y350520D01*
X365760Y213360D01*
X388620Y190500D01*
X388620Y365760D02*
X393700Y368300D01*
X393700Y190500D02*
X388620Y190500D01*
M02*
