G04 EAGLE Gerber RS-274X export*
G75*
%MOMM*%
%FSLAX34Y34*%
%LPD*%
%INBottom Copper*%
%IPPOS*%
%AMOC8*
5,1,8,0,0,1.08239X$1,22.5*%
G01*
%ADD10R,1.308000X1.308000*%
%ADD11C,1.308000*%
%ADD12C,2.540000*%
%ADD13P,2.749271X8X22.500000*%
%ADD14C,1.524000*%
%ADD15C,1.676400*%
%ADD16P,1.429621X8X22.500000*%
%ADD17C,1.320800*%
%ADD18C,1.790700*%
%ADD19C,1.016000*%
%ADD20C,1.524000*%

G36*
X417188Y22876D02*
X417188Y22876D01*
X417307Y22883D01*
X417345Y22896D01*
X417386Y22901D01*
X417496Y22944D01*
X417609Y22981D01*
X417644Y23003D01*
X417681Y23018D01*
X417777Y23087D01*
X417878Y23151D01*
X417906Y23181D01*
X417939Y23204D01*
X418015Y23296D01*
X418096Y23383D01*
X418116Y23418D01*
X418141Y23449D01*
X418192Y23557D01*
X418250Y23661D01*
X418260Y23701D01*
X418277Y23737D01*
X418299Y23854D01*
X418329Y23969D01*
X418333Y24029D01*
X418337Y24049D01*
X418335Y24070D01*
X418339Y24130D01*
X418339Y509170D01*
X418324Y509288D01*
X418317Y509407D01*
X418304Y509445D01*
X418299Y509486D01*
X418256Y509596D01*
X418219Y509709D01*
X418197Y509744D01*
X418182Y509781D01*
X418113Y509877D01*
X418049Y509978D01*
X418019Y510006D01*
X417996Y510039D01*
X417904Y510115D01*
X417817Y510196D01*
X417782Y510216D01*
X417751Y510241D01*
X417643Y510292D01*
X417539Y510350D01*
X417499Y510360D01*
X417463Y510377D01*
X417346Y510399D01*
X417231Y510429D01*
X417171Y510433D01*
X417151Y510437D01*
X417130Y510435D01*
X417070Y510439D01*
X121095Y510439D01*
X121009Y510429D01*
X120924Y510428D01*
X120790Y510401D01*
X120779Y510399D01*
X120775Y510398D01*
X120766Y510396D01*
X120353Y510285D01*
X108247Y510285D01*
X107834Y510396D01*
X107749Y510408D01*
X107666Y510429D01*
X107530Y510438D01*
X107519Y510439D01*
X107514Y510439D01*
X107505Y510439D01*
X-1270Y510439D01*
X-1388Y510424D01*
X-1507Y510417D01*
X-1545Y510404D01*
X-1586Y510399D01*
X-1696Y510356D01*
X-1809Y510319D01*
X-1844Y510297D01*
X-1881Y510282D01*
X-1977Y510213D01*
X-2078Y510149D01*
X-2106Y510119D01*
X-2139Y510096D01*
X-2215Y510004D01*
X-2296Y509917D01*
X-2316Y509882D01*
X-2341Y509851D01*
X-2392Y509743D01*
X-2450Y509639D01*
X-2460Y509599D01*
X-2477Y509563D01*
X-2499Y509446D01*
X-2529Y509331D01*
X-2533Y509271D01*
X-2537Y509251D01*
X-2535Y509230D01*
X-2539Y509170D01*
X-2539Y24130D01*
X-2524Y24012D01*
X-2517Y23893D01*
X-2504Y23855D01*
X-2499Y23814D01*
X-2456Y23704D01*
X-2419Y23591D01*
X-2397Y23556D01*
X-2382Y23519D01*
X-2313Y23423D01*
X-2249Y23322D01*
X-2219Y23294D01*
X-2196Y23261D01*
X-2104Y23185D01*
X-2017Y23104D01*
X-1982Y23084D01*
X-1951Y23059D01*
X-1843Y23008D01*
X-1739Y22950D01*
X-1699Y22940D01*
X-1663Y22923D01*
X-1546Y22901D01*
X-1431Y22871D01*
X-1371Y22867D01*
X-1351Y22863D01*
X-1330Y22865D01*
X-1270Y22861D01*
X417070Y22861D01*
X417188Y22876D01*
G37*
%LPC*%
G36*
X111988Y51879D02*
X111988Y51879D01*
X107717Y53648D01*
X104448Y56917D01*
X102679Y61188D01*
X102679Y65812D01*
X104448Y70083D01*
X107717Y73352D01*
X111763Y75027D01*
X111884Y75096D01*
X112007Y75161D01*
X112022Y75175D01*
X112039Y75185D01*
X112139Y75282D01*
X112242Y75375D01*
X112253Y75392D01*
X112268Y75406D01*
X112341Y75525D01*
X112417Y75641D01*
X112423Y75660D01*
X112434Y75677D01*
X112475Y75810D01*
X112520Y75942D01*
X112522Y75962D01*
X112528Y75981D01*
X112534Y76120D01*
X112545Y76259D01*
X112542Y76279D01*
X112543Y76299D01*
X112515Y76435D01*
X112491Y76572D01*
X112483Y76591D01*
X112478Y76610D01*
X112417Y76736D01*
X112360Y76862D01*
X112348Y76878D01*
X112339Y76896D01*
X112248Y77002D01*
X112162Y77110D01*
X112146Y77123D01*
X112132Y77138D01*
X112019Y77218D01*
X111908Y77302D01*
X111882Y77314D01*
X111872Y77321D01*
X111853Y77328D01*
X111763Y77373D01*
X107717Y79048D01*
X104448Y82317D01*
X102679Y86588D01*
X102679Y91212D01*
X104448Y95483D01*
X107717Y98752D01*
X111763Y100427D01*
X111884Y100496D01*
X112007Y100561D01*
X112022Y100575D01*
X112039Y100585D01*
X112139Y100682D01*
X112242Y100775D01*
X112253Y100792D01*
X112268Y100806D01*
X112341Y100925D01*
X112417Y101041D01*
X112423Y101060D01*
X112434Y101077D01*
X112475Y101210D01*
X112520Y101342D01*
X112522Y101362D01*
X112528Y101381D01*
X112534Y101520D01*
X112545Y101659D01*
X112542Y101679D01*
X112543Y101699D01*
X112515Y101835D01*
X112491Y101972D01*
X112483Y101991D01*
X112478Y102010D01*
X112417Y102136D01*
X112360Y102262D01*
X112348Y102278D01*
X112339Y102296D01*
X112248Y102402D01*
X112162Y102510D01*
X112146Y102523D01*
X112132Y102538D01*
X112019Y102618D01*
X111908Y102702D01*
X111882Y102714D01*
X111872Y102721D01*
X111853Y102728D01*
X111763Y102773D01*
X107717Y104448D01*
X104448Y107717D01*
X102679Y111988D01*
X102679Y116612D01*
X104448Y120883D01*
X107717Y124152D01*
X111763Y125827D01*
X111884Y125896D01*
X112007Y125961D01*
X112022Y125975D01*
X112039Y125985D01*
X112139Y126082D01*
X112242Y126175D01*
X112253Y126192D01*
X112268Y126206D01*
X112341Y126325D01*
X112417Y126441D01*
X112423Y126460D01*
X112434Y126477D01*
X112475Y126610D01*
X112520Y126742D01*
X112522Y126762D01*
X112528Y126781D01*
X112534Y126920D01*
X112545Y127059D01*
X112542Y127079D01*
X112543Y127099D01*
X112515Y127235D01*
X112491Y127372D01*
X112483Y127391D01*
X112478Y127410D01*
X112417Y127536D01*
X112360Y127662D01*
X112348Y127678D01*
X112339Y127696D01*
X112248Y127802D01*
X112162Y127910D01*
X112146Y127923D01*
X112132Y127938D01*
X112019Y128018D01*
X111908Y128102D01*
X111882Y128114D01*
X111872Y128121D01*
X111853Y128128D01*
X111763Y128173D01*
X107717Y129848D01*
X104448Y133117D01*
X102679Y137388D01*
X102679Y142012D01*
X104448Y146283D01*
X107717Y149552D01*
X111763Y151227D01*
X111884Y151296D01*
X112007Y151361D01*
X112022Y151375D01*
X112039Y151385D01*
X112139Y151482D01*
X112242Y151575D01*
X112253Y151592D01*
X112268Y151606D01*
X112341Y151725D01*
X112417Y151841D01*
X112423Y151860D01*
X112434Y151877D01*
X112475Y152010D01*
X112520Y152142D01*
X112522Y152162D01*
X112528Y152181D01*
X112534Y152320D01*
X112545Y152459D01*
X112542Y152479D01*
X112543Y152499D01*
X112515Y152635D01*
X112491Y152772D01*
X112483Y152791D01*
X112478Y152810D01*
X112417Y152936D01*
X112360Y153062D01*
X112348Y153078D01*
X112339Y153096D01*
X112248Y153202D01*
X112162Y153310D01*
X112146Y153323D01*
X112132Y153338D01*
X112019Y153418D01*
X111908Y153502D01*
X111882Y153514D01*
X111872Y153521D01*
X111853Y153528D01*
X111763Y153573D01*
X107717Y155248D01*
X104448Y158517D01*
X102679Y162788D01*
X102679Y167412D01*
X104448Y171683D01*
X107717Y174952D01*
X111763Y176627D01*
X111884Y176696D01*
X112007Y176761D01*
X112022Y176775D01*
X112039Y176785D01*
X112139Y176882D01*
X112242Y176975D01*
X112253Y176992D01*
X112268Y177006D01*
X112341Y177125D01*
X112417Y177241D01*
X112423Y177260D01*
X112434Y177277D01*
X112475Y177410D01*
X112520Y177542D01*
X112522Y177562D01*
X112528Y177581D01*
X112534Y177720D01*
X112545Y177859D01*
X112542Y177879D01*
X112543Y177899D01*
X112515Y178035D01*
X112491Y178172D01*
X112483Y178191D01*
X112478Y178210D01*
X112417Y178336D01*
X112360Y178462D01*
X112348Y178478D01*
X112339Y178496D01*
X112248Y178602D01*
X112162Y178710D01*
X112146Y178723D01*
X112132Y178738D01*
X112019Y178818D01*
X111908Y178902D01*
X111882Y178914D01*
X111872Y178921D01*
X111853Y178928D01*
X111763Y178973D01*
X107717Y180648D01*
X104448Y183917D01*
X102679Y188188D01*
X102679Y192812D01*
X104448Y197083D01*
X107717Y200352D01*
X111763Y202027D01*
X111884Y202096D01*
X112007Y202161D01*
X112022Y202175D01*
X112039Y202185D01*
X112139Y202282D01*
X112242Y202375D01*
X112253Y202392D01*
X112268Y202406D01*
X112341Y202525D01*
X112417Y202641D01*
X112423Y202660D01*
X112434Y202677D01*
X112475Y202810D01*
X112520Y202942D01*
X112522Y202962D01*
X112528Y202981D01*
X112534Y203120D01*
X112545Y203259D01*
X112542Y203279D01*
X112543Y203299D01*
X112515Y203435D01*
X112491Y203572D01*
X112483Y203591D01*
X112478Y203610D01*
X112417Y203736D01*
X112360Y203862D01*
X112348Y203878D01*
X112339Y203896D01*
X112248Y204002D01*
X112162Y204110D01*
X112146Y204123D01*
X112132Y204138D01*
X112019Y204218D01*
X111908Y204302D01*
X111882Y204314D01*
X111872Y204321D01*
X111853Y204328D01*
X111763Y204373D01*
X107717Y206048D01*
X104448Y209317D01*
X102679Y213588D01*
X102679Y218212D01*
X104043Y221503D01*
X104045Y221512D01*
X104050Y221520D01*
X104087Y221665D01*
X104127Y221810D01*
X104127Y221819D01*
X104129Y221828D01*
X104139Y221989D01*
X104139Y223001D01*
X105686Y226736D01*
X106736Y227785D01*
X106766Y227824D01*
X106803Y227858D01*
X106864Y227950D01*
X106931Y228037D01*
X106950Y228082D01*
X106978Y228124D01*
X107013Y228228D01*
X107057Y228328D01*
X107065Y228378D01*
X107081Y228424D01*
X107090Y228534D01*
X107107Y228643D01*
X107102Y228692D01*
X107106Y228742D01*
X107087Y228850D01*
X107077Y228959D01*
X107060Y229006D01*
X107052Y229055D01*
X107007Y229155D01*
X106970Y229258D01*
X106942Y229300D01*
X106921Y229345D01*
X106853Y229431D01*
X106791Y229522D01*
X106754Y229554D01*
X106723Y229593D01*
X106635Y229659D01*
X106553Y229732D01*
X106508Y229755D01*
X106469Y229785D01*
X106324Y229855D01*
X104882Y230453D01*
X103453Y231882D01*
X102679Y233749D01*
X102679Y248851D01*
X103453Y250718D01*
X104882Y252147D01*
X106749Y252921D01*
X121851Y252921D01*
X123718Y252147D01*
X125147Y250718D01*
X125921Y248851D01*
X125921Y234794D01*
X125938Y234657D01*
X125940Y234635D01*
X125943Y234589D01*
X125945Y234582D01*
X125951Y234518D01*
X125958Y234499D01*
X125961Y234479D01*
X126012Y234350D01*
X126059Y234219D01*
X126070Y234202D01*
X126078Y234183D01*
X126159Y234071D01*
X126237Y233956D01*
X126253Y233942D01*
X126264Y233926D01*
X126372Y233837D01*
X126476Y233745D01*
X126494Y233736D01*
X126509Y233723D01*
X126635Y233664D01*
X126759Y233601D01*
X126779Y233596D01*
X126797Y233588D01*
X126933Y233561D01*
X127069Y233531D01*
X127090Y233532D01*
X127109Y233528D01*
X127248Y233536D01*
X127387Y233541D01*
X127407Y233546D01*
X127427Y233547D01*
X127559Y233590D01*
X127693Y233629D01*
X127710Y233639D01*
X127729Y233646D01*
X127847Y233720D01*
X127967Y233791D01*
X127988Y233809D01*
X127998Y233816D01*
X128012Y233831D01*
X128087Y233897D01*
X235048Y340857D01*
X236385Y342195D01*
X236458Y342289D01*
X236537Y342378D01*
X236556Y342414D01*
X236580Y342446D01*
X236628Y342555D01*
X236682Y342661D01*
X236691Y342701D01*
X236707Y342738D01*
X236725Y342856D01*
X236751Y342972D01*
X236750Y343012D01*
X236757Y343052D01*
X236745Y343171D01*
X236742Y343290D01*
X236731Y343328D01*
X236727Y343369D01*
X236686Y343481D01*
X236653Y343595D01*
X236633Y343630D01*
X236619Y343668D01*
X236552Y343767D01*
X236492Y343869D01*
X236452Y343914D01*
X236441Y343931D01*
X236425Y343945D01*
X236385Y343990D01*
X229615Y350760D01*
X229615Y360440D01*
X236460Y367285D01*
X238090Y367285D01*
X238188Y367297D01*
X238287Y367300D01*
X238345Y367317D01*
X238405Y367325D01*
X238497Y367361D01*
X238592Y367389D01*
X238644Y367419D01*
X238701Y367442D01*
X238781Y367500D01*
X238866Y367550D01*
X238942Y367616D01*
X238958Y367628D01*
X238966Y367638D01*
X238987Y367656D01*
X294268Y422937D01*
X294328Y423015D01*
X294396Y423087D01*
X294425Y423140D01*
X294462Y423188D01*
X294502Y423279D01*
X294550Y423366D01*
X294565Y423424D01*
X294589Y423480D01*
X294604Y423578D01*
X294629Y423674D01*
X294635Y423774D01*
X294639Y423794D01*
X294637Y423806D01*
X294639Y423834D01*
X294639Y441689D01*
X294627Y441787D01*
X294624Y441886D01*
X294607Y441945D01*
X294599Y442005D01*
X294563Y442097D01*
X294535Y442192D01*
X294505Y442244D01*
X294482Y442300D01*
X294424Y442380D01*
X294374Y442466D01*
X294308Y442541D01*
X294296Y442558D01*
X294286Y442566D01*
X294268Y442587D01*
X287019Y449835D01*
X287019Y464565D01*
X297435Y474981D01*
X312165Y474981D01*
X322581Y464565D01*
X322581Y449835D01*
X315332Y442587D01*
X315272Y442508D01*
X315204Y442436D01*
X315175Y442383D01*
X315138Y442335D01*
X315098Y442244D01*
X315050Y442158D01*
X315035Y442099D01*
X315011Y442044D01*
X314996Y441946D01*
X314971Y441850D01*
X314965Y441750D01*
X314961Y441730D01*
X314963Y441717D01*
X314961Y441689D01*
X314961Y417079D01*
X313414Y413344D01*
X253356Y353287D01*
X253296Y353209D01*
X253228Y353137D01*
X253199Y353084D01*
X253162Y353036D01*
X253122Y352945D01*
X253074Y352858D01*
X253059Y352800D01*
X253035Y352744D01*
X253020Y352646D01*
X252995Y352550D01*
X252989Y352450D01*
X252985Y352430D01*
X252987Y352418D01*
X252985Y352390D01*
X252985Y350760D01*
X249832Y347607D01*
X249747Y347498D01*
X249658Y347391D01*
X249650Y347372D01*
X249637Y347356D01*
X249582Y347228D01*
X249523Y347103D01*
X249519Y347083D01*
X249511Y347064D01*
X249489Y346926D01*
X249463Y346790D01*
X249464Y346770D01*
X249461Y346750D01*
X249474Y346611D01*
X249483Y346473D01*
X249489Y346454D01*
X249491Y346434D01*
X249538Y346302D01*
X249581Y346171D01*
X249592Y346153D01*
X249598Y346134D01*
X249677Y346019D01*
X249751Y345902D01*
X249766Y345888D01*
X249777Y345871D01*
X249881Y345779D01*
X249983Y345684D01*
X250000Y345674D01*
X250015Y345661D01*
X250140Y345597D01*
X250261Y345530D01*
X250281Y345525D01*
X250299Y345516D01*
X250435Y345486D01*
X250569Y345451D01*
X250597Y345449D01*
X250609Y345446D01*
X250629Y345447D01*
X250730Y345441D01*
X284826Y345441D01*
X284924Y345453D01*
X285023Y345456D01*
X285081Y345473D01*
X285141Y345481D01*
X285233Y345517D01*
X285328Y345545D01*
X285380Y345575D01*
X285437Y345598D01*
X285517Y345656D01*
X285602Y345706D01*
X285678Y345772D01*
X285694Y345784D01*
X285702Y345794D01*
X285723Y345812D01*
X303924Y364013D01*
X304000Y364111D01*
X304080Y364204D01*
X304107Y364249D01*
X304119Y364264D01*
X304127Y364284D01*
X304161Y364343D01*
X304236Y364492D01*
X305456Y365550D01*
X305470Y365566D01*
X305522Y365612D01*
X306664Y366754D01*
X306818Y366817D01*
X306925Y366879D01*
X307036Y366934D01*
X307078Y366966D01*
X307094Y366975D01*
X307109Y366990D01*
X307164Y367031D01*
X307290Y367140D01*
X308822Y367651D01*
X308841Y367660D01*
X308906Y367683D01*
X310399Y368301D01*
X310565Y368301D01*
X310688Y368316D01*
X310811Y368325D01*
X310862Y368338D01*
X310881Y368341D01*
X310900Y368348D01*
X310967Y368366D01*
X311124Y368418D01*
X312736Y368304D01*
X312757Y368305D01*
X312825Y368301D01*
X314441Y368301D01*
X314595Y368237D01*
X314714Y368204D01*
X314831Y368165D01*
X314883Y368158D01*
X314901Y368153D01*
X314923Y368153D01*
X314991Y368144D01*
X315156Y368132D01*
X316583Y367419D01*
X316634Y367401D01*
X316682Y367374D01*
X316783Y367348D01*
X316883Y367313D01*
X316937Y367309D01*
X316990Y367295D01*
X317150Y367285D01*
X322340Y367285D01*
X329185Y360440D01*
X329185Y354238D01*
X329202Y354101D01*
X329215Y353962D01*
X329222Y353943D01*
X329225Y353923D01*
X329276Y353794D01*
X329323Y353663D01*
X329334Y353646D01*
X329342Y353627D01*
X329423Y353515D01*
X329501Y353400D01*
X329517Y353386D01*
X329528Y353370D01*
X329636Y353281D01*
X329740Y353189D01*
X329758Y353180D01*
X329773Y353167D01*
X329899Y353108D01*
X330023Y353045D01*
X330043Y353040D01*
X330061Y353032D01*
X330197Y353005D01*
X330333Y352975D01*
X330354Y352976D01*
X330373Y352972D01*
X330512Y352980D01*
X330651Y352985D01*
X330671Y352990D01*
X330691Y352991D01*
X330823Y353034D01*
X330957Y353073D01*
X330974Y353083D01*
X330993Y353090D01*
X331111Y353164D01*
X331231Y353235D01*
X331252Y353253D01*
X331262Y353260D01*
X331276Y353275D01*
X331351Y353341D01*
X376206Y398196D01*
X376212Y398203D01*
X376219Y398209D01*
X376309Y398328D01*
X376401Y398447D01*
X376405Y398455D01*
X376410Y398463D01*
X376481Y398607D01*
X377190Y400319D01*
X380477Y403606D01*
X382189Y404315D01*
X382197Y404319D01*
X382206Y404322D01*
X382335Y404398D01*
X382465Y404472D01*
X382472Y404479D01*
X382480Y404484D01*
X382601Y404590D01*
X382864Y404854D01*
X383018Y404917D01*
X383125Y404979D01*
X383236Y405034D01*
X383278Y405066D01*
X383294Y405075D01*
X383309Y405090D01*
X383364Y405131D01*
X383490Y405240D01*
X383883Y405372D01*
X383906Y405382D01*
X383930Y405388D01*
X384049Y405451D01*
X384170Y405509D01*
X384189Y405525D01*
X384211Y405537D01*
X384311Y405627D01*
X384414Y405714D01*
X384428Y405734D01*
X384447Y405751D01*
X384521Y405863D01*
X384599Y405972D01*
X384608Y405996D01*
X384622Y406017D01*
X384665Y406144D01*
X384714Y406269D01*
X384717Y406294D01*
X384725Y406317D01*
X384735Y406451D01*
X384751Y406585D01*
X384748Y406609D01*
X384750Y406634D01*
X384727Y406767D01*
X384709Y406900D01*
X384700Y406923D01*
X384696Y406948D01*
X384640Y407070D01*
X384590Y407195D01*
X384575Y407215D01*
X384565Y407238D01*
X384481Y407343D01*
X384401Y407451D01*
X384382Y407467D01*
X384366Y407486D01*
X384259Y407567D01*
X384155Y407652D01*
X384132Y407662D01*
X384112Y407677D01*
X383968Y407748D01*
X380477Y409194D01*
X377190Y412481D01*
X375411Y416776D01*
X375411Y421424D01*
X377190Y425719D01*
X380477Y429006D01*
X384392Y430627D01*
X384512Y430696D01*
X384636Y430761D01*
X384650Y430775D01*
X384668Y430785D01*
X384768Y430882D01*
X384871Y430975D01*
X384882Y430992D01*
X384897Y431006D01*
X384969Y431124D01*
X385046Y431241D01*
X385052Y431260D01*
X385063Y431277D01*
X385104Y431410D01*
X385149Y431542D01*
X385150Y431562D01*
X385156Y431581D01*
X385163Y431720D01*
X385174Y431859D01*
X385171Y431879D01*
X385172Y431899D01*
X385143Y432035D01*
X385120Y432172D01*
X385111Y432190D01*
X385107Y432210D01*
X385046Y432336D01*
X384989Y432462D01*
X384976Y432478D01*
X384968Y432496D01*
X384877Y432602D01*
X384790Y432710D01*
X384774Y432723D01*
X384761Y432738D01*
X384647Y432818D01*
X384536Y432902D01*
X384511Y432914D01*
X384501Y432921D01*
X384482Y432928D01*
X384392Y432973D01*
X380477Y434594D01*
X377190Y437881D01*
X375411Y442176D01*
X375411Y446824D01*
X377190Y451119D01*
X380477Y454406D01*
X384772Y456185D01*
X402628Y456185D01*
X406923Y454406D01*
X410210Y451119D01*
X411989Y446824D01*
X411989Y442176D01*
X410210Y437881D01*
X406923Y434594D01*
X403008Y432973D01*
X402887Y432904D01*
X402764Y432839D01*
X402749Y432825D01*
X402732Y432815D01*
X402632Y432718D01*
X402529Y432625D01*
X402518Y432608D01*
X402503Y432594D01*
X402431Y432475D01*
X402354Y432359D01*
X402348Y432340D01*
X402337Y432323D01*
X402296Y432190D01*
X402251Y432058D01*
X402250Y432038D01*
X402244Y432019D01*
X402237Y431880D01*
X402226Y431741D01*
X402229Y431721D01*
X402228Y431701D01*
X402257Y431565D01*
X402280Y431428D01*
X402289Y431409D01*
X402293Y431390D01*
X402354Y431264D01*
X402411Y431138D01*
X402424Y431122D01*
X402432Y431104D01*
X402523Y430998D01*
X402610Y430890D01*
X402626Y430877D01*
X402639Y430862D01*
X402753Y430782D01*
X402864Y430698D01*
X402889Y430686D01*
X402899Y430679D01*
X402918Y430672D01*
X403008Y430627D01*
X406923Y429006D01*
X410210Y425719D01*
X411989Y421424D01*
X411989Y416776D01*
X410210Y412481D01*
X406923Y409194D01*
X403008Y407573D01*
X402887Y407504D01*
X402764Y407439D01*
X402749Y407425D01*
X402732Y407415D01*
X402632Y407318D01*
X402529Y407225D01*
X402518Y407208D01*
X402503Y407194D01*
X402431Y407075D01*
X402354Y406959D01*
X402348Y406940D01*
X402337Y406923D01*
X402296Y406790D01*
X402251Y406658D01*
X402250Y406638D01*
X402244Y406619D01*
X402237Y406480D01*
X402226Y406341D01*
X402229Y406321D01*
X402228Y406301D01*
X402257Y406165D01*
X402280Y406028D01*
X402289Y406009D01*
X402293Y405990D01*
X402354Y405864D01*
X402411Y405738D01*
X402424Y405722D01*
X402432Y405704D01*
X402523Y405598D01*
X402610Y405490D01*
X402626Y405477D01*
X402639Y405462D01*
X402753Y405382D01*
X402864Y405298D01*
X402889Y405286D01*
X402899Y405279D01*
X402918Y405272D01*
X403008Y405227D01*
X406923Y403606D01*
X410210Y400319D01*
X411989Y396024D01*
X411989Y391376D01*
X410210Y387081D01*
X406923Y383794D01*
X403008Y382173D01*
X402887Y382104D01*
X402764Y382039D01*
X402749Y382025D01*
X402732Y382015D01*
X402632Y381918D01*
X402529Y381825D01*
X402518Y381808D01*
X402503Y381794D01*
X402431Y381675D01*
X402354Y381559D01*
X402348Y381540D01*
X402337Y381523D01*
X402296Y381390D01*
X402251Y381258D01*
X402250Y381238D01*
X402244Y381219D01*
X402237Y381080D01*
X402226Y380941D01*
X402229Y380921D01*
X402228Y380901D01*
X402257Y380765D01*
X402280Y380628D01*
X402289Y380609D01*
X402293Y380590D01*
X402354Y380464D01*
X402411Y380338D01*
X402424Y380322D01*
X402432Y380304D01*
X402523Y380198D01*
X402610Y380090D01*
X402626Y380077D01*
X402639Y380062D01*
X402753Y379982D01*
X402864Y379898D01*
X402889Y379886D01*
X402899Y379879D01*
X402918Y379872D01*
X403008Y379827D01*
X406923Y378206D01*
X410210Y374919D01*
X411989Y370624D01*
X411989Y365976D01*
X410210Y361681D01*
X406923Y358394D01*
X403008Y356773D01*
X402887Y356704D01*
X402764Y356639D01*
X402749Y356625D01*
X402732Y356615D01*
X402632Y356518D01*
X402529Y356425D01*
X402518Y356408D01*
X402503Y356394D01*
X402431Y356275D01*
X402354Y356159D01*
X402348Y356140D01*
X402337Y356123D01*
X402296Y355990D01*
X402251Y355858D01*
X402250Y355838D01*
X402244Y355819D01*
X402237Y355680D01*
X402226Y355541D01*
X402229Y355521D01*
X402228Y355501D01*
X402257Y355365D01*
X402280Y355228D01*
X402289Y355209D01*
X402293Y355190D01*
X402354Y355064D01*
X402411Y354938D01*
X402424Y354922D01*
X402432Y354904D01*
X402523Y354798D01*
X402610Y354690D01*
X402626Y354677D01*
X402639Y354662D01*
X402753Y354582D01*
X402864Y354498D01*
X402889Y354486D01*
X402899Y354479D01*
X402918Y354472D01*
X403008Y354427D01*
X406923Y352806D01*
X410210Y349519D01*
X411989Y345224D01*
X411989Y340576D01*
X410210Y336281D01*
X406923Y332994D01*
X403008Y331373D01*
X402887Y331304D01*
X402764Y331239D01*
X402749Y331225D01*
X402732Y331215D01*
X402632Y331118D01*
X402529Y331025D01*
X402518Y331008D01*
X402503Y330994D01*
X402431Y330875D01*
X402354Y330759D01*
X402348Y330740D01*
X402337Y330723D01*
X402296Y330590D01*
X402251Y330458D01*
X402250Y330438D01*
X402244Y330419D01*
X402237Y330280D01*
X402226Y330141D01*
X402229Y330121D01*
X402228Y330101D01*
X402257Y329965D01*
X402280Y329828D01*
X402289Y329809D01*
X402293Y329790D01*
X402354Y329664D01*
X402411Y329538D01*
X402424Y329522D01*
X402432Y329504D01*
X402523Y329398D01*
X402610Y329290D01*
X402626Y329277D01*
X402639Y329262D01*
X402753Y329182D01*
X402864Y329098D01*
X402889Y329086D01*
X402899Y329079D01*
X402918Y329072D01*
X403008Y329027D01*
X406923Y327406D01*
X410210Y324119D01*
X411989Y319824D01*
X411989Y315176D01*
X410210Y310881D01*
X406923Y307594D01*
X402628Y305815D01*
X400050Y305815D01*
X399932Y305800D01*
X399813Y305793D01*
X399775Y305780D01*
X399734Y305775D01*
X399624Y305732D01*
X399511Y305695D01*
X399476Y305673D01*
X399439Y305658D01*
X399343Y305589D01*
X399242Y305525D01*
X399214Y305495D01*
X399181Y305472D01*
X399105Y305380D01*
X399024Y305293D01*
X399004Y305258D01*
X398979Y305227D01*
X398928Y305119D01*
X398870Y305015D01*
X398860Y304975D01*
X398843Y304939D01*
X398821Y304822D01*
X398791Y304707D01*
X398787Y304647D01*
X398783Y304627D01*
X398785Y304606D01*
X398781Y304546D01*
X398781Y218959D01*
X397234Y215224D01*
X387377Y205367D01*
X387292Y205258D01*
X387203Y205151D01*
X387194Y205132D01*
X387182Y205116D01*
X387127Y204988D01*
X387068Y204863D01*
X387064Y204843D01*
X387056Y204824D01*
X387034Y204686D01*
X387008Y204550D01*
X387009Y204530D01*
X387006Y204510D01*
X387019Y204371D01*
X387027Y204233D01*
X387034Y204214D01*
X387036Y204194D01*
X387083Y204062D01*
X387126Y203931D01*
X387136Y203913D01*
X387143Y203894D01*
X387221Y203779D01*
X387296Y203662D01*
X387310Y203648D01*
X387322Y203631D01*
X387426Y203539D01*
X387527Y203444D01*
X387545Y203434D01*
X387560Y203421D01*
X387684Y203357D01*
X387806Y203290D01*
X387825Y203285D01*
X387843Y203276D01*
X387979Y203246D01*
X388114Y203211D01*
X388142Y203209D01*
X388154Y203206D01*
X388174Y203207D01*
X388274Y203201D01*
X403846Y203201D01*
X408514Y201267D01*
X412087Y197694D01*
X414021Y193026D01*
X414021Y187974D01*
X412087Y183306D01*
X408514Y179733D01*
X403846Y177799D01*
X383554Y177799D01*
X379476Y179488D01*
X379361Y179520D01*
X379249Y179558D01*
X379208Y179562D01*
X379169Y179572D01*
X379050Y179574D01*
X378932Y179584D01*
X378892Y179577D01*
X378851Y179577D01*
X378736Y179550D01*
X378618Y179529D01*
X378581Y179513D01*
X378542Y179503D01*
X378437Y179447D01*
X378328Y179399D01*
X378297Y179373D01*
X378261Y179354D01*
X378173Y179274D01*
X378080Y179200D01*
X378056Y179168D01*
X378026Y179140D01*
X377960Y179041D01*
X377889Y178946D01*
X377862Y178892D01*
X377851Y178875D01*
X377844Y178855D01*
X377818Y178801D01*
X376527Y175686D01*
X372954Y172113D01*
X368286Y170179D01*
X365414Y170179D01*
X365277Y170162D01*
X365138Y170149D01*
X365119Y170142D01*
X365099Y170139D01*
X364970Y170088D01*
X364839Y170041D01*
X364822Y170030D01*
X364803Y170022D01*
X364691Y169941D01*
X364576Y169863D01*
X364562Y169847D01*
X364546Y169836D01*
X364457Y169728D01*
X364365Y169624D01*
X364356Y169606D01*
X364343Y169591D01*
X364284Y169465D01*
X364221Y169341D01*
X364216Y169321D01*
X364208Y169303D01*
X364181Y169167D01*
X364151Y169031D01*
X364152Y169010D01*
X364148Y168991D01*
X364156Y168852D01*
X364161Y168713D01*
X364166Y168693D01*
X364167Y168673D01*
X364210Y168541D01*
X364249Y168407D01*
X364259Y168390D01*
X364266Y168371D01*
X364340Y168253D01*
X364411Y168133D01*
X364429Y168112D01*
X364436Y168102D01*
X364451Y168088D01*
X364517Y168013D01*
X377217Y155312D01*
X377295Y155252D01*
X377367Y155184D01*
X377420Y155155D01*
X377468Y155118D01*
X377559Y155078D01*
X377646Y155030D01*
X377704Y155015D01*
X377760Y154991D01*
X377858Y154976D01*
X377954Y154951D01*
X378054Y154945D01*
X378074Y154941D01*
X378086Y154943D01*
X378114Y154941D01*
X390641Y154941D01*
X394376Y153394D01*
X394997Y152772D01*
X395075Y152712D01*
X395147Y152644D01*
X395200Y152615D01*
X395248Y152578D01*
X395339Y152538D01*
X395426Y152490D01*
X395484Y152475D01*
X395540Y152451D01*
X395638Y152436D01*
X395734Y152411D01*
X395834Y152405D01*
X395854Y152401D01*
X395866Y152403D01*
X395894Y152401D01*
X403846Y152401D01*
X408514Y150467D01*
X412087Y146894D01*
X414021Y142226D01*
X414021Y137174D01*
X412087Y132506D01*
X408514Y128933D01*
X403846Y126999D01*
X383554Y126999D01*
X378886Y128933D01*
X375313Y132506D01*
X374762Y133836D01*
X374747Y133861D01*
X374738Y133889D01*
X374669Y133999D01*
X374604Y134112D01*
X374584Y134133D01*
X374568Y134158D01*
X374473Y134247D01*
X374383Y134340D01*
X374358Y134356D01*
X374336Y134376D01*
X374223Y134439D01*
X374112Y134507D01*
X374084Y134515D01*
X374058Y134530D01*
X373932Y134562D01*
X373808Y134600D01*
X373779Y134602D01*
X373750Y134609D01*
X373589Y134619D01*
X371359Y134619D01*
X367624Y136166D01*
X334286Y169504D01*
X332739Y173239D01*
X332739Y299201D01*
X334286Y302936D01*
X375040Y343689D01*
X375100Y343767D01*
X375168Y343839D01*
X375197Y343892D01*
X375234Y343940D01*
X375274Y344031D01*
X375322Y344118D01*
X375337Y344176D01*
X375361Y344232D01*
X375376Y344330D01*
X375401Y344426D01*
X375407Y344526D01*
X375411Y344546D01*
X375409Y344558D01*
X375411Y344586D01*
X375411Y345224D01*
X377190Y349519D01*
X380477Y352806D01*
X384392Y354427D01*
X384512Y354496D01*
X384636Y354561D01*
X384650Y354575D01*
X384668Y354585D01*
X384768Y354682D01*
X384871Y354775D01*
X384882Y354792D01*
X384897Y354806D01*
X384969Y354924D01*
X385046Y355041D01*
X385052Y355060D01*
X385063Y355077D01*
X385104Y355210D01*
X385149Y355342D01*
X385150Y355362D01*
X385156Y355381D01*
X385163Y355520D01*
X385174Y355659D01*
X385171Y355679D01*
X385172Y355699D01*
X385143Y355835D01*
X385120Y355972D01*
X385111Y355990D01*
X385107Y356010D01*
X385046Y356136D01*
X384989Y356262D01*
X384976Y356278D01*
X384968Y356296D01*
X384877Y356402D01*
X384790Y356510D01*
X384774Y356523D01*
X384761Y356538D01*
X384647Y356618D01*
X384536Y356702D01*
X384511Y356714D01*
X384501Y356721D01*
X384482Y356728D01*
X384392Y356773D01*
X380477Y358394D01*
X377190Y361681D01*
X375351Y366120D01*
X375327Y366163D01*
X375310Y366210D01*
X375248Y366301D01*
X375194Y366396D01*
X375159Y366432D01*
X375131Y366473D01*
X375049Y366546D01*
X374973Y366625D01*
X374930Y366651D01*
X374893Y366684D01*
X374795Y366734D01*
X374702Y366791D01*
X374654Y366806D01*
X374610Y366828D01*
X374503Y366852D01*
X374398Y366885D01*
X374348Y366887D01*
X374300Y366898D01*
X374190Y366895D01*
X374080Y366900D01*
X374031Y366890D01*
X373982Y366888D01*
X373876Y366858D01*
X373768Y366835D01*
X373724Y366814D01*
X373676Y366800D01*
X373582Y366744D01*
X373483Y366696D01*
X373445Y366664D01*
X373402Y366638D01*
X373281Y366532D01*
X330572Y323823D01*
X330512Y323745D01*
X330444Y323673D01*
X330415Y323620D01*
X330378Y323572D01*
X330338Y323481D01*
X330290Y323394D01*
X330275Y323336D01*
X330251Y323280D01*
X330236Y323182D01*
X330211Y323086D01*
X330205Y322986D01*
X330201Y322966D01*
X330203Y322954D01*
X330201Y322926D01*
X330201Y302779D01*
X329281Y300559D01*
X329279Y300550D01*
X329274Y300542D01*
X329237Y300397D01*
X329197Y300253D01*
X329197Y300243D01*
X329195Y300234D01*
X329185Y300074D01*
X329185Y299960D01*
X329104Y299880D01*
X329099Y299872D01*
X329091Y299867D01*
X329001Y299747D01*
X328910Y299628D01*
X328906Y299620D01*
X328900Y299613D01*
X328829Y299468D01*
X328654Y299044D01*
X325796Y296186D01*
X325372Y296011D01*
X325364Y296006D01*
X325355Y296003D01*
X325227Y295928D01*
X325096Y295853D01*
X325089Y295847D01*
X325081Y295842D01*
X324960Y295736D01*
X322340Y293115D01*
X312660Y293115D01*
X305815Y299960D01*
X305815Y309640D01*
X309508Y313332D01*
X309568Y313410D01*
X309636Y313483D01*
X309665Y313536D01*
X309702Y313583D01*
X309742Y313674D01*
X309790Y313761D01*
X309805Y313820D01*
X309829Y313875D01*
X309844Y313973D01*
X309869Y314069D01*
X309875Y314169D01*
X309879Y314189D01*
X309877Y314202D01*
X309879Y314230D01*
X309879Y329681D01*
X311426Y333416D01*
X319759Y341749D01*
X319844Y341858D01*
X319933Y341965D01*
X319942Y341984D01*
X319954Y342000D01*
X320009Y342128D01*
X320068Y342253D01*
X320072Y342273D01*
X320080Y342292D01*
X320102Y342430D01*
X320128Y342566D01*
X320127Y342586D01*
X320130Y342606D01*
X320117Y342745D01*
X320109Y342883D01*
X320102Y342902D01*
X320100Y342922D01*
X320053Y343054D01*
X320010Y343185D01*
X320000Y343203D01*
X319993Y343222D01*
X319915Y343337D01*
X319840Y343454D01*
X319826Y343468D01*
X319814Y343485D01*
X319710Y343577D01*
X319609Y343672D01*
X319591Y343682D01*
X319576Y343695D01*
X319452Y343759D01*
X319330Y343826D01*
X319311Y343831D01*
X319293Y343840D01*
X319157Y343870D01*
X319022Y343905D01*
X318994Y343907D01*
X318982Y343910D01*
X318962Y343909D01*
X318862Y343915D01*
X313090Y343915D01*
X312992Y343903D01*
X312893Y343900D01*
X312835Y343883D01*
X312775Y343875D01*
X312683Y343839D01*
X312588Y343811D01*
X312536Y343781D01*
X312479Y343758D01*
X312399Y343700D01*
X312314Y343650D01*
X312238Y343584D01*
X312222Y343572D01*
X312214Y343562D01*
X312193Y343544D01*
X295316Y326666D01*
X291581Y325119D01*
X248574Y325119D01*
X248476Y325107D01*
X248377Y325104D01*
X248319Y325087D01*
X248259Y325079D01*
X248167Y325043D01*
X248072Y325015D01*
X248020Y324985D01*
X247963Y324962D01*
X247883Y324904D01*
X247798Y324854D01*
X247722Y324788D01*
X247706Y324776D01*
X247698Y324766D01*
X247677Y324748D01*
X241581Y318651D01*
X241496Y318542D01*
X241407Y318435D01*
X241398Y318416D01*
X241386Y318400D01*
X241331Y318272D01*
X241272Y318147D01*
X241268Y318127D01*
X241260Y318108D01*
X241238Y317970D01*
X241212Y317834D01*
X241213Y317814D01*
X241210Y317794D01*
X241223Y317655D01*
X241231Y317517D01*
X241238Y317498D01*
X241240Y317478D01*
X241287Y317346D01*
X241330Y317215D01*
X241340Y317197D01*
X241347Y317178D01*
X241425Y317063D01*
X241500Y316946D01*
X241514Y316932D01*
X241526Y316915D01*
X241630Y316823D01*
X241731Y316728D01*
X241749Y316718D01*
X241764Y316705D01*
X241888Y316641D01*
X242010Y316574D01*
X242029Y316569D01*
X242047Y316560D01*
X242183Y316530D01*
X242318Y316495D01*
X242346Y316493D01*
X242358Y316490D01*
X242378Y316491D01*
X242478Y316485D01*
X246140Y316485D01*
X252985Y309640D01*
X252985Y299960D01*
X246140Y293115D01*
X236460Y293115D01*
X229615Y299960D01*
X229615Y303622D01*
X229598Y303759D01*
X229585Y303898D01*
X229578Y303917D01*
X229575Y303937D01*
X229524Y304066D01*
X229477Y304197D01*
X229466Y304214D01*
X229458Y304233D01*
X229377Y304345D01*
X229299Y304460D01*
X229283Y304474D01*
X229272Y304490D01*
X229164Y304579D01*
X229060Y304671D01*
X229042Y304680D01*
X229027Y304693D01*
X228901Y304752D01*
X228777Y304815D01*
X228757Y304820D01*
X228739Y304828D01*
X228603Y304855D01*
X228467Y304885D01*
X228446Y304884D01*
X228427Y304888D01*
X228288Y304880D01*
X228149Y304875D01*
X228129Y304870D01*
X228109Y304869D01*
X227977Y304826D01*
X227843Y304787D01*
X227826Y304777D01*
X227807Y304770D01*
X227689Y304696D01*
X227569Y304625D01*
X227548Y304607D01*
X227538Y304600D01*
X227524Y304585D01*
X227449Y304519D01*
X135296Y212366D01*
X131561Y210819D01*
X125622Y210819D01*
X125592Y210816D01*
X125563Y210818D01*
X125435Y210796D01*
X125306Y210779D01*
X125279Y210769D01*
X125250Y210764D01*
X125131Y210710D01*
X125011Y210662D01*
X124987Y210645D01*
X124960Y210633D01*
X124858Y210552D01*
X124753Y210476D01*
X124734Y210453D01*
X124711Y210434D01*
X124633Y210331D01*
X124550Y210231D01*
X124538Y210204D01*
X124520Y210180D01*
X124449Y210036D01*
X124152Y209317D01*
X120883Y206048D01*
X116837Y204373D01*
X116716Y204304D01*
X116593Y204239D01*
X116578Y204225D01*
X116561Y204215D01*
X116461Y204118D01*
X116358Y204025D01*
X116347Y204008D01*
X116332Y203994D01*
X116260Y203876D01*
X116183Y203759D01*
X116177Y203740D01*
X116166Y203723D01*
X116125Y203590D01*
X116080Y203458D01*
X116078Y203438D01*
X116072Y203419D01*
X116066Y203280D01*
X116055Y203141D01*
X116058Y203121D01*
X116057Y203101D01*
X116085Y202965D01*
X116109Y202828D01*
X116117Y202809D01*
X116122Y202790D01*
X116183Y202665D01*
X116240Y202538D01*
X116252Y202522D01*
X116261Y202504D01*
X116352Y202398D01*
X116438Y202290D01*
X116454Y202277D01*
X116468Y202262D01*
X116581Y202182D01*
X116692Y202098D01*
X116718Y202086D01*
X116728Y202079D01*
X116747Y202072D01*
X116837Y202027D01*
X120883Y200352D01*
X124152Y197083D01*
X125921Y192812D01*
X125921Y188188D01*
X124152Y183917D01*
X120883Y180648D01*
X116837Y178973D01*
X116716Y178904D01*
X116593Y178839D01*
X116578Y178825D01*
X116561Y178815D01*
X116461Y178718D01*
X116358Y178625D01*
X116347Y178608D01*
X116332Y178594D01*
X116260Y178476D01*
X116183Y178359D01*
X116177Y178340D01*
X116166Y178323D01*
X116125Y178190D01*
X116080Y178058D01*
X116078Y178038D01*
X116072Y178019D01*
X116066Y177880D01*
X116055Y177741D01*
X116058Y177721D01*
X116057Y177701D01*
X116085Y177564D01*
X116109Y177428D01*
X116117Y177409D01*
X116122Y177390D01*
X116183Y177265D01*
X116240Y177138D01*
X116252Y177122D01*
X116261Y177104D01*
X116352Y176998D01*
X116438Y176890D01*
X116454Y176877D01*
X116468Y176862D01*
X116581Y176782D01*
X116692Y176698D01*
X116718Y176686D01*
X116728Y176679D01*
X116747Y176672D01*
X116837Y176627D01*
X120883Y174952D01*
X124152Y171683D01*
X125921Y167412D01*
X125921Y162788D01*
X124152Y158517D01*
X120883Y155248D01*
X116837Y153573D01*
X116716Y153504D01*
X116593Y153439D01*
X116578Y153425D01*
X116561Y153415D01*
X116461Y153318D01*
X116358Y153225D01*
X116347Y153208D01*
X116332Y153194D01*
X116260Y153076D01*
X116183Y152959D01*
X116177Y152940D01*
X116166Y152923D01*
X116125Y152790D01*
X116080Y152658D01*
X116078Y152638D01*
X116072Y152619D01*
X116066Y152480D01*
X116055Y152341D01*
X116058Y152321D01*
X116057Y152301D01*
X116085Y152165D01*
X116109Y152028D01*
X116117Y152009D01*
X116122Y151990D01*
X116183Y151865D01*
X116240Y151738D01*
X116252Y151722D01*
X116261Y151704D01*
X116352Y151598D01*
X116438Y151490D01*
X116454Y151477D01*
X116468Y151462D01*
X116581Y151382D01*
X116692Y151298D01*
X116718Y151286D01*
X116728Y151279D01*
X116747Y151272D01*
X116837Y151227D01*
X120883Y149552D01*
X124152Y146283D01*
X125921Y142012D01*
X125921Y137388D01*
X124152Y133117D01*
X120883Y129848D01*
X116837Y128173D01*
X116716Y128104D01*
X116593Y128039D01*
X116578Y128025D01*
X116561Y128015D01*
X116461Y127918D01*
X116358Y127825D01*
X116347Y127808D01*
X116332Y127794D01*
X116260Y127676D01*
X116183Y127559D01*
X116177Y127540D01*
X116166Y127523D01*
X116125Y127390D01*
X116080Y127258D01*
X116078Y127238D01*
X116072Y127219D01*
X116066Y127080D01*
X116055Y126941D01*
X116058Y126921D01*
X116057Y126901D01*
X116085Y126764D01*
X116109Y126628D01*
X116117Y126609D01*
X116122Y126590D01*
X116183Y126464D01*
X116240Y126338D01*
X116252Y126322D01*
X116261Y126304D01*
X116352Y126198D01*
X116438Y126090D01*
X116454Y126077D01*
X116468Y126062D01*
X116581Y125982D01*
X116692Y125898D01*
X116718Y125886D01*
X116728Y125879D01*
X116747Y125872D01*
X116837Y125827D01*
X120883Y124152D01*
X124152Y120883D01*
X125921Y116612D01*
X125921Y111988D01*
X124152Y107717D01*
X120883Y104448D01*
X116837Y102773D01*
X116716Y102704D01*
X116593Y102639D01*
X116578Y102625D01*
X116561Y102615D01*
X116461Y102518D01*
X116358Y102425D01*
X116347Y102408D01*
X116332Y102394D01*
X116260Y102276D01*
X116183Y102159D01*
X116177Y102140D01*
X116166Y102123D01*
X116125Y101990D01*
X116080Y101858D01*
X116078Y101838D01*
X116072Y101819D01*
X116066Y101680D01*
X116055Y101541D01*
X116058Y101521D01*
X116057Y101501D01*
X116085Y101365D01*
X116109Y101228D01*
X116117Y101209D01*
X116122Y101190D01*
X116183Y101065D01*
X116240Y100938D01*
X116252Y100922D01*
X116261Y100904D01*
X116352Y100798D01*
X116438Y100690D01*
X116454Y100677D01*
X116468Y100662D01*
X116581Y100582D01*
X116692Y100498D01*
X116718Y100486D01*
X116728Y100479D01*
X116747Y100472D01*
X116837Y100427D01*
X120883Y98752D01*
X124152Y95483D01*
X125921Y91212D01*
X125921Y86588D01*
X124152Y82317D01*
X120883Y79048D01*
X116837Y77373D01*
X116716Y77304D01*
X116593Y77239D01*
X116578Y77225D01*
X116561Y77215D01*
X116461Y77118D01*
X116358Y77025D01*
X116347Y77008D01*
X116332Y76994D01*
X116260Y76876D01*
X116183Y76759D01*
X116177Y76740D01*
X116166Y76723D01*
X116125Y76590D01*
X116080Y76458D01*
X116078Y76438D01*
X116072Y76419D01*
X116066Y76280D01*
X116055Y76141D01*
X116058Y76121D01*
X116057Y76101D01*
X116085Y75964D01*
X116109Y75828D01*
X116117Y75809D01*
X116122Y75790D01*
X116183Y75665D01*
X116240Y75538D01*
X116252Y75522D01*
X116261Y75504D01*
X116352Y75398D01*
X116438Y75290D01*
X116454Y75277D01*
X116468Y75262D01*
X116581Y75182D01*
X116692Y75098D01*
X116718Y75086D01*
X116728Y75079D01*
X116747Y75072D01*
X116837Y75027D01*
X120883Y73352D01*
X124152Y70083D01*
X125921Y65812D01*
X125921Y61188D01*
X124152Y56917D01*
X120883Y53648D01*
X116612Y51879D01*
X111988Y51879D01*
G37*
%LPD*%
%LPC*%
G36*
X213588Y51879D02*
X213588Y51879D01*
X209317Y53648D01*
X206048Y56917D01*
X204279Y61188D01*
X204279Y65812D01*
X206048Y70083D01*
X209317Y73352D01*
X213363Y75027D01*
X213484Y75096D01*
X213607Y75161D01*
X213622Y75175D01*
X213639Y75185D01*
X213739Y75282D01*
X213842Y75375D01*
X213853Y75392D01*
X213868Y75406D01*
X213941Y75525D01*
X214017Y75641D01*
X214023Y75660D01*
X214034Y75677D01*
X214075Y75810D01*
X214120Y75942D01*
X214122Y75962D01*
X214128Y75981D01*
X214134Y76120D01*
X214145Y76259D01*
X214142Y76279D01*
X214143Y76299D01*
X214115Y76435D01*
X214091Y76572D01*
X214083Y76591D01*
X214078Y76610D01*
X214017Y76736D01*
X213960Y76862D01*
X213948Y76878D01*
X213939Y76896D01*
X213848Y77002D01*
X213762Y77110D01*
X213746Y77123D01*
X213732Y77138D01*
X213619Y77218D01*
X213508Y77302D01*
X213482Y77314D01*
X213472Y77321D01*
X213453Y77328D01*
X213363Y77373D01*
X209317Y79048D01*
X206048Y82317D01*
X204279Y86588D01*
X204279Y91212D01*
X206048Y95483D01*
X209317Y98752D01*
X213363Y100427D01*
X213484Y100496D01*
X213607Y100561D01*
X213622Y100575D01*
X213639Y100585D01*
X213739Y100682D01*
X213842Y100775D01*
X213853Y100792D01*
X213868Y100806D01*
X213941Y100925D01*
X214017Y101041D01*
X214023Y101060D01*
X214034Y101077D01*
X214075Y101210D01*
X214120Y101342D01*
X214122Y101362D01*
X214128Y101381D01*
X214134Y101520D01*
X214145Y101659D01*
X214142Y101679D01*
X214143Y101699D01*
X214115Y101835D01*
X214091Y101972D01*
X214083Y101991D01*
X214078Y102010D01*
X214017Y102136D01*
X213960Y102262D01*
X213948Y102278D01*
X213939Y102296D01*
X213848Y102402D01*
X213762Y102510D01*
X213746Y102523D01*
X213732Y102538D01*
X213619Y102618D01*
X213508Y102702D01*
X213482Y102714D01*
X213472Y102721D01*
X213453Y102728D01*
X213363Y102773D01*
X209317Y104448D01*
X206048Y107717D01*
X204279Y111988D01*
X204279Y116612D01*
X206048Y120883D01*
X209317Y124152D01*
X213363Y125827D01*
X213484Y125896D01*
X213607Y125961D01*
X213622Y125975D01*
X213639Y125985D01*
X213739Y126082D01*
X213842Y126175D01*
X213853Y126192D01*
X213868Y126206D01*
X213941Y126325D01*
X214017Y126441D01*
X214023Y126460D01*
X214034Y126477D01*
X214075Y126610D01*
X214120Y126742D01*
X214122Y126762D01*
X214128Y126781D01*
X214134Y126920D01*
X214145Y127059D01*
X214142Y127079D01*
X214143Y127099D01*
X214115Y127235D01*
X214091Y127372D01*
X214083Y127391D01*
X214078Y127410D01*
X214017Y127536D01*
X213960Y127662D01*
X213948Y127678D01*
X213939Y127696D01*
X213848Y127802D01*
X213762Y127910D01*
X213746Y127923D01*
X213732Y127938D01*
X213619Y128018D01*
X213508Y128102D01*
X213482Y128114D01*
X213472Y128121D01*
X213453Y128128D01*
X213363Y128173D01*
X209317Y129848D01*
X206048Y133117D01*
X204279Y137388D01*
X204279Y142012D01*
X206048Y146283D01*
X209317Y149552D01*
X213363Y151227D01*
X213484Y151296D01*
X213607Y151361D01*
X213622Y151375D01*
X213639Y151385D01*
X213739Y151482D01*
X213842Y151575D01*
X213853Y151592D01*
X213868Y151606D01*
X213941Y151725D01*
X214017Y151841D01*
X214023Y151860D01*
X214034Y151877D01*
X214075Y152010D01*
X214120Y152142D01*
X214122Y152162D01*
X214128Y152181D01*
X214134Y152320D01*
X214145Y152459D01*
X214142Y152479D01*
X214143Y152499D01*
X214115Y152635D01*
X214091Y152772D01*
X214083Y152791D01*
X214078Y152810D01*
X214017Y152936D01*
X213960Y153062D01*
X213948Y153078D01*
X213939Y153096D01*
X213848Y153202D01*
X213762Y153310D01*
X213746Y153323D01*
X213732Y153338D01*
X213619Y153418D01*
X213508Y153502D01*
X213482Y153514D01*
X213472Y153521D01*
X213453Y153528D01*
X213363Y153573D01*
X209317Y155248D01*
X206048Y158517D01*
X204279Y162788D01*
X204279Y167412D01*
X206048Y171683D01*
X209317Y174952D01*
X213363Y176627D01*
X213484Y176696D01*
X213607Y176761D01*
X213622Y176775D01*
X213639Y176785D01*
X213739Y176882D01*
X213842Y176975D01*
X213853Y176992D01*
X213868Y177006D01*
X213941Y177125D01*
X214017Y177241D01*
X214023Y177260D01*
X214034Y177277D01*
X214075Y177410D01*
X214120Y177542D01*
X214122Y177562D01*
X214128Y177581D01*
X214134Y177720D01*
X214145Y177859D01*
X214142Y177879D01*
X214143Y177899D01*
X214115Y178035D01*
X214091Y178172D01*
X214083Y178191D01*
X214078Y178210D01*
X214017Y178336D01*
X213960Y178462D01*
X213948Y178478D01*
X213939Y178496D01*
X213848Y178602D01*
X213762Y178710D01*
X213746Y178723D01*
X213732Y178738D01*
X213619Y178818D01*
X213508Y178902D01*
X213482Y178914D01*
X213472Y178921D01*
X213453Y178928D01*
X213363Y178973D01*
X209317Y180648D01*
X206048Y183917D01*
X204279Y188188D01*
X204279Y192812D01*
X206048Y197083D01*
X209317Y200352D01*
X213363Y202027D01*
X213484Y202096D01*
X213607Y202161D01*
X213622Y202175D01*
X213639Y202185D01*
X213739Y202282D01*
X213842Y202375D01*
X213853Y202392D01*
X213868Y202406D01*
X213941Y202525D01*
X214017Y202641D01*
X214023Y202660D01*
X214034Y202677D01*
X214075Y202810D01*
X214120Y202942D01*
X214122Y202962D01*
X214128Y202981D01*
X214134Y203120D01*
X214145Y203259D01*
X214142Y203279D01*
X214143Y203299D01*
X214115Y203435D01*
X214091Y203572D01*
X214083Y203591D01*
X214078Y203610D01*
X214017Y203736D01*
X213960Y203862D01*
X213948Y203878D01*
X213939Y203896D01*
X213848Y204002D01*
X213762Y204110D01*
X213746Y204123D01*
X213732Y204138D01*
X213619Y204218D01*
X213508Y204302D01*
X213482Y204314D01*
X213472Y204321D01*
X213453Y204328D01*
X213363Y204373D01*
X209317Y206048D01*
X206048Y209317D01*
X204279Y213588D01*
X204279Y218212D01*
X206048Y222483D01*
X209317Y225752D01*
X212904Y227237D01*
X212965Y227272D01*
X213030Y227298D01*
X213103Y227350D01*
X213181Y227395D01*
X213231Y227443D01*
X213287Y227484D01*
X213345Y227554D01*
X213409Y227616D01*
X213446Y227676D01*
X213490Y227729D01*
X213528Y227811D01*
X213575Y227887D01*
X213596Y227954D01*
X213626Y228017D01*
X213643Y228105D01*
X213669Y228191D01*
X213672Y228261D01*
X213685Y228330D01*
X213680Y228419D01*
X213684Y228509D01*
X213670Y228577D01*
X213666Y228647D01*
X213638Y228732D01*
X213620Y228820D01*
X213589Y228883D01*
X213568Y228949D01*
X213520Y229025D01*
X213480Y229106D01*
X213435Y229159D01*
X213398Y229218D01*
X213332Y229280D01*
X213274Y229348D01*
X213217Y229388D01*
X213166Y229436D01*
X213087Y229479D01*
X213014Y229531D01*
X212948Y229556D01*
X212887Y229590D01*
X212801Y229612D01*
X212716Y229644D01*
X212647Y229652D01*
X212579Y229669D01*
X212419Y229679D01*
X208349Y229679D01*
X206482Y230453D01*
X205053Y231882D01*
X204279Y233749D01*
X204279Y248851D01*
X205053Y250718D01*
X206482Y252147D01*
X208349Y252921D01*
X223451Y252921D01*
X225318Y252147D01*
X226747Y250718D01*
X227521Y248851D01*
X227521Y233749D01*
X226747Y231882D01*
X225318Y230453D01*
X223451Y229679D01*
X219381Y229679D01*
X219312Y229671D01*
X219242Y229672D01*
X219155Y229651D01*
X219066Y229639D01*
X219001Y229614D01*
X218933Y229597D01*
X218854Y229555D01*
X218770Y229522D01*
X218714Y229481D01*
X218652Y229449D01*
X218585Y229388D01*
X218513Y229336D01*
X218468Y229282D01*
X218417Y229235D01*
X218367Y229160D01*
X218310Y229091D01*
X218280Y229027D01*
X218242Y228969D01*
X218213Y228884D01*
X218174Y228803D01*
X218161Y228734D01*
X218139Y228668D01*
X218131Y228579D01*
X218115Y228491D01*
X218119Y228421D01*
X218113Y228351D01*
X218129Y228263D01*
X218134Y228173D01*
X218156Y228107D01*
X218168Y228038D01*
X218205Y227956D01*
X218232Y227871D01*
X218270Y227812D01*
X218298Y227748D01*
X218354Y227678D01*
X218402Y227602D01*
X218453Y227554D01*
X218497Y227500D01*
X218569Y227445D01*
X218634Y227384D01*
X218695Y227350D01*
X218751Y227308D01*
X218896Y227237D01*
X222483Y225752D01*
X225752Y222483D01*
X227521Y218212D01*
X227521Y213588D01*
X225752Y209317D01*
X222483Y206048D01*
X218437Y204373D01*
X218316Y204304D01*
X218193Y204239D01*
X218178Y204225D01*
X218161Y204215D01*
X218061Y204118D01*
X217958Y204025D01*
X217947Y204008D01*
X217932Y203994D01*
X217860Y203876D01*
X217783Y203759D01*
X217777Y203740D01*
X217766Y203723D01*
X217725Y203590D01*
X217680Y203458D01*
X217678Y203438D01*
X217672Y203419D01*
X217666Y203280D01*
X217655Y203141D01*
X217658Y203121D01*
X217657Y203101D01*
X217685Y202965D01*
X217709Y202828D01*
X217717Y202809D01*
X217722Y202790D01*
X217783Y202665D01*
X217840Y202538D01*
X217852Y202522D01*
X217861Y202504D01*
X217952Y202398D01*
X218038Y202290D01*
X218054Y202277D01*
X218068Y202262D01*
X218181Y202182D01*
X218292Y202098D01*
X218318Y202086D01*
X218328Y202079D01*
X218347Y202072D01*
X218437Y202027D01*
X222483Y200352D01*
X225752Y197083D01*
X227521Y192812D01*
X227521Y188188D01*
X225752Y183917D01*
X222483Y180648D01*
X218437Y178973D01*
X218316Y178904D01*
X218193Y178839D01*
X218178Y178825D01*
X218161Y178815D01*
X218061Y178718D01*
X217958Y178625D01*
X217947Y178608D01*
X217932Y178594D01*
X217860Y178476D01*
X217783Y178359D01*
X217777Y178340D01*
X217766Y178323D01*
X217725Y178190D01*
X217680Y178058D01*
X217678Y178038D01*
X217672Y178019D01*
X217666Y177880D01*
X217655Y177741D01*
X217658Y177721D01*
X217657Y177701D01*
X217685Y177564D01*
X217709Y177428D01*
X217717Y177409D01*
X217722Y177390D01*
X217783Y177265D01*
X217840Y177138D01*
X217852Y177122D01*
X217861Y177104D01*
X217952Y176998D01*
X218038Y176890D01*
X218054Y176877D01*
X218068Y176862D01*
X218181Y176782D01*
X218292Y176698D01*
X218318Y176686D01*
X218328Y176679D01*
X218347Y176672D01*
X218437Y176627D01*
X222483Y174952D01*
X225752Y171683D01*
X227521Y167412D01*
X227521Y162788D01*
X225752Y158517D01*
X222483Y155248D01*
X218437Y153573D01*
X218316Y153504D01*
X218193Y153439D01*
X218178Y153425D01*
X218161Y153415D01*
X218061Y153318D01*
X217958Y153225D01*
X217947Y153208D01*
X217932Y153194D01*
X217860Y153076D01*
X217783Y152959D01*
X217777Y152940D01*
X217766Y152923D01*
X217725Y152790D01*
X217680Y152658D01*
X217678Y152638D01*
X217672Y152619D01*
X217666Y152480D01*
X217655Y152341D01*
X217658Y152321D01*
X217657Y152301D01*
X217685Y152165D01*
X217709Y152028D01*
X217717Y152009D01*
X217722Y151990D01*
X217783Y151865D01*
X217840Y151738D01*
X217852Y151722D01*
X217861Y151704D01*
X217952Y151598D01*
X218038Y151490D01*
X218054Y151477D01*
X218068Y151462D01*
X218181Y151382D01*
X218292Y151298D01*
X218318Y151286D01*
X218328Y151279D01*
X218347Y151272D01*
X218437Y151227D01*
X222483Y149552D01*
X225752Y146283D01*
X227521Y142012D01*
X227521Y137388D01*
X225752Y133117D01*
X222483Y129848D01*
X218437Y128173D01*
X218316Y128104D01*
X218193Y128039D01*
X218178Y128025D01*
X218161Y128015D01*
X218061Y127918D01*
X217958Y127825D01*
X217947Y127808D01*
X217932Y127794D01*
X217860Y127676D01*
X217783Y127559D01*
X217777Y127540D01*
X217766Y127523D01*
X217725Y127390D01*
X217680Y127258D01*
X217678Y127238D01*
X217672Y127219D01*
X217666Y127080D01*
X217655Y126941D01*
X217658Y126921D01*
X217657Y126901D01*
X217685Y126764D01*
X217709Y126628D01*
X217717Y126609D01*
X217722Y126590D01*
X217783Y126464D01*
X217840Y126338D01*
X217852Y126322D01*
X217861Y126304D01*
X217952Y126198D01*
X218038Y126090D01*
X218054Y126077D01*
X218068Y126062D01*
X218181Y125982D01*
X218292Y125898D01*
X218318Y125886D01*
X218328Y125879D01*
X218347Y125872D01*
X218437Y125827D01*
X222483Y124152D01*
X225752Y120883D01*
X227521Y116612D01*
X227521Y111988D01*
X225752Y107717D01*
X222483Y104448D01*
X218437Y102773D01*
X218316Y102704D01*
X218193Y102639D01*
X218178Y102625D01*
X218161Y102615D01*
X218061Y102518D01*
X217958Y102425D01*
X217947Y102408D01*
X217932Y102394D01*
X217860Y102276D01*
X217783Y102159D01*
X217777Y102140D01*
X217766Y102123D01*
X217725Y101990D01*
X217680Y101858D01*
X217678Y101838D01*
X217672Y101819D01*
X217666Y101680D01*
X217655Y101541D01*
X217658Y101521D01*
X217657Y101501D01*
X217685Y101365D01*
X217709Y101228D01*
X217717Y101209D01*
X217722Y101190D01*
X217783Y101065D01*
X217840Y100938D01*
X217852Y100922D01*
X217861Y100904D01*
X217952Y100798D01*
X218038Y100690D01*
X218054Y100677D01*
X218068Y100662D01*
X218181Y100582D01*
X218292Y100498D01*
X218318Y100486D01*
X218328Y100479D01*
X218347Y100472D01*
X218437Y100427D01*
X222483Y98752D01*
X225752Y95483D01*
X227521Y91212D01*
X227521Y86588D01*
X225752Y82317D01*
X222483Y79048D01*
X218437Y77373D01*
X218316Y77304D01*
X218193Y77239D01*
X218178Y77225D01*
X218161Y77215D01*
X218061Y77118D01*
X217958Y77025D01*
X217947Y77008D01*
X217932Y76994D01*
X217860Y76876D01*
X217783Y76759D01*
X217777Y76740D01*
X217766Y76723D01*
X217725Y76590D01*
X217680Y76458D01*
X217678Y76438D01*
X217672Y76419D01*
X217666Y76280D01*
X217655Y76141D01*
X217658Y76121D01*
X217657Y76101D01*
X217685Y75964D01*
X217709Y75828D01*
X217717Y75809D01*
X217722Y75790D01*
X217783Y75665D01*
X217840Y75538D01*
X217852Y75522D01*
X217861Y75504D01*
X217952Y75398D01*
X218038Y75290D01*
X218054Y75277D01*
X218068Y75262D01*
X218181Y75182D01*
X218292Y75098D01*
X218318Y75086D01*
X218328Y75079D01*
X218347Y75072D01*
X218437Y75027D01*
X222483Y73352D01*
X225752Y70083D01*
X227521Y65812D01*
X227521Y61188D01*
X225752Y56917D01*
X222483Y53648D01*
X218212Y51879D01*
X213588Y51879D01*
G37*
%LPD*%
%LPC*%
G36*
X86222Y359155D02*
X86222Y359155D01*
X81274Y361205D01*
X77487Y364992D01*
X75437Y369940D01*
X75437Y392060D01*
X77487Y397008D01*
X81274Y400795D01*
X86222Y402845D01*
X91578Y402845D01*
X96526Y400795D01*
X100313Y397008D01*
X100427Y396732D01*
X100496Y396612D01*
X100561Y396489D01*
X100575Y396474D01*
X100585Y396456D01*
X100682Y396356D01*
X100775Y396253D01*
X100792Y396242D01*
X100806Y396228D01*
X100925Y396155D01*
X101041Y396079D01*
X101060Y396072D01*
X101077Y396061D01*
X101210Y396020D01*
X101342Y395975D01*
X101362Y395974D01*
X101381Y395968D01*
X101520Y395961D01*
X101659Y395950D01*
X101679Y395954D01*
X101699Y395953D01*
X101835Y395981D01*
X101972Y396005D01*
X101990Y396013D01*
X102010Y396017D01*
X102135Y396078D01*
X102262Y396135D01*
X102278Y396148D01*
X102296Y396157D01*
X102402Y396247D01*
X102510Y396334D01*
X102523Y396350D01*
X102538Y396363D01*
X102618Y396477D01*
X102702Y396588D01*
X102714Y396613D01*
X102721Y396623D01*
X102728Y396642D01*
X102773Y396732D01*
X102887Y397008D01*
X106674Y400795D01*
X111622Y402845D01*
X116978Y402845D01*
X121926Y400795D01*
X125713Y397008D01*
X125827Y396732D01*
X125896Y396612D01*
X125961Y396489D01*
X125975Y396474D01*
X125985Y396456D01*
X126082Y396356D01*
X126175Y396253D01*
X126192Y396242D01*
X126206Y396228D01*
X126325Y396155D01*
X126441Y396079D01*
X126460Y396072D01*
X126477Y396061D01*
X126610Y396020D01*
X126742Y395975D01*
X126762Y395974D01*
X126781Y395968D01*
X126920Y395961D01*
X127059Y395950D01*
X127079Y395954D01*
X127099Y395953D01*
X127235Y395981D01*
X127372Y396005D01*
X127390Y396013D01*
X127410Y396017D01*
X127535Y396078D01*
X127662Y396135D01*
X127678Y396148D01*
X127696Y396157D01*
X127802Y396247D01*
X127910Y396334D01*
X127923Y396350D01*
X127938Y396363D01*
X128018Y396477D01*
X128102Y396588D01*
X128114Y396613D01*
X128121Y396623D01*
X128128Y396642D01*
X128173Y396732D01*
X128287Y397008D01*
X132074Y400795D01*
X137022Y402845D01*
X142378Y402845D01*
X147326Y400795D01*
X151113Y397008D01*
X153163Y392060D01*
X153163Y369940D01*
X151113Y364992D01*
X147326Y361205D01*
X142378Y359155D01*
X137022Y359155D01*
X132074Y361205D01*
X128287Y364992D01*
X128173Y365268D01*
X128104Y365388D01*
X128039Y365511D01*
X128025Y365526D01*
X128015Y365544D01*
X127918Y365644D01*
X127825Y365747D01*
X127808Y365758D01*
X127794Y365772D01*
X127675Y365845D01*
X127559Y365921D01*
X127540Y365928D01*
X127523Y365939D01*
X127390Y365980D01*
X127258Y366025D01*
X127238Y366026D01*
X127219Y366032D01*
X127080Y366039D01*
X126941Y366050D01*
X126921Y366046D01*
X126901Y366047D01*
X126765Y366019D01*
X126628Y365995D01*
X126609Y365987D01*
X126590Y365983D01*
X126465Y365922D01*
X126338Y365865D01*
X126322Y365852D01*
X126304Y365843D01*
X126198Y365753D01*
X126089Y365666D01*
X126077Y365650D01*
X126062Y365637D01*
X125982Y365524D01*
X125898Y365412D01*
X125886Y365387D01*
X125879Y365377D01*
X125872Y365358D01*
X125827Y365268D01*
X125713Y364992D01*
X121926Y361205D01*
X116978Y359155D01*
X111622Y359155D01*
X106674Y361205D01*
X102887Y364992D01*
X102773Y365268D01*
X102704Y365388D01*
X102639Y365511D01*
X102625Y365526D01*
X102615Y365544D01*
X102518Y365644D01*
X102425Y365747D01*
X102408Y365758D01*
X102394Y365772D01*
X102275Y365845D01*
X102159Y365921D01*
X102140Y365928D01*
X102123Y365939D01*
X101990Y365980D01*
X101858Y366025D01*
X101838Y366026D01*
X101819Y366032D01*
X101680Y366039D01*
X101541Y366050D01*
X101521Y366046D01*
X101501Y366047D01*
X101365Y366019D01*
X101228Y365995D01*
X101209Y365987D01*
X101190Y365983D01*
X101065Y365922D01*
X100938Y365865D01*
X100922Y365852D01*
X100904Y365843D01*
X100798Y365753D01*
X100689Y365666D01*
X100677Y365650D01*
X100662Y365637D01*
X100582Y365524D01*
X100498Y365412D01*
X100486Y365387D01*
X100479Y365377D01*
X100472Y365358D01*
X100427Y365268D01*
X100313Y364992D01*
X96526Y361205D01*
X91578Y359155D01*
X86222Y359155D01*
G37*
%LPD*%
G36*
X354433Y189951D02*
X354433Y189951D01*
X354567Y189960D01*
X354590Y189967D01*
X354615Y189970D01*
X354741Y190016D01*
X354869Y190058D01*
X354890Y190071D01*
X354914Y190079D01*
X355024Y190156D01*
X355138Y190228D01*
X355155Y190246D01*
X355175Y190260D01*
X355264Y190361D01*
X355356Y190459D01*
X355368Y190481D01*
X355384Y190500D01*
X355465Y190639D01*
X355483Y190690D01*
X355510Y190738D01*
X355536Y190840D01*
X355571Y190939D01*
X355575Y190993D01*
X355589Y191046D01*
X355599Y191207D01*
X355599Y200141D01*
X357146Y203876D01*
X378088Y224817D01*
X378148Y224895D01*
X378216Y224967D01*
X378245Y225020D01*
X378282Y225068D01*
X378322Y225159D01*
X378370Y225246D01*
X378385Y225304D01*
X378409Y225360D01*
X378424Y225458D01*
X378449Y225554D01*
X378455Y225654D01*
X378459Y225674D01*
X378457Y225686D01*
X378459Y225714D01*
X378459Y309086D01*
X378447Y309184D01*
X378444Y309284D01*
X378427Y309342D01*
X378419Y309402D01*
X378383Y309494D01*
X378355Y309589D01*
X378325Y309641D01*
X378302Y309698D01*
X378244Y309778D01*
X378194Y309863D01*
X378128Y309938D01*
X378116Y309955D01*
X378106Y309963D01*
X378087Y309984D01*
X377190Y310881D01*
X376095Y313524D01*
X376071Y313567D01*
X376054Y313614D01*
X375992Y313705D01*
X375938Y313800D01*
X375903Y313836D01*
X375875Y313877D01*
X375793Y313950D01*
X375717Y314029D01*
X375674Y314055D01*
X375637Y314088D01*
X375539Y314138D01*
X375445Y314195D01*
X375398Y314210D01*
X375354Y314232D01*
X375247Y314256D01*
X375142Y314289D01*
X375092Y314291D01*
X375043Y314302D01*
X374933Y314299D01*
X374824Y314304D01*
X374775Y314294D01*
X374726Y314292D01*
X374620Y314262D01*
X374512Y314239D01*
X374468Y314218D01*
X374420Y314204D01*
X374326Y314148D01*
X374227Y314100D01*
X374189Y314067D01*
X374146Y314042D01*
X374025Y313936D01*
X353432Y293343D01*
X353372Y293265D01*
X353304Y293193D01*
X353275Y293140D01*
X353238Y293092D01*
X353198Y293001D01*
X353150Y292914D01*
X353135Y292856D01*
X353111Y292800D01*
X353096Y292702D01*
X353071Y292606D01*
X353065Y292506D01*
X353061Y292486D01*
X353063Y292474D01*
X353061Y292446D01*
X353061Y191206D01*
X353064Y191182D01*
X353062Y191157D01*
X353084Y191025D01*
X353101Y190891D01*
X353110Y190868D01*
X353114Y190844D01*
X353168Y190720D01*
X353218Y190595D01*
X353232Y190575D01*
X353242Y190553D01*
X353325Y190447D01*
X353404Y190338D01*
X353424Y190322D01*
X353439Y190303D01*
X353546Y190221D01*
X353649Y190135D01*
X353672Y190125D01*
X353691Y190110D01*
X353816Y190057D01*
X353937Y190000D01*
X353961Y189995D01*
X353984Y189985D01*
X354118Y189965D01*
X354249Y189940D01*
X354274Y189941D01*
X354299Y189938D01*
X354433Y189951D01*
G37*
%LPC*%
G36*
X26355Y176066D02*
X26355Y176066D01*
X21197Y178202D01*
X17249Y182150D01*
X15112Y187308D01*
X15112Y192892D01*
X17249Y198050D01*
X21197Y201998D01*
X26355Y204134D01*
X49845Y204134D01*
X55003Y201998D01*
X58951Y198050D01*
X61088Y192892D01*
X61088Y187308D01*
X58951Y182150D01*
X55003Y178202D01*
X49845Y176066D01*
X26355Y176066D01*
G37*
%LPD*%
%LPC*%
G36*
X26355Y126066D02*
X26355Y126066D01*
X21197Y128202D01*
X17249Y132150D01*
X15112Y137308D01*
X15112Y142892D01*
X17249Y148050D01*
X21197Y151998D01*
X26355Y154134D01*
X49845Y154134D01*
X55003Y151998D01*
X58951Y148050D01*
X61088Y142892D01*
X61088Y137308D01*
X58951Y132150D01*
X55003Y128202D01*
X49845Y126066D01*
X26355Y126066D01*
G37*
%LPD*%
%LPC*%
G36*
X250463Y439419D02*
X250463Y439419D01*
X243928Y442126D01*
X238926Y447128D01*
X236219Y453663D01*
X236219Y460737D01*
X238926Y467272D01*
X243928Y472274D01*
X250463Y474981D01*
X257537Y474981D01*
X264072Y472274D01*
X269074Y467272D01*
X271781Y460737D01*
X271781Y453663D01*
X269074Y447128D01*
X264072Y442126D01*
X257537Y439419D01*
X250463Y439419D01*
G37*
%LPD*%
%LPC*%
G36*
X256554Y177799D02*
X256554Y177799D01*
X251886Y179733D01*
X248313Y183306D01*
X246379Y187974D01*
X246379Y193026D01*
X248313Y197694D01*
X251886Y201267D01*
X256554Y203201D01*
X276846Y203201D01*
X281514Y201267D01*
X285087Y197694D01*
X287021Y193026D01*
X287021Y187974D01*
X285087Y183306D01*
X281514Y179733D01*
X276846Y177799D01*
X256554Y177799D01*
G37*
%LPD*%
%LPC*%
G36*
X256554Y126999D02*
X256554Y126999D01*
X251886Y128933D01*
X248313Y132506D01*
X246379Y137174D01*
X246379Y142226D01*
X248313Y146894D01*
X251886Y150467D01*
X256554Y152401D01*
X276846Y152401D01*
X281514Y150467D01*
X285087Y146894D01*
X287021Y142226D01*
X287021Y137174D01*
X285087Y132506D01*
X281514Y128933D01*
X276846Y126999D01*
X256554Y126999D01*
G37*
%LPD*%
%LPC*%
G36*
X383554Y76199D02*
X383554Y76199D01*
X378886Y78133D01*
X375313Y81706D01*
X373379Y86374D01*
X373379Y91426D01*
X375313Y96094D01*
X378886Y99667D01*
X383554Y101601D01*
X403846Y101601D01*
X408514Y99667D01*
X412087Y96094D01*
X414021Y91426D01*
X414021Y86374D01*
X412087Y81706D01*
X408514Y78133D01*
X403846Y76199D01*
X383554Y76199D01*
G37*
%LPD*%
%LPC*%
G36*
X256554Y76199D02*
X256554Y76199D01*
X251886Y78133D01*
X248313Y81706D01*
X246379Y86374D01*
X246379Y91426D01*
X248313Y96094D01*
X251886Y99667D01*
X256554Y101601D01*
X276846Y101601D01*
X281514Y99667D01*
X285087Y96094D01*
X287021Y91426D01*
X287021Y86374D01*
X285087Y81706D01*
X281514Y78133D01*
X276846Y76199D01*
X256554Y76199D01*
G37*
%LPD*%
D10*
X114300Y241300D03*
X215900Y241300D03*
D11*
X114300Y215900D03*
X215900Y215900D03*
X114300Y190500D03*
X215900Y190500D03*
X114300Y165100D03*
X215900Y165100D03*
X114300Y139700D03*
X215900Y139700D03*
X114300Y114300D03*
X215900Y114300D03*
X114300Y88900D03*
X215900Y88900D03*
X114300Y63500D03*
X215900Y63500D03*
D12*
X254000Y457200D03*
D13*
X304800Y457200D03*
D14*
X274320Y190500D02*
X259080Y190500D01*
X386080Y190500D02*
X401320Y190500D01*
X274320Y139700D02*
X259080Y139700D01*
X386080Y139700D02*
X401320Y139700D01*
X274320Y88900D02*
X259080Y88900D01*
X386080Y88900D02*
X401320Y88900D01*
D15*
X88900Y372618D02*
X88900Y389382D01*
X114300Y389382D02*
X114300Y372618D01*
X139700Y372618D02*
X139700Y389382D01*
D16*
X241300Y355600D03*
X317500Y355600D03*
X241300Y304800D03*
X317500Y304800D03*
D17*
X387096Y317500D02*
X400304Y317500D01*
X400304Y342900D02*
X387096Y342900D01*
X387096Y368300D02*
X400304Y368300D01*
X400304Y393700D02*
X387096Y393700D01*
X387096Y419100D02*
X400304Y419100D01*
X400304Y444500D02*
X387096Y444500D01*
D18*
X47054Y190100D02*
X29147Y190100D01*
X29147Y140100D02*
X47054Y140100D01*
D19*
X304800Y419100D02*
X304800Y457200D01*
X304800Y419100D02*
X241300Y355600D01*
X320040Y327660D02*
X320040Y304800D01*
X320040Y327660D02*
X388620Y396240D01*
X320040Y304800D02*
X317500Y304800D01*
X388620Y396240D02*
X393700Y393700D01*
X129540Y220980D02*
X114300Y220980D01*
X129540Y220980D02*
X243840Y335280D01*
X289560Y335280D01*
X312420Y358140D01*
X114300Y220980D02*
X114300Y215900D01*
X312420Y358140D02*
X317500Y355600D01*
X388620Y312420D02*
X388620Y220980D01*
X365760Y198120D01*
X365760Y182880D01*
X388620Y312420D02*
X393700Y317500D01*
D20*
X365760Y182880D03*
D19*
X342900Y297180D02*
X388620Y342900D01*
X342900Y297180D02*
X342900Y175260D01*
X373380Y144780D01*
X388620Y144780D01*
X388620Y342900D02*
X393700Y342900D01*
X388620Y144780D02*
X393700Y139700D01*
M02*
