G04 EAGLE Gerber RS-274X export*
G75*
%MOMM*%
%FSLAX34Y34*%
%LPD*%
%IN*%
%IPPOS*%
%AMOC8*
5,1,8,0,0,1.08239X$1,22.5*%
G01*
%ADD10C,0.254000*%


D10*
X-12700Y12700D02*
X428500Y12700D01*
X428500Y520600D01*
X-12700Y520600D01*
X-12700Y12700D01*
X130810Y555720D02*
X130739Y554641D01*
X130598Y553569D01*
X130387Y552509D01*
X130108Y551465D01*
X129760Y550441D01*
X129346Y549443D01*
X128868Y548473D01*
X128328Y547537D01*
X127727Y546638D01*
X127069Y545781D01*
X126357Y544968D01*
X125592Y544204D01*
X124779Y543491D01*
X123922Y542833D01*
X123023Y542232D01*
X122087Y541692D01*
X121117Y541214D01*
X120119Y540800D01*
X119095Y540452D01*
X118051Y540173D01*
X116991Y539962D01*
X115919Y539821D01*
X114840Y539750D01*
X113760Y539750D01*
X112681Y539821D01*
X111609Y539962D01*
X110549Y540173D01*
X109505Y540452D01*
X108481Y540800D01*
X107483Y541214D01*
X106513Y541692D01*
X105577Y542232D01*
X104678Y542833D01*
X103821Y543491D01*
X103008Y544204D01*
X102244Y544968D01*
X101531Y545781D01*
X100873Y546638D01*
X100272Y547537D01*
X99732Y548473D01*
X99254Y549443D01*
X98840Y550441D01*
X98492Y551465D01*
X98213Y552509D01*
X98002Y553569D01*
X97861Y554641D01*
X97790Y555720D01*
X97790Y556800D01*
X97861Y557879D01*
X98002Y558951D01*
X98213Y560011D01*
X98492Y561055D01*
X98840Y562079D01*
X99254Y563077D01*
X99732Y564047D01*
X100272Y564983D01*
X100873Y565882D01*
X101531Y566739D01*
X102244Y567552D01*
X103008Y568317D01*
X103821Y569029D01*
X104678Y569687D01*
X105577Y570288D01*
X106513Y570828D01*
X107483Y571306D01*
X108481Y571720D01*
X109505Y572068D01*
X110549Y572347D01*
X111609Y572558D01*
X112681Y572699D01*
X113760Y572770D01*
X114840Y572770D01*
X115919Y572699D01*
X116991Y572558D01*
X118051Y572347D01*
X119095Y572068D01*
X120119Y571720D01*
X121117Y571306D01*
X122087Y570828D01*
X123023Y570288D01*
X123922Y569687D01*
X124779Y569029D01*
X125592Y568317D01*
X126357Y567552D01*
X127069Y566739D01*
X127727Y565882D01*
X128328Y564983D01*
X128868Y564047D01*
X129346Y563077D01*
X129760Y562079D01*
X130108Y561055D01*
X130387Y560011D01*
X130598Y558951D01*
X130739Y557879D01*
X130810Y556800D01*
X130810Y555720D01*
M02*
