M48
;GenerationSoftware,Autodesk,EAGLE,9.3.0*%
;CreationDate,2019-07-09T11:51:40Z*%
FMAT,2
ICI,OFF
METRIC,TZ,000.000
T8C0.508
T7C0.733
T6C0.800
T5C0.813
T4C1.016
T3C1.194
T2C2.499
%
G90
M71
T2
X8077Y58928
X70206Y27965
T3
X62270Y5080
X67270Y5080
X52110Y5080
X57110Y5080
X19010Y5080
X14010Y5080
X8850Y5080
X3850Y5080
X43140Y5080
X38140Y5080
X32980Y5080
X27980Y5080
T4
X34290Y27940
X46990Y40640
X34290Y40640
X66040Y27940
X66040Y40640
X46990Y27940
X2540Y38100
X59690Y40640
X59690Y27940
X53340Y40640
X53340Y27940
X8890Y35560
X13970Y35560
X40640Y27940
X40640Y40640
X21590Y40640
X27940Y27940
X27940Y40640
X2540Y33020
X2540Y35560
X21590Y27940
X69520Y50673
X69520Y48133
X69520Y45593
X69520Y43053
X69520Y40513
T5
X8890Y53340
X39370Y60960
X36830Y60960
X34290Y60960
X31750Y60960
X29210Y60960
X26670Y60960
X24130Y60960
X21590Y60960
X19050Y60960
X16510Y60960
X13970Y60960
X41910Y60960
X8890Y45720
X15240Y27940
X7620Y27940
X2540Y44450
X2540Y46990
X2540Y49530
X2540Y52070
X2540Y54610
X2540Y57150
X2540Y59690
X2540Y62230
X69850Y62230
X69850Y59690
X31750Y57150
X29210Y57150
T6
X15240Y12700
X53340Y22860
X44450Y22860
X55880Y12700
X55880Y22860
X58420Y12700
X58420Y22860
X60960Y12700
X60960Y22860
X63500Y12700
X15240Y22860
X50800Y12700
X12700Y22860
X12700Y12700
X63500Y22860
X66040Y12700
X66040Y22860
X10160Y22860
X10160Y12700
X7620Y22860
X7620Y12700
X5080Y22860
X5080Y12700
X2540Y22860
X2540Y12700
X68580Y22860
X39370Y12700
X36830Y22860
X36830Y12700
X34290Y22860
X34290Y12700
X31750Y22860
X31750Y12700
X29210Y22860
X29210Y12700
X26670Y22860
X65430Y63449
X26670Y12700
X53340Y12700
X68580Y12700
X41910Y12700
X41910Y22860
X44450Y12700
X20320Y22860
X20320Y12700
X17780Y22860
X17780Y12700
X39370Y22860
X50800Y22860
T7
X24130Y45561
X16510Y53499
X13970Y45561
X16510Y45561
X19050Y45561
X21590Y45561
X26670Y45561
X29210Y45561
X31750Y45561
X34290Y45561
X36830Y45561
X39370Y45561
X41910Y45561
X44450Y45561
X46990Y45561
X44450Y53499
X13970Y53499
X19050Y53499
X21590Y53499
X24130Y53499
X26670Y53499
X29210Y53499
X31750Y53499
X34290Y53499
X36830Y53499
X39370Y53499
X41910Y53499
X46990Y53499
T8
X65405Y55245
X51435Y55245
X51435Y52070
X36830Y55245
X46990Y59055
X35560Y59055
M30