M48
;GenerationSoftware,Autodesk,EAGLE,9.3.0*%
;CreationDate,2019-04-28T04:11:20Z*%
FMAT,2
ICI,OFF
METRIC,TZ,000.000
T7C0.800
T6C0.813
T5C1.016
T4C1.118
T3C1.194
T2C3.302
%
G90
M71
T2
X11430Y55626
T3
X3810Y14010
X3810Y19010
T4
X13970Y38100
X11430Y38100
X8890Y38100
T5
X26670Y13970
X36576Y18288
X39370Y8890
X26670Y8890
X39370Y13970
X39370Y19050
X26670Y19050
X30480Y45720
X25400Y45720
T6
X39370Y44450
X39370Y41910
X39370Y39370
X39370Y36830
X39370Y34290
X39370Y31750
X31750Y30480
X24130Y30480
X31750Y35560
X24130Y35560
T7
X21590Y21590
X11430Y21590
X11430Y24130
X21590Y8890
X11430Y19050
X21590Y19050
X11430Y16510
X21590Y16510
X11430Y13970
X21590Y24130
X21590Y13970
X11430Y11430
X21590Y11430
X11430Y8890
X21590Y6350
X11430Y6350
M30